%FSLAX44Y44*%
%MOMM*%
G71*
G01*
G75*
G04 Layer_Color=8388736*
%ADD10C,0.2540*%
%ADD11R,0.6500X0.9000*%
%ADD12R,0.8000X0.9000*%
%ADD13C,1.2000*%
%ADD14C,0.8000*%
%ADD15C,0.7000*%
%ADD16C,0.2000*%
%ADD17C,1.4000*%
%ADD18C,2.0000*%
%ADD19R,2.0000X2.0000*%
%ADD20C,1.5240*%
%ADD21R,1.0000X1.0000*%
%ADD22C,1.0000*%
%ADD23C,1.6000*%
%ADD24R,1.6000X1.6000*%
%ADD25C,1.2000*%
%ADD26C,0.8000*%
%ADD27O,0.6000X2.2000*%
%ADD28R,0.9000X0.8000*%
%ADD29C,0.5000*%
%ADD30C,0.2500*%
%ADD31C,0.0250*%
%ADD32C,0.4000*%
%ADD33C,0.1500*%
%ADD34R,0.8000X2.8000*%
%ADD35R,0.8532X1.1032*%
%ADD36R,1.0032X1.1032*%
%ADD37C,1.6032*%
%ADD38C,2.2032*%
%ADD39R,2.2032X2.2032*%
%ADD40C,1.7272*%
%ADD41R,1.2032X1.2032*%
%ADD42C,1.2032*%
%ADD43C,1.8032*%
%ADD44R,1.8032X1.8032*%
%ADD45C,1.4032*%
%ADD46C,1.0032*%
G36*
X47878Y263900D02*
X41155D01*
Y289958D01*
X47878D01*
Y263900D01*
D02*
G37*
G36*
X72530Y283235D02*
X58820D01*
X58556Y283190D01*
X58249Y283059D01*
X57941Y282795D01*
X57897Y282707D01*
X57765Y282487D01*
X57589Y282180D01*
X57545Y281784D01*
Y281740D01*
Y281696D01*
X57589Y281433D01*
X57677Y281081D01*
X57897Y280730D01*
X57985Y280686D01*
X58161Y280554D01*
X58512Y280378D01*
X58952Y280334D01*
X72530D01*
Y273611D01*
X58820D01*
X58556Y273567D01*
X58249Y273435D01*
X57941Y273172D01*
X57897Y273084D01*
X57765Y272908D01*
X57589Y272557D01*
X57545Y272117D01*
Y272073D01*
Y272029D01*
X57589Y271722D01*
X57721Y271370D01*
X57941Y271019D01*
X58029Y270975D01*
X58205Y270843D01*
X58556Y270667D01*
X58952Y270623D01*
X72530D01*
Y263900D01*
X57677D01*
X57370Y263944D01*
X56930Y263988D01*
X56447Y264032D01*
X55920Y264164D01*
X55392Y264296D01*
X54865Y264471D01*
X54821Y264515D01*
X54645Y264603D01*
X54382Y264735D01*
X54074Y264911D01*
X53723Y265130D01*
X53327Y265438D01*
X52976Y265746D01*
X52624Y266097D01*
X52580Y266141D01*
X52492Y266273D01*
X52316Y266493D01*
X52141Y266756D01*
X51921Y267108D01*
X51701Y267547D01*
X51481Y267987D01*
X51262Y268470D01*
Y268514D01*
X51174Y268734D01*
X51130Y268997D01*
X51042Y269349D01*
X50954Y269788D01*
X50866Y270272D01*
X50822Y270799D01*
X50778Y271370D01*
Y271414D01*
Y271502D01*
Y271634D01*
X50822Y271810D01*
X50866Y272293D01*
X50954Y272820D01*
Y272864D01*
X50998Y272952D01*
X51042Y273128D01*
X51086Y273304D01*
X51262Y273787D01*
X51481Y274358D01*
Y274402D01*
X51569Y274490D01*
X51657Y274666D01*
X51745Y274841D01*
X52053Y275325D01*
X52448Y275852D01*
X52492Y275896D01*
X52536Y275984D01*
X52668Y276116D01*
X52844Y276248D01*
X53239Y276643D01*
X53766Y277039D01*
X53679Y277083D01*
X53503Y277214D01*
X53195Y277434D01*
X52844Y277742D01*
X52448Y278137D01*
X52097Y278577D01*
X51745Y279104D01*
X51438Y279675D01*
X51394Y279763D01*
X51350Y279939D01*
X51262Y280290D01*
X51130Y280730D01*
X50998Y281257D01*
X50910Y281828D01*
X50866Y282487D01*
X50822Y283147D01*
Y283190D01*
Y283366D01*
X50866Y283630D01*
Y283981D01*
X50954Y284377D01*
X51042Y284816D01*
X51130Y285256D01*
X51306Y285739D01*
X51350Y285783D01*
X51394Y285959D01*
X51525Y286179D01*
X51701Y286486D01*
X52141Y287189D01*
X52756Y287892D01*
X52800Y287936D01*
X52931Y288068D01*
X53107Y288200D01*
X53371Y288420D01*
X53723Y288683D01*
X54074Y288903D01*
X54514Y289167D01*
X54997Y289386D01*
X55041Y289430D01*
X55216Y289474D01*
X55524Y289562D01*
X55876Y289694D01*
X56315Y289782D01*
X56798Y289870D01*
X57370Y289914D01*
X57985Y289958D01*
X72530D01*
Y283235D01*
D02*
G37*
G36*
X82636Y275325D02*
Y275281D01*
Y275237D01*
Y274973D01*
X82724Y274534D01*
X82812Y274051D01*
X82944Y273479D01*
X83164Y272908D01*
X83471Y272337D01*
X83867Y271854D01*
X83911Y271810D01*
X84086Y271678D01*
X84394Y271458D01*
X84789Y271238D01*
X85273Y271019D01*
X85888Y270799D01*
X86591Y270667D01*
X87426Y270623D01*
X95907D01*
Y263900D01*
X87074D01*
X86811Y263944D01*
X86547D01*
X85844Y263988D01*
X85053Y264076D01*
X84174Y264251D01*
X83295Y264427D01*
X82461Y264691D01*
X82417D01*
X82373Y264735D01*
X82109Y264823D01*
X81670Y265042D01*
X81186Y265262D01*
X80615Y265614D01*
X80000Y266009D01*
X79385Y266449D01*
X78813Y266976D01*
X78769Y267064D01*
X78594Y267240D01*
X78330Y267547D01*
X77979Y267987D01*
X77627Y268514D01*
X77275Y269129D01*
X76924Y269832D01*
X76616Y270579D01*
Y270623D01*
X76572Y270667D01*
Y270799D01*
X76528Y270931D01*
X76397Y271370D01*
X76265Y271985D01*
X76133Y272644D01*
X76045Y273479D01*
X75957Y274358D01*
X75913Y275325D01*
Y289958D01*
X82636D01*
Y275325D01*
D02*
G37*
G36*
X11494Y283235D02*
X-2216D01*
X-2479Y283190D01*
X-2787Y283059D01*
X-3095Y282795D01*
X-3138Y282707D01*
X-3270Y282487D01*
X-3446Y282180D01*
X-3490Y281784D01*
Y281740D01*
Y281696D01*
X-3446Y281433D01*
X-3314Y281081D01*
X-3095Y280730D01*
X-3007Y280686D01*
X-2831Y280554D01*
X-2479Y280378D01*
X-2084Y280334D01*
X4815D01*
X5079Y280290D01*
X5430D01*
X5826Y280246D01*
X6748Y280071D01*
X7759Y279851D01*
X8814Y279455D01*
X9824Y278972D01*
X10308Y278621D01*
X10747Y278269D01*
X10791Y278225D01*
X10835Y278181D01*
X10967Y278049D01*
X11099Y277873D01*
X11274Y277654D01*
X11494Y277434D01*
X11714Y277083D01*
X11934Y276731D01*
X12109Y276336D01*
X12329Y275896D01*
X12549Y275369D01*
X12725Y274841D01*
X12856Y274226D01*
X12988Y273567D01*
X13032Y272864D01*
X13076Y272117D01*
Y272073D01*
Y271941D01*
Y271722D01*
X13032Y271458D01*
X12988Y271106D01*
X12944Y270711D01*
X12812Y269832D01*
X12505Y268822D01*
X12109Y267811D01*
X11846Y267283D01*
X11538Y266844D01*
X11187Y266361D01*
X10791Y265965D01*
X10747D01*
X10703Y265877D01*
X10572Y265790D01*
X10352Y265658D01*
X10132Y265482D01*
X9868Y265306D01*
X9517Y265130D01*
X9121Y264955D01*
X8682Y264735D01*
X8199Y264559D01*
X7671Y264383D01*
X7100Y264208D01*
X6485Y264076D01*
X5826Y263988D01*
X5079Y263944D01*
X4332Y263900D01*
X-9027D01*
Y270623D01*
X5210D01*
X5430Y270667D01*
X5694Y270799D01*
X5957Y271019D01*
X6001Y271106D01*
X6133Y271326D01*
X6265Y271678D01*
X6309Y272117D01*
Y272161D01*
Y272205D01*
Y272249D01*
X6265Y272513D01*
X6177Y272864D01*
X5957Y273172D01*
X5914Y273260D01*
X5738Y273391D01*
X5474Y273523D01*
X5123Y273611D01*
X-1908D01*
X-2348Y273655D01*
X-2919Y273699D01*
X-3578Y273787D01*
X-4237Y273919D01*
X-4940Y274095D01*
X-5599Y274358D01*
X-5687Y274402D01*
X-5863Y274490D01*
X-6170Y274666D01*
X-6522Y274886D01*
X-6961Y275149D01*
X-7401Y275457D01*
X-7840Y275852D01*
X-8280Y276248D01*
X-8324Y276292D01*
X-8455Y276467D01*
X-8631Y276687D01*
X-8851Y276995D01*
X-9071Y277390D01*
X-9334Y277830D01*
X-9554Y278313D01*
X-9774Y278840D01*
Y278928D01*
X-9862Y279104D01*
X-9905Y279412D01*
X-9993Y279763D01*
X-10081Y280246D01*
X-10125Y280730D01*
X-10213Y281828D01*
Y281916D01*
Y282092D01*
X-10169Y282400D01*
Y282839D01*
X-10081Y283278D01*
X-9993Y283806D01*
X-9905Y284377D01*
X-9730Y284904D01*
X-9686Y284992D01*
X-9642Y285168D01*
X-9510Y285432D01*
X-9334Y285783D01*
X-9158Y286179D01*
X-8895Y286618D01*
X-8543Y287057D01*
X-8192Y287497D01*
X-8148Y287541D01*
X-8016Y287673D01*
X-7752Y287892D01*
X-7445Y288156D01*
X-7049Y288420D01*
X-6610Y288727D01*
X-6083Y289035D01*
X-5467Y289298D01*
X-5379Y289342D01*
X-5160Y289386D01*
X-4808Y289518D01*
X-4325Y289650D01*
X-3754Y289738D01*
X-3095Y289870D01*
X-2348Y289914D01*
X-1513Y289958D01*
X11494D01*
Y283235D01*
D02*
G37*
G36*
X49565Y322089D02*
X50004Y322046D01*
X50531Y321914D01*
X51191Y321738D01*
X51894Y321430D01*
X52641Y321035D01*
X53344Y320463D01*
X53388D01*
X53432Y320376D01*
X53651Y320156D01*
X54003Y319760D01*
X54398Y319277D01*
X54882Y318618D01*
X55365Y317827D01*
X55804Y316904D01*
X56200Y315850D01*
X60462Y302711D01*
Y302667D01*
X60550Y302579D01*
X60638Y302447D01*
X60770Y302403D01*
X60814D01*
X60902Y302447D01*
X60989Y302579D01*
X61034Y302843D01*
Y321914D01*
X68020D01*
Y302711D01*
Y302623D01*
Y302447D01*
X67976Y302140D01*
X67932Y301744D01*
X67888Y301305D01*
X67801Y300821D01*
X67625Y300294D01*
X67449Y299811D01*
X67405Y299767D01*
X67361Y299591D01*
X67229Y299327D01*
X67053Y299020D01*
X66834Y298668D01*
X66526Y298317D01*
X66219Y297921D01*
X65867Y297570D01*
X65823Y297526D01*
X65691Y297438D01*
X65472Y297262D01*
X65208Y297043D01*
X64856Y296823D01*
X64461Y296603D01*
X64022Y296383D01*
X63538Y296164D01*
X63494D01*
X63319Y296076D01*
X63055Y296032D01*
X62703Y295944D01*
X62264Y295856D01*
X61781Y295768D01*
X61209Y295724D01*
X60638Y295680D01*
X60418D01*
X60243Y295724D01*
X59803Y295768D01*
X59276Y295856D01*
X58617Y296032D01*
X57958Y296252D01*
X57255Y296603D01*
X56551Y297043D01*
X56463Y297086D01*
X56244Y297306D01*
X55936Y297614D01*
X55541Y298053D01*
X55101Y298580D01*
X54662Y299284D01*
X54266Y300075D01*
X53915Y300953D01*
X49345Y315059D01*
Y315103D01*
X49301Y315234D01*
X49213Y315322D01*
X49037Y315366D01*
X48993D01*
X48949Y315322D01*
X48861Y315234D01*
X48818Y315015D01*
Y295900D01*
X41831D01*
Y315059D01*
Y315147D01*
Y315322D01*
X41875Y315630D01*
X41919Y316025D01*
X41963Y316465D01*
X42050Y316948D01*
X42182Y317475D01*
X42358Y317959D01*
X42402Y318003D01*
X42446Y318179D01*
X42578Y318442D01*
X42754Y318750D01*
X42973Y319101D01*
X43237Y319453D01*
X43896Y320200D01*
X43940Y320244D01*
X44072Y320332D01*
X44292Y320508D01*
X44555Y320727D01*
X44907Y320947D01*
X45346Y321167D01*
X45786Y321386D01*
X46269Y321606D01*
X46313Y321650D01*
X46489Y321694D01*
X46796Y321782D01*
X47148Y321870D01*
X47587Y321958D01*
X48071Y322046D01*
X48598Y322133D01*
X49389D01*
X49565Y322089D01*
D02*
G37*
G36*
X92847Y315234D02*
X81862D01*
X81598Y315191D01*
X81247Y315147D01*
X80763Y315059D01*
X80236Y314839D01*
X79709Y314575D01*
X79226Y314224D01*
X78786Y313696D01*
X78742Y313609D01*
X78610Y313433D01*
X78435Y313037D01*
X78259Y312510D01*
X78083Y311851D01*
X77907Y311016D01*
X77775Y310005D01*
X77731Y309434D01*
Y308819D01*
Y308731D01*
Y308555D01*
X77775Y308248D01*
X77819Y307852D01*
X77863Y307369D01*
X77951Y306842D01*
X78083Y306314D01*
X78259Y305743D01*
X78478Y305128D01*
X78742Y304601D01*
X79094Y304073D01*
X79489Y303590D01*
X79973Y303194D01*
X80544Y302887D01*
X81159Y302711D01*
X81906Y302623D01*
X86959D01*
X87179Y302667D01*
X87443Y302799D01*
X87706Y303062D01*
Y303106D01*
X87750Y303150D01*
X87926Y303370D01*
X88058Y303722D01*
X88102Y304117D01*
Y304161D01*
Y304205D01*
X88058Y304469D01*
X87926Y304820D01*
X87706Y305216D01*
Y305260D01*
X87662Y305304D01*
X87487Y305479D01*
X87223Y305655D01*
X87047Y305743D01*
X81818D01*
Y312466D01*
X87311D01*
X87618Y312422D01*
X88058Y312378D01*
X88497Y312290D01*
X89024Y312159D01*
X89552Y311983D01*
X90079Y311763D01*
X90123Y311719D01*
X90343Y311631D01*
X90606Y311499D01*
X90914Y311280D01*
X91309Y311016D01*
X91749Y310708D01*
X92144Y310313D01*
X92540Y309918D01*
X92584Y309874D01*
X92716Y309698D01*
X92891Y309478D01*
X93155Y309170D01*
X93419Y308775D01*
X93682Y308336D01*
X93946Y307808D01*
X94210Y307281D01*
X94254Y307237D01*
X94298Y307017D01*
X94385Y306754D01*
X94517Y306358D01*
X94649Y305919D01*
X94737Y305435D01*
X94781Y304908D01*
X94825Y304337D01*
Y304249D01*
Y304029D01*
X94781Y303678D01*
X94737Y303238D01*
X94649Y302711D01*
X94561Y302140D01*
X94385Y301525D01*
X94166Y300953D01*
X94122Y300909D01*
X94034Y300690D01*
X93902Y300426D01*
X93726Y300075D01*
X93463Y299635D01*
X93199Y299196D01*
X92847Y298756D01*
X92452Y298317D01*
X92408Y298273D01*
X92276Y298141D01*
X92013Y297921D01*
X91749Y297702D01*
X91354Y297394D01*
X90914Y297130D01*
X90475Y296823D01*
X89947Y296559D01*
X89903Y296515D01*
X89728Y296471D01*
X89420Y296383D01*
X89068Y296252D01*
X88629Y296120D01*
X88146Y296032D01*
X87575Y295944D01*
X87003Y295900D01*
X82653D01*
X82433Y295944D01*
X82170D01*
X81862Y295988D01*
X81115Y296120D01*
X80192Y296295D01*
X79181Y296603D01*
X78083Y296999D01*
X76984Y297526D01*
X75886Y298229D01*
X75315Y298624D01*
X74787Y299064D01*
X74260Y299547D01*
X73777Y300118D01*
X73293Y300734D01*
X72898Y301349D01*
X72458Y302096D01*
X72107Y302843D01*
X71799Y303678D01*
X71536Y304601D01*
X71316Y305567D01*
X71140Y306578D01*
X71052Y307676D01*
X71008Y308863D01*
Y308995D01*
Y309039D01*
Y309126D01*
Y309302D01*
X71052Y309566D01*
Y309830D01*
X71096Y310181D01*
X71140Y310577D01*
X71228Y311016D01*
X71404Y311983D01*
X71667Y313081D01*
X72063Y314268D01*
X72546Y315498D01*
X73205Y316684D01*
X73996Y317871D01*
X74480Y318398D01*
X74963Y318969D01*
X75534Y319453D01*
X76106Y319936D01*
X76765Y320376D01*
X77512Y320771D01*
X78259Y321123D01*
X79094Y321386D01*
X79973Y321650D01*
X80895Y321826D01*
X81906Y321914D01*
X83005Y321958D01*
X92847D01*
Y315234D01*
D02*
G37*
G36*
X109370Y321914D02*
X109633D01*
X109941Y321870D01*
X110732Y321738D01*
X111611Y321562D01*
X112621Y321255D01*
X113720Y320859D01*
X114818Y320332D01*
X115917Y319629D01*
X116488Y319233D01*
X117016Y318794D01*
X117543Y318266D01*
X118026Y317739D01*
X118510Y317124D01*
X118949Y316465D01*
X119345Y315762D01*
X119696Y314971D01*
X120004Y314136D01*
X120267Y313257D01*
X120487Y312290D01*
X120663Y311236D01*
X120751Y310137D01*
X120795Y308951D01*
Y308863D01*
Y308643D01*
Y308336D01*
X120751Y307852D01*
X120707Y307325D01*
X120619Y306710D01*
X120531Y306007D01*
X120399Y305260D01*
X120267Y304469D01*
X120048Y303634D01*
X119784Y302843D01*
X119520Y302008D01*
X119125Y301217D01*
X118729Y300470D01*
X118246Y299767D01*
X117719Y299108D01*
X117675Y299064D01*
X117587Y298976D01*
X117411Y298800D01*
X117147Y298624D01*
X116840Y298361D01*
X116444Y298097D01*
X116005Y297789D01*
X115478Y297526D01*
X114862Y297218D01*
X114203Y296911D01*
X113456Y296647D01*
X112665Y296383D01*
X111830Y296208D01*
X110864Y296032D01*
X109853Y295944D01*
X108798Y295900D01*
X97857D01*
Y321958D01*
X109150D01*
X109370Y321914D01*
D02*
G37*
G36*
X61694Y217111D02*
X65916Y215830D01*
X69807Y213750D01*
X73218Y210951D01*
X76017Y207540D01*
X78097Y203649D01*
X79378Y199427D01*
X79811Y195035D01*
X79378Y190644D01*
X78097Y186422D01*
X76017Y182530D01*
X73218Y179120D01*
X69807Y176320D01*
X65916Y174240D01*
X61694Y172960D01*
X57302Y172527D01*
X52911Y172960D01*
X48689Y174240D01*
X44797Y176320D01*
X41387Y179120D01*
X38587Y182530D01*
X36507Y186422D01*
X35227Y190644D01*
X34794Y195035D01*
X35227Y199427D01*
X36507Y203649D01*
X38587Y207540D01*
X41387Y210951D01*
X44797Y213750D01*
X48689Y215830D01*
X52911Y217111D01*
X57302Y217544D01*
X61694Y217111D01*
D02*
G37*
G36*
X64468Y247621D02*
X71117Y246299D01*
X77537Y244119D01*
X83617Y241121D01*
X89254Y237354D01*
X94351Y232884D01*
X98821Y227787D01*
X102588Y222150D01*
X105586Y216070D01*
X105732Y215639D01*
X105655Y215608D01*
X105853Y215131D01*
X105449Y214156D01*
X105183Y214046D01*
X105177Y214055D01*
X105036Y213715D01*
X104061Y213311D01*
X103130Y213697D01*
X103190Y213760D01*
X103203Y213774D01*
X99272Y217286D01*
X93219Y221582D01*
X86722Y225172D01*
X79864Y228013D01*
X72731Y230068D01*
X65413Y231311D01*
X58002Y231727D01*
X50591Y231311D01*
X43273Y230068D01*
X36141Y228013D01*
X29283Y225172D01*
X22786Y221582D01*
X16732Y217286D01*
X11765Y212847D01*
X14318Y210751D01*
X17117Y207340D01*
X19197Y203449D01*
X20478Y199227D01*
X20911Y194835D01*
X20478Y190444D01*
X19197Y186222D01*
X17117Y182330D01*
X14318Y178920D01*
X12769Y177648D01*
X16532Y174285D01*
X22586Y169989D01*
X29083Y166399D01*
X35941Y163558D01*
X43073Y161503D01*
X50391Y160260D01*
X57802Y159844D01*
X65213Y160260D01*
X72531Y161503D01*
X79664Y163558D01*
X86522Y166399D01*
X93019Y169989D01*
X99072Y174285D01*
X104304Y178960D01*
X102946Y180075D01*
X100147Y183486D01*
X98067Y187377D01*
X96786Y191599D01*
X96353Y195990D01*
X96786Y200382D01*
X98067Y204604D01*
X100147Y208495D01*
X102946Y211906D01*
X106357Y214706D01*
X110248Y216785D01*
X114471Y218066D01*
X118862Y218499D01*
X123253Y218066D01*
X127475Y216785D01*
X131367Y214706D01*
X134777Y211906D01*
X137577Y208495D01*
X139657Y204604D01*
X140938Y200382D01*
X141370Y195990D01*
X140938Y191599D01*
X139657Y187377D01*
X137577Y183486D01*
X134777Y180075D01*
X131367Y177275D01*
X127475Y175195D01*
X123253Y173915D01*
X118862Y173482D01*
X114471Y173915D01*
X110248Y175195D01*
X106357Y177275D01*
X106297Y177324D01*
X105765Y176849D01*
X105728Y176886D01*
X104986Y174701D01*
X101988Y168621D01*
X98221Y162984D01*
X93751Y157887D01*
X88654Y153417D01*
X83017Y149650D01*
X76937Y146651D01*
X70517Y144472D01*
X63868Y143150D01*
X57102Y142706D01*
X50337Y143150D01*
X43688Y144472D01*
X37268Y146651D01*
X31188Y149650D01*
X25551Y153417D01*
X20454Y157887D01*
X15983Y162984D01*
X12217Y168621D01*
X9218Y174701D01*
X9072Y175132D01*
X9149Y175163D01*
X9143Y175177D01*
X7016Y174040D01*
X2794Y172760D01*
X-1598Y172327D01*
X-5989Y172760D01*
X-10211Y174040D01*
X-14103Y176120D01*
X-17513Y178920D01*
X-20313Y182330D01*
X-22393Y186222D01*
X-23674Y190444D01*
X-24106Y194835D01*
X-23674Y199227D01*
X-22393Y203449D01*
X-20313Y207340D01*
X-17513Y210751D01*
X-14103Y213550D01*
X-10211Y215630D01*
X-5989Y216911D01*
X-1598Y217344D01*
X2794Y216911D01*
X7016Y215630D01*
X9262Y214430D01*
X9818Y216070D01*
X12817Y222150D01*
X16583Y227787D01*
X21054Y232884D01*
X26151Y237354D01*
X31788Y241121D01*
X37868Y244119D01*
X44288Y246299D01*
X50937Y247621D01*
X57702Y248065D01*
X64468Y247621D01*
D02*
G37*
G36*
X37815Y263900D02*
X31092D01*
Y273655D01*
X22831D01*
Y263900D01*
X16108D01*
Y289958D01*
X22831D01*
Y280378D01*
X31092D01*
Y289958D01*
X37815D01*
Y263900D01*
D02*
G37*
G36*
X110408Y289914D02*
X110671D01*
X110979Y289870D01*
X111770Y289738D01*
X112649Y289562D01*
X113659Y289254D01*
X114758Y288859D01*
X115857Y288332D01*
X116955Y287629D01*
X117526Y287233D01*
X118054Y286794D01*
X118581Y286266D01*
X119064Y285739D01*
X119548Y285124D01*
X119987Y284465D01*
X120382Y283762D01*
X120734Y282971D01*
X121042Y282136D01*
X121305Y281257D01*
X121525Y280290D01*
X121701Y279236D01*
X121789Y278137D01*
X121833Y276951D01*
Y276863D01*
Y276643D01*
Y276336D01*
X121789Y275852D01*
X121745Y275325D01*
X121657Y274710D01*
X121569Y274007D01*
X121437Y273260D01*
X121305Y272469D01*
X121086Y271634D01*
X120822Y270843D01*
X120558Y270008D01*
X120163Y269217D01*
X119767Y268470D01*
X119284Y267767D01*
X118757Y267108D01*
X118713Y267064D01*
X118625Y266976D01*
X118449Y266800D01*
X118185Y266624D01*
X117878Y266361D01*
X117482Y266097D01*
X117043Y265790D01*
X116516Y265526D01*
X115900Y265218D01*
X115241Y264911D01*
X114494Y264647D01*
X113703Y264383D01*
X112868Y264208D01*
X111902Y264032D01*
X110891Y263944D01*
X109836Y263900D01*
X98895D01*
Y289958D01*
X110188D01*
X110408Y289914D01*
D02*
G37*
%LPC*%
G36*
X105171Y214064D02*
X105177Y214055D01*
X105179Y214060D01*
X105171Y214064D01*
D02*
G37*
G36*
X105719Y176895D02*
X105728Y176886D01*
X105730Y176891D01*
X105719Y176895D01*
D02*
G37*
G36*
X110891Y283235D02*
X105618D01*
Y270623D01*
X110979D01*
X111243Y270667D01*
X111594Y270711D01*
X112078Y270799D01*
X112605Y270975D01*
X113132Y271238D01*
X113615Y271634D01*
X114055Y272117D01*
X114099Y272205D01*
X114231Y272425D01*
X114406Y272776D01*
X114582Y273304D01*
X114758Y273963D01*
X114934Y274798D01*
X115065Y275808D01*
X115110Y276380D01*
Y276995D01*
Y277083D01*
Y277258D01*
X115065Y277566D01*
Y277961D01*
X114978Y278445D01*
X114890Y278972D01*
X114758Y279543D01*
X114582Y280115D01*
X114362Y280686D01*
X114099Y281257D01*
X113747Y281784D01*
X113352Y282268D01*
X112868Y282663D01*
X112297Y282971D01*
X111638Y283147D01*
X110891Y283235D01*
D02*
G37*
G36*
X109853Y315234D02*
X104580D01*
Y302623D01*
X109941D01*
X110205Y302667D01*
X110556Y302711D01*
X111039Y302799D01*
X111567Y302975D01*
X112094Y303238D01*
X112577Y303634D01*
X113017Y304117D01*
X113061Y304205D01*
X113193Y304425D01*
X113368Y304776D01*
X113544Y305304D01*
X113720Y305963D01*
X113896Y306798D01*
X114028Y307808D01*
X114072Y308379D01*
Y308995D01*
Y309083D01*
Y309258D01*
X114028Y309566D01*
Y309961D01*
X113940Y310445D01*
X113852Y310972D01*
X113720Y311543D01*
X113544Y312115D01*
X113324Y312686D01*
X113061Y313257D01*
X112709Y313784D01*
X112314Y314268D01*
X111830Y314663D01*
X111259Y314971D01*
X110600Y315147D01*
X109853Y315234D01*
D02*
G37*
%LPD*%
D10*
X11743Y176881D02*
G03*
X105421Y178390I46059J49154D01*
G01*
X10330Y175640D02*
G03*
X104564Y177446I46772J18895D01*
G01*
X104474Y215131D02*
G03*
X10241Y213325I-46772J-18895D01*
G01*
X104061Y214690D02*
G03*
X10384Y213181I-46059J-49154D01*
G01*
D35*
X-121790Y173860D02*
D03*
X-131290D02*
D03*
X-140790D02*
D03*
Y197860D02*
D03*
X-131290D02*
D03*
X-121790D02*
D03*
D36*
X-51470Y238950D02*
D03*
X-65470D02*
D03*
Y215450D02*
D03*
X-51470D02*
D03*
D37*
X-120610Y145680D02*
D03*
X-19010D02*
D03*
D38*
X-20030Y116540D02*
D03*
D39*
X-124630D02*
D03*
D40*
X80700Y54500D02*
D03*
X30700D02*
D03*
D41*
X-168900Y151700D02*
D03*
D42*
Y127700D02*
D03*
X219570Y112360D02*
D03*
X204970Y103360D02*
D03*
X219570Y94360D02*
D03*
X204970Y85355D02*
D03*
X219570Y76830D02*
D03*
D43*
X-20800Y76700D02*
D03*
Y51300D02*
D03*
D44*
Y25900D02*
D03*
D45*
X303242Y60293D02*
D03*
X290542Y82290D02*
D03*
X277842Y104288D02*
D03*
X265142Y126285D02*
D03*
X252442Y148282D02*
D03*
X239742Y170279D02*
D03*
X227042Y192276D02*
D03*
X214342Y214273D02*
D03*
X201642Y236270D02*
D03*
X188942Y258267D02*
D03*
X163105Y241618D02*
D03*
X175805Y219621D02*
D03*
X188505Y197624D02*
D03*
X201205Y175627D02*
D03*
X213905Y153630D02*
D03*
X226605Y131632D02*
D03*
X239305Y109635D02*
D03*
X252005Y87638D02*
D03*
X264705Y65641D02*
D03*
X277405Y43644D02*
D03*
X-279643Y44857D02*
D03*
X-266943Y66854D02*
D03*
X-254244Y88851D02*
D03*
X-241544Y110848D02*
D03*
X-228843Y132845D02*
D03*
X-216143Y154842D02*
D03*
X-203444Y176839D02*
D03*
X-190744Y198836D02*
D03*
X-178043Y220833D02*
D03*
X-165343Y242830D02*
D03*
X-192631Y256968D02*
D03*
X-205331Y234971D02*
D03*
X-218030Y212974D02*
D03*
X-230730Y190977D02*
D03*
X-243431Y168980D02*
D03*
X-256131Y146982D02*
D03*
X-268831Y124986D02*
D03*
X-281530Y102988D02*
D03*
X-294230Y80991D02*
D03*
X-306931Y58994D02*
D03*
D46*
X28580Y91770D02*
D03*
X-52000Y192600D02*
D03*
X-78270Y238950D02*
D03*
Y215450D02*
D03*
X-176500Y46400D02*
D03*
M02*
