%FSLAX44Y44*%
%MOMM*%
G71*
G01*
G75*
%ADD10C,0.2540*%
%ADD11R,0.6500X0.9000*%
%ADD12R,0.8000X0.9000*%
%ADD13C,1.2000*%
%ADD14C,0.8000*%
%ADD15C,0.7000*%
%ADD16C,0.2000*%
%ADD17C,1.4000*%
%ADD18C,2.0000*%
%ADD19R,2.0000X2.0000*%
%ADD20C,1.5240*%
%ADD21R,1.0000X1.0000*%
%ADD22C,1.0000*%
%ADD23C,1.6000*%
%ADD24R,1.6000X1.6000*%
%ADD25C,1.2000*%
%ADD26C,0.8000*%
%ADD27O,0.6000X2.2000*%
%ADD28R,0.9000X0.8000*%
%ADD29C,0.5000*%
%ADD30C,0.2500*%
%ADD31C,0.0250*%
%ADD32C,0.4000*%
%ADD33C,0.1500*%
%ADD34R,0.8000X2.8000*%
G36*
X174233Y141323D02*
X168146D01*
X168029Y141304D01*
X167893Y141245D01*
X167756Y141128D01*
X167737Y141089D01*
X167678Y140991D01*
X167600Y140855D01*
X167581Y140679D01*
Y140660D01*
Y140640D01*
X167600Y140523D01*
X167639Y140367D01*
X167737Y140211D01*
X167776Y140192D01*
X167854Y140133D01*
X168010Y140055D01*
X168205Y140036D01*
X174233D01*
Y137051D01*
X168146D01*
X168029Y137032D01*
X167893Y136973D01*
X167756Y136856D01*
X167737Y136817D01*
X167678Y136739D01*
X167600Y136583D01*
X167581Y136388D01*
Y136368D01*
Y136349D01*
X167600Y136212D01*
X167659Y136056D01*
X167756Y135900D01*
X167795Y135881D01*
X167873Y135822D01*
X168029Y135744D01*
X168205Y135725D01*
X174233D01*
Y132740D01*
X167639D01*
X167503Y132760D01*
X167307Y132779D01*
X167093Y132799D01*
X166859Y132857D01*
X166625Y132916D01*
X166391Y132994D01*
X166371Y133013D01*
X166293Y133052D01*
X166176Y133111D01*
X166040Y133189D01*
X165884Y133286D01*
X165708Y133423D01*
X165552Y133559D01*
X165396Y133715D01*
X165376Y133735D01*
X165337Y133793D01*
X165259Y133891D01*
X165181Y134008D01*
X165084Y134164D01*
X164986Y134359D01*
X164889Y134554D01*
X164791Y134769D01*
Y134788D01*
X164752Y134886D01*
X164732Y135003D01*
X164694Y135159D01*
X164655Y135354D01*
X164615Y135569D01*
X164596Y135803D01*
X164576Y136056D01*
Y136076D01*
Y136115D01*
Y136173D01*
X164596Y136251D01*
X164615Y136466D01*
X164655Y136700D01*
Y136720D01*
X164674Y136758D01*
X164694Y136837D01*
X164713Y136915D01*
X164791Y137129D01*
X164889Y137383D01*
Y137402D01*
X164928Y137441D01*
X164967Y137519D01*
X165006Y137597D01*
X165142Y137812D01*
X165318Y138046D01*
X165337Y138066D01*
X165357Y138104D01*
X165415Y138163D01*
X165493Y138222D01*
X165669Y138397D01*
X165903Y138573D01*
X165864Y138592D01*
X165786Y138651D01*
X165649Y138748D01*
X165493Y138885D01*
X165318Y139060D01*
X165162Y139255D01*
X165006Y139489D01*
X164869Y139743D01*
X164850Y139782D01*
X164830Y139860D01*
X164791Y140016D01*
X164732Y140211D01*
X164674Y140445D01*
X164635Y140699D01*
X164615Y140991D01*
X164596Y141284D01*
Y141304D01*
Y141382D01*
X164615Y141499D01*
Y141655D01*
X164655Y141830D01*
X164694Y142025D01*
X164732Y142220D01*
X164811Y142435D01*
X164830Y142455D01*
X164850Y142533D01*
X164908Y142630D01*
X164986Y142767D01*
X165181Y143079D01*
X165454Y143391D01*
X165474Y143410D01*
X165532Y143469D01*
X165610Y143527D01*
X165727Y143625D01*
X165884Y143742D01*
X166040Y143840D01*
X166235Y143957D01*
X166449Y144054D01*
X166469Y144074D01*
X166547Y144093D01*
X166683Y144132D01*
X166839Y144191D01*
X167034Y144230D01*
X167249Y144269D01*
X167503Y144288D01*
X167776Y144308D01*
X174233D01*
Y141323D01*
D02*
G37*
G36*
X160402Y134340D02*
Y134320D01*
X160382Y134301D01*
X160343Y134184D01*
X160265Y134028D01*
X160148Y133832D01*
X160012Y133618D01*
X159836Y133403D01*
X159641Y133208D01*
X159407Y133033D01*
X159368Y133013D01*
X159290Y132974D01*
X159153Y132916D01*
X158958Y132837D01*
X158744Y132760D01*
X158471Y132701D01*
X158178Y132662D01*
X157846Y132642D01*
X157690D01*
X157515Y132662D01*
X157281Y132701D01*
X157027Y132740D01*
X156754Y132818D01*
X156481Y132916D01*
X156227Y133052D01*
X156208Y133072D01*
X156110Y133130D01*
X155993Y133228D01*
X155857Y133364D01*
X155701Y133540D01*
X155545Y133774D01*
X155389Y134028D01*
X155272Y134340D01*
X151760Y144308D01*
X154920D01*
X157827Y135920D01*
X160753Y144308D01*
X163933D01*
X160402Y134340D01*
D02*
G37*
G36*
X146786Y141323D02*
X144367D01*
Y132740D01*
X141382D01*
Y141323D01*
X138807D01*
Y144308D01*
X146786D01*
Y141323D01*
D02*
G37*
G36*
X150921Y132740D02*
X147937D01*
Y144308D01*
X150921D01*
Y132740D01*
D02*
G37*
G36*
X142331Y104688D02*
X142448D01*
X142584Y104669D01*
X142936Y104610D01*
X143326Y104532D01*
X143774Y104396D01*
X144262Y104220D01*
X144750Y103986D01*
X145238Y103674D01*
X145491Y103498D01*
X145725Y103303D01*
X145959Y103069D01*
X146174Y102835D01*
X146388Y102562D01*
X146583Y102269D01*
X146759Y101957D01*
X146915Y101606D01*
X147052Y101236D01*
X147169Y100845D01*
X147266Y100416D01*
X147344Y99948D01*
X147383Y99460D01*
X147403Y98934D01*
Y98895D01*
Y98797D01*
Y98660D01*
X147383Y98446D01*
X147364Y98212D01*
X147325Y97939D01*
X147286Y97627D01*
X147227Y97295D01*
X147169Y96944D01*
X147071Y96573D01*
X146954Y96222D01*
X146837Y95851D01*
X146662Y95500D01*
X146486Y95169D01*
X146271Y94857D01*
X146037Y94564D01*
X146018Y94544D01*
X145979Y94506D01*
X145901Y94427D01*
X145784Y94349D01*
X145647Y94232D01*
X145471Y94115D01*
X145276Y93979D01*
X145042Y93862D01*
X144769Y93725D01*
X144477Y93589D01*
X144145Y93472D01*
X143794Y93355D01*
X143423Y93277D01*
X142994Y93198D01*
X142545Y93160D01*
X142077Y93140D01*
X137220D01*
Y104708D01*
X142233D01*
X142331Y104688D01*
D02*
G37*
G36*
X186085Y101723D02*
X181092D01*
X180936Y101684D01*
X180721Y101645D01*
X180487Y101567D01*
X180253Y101450D01*
X180038Y101274D01*
X179843Y101060D01*
X179824Y101021D01*
X179765Y100943D01*
X179687Y100767D01*
X179609Y100533D01*
X179531Y100241D01*
X179453Y99851D01*
X179414Y99636D01*
X179395Y99402D01*
X179375Y99148D01*
Y98875D01*
Y98836D01*
Y98758D01*
X179395Y98622D01*
X179414Y98446D01*
X179434Y98231D01*
X179473Y97997D01*
X179531Y97763D01*
X179609Y97510D01*
X179707Y97236D01*
X179824Y97002D01*
X179980Y96768D01*
X180155Y96554D01*
X180370Y96378D01*
X180623Y96242D01*
X180897Y96164D01*
X181228Y96125D01*
X186085D01*
Y93140D01*
X181560D01*
X181462Y93160D01*
X181345D01*
X181209Y93179D01*
X180877Y93237D01*
X180467Y93316D01*
X180019Y93452D01*
X179531Y93628D01*
X179043Y93862D01*
X178556Y94174D01*
X178302Y94349D01*
X178068Y94564D01*
X177834Y94779D01*
X177619Y95032D01*
X177405Y95286D01*
X177229Y95578D01*
X177034Y95910D01*
X176878Y96242D01*
X176742Y96612D01*
X176625Y97022D01*
X176527Y97451D01*
X176449Y97919D01*
X176410Y98407D01*
X176390Y98934D01*
Y98973D01*
Y99070D01*
Y99207D01*
X176410Y99402D01*
X176430Y99655D01*
X176469Y99929D01*
X176507Y100241D01*
X176566Y100572D01*
X176722Y101274D01*
X176820Y101626D01*
X176956Y101996D01*
X177112Y102328D01*
X177288Y102679D01*
X177483Y102991D01*
X177717Y103264D01*
X177736Y103284D01*
X177775Y103323D01*
X177854Y103401D01*
X177971Y103498D01*
X178107Y103596D01*
X178283Y103713D01*
X178478Y103849D01*
X178731Y103986D01*
X178985Y104123D01*
X179277Y104259D01*
X179609Y104376D01*
X179980Y104474D01*
X180370Y104571D01*
X180780Y104649D01*
X181228Y104688D01*
X181716Y104708D01*
X186085D01*
Y101723D01*
D02*
G37*
G36*
X196971D02*
X190884D01*
X190767Y101704D01*
X190631Y101645D01*
X190494Y101528D01*
X190475Y101489D01*
X190416Y101391D01*
X190338Y101255D01*
X190319Y101079D01*
Y101060D01*
Y101040D01*
X190338Y100923D01*
X190377Y100767D01*
X190475Y100611D01*
X190514Y100592D01*
X190592Y100533D01*
X190748Y100455D01*
X190943Y100436D01*
X196971D01*
Y97451D01*
X190884D01*
X190767Y97432D01*
X190631Y97373D01*
X190494Y97256D01*
X190475Y97217D01*
X190416Y97139D01*
X190338Y96983D01*
X190319Y96788D01*
Y96768D01*
Y96749D01*
X190338Y96612D01*
X190397Y96456D01*
X190494Y96300D01*
X190533Y96281D01*
X190611Y96222D01*
X190767Y96144D01*
X190943Y96125D01*
X196971D01*
Y93140D01*
X190377D01*
X190241Y93160D01*
X190046Y93179D01*
X189831Y93198D01*
X189597Y93257D01*
X189363Y93316D01*
X189129Y93394D01*
X189109Y93413D01*
X189031Y93452D01*
X188914Y93511D01*
X188778Y93589D01*
X188622Y93686D01*
X188446Y93823D01*
X188290Y93959D01*
X188134Y94115D01*
X188114Y94135D01*
X188075Y94193D01*
X187997Y94291D01*
X187919Y94408D01*
X187822Y94564D01*
X187724Y94759D01*
X187627Y94954D01*
X187529Y95169D01*
Y95188D01*
X187490Y95286D01*
X187470Y95403D01*
X187432Y95559D01*
X187393Y95754D01*
X187353Y95969D01*
X187334Y96203D01*
X187314Y96456D01*
Y96476D01*
Y96515D01*
Y96573D01*
X187334Y96651D01*
X187353Y96866D01*
X187393Y97100D01*
Y97120D01*
X187412Y97158D01*
X187432Y97236D01*
X187451Y97315D01*
X187529Y97529D01*
X187627Y97783D01*
Y97802D01*
X187666Y97841D01*
X187705Y97919D01*
X187744Y97997D01*
X187880Y98212D01*
X188056Y98446D01*
X188075Y98465D01*
X188095Y98504D01*
X188153Y98563D01*
X188231Y98622D01*
X188407Y98797D01*
X188641Y98973D01*
X188602Y98992D01*
X188524Y99051D01*
X188387Y99148D01*
X188231Y99285D01*
X188056Y99460D01*
X187900Y99655D01*
X187744Y99889D01*
X187607Y100143D01*
X187588Y100182D01*
X187568Y100260D01*
X187529Y100416D01*
X187470Y100611D01*
X187412Y100845D01*
X187373Y101099D01*
X187353Y101391D01*
X187334Y101684D01*
Y101704D01*
Y101782D01*
X187353Y101899D01*
Y102055D01*
X187393Y102230D01*
X187432Y102425D01*
X187470Y102620D01*
X187549Y102835D01*
X187568Y102855D01*
X187588Y102933D01*
X187646Y103030D01*
X187724Y103167D01*
X187919Y103479D01*
X188192Y103791D01*
X188212Y103810D01*
X188270Y103869D01*
X188348Y103927D01*
X188465Y104025D01*
X188622Y104142D01*
X188778Y104240D01*
X188973Y104357D01*
X189187Y104454D01*
X189207Y104474D01*
X189285Y104493D01*
X189421Y104532D01*
X189577Y104591D01*
X189772Y104630D01*
X189987Y104669D01*
X190241Y104688D01*
X190514Y104708D01*
X196971D01*
Y101723D01*
D02*
G37*
G36*
X158210D02*
X152123D01*
X152007Y101704D01*
X151870Y101645D01*
X151733Y101528D01*
X151714Y101489D01*
X151655Y101391D01*
X151577Y101255D01*
X151558Y101079D01*
Y101060D01*
Y101040D01*
X151577Y100923D01*
X151616Y100767D01*
X151714Y100611D01*
X151753Y100592D01*
X151831Y100533D01*
X151987Y100455D01*
X152182Y100436D01*
X158210D01*
Y97451D01*
X152123D01*
X152007Y97432D01*
X151870Y97373D01*
X151733Y97256D01*
X151714Y97217D01*
X151655Y97139D01*
X151577Y96983D01*
X151558Y96788D01*
Y96768D01*
Y96749D01*
X151577Y96612D01*
X151636Y96456D01*
X151733Y96300D01*
X151772Y96281D01*
X151850Y96222D01*
X152007Y96144D01*
X152182Y96125D01*
X158210D01*
Y93140D01*
X151616D01*
X151480Y93160D01*
X151285Y93179D01*
X151070Y93198D01*
X150836Y93257D01*
X150602Y93316D01*
X150368Y93394D01*
X150348Y93413D01*
X150270Y93452D01*
X150153Y93511D01*
X150017Y93589D01*
X149861Y93686D01*
X149685Y93823D01*
X149529Y93959D01*
X149373Y94115D01*
X149354Y94135D01*
X149314Y94193D01*
X149236Y94291D01*
X149158Y94408D01*
X149061Y94564D01*
X148963Y94759D01*
X148866Y94954D01*
X148768Y95169D01*
Y95188D01*
X148729Y95286D01*
X148710Y95403D01*
X148671Y95559D01*
X148632Y95754D01*
X148593Y95969D01*
X148573Y96203D01*
X148554Y96456D01*
Y96476D01*
Y96515D01*
Y96573D01*
X148573Y96651D01*
X148593Y96866D01*
X148632Y97100D01*
Y97120D01*
X148651Y97158D01*
X148671Y97236D01*
X148690Y97315D01*
X148768Y97529D01*
X148866Y97783D01*
Y97802D01*
X148905Y97841D01*
X148944Y97919D01*
X148983Y97997D01*
X149119Y98212D01*
X149295Y98446D01*
X149314Y98465D01*
X149334Y98504D01*
X149392Y98563D01*
X149471Y98622D01*
X149646Y98797D01*
X149880Y98973D01*
X149841Y98992D01*
X149763Y99051D01*
X149627Y99148D01*
X149471Y99285D01*
X149295Y99460D01*
X149139Y99655D01*
X148983Y99889D01*
X148846Y100143D01*
X148827Y100182D01*
X148807Y100260D01*
X148768Y100416D01*
X148710Y100611D01*
X148651Y100845D01*
X148612Y101099D01*
X148593Y101391D01*
X148573Y101684D01*
Y101704D01*
Y101782D01*
X148593Y101899D01*
Y102055D01*
X148632Y102230D01*
X148671Y102425D01*
X148710Y102620D01*
X148788Y102835D01*
X148807Y102855D01*
X148827Y102933D01*
X148885Y103030D01*
X148963Y103167D01*
X149158Y103479D01*
X149431Y103791D01*
X149451Y103810D01*
X149509Y103869D01*
X149588Y103927D01*
X149705Y104025D01*
X149861Y104142D01*
X150017Y104240D01*
X150212Y104357D01*
X150426Y104454D01*
X150446Y104474D01*
X150524Y104493D01*
X150660Y104532D01*
X150816Y104591D01*
X151012Y104630D01*
X151226Y104669D01*
X151480Y104688D01*
X151753Y104708D01*
X158210D01*
Y101723D01*
D02*
G37*
G36*
X175064Y93140D02*
X172079D01*
Y104708D01*
X175064D01*
Y93140D01*
D02*
G37*
G36*
X137656Y132740D02*
X134672D01*
Y144308D01*
X137656D01*
Y132740D01*
D02*
G37*
G36*
X172507Y30169D02*
X172730D01*
X172990Y30132D01*
X173621Y30020D01*
X174400Y29872D01*
X175254Y29612D01*
X176144Y29278D01*
X177109Y28833D01*
X178037Y28276D01*
X178519Y27905D01*
X178965Y27534D01*
X179410Y27126D01*
X179818Y26643D01*
X180226Y26124D01*
X180597Y25604D01*
X180931Y24973D01*
X181228Y24343D01*
X181488Y23637D01*
X181748Y22858D01*
X181933Y22042D01*
X182082Y21188D01*
X182156Y20261D01*
X182193Y19259D01*
Y19147D01*
Y19110D01*
Y19036D01*
Y18887D01*
Y18665D01*
X182156Y18442D01*
X182119Y18145D01*
X182082Y17811D01*
X182045Y17440D01*
X181896Y16624D01*
X181674Y15696D01*
X181339Y14694D01*
X180931Y13692D01*
X180412Y12653D01*
X179744Y11651D01*
X179336Y11206D01*
X178927Y10723D01*
X178445Y10315D01*
X177925Y9907D01*
X177369Y9536D01*
X176775Y9202D01*
X176144Y8905D01*
X175439Y8682D01*
X174697Y8460D01*
X173881Y8311D01*
X173027Y8237D01*
X172099Y8200D01*
X171617D01*
X171431Y8237D01*
X171209D01*
X170949Y8274D01*
X170318Y8386D01*
X169539Y8534D01*
X168685Y8794D01*
X167757Y9128D01*
X166830Y9573D01*
X165902Y10167D01*
X165420Y10501D01*
X164974Y10872D01*
X164529Y11280D01*
X164121Y11762D01*
X163713Y12282D01*
X163379Y12802D01*
X163007Y13432D01*
X162711Y14063D01*
X162451Y14768D01*
X162228Y15548D01*
X162043Y16364D01*
X161894Y17218D01*
X161820Y18145D01*
X161783Y19147D01*
Y19259D01*
Y19333D01*
Y19481D01*
X161820Y19778D01*
Y20149D01*
X161894Y20594D01*
X161931Y21114D01*
X162043Y21708D01*
X162154Y22302D01*
X162302Y22970D01*
X162451Y23637D01*
X162673Y24306D01*
X162933Y24973D01*
X163230Y25641D01*
X163601Y26272D01*
X164009Y26866D01*
X164455Y27423D01*
X164492Y27460D01*
X164566Y27534D01*
X164715Y27682D01*
X164937Y27868D01*
X165197Y28054D01*
X165531Y28313D01*
X165902Y28573D01*
X166347Y28833D01*
X166867Y29093D01*
X167423Y29315D01*
X168017Y29575D01*
X168685Y29761D01*
X169427Y29946D01*
X170207Y30095D01*
X171023Y30169D01*
X171914Y30206D01*
X172322D01*
X172507Y30169D01*
D02*
G37*
G36*
X202381Y24528D02*
X190468D01*
Y22079D01*
X196703D01*
X196925Y22042D01*
X197185Y22005D01*
X197519Y21968D01*
X198261Y21856D01*
X199078Y21634D01*
X199894Y21300D01*
X200302Y21077D01*
X200711Y20817D01*
X201082Y20520D01*
X201416Y20186D01*
X201453Y20149D01*
X201490Y20112D01*
X201564Y20001D01*
X201675Y19852D01*
X201824Y19667D01*
X201972Y19407D01*
X202121Y19147D01*
X202269Y18850D01*
X202566Y18108D01*
X202863Y17255D01*
X203048Y16253D01*
X203123Y15733D01*
Y15139D01*
Y15065D01*
Y14880D01*
X203086Y14620D01*
X203048Y14249D01*
X203011Y13803D01*
X202937Y13358D01*
X202789Y12876D01*
X202640Y12393D01*
X202603Y12356D01*
X202566Y12171D01*
X202455Y11948D01*
X202306Y11651D01*
X202084Y11280D01*
X201861Y10909D01*
X201601Y10538D01*
X201267Y10167D01*
X201230Y10130D01*
X201119Y10018D01*
X200933Y9833D01*
X200674Y9647D01*
X200340Y9425D01*
X199968Y9165D01*
X199560Y8942D01*
X199115Y8719D01*
X199041Y8682D01*
X198892Y8645D01*
X198633Y8571D01*
X198298Y8460D01*
X197890Y8348D01*
X197408Y8274D01*
X196925Y8237D01*
X196369Y8200D01*
X184754D01*
Y13878D01*
X196443D01*
X196666Y13915D01*
X196888Y14063D01*
X197037Y14138D01*
X197148Y14286D01*
Y14323D01*
X197185Y14360D01*
X197297Y14546D01*
X197408Y14806D01*
X197445Y15139D01*
Y15177D01*
Y15214D01*
X197408Y15436D01*
X197334Y15733D01*
X197148Y16030D01*
X197111Y16104D01*
X196925Y16216D01*
X196703Y16327D01*
X196369Y16401D01*
X184754D01*
Y30206D01*
X202381D01*
Y24528D01*
D02*
G37*
G36*
X128941Y30169D02*
X129349D01*
X129795Y30095D01*
X130277Y30020D01*
X130796Y29909D01*
X131279Y29761D01*
X131353Y29723D01*
X131502Y29686D01*
X131761Y29575D01*
X132058Y29427D01*
X132429Y29241D01*
X132800Y29056D01*
X133172Y28796D01*
X133543Y28499D01*
X133580Y28462D01*
X133691Y28350D01*
X133877Y28202D01*
X134062Y27979D01*
X134322Y27682D01*
X134544Y27348D01*
X134767Y26940D01*
X134990Y26532D01*
X135027Y26495D01*
X135064Y26309D01*
X135175Y26087D01*
X135287Y25753D01*
X135361Y25382D01*
X135472Y24936D01*
X135509Y24417D01*
X135547Y23897D01*
Y23860D01*
Y23823D01*
Y23712D01*
Y23563D01*
X135509Y23192D01*
X135435Y22747D01*
Y22710D01*
X135398Y22636D01*
Y22524D01*
X135361Y22376D01*
X135250Y21968D01*
X135064Y21522D01*
Y21485D01*
X135027Y21411D01*
X134953Y21300D01*
X134879Y21151D01*
X134656Y20743D01*
X134322Y20298D01*
X134285Y20261D01*
X134248Y20224D01*
X134136Y20112D01*
X133988Y19964D01*
X133617Y19630D01*
X133172Y19296D01*
X133209Y19259D01*
X133283Y19222D01*
X133394Y19110D01*
X133580Y18999D01*
X133951Y18665D01*
X134322Y18257D01*
X134359Y18219D01*
X134396Y18145D01*
X134507Y18034D01*
X134619Y17886D01*
X134841Y17477D01*
X135101Y16995D01*
Y16958D01*
X135175Y16884D01*
X135212Y16772D01*
X135287Y16587D01*
X135435Y16178D01*
X135584Y15696D01*
Y15659D01*
X135621Y15585D01*
Y15474D01*
X135658Y15325D01*
X135695Y14917D01*
X135732Y14509D01*
Y14471D01*
Y14323D01*
X135695Y14100D01*
Y13803D01*
X135621Y13470D01*
X135547Y13098D01*
X135472Y12690D01*
X135324Y12245D01*
Y12208D01*
X135250Y12059D01*
X135138Y11837D01*
X135027Y11577D01*
X134841Y11243D01*
X134619Y10909D01*
X134359Y10575D01*
X134062Y10204D01*
X134025Y10167D01*
X133914Y10056D01*
X133728Y9907D01*
X133468Y9684D01*
X133134Y9462D01*
X132763Y9202D01*
X132318Y8979D01*
X131798Y8757D01*
X131724Y8719D01*
X131539Y8682D01*
X131242Y8571D01*
X130834Y8497D01*
X130351Y8386D01*
X129757Y8274D01*
X129089Y8237D01*
X128384Y8200D01*
X117400D01*
Y30206D01*
X128644D01*
X128941Y30169D01*
D02*
G37*
G36*
X150613D02*
X151058Y30132D01*
X151541Y30095D01*
X152134Y29983D01*
X152728Y29872D01*
X153359Y29686D01*
X153396D01*
X153433Y29649D01*
X153656Y29612D01*
X153953Y29464D01*
X154361Y29315D01*
X154806Y29130D01*
X155326Y28870D01*
X155845Y28573D01*
X156328Y28202D01*
X156402Y28165D01*
X156550Y28016D01*
X156773Y27831D01*
X157070Y27534D01*
X157404Y27200D01*
X157775Y26792D01*
X158109Y26309D01*
X158443Y25790D01*
X158480Y25716D01*
X158554Y25530D01*
X158703Y25233D01*
X158851Y24825D01*
X159000Y24343D01*
X159148Y23749D01*
X159222Y23118D01*
X159259Y22413D01*
Y8200D01*
X153582D01*
Y22450D01*
Y22487D01*
Y22636D01*
X153545Y22821D01*
X153470Y23044D01*
X153322Y23303D01*
X153136Y23563D01*
X152877Y23786D01*
X152543Y24009D01*
X152506Y24046D01*
X152357Y24083D01*
X152134Y24157D01*
X151838Y24268D01*
X151466Y24380D01*
X151021Y24454D01*
X150539Y24491D01*
X149982Y24528D01*
Y30206D01*
X150279D01*
X150613Y30169D01*
D02*
G37*
G36*
X148238Y16401D02*
X137959D01*
Y22153D01*
X148238D01*
Y16401D01*
D02*
G37*
G36*
X103558Y144288D02*
X103792Y144269D01*
X104046Y144230D01*
X104319Y144191D01*
X104631Y144132D01*
X104943Y144054D01*
X105275Y143957D01*
X105606Y143840D01*
X105918Y143703D01*
X106250Y143527D01*
X106562Y143332D01*
X106855Y143118D01*
X107108Y142864D01*
X107128Y142845D01*
X107167Y142806D01*
X107225Y142708D01*
X107323Y142591D01*
X107420Y142435D01*
X107537Y142260D01*
X107654Y142025D01*
X107791Y141772D01*
X107908Y141479D01*
X108025Y141167D01*
X108142Y140796D01*
X108240Y140406D01*
X108337Y139977D01*
X108396Y139529D01*
X108435Y139021D01*
X108454Y138495D01*
Y138475D01*
Y138436D01*
Y138358D01*
Y138241D01*
X108435Y138124D01*
X108415Y137968D01*
X108396Y137792D01*
X108376Y137597D01*
X108298Y137168D01*
X108181Y136680D01*
X108006Y136154D01*
X107791Y135627D01*
X107518Y135081D01*
X107167Y134554D01*
X106952Y134320D01*
X106738Y134066D01*
X106484Y133852D01*
X106211Y133637D01*
X105918Y133442D01*
X105606Y133267D01*
X105275Y133111D01*
X104904Y132994D01*
X104514Y132877D01*
X104085Y132799D01*
X103636Y132760D01*
X103148Y132740D01*
X102173D01*
X102075Y132760D01*
X101958D01*
X101822Y132779D01*
X101490Y132837D01*
X101081Y132916D01*
X100632Y133052D01*
X100144Y133228D01*
X99656Y133462D01*
X99169Y133774D01*
X98915Y133949D01*
X98681Y134144D01*
X98447Y134359D01*
X98232Y134613D01*
X98018Y134886D01*
X97842Y135159D01*
X97647Y135491D01*
X97491Y135822D01*
X97355Y136193D01*
X97238Y136602D01*
X97140Y137032D01*
X97062Y137480D01*
X97023Y137968D01*
X97003Y138495D01*
Y138534D01*
Y138631D01*
Y138768D01*
X97023Y138982D01*
X97043Y139216D01*
X97082Y139509D01*
X97121Y139821D01*
X97179Y140153D01*
X97238Y140504D01*
X97335Y140855D01*
X97452Y141226D01*
X97589Y141577D01*
X97745Y141928D01*
X97920Y142260D01*
X98135Y142572D01*
X98369Y142864D01*
X98389Y142884D01*
X98428Y142923D01*
X98506Y143001D01*
X98623Y143098D01*
X98759Y143196D01*
X98935Y143313D01*
X99149Y143449D01*
X99383Y143586D01*
X99637Y143722D01*
X99930Y143859D01*
X100261Y143976D01*
X100612Y144074D01*
X101003Y144171D01*
X101412Y144249D01*
X101861Y144288D01*
X102329Y144308D01*
X103382D01*
X103558Y144288D01*
D02*
G37*
G36*
X119339Y141323D02*
X114462D01*
X114345Y141304D01*
X114189Y141284D01*
X113975Y141245D01*
X113741Y141148D01*
X113507Y141031D01*
X113292Y140875D01*
X113097Y140640D01*
X113077Y140601D01*
X113019Y140523D01*
X112941Y140348D01*
X112863Y140114D01*
X112785Y139821D01*
X112707Y139451D01*
X112648Y139002D01*
X112629Y138748D01*
Y138475D01*
Y138436D01*
Y138358D01*
X112648Y138222D01*
X112668Y138046D01*
X112687Y137831D01*
X112726Y137597D01*
X112785Y137363D01*
X112863Y137110D01*
X112960Y136837D01*
X113077Y136602D01*
X113233Y136368D01*
X113409Y136154D01*
X113624Y135978D01*
X113877Y135842D01*
X114150Y135764D01*
X114482Y135725D01*
X116725D01*
X116823Y135744D01*
X116940Y135803D01*
X117057Y135920D01*
Y135939D01*
X117076Y135959D01*
X117155Y136056D01*
X117213Y136212D01*
X117233Y136388D01*
Y136407D01*
Y136427D01*
X117213Y136544D01*
X117155Y136700D01*
X117057Y136875D01*
Y136895D01*
X117037Y136915D01*
X116959Y136993D01*
X116842Y137071D01*
X116764Y137110D01*
X114443D01*
Y140094D01*
X116881D01*
X117018Y140075D01*
X117213Y140055D01*
X117408Y140016D01*
X117642Y139958D01*
X117876Y139880D01*
X118110Y139782D01*
X118130Y139763D01*
X118227Y139724D01*
X118344Y139665D01*
X118481Y139567D01*
X118657Y139451D01*
X118852Y139314D01*
X119027Y139138D01*
X119203Y138963D01*
X119222Y138943D01*
X119281Y138865D01*
X119359Y138768D01*
X119476Y138631D01*
X119593Y138456D01*
X119710Y138260D01*
X119827Y138026D01*
X119944Y137792D01*
X119964Y137773D01*
X119983Y137675D01*
X120022Y137558D01*
X120081Y137383D01*
X120139Y137188D01*
X120178Y136973D01*
X120198Y136739D01*
X120217Y136485D01*
Y136446D01*
Y136349D01*
X120198Y136193D01*
X120178Y135998D01*
X120139Y135764D01*
X120100Y135510D01*
X120022Y135237D01*
X119924Y134983D01*
X119905Y134964D01*
X119866Y134866D01*
X119808Y134749D01*
X119729Y134593D01*
X119612Y134398D01*
X119495Y134203D01*
X119339Y134008D01*
X119164Y133813D01*
X119144Y133793D01*
X119086Y133735D01*
X118969Y133637D01*
X118852Y133540D01*
X118676Y133403D01*
X118481Y133286D01*
X118286Y133150D01*
X118052Y133033D01*
X118032Y133013D01*
X117954Y132994D01*
X117818Y132955D01*
X117662Y132896D01*
X117467Y132837D01*
X117252Y132799D01*
X116998Y132760D01*
X116745Y132740D01*
X114814D01*
X114716Y132760D01*
X114599D01*
X114462Y132779D01*
X114131Y132837D01*
X113721Y132916D01*
X113272Y133052D01*
X112785Y133228D01*
X112297Y133462D01*
X111810Y133774D01*
X111556Y133949D01*
X111322Y134144D01*
X111088Y134359D01*
X110873Y134613D01*
X110659Y134886D01*
X110483Y135159D01*
X110288Y135491D01*
X110132Y135822D01*
X109995Y136193D01*
X109878Y136602D01*
X109781Y137032D01*
X109703Y137480D01*
X109664Y137968D01*
X109644Y138495D01*
Y138553D01*
Y138573D01*
Y138612D01*
Y138690D01*
X109664Y138807D01*
Y138924D01*
X109683Y139080D01*
X109703Y139255D01*
X109742Y139451D01*
X109820Y139880D01*
X109937Y140367D01*
X110112Y140894D01*
X110327Y141440D01*
X110620Y141967D01*
X110971Y142494D01*
X111185Y142728D01*
X111400Y142981D01*
X111653Y143196D01*
X111907Y143410D01*
X112200Y143605D01*
X112531Y143781D01*
X112863Y143937D01*
X113233Y144054D01*
X113624Y144171D01*
X114033Y144249D01*
X114482Y144288D01*
X114970Y144308D01*
X119339D01*
Y141323D01*
D02*
G37*
G36*
X124996Y144366D02*
X125191Y144347D01*
X125426Y144288D01*
X125718Y144210D01*
X126030Y144074D01*
X126362Y143898D01*
X126674Y143645D01*
X126693D01*
X126713Y143605D01*
X126811Y143508D01*
X126967Y143332D01*
X127142Y143118D01*
X127357Y142825D01*
X127571Y142474D01*
X127766Y142064D01*
X127942Y141596D01*
X129834Y135764D01*
Y135744D01*
X129873Y135705D01*
X129912Y135647D01*
X129971Y135627D01*
X129990D01*
X130029Y135647D01*
X130068Y135705D01*
X130088Y135822D01*
Y144288D01*
X133189D01*
Y135764D01*
Y135725D01*
Y135647D01*
X133170Y135510D01*
X133150Y135335D01*
X133131Y135139D01*
X133092Y134925D01*
X133014Y134691D01*
X132936Y134476D01*
X132916Y134457D01*
X132897Y134379D01*
X132838Y134262D01*
X132760Y134125D01*
X132663Y133969D01*
X132526Y133813D01*
X132390Y133637D01*
X132233Y133481D01*
X132214Y133462D01*
X132156Y133423D01*
X132058Y133345D01*
X131941Y133247D01*
X131785Y133150D01*
X131609Y133052D01*
X131414Y132955D01*
X131200Y132857D01*
X131180D01*
X131102Y132818D01*
X130985Y132799D01*
X130829Y132760D01*
X130634Y132720D01*
X130419Y132682D01*
X130166Y132662D01*
X129912Y132642D01*
X129815D01*
X129737Y132662D01*
X129542Y132682D01*
X129307Y132720D01*
X129015Y132799D01*
X128722Y132896D01*
X128410Y133052D01*
X128098Y133247D01*
X128059Y133267D01*
X127962Y133364D01*
X127825Y133501D01*
X127649Y133696D01*
X127454Y133930D01*
X127259Y134242D01*
X127084Y134593D01*
X126928Y134983D01*
X124899Y141245D01*
Y141265D01*
X124879Y141323D01*
X124840Y141362D01*
X124762Y141382D01*
X124743D01*
X124723Y141362D01*
X124684Y141323D01*
X124665Y141226D01*
Y132740D01*
X121563D01*
Y141245D01*
Y141284D01*
Y141362D01*
X121583Y141499D01*
X121602Y141674D01*
X121622Y141869D01*
X121661Y142084D01*
X121719Y142318D01*
X121797Y142533D01*
X121817Y142552D01*
X121836Y142630D01*
X121895Y142747D01*
X121973Y142884D01*
X122070Y143040D01*
X122187Y143196D01*
X122480Y143527D01*
X122500Y143547D01*
X122558Y143586D01*
X122655Y143664D01*
X122773Y143762D01*
X122929Y143859D01*
X123124Y143957D01*
X123319Y144054D01*
X123533Y144152D01*
X123553Y144171D01*
X123631Y144191D01*
X123767Y144230D01*
X123924Y144269D01*
X124118Y144308D01*
X124333Y144347D01*
X124567Y144386D01*
X124918D01*
X124996Y144366D01*
D02*
G37*
G36*
X95736Y141323D02*
X90742D01*
X90586Y141284D01*
X90371Y141245D01*
X90137Y141167D01*
X89903Y141050D01*
X89688Y140875D01*
X89493Y140660D01*
X89474Y140621D01*
X89415Y140543D01*
X89337Y140367D01*
X89259Y140133D01*
X89181Y139841D01*
X89103Y139451D01*
X89064Y139236D01*
X89045Y139002D01*
X89025Y138748D01*
Y138475D01*
Y138436D01*
Y138358D01*
X89045Y138222D01*
X89064Y138046D01*
X89084Y137831D01*
X89123Y137597D01*
X89181Y137363D01*
X89259Y137110D01*
X89357Y136837D01*
X89474Y136602D01*
X89630Y136368D01*
X89805Y136154D01*
X90020Y135978D01*
X90274Y135842D01*
X90547Y135764D01*
X90878Y135725D01*
X95736D01*
Y132740D01*
X91210D01*
X91112Y132760D01*
X90995D01*
X90859Y132779D01*
X90527Y132837D01*
X90118Y132916D01*
X89669Y133052D01*
X89181Y133228D01*
X88694Y133462D01*
X88206Y133774D01*
X87952Y133949D01*
X87718Y134164D01*
X87484Y134379D01*
X87269Y134632D01*
X87055Y134886D01*
X86879Y135178D01*
X86684Y135510D01*
X86528Y135842D01*
X86392Y136212D01*
X86275Y136622D01*
X86177Y137051D01*
X86099Y137519D01*
X86060Y138007D01*
X86040Y138534D01*
Y138573D01*
Y138670D01*
Y138807D01*
X86060Y139002D01*
X86080Y139255D01*
X86118Y139529D01*
X86158Y139841D01*
X86216Y140172D01*
X86372Y140875D01*
X86470Y141226D01*
X86606Y141596D01*
X86762Y141928D01*
X86938Y142279D01*
X87133Y142591D01*
X87367Y142864D01*
X87387Y142884D01*
X87425Y142923D01*
X87503Y143001D01*
X87621Y143098D01*
X87757Y143196D01*
X87933Y143313D01*
X88128Y143449D01*
X88381Y143586D01*
X88635Y143722D01*
X88928Y143859D01*
X89259Y143976D01*
X89630Y144074D01*
X90020Y144171D01*
X90430Y144249D01*
X90878Y144288D01*
X91366Y144308D01*
X95736D01*
Y141323D01*
D02*
G37*
G36*
X166183Y106460D02*
X163198D01*
Y118028D01*
X166183D01*
Y106460D01*
D02*
G37*
G36*
X174064Y118008D02*
X174298Y117989D01*
X174551Y117950D01*
X174825Y117911D01*
X175137Y117852D01*
X175449Y117774D01*
X175780Y117677D01*
X176112Y117560D01*
X176424Y117423D01*
X176756Y117247D01*
X177068Y117052D01*
X177360Y116838D01*
X177614Y116584D01*
X177634Y116565D01*
X177673Y116526D01*
X177731Y116428D01*
X177829Y116311D01*
X177926Y116155D01*
X178043Y115979D01*
X178160Y115745D01*
X178297Y115492D01*
X178414Y115199D01*
X178531Y114887D01*
X178648Y114516D01*
X178745Y114126D01*
X178843Y113697D01*
X178902Y113249D01*
X178941Y112741D01*
X178960Y112215D01*
Y112195D01*
Y112156D01*
Y112078D01*
Y111961D01*
X178941Y111844D01*
X178921Y111688D01*
X178902Y111512D01*
X178882Y111317D01*
X178804Y110888D01*
X178687Y110400D01*
X178511Y109874D01*
X178297Y109347D01*
X178024Y108801D01*
X177673Y108274D01*
X177458Y108040D01*
X177243Y107787D01*
X176990Y107572D01*
X176717Y107357D01*
X176424Y107162D01*
X176112Y106987D01*
X175780Y106831D01*
X175410Y106714D01*
X175020Y106597D01*
X174590Y106518D01*
X174142Y106480D01*
X173654Y106460D01*
X172679D01*
X172581Y106480D01*
X172464D01*
X172328Y106499D01*
X171996Y106558D01*
X171586Y106636D01*
X171138Y106772D01*
X170650Y106948D01*
X170162Y107182D01*
X169675Y107494D01*
X169421Y107669D01*
X169187Y107865D01*
X168953Y108079D01*
X168738Y108333D01*
X168524Y108606D01*
X168348Y108879D01*
X168153Y109211D01*
X167997Y109542D01*
X167861Y109913D01*
X167743Y110322D01*
X167646Y110752D01*
X167568Y111200D01*
X167529Y111688D01*
X167509Y112215D01*
Y112254D01*
Y112351D01*
Y112488D01*
X167529Y112702D01*
X167548Y112936D01*
X167587Y113229D01*
X167626Y113541D01*
X167685Y113873D01*
X167743Y114224D01*
X167841Y114575D01*
X167958Y114946D01*
X168095Y115297D01*
X168251Y115648D01*
X168426Y115979D01*
X168641Y116292D01*
X168875Y116584D01*
X168894Y116604D01*
X168933Y116643D01*
X169011Y116721D01*
X169128Y116818D01*
X169265Y116916D01*
X169441Y117033D01*
X169655Y117170D01*
X169889Y117306D01*
X170143Y117443D01*
X170435Y117579D01*
X170767Y117696D01*
X171118Y117794D01*
X171508Y117891D01*
X171918Y117969D01*
X172367Y118008D01*
X172835Y118028D01*
X173888D01*
X174064Y118008D01*
D02*
G37*
G36*
X147788Y118145D02*
X148002Y118106D01*
X148256Y118067D01*
X148509Y117989D01*
X148782Y117872D01*
X149036Y117735D01*
X149075Y117716D01*
X149153Y117657D01*
X149270Y117560D01*
X149407Y117423D01*
X149563Y117228D01*
X149738Y117013D01*
X149894Y116740D01*
X150031Y116428D01*
X153562Y106460D01*
X150382D01*
X147456Y114809D01*
X144549Y106460D01*
X141389D01*
X144901Y116428D01*
Y116448D01*
X144920Y116467D01*
X144959Y116584D01*
X145037Y116740D01*
X145154Y116935D01*
X145291Y117150D01*
X145466Y117365D01*
X145661Y117560D01*
X145895Y117735D01*
X145934Y117755D01*
X146012Y117794D01*
X146168Y117872D01*
X146344Y117950D01*
X146578Y118028D01*
X146851Y118106D01*
X147144Y118145D01*
X147475Y118164D01*
X147632D01*
X147788Y118145D01*
D02*
G37*
G36*
X162047Y115043D02*
X159628D01*
Y106460D01*
X156644D01*
Y115043D01*
X154069D01*
Y118028D01*
X162047D01*
Y115043D01*
D02*
G37*
G36*
X144513Y130696D02*
X144708Y130677D01*
X144942Y130618D01*
X145235Y130540D01*
X145547Y130404D01*
X145879Y130228D01*
X146191Y129974D01*
X146210D01*
X146230Y129936D01*
X146327Y129838D01*
X146483Y129662D01*
X146659Y129448D01*
X146874Y129155D01*
X147088Y128804D01*
X147283Y128394D01*
X147459Y127926D01*
X149351Y122094D01*
Y122074D01*
X149390Y122035D01*
X149429Y121977D01*
X149488Y121957D01*
X149507D01*
X149546Y121977D01*
X149585Y122035D01*
X149605Y122152D01*
Y130618D01*
X152706D01*
Y122094D01*
Y122055D01*
Y121977D01*
X152687Y121840D01*
X152667Y121664D01*
X152648Y121469D01*
X152609Y121255D01*
X152531Y121021D01*
X152453Y120806D01*
X152433Y120787D01*
X152414Y120709D01*
X152355Y120592D01*
X152277Y120455D01*
X152180Y120299D01*
X152043Y120143D01*
X151906Y119967D01*
X151750Y119811D01*
X151731Y119792D01*
X151672Y119753D01*
X151575Y119675D01*
X151458Y119577D01*
X151302Y119480D01*
X151126Y119382D01*
X150931Y119285D01*
X150717Y119187D01*
X150697D01*
X150619Y119148D01*
X150502Y119129D01*
X150346Y119089D01*
X150151Y119051D01*
X149936Y119011D01*
X149683Y118992D01*
X149429Y118973D01*
X149332D01*
X149254Y118992D01*
X149059Y119011D01*
X148824Y119051D01*
X148532Y119129D01*
X148239Y119226D01*
X147927Y119382D01*
X147615Y119577D01*
X147576Y119597D01*
X147478Y119694D01*
X147342Y119831D01*
X147166Y120026D01*
X146971Y120260D01*
X146776Y120572D01*
X146601Y120923D01*
X146445Y121313D01*
X144416Y127575D01*
Y127595D01*
X144396Y127653D01*
X144357Y127692D01*
X144279Y127712D01*
X144260D01*
X144240Y127692D01*
X144201Y127653D01*
X144182Y127556D01*
Y119070D01*
X141080D01*
Y127575D01*
Y127614D01*
Y127692D01*
X141100Y127829D01*
X141119Y128004D01*
X141138Y128199D01*
X141178Y128414D01*
X141236Y128648D01*
X141314Y128863D01*
X141334Y128882D01*
X141353Y128960D01*
X141412Y129077D01*
X141490Y129214D01*
X141587Y129370D01*
X141704Y129526D01*
X141997Y129858D01*
X142016Y129877D01*
X142075Y129916D01*
X142172Y129994D01*
X142289Y130092D01*
X142445Y130189D01*
X142641Y130287D01*
X142836Y130384D01*
X143050Y130482D01*
X143070Y130501D01*
X143148Y130521D01*
X143284Y130560D01*
X143440Y130599D01*
X143636Y130638D01*
X143850Y130677D01*
X144084Y130716D01*
X144435D01*
X144513Y130696D01*
D02*
G37*
G36*
X112090Y244520D02*
X118392Y243266D01*
X124475Y241201D01*
X130237Y238360D01*
X135579Y234790D01*
X140409Y230555D01*
X144645Y225724D01*
X148214Y220382D01*
X151056Y214620D01*
X153121Y208537D01*
X154374Y202236D01*
X154795Y195825D01*
X154374Y189414D01*
X153121Y183113D01*
X151056Y177030D01*
X148214Y171268D01*
X144645Y165926D01*
X140409Y161096D01*
X135579Y156860D01*
X130237Y153290D01*
X124475Y150449D01*
X118392Y148384D01*
X112090Y147130D01*
X105680Y146710D01*
X99269Y147130D01*
X92968Y148384D01*
X88893Y149767D01*
X88894Y149761D01*
X87739Y149991D01*
X87735Y149966D01*
X87011Y150266D01*
X86607Y151241D01*
X86932Y152026D01*
X86962Y152003D01*
X87133Y152416D01*
X88108Y152820D01*
X88577Y152626D01*
X88577Y152625D01*
X88555Y152572D01*
X89547Y152235D01*
X89549Y152229D01*
X90965Y151947D01*
X96687Y151572D01*
X102409Y151947D01*
X108033Y153066D01*
X113462Y154909D01*
X118605Y157445D01*
X123373Y160631D01*
X127684Y164412D01*
X131465Y168723D01*
X134650Y173490D01*
X137187Y178633D01*
X139030Y184063D01*
X140148Y189687D01*
X140524Y195409D01*
X140148Y201131D01*
X139030Y206755D01*
X137187Y212184D01*
X134650Y217327D01*
X131465Y222095D01*
X127684Y226406D01*
X123373Y230187D01*
X118605Y233372D01*
X113462Y235909D01*
X108033Y237752D01*
X102409Y238871D01*
X96687Y239245D01*
X90965Y238871D01*
X87802Y238242D01*
X87808Y238218D01*
X87544Y238109D01*
X86569Y238512D01*
X86279Y239213D01*
X86281Y239206D01*
X85990Y239909D01*
X86394Y240884D01*
X86880Y241086D01*
X86841Y241180D01*
X86884Y241201D01*
X92968Y243266D01*
X99269Y244520D01*
X105680Y244940D01*
X112090Y244520D01*
D02*
G37*
G36*
X18290Y242920D02*
X24592Y241666D01*
X26386Y241057D01*
X26381Y241040D01*
X26382Y241046D01*
X26836Y240858D01*
X26835D01*
X26828Y240795D01*
X26869Y240844D01*
X26836Y240858D01*
X27441Y240818D01*
X27434Y240764D01*
X28237Y240432D01*
X28641Y239457D01*
X28237Y238482D01*
X27262Y238078D01*
X27090Y238149D01*
X27108Y238287D01*
X21388Y238662D01*
X15666Y238287D01*
X10042Y237168D01*
X4612Y235325D01*
X-530Y232789D01*
X-5298Y229603D01*
X-9609Y225822D01*
X-13390Y221511D01*
X-16576Y216744D01*
X-19112Y211601D01*
X-20955Y206171D01*
X-22074Y200547D01*
X-22449Y194825D01*
X-22074Y189103D01*
X-20955Y183479D01*
X-19112Y178050D01*
X-16576Y172907D01*
X-13390Y168139D01*
X-9609Y163828D01*
X-5298Y160047D01*
X-530Y156861D01*
X4612Y154325D01*
X10042Y152482D01*
X15666Y151363D01*
X21388Y150988D01*
X27110Y151363D01*
X28557Y151651D01*
X28548Y151706D01*
X28762Y151795D01*
X29737Y151391D01*
X29762Y151332D01*
X30722Y150934D01*
X31126Y149959D01*
X30722Y148984D01*
X30224Y148778D01*
X30253Y148706D01*
X24592Y146784D01*
X18290Y145530D01*
X11880Y145110D01*
X5469Y145530D01*
X-832Y146784D01*
X-6916Y148849D01*
X-12678Y151690D01*
X-18020Y155260D01*
X-22850Y159496D01*
X-27086Y164326D01*
X-30655Y169668D01*
X-33497Y175430D01*
X-35562Y181513D01*
X-36815Y187814D01*
X-37235Y194225D01*
X-36815Y200636D01*
X-35562Y206937D01*
X-33497Y213020D01*
X-30655Y218783D01*
X-27086Y224124D01*
X-22850Y228955D01*
X-18020Y233190D01*
X-12678Y236760D01*
X-6916Y239601D01*
X-832Y241666D01*
X5469Y242920D01*
X11880Y243340D01*
X18290Y242920D01*
D02*
G37*
G36*
X163650Y127653D02*
X157564D01*
X157446Y127634D01*
X157310Y127575D01*
X157173Y127458D01*
X157154Y127419D01*
X157095Y127322D01*
X157017Y127185D01*
X156998Y127009D01*
Y126990D01*
Y126970D01*
X157017Y126853D01*
X157056Y126697D01*
X157154Y126541D01*
X157193Y126522D01*
X157271Y126463D01*
X157427Y126385D01*
X157622Y126366D01*
X163650D01*
Y123381D01*
X157564D01*
X157446Y123362D01*
X157310Y123303D01*
X157173Y123186D01*
X157154Y123147D01*
X157095Y123069D01*
X157017Y122913D01*
X156998Y122718D01*
Y122698D01*
Y122679D01*
X157017Y122542D01*
X157076Y122386D01*
X157173Y122230D01*
X157212Y122211D01*
X157290Y122152D01*
X157446Y122074D01*
X157622Y122055D01*
X163650D01*
Y119070D01*
X157056D01*
X156920Y119089D01*
X156725Y119109D01*
X156510Y119129D01*
X156276Y119187D01*
X156042Y119246D01*
X155808Y119324D01*
X155788Y119343D01*
X155710Y119382D01*
X155593Y119441D01*
X155457Y119519D01*
X155301Y119616D01*
X155125Y119753D01*
X154969Y119889D01*
X154813Y120045D01*
X154794Y120065D01*
X154755Y120123D01*
X154677Y120221D01*
X154599Y120338D01*
X154501Y120494D01*
X154403Y120689D01*
X154306Y120884D01*
X154208Y121099D01*
Y121118D01*
X154169Y121216D01*
X154150Y121333D01*
X154111Y121489D01*
X154072Y121684D01*
X154033Y121898D01*
X154013Y122133D01*
X153994Y122386D01*
Y122406D01*
Y122445D01*
Y122503D01*
X154013Y122581D01*
X154033Y122796D01*
X154072Y123030D01*
Y123049D01*
X154091Y123089D01*
X154111Y123167D01*
X154130Y123244D01*
X154208Y123459D01*
X154306Y123713D01*
Y123732D01*
X154345Y123771D01*
X154384Y123849D01*
X154423Y123927D01*
X154559Y124142D01*
X154735Y124376D01*
X154755Y124396D01*
X154774Y124434D01*
X154833Y124493D01*
X154911Y124551D01*
X155086Y124727D01*
X155320Y124903D01*
X155281Y124922D01*
X155203Y124981D01*
X155067Y125078D01*
X154911Y125215D01*
X154735Y125390D01*
X154579Y125585D01*
X154423Y125820D01*
X154286Y126073D01*
X154267Y126112D01*
X154247Y126190D01*
X154208Y126346D01*
X154150Y126541D01*
X154091Y126775D01*
X154052Y127029D01*
X154033Y127322D01*
X154013Y127614D01*
Y127634D01*
Y127712D01*
X154033Y127829D01*
Y127985D01*
X154072Y128160D01*
X154111Y128355D01*
X154150Y128551D01*
X154228Y128765D01*
X154247Y128785D01*
X154267Y128863D01*
X154325Y128960D01*
X154403Y129097D01*
X154599Y129409D01*
X154872Y129721D01*
X154891Y129740D01*
X154950Y129799D01*
X155028Y129858D01*
X155145Y129955D01*
X155301Y130072D01*
X155457Y130170D01*
X155652Y130287D01*
X155866Y130384D01*
X155886Y130404D01*
X155964Y130423D01*
X156101Y130462D01*
X156257Y130521D01*
X156452Y130560D01*
X156666Y130599D01*
X156920Y130618D01*
X157193Y130638D01*
X163650D01*
Y127653D01*
D02*
G37*
G36*
X174418Y130677D02*
X174613Y130657D01*
X174847Y130599D01*
X175140Y130521D01*
X175452Y130384D01*
X175783Y130209D01*
X176095Y129955D01*
X176115D01*
X176134Y129916D01*
X176232Y129818D01*
X176388Y129662D01*
X176564Y129428D01*
X176778Y129136D01*
X176993Y128785D01*
X177188Y128375D01*
X177363Y127907D01*
X179256Y122094D01*
Y122074D01*
X179295Y122035D01*
X179334Y121977D01*
X179392Y121957D01*
X179412D01*
X179451Y121977D01*
X179490Y122035D01*
X179509Y122152D01*
Y130638D01*
X182611D01*
Y122094D01*
Y122055D01*
Y121977D01*
X182591Y121840D01*
X182572Y121664D01*
X182552Y121469D01*
X182513Y121255D01*
X182435Y121021D01*
X182357Y120806D01*
X182338Y120787D01*
X182318Y120709D01*
X182260Y120592D01*
X182182Y120455D01*
X182084Y120299D01*
X181948Y120143D01*
X181811Y119967D01*
X181655Y119811D01*
X181635Y119792D01*
X181577Y119753D01*
X181479Y119675D01*
X181362Y119577D01*
X181206Y119480D01*
X181031Y119382D01*
X180836Y119285D01*
X180621Y119187D01*
X180602D01*
X180524Y119148D01*
X180406Y119129D01*
X180250Y119089D01*
X180055Y119051D01*
X179841Y119011D01*
X179587Y118992D01*
X179334Y118973D01*
X179178D01*
X179060Y118992D01*
X178924D01*
X178768Y119031D01*
X178436Y119089D01*
X178417D01*
X178358Y119109D01*
X178280Y119148D01*
X178183Y119187D01*
X177910Y119304D01*
X177617Y119480D01*
X177598Y119499D01*
X177558Y119519D01*
X177480Y119577D01*
X177383Y119655D01*
X177168Y119850D01*
X176934Y120104D01*
X176915Y120123D01*
X176895Y120162D01*
X176837Y120240D01*
X176759Y120358D01*
X176700Y120475D01*
X176622Y120631D01*
X176466Y120962D01*
X174340Y127575D01*
Y127595D01*
X174301Y127634D01*
X174262Y127673D01*
X174184Y127692D01*
X174164D01*
X174145Y127673D01*
X174106Y127614D01*
X174086Y127517D01*
Y122094D01*
Y122055D01*
Y121977D01*
X174067Y121840D01*
X174047Y121664D01*
X174028Y121469D01*
X173989Y121255D01*
X173911Y121021D01*
X173833Y120806D01*
X173813Y120787D01*
X173794Y120709D01*
X173735Y120592D01*
X173657Y120455D01*
X173559Y120299D01*
X173423Y120143D01*
X173286Y119967D01*
X173130Y119811D01*
X173111Y119792D01*
X173052Y119753D01*
X172955Y119675D01*
X172838Y119577D01*
X172682Y119480D01*
X172506Y119382D01*
X172311Y119285D01*
X172097Y119187D01*
X172077D01*
X171999Y119148D01*
X171882Y119129D01*
X171726Y119089D01*
X171531Y119051D01*
X171316Y119011D01*
X171063Y118992D01*
X170809Y118973D01*
X170653D01*
X170536Y118992D01*
X170399D01*
X170263Y119031D01*
X169931Y119089D01*
X169912D01*
X169853Y119109D01*
X169775Y119148D01*
X169658Y119187D01*
X169385Y119304D01*
X169092Y119460D01*
X169073Y119480D01*
X169034Y119519D01*
X168956Y119558D01*
X168878Y119636D01*
X168644Y119850D01*
X168410Y120104D01*
X168390Y120123D01*
X168351Y120182D01*
X168293Y120260D01*
X168234Y120358D01*
X168156Y120494D01*
X168078Y120650D01*
X167922Y121021D01*
X164508Y130638D01*
X167805D01*
X170731Y122133D01*
Y122113D01*
X170751Y122055D01*
X170790Y121977D01*
X170868Y121957D01*
X170887D01*
X170926Y121977D01*
X170965Y122035D01*
X170984Y122152D01*
Y127575D01*
Y127614D01*
Y127692D01*
X171004Y127829D01*
X171024Y128004D01*
X171043Y128199D01*
X171082Y128414D01*
X171141Y128629D01*
X171219Y128843D01*
X171238Y128863D01*
X171258Y128941D01*
X171316Y129058D01*
X171394Y129194D01*
X171511Y129350D01*
X171628Y129506D01*
X171765Y129682D01*
X171921Y129838D01*
X171940Y129858D01*
X171999Y129896D01*
X172097Y129974D01*
X172213Y130072D01*
X172370Y130170D01*
X172545Y130267D01*
X172740Y130365D01*
X172955Y130462D01*
X172974Y130482D01*
X173052Y130501D01*
X173189Y130540D01*
X173345Y130579D01*
X173540Y130618D01*
X173755Y130657D01*
X173989Y130696D01*
X174340D01*
X174418Y130677D01*
D02*
G37*
G36*
X183739Y118086D02*
X183934Y118067D01*
X184168Y118008D01*
X184461Y117930D01*
X184773Y117794D01*
X185105Y117618D01*
X185417Y117365D01*
X185436D01*
X185456Y117325D01*
X185553Y117228D01*
X185710Y117052D01*
X185885Y116838D01*
X186100Y116545D01*
X186314Y116194D01*
X186509Y115785D01*
X186685Y115316D01*
X188577Y109484D01*
Y109464D01*
X188616Y109425D01*
X188655Y109367D01*
X188714Y109347D01*
X188733D01*
X188772Y109367D01*
X188811Y109425D01*
X188831Y109542D01*
Y118008D01*
X191932D01*
Y109484D01*
Y109445D01*
Y109367D01*
X191913Y109230D01*
X191893Y109054D01*
X191874Y108859D01*
X191835Y108645D01*
X191757Y108411D01*
X191679Y108196D01*
X191659Y108177D01*
X191640Y108099D01*
X191581Y107982D01*
X191503Y107845D01*
X191406Y107689D01*
X191269Y107533D01*
X191133Y107357D01*
X190977Y107201D01*
X190957Y107182D01*
X190898Y107143D01*
X190801Y107065D01*
X190684Y106967D01*
X190528Y106870D01*
X190352Y106772D01*
X190157Y106675D01*
X189943Y106577D01*
X189923D01*
X189845Y106538D01*
X189728Y106518D01*
X189572Y106480D01*
X189377Y106440D01*
X189162Y106402D01*
X188909Y106382D01*
X188655Y106362D01*
X188558D01*
X188480Y106382D01*
X188284Y106402D01*
X188050Y106440D01*
X187758Y106518D01*
X187465Y106616D01*
X187153Y106772D01*
X186841Y106967D01*
X186802Y106987D01*
X186704Y107084D01*
X186568Y107221D01*
X186392Y107416D01*
X186197Y107650D01*
X186002Y107962D01*
X185827Y108313D01*
X185671Y108703D01*
X183642Y114965D01*
Y114985D01*
X183622Y115043D01*
X183583Y115082D01*
X183505Y115102D01*
X183486D01*
X183466Y115082D01*
X183427Y115043D01*
X183408Y114946D01*
Y106460D01*
X180306D01*
Y114965D01*
Y115004D01*
Y115082D01*
X180326Y115219D01*
X180345Y115394D01*
X180365Y115589D01*
X180404Y115804D01*
X180462Y116038D01*
X180540Y116253D01*
X180560Y116272D01*
X180579Y116350D01*
X180638Y116467D01*
X180716Y116604D01*
X180813Y116760D01*
X180930Y116916D01*
X181223Y117247D01*
X181242Y117267D01*
X181301Y117306D01*
X181399Y117384D01*
X181516Y117482D01*
X181672Y117579D01*
X181867Y117677D01*
X182062Y117774D01*
X182276Y117872D01*
X182296Y117891D01*
X182374Y117911D01*
X182510Y117950D01*
X182666Y117989D01*
X182861Y118028D01*
X183076Y118067D01*
X183310Y118106D01*
X183661D01*
X183739Y118086D01*
D02*
G37*
G36*
X137020Y118008D02*
X137273Y117989D01*
X137546Y117950D01*
X137839Y117911D01*
X138132Y117833D01*
X138424Y117735D01*
X138463Y117716D01*
X138541Y117677D01*
X138678Y117618D01*
X138853Y117521D01*
X139048Y117403D01*
X139243Y117267D01*
X139438Y117111D01*
X139634Y116935D01*
X139653Y116916D01*
X139712Y116857D01*
X139790Y116740D01*
X139887Y116604D01*
X140004Y116448D01*
X140121Y116253D01*
X140219Y116018D01*
X140316Y115785D01*
X140336Y115765D01*
X140355Y115667D01*
X140394Y115550D01*
X140433Y115375D01*
X140472Y115160D01*
X140492Y114946D01*
X140531Y114692D01*
Y114419D01*
Y114399D01*
Y114302D01*
Y114185D01*
X140511Y114029D01*
X140492Y113834D01*
X140453Y113619D01*
X140336Y113151D01*
Y113132D01*
X140297Y113053D01*
X140258Y112936D01*
X140199Y112780D01*
X140121Y112605D01*
X140024Y112410D01*
X139887Y112215D01*
X139751Y112020D01*
X139731Y112000D01*
X139673Y111941D01*
X139594Y111844D01*
X139478Y111727D01*
X139341Y111610D01*
X139165Y111473D01*
X138951Y111337D01*
X138736Y111200D01*
X138717Y111181D01*
X138619Y111142D01*
X138483Y111083D01*
X138307Y111025D01*
X138092Y110947D01*
X137839Y110888D01*
X137546Y110830D01*
X137215Y110791D01*
X140785Y109601D01*
Y106323D01*
X133898Y109132D01*
Y106460D01*
X130914D01*
Y110147D01*
Y110166D01*
Y110225D01*
Y110322D01*
X130933Y110440D01*
X130953Y110596D01*
X130972Y110771D01*
X131050Y111161D01*
X131167Y111590D01*
X131343Y112039D01*
X131460Y112254D01*
X131597Y112468D01*
X131753Y112663D01*
X131928Y112839D01*
X131948Y112858D01*
X131967Y112878D01*
X132026Y112917D01*
X132123Y112975D01*
X132221Y113053D01*
X132338Y113132D01*
X132494Y113209D01*
X132669Y113307D01*
X132845Y113385D01*
X133060Y113463D01*
X133294Y113541D01*
X133547Y113619D01*
X133820Y113678D01*
X134113Y113717D01*
X134425Y113756D01*
X136981D01*
X137098Y113775D01*
X137234Y113834D01*
X137371Y113931D01*
X137390Y113970D01*
X137468Y114068D01*
X137527Y114204D01*
X137546Y114399D01*
Y114419D01*
Y114438D01*
X137527Y114556D01*
X137468Y114692D01*
X137371Y114848D01*
X137351Y114887D01*
X137254Y114946D01*
X137137Y115004D01*
X136961Y115043D01*
X130914D01*
Y118028D01*
X136844D01*
X137020Y118008D01*
D02*
G37*
G36*
X167710Y94740D02*
Y94720D01*
X167690Y94701D01*
X167651Y94584D01*
X167573Y94427D01*
X167456Y94232D01*
X167320Y94018D01*
X167144Y93803D01*
X166949Y93608D01*
X166715Y93433D01*
X166676Y93413D01*
X166598Y93374D01*
X166461Y93316D01*
X166266Y93237D01*
X166052Y93160D01*
X165779Y93101D01*
X165486Y93062D01*
X165154Y93042D01*
X164998D01*
X164823Y93062D01*
X164589Y93101D01*
X164335Y93140D01*
X164062Y93218D01*
X163789Y93316D01*
X163535Y93452D01*
X163516Y93472D01*
X163418Y93530D01*
X163301Y93628D01*
X163165Y93764D01*
X163008Y93940D01*
X162852Y94174D01*
X162696Y94427D01*
X162579Y94740D01*
X159068Y104708D01*
X162228D01*
X165135Y96320D01*
X168061Y104708D01*
X171241D01*
X167710Y94740D01*
D02*
G37*
G36*
X110256Y118086D02*
X110451Y118067D01*
X110685Y118008D01*
X110977Y117930D01*
X111290Y117794D01*
X111621Y117618D01*
X111933Y117365D01*
X111953D01*
X111972Y117325D01*
X112070Y117228D01*
X112226Y117052D01*
X112402Y116838D01*
X112616Y116545D01*
X112831Y116194D01*
X113026Y115785D01*
X113201Y115316D01*
X115093Y109484D01*
Y109464D01*
X115133Y109425D01*
X115171Y109367D01*
X115230Y109347D01*
X115250D01*
X115289Y109367D01*
X115328Y109425D01*
X115347Y109542D01*
Y118008D01*
X118449D01*
Y109484D01*
Y109445D01*
Y109367D01*
X118429Y109230D01*
X118410Y109054D01*
X118390Y108859D01*
X118351Y108645D01*
X118273Y108411D01*
X118195Y108196D01*
X118176Y108177D01*
X118156Y108099D01*
X118098Y107982D01*
X118020Y107845D01*
X117922Y107689D01*
X117786Y107533D01*
X117649Y107357D01*
X117493Y107201D01*
X117473Y107182D01*
X117415Y107143D01*
X117317Y107065D01*
X117200Y106967D01*
X117044Y106870D01*
X116869Y106772D01*
X116674Y106675D01*
X116459Y106577D01*
X116440D01*
X116362Y106538D01*
X116244Y106518D01*
X116088Y106480D01*
X115893Y106440D01*
X115679Y106402D01*
X115425Y106382D01*
X115171Y106362D01*
X115074D01*
X114996Y106382D01*
X114801Y106402D01*
X114567Y106440D01*
X114274Y106518D01*
X113982Y106616D01*
X113670Y106772D01*
X113357Y106967D01*
X113318Y106987D01*
X113221Y107084D01*
X113084Y107221D01*
X112909Y107416D01*
X112714Y107650D01*
X112519Y107962D01*
X112343Y108313D01*
X112187Y108703D01*
X110158Y114965D01*
Y114985D01*
X110139Y115043D01*
X110100Y115082D01*
X110022Y115102D01*
X110002D01*
X109983Y115082D01*
X109944Y115043D01*
X109924Y114946D01*
Y106460D01*
X106822D01*
Y114965D01*
Y115004D01*
Y115082D01*
X106842Y115219D01*
X106861Y115394D01*
X106881Y115589D01*
X106920Y115804D01*
X106979Y116038D01*
X107057Y116253D01*
X107076Y116272D01*
X107095Y116350D01*
X107154Y116467D01*
X107232Y116604D01*
X107330Y116760D01*
X107447Y116916D01*
X107739Y117247D01*
X107759Y117267D01*
X107817Y117306D01*
X107915Y117384D01*
X108032Y117482D01*
X108188Y117579D01*
X108383Y117677D01*
X108578Y117774D01*
X108793Y117872D01*
X108812Y117891D01*
X108890Y117911D01*
X109027Y117950D01*
X109183Y117989D01*
X109378Y118028D01*
X109593Y118067D01*
X109827Y118106D01*
X110178D01*
X110256Y118086D01*
D02*
G37*
G36*
X129392Y115043D02*
X123306D01*
X123189Y115024D01*
X123052Y114965D01*
X122916Y114848D01*
X122896Y114809D01*
X122838Y114712D01*
X122760Y114575D01*
X122740Y114399D01*
Y114380D01*
Y114360D01*
X122760Y114243D01*
X122799Y114087D01*
X122896Y113931D01*
X122935Y113912D01*
X123013Y113853D01*
X123169Y113775D01*
X123364Y113756D01*
X129392D01*
Y110771D01*
X123306D01*
X123189Y110752D01*
X123052Y110693D01*
X122916Y110576D01*
X122896Y110537D01*
X122838Y110459D01*
X122760Y110303D01*
X122740Y110108D01*
Y110088D01*
Y110069D01*
X122760Y109932D01*
X122818Y109776D01*
X122916Y109620D01*
X122955Y109601D01*
X123033Y109542D01*
X123189Y109464D01*
X123364Y109445D01*
X129392D01*
Y106460D01*
X122799D01*
X122662Y106480D01*
X122467Y106499D01*
X122253Y106518D01*
X122019Y106577D01*
X121784Y106636D01*
X121550Y106714D01*
X121531Y106733D01*
X121453Y106772D01*
X121336Y106831D01*
X121199Y106909D01*
X121043Y107006D01*
X120868Y107143D01*
X120712Y107279D01*
X120555Y107435D01*
X120536Y107455D01*
X120497Y107513D01*
X120419Y107611D01*
X120341Y107728D01*
X120243Y107884D01*
X120146Y108079D01*
X120048Y108274D01*
X119951Y108489D01*
Y108508D01*
X119912Y108606D01*
X119892Y108723D01*
X119853Y108879D01*
X119814Y109074D01*
X119775Y109289D01*
X119756Y109523D01*
X119736Y109776D01*
Y109796D01*
Y109835D01*
Y109893D01*
X119756Y109971D01*
X119775Y110186D01*
X119814Y110420D01*
Y110440D01*
X119834Y110478D01*
X119853Y110556D01*
X119873Y110635D01*
X119951Y110849D01*
X120048Y111103D01*
Y111122D01*
X120087Y111161D01*
X120126Y111239D01*
X120165Y111317D01*
X120302Y111532D01*
X120478Y111766D01*
X120497Y111785D01*
X120517Y111825D01*
X120575Y111883D01*
X120653Y111941D01*
X120829Y112117D01*
X121063Y112293D01*
X121024Y112312D01*
X120946Y112371D01*
X120809Y112468D01*
X120653Y112605D01*
X120478Y112780D01*
X120321Y112975D01*
X120165Y113209D01*
X120029Y113463D01*
X120009Y113502D01*
X119990Y113580D01*
X119951Y113736D01*
X119892Y113931D01*
X119834Y114165D01*
X119795Y114419D01*
X119775Y114712D01*
X119756Y115004D01*
Y115024D01*
Y115102D01*
X119775Y115219D01*
Y115375D01*
X119814Y115550D01*
X119853Y115745D01*
X119892Y115941D01*
X119970Y116155D01*
X119990Y116175D01*
X120009Y116253D01*
X120068Y116350D01*
X120146Y116487D01*
X120341Y116799D01*
X120614Y117111D01*
X120633Y117130D01*
X120692Y117189D01*
X120770Y117247D01*
X120887Y117345D01*
X121043Y117462D01*
X121199Y117560D01*
X121394Y117677D01*
X121609Y117774D01*
X121628Y117794D01*
X121706Y117813D01*
X121843Y117852D01*
X121999Y117911D01*
X122194Y117950D01*
X122409Y117989D01*
X122662Y118008D01*
X122935Y118028D01*
X129392D01*
Y115043D01*
D02*
G37*
G36*
X105320D02*
X99234D01*
X99117Y115024D01*
X98981Y114965D01*
X98844Y114848D01*
X98825Y114809D01*
X98766Y114712D01*
X98688Y114575D01*
X98668Y114399D01*
Y114380D01*
Y114360D01*
X98688Y114243D01*
X98727Y114087D01*
X98825Y113931D01*
X98863Y113912D01*
X98941Y113853D01*
X99098Y113775D01*
X99293Y113756D01*
X105320D01*
Y110771D01*
X99234D01*
X99117Y110752D01*
X98981Y110693D01*
X98844Y110576D01*
X98825Y110537D01*
X98766Y110459D01*
X98688Y110303D01*
X98668Y110108D01*
Y110088D01*
Y110069D01*
X98688Y109932D01*
X98747Y109776D01*
X98844Y109620D01*
X98883Y109601D01*
X98961Y109542D01*
X99117Y109464D01*
X99293Y109445D01*
X105320D01*
Y106460D01*
X98727D01*
X98590Y106480D01*
X98395Y106499D01*
X98181Y106518D01*
X97947Y106577D01*
X97713Y106636D01*
X97479Y106714D01*
X97459Y106733D01*
X97381Y106772D01*
X97264Y106831D01*
X97127Y106909D01*
X96971Y107006D01*
X96796Y107143D01*
X96640Y107279D01*
X96484Y107435D01*
X96464Y107455D01*
X96425Y107513D01*
X96347Y107611D01*
X96269Y107728D01*
X96172Y107884D01*
X96074Y108079D01*
X95976Y108274D01*
X95879Y108489D01*
Y108508D01*
X95840Y108606D01*
X95820Y108723D01*
X95781Y108879D01*
X95742Y109074D01*
X95703Y109289D01*
X95684Y109523D01*
X95664Y109776D01*
Y109796D01*
Y109835D01*
Y109893D01*
X95684Y109971D01*
X95703Y110186D01*
X95742Y110420D01*
Y110440D01*
X95762Y110478D01*
X95781Y110556D01*
X95801Y110635D01*
X95879Y110849D01*
X95976Y111103D01*
Y111122D01*
X96016Y111161D01*
X96054Y111239D01*
X96094Y111317D01*
X96230Y111532D01*
X96406Y111766D01*
X96425Y111785D01*
X96445Y111825D01*
X96503Y111883D01*
X96581Y111941D01*
X96757Y112117D01*
X96991Y112293D01*
X96952Y112312D01*
X96874Y112371D01*
X96737Y112468D01*
X96581Y112605D01*
X96406Y112780D01*
X96250Y112975D01*
X96094Y113209D01*
X95957Y113463D01*
X95937Y113502D01*
X95918Y113580D01*
X95879Y113736D01*
X95820Y113931D01*
X95762Y114165D01*
X95723Y114419D01*
X95703Y114712D01*
X95684Y115004D01*
Y115024D01*
Y115102D01*
X95703Y115219D01*
Y115375D01*
X95742Y115550D01*
X95781Y115745D01*
X95820Y115941D01*
X95898Y116155D01*
X95918Y116175D01*
X95937Y116253D01*
X95996Y116350D01*
X96074Y116487D01*
X96269Y116799D01*
X96542Y117111D01*
X96562Y117130D01*
X96620Y117189D01*
X96698Y117247D01*
X96815Y117345D01*
X96971Y117462D01*
X97127Y117560D01*
X97322Y117677D01*
X97537Y117774D01*
X97556Y117794D01*
X97635Y117813D01*
X97771Y117852D01*
X97927Y117911D01*
X98122Y117950D01*
X98337Y117989D01*
X98590Y118008D01*
X98863Y118028D01*
X105320D01*
Y115043D01*
D02*
G37*
G36*
X93636D02*
X88759D01*
X88642Y115024D01*
X88486Y115004D01*
X88271Y114965D01*
X88037Y114868D01*
X87803Y114751D01*
X87588Y114594D01*
X87393Y114360D01*
X87374Y114321D01*
X87315Y114243D01*
X87237Y114068D01*
X87159Y113834D01*
X87081Y113541D01*
X87003Y113170D01*
X86945Y112722D01*
X86925Y112468D01*
Y112195D01*
Y112156D01*
Y112078D01*
X86945Y111941D01*
X86964Y111766D01*
X86984Y111551D01*
X87023Y111317D01*
X87081Y111083D01*
X87159Y110830D01*
X87257Y110556D01*
X87374Y110322D01*
X87530Y110088D01*
X87705Y109874D01*
X87920Y109698D01*
X88174Y109562D01*
X88447Y109484D01*
X88778Y109445D01*
X91022D01*
X91119Y109464D01*
X91236Y109523D01*
X91353Y109640D01*
Y109659D01*
X91373Y109679D01*
X91451Y109776D01*
X91509Y109932D01*
X91529Y110108D01*
Y110127D01*
Y110147D01*
X91509Y110264D01*
X91451Y110420D01*
X91353Y110596D01*
Y110615D01*
X91334Y110635D01*
X91256Y110713D01*
X91139Y110791D01*
X91061Y110830D01*
X88739D01*
Y113814D01*
X91178D01*
X91314Y113795D01*
X91509Y113775D01*
X91704Y113736D01*
X91938Y113678D01*
X92172Y113600D01*
X92407Y113502D01*
X92426Y113483D01*
X92524Y113444D01*
X92641Y113385D01*
X92777Y113287D01*
X92953Y113170D01*
X93148Y113034D01*
X93323Y112858D01*
X93499Y112683D01*
X93518Y112663D01*
X93577Y112585D01*
X93655Y112488D01*
X93772Y112351D01*
X93889Y112176D01*
X94006Y111980D01*
X94123Y111747D01*
X94240Y111512D01*
X94260Y111493D01*
X94279Y111395D01*
X94318Y111278D01*
X94377Y111103D01*
X94435Y110908D01*
X94474Y110693D01*
X94494Y110459D01*
X94513Y110205D01*
Y110166D01*
Y110069D01*
X94494Y109913D01*
X94474Y109718D01*
X94435Y109484D01*
X94396Y109230D01*
X94318Y108957D01*
X94221Y108703D01*
X94201Y108684D01*
X94162Y108586D01*
X94104Y108469D01*
X94026Y108313D01*
X93909Y108118D01*
X93792Y107923D01*
X93636Y107728D01*
X93460Y107533D01*
X93441Y107513D01*
X93382Y107455D01*
X93265Y107357D01*
X93148Y107260D01*
X92972Y107123D01*
X92777Y107006D01*
X92582Y106870D01*
X92348Y106753D01*
X92329Y106733D01*
X92251Y106714D01*
X92114Y106675D01*
X91958Y106616D01*
X91763Y106558D01*
X91548Y106518D01*
X91295Y106480D01*
X91041Y106460D01*
X89110D01*
X89012Y106480D01*
X88895D01*
X88759Y106499D01*
X88427Y106558D01*
X88018Y106636D01*
X87569Y106772D01*
X87081Y106948D01*
X86594Y107182D01*
X86106Y107494D01*
X85852Y107669D01*
X85618Y107865D01*
X85384Y108079D01*
X85169Y108333D01*
X84955Y108606D01*
X84779Y108879D01*
X84584Y109211D01*
X84428Y109542D01*
X84292Y109913D01*
X84175Y110322D01*
X84077Y110752D01*
X83999Y111200D01*
X83960Y111688D01*
X83940Y112215D01*
Y112273D01*
Y112293D01*
Y112332D01*
Y112410D01*
X83960Y112527D01*
Y112644D01*
X83980Y112800D01*
X83999Y112975D01*
X84038Y113170D01*
X84116Y113600D01*
X84233Y114087D01*
X84409Y114614D01*
X84623Y115160D01*
X84916Y115687D01*
X85267Y116214D01*
X85482Y116448D01*
X85696Y116701D01*
X85950Y116916D01*
X86203Y117130D01*
X86496Y117325D01*
X86828Y117501D01*
X87159Y117657D01*
X87530Y117774D01*
X87920Y117891D01*
X88330Y117969D01*
X88778Y118008D01*
X89266Y118028D01*
X93636D01*
Y115043D01*
D02*
G37*
%LPC*%
G36*
X29747Y151338D02*
X29739Y151335D01*
X29787Y151272D01*
X29762Y151332D01*
X29747Y151338D01*
D02*
G37*
G36*
X142545Y101723D02*
X140205D01*
Y96125D01*
X142584D01*
X142702Y96144D01*
X142858Y96164D01*
X143072Y96203D01*
X143306Y96281D01*
X143540Y96398D01*
X143755Y96573D01*
X143950Y96788D01*
X143969Y96827D01*
X144028Y96924D01*
X144106Y97080D01*
X144184Y97315D01*
X144262Y97607D01*
X144340Y97978D01*
X144399Y98426D01*
X144418Y98680D01*
Y98953D01*
Y98992D01*
Y99070D01*
X144399Y99207D01*
Y99382D01*
X144360Y99597D01*
X144321Y99831D01*
X144262Y100085D01*
X144184Y100338D01*
X144087Y100592D01*
X143969Y100845D01*
X143813Y101079D01*
X143638Y101294D01*
X143423Y101470D01*
X143170Y101606D01*
X142877Y101684D01*
X142545Y101723D01*
D02*
G37*
G36*
X86962Y152003D02*
X86962Y152003D01*
X86964Y152002D01*
X86962Y152003D01*
D02*
G37*
G36*
X128904Y16438D02*
X123078D01*
Y13878D01*
X128941D01*
X129164Y13915D01*
X129201D01*
X129275Y13989D01*
X129535Y14138D01*
X129572Y14175D01*
X129683Y14249D01*
X129795Y14360D01*
X129906Y14546D01*
X129943Y14583D01*
X129980Y14731D01*
X130017Y14954D01*
X130054Y15214D01*
Y15251D01*
Y15288D01*
X130017Y15511D01*
X129906Y15770D01*
X129720Y16067D01*
X129646Y16141D01*
X129498Y16253D01*
X129238Y16364D01*
X128904Y16438D01*
D02*
G37*
G36*
X174103Y115043D02*
X172211D01*
X172055Y115004D01*
X171840Y114965D01*
X171606Y114887D01*
X171372Y114770D01*
X171157Y114594D01*
X170962Y114380D01*
X170943Y114341D01*
X170884Y114263D01*
X170806Y114087D01*
X170728Y113853D01*
X170650Y113561D01*
X170572Y113170D01*
X170533Y112956D01*
X170513Y112722D01*
X170494Y112468D01*
Y112195D01*
Y112156D01*
Y112078D01*
X170513Y111941D01*
X170533Y111766D01*
X170553Y111551D01*
X170592Y111317D01*
X170650Y111083D01*
X170728Y110830D01*
X170826Y110556D01*
X170943Y110322D01*
X171099Y110088D01*
X171274Y109874D01*
X171489Y109698D01*
X171742Y109562D01*
X172015Y109484D01*
X172347Y109445D01*
X174181D01*
X174278Y109464D01*
X174395Y109484D01*
X174532Y109523D01*
X174688Y109581D01*
X174864Y109679D01*
X175039Y109796D01*
X175215Y109932D01*
X175390Y110108D01*
X175546Y110342D01*
X175683Y110615D01*
X175800Y110927D01*
X175897Y111278D01*
X175956Y111707D01*
X175975Y112195D01*
Y112215D01*
Y112254D01*
Y112332D01*
Y112449D01*
X175956Y112566D01*
Y112722D01*
X175917Y113034D01*
X175858Y113405D01*
X175780Y113756D01*
X175663Y114087D01*
X175585Y114243D01*
X175507Y114380D01*
X175488Y114399D01*
X175429Y114478D01*
X175312Y114594D01*
X175156Y114712D01*
X174961Y114829D01*
X174727Y114946D01*
X174434Y115024D01*
X174103Y115043D01*
D02*
G37*
G36*
X103597Y141323D02*
X101705D01*
X101549Y141284D01*
X101334Y141245D01*
X101100Y141167D01*
X100866Y141050D01*
X100651Y140875D01*
X100456Y140660D01*
X100437Y140621D01*
X100378Y140543D01*
X100300Y140367D01*
X100222Y140133D01*
X100144Y139841D01*
X100066Y139451D01*
X100027Y139236D01*
X100008Y139002D01*
X99988Y138748D01*
Y138475D01*
Y138436D01*
Y138358D01*
X100008Y138222D01*
X100027Y138046D01*
X100047Y137831D01*
X100086Y137597D01*
X100144Y137363D01*
X100222Y137110D01*
X100320Y136837D01*
X100437Y136602D01*
X100593Y136368D01*
X100768Y136154D01*
X100983Y135978D01*
X101237Y135842D01*
X101510Y135764D01*
X101841Y135725D01*
X103675D01*
X103772Y135744D01*
X103890Y135764D01*
X104026Y135803D01*
X104182Y135861D01*
X104358Y135959D01*
X104533Y136076D01*
X104709Y136212D01*
X104884Y136388D01*
X105041Y136622D01*
X105177Y136895D01*
X105294Y137207D01*
X105392Y137558D01*
X105450Y137987D01*
X105470Y138475D01*
Y138495D01*
Y138534D01*
Y138612D01*
Y138729D01*
X105450Y138846D01*
Y139002D01*
X105411Y139314D01*
X105353Y139685D01*
X105275Y140036D01*
X105157Y140367D01*
X105079Y140523D01*
X105001Y140660D01*
X104982Y140679D01*
X104923Y140758D01*
X104806Y140875D01*
X104650Y140991D01*
X104455Y141109D01*
X104221Y141226D01*
X103929Y141304D01*
X103597Y141323D01*
D02*
G37*
G36*
X172953Y24528D02*
X170949D01*
X170726Y24491D01*
X170429Y24454D01*
X170021Y24380D01*
X169576Y24194D01*
X169130Y23972D01*
X168722Y23675D01*
X168351Y23229D01*
X168314Y23155D01*
X168203Y23007D01*
X168054Y22673D01*
X167906Y22227D01*
X167757Y21671D01*
X167609Y20966D01*
X167498Y20112D01*
X167461Y19630D01*
Y19110D01*
Y18887D01*
Y18850D01*
Y18665D01*
X167498Y18442D01*
X167535Y18108D01*
X167572Y17737D01*
X167646Y17292D01*
X167757Y16846D01*
X167906Y16401D01*
X168091Y15919D01*
X168314Y15474D01*
X168611Y15028D01*
X168945Y14657D01*
X169353Y14323D01*
X169836Y14100D01*
X170355Y13952D01*
X170986Y13878D01*
X173138D01*
X173324Y13915D01*
X173547Y13952D01*
X173806Y14026D01*
X174103Y14138D01*
X174437Y14286D01*
X174771Y14509D01*
X175068Y14768D01*
X175402Y15102D01*
X175699Y15511D01*
X175959Y15993D01*
X176181Y16550D01*
X176367Y17218D01*
X176478Y17997D01*
X176515Y18887D01*
Y19110D01*
Y19147D01*
Y19222D01*
Y19370D01*
Y19593D01*
X176478Y19815D01*
Y20075D01*
X176404Y20706D01*
X176293Y21374D01*
X176144Y22042D01*
X175921Y22710D01*
X175773Y22970D01*
X175625Y23229D01*
X175588Y23303D01*
X175476Y23452D01*
X175254Y23637D01*
X174957Y23897D01*
X174586Y24120D01*
X174140Y24343D01*
X173584Y24491D01*
X172953Y24528D01*
D02*
G37*
G36*
X128904D02*
X123078D01*
Y22116D01*
X128978D01*
X129201Y22153D01*
X129460Y22264D01*
X129720Y22450D01*
X129757Y22524D01*
X129906Y22673D01*
X130017Y22970D01*
X130054Y23341D01*
Y23378D01*
Y23415D01*
X130017Y23600D01*
X129906Y23860D01*
X129720Y24157D01*
X129646Y24231D01*
X129498Y24343D01*
X129238Y24454D01*
X128904Y24528D01*
D02*
G37*
%LPD*%
D10*
X10586Y172782D02*
G03*
X105752Y176089I46958J19641D01*
G01*
X105466Y215779D02*
G03*
X9863Y216290I-47895J-17230D01*
G01*
X27262Y239457D02*
G03*
X28762Y150416I-5874J-44632D01*
G01*
X26004Y239824D02*
G03*
X29747Y149959I-14124J-45599D01*
G01*
X87986Y151241D02*
G03*
X87544Y239487I8701J44168D01*
G01*
X88108Y151441D02*
G03*
X87369Y239909I17572J44384D01*
G01*
X81444Y196123D02*
G03*
X81475Y195091I-23944J-1223D01*
G01*
X22844Y195923D02*
G03*
X22875Y194891I-23100J-1198D01*
G01*
X142044Y196723D02*
G03*
X142075Y195691I-23100J-1198D01*
G01*
X103952Y213656D02*
G03*
X11630Y214685I-46808J-57533D01*
G01*
X13191Y175752D02*
G03*
X103159Y176561I44454J59371D01*
G01*
X44485Y54500D02*
G03*
X44485Y54500I-13892J0D01*
G01*
X94485D02*
G03*
X94485Y54500I-13892J0D01*
G01*
X56700Y4500D02*
Y14500D01*
X700D02*
X110700D01*
X700Y4500D02*
X110700D01*
Y104500D01*
X700Y4500D02*
Y104500D01*
X110700D01*
X-69260Y163590D02*
Y178825D01*
X-61642D01*
X-59103Y176286D01*
Y171208D01*
X-61642Y168668D01*
X-69260D01*
X-64182D02*
X-59103Y163590D01*
X-43868Y178825D02*
X-54025D01*
Y171208D01*
X-48947Y173747D01*
X-46407D01*
X-43868Y171208D01*
Y166129D01*
X-46407Y163590D01*
X-51486D01*
X-54025Y166129D01*
X-2540Y125035D02*
Y109800D01*
X5077D01*
X7617Y112339D01*
Y122496D01*
X5077Y125035D01*
X-2540D01*
X12695Y109800D02*
X17773D01*
X15234D01*
Y125035D01*
X12695Y122496D01*
X-96343Y182309D02*
Y192466D01*
X-98883Y195005D01*
X-103961D01*
X-106500Y192466D01*
Y182309D01*
X-103961Y179770D01*
X-98883D01*
X-101422Y184848D02*
X-96343Y179770D01*
X-98883D02*
X-96343Y182309D01*
X-91265Y179770D02*
X-86187D01*
X-88726D01*
Y195005D01*
X-91265Y192466D01*
X-133970Y233550D02*
Y248785D01*
X-126353D01*
X-123813Y246246D01*
Y241168D01*
X-126353Y238628D01*
X-133970D01*
X-128892D02*
X-123813Y233550D01*
X-118735Y248785D02*
Y233550D01*
X-111117D01*
X-108578Y236089D01*
Y246246D01*
X-111117Y248785D01*
X-118735D01*
X-103500D02*
Y246246D01*
X-98421Y241168D01*
X-93343Y246246D01*
Y248785D01*
X-98421Y241168D02*
Y233550D01*
X-139613Y223146D02*
X-142153Y225685D01*
X-147231D01*
X-149770Y223146D01*
Y212989D01*
X-147231Y210450D01*
X-142153D01*
X-139613Y212989D01*
X-134535Y225685D02*
Y210450D01*
Y218067D01*
X-124378D01*
Y225685D01*
Y210450D01*
X-119300D02*
Y225685D01*
X-111682D01*
X-109143Y223146D01*
Y218067D01*
X-111682Y215528D01*
X-119300D01*
X-114221D02*
X-109143Y210450D01*
X-93908Y223146D02*
X-96447Y225685D01*
X-101526D01*
X-104065Y223146D01*
Y212989D01*
X-101526Y210450D01*
X-96447D01*
X-93908Y212989D01*
Y218067D01*
X-98986D01*
X-267700Y24696D02*
Y12700D01*
Y18698D01*
X-265701Y20697D01*
X-261702D01*
X-259703Y18698D01*
Y12700D01*
X-247707Y24696D02*
Y12700D01*
X-253704D01*
X-255704Y14699D01*
Y18698D01*
X-253704Y20697D01*
X-247707D01*
X-237710Y12700D02*
Y24696D01*
X-243708Y18698D01*
X-235710D01*
X-231712Y22697D02*
X-229712Y24696D01*
X-225714D01*
X-223714Y22697D01*
Y14699D01*
X-225714Y12700D01*
X-229712D01*
X-231712Y14699D01*
Y22697D01*
X-166943Y184236D02*
X-169482Y186775D01*
X-174561D01*
X-177100Y184236D01*
Y174079D01*
X-174561Y171540D01*
X-169482D01*
X-166943Y174079D01*
X-161865Y171540D02*
X-156787D01*
X-159326D01*
Y186775D01*
X-161865Y184236D01*
X126797Y78995D02*
X121798D01*
X124298D01*
Y66499D01*
X121798Y64000D01*
X119299D01*
X116800Y66499D01*
X131795Y64000D02*
X136793D01*
X134294D01*
Y78995D01*
X131795Y76496D01*
X144291Y71498D02*
X154288D01*
X159286Y64000D02*
X164285D01*
X161785D01*
Y78995D01*
X159286Y76496D01*
X181779Y64000D02*
X171782D01*
X181779Y73997D01*
Y76496D01*
X179280Y78995D01*
X174281D01*
X171782Y76496D01*
X186777Y73997D02*
X191776Y64000D01*
X196774Y73997D01*
X-238800Y50135D02*
Y37439D01*
X-236261Y34900D01*
X-231182D01*
X-228643Y37439D01*
Y50135D01*
X-223565Y34900D02*
X-218487D01*
X-221026D01*
Y50135D01*
X-223565Y47596D01*
D16*
X-141900Y139700D02*
G03*
X-141900Y139700I-27000J0D01*
G01*
X-100290Y135520D02*
Y155840D01*
X-39330D01*
Y135520D02*
Y155840D01*
X-100290Y135520D02*
X-39330D01*
X-110450Y145680D02*
X-100290D01*
X-39330D02*
X-29170D01*
X-45830Y102540D02*
Y130540D01*
X-98830Y102540D02*
X-45830D01*
X-98830Y130540D02*
X-45830D01*
X-146790Y182360D02*
X-115790D01*
X-146790Y189360D02*
X-115790D01*
X-146790Y182360D02*
Y189360D01*
X-115790Y182360D02*
Y189360D01*
X-49300Y104800D02*
X-2300D01*
X-49300Y-2200D02*
X-2300D01*
Y104800D01*
X-49300Y-2200D02*
Y104800D01*
X-44300Y-2200D02*
Y104800D01*
X299465Y38136D02*
X324016Y52311D01*
X193117Y279037D02*
X324016Y52311D01*
X168565Y264862D02*
X193117Y279037D01*
X168565Y264862D02*
X299465Y38136D01*
X142331Y249600D02*
X166883Y263775D01*
X142331Y249600D02*
X273231Y22875D01*
X297783Y37050D01*
X166883Y263775D02*
X297783Y37050D01*
X-300721D02*
X-276169Y22875D01*
X-145269Y249600D01*
X-169821Y263775D02*
X-145269Y249600D01*
X-300721Y37050D02*
X-169821Y263775D01*
X-196105Y278950D02*
X-171553Y264775D01*
X-327005Y52225D02*
X-196105Y278950D01*
X-327005Y52225D02*
X-302453Y38050D01*
X-171553Y264775D01*
X23100Y9897D02*
X36429D01*
X78000Y9498D02*
X87997D01*
X82998Y14496D02*
Y4499D01*
D30*
X-111790Y197860D02*
G03*
X-111790Y197860I-1250J0D01*
G01*
X-7550Y4300D02*
G03*
X-7550Y4300I-1250J0D01*
G01*
X-117704Y278096D02*
X-126701D01*
X-129700Y275097D01*
Y269099D01*
X-126701Y266100D01*
X-117704D01*
X-111706Y284094D02*
Y266100D01*
Y275097D01*
X-108707Y278096D01*
X-102709D01*
X-99710Y275097D01*
Y266100D01*
X-90713Y278096D02*
X-84715D01*
X-81715Y275097D01*
Y266100D01*
X-90713D01*
X-93712Y269099D01*
X-90713Y272098D01*
X-81715D01*
X-75718Y278096D02*
Y266100D01*
Y272098D01*
X-72718Y275097D01*
X-69719Y278096D01*
X-66720D01*
X-51725Y260102D02*
X-48726D01*
X-45727Y263101D01*
Y278096D01*
X-54724D01*
X-57723Y275097D01*
Y269099D01*
X-54724Y266100D01*
X-45727D01*
X-30732D02*
X-36730D01*
X-39729Y269099D01*
Y275097D01*
X-36730Y278096D01*
X-30732D01*
X-27733Y275097D01*
Y272098D01*
X-39729D01*
X-21735Y278096D02*
Y266100D01*
Y272098D01*
X-18736Y275097D01*
X-15737Y278096D01*
X-12738D01*
X-100373Y309496D02*
X-109370D01*
X-112369Y306497D01*
Y300499D01*
X-109370Y297500D01*
X-100373D01*
X-91376D02*
X-85378D01*
X-82379Y300499D01*
Y306497D01*
X-85378Y309496D01*
X-91376D01*
X-94375Y306497D01*
Y300499D01*
X-91376Y297500D01*
X-70383Y291502D02*
X-67384D01*
X-64385Y294501D01*
Y309496D01*
X-73382D01*
X-76381Y306497D01*
Y300499D01*
X-73382Y297500D01*
X-64385D01*
X-58387D02*
Y309496D01*
X-49390D01*
X-46391Y306497D01*
Y297500D01*
X-40392D02*
X-34394D01*
X-37393D01*
Y309496D01*
X-40392D01*
X-22398Y312495D02*
Y309496D01*
X-25397D01*
X-19399D01*
X-22398D01*
Y300499D01*
X-19399Y297500D01*
X-10402D02*
X-4404D01*
X-7403D01*
Y309496D01*
X-10402D01*
X4593D02*
X10591Y297500D01*
X16589Y309496D01*
X31584Y297500D02*
X25586D01*
X22587Y300499D01*
Y306497D01*
X25586Y309496D01*
X31584D01*
X34583Y306497D01*
Y303498D01*
X22587D01*
D31*
X-52300Y189400D02*
X-52100Y189200D01*
Y189260D01*
D32*
X190700Y54294D02*
Y36300D01*
X199697D01*
X202696Y39299D01*
Y51295D01*
X199697Y54294D01*
X190700D01*
X208694D02*
X214692D01*
X211693D01*
Y36300D01*
X208694D01*
X214692D01*
X235685Y54294D02*
X223689D01*
Y36300D01*
X235685D01*
X223689Y45297D02*
X229687D01*
X118000Y55594D02*
Y37600D01*
X129996D01*
X147990Y52595D02*
X144991Y55594D01*
X138993D01*
X135994Y52595D01*
Y49596D01*
X138993Y46597D01*
X144991D01*
X147990Y43598D01*
Y40599D01*
X144991Y37600D01*
X138993D01*
X135994Y40599D01*
X153988Y55594D02*
X159986D01*
X156987D01*
Y37600D01*
X153988D01*
X159986D01*
X168983Y46597D02*
X180980D01*
D33*
X-182898Y146700D02*
Y156697D01*
X-187896Y151698D02*
X-177899D01*
D34*
X-95829Y116540D02*
D03*
M02*
