%FSLAX44Y44*%
%MOMM*%
G71*
G01*
G75*
%ADD10C,0.2540*%
%ADD11R,0.6500X0.9000*%
%ADD12R,0.8000X0.9000*%
%ADD13C,1.2000*%
%ADD14C,0.8000*%
%ADD15C,0.7000*%
%ADD16C,0.2000*%
%ADD17C,1.4000*%
%ADD18C,2.0000*%
%ADD19R,2.0000X2.0000*%
%ADD20C,1.5240*%
%ADD21R,1.0000X1.0000*%
%ADD22C,1.0000*%
%ADD23C,1.6000*%
%ADD24R,1.6000X1.6000*%
%ADD25C,1.2000*%
%ADD26C,0.8000*%
%ADD27O,0.6000X2.2000*%
%ADD28R,0.9000X0.8000*%
%ADD29C,0.5000*%
D11*
X-121790Y173860D02*
D03*
X-131290D02*
D03*
X-140790D02*
D03*
Y197860D02*
D03*
X-131290D02*
D03*
X-121790D02*
D03*
D12*
X-51470Y238950D02*
D03*
X-65470D02*
D03*
Y215450D02*
D03*
X-51470D02*
D03*
D17*
X-120610Y145680D02*
D03*
X-19010D02*
D03*
D18*
X-20030Y116540D02*
D03*
D19*
X-124630D02*
D03*
D20*
X80700Y54500D02*
D03*
X30700D02*
D03*
D21*
X-168900Y151700D02*
D03*
D22*
Y127700D02*
D03*
D23*
X-20800Y76700D02*
D03*
Y51300D02*
D03*
D24*
Y25900D02*
D03*
D25*
X303242Y60293D02*
D03*
X290542Y82290D02*
D03*
X277842Y104288D02*
D03*
X265142Y126285D02*
D03*
X252442Y148282D02*
D03*
X239742Y170279D02*
D03*
X227042Y192276D02*
D03*
X214342Y214273D02*
D03*
X201642Y236270D02*
D03*
X188942Y258267D02*
D03*
X163105Y241618D02*
D03*
X175805Y219621D02*
D03*
X188505Y197624D02*
D03*
X201205Y175627D02*
D03*
X213905Y153630D02*
D03*
X226605Y131632D02*
D03*
X239305Y109635D02*
D03*
X252005Y87638D02*
D03*
X264705Y65641D02*
D03*
X277405Y43644D02*
D03*
X-279643Y44857D02*
D03*
X-266943Y66854D02*
D03*
X-254244Y88851D02*
D03*
X-241544Y110848D02*
D03*
X-228843Y132845D02*
D03*
X-216143Y154842D02*
D03*
X-203444Y176839D02*
D03*
X-190744Y198836D02*
D03*
X-178043Y220833D02*
D03*
X-165343Y242830D02*
D03*
X-192631Y256968D02*
D03*
X-205331Y234971D02*
D03*
X-218030Y212974D02*
D03*
X-230730Y190977D02*
D03*
X-243431Y168980D02*
D03*
X-256131Y146982D02*
D03*
X-268831Y124986D02*
D03*
X-281530Y102988D02*
D03*
X-294230Y80991D02*
D03*
X-306931Y58994D02*
D03*
M02*
