%FSLAX44Y44*%
%MOMM*%
G71*
G01*
G75*
G04 Layer_Color=16711935*
%ADD10C,0.2540*%
%ADD11R,0.6500X0.9000*%
%ADD12R,0.8000X0.9000*%
%ADD13C,1.2000*%
%ADD14C,0.8000*%
%ADD15C,0.7000*%
%ADD16C,0.2000*%
%ADD17C,1.4000*%
%ADD18C,2.0000*%
%ADD19R,2.0000X2.0000*%
%ADD20C,1.5240*%
%ADD21R,1.0000X1.0000*%
%ADD22C,1.0000*%
%ADD23C,1.6000*%
%ADD24R,1.6000X1.6000*%
%ADD25C,1.2000*%
%ADD26C,0.8000*%
%ADD27O,0.6000X2.2000*%
%ADD28R,0.9000X0.8000*%
%ADD29C,0.5000*%
%ADD30C,0.2500*%
%ADD31C,0.0250*%
%ADD32C,0.4000*%
%ADD33C,0.1500*%
%ADD34R,0.8000X2.8000*%
%ADD35R,0.8532X1.1032*%
%ADD36R,1.0032X1.1032*%
%ADD37C,1.6032*%
%ADD38C,2.2032*%
%ADD39R,2.2032X2.2032*%
%ADD40C,1.7272*%
%ADD41R,1.2032X1.2032*%
%ADD42C,1.2032*%
%ADD43C,1.8032*%
%ADD44R,1.8032X1.8032*%
%ADD45C,1.4032*%
%ADD46C,1.0032*%
%ADD47O,0.8032X2.4032*%
%ADD48R,1.1032X1.0032*%
D29*
X89270Y94360D02*
X136670D01*
X92370Y85357D02*
X127670Y85360D01*
Y45430D02*
Y85360D01*
X163670Y112360D02*
X219570D01*
X163670D02*
Y144330D01*
X95769Y76365D02*
X118670D01*
X136670Y35330D02*
Y94365D01*
X85770Y103330D02*
X136670D01*
Y103325D02*
Y173830D01*
X83170Y112355D02*
X127670D01*
Y183230D01*
X118670Y55030D02*
Y76365D01*
X154670Y103360D02*
X204970D01*
X154670D02*
Y154030D01*
X145670Y94360D02*
X219570D01*
X145670D02*
Y163930D01*
X154670Y76360D02*
X219570D01*
X154670Y14730D02*
Y76360D01*
X145670Y85355D02*
X204970D01*
X145670Y25430D02*
Y85355D01*
D36*
X-51470Y239050D02*
D03*
X-65470D02*
D03*
Y215550D02*
D03*
X-51470D02*
D03*
D37*
X-120610Y145680D02*
D03*
X-19010D02*
D03*
D38*
X-20030Y116540D02*
D03*
D39*
X-124630D02*
D03*
D40*
X80700Y54500D02*
D03*
X30700D02*
D03*
D41*
X-168900Y151700D02*
D03*
D42*
Y127700D02*
D03*
X219570Y112360D02*
D03*
X204970Y103360D02*
D03*
X219570Y94360D02*
D03*
X204970Y85355D02*
D03*
X219570Y76830D02*
D03*
D43*
X-20800Y76700D02*
D03*
Y51300D02*
D03*
D44*
Y25900D02*
D03*
D45*
X303242Y60293D02*
D03*
X290542Y82290D02*
D03*
X277842Y104288D02*
D03*
X265142Y126285D02*
D03*
X252442Y148282D02*
D03*
X239742Y170279D02*
D03*
X227042Y192276D02*
D03*
X214342Y214273D02*
D03*
X201642Y236270D02*
D03*
X188942Y258267D02*
D03*
X163105Y241618D02*
D03*
X175805Y219621D02*
D03*
X188505Y197624D02*
D03*
X201205Y175627D02*
D03*
X213905Y153630D02*
D03*
X226605Y131632D02*
D03*
X239305Y109635D02*
D03*
X252005Y87638D02*
D03*
X264705Y65641D02*
D03*
X277405Y43644D02*
D03*
X-279643Y44857D02*
D03*
X-266943Y66854D02*
D03*
X-254244Y88851D02*
D03*
X-241544Y110848D02*
D03*
X-228843Y132845D02*
D03*
X-216143Y154842D02*
D03*
X-203444Y176839D02*
D03*
X-190744Y198836D02*
D03*
X-178043Y220833D02*
D03*
X-165343Y242830D02*
D03*
X-192631Y256968D02*
D03*
X-205331Y234971D02*
D03*
X-218030Y212974D02*
D03*
X-230730Y190977D02*
D03*
X-243431Y168980D02*
D03*
X-256131Y146982D02*
D03*
X-268831Y124986D02*
D03*
X-281530Y102988D02*
D03*
X-294230Y80991D02*
D03*
X-306931Y58994D02*
D03*
D46*
X28580Y91770D02*
D03*
X-52000Y192600D02*
D03*
X-78270Y238950D02*
D03*
Y215450D02*
D03*
X-176500Y46400D02*
D03*
D47*
X-163550Y28200D02*
D03*
X-176250D02*
D03*
X-188950D02*
D03*
X-201650D02*
D03*
X-163550Y76200D02*
D03*
X-176250D02*
D03*
X-188950D02*
D03*
X-201650D02*
D03*
D48*
X-117100Y83200D02*
D03*
Y69200D02*
D03*
Y44300D02*
D03*
Y30300D02*
D03*
M02*
