%FSLAX44Y44*%
%MOMM*%
G71*
G01*
G75*
G04 Layer_Color=32896*
%ADD10C,0.2540*%
%ADD11R,0.6500X0.9000*%
%ADD12R,0.8000X0.9000*%
%ADD13C,1.2000*%
%ADD14C,0.8000*%
%ADD15C,0.7000*%
%ADD16C,0.2000*%
%ADD17C,1.4000*%
%ADD18C,2.0000*%
%ADD19R,2.0000X2.0000*%
%ADD20C,1.5240*%
%ADD21R,1.0000X1.0000*%
%ADD22C,1.0000*%
%ADD23C,1.6000*%
%ADD24R,1.6000X1.6000*%
%ADD25C,1.2000*%
%ADD26C,0.8000*%
%ADD27O,0.6000X2.2000*%
%ADD28R,0.9000X0.8000*%
%ADD29C,0.5000*%
%ADD30C,0.2500*%
%ADD31C,0.0250*%
%ADD32C,0.4000*%
%ADD33C,0.1500*%
%ADD34R,0.8000X2.8000*%
%ADD35R,0.8532X1.1032*%
%ADD36R,1.0032X1.1032*%
%ADD37C,1.6032*%
%ADD38C,2.2032*%
%ADD39R,2.2032X2.2032*%
%ADD40C,1.7272*%
%ADD41R,1.2032X1.2032*%
%ADD42C,1.2032*%
%ADD43C,1.8032*%
%ADD44R,1.8032X1.8032*%
%ADD45C,1.4032*%
%ADD46C,1.0032*%
%ADD47O,0.8032X2.4032*%
%ADD48R,1.1032X1.0032*%
G36*
X1178Y229370D02*
X-854D01*
Y233434D01*
X1178D01*
Y229370D01*
D02*
G37*
G36*
X92618Y217178D02*
X88554D01*
Y219210D01*
X90586D01*
Y221242D01*
X92618D01*
Y217178D01*
D02*
G37*
G36*
X72298D02*
X74330D01*
Y215146D01*
X76362D01*
Y211082D01*
X78394D01*
X78394Y204986D01*
X76362Y204986D01*
Y207018D01*
X74330D01*
Y204986D01*
X72298Y204986D01*
Y200922D01*
X70266D01*
Y196858D01*
X68234D01*
X68234Y194826D01*
X66202D01*
Y190762D01*
X64170D01*
Y188730D01*
X58074D01*
Y186698D01*
X56042D01*
X56042Y188730D01*
X41818D01*
Y190762D01*
X39786D01*
Y192794D01*
X37754D01*
X37754Y196858D01*
X35722Y196858D01*
Y202954D01*
X33690Y202954D01*
Y204986D01*
X35722Y204986D01*
Y213114D01*
X37754D01*
Y215146D01*
X41818D01*
X41818Y217178D01*
X49946D01*
Y219210D01*
X58074D01*
X58074Y217178D01*
X68234D01*
X68234Y215146D01*
X70266D01*
Y219210D01*
X72298D01*
Y217178D01*
D02*
G37*
G36*
X49946Y241562D02*
X56042D01*
Y243594D01*
X64170D01*
Y239530D01*
X66202D01*
Y237498D01*
X64170D01*
Y235466D01*
X60106D01*
Y233434D01*
X56042D01*
Y231402D01*
X54010D01*
Y235466D01*
X45882D01*
Y241562D01*
X47914D01*
Y243594D01*
X49946D01*
Y241562D01*
D02*
G37*
G36*
X39786Y267978D02*
X41818D01*
Y263914D01*
X31658D01*
Y265946D01*
X29626D01*
Y267978D01*
X25562D01*
Y270010D01*
X39786D01*
Y267978D01*
D02*
G37*
G36*
X23530Y263914D02*
X25562D01*
Y261882D01*
X23530D01*
Y259850D01*
X21498D01*
Y261882D01*
X23530D01*
Y263914D01*
X21498D01*
Y265946D01*
X23530D01*
Y263914D01*
D02*
G37*
G36*
X-4918Y237498D02*
X-6950D01*
Y239530D01*
X-8982D01*
Y241562D01*
X-4918D01*
Y237498D01*
D02*
G37*
G36*
X-137603Y287440D02*
X-137969Y287416D01*
X-138287Y287391D01*
X-138580Y287342D01*
X-138824Y287269D01*
X-139019Y287196D01*
X-139165Y287147D01*
X-139263Y287123D01*
X-139287Y287098D01*
X-139507Y286952D01*
X-139678Y286805D01*
X-139800Y286635D01*
X-139898Y286464D01*
X-139946Y286317D01*
X-139971Y286195D01*
Y286098D01*
Y286073D01*
Y276700D01*
X-143706D01*
Y286049D01*
X-143681Y286513D01*
X-143632Y286928D01*
X-143535Y287318D01*
X-143437Y287635D01*
X-143339Y287904D01*
X-143242Y288099D01*
X-143193Y288221D01*
X-143168Y288270D01*
X-142949Y288612D01*
X-142729Y288929D01*
X-142485Y289198D01*
X-142265Y289417D01*
X-142070Y289613D01*
X-141924Y289735D01*
X-141826Y289832D01*
X-141777Y289857D01*
X-141460Y290101D01*
X-141118Y290296D01*
X-140776Y290467D01*
X-140483Y290589D01*
X-140215Y290687D01*
X-140020Y290784D01*
X-139873Y290809D01*
X-139849Y290833D01*
X-139824D01*
X-139409Y290955D01*
X-139019Y291028D01*
X-138628Y291102D01*
X-138311Y291126D01*
X-138018Y291150D01*
X-137798Y291175D01*
X-137603D01*
Y287440D01*
D02*
G37*
G36*
X-151443Y291150D02*
X-150906Y291102D01*
X-150394Y291004D01*
X-149906Y290882D01*
X-149466Y290760D01*
X-149075Y290589D01*
X-148709Y290443D01*
X-148368Y290272D01*
X-148075Y290101D01*
X-147831Y289930D01*
X-147611Y289759D01*
X-147440Y289637D01*
X-147294Y289515D01*
X-147196Y289417D01*
X-147147Y289368D01*
X-147123Y289344D01*
X-146830Y288978D01*
X-146561Y288587D01*
X-146317Y288172D01*
X-146122Y287733D01*
X-145951Y287294D01*
X-145805Y286854D01*
X-145707Y286415D01*
X-145609Y285976D01*
X-145536Y285585D01*
X-145463Y285194D01*
X-145438Y284853D01*
X-145390Y284560D01*
Y284316D01*
X-145365Y284121D01*
Y284023D01*
Y283974D01*
Y283901D01*
X-145390Y283242D01*
X-145438Y282631D01*
X-145536Y282070D01*
X-145658Y281533D01*
X-145805Y281021D01*
X-145976Y280557D01*
X-146171Y280142D01*
X-146415Y279727D01*
X-146635Y279385D01*
X-146903Y279043D01*
X-147172Y278726D01*
X-147465Y278458D01*
X-147757Y278213D01*
X-148075Y277994D01*
X-148685Y277603D01*
X-149295Y277310D01*
X-149906Y277091D01*
X-150467Y276920D01*
X-150979Y276822D01*
X-151394Y276749D01*
X-151565Y276724D01*
X-151712D01*
X-151834Y276700D01*
X-152151D01*
X-152761Y276724D01*
X-153323Y276773D01*
X-153860Y276871D01*
X-154348Y277017D01*
X-154812Y277164D01*
X-155227Y277359D01*
X-155617Y277579D01*
X-155983Y277823D01*
X-156325Y278091D01*
X-156643Y278360D01*
X-156911Y278677D01*
X-157179Y278970D01*
X-157619Y279629D01*
X-157961Y280313D01*
X-158229Y280972D01*
X-158449Y281631D01*
X-158595Y282241D01*
X-158693Y282778D01*
X-158717Y283022D01*
X-158742Y283242D01*
X-158766Y283437D01*
X-158791Y283584D01*
Y283730D01*
Y283828D01*
Y283876D01*
Y283901D01*
Y283974D01*
X-158766Y284633D01*
X-158717Y285243D01*
X-158620Y285805D01*
X-158498Y286342D01*
X-158327Y286854D01*
X-158156Y287318D01*
X-157961Y287733D01*
X-157741Y288148D01*
X-157497Y288490D01*
X-157228Y288832D01*
X-156960Y289149D01*
X-156667Y289417D01*
X-156374Y289661D01*
X-156057Y289905D01*
X-155446Y290272D01*
X-154812Y290564D01*
X-154226Y290784D01*
X-153665Y290955D01*
X-153152Y291053D01*
X-152737Y291126D01*
X-152566Y291150D01*
X-152420D01*
X-152298Y291175D01*
X-152029D01*
X-151443Y291150D01*
D02*
G37*
G36*
X-160475Y282094D02*
X-168115D01*
X-168335Y282046D01*
X-168481Y281972D01*
X-168603Y281899D01*
X-168627Y281850D01*
X-168750Y281655D01*
X-168798Y281460D01*
X-168823Y281313D01*
Y281289D01*
Y281265D01*
X-168798Y281045D01*
X-168725Y280874D01*
X-168652Y280752D01*
X-168627Y280728D01*
Y280703D01*
X-168554Y280606D01*
X-168457Y280557D01*
X-168310Y280459D01*
X-168164Y280435D01*
X-160475D01*
Y276700D01*
X-168115D01*
X-168481Y276724D01*
X-168798Y276749D01*
X-169116Y276798D01*
X-169384Y276871D01*
X-169604Y276944D01*
X-169775Y276993D01*
X-169872Y277017D01*
X-169921Y277042D01*
X-170214Y277188D01*
X-170483Y277335D01*
X-170727Y277505D01*
X-170946Y277652D01*
X-171117Y277774D01*
X-171239Y277896D01*
X-171313Y277969D01*
X-171337Y277994D01*
X-171557Y278238D01*
X-171728Y278482D01*
X-171874Y278726D01*
X-172020Y278970D01*
X-172118Y279165D01*
X-172191Y279312D01*
X-172216Y279434D01*
X-172240Y279458D01*
X-172338Y279776D01*
X-172435Y280093D01*
X-172484Y280386D01*
X-172509Y280679D01*
X-172533Y280923D01*
X-172557Y281094D01*
Y281216D01*
Y281265D01*
Y281655D01*
X-172509Y281997D01*
X-172386Y282656D01*
X-172191Y283217D01*
X-171996Y283706D01*
X-171898Y283901D01*
X-171801Y284072D01*
X-171703Y284242D01*
X-171605Y284365D01*
X-171532Y284462D01*
X-171483Y284535D01*
X-171459Y284560D01*
X-171435Y284584D01*
X-171215Y284804D01*
X-170971Y284999D01*
X-170702Y285170D01*
X-170434Y285317D01*
X-169897Y285536D01*
X-169360Y285683D01*
X-168872Y285756D01*
X-168652Y285780D01*
X-168481Y285805D01*
X-168335Y285829D01*
X-164234D01*
Y287440D01*
X-172069D01*
Y291175D01*
X-160475D01*
Y282094D01*
D02*
G37*
G36*
X-124300Y276700D02*
X-131525D01*
X-131989Y276724D01*
X-132428Y276749D01*
X-132819Y276822D01*
X-133136Y276895D01*
X-133405Y276944D01*
X-133600Y277017D01*
X-133722Y277042D01*
X-133771Y277066D01*
X-134113Y277213D01*
X-134405Y277359D01*
X-134650Y277530D01*
X-134869Y277676D01*
X-135040Y277823D01*
X-135162Y277920D01*
X-135235Y277994D01*
X-135260Y278018D01*
X-135455Y278262D01*
X-135626Y278482D01*
X-135772Y278702D01*
X-135894Y278921D01*
X-135968Y279092D01*
X-136041Y279239D01*
X-136090Y279336D01*
Y279361D01*
X-136187Y279653D01*
X-136236Y279922D01*
X-136285Y280166D01*
X-136334Y280386D01*
Y280581D01*
X-136358Y280728D01*
Y280825D01*
Y280850D01*
X-136334Y281118D01*
X-136309Y281387D01*
X-136285Y281484D01*
Y281558D01*
X-136261Y281606D01*
Y281631D01*
X-136163Y281948D01*
X-136065Y282216D01*
X-136017Y282339D01*
X-135992Y282412D01*
X-135943Y282461D01*
Y282485D01*
X-135772Y282802D01*
X-135626Y283071D01*
X-135553Y283169D01*
X-135479Y283242D01*
X-135455Y283291D01*
X-135431Y283315D01*
X-135187Y283584D01*
X-134943Y283803D01*
X-134820Y283876D01*
X-134747Y283950D01*
X-134698Y283974D01*
X-134674Y283998D01*
X-134967Y284218D01*
X-135211Y284438D01*
X-135309Y284535D01*
X-135382Y284609D01*
X-135406Y284633D01*
X-135431Y284657D01*
X-135650Y284950D01*
X-135797Y285219D01*
X-135846Y285317D01*
X-135894Y285390D01*
X-135919Y285439D01*
Y285463D01*
X-136041Y285756D01*
X-136114Y286024D01*
X-136139Y286122D01*
Y286195D01*
X-136163Y286244D01*
Y286269D01*
X-136212Y286561D01*
X-136236Y286805D01*
Y286903D01*
Y286976D01*
Y287001D01*
Y287025D01*
X-136212Y287367D01*
X-136187Y287709D01*
X-136114Y288002D01*
X-136065Y288246D01*
X-135992Y288465D01*
X-135919Y288612D01*
X-135894Y288734D01*
X-135870Y288758D01*
X-135724Y289027D01*
X-135577Y289295D01*
X-135431Y289515D01*
X-135260Y289710D01*
X-135138Y289857D01*
X-135016Y289954D01*
X-134943Y290028D01*
X-134918Y290052D01*
X-134674Y290247D01*
X-134430Y290418D01*
X-134186Y290540D01*
X-133942Y290662D01*
X-133746Y290760D01*
X-133576Y290833D01*
X-133478Y290858D01*
X-133429Y290882D01*
X-133112Y290979D01*
X-132770Y291053D01*
X-132453Y291102D01*
X-132160Y291150D01*
X-131891D01*
X-131696Y291175D01*
X-124300D01*
Y276700D01*
D02*
G37*
G36*
X37754Y215146D02*
X35722D01*
Y213114D01*
X33690D01*
Y217178D01*
X37754D01*
Y215146D01*
D02*
G37*
G36*
X23530Y198890D02*
X21498D01*
Y204986D01*
X23530D01*
Y198890D01*
D02*
G37*
G36*
X52070Y114955D02*
X53662Y113693D01*
X55338Y112017D01*
X57432Y106152D01*
X57470Y102355D01*
X56385Y99031D01*
X49892Y93166D01*
X46121Y91490D01*
X44446Y89605D01*
Y89396D01*
X44391D01*
X43398Y85625D01*
X44446Y81227D01*
X46121Y76409D01*
X49892Y74733D01*
X81928D01*
X75570Y94155D01*
X69403Y113109D01*
X71497Y114785D01*
X79038D01*
X82808Y101798D01*
X83970Y97755D01*
X84670Y95755D01*
X85270Y93855D01*
X89130Y82274D01*
X89270D01*
Y81855D01*
X92024Y74988D01*
X93040Y72639D01*
X93970Y71055D01*
X93040Y71122D01*
Y70963D01*
X46121D01*
X42351Y72639D01*
X39270Y75455D01*
X36970Y80055D01*
X36470Y82355D01*
X36170Y85155D01*
X36270Y88155D01*
X36970Y89755D01*
X37770Y91855D01*
X40676Y95260D01*
X44446Y97983D01*
X51567Y104477D01*
X50170Y108355D01*
X45641Y112017D01*
X20635D01*
X23919Y100706D01*
X25081Y96663D01*
X25781Y94663D01*
X26381Y92763D01*
X29319Y83950D01*
X29365D01*
Y83811D01*
X30381Y80763D01*
X33135Y73896D01*
X34881Y70863D01*
X23881D01*
X16681Y93063D01*
X10513Y112017D01*
Y112436D01*
Y112855D01*
Y113274D01*
Y113693D01*
Y114112D01*
Y114531D01*
Y114950D01*
Y115368D01*
Y115787D01*
X49892D01*
X52070Y114955D01*
D02*
G37*
G36*
X21230Y281206D02*
X19198D01*
Y277142D01*
X17166D01*
Y281206D01*
X19198D01*
Y283238D01*
X21230D01*
Y281206D01*
D02*
G37*
G36*
X29358Y283238D02*
X33422D01*
Y281206D01*
X27326D01*
Y283238D01*
X23262D01*
Y285270D01*
X29358D01*
Y283238D01*
D02*
G37*
G36*
X58074Y318778D02*
X60106D01*
Y316746D01*
X70266D01*
Y314714D01*
X76362D01*
Y312682D01*
X78394D01*
Y310650D01*
X82458D01*
Y308618D01*
X84490D01*
Y304554D01*
X86522D01*
Y300490D01*
X88554D01*
Y294394D01*
X90586D01*
Y290330D01*
X92618D01*
Y286266D01*
X94650D01*
Y282202D01*
X96682D01*
Y276106D01*
X98714D01*
Y263914D01*
X100746D01*
Y237498D01*
X102778D01*
Y239530D01*
X104810D01*
Y237498D01*
X106842D01*
Y235466D01*
X104810D01*
Y233434D01*
X100746D01*
Y235466D01*
X98714D01*
Y243594D01*
X96682D01*
Y255786D01*
X94650D01*
Y261882D01*
X92618D01*
Y259850D01*
X90586D01*
Y265946D01*
X88554D01*
Y270010D01*
X86522D01*
Y272042D01*
X82458D01*
Y274074D01*
X78394D01*
Y272042D01*
X76362D01*
Y270010D01*
X82458D01*
Y267978D01*
X84490D01*
Y263914D01*
X86522D01*
Y261882D01*
X88554D01*
Y257818D01*
X84490D01*
Y259850D01*
X82458D01*
Y261882D01*
X78394D01*
Y263914D01*
X74330D01*
Y261882D01*
X70266D01*
Y259850D01*
X68234D01*
Y263914D01*
X62138D01*
Y267978D01*
X64170D01*
Y270010D01*
X66202D01*
Y272042D01*
X68234D01*
Y276106D01*
X72298D01*
Y278138D01*
X76362D01*
Y280170D01*
X78394D01*
Y278138D01*
X84490D01*
Y276106D01*
X86522D01*
Y274074D01*
X90586D01*
Y272042D01*
X92618D01*
Y270010D01*
X94650D01*
Y278138D01*
X92618D01*
Y286266D01*
X90586D01*
Y290330D01*
X88554D01*
Y292362D01*
X86522D01*
Y294394D01*
X84490D01*
Y296426D01*
X82458D01*
Y298458D01*
X80426D01*
Y300490D01*
X78394D01*
Y302522D01*
X74330D01*
Y304554D01*
X72298D01*
Y306586D01*
X66202D01*
Y308618D01*
X64170D01*
Y304554D01*
X62138D01*
Y306586D01*
X51978D01*
Y308618D01*
X43850D01*
Y306586D01*
X41818D01*
Y304554D01*
X39786D01*
Y302522D01*
X35722D01*
Y304554D01*
X37754D01*
Y306586D01*
X31658D01*
Y304554D01*
X27594D01*
Y306586D01*
X23530D01*
Y304554D01*
X27594D01*
Y302522D01*
X25562D01*
Y300490D01*
X21498D01*
Y296426D01*
X19466D01*
Y294394D01*
X17434D01*
Y292362D01*
X15402D01*
Y290330D01*
X13370D01*
Y286266D01*
X11338D01*
Y284234D01*
X9306D01*
Y272042D01*
X11338D01*
Y261882D01*
X9306D01*
Y257818D01*
X7274D01*
Y259850D01*
Y261882D01*
X5242D01*
Y259850D01*
Y257818D01*
X7274D01*
Y247658D01*
X5242D01*
Y227338D01*
X7274D01*
Y221242D01*
X5242D01*
Y217178D01*
X7274D01*
Y209050D01*
X9306D01*
Y207018D01*
X11338D01*
Y200922D01*
X13370D01*
Y198890D01*
X19466D01*
Y194826D01*
X21498D01*
Y196858D01*
X23530D01*
Y178570D01*
X25562D01*
Y174506D01*
X27594D01*
Y168410D01*
X29626D01*
Y166378D01*
X31658D01*
Y162314D01*
X33690D01*
Y160282D01*
X35722D01*
Y158250D01*
X43850D01*
Y156218D01*
X49946D01*
Y158250D01*
X51978D01*
Y156218D01*
X54010D01*
Y158250D01*
X56042D01*
Y156218D01*
X58074D01*
Y158250D01*
X64170D01*
Y160282D01*
X68234D01*
Y162314D01*
X70266D01*
Y168410D01*
X72298D01*
Y172474D01*
X74330D01*
Y178570D01*
X76362D01*
Y186698D01*
X78394D01*
Y196858D01*
X80426D01*
Y204986D01*
X82458D01*
Y209050D01*
X84490D01*
Y213114D01*
X86522D01*
Y217178D01*
X88554D01*
Y215146D01*
X92618D01*
Y213114D01*
X96682D01*
Y215146D01*
X92618D01*
Y217178D01*
X94650D01*
Y219210D01*
X96682D01*
Y229370D01*
X98714D01*
Y233434D01*
X100746D01*
Y225306D01*
X98714D01*
Y209050D01*
X96682D01*
Y202954D01*
X94650D01*
Y196858D01*
X92618D01*
Y190762D01*
X90586D01*
Y186698D01*
X88554D01*
Y178570D01*
X86522D01*
Y176538D01*
X84490D01*
Y172474D01*
X82458D01*
Y168410D01*
X80426D01*
Y166378D01*
X78394D01*
Y162314D01*
X76362D01*
Y160282D01*
X74330D01*
Y158250D01*
X72298D01*
Y156218D01*
X70266D01*
Y154186D01*
X68234D01*
Y152154D01*
X66202D01*
Y150122D01*
X60106D01*
Y148090D01*
X51978D01*
Y150122D01*
X43850D01*
Y152154D01*
X37754D01*
Y154186D01*
X33690D01*
Y156218D01*
X29626D01*
Y158250D01*
X27594D01*
Y160282D01*
X25562D01*
Y164346D01*
X21498D01*
Y168410D01*
X19466D01*
Y170442D01*
X17434D01*
Y174506D01*
X15402D01*
Y178570D01*
X13370D01*
Y182634D01*
X11338D01*
Y188730D01*
X9306D01*
Y196858D01*
X7274D01*
Y202954D01*
X5242D01*
Y209050D01*
X1178D01*
Y211082D01*
X3210D01*
Y213114D01*
X1178D01*
Y215146D01*
X3210D01*
Y219210D01*
X1178D01*
Y221242D01*
X3210D01*
Y223274D01*
X5242D01*
Y227338D01*
X3210D01*
Y225306D01*
X1178D01*
Y227338D01*
X3210D01*
Y237498D01*
X1178D01*
Y241562D01*
X-854D01*
Y245626D01*
X-2886D01*
Y263914D01*
X-854D01*
Y270010D01*
X1178D01*
Y272042D01*
X-854D01*
Y278138D01*
X3210D01*
Y282202D01*
X1178D01*
Y286266D01*
X3210D01*
Y294394D01*
X7274D01*
Y298458D01*
X9306D01*
Y300490D01*
X11338D01*
Y302522D01*
X13370D01*
Y304554D01*
X15402D01*
Y302522D01*
X17434D01*
Y304554D01*
X15402D01*
Y306586D01*
X19466D01*
Y308618D01*
X21498D01*
Y310650D01*
X25562D01*
Y312682D01*
X29626D01*
Y314714D01*
X31658D01*
Y316746D01*
X35722D01*
Y318778D01*
X43850D01*
Y320810D01*
X58074D01*
Y318778D01*
D02*
G37*
G36*
X25562Y265946D02*
X27594D01*
Y263914D01*
X25562D01*
Y265946D01*
X23530D01*
Y267978D01*
X25562D01*
Y265946D01*
D02*
G37*
%LPC*%
G36*
X-128035Y282119D02*
X-131867D01*
X-132087Y282070D01*
X-132257Y281997D01*
X-132355Y281924D01*
X-132404Y281875D01*
X-132526Y281679D01*
X-132599Y281509D01*
X-132624Y281362D01*
Y281338D01*
Y281313D01*
X-132599Y281143D01*
X-132575Y280996D01*
X-132550Y280898D01*
X-132526Y280874D01*
X-132453Y280752D01*
X-132380Y280679D01*
X-132306Y280630D01*
X-132282Y280606D01*
X-132111Y280508D01*
X-132062Y280459D01*
X-132038D01*
X-131891Y280435D01*
X-128035D01*
Y282119D01*
D02*
G37*
G36*
X-151394Y287440D02*
X-152712D01*
X-153127Y287416D01*
X-153494Y287318D01*
X-153787Y287172D01*
X-154031Y287025D01*
X-154226Y286854D01*
X-154372Y286732D01*
X-154446Y286635D01*
X-154470Y286586D01*
X-154568Y286415D01*
X-154665Y286244D01*
X-154812Y285805D01*
X-154909Y285365D01*
X-154983Y284926D01*
X-155031Y284511D01*
Y284340D01*
X-155056Y284194D01*
Y284047D01*
Y283950D01*
Y283901D01*
Y283876D01*
Y283730D01*
X-155031Y283144D01*
X-154958Y282631D01*
X-154836Y282192D01*
X-154690Y281826D01*
X-154519Y281509D01*
X-154324Y281240D01*
X-154104Y281021D01*
X-153909Y280850D01*
X-153689Y280703D01*
X-153469Y280606D01*
X-153274Y280532D01*
X-153103Y280483D01*
X-152957Y280459D01*
X-152835Y280435D01*
X-151419D01*
X-151004Y280483D01*
X-150662Y280581D01*
X-150345Y280728D01*
X-150076Y280947D01*
X-149857Y281191D01*
X-149661Y281484D01*
X-149515Y281777D01*
X-149393Y282094D01*
X-149295Y282387D01*
X-149222Y282680D01*
X-149173Y282973D01*
X-149149Y283217D01*
X-149124Y283437D01*
X-149100Y283584D01*
Y283706D01*
Y283730D01*
Y283876D01*
Y284218D01*
X-149124Y284535D01*
X-149198Y285097D01*
X-149295Y285561D01*
X-149393Y285927D01*
X-149490Y286220D01*
X-149588Y286439D01*
X-149661Y286537D01*
X-149686Y286586D01*
X-149930Y286879D01*
X-150198Y287074D01*
X-150491Y287220D01*
X-150784Y287342D01*
X-151053Y287391D01*
X-151248Y287416D01*
X-151394Y287440D01*
D02*
G37*
G36*
X-128035D02*
X-131867D01*
X-132087Y287391D01*
X-132257Y287318D01*
X-132355Y287245D01*
X-132404Y287196D01*
X-132526Y287001D01*
X-132599Y286830D01*
X-132624Y286708D01*
Y286683D01*
Y286659D01*
X-132599Y286415D01*
X-132526Y286220D01*
X-132428Y286122D01*
X-132404Y286073D01*
X-132233Y285951D01*
X-132062Y285878D01*
X-131916Y285854D01*
X-128035D01*
Y287440D01*
D02*
G37*
G36*
X60106Y310650D02*
X58074D01*
Y308618D01*
X60106D01*
Y310650D01*
D02*
G37*
G36*
X45882Y316746D02*
X39786D01*
Y314714D01*
X45882D01*
Y316746D01*
D02*
G37*
G36*
X51978D02*
X49946D01*
Y314714D01*
X51978D01*
Y316746D01*
D02*
G37*
G36*
X74330Y312682D02*
X72298D01*
Y310650D01*
X74330D01*
Y308618D01*
X78394D01*
Y310650D01*
X74330D01*
Y312682D01*
D02*
G37*
G36*
X56042Y318778D02*
X54010D01*
Y316746D01*
X56042D01*
Y318778D01*
D02*
G37*
G36*
X21498Y186698D02*
X19466D01*
Y184666D01*
X21498D01*
Y186698D01*
D02*
G37*
G36*
X7274Y282202D02*
X5242D01*
Y280170D01*
X7274D01*
Y282202D01*
D02*
G37*
G36*
X9306Y286266D02*
X7274D01*
Y284234D01*
X9306D01*
Y286266D01*
D02*
G37*
G36*
X80426Y267978D02*
X78394D01*
Y265946D01*
X80426D01*
Y263914D01*
X82458D01*
Y265946D01*
X80426D01*
Y267978D01*
D02*
G37*
G36*
X76362Y274074D02*
X74330D01*
Y272042D01*
X76362D01*
Y274074D01*
D02*
G37*
G36*
X41818Y310650D02*
X39786D01*
Y308618D01*
X41818D01*
Y310650D01*
D02*
G37*
G36*
X15402Y196858D02*
X13370D01*
Y194826D01*
X15402D01*
Y196858D01*
D02*
G37*
G36*
X94650Y211082D02*
X92618D01*
Y209050D01*
Y207018D01*
X94650D01*
Y209050D01*
Y211082D01*
D02*
G37*
G36*
X92618Y207018D02*
X88554D01*
Y204986D01*
X92618D01*
Y207018D01*
D02*
G37*
%LPD*%
D10*
X-218700Y49135D02*
Y36439D01*
X-221239Y33900D01*
X-226318D01*
X-228857Y36439D01*
Y49135D01*
X-244092Y33900D02*
X-233935D01*
X-244092Y44057D01*
Y46596D01*
X-241553Y49135D01*
X-236474D01*
X-233935Y46596D01*
X-90570Y213050D02*
Y228285D01*
X-98188D01*
X-100727Y225746D01*
Y220667D01*
X-98188Y218128D01*
X-90570D01*
X-95648D02*
X-100727Y213050D01*
X-113423D02*
Y228285D01*
X-105805Y220667D01*
X-115962D01*
X-90370Y234150D02*
Y249385D01*
X-97987D01*
X-100527Y246846D01*
Y241768D01*
X-97987Y239228D01*
X-90370D01*
X-95448D02*
X-100527Y234150D01*
X-105605Y246846D02*
X-108144Y249385D01*
X-113223D01*
X-115762Y246846D01*
Y244307D01*
X-113223Y241768D01*
X-110683D01*
X-113223D01*
X-115762Y239228D01*
Y236689D01*
X-113223Y234150D01*
X-108144D01*
X-105605Y236689D01*
X-128800Y70200D02*
Y83196D01*
X-135298D01*
X-137464Y81030D01*
Y76698D01*
X-135298Y74532D01*
X-128800D01*
X-133132D02*
X-137464Y70200D01*
X-141796D02*
X-146128D01*
X-143962D01*
Y83196D01*
X-141796Y81030D01*
X-128500Y33100D02*
Y46096D01*
X-134998D01*
X-137164Y43930D01*
Y39598D01*
X-134998Y37432D01*
X-128500D01*
X-132832D02*
X-137164Y33100D01*
X-150160D02*
X-141496D01*
X-150160Y41764D01*
Y43930D01*
X-147994Y46096D01*
X-143662D01*
X-141496Y43930D01*
D16*
X-207600Y43200D02*
X-157600D01*
X-207600Y61200D02*
X-157600D01*
Y43200D02*
Y61200D01*
X-207600Y43200D02*
Y61200D01*
X-30066Y303365D02*
X-33398D01*
X-35064Y301698D01*
Y296700D01*
X-30066D01*
X-28400Y298366D01*
X-30066Y300032D01*
X-35064D01*
X-41729Y293368D02*
X-43395D01*
X-45061Y295034D01*
Y303365D01*
X-40063D01*
X-38397Y301698D01*
Y298366D01*
X-40063Y296700D01*
X-45061D01*
X-48394Y303365D02*
Y298366D01*
X-50060Y296700D01*
X-55058D01*
Y303365D01*
X-58390Y296700D02*
X-63389D01*
X-65055Y298366D01*
X-63389Y300032D01*
X-60057D01*
X-58390Y301698D01*
X-60057Y303365D01*
X-65055D01*
X-73386Y300032D02*
Y301698D01*
X-71719D01*
Y300032D01*
X-73386D01*
X-75052Y301698D01*
Y305031D01*
X-73386Y306697D01*
X-70053D01*
X-68387Y305031D01*
Y298366D01*
X-70053Y296700D01*
X-75052D01*
X-85048Y306697D02*
Y296700D01*
X-80050D01*
X-78384Y298366D01*
Y301698D01*
X-80050Y303365D01*
X-85048D01*
X-88381Y296700D02*
X-91713D01*
X-90047D01*
Y303365D01*
X-88381D01*
X-101710Y296700D02*
X-98378D01*
X-96711Y298366D01*
Y301698D01*
X-98378Y303365D01*
X-101710D01*
X-103376Y301698D01*
Y300032D01*
X-96711D01*
X-106708Y296700D02*
Y298366D01*
X-108374D01*
Y296700D01*
X-106708D01*
X-115039Y303365D02*
Y298366D01*
X-116705Y296700D01*
X-121703D01*
Y303365D01*
X-125035Y293368D02*
Y303365D01*
X-130034D01*
X-131700Y301698D01*
Y298366D01*
X-130034Y296700D01*
X-125035D01*
X-135032D02*
Y303365D01*
X-136698D01*
X-138364Y301698D01*
Y296700D01*
Y301698D01*
X-140031Y303365D01*
X-141697Y301698D01*
Y296700D01*
X-145029D02*
Y298366D01*
X-146695D01*
Y296700D01*
X-145029D01*
X-158358D02*
X-155026D01*
X-153360Y298366D01*
Y301698D01*
X-155026Y303365D01*
X-158358D01*
X-160024Y301698D01*
Y300032D01*
X-153360D01*
X-163356Y296700D02*
X-168355D01*
X-170021Y298366D01*
X-168355Y300032D01*
X-165023D01*
X-163356Y301698D01*
X-165023Y303365D01*
X-170021D01*
X12700Y311000D02*
Y317665D01*
X9368Y320997D01*
X6036Y317665D01*
Y311000D01*
Y315998D01*
X12700D01*
X-629Y307668D02*
X-2295D01*
X-3961Y309334D01*
Y317665D01*
X1037D01*
X2703Y315998D01*
Y312666D01*
X1037Y311000D01*
X-3961D01*
X-7294Y317665D02*
Y312666D01*
X-8960Y311000D01*
X-13958D01*
Y317665D01*
X-17290Y311000D02*
X-22289D01*
X-23955Y312666D01*
X-22289Y314332D01*
X-18957D01*
X-17290Y315998D01*
X-18957Y317665D01*
X-23955D01*
X-28953Y319331D02*
Y317665D01*
X-27287D01*
X-30619D01*
X-28953D01*
Y312666D01*
X-30619Y311000D01*
X-35618D02*
X-38950D01*
X-37284D01*
Y317665D01*
X-35618D01*
X-43948Y311000D02*
Y317665D01*
X-48947D01*
X-50613Y315998D01*
Y311000D01*
X-63942Y320997D02*
X-70606D01*
X-67274D01*
Y311000D01*
X-78937D02*
X-75605D01*
X-73939Y312666D01*
Y315998D01*
X-75605Y317665D01*
X-78937D01*
X-80603Y315998D01*
Y314332D01*
X-73939D01*
X-83935Y311000D02*
Y317665D01*
X-88934D01*
X-90600Y315998D01*
Y311000D01*
X-95598Y317665D02*
X-98931D01*
X-100597Y315998D01*
Y311000D01*
X-95598D01*
X-93932Y312666D01*
X-95598Y314332D01*
X-100597D01*
X-120590Y319331D02*
X-118924Y320997D01*
X-115592D01*
X-113926Y319331D01*
Y312666D01*
X-115592Y311000D01*
X-118924D01*
X-120590Y312666D01*
Y315998D01*
X-117258D01*
X-125589Y317665D02*
X-128921D01*
X-130587Y315998D01*
Y311000D01*
X-125589D01*
X-123923Y312666D01*
X-125589Y314332D01*
X-130587D01*
X-133919Y317665D02*
Y311000D01*
Y314332D01*
X-135586Y315998D01*
X-137252Y317665D01*
X-138918D01*
X-150581D02*
X-145582D01*
X-143916Y315998D01*
Y312666D01*
X-145582Y311000D01*
X-150581D01*
X-153913D02*
X-157245D01*
X-155579D01*
Y317665D01*
X-153913D01*
X-163910D02*
X-167242D01*
X-168908Y315998D01*
Y311000D01*
X-163910D01*
X-162244Y312666D01*
X-163910Y314332D01*
X-168908D01*
D30*
X-153800Y28200D02*
G03*
X-153800Y28200I-1250J0D01*
G01*
M02*
