M48
;Layer_Color=9474304
;FILE_FORMAT=4:4
METRIC,TZ
;TYPE=PLATED
T1F00S00C0.4000
T2F00S00C0.6000
T3F00S00C0.6500
T4F00S00C0.8000
T5F00S00C0.8500
T6F00S00C1.0000
T7F00S00C1.2000
%
T01
X28580Y91770
X-52000Y192600
X-78270Y215450
Y238950
X204970Y103360
Y85355
X219570Y76830
Y94360
Y112360
X-176500Y46400
T02
X-168900Y127700
Y151700
T03
X303242Y60293
X290542Y82290
X277842Y104288
X265142Y126285
X252442Y148282
X239742Y170279
X227042Y192276
X214342Y214273
X201642Y236270
X188942Y258267
X163105Y241618
X175805Y219621
X188505Y197624
X201205Y175627
X213905Y153630
X226605Y131632
X239305Y109635
X252005Y87638
X264705Y65641
X277405Y43644
X-279643Y44857
X-266943Y66854
X-254244Y88851
X-241544Y110848
X-228843Y132845
X-216143Y154842
X-203444Y176839
X-190744Y198836
X-178043Y220833
X-165343Y242830
X-192631Y256968
X-205331Y234971
X-218030Y212974
X-230730Y190977
X-243431Y168980
X-256131Y146982
X-268831Y124986
X-281530Y102988
X-294230Y80991
X-306931Y58994
T04
X30700Y54500
X80700
T05
X-19010Y145680
X-120610
T06
X-20800Y25900
Y51300
Y76700
T07
X-20030Y116540
X-124630
M30
