%FSLAX44Y44*%
%MOMM*%
G71*
G01*
G75*
G04 Layer_Color=32896*
%ADD10C,0.2540*%
%ADD11R,2.0320X2.0320*%
%ADD12R,5.5000X1.5000*%
G04:AMPARAMS|DCode=13|XSize=0.24mm|YSize=1.8mm|CornerRadius=0mm|HoleSize=0mm|Usage=FLASHONLY|Rotation=315.000|XOffset=0mm|YOffset=0mm|HoleType=Round|Shape=Round|*
%AMOVALD13*
21,1,1.5600,0.2400,0.0000,0.0000,45.0*
1,1,0.2400,-0.5515,-0.5515*
1,1,0.2400,0.5515,0.5515*
%
%ADD13OVALD13*%

G04:AMPARAMS|DCode=14|XSize=0.24mm|YSize=1.8mm|CornerRadius=0mm|HoleSize=0mm|Usage=FLASHONLY|Rotation=225.000|XOffset=0mm|YOffset=0mm|HoleType=Round|Shape=Round|*
%AMOVALD14*
21,1,1.5600,0.2400,0.0000,0.0000,315.0*
1,1,0.2400,-0.5515,0.5515*
1,1,0.2400,0.5515,-0.5515*
%
%ADD14OVALD14*%

%ADD15R,0.8000X0.9000*%
%ADD16P,2.8737X4X285.0*%
%ADD17P,2.8737X4X345.0*%
%ADD18C,0.4000*%
%ADD19C,0.2000*%
%ADD20C,0.7000*%
%ADD21C,0.5000*%
%ADD22C,0.3000*%
%ADD23C,1.2000*%
G04:AMPARAMS|DCode=24|XSize=1.9mm|YSize=1.1mm|CornerRadius=0mm|HoleSize=0mm|Usage=FLASHONLY|Rotation=90.000|XOffset=0mm|YOffset=0mm|HoleType=Round|Shape=Octagon|*
%AMOCTAGOND24*
4,1,8,0.2750,0.9500,-0.2750,0.9500,-0.5500,0.6750,-0.5500,-0.6750,-0.2750,-0.9500,0.2750,-0.9500,0.5500,-0.6750,0.5500,0.6750,0.2750,0.9500,0.0*
%
%ADD24OCTAGOND24*%

%ADD25O,1.1500X1.2500*%
%ADD26C,1.3000*%
%ADD27C,1.5000*%
%ADD28C,1.7000*%
%ADD29C,4.8260*%
%ADD30C,1.5240*%
%ADD31R,1.5240X1.5240*%
%ADD32R,1.5000X1.5000*%
%ADD33C,0.8000*%
%ADD34C,1.2700*%
%ADD35C,3.8000*%
%ADD36C,3.3020*%
G04:AMPARAMS|DCode=37|XSize=0.9mm|YSize=0.8mm|CornerRadius=0mm|HoleSize=0mm|Usage=FLASHONLY|Rotation=45.000|XOffset=0mm|YOffset=0mm|HoleType=Round|Shape=Rectangle|*
%AMROTATEDRECTD37*
4,1,4,-0.0354,-0.6010,-0.6010,-0.0354,0.0354,0.6010,0.6010,0.0354,-0.0354,-0.6010,0.0*
%
%ADD37ROTATEDRECTD37*%

G04:AMPARAMS|DCode=38|XSize=0.9mm|YSize=0.8mm|CornerRadius=0mm|HoleSize=0mm|Usage=FLASHONLY|Rotation=315.000|XOffset=0mm|YOffset=0mm|HoleType=Round|Shape=Rectangle|*
%AMROTATEDRECTD38*
4,1,4,-0.6010,0.0354,-0.0354,0.6010,0.6010,-0.0354,0.0354,-0.6010,-0.6010,0.0354,0.0*
%
%ADD38ROTATEDRECTD38*%

G04:AMPARAMS|DCode=39|XSize=1.8mm|YSize=1.3mm|CornerRadius=0mm|HoleSize=0mm|Usage=FLASHONLY|Rotation=45.000|XOffset=0mm|YOffset=0mm|HoleType=Round|Shape=Rectangle|*
%AMROTATEDRECTD39*
4,1,4,-0.1768,-1.0960,-1.0960,-0.1768,0.1768,1.0960,1.0960,0.1768,-0.1768,-1.0960,0.0*
%
%ADD39ROTATEDRECTD39*%

G04:AMPARAMS|DCode=40|XSize=0.65mm|YSize=0.9mm|CornerRadius=0mm|HoleSize=0mm|Usage=FLASHONLY|Rotation=60.000|XOffset=0mm|YOffset=0mm|HoleType=Round|Shape=Rectangle|*
%AMROTATEDRECTD40*
4,1,4,0.2272,-0.5065,-0.5522,-0.0565,-0.2272,0.5065,0.5522,0.0565,0.2272,-0.5065,0.0*
%
%ADD40ROTATEDRECTD40*%

%ADD41R,1.6000X2.7000*%
%ADD42R,0.9000X0.8000*%
%ADD43R,1.1000X0.6500*%
G04:AMPARAMS|DCode=44|XSize=0.9mm|YSize=0.8mm|CornerRadius=0mm|HoleSize=0mm|Usage=FLASHONLY|Rotation=210.000|XOffset=0mm|YOffset=0mm|HoleType=Round|Shape=Rectangle|*
%AMROTATEDRECTD44*
4,1,4,0.1897,0.5714,0.5897,-0.1214,-0.1897,-0.5714,-0.5897,0.1214,0.1897,0.5714,0.0*
%
%ADD44ROTATEDRECTD44*%

G04:AMPARAMS|DCode=45|XSize=0.9mm|YSize=0.8mm|CornerRadius=0mm|HoleSize=0mm|Usage=FLASHONLY|Rotation=330.000|XOffset=0mm|YOffset=0mm|HoleType=Round|Shape=Rectangle|*
%AMROTATEDRECTD45*
4,1,4,-0.5897,-0.1214,-0.1897,0.5714,0.5897,0.1214,0.1897,-0.5714,-0.5897,-0.1214,0.0*
%
%ADD45ROTATEDRECTD45*%

%ADD46R,0.6500X0.9000*%
G04:AMPARAMS|DCode=47|XSize=0.65mm|YSize=0.9mm|CornerRadius=0mm|HoleSize=0mm|Usage=FLASHONLY|Rotation=300.000|XOffset=0mm|YOffset=0mm|HoleType=Round|Shape=Rectangle|*
%AMROTATEDRECTD47*
4,1,4,-0.5522,0.0565,0.2272,0.5065,0.5522,-0.0565,-0.2272,-0.5065,-0.5522,0.0565,0.0*
%
%ADD47ROTATEDRECTD47*%

%ADD48R,0.4000X1.5500*%
%ADD49R,2.9000X1.9000*%
G04:AMPARAMS|DCode=50|XSize=0.9mm|YSize=0.8mm|CornerRadius=0mm|HoleSize=0mm|Usage=FLASHONLY|Rotation=120.000|XOffset=0mm|YOffset=0mm|HoleType=Round|Shape=Rectangle|*
%AMROTATEDRECTD50*
4,1,4,0.5714,-0.1897,-0.1214,-0.5897,-0.5714,0.1897,0.1214,0.5897,0.5714,-0.1897,0.0*
%
%ADD50ROTATEDRECTD50*%

G04:AMPARAMS|DCode=51|XSize=0.9mm|YSize=0.8mm|CornerRadius=0mm|HoleSize=0mm|Usage=FLASHONLY|Rotation=240.000|XOffset=0mm|YOffset=0mm|HoleType=Round|Shape=Rectangle|*
%AMROTATEDRECTD51*
4,1,4,-0.1214,0.5897,0.5714,0.1897,0.1214,-0.5897,-0.5714,-0.1897,-0.1214,0.5897,0.0*
%
%ADD51ROTATEDRECTD51*%

%ADD52C,0.9000*%
%ADD53R,0.1200X0.2200*%
%ADD54C,0.2500*%
%ADD55C,0.6000*%
%ADD56C,0.2032*%
%ADD57C,0.1500*%
%ADD58C,0.1200*%
%ADD59C,0.1000*%
%ADD60C,0.1300*%
%ADD61C,0.1100*%
%ADD62R,2.1336X2.1336*%
%ADD63R,5.7032X1.7032*%
G04:AMPARAMS|DCode=64|XSize=0.4432mm|YSize=2.0032mm|CornerRadius=0mm|HoleSize=0mm|Usage=FLASHONLY|Rotation=315.000|XOffset=0mm|YOffset=0mm|HoleType=Round|Shape=Round|*
%AMOVALD64*
21,1,1.5600,0.4432,0.0000,0.0000,45.0*
1,1,0.4432,-0.5515,-0.5515*
1,1,0.4432,0.5515,0.5515*
%
%ADD64OVALD64*%

G04:AMPARAMS|DCode=65|XSize=0.4432mm|YSize=2.0032mm|CornerRadius=0mm|HoleSize=0mm|Usage=FLASHONLY|Rotation=225.000|XOffset=0mm|YOffset=0mm|HoleType=Round|Shape=Round|*
%AMOVALD65*
21,1,1.5600,0.4432,0.0000,0.0000,315.0*
1,1,0.4432,-0.5515,0.5515*
1,1,0.4432,0.5515,-0.5515*
%
%ADD65OVALD65*%

%ADD66R,1.0032X1.1032*%
%ADD67P,3.0174X4X285.0*%
%ADD68P,3.0174X4X345.0*%
%ADD69C,1.4032*%
G04:AMPARAMS|DCode=70|XSize=2.1032mm|YSize=1.3032mm|CornerRadius=0mm|HoleSize=0mm|Usage=FLASHONLY|Rotation=90.000|XOffset=0mm|YOffset=0mm|HoleType=Round|Shape=Octagon|*
%AMOCTAGOND70*
4,1,8,0.3258,1.0516,-0.3258,1.0516,-0.6516,0.7258,-0.6516,-0.7258,-0.3258,-1.0516,0.3258,-1.0516,0.6516,-0.7258,0.6516,0.7258,0.3258,1.0516,0.0*
%
%ADD70OCTAGOND70*%

%ADD71O,1.3532X1.4532*%
%ADD72C,1.5032*%
%ADD73C,1.7032*%
%ADD74C,1.9032*%
%ADD75C,5.0292*%
%ADD76C,1.7272*%
%ADD77R,1.7272X1.7272*%
%ADD78R,1.7032X1.7032*%
%ADD79C,1.0032*%
%ADD80C,1.4732*%
%ADD81C,4.0032*%
%ADD82C,3.5052*%
G04:AMPARAMS|DCode=83|XSize=1.1032mm|YSize=1.0032mm|CornerRadius=0mm|HoleSize=0mm|Usage=FLASHONLY|Rotation=45.000|XOffset=0mm|YOffset=0mm|HoleType=Round|Shape=Rectangle|*
%AMROTATEDRECTD83*
4,1,4,-0.0354,-0.7447,-0.7447,-0.0354,0.0354,0.7447,0.7447,0.0354,-0.0354,-0.7447,0.0*
%
%ADD83ROTATEDRECTD83*%

G04:AMPARAMS|DCode=84|XSize=1.1032mm|YSize=1.0032mm|CornerRadius=0mm|HoleSize=0mm|Usage=FLASHONLY|Rotation=315.000|XOffset=0mm|YOffset=0mm|HoleType=Round|Shape=Rectangle|*
%AMROTATEDRECTD84*
4,1,4,-0.7447,0.0354,-0.0354,0.7447,0.7447,-0.0354,0.0354,-0.7447,-0.7447,0.0354,0.0*
%
%ADD84ROTATEDRECTD84*%

G04:AMPARAMS|DCode=85|XSize=2.0032mm|YSize=1.5032mm|CornerRadius=0mm|HoleSize=0mm|Usage=FLASHONLY|Rotation=45.000|XOffset=0mm|YOffset=0mm|HoleType=Round|Shape=Rectangle|*
%AMROTATEDRECTD85*
4,1,4,-0.1768,-1.2397,-1.2397,-0.1768,0.1768,1.2397,1.2397,0.1768,-0.1768,-1.2397,0.0*
%
%ADD85ROTATEDRECTD85*%

G04:AMPARAMS|DCode=86|XSize=0.8532mm|YSize=1.1032mm|CornerRadius=0mm|HoleSize=0mm|Usage=FLASHONLY|Rotation=60.000|XOffset=0mm|YOffset=0mm|HoleType=Round|Shape=Rectangle|*
%AMROTATEDRECTD86*
4,1,4,0.2644,-0.6452,-0.6910,-0.0937,-0.2644,0.6452,0.6910,0.0937,0.2644,-0.6452,0.0*
%
%ADD86ROTATEDRECTD86*%

%ADD87R,1.8032X2.9032*%
%ADD88R,1.1032X1.0032*%
%ADD89R,1.3032X0.8532*%
G04:AMPARAMS|DCode=90|XSize=1.1032mm|YSize=1.0032mm|CornerRadius=0mm|HoleSize=0mm|Usage=FLASHONLY|Rotation=210.000|XOffset=0mm|YOffset=0mm|HoleType=Round|Shape=Rectangle|*
%AMROTATEDRECTD90*
4,1,4,0.2269,0.7102,0.7285,-0.1586,-0.2269,-0.7102,-0.7285,0.1586,0.2269,0.7102,0.0*
%
%ADD90ROTATEDRECTD90*%

G04:AMPARAMS|DCode=91|XSize=1.1032mm|YSize=1.0032mm|CornerRadius=0mm|HoleSize=0mm|Usage=FLASHONLY|Rotation=330.000|XOffset=0mm|YOffset=0mm|HoleType=Round|Shape=Rectangle|*
%AMROTATEDRECTD91*
4,1,4,-0.7285,-0.1586,-0.2269,0.7102,0.7285,0.1586,0.2269,-0.7102,-0.7285,-0.1586,0.0*
%
%ADD91ROTATEDRECTD91*%

%ADD92R,0.8532X1.1032*%
G04:AMPARAMS|DCode=93|XSize=0.8532mm|YSize=1.1032mm|CornerRadius=0mm|HoleSize=0mm|Usage=FLASHONLY|Rotation=300.000|XOffset=0mm|YOffset=0mm|HoleType=Round|Shape=Rectangle|*
%AMROTATEDRECTD93*
4,1,4,-0.6910,0.0937,0.2644,0.6452,0.6910,-0.0937,-0.2644,-0.6452,-0.6910,0.0937,0.0*
%
%ADD93ROTATEDRECTD93*%

%ADD94R,0.6032X1.7532*%
%ADD95R,3.1032X2.1032*%
G04:AMPARAMS|DCode=96|XSize=1.1032mm|YSize=1.0032mm|CornerRadius=0mm|HoleSize=0mm|Usage=FLASHONLY|Rotation=120.000|XOffset=0mm|YOffset=0mm|HoleType=Round|Shape=Rectangle|*
%AMROTATEDRECTD96*
4,1,4,0.7102,-0.2269,-0.1586,-0.7285,-0.7102,0.2269,0.1586,0.7285,0.7102,-0.2269,0.0*
%
%ADD96ROTATEDRECTD96*%

G04:AMPARAMS|DCode=97|XSize=1.1032mm|YSize=1.0032mm|CornerRadius=0mm|HoleSize=0mm|Usage=FLASHONLY|Rotation=240.000|XOffset=0mm|YOffset=0mm|HoleType=Round|Shape=Rectangle|*
%AMROTATEDRECTD97*
4,1,4,-0.1586,0.7285,0.7102,0.2269,0.1586,-0.7285,-0.7102,-0.2269,-0.1586,0.7285,0.0*
%
%ADD97ROTATEDRECTD97*%

G36*
X354216Y279932D02*
X356248D01*
Y273836D01*
X348120D01*
Y269772D01*
X346088D01*
Y271804D01*
X342024D01*
Y273836D01*
X337960D01*
Y275868D01*
X335928D01*
Y277900D01*
X337960D01*
Y281964D01*
X346088D01*
Y279932D01*
X352184D01*
Y281964D01*
X354216D01*
Y279932D01*
D02*
G37*
G36*
X411112Y277900D02*
X409080D01*
Y275868D01*
X407048D01*
Y279932D01*
X411112D01*
Y277900D01*
D02*
G37*
G36*
X402984Y267740D02*
X400952D01*
Y271804D01*
X402984D01*
Y267740D01*
D02*
G37*
G36*
X376568Y306348D02*
X378600D01*
Y304316D01*
X380632D01*
Y302284D01*
X378600D01*
Y304316D01*
X376568D01*
Y306348D01*
X372504D01*
Y304316D01*
X370472D01*
Y302284D01*
X360312D01*
Y306348D01*
X362344D01*
Y308380D01*
X376568D01*
Y306348D01*
D02*
G37*
G36*
Y302284D02*
X378600D01*
Y300252D01*
X380632D01*
Y298220D01*
X378600D01*
Y300252D01*
X376568D01*
Y302284D01*
X374536D01*
Y304316D01*
X376568D01*
Y302284D01*
D02*
G37*
G36*
X309512Y316508D02*
X307480D01*
Y308380D01*
X309512D01*
Y310412D01*
X311544D01*
Y312444D01*
X315608D01*
Y314476D01*
X317640D01*
Y316508D01*
X323736D01*
Y318540D01*
X325768D01*
Y316508D01*
X329832D01*
Y314476D01*
X333896D01*
Y310412D01*
X335928D01*
Y308380D01*
X337960D01*
Y306348D01*
X339992D01*
Y302284D01*
X333896D01*
Y298220D01*
X331864D01*
Y300252D01*
X327800D01*
Y302284D01*
X323736D01*
Y300252D01*
X319672D01*
Y298220D01*
X317640D01*
Y296188D01*
X313576D01*
Y300252D01*
X315608D01*
Y302284D01*
X317640D01*
Y306348D01*
X319672D01*
Y308380D01*
X325768D01*
Y310412D01*
X323736D01*
Y312444D01*
X319672D01*
Y310412D01*
X315608D01*
Y308380D01*
X313576D01*
Y304316D01*
X311544D01*
Y298220D01*
X309512D01*
Y300252D01*
X307480D01*
Y294156D01*
X305448D01*
Y281964D01*
X303416D01*
Y273836D01*
X301384D01*
Y271804D01*
X303416D01*
Y267740D01*
X305448D01*
Y257580D01*
X307480D01*
Y255548D01*
X309512D01*
Y253516D01*
X313576D01*
Y255548D01*
X309512D01*
Y259612D01*
X311544D01*
Y257580D01*
X313576D01*
Y255548D01*
X315608D01*
Y251484D01*
X317640D01*
Y247420D01*
X319672D01*
Y243356D01*
X321704D01*
Y235228D01*
X323736D01*
Y225068D01*
X325768D01*
Y216940D01*
X327800D01*
Y210844D01*
X329832D01*
Y206780D01*
X331864D01*
Y200684D01*
X333896D01*
Y198652D01*
X337960D01*
Y196620D01*
X344056D01*
Y194588D01*
X346088D01*
Y196620D01*
X348120D01*
Y194588D01*
X350152D01*
Y196620D01*
X352184D01*
Y194588D01*
X358280D01*
Y196620D01*
X366408D01*
Y198652D01*
X368440D01*
Y200684D01*
X370472D01*
Y204748D01*
X372504D01*
Y206780D01*
X374536D01*
Y212876D01*
X376568D01*
Y216940D01*
X378600D01*
Y235228D01*
X380632D01*
Y233196D01*
X382664D01*
Y237260D01*
X388760D01*
Y239292D01*
X390792D01*
Y245388D01*
X392824D01*
Y247420D01*
X394856D01*
Y255548D01*
X396888D01*
Y259612D01*
X394856D01*
Y265708D01*
X396888D01*
Y261644D01*
X398920D01*
Y259612D01*
X400952D01*
Y257580D01*
X398920D01*
Y253516D01*
X400952D01*
Y251484D01*
X398920D01*
Y249452D01*
X400952D01*
Y247420D01*
X396888D01*
Y241324D01*
X394856D01*
Y235228D01*
X392824D01*
Y227100D01*
X390792D01*
Y221004D01*
X388760D01*
Y216940D01*
X386728D01*
Y212876D01*
X384696D01*
Y208812D01*
X382664D01*
Y206780D01*
X380632D01*
Y202716D01*
X376568D01*
Y198652D01*
X374536D01*
Y196620D01*
X372504D01*
Y194588D01*
X368440D01*
Y192556D01*
X364376D01*
Y190524D01*
X358280D01*
Y188492D01*
X350152D01*
Y186460D01*
X342024D01*
Y188492D01*
X335928D01*
Y190524D01*
X333896D01*
Y192556D01*
X331864D01*
Y194588D01*
X329832D01*
Y196620D01*
X327800D01*
Y198652D01*
X325768D01*
Y200684D01*
X323736D01*
Y204748D01*
X321704D01*
Y206780D01*
X319672D01*
Y210844D01*
X317640D01*
Y214908D01*
X315608D01*
Y216940D01*
X313576D01*
Y225068D01*
X311544D01*
Y229132D01*
X309512D01*
Y235228D01*
X307480D01*
Y241324D01*
X305448D01*
Y247420D01*
X303416D01*
Y263676D01*
X301384D01*
Y271804D01*
X297320D01*
Y273836D01*
X295288D01*
Y275868D01*
X297320D01*
Y277900D01*
X299352D01*
Y275868D01*
X301384D01*
Y302284D01*
X303416D01*
Y314476D01*
X305448D01*
Y320572D01*
X307480D01*
Y324636D01*
X309512D01*
Y316508D01*
D02*
G37*
G36*
X352184Y255548D02*
X360312D01*
Y253516D01*
X364376D01*
Y251484D01*
X366408D01*
Y243356D01*
X368440D01*
Y241324D01*
X366408D01*
Y235228D01*
X364376D01*
Y231164D01*
X362344D01*
Y229132D01*
X360312D01*
Y227100D01*
X346088D01*
Y225068D01*
X344056D01*
Y227100D01*
X337960D01*
Y229132D01*
X335928D01*
Y233196D01*
X333896D01*
Y235228D01*
X331864D01*
Y239292D01*
X329832D01*
Y243356D01*
X327800D01*
Y245388D01*
X325768D01*
Y243356D01*
X323736D01*
Y249452D01*
X325768D01*
Y253516D01*
X327800D01*
Y255548D01*
X329832D01*
Y257580D01*
X331864D01*
Y253516D01*
X333896D01*
Y255548D01*
X344056D01*
Y257580D01*
X352184D01*
Y255548D01*
D02*
G37*
G36*
X-331253Y363049D02*
X-331415Y362720D01*
X-331552Y362433D01*
X-331656Y362155D01*
X-331715Y361907D01*
X-331749Y361701D01*
X-331780Y361550D01*
X-331808Y361453D01*
X-331799Y361420D01*
X-331782Y361156D01*
X-331741Y360935D01*
X-331654Y360744D01*
X-331554Y360574D01*
X-331452Y360458D01*
X-331358Y360376D01*
X-331274Y360327D01*
X-331253Y360315D01*
X-323135Y355629D01*
X-325003Y352394D01*
X-333099Y357069D01*
X-333489Y357322D01*
X-333823Y357572D01*
X-334113Y357851D01*
X-334339Y358095D01*
X-334523Y358313D01*
X-334643Y358496D01*
X-334724Y358599D01*
X-334754Y358644D01*
X-334940Y359006D01*
X-335105Y359355D01*
X-335216Y359700D01*
X-335296Y360000D01*
X-335368Y360267D01*
X-335400Y360455D01*
X-335436Y360588D01*
X-335433Y360643D01*
X-335485Y361040D01*
X-335484Y361433D01*
X-335461Y361814D01*
X-335420Y362129D01*
X-335370Y362411D01*
X-335357Y362629D01*
X-335305Y362767D01*
X-335314Y362801D01*
X-335302Y362822D01*
X-335200Y363242D01*
X-335068Y363617D01*
X-334936Y363992D01*
X-334799Y364279D01*
X-334673Y364545D01*
X-334585Y364748D01*
X-334511Y364874D01*
X-334499Y364895D01*
X-334487Y364917D01*
X-331253Y363049D01*
D02*
G37*
G36*
X-335766Y355818D02*
X-335300Y355746D01*
X-334846Y355654D01*
X-334417Y355518D01*
X-333988Y355383D01*
X-333613Y355252D01*
X-333238Y355120D01*
X-332930Y354970D01*
X-332652Y354866D01*
X-332440Y354744D01*
X-332259Y354667D01*
X-332174Y354618D01*
X-332132Y354594D01*
X-332069Y354557D01*
X-331510Y354207D01*
X-331006Y353859D01*
X-330569Y353494D01*
X-330165Y353120D01*
X-329794Y352737D01*
X-329478Y352357D01*
X-329216Y351980D01*
X-328979Y351561D01*
X-328793Y351200D01*
X-328631Y350797D01*
X-328490Y350406D01*
X-328404Y350018D01*
X-328339Y349642D01*
X-328308Y349257D01*
X-328275Y348534D01*
X-328326Y347859D01*
X-328441Y347220D01*
X-328574Y346649D01*
X-328745Y346156D01*
X-328890Y345760D01*
X-328954Y345600D01*
X-329027Y345473D01*
X-329067Y345355D01*
X-329116Y345271D01*
X-329140Y345228D01*
X-329152Y345207D01*
X-329226Y345080D01*
X-329552Y344564D01*
X-329875Y344102D01*
X-330228Y343686D01*
X-330599Y343336D01*
X-330957Y343008D01*
X-331334Y342746D01*
X-331720Y342518D01*
X-332114Y342323D01*
X-332518Y342161D01*
X-332909Y342021D01*
X-333318Y341947D01*
X-333706Y341861D01*
X-334496Y341810D01*
X-335259Y341855D01*
X-335964Y341952D01*
X-336645Y342092D01*
X-337246Y342270D01*
X-337760Y342454D01*
X-337984Y342555D01*
X-338186Y342644D01*
X-338367Y342720D01*
X-338507Y342772D01*
X-338633Y342845D01*
X-338718Y342894D01*
X-338760Y342919D01*
X-338781Y342931D01*
X-338845Y342967D01*
X-339403Y343318D01*
X-339907Y343666D01*
X-340345Y344031D01*
X-340749Y344405D01*
X-341107Y344809D01*
X-341423Y345189D01*
X-341685Y345566D01*
X-341935Y345963D01*
X-342109Y346346D01*
X-342270Y346749D01*
X-342411Y347140D01*
X-342497Y347528D01*
X-342562Y347904D01*
X-342615Y348301D01*
X-342627Y349012D01*
X-342563Y349708D01*
X-342460Y350326D01*
X-342327Y350897D01*
X-342156Y351390D01*
X-342012Y351786D01*
X-341947Y351946D01*
X-341874Y352073D01*
X-341834Y352191D01*
X-341786Y352275D01*
X-341761Y352318D01*
X-341749Y352339D01*
X-341700Y352423D01*
X-341386Y352919D01*
X-341075Y353359D01*
X-340734Y353754D01*
X-340385Y354116D01*
X-340059Y354436D01*
X-339716Y354688D01*
X-339406Y354932D01*
X-339087Y355143D01*
X-338793Y355311D01*
X-338523Y355437D01*
X-338265Y355542D01*
X-338074Y355629D01*
X-337895Y355694D01*
X-337761Y355730D01*
X-337695Y355748D01*
X-337662Y355757D01*
X-337198Y355827D01*
X-336726Y355865D01*
X-336244Y355869D01*
X-335766Y355818D01*
D02*
G37*
G36*
X-338059Y340569D02*
X-341879Y333952D01*
X-341947Y333738D01*
X-341957Y333574D01*
X-341954Y333432D01*
X-341924Y333386D01*
X-341816Y333183D01*
X-341671Y333043D01*
X-341557Y332949D01*
X-341535Y332937D01*
X-341514Y332924D01*
X-341312Y332836D01*
X-341127Y332814D01*
X-340985Y332816D01*
X-340952Y332825D01*
X-340931Y332813D01*
X-340809Y332827D01*
X-340718Y332888D01*
X-340560Y332966D01*
X-340466Y333080D01*
X-340454Y333101D01*
X-340442Y333122D01*
X-336622Y339739D01*
X-333387Y337872D01*
X-337207Y331255D01*
X-337412Y330950D01*
X-337592Y330688D01*
X-337792Y330437D01*
X-337990Y330241D01*
X-338163Y330088D01*
X-338291Y329964D01*
X-338361Y329892D01*
X-338406Y329862D01*
X-338680Y329681D01*
X-338941Y329522D01*
X-339211Y329396D01*
X-339448Y329279D01*
X-339639Y329192D01*
X-339805Y329147D01*
X-339906Y329121D01*
X-339939Y329112D01*
X-340260Y329044D01*
X-340557Y329018D01*
X-340841Y329013D01*
X-341126Y329008D01*
X-341344Y329021D01*
X-341507Y329031D01*
X-341625Y329071D01*
X-341659Y329062D01*
X-341982Y329136D01*
X-342306Y329210D01*
X-342584Y329314D01*
X-342850Y329440D01*
X-343074Y329540D01*
X-343234Y329605D01*
X-343339Y329666D01*
X-343382Y329690D01*
X-343720Y329885D01*
X-343992Y330099D01*
X-344501Y330534D01*
X-344890Y330984D01*
X-345215Y331397D01*
X-345335Y331579D01*
X-345434Y331749D01*
X-345533Y331919D01*
X-345590Y332065D01*
X-345638Y332177D01*
X-345677Y332256D01*
X-345686Y332289D01*
X-345695Y332322D01*
X-345776Y332622D01*
X-345823Y332932D01*
X-345836Y333250D01*
X-345829Y333555D01*
X-345751Y334130D01*
X-345609Y334669D01*
X-345428Y335128D01*
X-345340Y335330D01*
X-345275Y335490D01*
X-345223Y335630D01*
X-345162Y335735D01*
X-345126Y335799D01*
X-345113Y335820D01*
X-343173Y339181D01*
X-344568Y339986D01*
X-348486Y333201D01*
X-351720Y335068D01*
X-345923Y345109D01*
X-338059Y340569D01*
D02*
G37*
G36*
X368440Y251484D02*
X366408D01*
Y253516D01*
X364376D01*
Y255548D01*
X368440D01*
Y251484D01*
D02*
G37*
G36*
X380632Y237260D02*
X378600D01*
Y243356D01*
X380632D01*
Y237260D01*
D02*
G37*
G36*
X-315300Y369200D02*
X-318913Y362943D01*
X-319166Y362553D01*
X-319406Y362185D01*
X-319665Y361884D01*
X-319887Y361645D01*
X-320064Y361437D01*
X-320225Y361305D01*
X-320307Y361211D01*
X-320353Y361181D01*
X-320650Y360958D01*
X-320924Y360778D01*
X-321194Y360652D01*
X-321430Y360535D01*
X-321642Y360460D01*
X-321788Y360403D01*
X-321888Y360377D01*
X-321921Y360368D01*
X-322230Y360321D01*
X-322506Y360282D01*
X-322770Y360265D01*
X-323021Y360270D01*
X-323205Y360292D01*
X-323369Y360301D01*
X-323478Y360308D01*
X-323499Y360320D01*
X-323801Y360382D01*
X-324058Y360474D01*
X-324294Y360554D01*
X-324509Y360621D01*
X-324678Y360719D01*
X-324817Y360771D01*
X-324902Y360820D01*
X-324923Y360832D01*
X-325143Y360988D01*
X-325363Y361143D01*
X-325436Y361213D01*
X-325499Y361249D01*
X-325529Y361295D01*
X-325550Y361307D01*
X-325776Y361550D01*
X-325960Y361769D01*
X-326041Y361872D01*
X-326093Y361930D01*
X-326110Y361997D01*
X-326132Y362009D01*
X-326321Y362316D01*
X-326480Y362577D01*
X-326528Y362689D01*
X-326555Y362789D01*
X-326585Y362835D01*
X-326594Y362868D01*
X-326705Y363214D01*
X-326773Y363535D01*
X-326775Y363677D01*
X-326802Y363777D01*
X-326799Y363832D01*
X-326808Y363865D01*
X-327144Y363721D01*
X-327457Y363620D01*
X-327590Y363584D01*
X-327690Y363557D01*
X-327723Y363548D01*
X-327757Y363539D01*
X-328120Y363495D01*
X-328426Y363503D01*
X-328535Y363509D01*
X-328623Y363504D01*
X-328677Y363507D01*
X-328698Y363519D01*
X-329013Y363560D01*
X-329282Y363631D01*
X-329379Y363659D01*
X-329442Y363695D01*
X-329497Y363698D01*
X-329518Y363711D01*
X-329796Y363815D01*
X-330020Y363916D01*
X-330104Y363965D01*
X-330168Y364001D01*
X-330189Y364013D01*
X-330210Y364026D01*
X-330494Y364218D01*
X-330777Y364410D01*
X-330994Y364619D01*
X-331181Y364784D01*
X-331335Y364957D01*
X-331425Y365094D01*
X-331519Y365176D01*
X-331528Y365209D01*
X-331687Y365470D01*
X-331846Y365731D01*
X-331963Y365968D01*
X-332047Y366214D01*
X-332113Y366393D01*
X-332136Y366547D01*
X-332163Y366647D01*
X-332172Y366680D01*
X-332219Y366990D01*
X-332245Y367286D01*
X-332229Y367559D01*
X-332212Y367831D01*
X-332199Y368049D01*
X-332177Y368234D01*
X-332150Y368330D01*
X-332146Y368385D01*
X-332072Y368708D01*
X-331965Y369041D01*
X-331848Y369340D01*
X-331744Y369618D01*
X-331610Y369851D01*
X-331534Y370032D01*
X-331473Y370138D01*
X-331460Y370159D01*
X-331448Y370180D01*
X-327836Y376437D01*
X-315300Y369200D01*
D02*
G37*
G36*
X380632Y314476D02*
X382664D01*
Y310412D01*
X380632D01*
Y314476D01*
X378600D01*
Y316508D01*
X380632D01*
Y314476D01*
D02*
G37*
G36*
X358280Y357148D02*
X366408D01*
Y355116D01*
X370472D01*
Y353084D01*
X372504D01*
Y351052D01*
X376568D01*
Y349020D01*
X380632D01*
Y346988D01*
X382664D01*
Y344956D01*
X386728D01*
Y342924D01*
X388760D01*
Y340892D01*
X390792D01*
Y338860D01*
X392824D01*
Y336828D01*
X394856D01*
Y332764D01*
X398920D01*
Y324636D01*
X400952D01*
Y320572D01*
X398920D01*
Y316508D01*
X402984D01*
Y310412D01*
X400952D01*
Y308380D01*
X402984D01*
Y302284D01*
X405016D01*
Y283996D01*
X402984D01*
Y279932D01*
X400952D01*
Y275868D01*
X398920D01*
Y265708D01*
X400952D01*
Y263676D01*
X398920D01*
Y265708D01*
X396888D01*
Y286028D01*
X394856D01*
Y296188D01*
X392824D01*
Y300252D01*
X390792D01*
Y310412D01*
X392824D01*
Y322604D01*
X390792D01*
Y324636D01*
X388760D01*
Y328700D01*
X386728D01*
Y330732D01*
X384696D01*
Y332764D01*
X382664D01*
Y334796D01*
X380632D01*
Y338860D01*
X376568D01*
Y340892D01*
X374536D01*
Y342924D01*
X370472D01*
Y344956D01*
X364376D01*
Y342924D01*
X366408D01*
Y340892D01*
X362344D01*
Y342924D01*
X360312D01*
Y344956D01*
X358280D01*
Y346988D01*
X350152D01*
Y344956D01*
X339992D01*
Y342924D01*
X337960D01*
Y346988D01*
X335928D01*
Y344956D01*
X329832D01*
Y342924D01*
X327800D01*
Y340892D01*
X323736D01*
Y338860D01*
X321704D01*
Y336828D01*
X319672D01*
Y334796D01*
X317640D01*
Y332764D01*
X315608D01*
Y330732D01*
X313576D01*
Y328700D01*
X311544D01*
Y332764D01*
X313576D01*
Y338860D01*
X315608D01*
Y342924D01*
X317640D01*
Y346988D01*
X319672D01*
Y349020D01*
X323736D01*
Y346988D01*
X327800D01*
Y349020D01*
X323736D01*
Y351052D01*
X325768D01*
Y353084D01*
X331864D01*
Y355116D01*
X342024D01*
Y357148D01*
X344056D01*
Y359180D01*
X358280D01*
Y357148D01*
D02*
G37*
G36*
X311544Y324636D02*
X309512D01*
Y328700D01*
X311544D01*
Y324636D01*
D02*
G37*
G36*
X376568Y316508D02*
X372504D01*
Y314476D01*
X366408D01*
Y316508D01*
X370472D01*
Y318540D01*
X376568D01*
Y316508D01*
D02*
G37*
%LPC*%
G36*
X-326469Y371336D02*
X-328385Y368017D01*
X-328452Y367802D01*
X-328474Y367618D01*
X-328460Y367496D01*
X-328442Y367430D01*
X-328334Y367226D01*
X-328222Y367078D01*
X-328129Y366996D01*
X-328108Y366983D01*
X-328087Y366971D01*
X-327863Y366870D01*
X-327657Y366836D01*
X-327524Y366872D01*
X-327469Y366868D01*
X-327278Y366955D01*
X-327129Y367067D01*
X-327035Y367181D01*
X-327011Y367224D01*
X-326998Y367245D01*
X-325094Y370542D01*
X-326469Y371336D01*
D02*
G37*
G36*
X362344Y349020D02*
X360312D01*
Y346988D01*
X362344D01*
Y349020D01*
D02*
G37*
G36*
X388760Y235228D02*
X386728D01*
Y233196D01*
X388760D01*
Y235228D01*
D02*
G37*
G36*
X382664Y225068D02*
X380632D01*
Y223036D01*
X382664D01*
Y225068D01*
D02*
G37*
G36*
X-336379Y352169D02*
X-336500Y352155D01*
X-336554Y352158D01*
X-336930Y352093D01*
X-337233Y351958D01*
X-337507Y351778D01*
X-337759Y351585D01*
X-337935Y351377D01*
X-338054Y351220D01*
X-338148Y351106D01*
X-338161Y351085D01*
X-338173Y351063D01*
X-338807Y349964D01*
X-338994Y349593D01*
X-339092Y349227D01*
X-339112Y348900D01*
X-339107Y348615D01*
X-339057Y348361D01*
X-339024Y348173D01*
X-338976Y348060D01*
X-338946Y348015D01*
X-338847Y347845D01*
X-338748Y347675D01*
X-338441Y347328D01*
X-338109Y347024D01*
X-337765Y346741D01*
X-337430Y346491D01*
X-337282Y346406D01*
X-337168Y346311D01*
X-337041Y346238D01*
X-336956Y346189D01*
X-336914Y346165D01*
X-336893Y346153D01*
X-336766Y346080D01*
X-336246Y345808D01*
X-335766Y345615D01*
X-335324Y345501D01*
X-334934Y345445D01*
X-334574Y345434D01*
X-334244Y345469D01*
X-333944Y345549D01*
X-333698Y345633D01*
X-333461Y345750D01*
X-333267Y345891D01*
X-333106Y346024D01*
X-332978Y346147D01*
X-332884Y346262D01*
X-332802Y346356D01*
X-332765Y346419D01*
X-332753Y346440D01*
X-332094Y347582D01*
X-331928Y347966D01*
X-331842Y348310D01*
X-331810Y348658D01*
X-331866Y349001D01*
X-331968Y349313D01*
X-332124Y349629D01*
X-332304Y349902D01*
X-332518Y350166D01*
X-332723Y350397D01*
X-332940Y350607D01*
X-333169Y350796D01*
X-333368Y350939D01*
X-333547Y351070D01*
X-333661Y351164D01*
X-333767Y351225D01*
X-333788Y351238D01*
X-333915Y351311D01*
X-334211Y351482D01*
X-334498Y351619D01*
X-335021Y351837D01*
X-335471Y351984D01*
X-335837Y352082D01*
X-336139Y352144D01*
X-336379Y352169D01*
D02*
G37*
G36*
X362344Y355116D02*
X356248D01*
Y353084D01*
X362344D01*
Y355116D01*
D02*
G37*
G36*
X348120Y357148D02*
X346088D01*
Y355116D01*
X348120D01*
Y357148D01*
D02*
G37*
G36*
X-321860Y368675D02*
X-323776Y365356D01*
X-323844Y365142D01*
X-323866Y364957D01*
X-323851Y364836D01*
X-323834Y364769D01*
X-323725Y364566D01*
X-323614Y364417D01*
X-323499Y364323D01*
X-323478Y364310D01*
X-323457Y364298D01*
X-323297Y364234D01*
X-323158Y364182D01*
X-323061Y364154D01*
X-323028Y364163D01*
X-322886Y364165D01*
X-322785Y364192D01*
X-322706Y364231D01*
X-322673Y364240D01*
X-322503Y364339D01*
X-322436Y364357D01*
X-322424Y364378D01*
X-322330Y364493D01*
X-322318Y364514D01*
X-322306Y364535D01*
X-320402Y367833D01*
X-321860Y368675D01*
D02*
G37*
G36*
X329832Y351052D02*
X327800D01*
Y349020D01*
X329832D01*
Y351052D01*
D02*
G37*
G36*
X352184Y355116D02*
X350152D01*
Y353084D01*
X352184D01*
Y355116D01*
D02*
G37*
G36*
X309512Y249452D02*
X307480D01*
Y247420D01*
Y245388D01*
X309512D01*
Y243356D01*
X313576D01*
Y245388D01*
X309512D01*
Y247420D01*
Y249452D01*
D02*
G37*
G36*
X396888Y320572D02*
X394856D01*
Y318540D01*
X396888D01*
Y320572D01*
D02*
G37*
G36*
X394856Y324636D02*
X392824D01*
Y322604D01*
X394856D01*
Y324636D01*
D02*
G37*
G36*
X321704Y304316D02*
X319672D01*
Y302284D01*
X321704D01*
Y304316D01*
D02*
G37*
G36*
X327800Y312444D02*
X325768D01*
Y310412D01*
X327800D01*
Y312444D01*
D02*
G37*
G36*
X323736Y306348D02*
X321704D01*
Y304316D01*
X323736D01*
Y306348D01*
D02*
G37*
G36*
X344056Y349020D02*
X342024D01*
Y346988D01*
X344056D01*
Y349020D01*
D02*
G37*
G36*
X309512Y253516D02*
X305448D01*
Y251484D01*
X309512D01*
Y253516D01*
D02*
G37*
G36*
X378600Y344956D02*
X374536D01*
Y342924D01*
X378600D01*
Y344956D01*
D02*
G37*
G36*
X396888Y300252D02*
X394856D01*
Y298220D01*
Y296188D01*
X396888D01*
Y298220D01*
Y300252D01*
D02*
G37*
G36*
X386728Y342924D02*
X384696D01*
Y340892D01*
X386728D01*
Y342924D01*
D02*
G37*
%LPD*%
D10*
X-121100Y43935D02*
Y28700D01*
X-128717D01*
X-131257Y31239D01*
Y33778D01*
Y36318D01*
X-128717Y38857D01*
X-121100D01*
X-138874D02*
X-143953D01*
X-146492Y36318D01*
Y28700D01*
X-138874D01*
X-136335Y31239D01*
X-138874Y33778D01*
X-146492D01*
X-154109Y41396D02*
Y38857D01*
X-151570D01*
X-156649D01*
X-154109D01*
Y31239D01*
X-156649Y28700D01*
X-179501Y41396D02*
X-182040Y43935D01*
X-187119D01*
X-189658Y41396D01*
Y38857D01*
X-187119Y36318D01*
X-184579D01*
X-187119D01*
X-189658Y33778D01*
Y31239D01*
X-187119Y28700D01*
X-182040D01*
X-179501Y31239D01*
X-194736Y28700D02*
Y31239D01*
X-197275D01*
Y28700D01*
X-194736D01*
X-217589Y43935D02*
X-212510Y41396D01*
X-207432Y36318D01*
Y31239D01*
X-209971Y28700D01*
X-215050D01*
X-217589Y31239D01*
Y33778D01*
X-215050Y36318D01*
X-207432D01*
X122700Y130600D02*
Y115365D01*
X130317D01*
X132857Y117904D01*
Y122983D01*
X130317Y125522D01*
X122700D01*
X127778D02*
X132857Y130600D01*
X137935D02*
X143013D01*
X140474D01*
Y115365D01*
X137935Y117904D01*
X160788Y115365D02*
X150631D01*
Y122983D01*
X155709Y120443D01*
X158249D01*
X160788Y122983D01*
Y128061D01*
X158249Y130600D01*
X153170D01*
X150631Y128061D01*
X-7005Y633459D02*
X-3414D01*
X177Y629868D01*
Y626277D01*
X-7005Y619095D01*
X-10596D01*
X-14186Y622686D01*
Y626277D01*
X-17777Y629868D02*
X-21368D01*
X-24959Y633459D01*
Y637050D01*
X-17777Y644232D01*
X-14186D01*
X-10596Y640641D01*
Y637050D01*
X-12391Y635255D01*
X-15982D01*
X-21368Y640641D01*
X61100Y679500D02*
Y694735D01*
X53482D01*
X50943Y692196D01*
Y687117D01*
X53482Y684578D01*
X61100D01*
X35708Y692196D02*
X38247Y694735D01*
X43326D01*
X45865Y692196D01*
Y682039D01*
X43326Y679500D01*
X38247D01*
X35708Y682039D01*
X30630Y676961D02*
X20473D01*
X5238Y679500D02*
X15395D01*
X5238Y689657D01*
Y692196D01*
X7777Y694735D01*
X12856D01*
X15395Y692196D01*
X-7458Y679500D02*
Y694735D01*
X160Y687117D01*
X-9997D01*
X-15075Y692196D02*
X-17615Y694735D01*
X-22693D01*
X-25232Y692196D01*
Y682039D01*
X-22693Y679500D01*
X-17615D01*
X-15075Y682039D01*
Y692196D01*
X-30310D02*
X-32850Y694735D01*
X-37928D01*
X-40467Y692196D01*
Y682039D01*
X-37928Y679500D01*
X-32850D01*
X-30310Y682039D01*
Y692196D01*
X-65459Y522295D02*
Y525886D01*
X-61868Y529477D01*
X-58277D01*
X-51095Y522295D01*
Y518705D01*
X-54686Y515114D01*
X-58277D01*
X-60073Y509727D02*
X-63664Y506136D01*
X-61868Y507932D01*
X-72641Y518705D01*
X-69050D01*
X44995Y495559D02*
X48586D01*
X52177Y491968D01*
Y488377D01*
X44995Y481195D01*
X41405D01*
X37814Y484786D01*
Y488377D01*
X25245Y497355D02*
X32427Y490173D01*
Y504537D01*
X34223Y506332D01*
X37814D01*
X41405Y502741D01*
Y499150D01*
X62841Y589395D02*
Y592986D01*
X66432Y596577D01*
X70023D01*
X77204Y589395D01*
Y585804D01*
X73614Y582214D01*
X70023D01*
X59250Y585804D02*
X55659D01*
X52068Y582214D01*
Y578623D01*
X53863Y576827D01*
X57454D01*
X59250Y578623D01*
X57454Y576827D01*
Y573236D01*
X59250Y571441D01*
X62841D01*
X66432Y575032D01*
Y578623D01*
X48441Y605196D02*
Y608786D01*
X52032Y612377D01*
X55623D01*
X62804Y605196D01*
Y601604D01*
X59214Y598014D01*
X55623D01*
X48441Y587241D02*
X37668Y598014D01*
X48441D01*
X41259Y590832D01*
X-46705Y592059D02*
X-43114D01*
X-39523Y588468D01*
Y584877D01*
X-46705Y577696D01*
X-50296D01*
X-53886Y581286D01*
Y584877D01*
X-55682Y604627D02*
X-48500Y597446D01*
X-53886Y592059D01*
X-55682Y597446D01*
X-57477Y599241D01*
X-61068D01*
X-64659Y595650D01*
Y592059D01*
X-61068Y588468D01*
X-57477D01*
X-60905Y579259D02*
X-57314D01*
X-53723Y575668D01*
Y572077D01*
X-60904Y564896D01*
X-64496D01*
X-68086Y568486D01*
Y572077D01*
X-69882Y591828D02*
X-68086Y586441D01*
Y579259D01*
X-71677Y575668D01*
X-75268D01*
X-78859Y579259D01*
Y582850D01*
X-77064Y584646D01*
X-73473D01*
X-68086Y579259D01*
X-50959Y509095D02*
Y512686D01*
X-47368Y516277D01*
X-43777D01*
X-36595Y509095D01*
Y505505D01*
X-40186Y501914D01*
X-43777D01*
X-56346Y507300D02*
X-63527Y500118D01*
X-61732Y498323D01*
X-47368Y498323D01*
X-45573Y496527D01*
X59095Y512359D02*
X62686D01*
X66277Y508768D01*
Y505177D01*
X59096Y497995D01*
X55504D01*
X51914Y501586D01*
Y505177D01*
X55504Y515950D02*
Y519541D01*
X51914Y523132D01*
X48323D01*
X46527Y521337D01*
Y517746D01*
X42936D01*
X41141Y515950D01*
Y512359D01*
X44732Y508768D01*
X48323D01*
X50118Y510564D01*
Y514155D01*
X53709D01*
X55504Y515950D01*
X50118Y514155D02*
X46527Y517746D01*
X116543Y108496D02*
X119082Y111035D01*
X124161D01*
X126700Y108496D01*
Y98339D01*
X124161Y95800D01*
X119082D01*
X116543Y98339D01*
X111465Y95800D02*
X106387D01*
X108926D01*
Y111035D01*
X111465Y108496D01*
X98769Y95800D02*
X93691D01*
X96230D01*
Y111035D01*
X98769Y108496D01*
X346173Y93048D02*
X347103Y89579D01*
X344563Y85182D01*
X341095Y84252D01*
X332299Y89330D01*
X331370Y92799D01*
X333909Y97197D01*
X337377Y98126D01*
X337718Y103794D02*
X340257Y108192D01*
X338987Y105993D01*
X352181Y98375D01*
X348713Y97446D01*
X349144Y123585D02*
X344066Y114789D01*
X357940Y118507D01*
X360139Y117237D01*
X361068Y113768D01*
X358529Y109370D01*
X355060Y108441D01*
X-393917Y171856D02*
X-397385Y172785D01*
X-399924Y177183D01*
X-398995Y180652D01*
X-390199Y185730D01*
X-386730Y184801D01*
X-384191Y180403D01*
X-385121Y176934D01*
X-380382Y173806D02*
X-377843Y169408D01*
X-379113Y171607D01*
X-392307Y163990D01*
X-391377Y167458D01*
X-385029Y156463D02*
X-385959Y152995D01*
X-383420Y148597D01*
X-379951Y147667D01*
X-377752Y148937D01*
X-376823Y152405D01*
X-378092Y154604D01*
X-376823Y152405D01*
X-373354Y151476D01*
X-371155Y152746D01*
X-370226Y156214D01*
X-372765Y160612D01*
X-376233Y161542D01*
X-8657Y406496D02*
X-6118Y409035D01*
X-1039D01*
X1500Y406496D01*
Y396339D01*
X-1039Y393800D01*
X-6118D01*
X-8657Y396339D01*
X-13735Y393800D02*
X-18813D01*
X-16274D01*
Y409035D01*
X-13735Y406496D01*
X-36588Y409035D02*
X-26431D01*
Y401418D01*
X-31509Y403957D01*
X-34049D01*
X-36588Y401418D01*
Y396339D01*
X-34049Y393800D01*
X-28970D01*
X-26431Y396339D01*
X7457Y395304D02*
X4918Y392765D01*
X-161D01*
X-2700Y395304D01*
Y405461D01*
X-161Y408000D01*
X4918D01*
X7457Y405461D01*
X12535Y408000D02*
X17613D01*
X15074D01*
Y392765D01*
X12535Y395304D01*
X35388Y392765D02*
X30309Y395304D01*
X25231Y400382D01*
Y405461D01*
X27770Y408000D01*
X32848D01*
X35388Y405461D01*
Y402922D01*
X32848Y400382D01*
X25231D01*
X-31294Y377058D02*
X-33833Y374519D01*
X-38911D01*
X-41451Y377058D01*
Y387214D01*
X-38911Y389754D01*
X-33833D01*
X-31294Y387214D01*
X-26216Y389754D02*
X-21137D01*
X-23676D01*
Y374519D01*
X-26216Y377058D01*
X-13520Y374519D02*
X-3363D01*
Y377058D01*
X-13520Y387214D01*
Y389754D01*
X26770Y424333D02*
X29309Y426873D01*
X34388D01*
X36927Y424333D01*
Y414177D01*
X34388Y411638D01*
X29309D01*
X26770Y414177D01*
X21692Y411638D02*
X16613D01*
X19152D01*
Y426873D01*
X21692Y424333D01*
X8996D02*
X6457Y426873D01*
X1378D01*
X-1161Y424333D01*
Y421794D01*
X1378Y419255D01*
X-1161Y416716D01*
Y414177D01*
X1378Y411638D01*
X6457D01*
X8996Y414177D01*
Y416716D01*
X6457Y419255D01*
X8996Y421794D01*
Y424333D01*
X6457Y419255D02*
X1378D01*
X121900Y175735D02*
Y160500D01*
X111743D01*
X106665D02*
X101587D01*
X104126D01*
Y175735D01*
X106665Y173196D01*
X248200Y112700D02*
X261394Y105083D01*
X265203Y111679D01*
X264273Y115148D01*
X259875Y117687D01*
X256407Y116758D01*
X252598Y110161D01*
X271891Y128342D02*
X272820Y124873D01*
X270281Y120476D01*
X266812Y119546D01*
X258016Y124624D01*
X257087Y128093D01*
X259626Y132491D01*
X263095Y133420D01*
X261236Y140358D02*
X266314Y149153D01*
X274861Y158879D02*
X288055Y151261D01*
X277650Y148473D01*
X282728Y157269D01*
X289665Y159128D02*
X293134Y160057D01*
X295673Y164455D01*
X294743Y167924D01*
X292544Y169193D01*
X289076Y168264D01*
X287806Y166065D01*
X289076Y168264D01*
X288146Y171733D01*
X285947Y173002D01*
X282479Y172073D01*
X279940Y167675D01*
X280869Y164206D01*
X290096Y185267D02*
X303290Y177649D01*
X292885Y174861D01*
X297963Y183657D01*
X-329200Y249600D02*
X-342394Y241982D01*
X-338585Y235385D01*
X-335117Y234456D01*
X-330719Y236995D01*
X-329789Y240464D01*
X-333598Y247061D01*
X-327499Y221262D02*
X-330968Y222192D01*
X-333507Y226590D01*
X-332577Y230058D01*
X-323782Y235137D01*
X-320313Y234207D01*
X-317774Y229809D01*
X-318703Y226341D01*
X-311766Y224482D02*
X-306688Y215686D01*
X-317342Y203670D02*
X-318272Y200202D01*
X-315733Y195804D01*
X-312264Y194874D01*
X-310065Y196144D01*
X-309136Y199612D01*
X-305667Y198683D01*
X-303468Y199953D01*
X-302539Y203421D01*
X-305078Y207819D01*
X-308546Y208749D01*
X-310745Y207479D01*
X-311675Y204010D01*
X-315143Y204940D01*
X-317342Y203670D01*
X-311675Y204010D02*
X-309136Y199612D01*
X-306845Y180411D02*
X-307186Y186078D01*
X-305327Y193015D01*
X-300929Y195555D01*
X-297460Y194625D01*
X-294921Y190227D01*
X-295851Y186759D01*
X-298050Y185489D01*
X-301518Y186418D01*
X-305327Y193015D01*
X-302107Y177282D02*
X-303037Y173814D01*
X-300497Y169416D01*
X-297029Y168486D01*
X-294830Y169756D01*
X-293901Y173225D01*
X-290432Y172295D01*
X-288233Y173565D01*
X-287304Y177033D01*
X-289843Y181431D01*
X-293311Y182361D01*
X-295510Y181091D01*
X-296440Y177623D01*
X-299908Y178552D01*
X-302107Y177282D01*
X-296440Y177623D02*
X-293901Y173225D01*
X-268600Y328600D02*
Y343835D01*
X-276217D01*
X-278757Y341296D01*
Y336218D01*
X-276217Y333678D01*
X-268600D01*
X-273678D02*
X-278757Y328600D01*
X-283835D02*
X-288913D01*
X-286374D01*
Y343835D01*
X-283835Y341296D01*
X-246300Y264900D02*
Y280135D01*
X-253918D01*
X-256457Y277596D01*
Y272518D01*
X-253918Y269978D01*
X-246300D01*
X-251378D02*
X-256457Y264900D01*
X-271692D02*
X-261535D01*
X-271692Y275057D01*
Y277596D01*
X-269153Y280135D01*
X-264074D01*
X-261535Y277596D01*
X-29100Y622600D02*
X-39873Y633373D01*
X-45259Y627986D01*
Y624395D01*
X-41668Y620804D01*
X-38077D01*
X-32691Y626191D01*
X-36282Y622600D02*
Y615418D01*
X-45259Y606441D02*
X-56032Y617214D01*
X-45259D01*
X-52441Y610032D01*
X211300Y339500D02*
Y354735D01*
X203682D01*
X201143Y352196D01*
Y347118D01*
X203682Y344578D01*
X211300D01*
X206222D02*
X201143Y339500D01*
X185908Y354735D02*
X196065D01*
Y347118D01*
X190987Y349657D01*
X188447D01*
X185908Y347118D01*
Y342039D01*
X188447Y339500D01*
X193526D01*
X196065Y342039D01*
X211000Y306400D02*
Y321635D01*
X203382D01*
X200843Y319096D01*
Y314018D01*
X203382Y311478D01*
X211000D01*
X205922D02*
X200843Y306400D01*
X185608Y321635D02*
X190687Y319096D01*
X195765Y314018D01*
Y308939D01*
X193226Y306400D01*
X188147D01*
X185608Y308939D01*
Y311478D01*
X188147Y314018D01*
X195765D01*
X211600Y274900D02*
Y290135D01*
X203982D01*
X201443Y287596D01*
Y282518D01*
X203982Y279978D01*
X211600D01*
X206522D02*
X201443Y274900D01*
X196365Y290135D02*
X186208D01*
Y287596D01*
X196365Y277439D01*
Y274900D01*
X-144100Y330600D02*
Y345835D01*
X-151718D01*
X-154257Y343296D01*
Y338218D01*
X-151718Y335678D01*
X-144100D01*
X-149178D02*
X-154257Y330600D01*
X-159335Y343296D02*
X-161874Y345835D01*
X-166953D01*
X-169492Y343296D01*
Y340757D01*
X-166953Y338218D01*
X-169492Y335678D01*
Y333139D01*
X-166953Y330600D01*
X-161874D01*
X-159335Y333139D01*
Y335678D01*
X-161874Y338218D01*
X-159335Y340757D01*
Y343296D01*
X-161874Y338218D02*
X-166953D01*
X-120500Y263400D02*
Y278635D01*
X-128118D01*
X-130657Y276096D01*
Y271017D01*
X-128118Y268478D01*
X-120500D01*
X-125578D02*
X-130657Y263400D01*
X-135735Y265939D02*
X-138274Y263400D01*
X-143353D01*
X-145892Y265939D01*
Y276096D01*
X-143353Y278635D01*
X-138274D01*
X-135735Y276096D01*
Y273557D01*
X-138274Y271017D01*
X-145892D01*
X-14500Y332100D02*
Y347335D01*
X-22118D01*
X-24657Y344796D01*
Y339718D01*
X-22118Y337178D01*
X-14500D01*
X-19578D02*
X-24657Y332100D01*
X-29735D02*
X-34813D01*
X-32274D01*
Y347335D01*
X-29735Y344796D01*
X-52588Y332100D02*
X-42431D01*
X-52588Y342257D01*
Y344796D01*
X-50048Y347335D01*
X-44970D01*
X-42431Y344796D01*
X9300Y267200D02*
Y282435D01*
X1682D01*
X-857Y279896D01*
Y274818D01*
X1682Y272278D01*
X9300D01*
X4222D02*
X-857Y267200D01*
X-5935D02*
X-11013D01*
X-8474D01*
Y282435D01*
X-5935Y279896D01*
X-18631D02*
X-21170Y282435D01*
X-26249D01*
X-28788Y279896D01*
Y277357D01*
X-26249Y274818D01*
X-23709D01*
X-26249D01*
X-28788Y272278D01*
Y269739D01*
X-26249Y267200D01*
X-21170D01*
X-18631Y269739D01*
X236600Y145400D02*
Y160635D01*
X228982D01*
X226443Y158096D01*
Y153018D01*
X228982Y150478D01*
X236600D01*
X231522D02*
X226443Y145400D01*
X221365D02*
X216287D01*
X218826D01*
Y160635D01*
X221365Y158096D01*
X201052Y145400D02*
Y160635D01*
X208669Y153018D01*
X198512D01*
X195296Y-1743D02*
X197835Y-4283D01*
Y-9361D01*
X195296Y-11900D01*
X185139D01*
X182600Y-9361D01*
Y-4283D01*
X185139Y-1743D01*
X182600Y3335D02*
Y8413D01*
Y5874D01*
X197835D01*
X195296Y3335D01*
Y16031D02*
X197835Y18570D01*
Y23649D01*
X195296Y26188D01*
X185139D01*
X182600Y23649D01*
Y18570D01*
X185139Y16031D01*
X195296D01*
X44143Y773796D02*
X46683Y776335D01*
X51761D01*
X54300Y773796D01*
Y763639D01*
X51761Y761100D01*
X46683D01*
X44143Y763639D01*
X39065Y761100D02*
X33987D01*
X36526D01*
Y776335D01*
X39065Y773796D01*
X18751Y761100D02*
Y776335D01*
X26369Y768717D01*
X16212D01*
X355673Y133634D02*
X368867Y126016D01*
X372676Y132613D01*
X371746Y136082D01*
X367349Y138621D01*
X363880Y137692D01*
X360071Y131095D01*
X362610Y135493D02*
X360751Y142430D01*
X363291Y146828D02*
X365830Y151226D01*
X364560Y149027D01*
X377754Y141409D01*
X374286Y140480D01*
X387911Y159001D02*
X383173Y155873D01*
X376236Y154014D01*
X371838Y156553D01*
X370908Y160022D01*
X373447Y164420D01*
X376916Y165349D01*
X379115Y164080D01*
X380044Y160611D01*
X376236Y154014D01*
X-323000Y156500D02*
X-336194Y148883D01*
X-332385Y142285D01*
X-328917Y141356D01*
X-324519Y143895D01*
X-323589Y147364D01*
X-327398Y153961D01*
X-324859Y149563D02*
X-317922Y147704D01*
X-315382Y143306D02*
X-312843Y138908D01*
X-314113Y141107D01*
X-327307Y133490D01*
X-326377Y136958D01*
X-322229Y124693D02*
X-317150Y115898D01*
X-314951Y117167D01*
X-311234Y131041D01*
X-309035Y132311D01*
X-500Y754900D02*
Y770135D01*
X-8117D01*
X-10657Y767596D01*
Y762517D01*
X-8117Y759978D01*
X-500D01*
X-5578D02*
X-10657Y754900D01*
X-15735D02*
X-20813D01*
X-18274D01*
Y770135D01*
X-15735Y767596D01*
X-28431D02*
X-30970Y770135D01*
X-36049D01*
X-38588Y767596D01*
Y765057D01*
X-36049Y762517D01*
X-38588Y759978D01*
Y757439D01*
X-36049Y754900D01*
X-30970D01*
X-28431Y757439D01*
Y759978D01*
X-30970Y762517D01*
X-28431Y765057D01*
Y767596D01*
X-30970Y762517D02*
X-36049D01*
X52400Y233296D02*
X49861Y235835D01*
X44783D01*
X42243Y233296D01*
Y230757D01*
X44783Y228218D01*
X47322D01*
X44783D01*
X42243Y225678D01*
Y223139D01*
X44783Y220600D01*
X49861D01*
X52400Y223139D01*
X37165Y233296D02*
X34626Y235835D01*
X29547D01*
X27008Y233296D01*
Y223139D01*
X29547Y220600D01*
X34626D01*
X37165Y223139D01*
Y233296D01*
X21930Y220600D02*
Y223139D01*
X19391D01*
Y220600D01*
X21930D01*
X9234Y233296D02*
X6695Y235835D01*
X1616D01*
X-923Y233296D01*
Y230757D01*
X1616Y228218D01*
X4156D01*
X1616D01*
X-923Y225678D01*
Y223139D01*
X1616Y220600D01*
X6695D01*
X9234Y223139D01*
X-6001Y220600D02*
Y230757D01*
X-8540D01*
X-11079Y228218D01*
Y220600D01*
Y228218D01*
X-13619Y230757D01*
X-16158Y228218D01*
Y220600D01*
X-21236D02*
Y230757D01*
X-23775D01*
X-26314Y228218D01*
Y220600D01*
Y228218D01*
X-28854Y230757D01*
X-31393Y228218D01*
Y220600D01*
X142600Y334643D02*
Y344800D01*
X132443Y334643D01*
X129904D01*
X127365Y337183D01*
Y342261D01*
X129904Y344800D01*
Y329565D02*
X127365Y327026D01*
Y321947D01*
X129904Y319408D01*
X140061D01*
X142600Y321947D01*
Y327026D01*
X140061Y329565D01*
X129904D01*
X142600Y314330D02*
X132443D01*
Y311791D01*
X134983Y309251D01*
X142600D01*
X134983D01*
X132443Y306712D01*
X134983Y304173D01*
X142600D01*
Y299095D02*
X132443D01*
Y296556D01*
X134983Y294016D01*
X142600D01*
X134983D01*
X132443Y291477D01*
X134983Y288938D01*
X142600D01*
D19*
X8128Y540285D02*
X13785Y534628D01*
X-3185Y528972D02*
X2472Y523315D01*
X306619Y143873D02*
X312681Y140373D01*
X291119Y117027D02*
X297181Y113527D01*
X312681Y140373D01*
X291119Y117027D02*
X306619Y143873D01*
X107700Y149200D02*
X113700D01*
X107700Y124200D02*
X113700D01*
X107700D02*
Y149200D01*
X109600Y124200D02*
Y149200D01*
X151600Y110700D02*
X156600D01*
X151600Y79700D02*
X156600D01*
Y110700D01*
X151600Y79700D02*
Y110700D01*
X23800Y712900D02*
Y719900D01*
X54800Y712900D02*
Y719900D01*
X23800D02*
X54800D01*
X23800Y712900D02*
X54800D01*
X-337281Y179327D02*
X-331219Y182827D01*
X-352781Y206173D02*
X-346719Y209673D01*
X-352781Y206173D02*
X-337281Y179327D01*
X-346719Y209673D02*
X-331219Y182827D01*
X-139900Y4000D02*
X-113900D01*
X-92900Y5000D02*
X-82900D01*
X-170900D02*
X-160900D01*
X-151700Y211900D02*
X151300Y411900D01*
X-151700D02*
X151300Y211900D01*
X-151700D02*
X151300D01*
X-151700Y411900D02*
X151300D01*
Y211900D02*
Y411900D01*
X-151700Y211900D02*
Y411900D01*
X-241700Y21900D02*
Y601900D01*
X241300Y21900D02*
Y601900D01*
X-241700D02*
X241300D01*
X-241700Y21900D02*
X241300D01*
X-80700D02*
Y601900D01*
X80300Y21900D02*
Y601900D01*
X-324400Y438800D02*
X-330172Y442132D01*
X-334724Y440913D01*
X-333504Y436361D01*
X-327732Y433028D01*
X-332061Y435528D01*
X-328729Y441299D01*
X-328179Y425591D02*
X-329012Y424148D01*
X-331288Y423538D01*
X-338502Y427703D01*
X-336003Y432032D01*
X-333727Y432642D01*
X-330841Y430976D01*
X-330232Y428700D01*
X-332731Y424371D01*
X-340168Y424817D02*
X-335840Y422318D01*
X-335230Y420042D01*
X-337729Y415713D01*
X-343501Y419046D01*
X-339395Y412828D02*
X-341894Y408499D01*
X-344170Y407889D01*
X-344780Y410165D01*
X-343114Y413051D01*
X-343724Y415327D01*
X-346000Y414717D01*
X-348499Y410388D01*
X-352441Y406893D02*
X-350998Y406059D01*
X-350165Y407502D01*
X-351831Y404617D01*
X-350998Y406059D01*
X-346670Y403560D01*
X-346060Y401284D01*
X-348559Y396956D02*
X-350225Y394070D01*
X-349392Y395513D01*
X-355164Y398845D01*
X-354330Y400288D01*
X-352724Y389741D02*
X-358496Y393073D01*
X-360995Y388745D01*
X-360385Y386469D01*
X-356057Y383969D01*
X-371379Y377425D02*
X-374711Y371653D01*
X-373045Y374539D01*
X-364387Y369540D01*
X-370219Y359440D02*
X-368553Y362326D01*
X-369162Y364602D01*
X-372048Y366268D01*
X-374324Y365658D01*
X-375990Y362772D01*
X-375380Y360496D01*
X-373937Y359663D01*
X-370605Y365435D01*
X-372718Y355111D02*
X-378489Y358443D01*
X-380989Y354115D01*
X-380379Y351839D01*
X-376050Y349340D01*
X-384321Y348343D02*
X-385987Y345457D01*
X-385377Y343181D01*
X-381048Y340682D01*
X-378549Y345011D01*
X-379159Y347287D01*
X-381435Y346677D01*
X-383934Y342348D01*
X-398260Y327533D02*
X-398870Y329809D01*
X-397203Y332694D01*
X-394927Y333304D01*
X-389156Y329972D01*
X-388546Y327696D01*
X-390212Y324810D01*
X-392488Y324200D01*
X-395374Y325866D01*
X-393708Y328752D01*
X-399316Y322371D02*
X-400982Y319485D01*
X-400372Y317209D01*
X-396044Y314710D01*
X-393544Y319038D01*
X-394154Y321314D01*
X-396430Y320704D01*
X-398929Y316376D01*
X-403481Y315156D02*
X-397710Y311824D01*
X-400596Y313490D01*
X-402872Y312880D01*
X-405148Y312270D01*
X-405980Y310827D01*
X-411812Y300727D02*
X-409313Y305056D01*
X-407037Y305666D01*
X-404151Y304000D01*
X-403541Y301723D01*
X-406040Y297395D01*
X-407706Y294509D02*
X-409373Y291623D01*
X-408540Y293066D01*
X-414311Y296398D01*
X-413478Y297841D01*
X-418476Y289184D02*
X-420143Y286298D01*
X-419533Y284022D01*
X-415204Y281523D01*
X-412705Y285851D01*
X-413315Y288127D01*
X-415591Y287518D01*
X-418090Y283189D01*
X-325105Y412589D02*
X-326771Y409703D01*
X-326161Y407428D01*
X-321832Y404928D01*
X-319333Y409257D01*
X-319943Y411533D01*
X-322219Y410923D01*
X-324718Y406595D01*
X-322279Y397491D02*
X-323112Y396048D01*
X-325388Y395438D01*
X-332602Y399603D01*
X-330103Y403932D01*
X-327827Y404542D01*
X-324941Y402876D01*
X-324332Y400600D01*
X-326831Y396271D01*
X-334268Y396717D02*
X-329940Y394218D01*
X-329330Y391942D01*
X-331829Y387613D01*
X-337601Y390946D01*
X-333495Y384728D02*
X-335994Y380399D01*
X-338270Y379789D01*
X-338880Y382065D01*
X-337214Y384951D01*
X-337824Y387227D01*
X-340100Y386617D01*
X-342599Y382288D01*
X-343879Y373408D02*
X-345322Y374241D01*
X-344488Y375684D01*
X-343046Y374851D01*
X-343879Y373408D01*
X-346155Y372798D01*
X-349040Y374464D01*
X-349650Y376740D01*
X-347984Y379626D01*
X-345708Y380235D01*
X-339936Y376903D01*
X-339327Y374627D01*
X-341826Y370299D01*
X-355482Y366639D02*
X-346824Y361641D01*
X-344325Y365970D01*
X-344935Y368246D01*
X-347821Y369912D01*
X-350097Y369302D01*
X-352596Y364973D01*
X-348490Y358755D02*
X-350156Y355869D01*
X-349323Y357312D01*
X-355095Y360645D01*
X-354262Y362088D01*
X-355155Y347212D02*
X-353489Y350098D01*
X-354099Y352374D01*
X-356984Y354040D01*
X-359260Y353430D01*
X-360927Y350544D01*
X-360317Y348268D01*
X-358874Y347435D01*
X-355541Y353207D01*
X-357654Y342883D02*
X-359097Y343716D01*
X-359930Y342273D01*
X-358487Y341440D01*
X-357654Y342883D01*
X-367591Y339001D02*
X-363262Y336502D01*
X-362652Y334226D01*
X-365152Y329897D01*
X-370923Y333229D01*
X-363932Y325345D02*
X-372589Y330344D01*
X-375089Y326015D01*
X-374479Y323739D01*
X-371593Y322073D01*
X-369317Y322682D01*
X-366818Y327011D01*
X-371816Y318354D02*
X-377588Y321686D01*
X-378421Y320243D01*
X-377811Y317967D01*
X-373482Y315468D01*
X-377811Y317967D01*
X-380087Y317357D01*
X-379477Y315081D01*
X-375148Y312582D01*
X-376814Y309696D02*
X-378257Y310529D01*
X-379090Y309086D01*
X-377648Y308253D01*
X-376814Y309696D01*
X-383479Y298153D02*
X-381813Y301039D01*
X-382423Y303315D01*
X-385309Y304981D01*
X-387584Y304371D01*
X-389251Y301485D01*
X-388641Y299209D01*
X-387198Y298376D01*
X-383866Y304148D01*
X-385978Y293824D02*
X-388477Y289496D01*
X-390753Y288886D01*
X-391363Y291162D01*
X-389697Y294048D01*
X-390307Y296324D01*
X-392583Y295714D01*
X-395082Y291385D01*
D54*
X322667Y138505D02*
G03*
X322667Y138505I-1250J0D01*
G01*
X167350Y113450D02*
G03*
X167350Y113450I-1250J0D01*
G01*
X22300Y728400D02*
G03*
X22300Y728400I-1250J0D01*
G01*
X-342017Y172695D02*
G03*
X-342017Y172695I-1250J0D01*
G01*
D57*
X143431Y11231D02*
Y5583D01*
X141548Y3700D01*
X137783D01*
X135900Y5583D01*
Y11231D01*
Y16879D02*
Y20645D01*
X137783Y22527D01*
X141548D01*
X143431Y20645D01*
Y16879D01*
X141548Y14996D01*
X137783D01*
X135900Y16879D01*
Y26293D02*
X143431D01*
Y31941D01*
X141548Y33824D01*
X135900D01*
X143431Y37589D02*
X135900Y41354D01*
X143431Y45120D01*
X145314Y48885D02*
X147196Y50768D01*
Y54534D01*
X145314Y56416D01*
X143431D01*
X141548Y54534D01*
Y52651D01*
Y54534D01*
X139665Y56416D01*
X137783D01*
X135900Y54534D01*
Y50768D01*
X137783Y48885D01*
X135900Y60182D02*
X137783D01*
Y62064D01*
X135900D01*
Y60182D01*
X145314Y69595D02*
X147196Y71478D01*
Y75244D01*
X145314Y77126D01*
X143431D01*
X141548Y75244D01*
Y73361D01*
Y75244D01*
X139665Y77126D01*
X137783D01*
X135900Y75244D01*
Y71478D01*
X137783Y69595D01*
M02*
