%FSLAX44Y44*%
%MOMM*%
G71*
G01*
G75*
G04 Layer_Physical_Order=2*
G04 Layer_Color=16711680*
%ADD10C,0.2540*%
%ADD11R,2.0320X2.0320*%
%ADD12R,5.5000X1.5000*%
G04:AMPARAMS|DCode=13|XSize=0.24mm|YSize=1.8mm|CornerRadius=0mm|HoleSize=0mm|Usage=FLASHONLY|Rotation=315.000|XOffset=0mm|YOffset=0mm|HoleType=Round|Shape=Round|*
%AMOVALD13*
21,1,1.5600,0.2400,0.0000,0.0000,45.0*
1,1,0.2400,-0.5515,-0.5515*
1,1,0.2400,0.5515,0.5515*
%
%ADD13OVALD13*%

G04:AMPARAMS|DCode=14|XSize=0.24mm|YSize=1.8mm|CornerRadius=0mm|HoleSize=0mm|Usage=FLASHONLY|Rotation=225.000|XOffset=0mm|YOffset=0mm|HoleType=Round|Shape=Round|*
%AMOVALD14*
21,1,1.5600,0.2400,0.0000,0.0000,315.0*
1,1,0.2400,-0.5515,0.5515*
1,1,0.2400,0.5515,-0.5515*
%
%ADD14OVALD14*%

%ADD15R,0.8000X0.9000*%
%ADD16P,2.8737X4X285.0*%
%ADD17P,2.8737X4X345.0*%
%ADD18C,0.4000*%
%ADD19C,0.2000*%
%ADD20C,0.7000*%
%ADD21C,0.5000*%
%ADD22C,0.3000*%
%ADD23C,1.2000*%
G04:AMPARAMS|DCode=24|XSize=1.9mm|YSize=1.1mm|CornerRadius=0mm|HoleSize=0mm|Usage=FLASHONLY|Rotation=90.000|XOffset=0mm|YOffset=0mm|HoleType=Round|Shape=Octagon|*
%AMOCTAGOND24*
4,1,8,0.2750,0.9500,-0.2750,0.9500,-0.5500,0.6750,-0.5500,-0.6750,-0.2750,-0.9500,0.2750,-0.9500,0.5500,-0.6750,0.5500,0.6750,0.2750,0.9500,0.0*
%
%ADD24OCTAGOND24*%

%ADD25O,1.1500X1.2500*%
%ADD26C,1.3000*%
%ADD27C,1.5000*%
%ADD28C,1.7000*%
%ADD29C,4.8260*%
%ADD30C,1.5240*%
%ADD31R,1.5240X1.5240*%
%ADD32R,1.5000X1.5000*%
%ADD33C,0.8000*%
%ADD34C,1.2700*%
%ADD35C,3.8000*%
%ADD36C,3.3020*%
G04:AMPARAMS|DCode=37|XSize=0.9mm|YSize=0.8mm|CornerRadius=0mm|HoleSize=0mm|Usage=FLASHONLY|Rotation=45.000|XOffset=0mm|YOffset=0mm|HoleType=Round|Shape=Rectangle|*
%AMROTATEDRECTD37*
4,1,4,-0.0354,-0.6010,-0.6010,-0.0354,0.0354,0.6010,0.6010,0.0354,-0.0354,-0.6010,0.0*
%
%ADD37ROTATEDRECTD37*%

G04:AMPARAMS|DCode=38|XSize=0.9mm|YSize=0.8mm|CornerRadius=0mm|HoleSize=0mm|Usage=FLASHONLY|Rotation=315.000|XOffset=0mm|YOffset=0mm|HoleType=Round|Shape=Rectangle|*
%AMROTATEDRECTD38*
4,1,4,-0.6010,0.0354,-0.0354,0.6010,0.6010,-0.0354,0.0354,-0.6010,-0.6010,0.0354,0.0*
%
%ADD38ROTATEDRECTD38*%

G04:AMPARAMS|DCode=39|XSize=1.8mm|YSize=1.3mm|CornerRadius=0mm|HoleSize=0mm|Usage=FLASHONLY|Rotation=45.000|XOffset=0mm|YOffset=0mm|HoleType=Round|Shape=Rectangle|*
%AMROTATEDRECTD39*
4,1,4,-0.1768,-1.0960,-1.0960,-0.1768,0.1768,1.0960,1.0960,0.1768,-0.1768,-1.0960,0.0*
%
%ADD39ROTATEDRECTD39*%

G04:AMPARAMS|DCode=40|XSize=0.65mm|YSize=0.9mm|CornerRadius=0mm|HoleSize=0mm|Usage=FLASHONLY|Rotation=60.000|XOffset=0mm|YOffset=0mm|HoleType=Round|Shape=Rectangle|*
%AMROTATEDRECTD40*
4,1,4,0.2272,-0.5065,-0.5522,-0.0565,-0.2272,0.5065,0.5522,0.0565,0.2272,-0.5065,0.0*
%
%ADD40ROTATEDRECTD40*%

%ADD41R,1.6000X2.7000*%
%ADD42R,0.9000X0.8000*%
%ADD43R,1.1000X0.6500*%
G04:AMPARAMS|DCode=44|XSize=0.9mm|YSize=0.8mm|CornerRadius=0mm|HoleSize=0mm|Usage=FLASHONLY|Rotation=210.000|XOffset=0mm|YOffset=0mm|HoleType=Round|Shape=Rectangle|*
%AMROTATEDRECTD44*
4,1,4,0.1897,0.5714,0.5897,-0.1214,-0.1897,-0.5714,-0.5897,0.1214,0.1897,0.5714,0.0*
%
%ADD44ROTATEDRECTD44*%

G04:AMPARAMS|DCode=45|XSize=0.9mm|YSize=0.8mm|CornerRadius=0mm|HoleSize=0mm|Usage=FLASHONLY|Rotation=330.000|XOffset=0mm|YOffset=0mm|HoleType=Round|Shape=Rectangle|*
%AMROTATEDRECTD45*
4,1,4,-0.5897,-0.1214,-0.1897,0.5714,0.5897,0.1214,0.1897,-0.5714,-0.5897,-0.1214,0.0*
%
%ADD45ROTATEDRECTD45*%

%ADD46R,0.6500X0.9000*%
G04:AMPARAMS|DCode=47|XSize=0.65mm|YSize=0.9mm|CornerRadius=0mm|HoleSize=0mm|Usage=FLASHONLY|Rotation=300.000|XOffset=0mm|YOffset=0mm|HoleType=Round|Shape=Rectangle|*
%AMROTATEDRECTD47*
4,1,4,-0.5522,0.0565,0.2272,0.5065,0.5522,-0.0565,-0.2272,-0.5065,-0.5522,0.0565,0.0*
%
%ADD47ROTATEDRECTD47*%

%ADD48R,0.4000X1.5500*%
%ADD49R,2.9000X1.9000*%
G04:AMPARAMS|DCode=50|XSize=0.9mm|YSize=0.8mm|CornerRadius=0mm|HoleSize=0mm|Usage=FLASHONLY|Rotation=120.000|XOffset=0mm|YOffset=0mm|HoleType=Round|Shape=Rectangle|*
%AMROTATEDRECTD50*
4,1,4,0.5714,-0.1897,-0.1214,-0.5897,-0.5714,0.1897,0.1214,0.5897,0.5714,-0.1897,0.0*
%
%ADD50ROTATEDRECTD50*%

G04:AMPARAMS|DCode=51|XSize=0.9mm|YSize=0.8mm|CornerRadius=0mm|HoleSize=0mm|Usage=FLASHONLY|Rotation=240.000|XOffset=0mm|YOffset=0mm|HoleType=Round|Shape=Rectangle|*
%AMROTATEDRECTD51*
4,1,4,-0.1214,0.5897,0.5714,0.1897,0.1214,-0.5897,-0.5714,-0.1897,-0.1214,0.5897,0.0*
%
%ADD51ROTATEDRECTD51*%

%ADD52C,0.9000*%
%ADD53R,0.1200X0.2200*%
G36*
X97977Y614431D02*
X97272Y613375D01*
X95900Y613943D01*
X93563D01*
X93323Y614523D01*
X89496Y616108D01*
X85670Y614523D01*
X84085Y610696D01*
X85670Y606869D01*
X89496Y605284D01*
X93323Y606869D01*
X93416Y607094D01*
X94662Y607341D01*
X95553Y606451D01*
Y581300D01*
X96504Y579004D01*
X142553Y532955D01*
Y505400D01*
X142553Y505400D01*
X142553Y505400D01*
X143504Y503104D01*
X249904Y396704D01*
X249904D01*
X249904D01*
X249904Y396704D01*
X249904Y396704D01*
X252200Y395753D01*
X295155D01*
X319653Y371255D01*
Y330299D01*
X318479Y329813D01*
X266796Y381496D01*
Y381496D01*
D01*
Y381496D01*
X266807Y381553D01*
X276655D01*
X284828Y373380D01*
X284588Y372800D01*
X286173Y368973D01*
X290000Y367388D01*
X293827Y368973D01*
X295412Y372800D01*
X293827Y376627D01*
X290000Y378212D01*
X289420Y377972D01*
X280296Y387096D01*
Y387096D01*
D01*
Y387096D01*
X280367Y387453D01*
X284739D01*
X285973Y384473D01*
X289800Y382888D01*
X293627Y384473D01*
X295212Y388300D01*
X293627Y392127D01*
X289800Y393712D01*
X288884Y393332D01*
X287400Y393947D01*
X248645D01*
X127996Y514596D01*
X125700Y515547D01*
X125459Y515447D01*
X121957D01*
X121427Y516727D01*
X117600Y518312D01*
X113773Y516727D01*
X112188Y512900D01*
X113773Y509073D01*
X117600Y507488D01*
X121136Y508953D01*
X124455D01*
X129087Y504320D01*
X128601Y503147D01*
X121667D01*
X121427Y503727D01*
X117600Y505312D01*
X113773Y503727D01*
X112188Y499900D01*
X113773Y496073D01*
X117600Y494488D01*
X121427Y496073D01*
X121667Y496653D01*
X128455D01*
X241487Y383620D01*
X241001Y382447D01*
X217445D01*
X98296Y501596D01*
X96000Y502547D01*
X51057D01*
X48761Y501596D01*
X5444Y458279D01*
X4271Y458765D01*
Y459553D01*
X4386Y459830D01*
X-5386D01*
X-4695Y458162D01*
X-5401Y457106D01*
X-41309D01*
X-41773Y458227D01*
X-45600Y459812D01*
X-49427Y458227D01*
X-51012Y454400D01*
X-49427Y450573D01*
X-45600Y448988D01*
X-41773Y450573D01*
X-41309Y451694D01*
X-29116D01*
X-28410Y450638D01*
X-28755Y449807D01*
X-30238Y448324D01*
X-31900Y449012D01*
X-35727Y447427D01*
X-37312Y443600D01*
X-35727Y439773D01*
X-31900Y438188D01*
X-28073Y439773D01*
X-26488Y443600D01*
X-27176Y445262D01*
X-25944Y446494D01*
X-22288D01*
X-21583Y445438D01*
X-23918Y439800D01*
X-23558Y438931D01*
X-30144Y432344D01*
X-31571Y428900D01*
Y423600D01*
X-31700D01*
Y412600D01*
X-21700D01*
Y423600D01*
X-21829D01*
Y426882D01*
X-16669Y432042D01*
X-15800Y431682D01*
X-10060Y434060D01*
X-7682Y439800D01*
X-10060Y445540D01*
Y445540D01*
Y445540D01*
X-9870Y446494D01*
X7993D01*
X9300Y445953D01*
X9300Y445953D01*
Y445953D01*
X9465Y445554D01*
X9460Y445540D01*
X9460Y445540D01*
X7082Y439800D01*
X9460Y434060D01*
X15200Y431682D01*
X16070Y432042D01*
X20729Y427383D01*
Y423400D01*
X20600D01*
Y412400D01*
X30600D01*
Y423400D01*
X30471D01*
Y429400D01*
X29044Y432844D01*
X22958Y438931D01*
X23318Y439800D01*
X20940Y445540D01*
X15200Y447918D01*
X13786Y447332D01*
X13080Y448388D01*
X55445Y490753D01*
X76561D01*
X76809Y489507D01*
X76373Y489327D01*
X74788Y485500D01*
X76373Y481673D01*
X76683Y481545D01*
X77521Y479521D01*
X114112Y442931D01*
Y441503D01*
X113056Y440798D01*
X109400Y442312D01*
X105573Y440727D01*
X103988Y436900D01*
X105573Y433073D01*
X106153Y432833D01*
Y292845D01*
X100392Y287084D01*
X99336Y287789D01*
X99547Y288300D01*
X99547Y288300D01*
X99547Y288300D01*
Y433133D01*
X100127Y433373D01*
X101712Y437200D01*
X100127Y441027D01*
X96300Y442612D01*
X92473Y441027D01*
X90888Y437200D01*
X92473Y433373D01*
X93053Y433133D01*
Y289645D01*
X-80213Y116379D01*
X-81459Y116627D01*
X-81787Y117421D01*
X86096Y285304D01*
X87047Y287600D01*
X87047Y287600D01*
X87047Y287600D01*
Y433233D01*
X87627Y433473D01*
X89212Y437300D01*
X87627Y441127D01*
X83800Y442712D01*
X79973Y441127D01*
X78388Y437300D01*
X79973Y433473D01*
X80553Y433233D01*
Y288945D01*
X76220Y284613D01*
X75047Y285099D01*
Y433833D01*
X75627Y434073D01*
X77212Y437900D01*
X75627Y441727D01*
X71800Y443312D01*
X67973Y441727D01*
X66388Y437900D01*
X67973Y434073D01*
X68553Y433833D01*
Y285645D01*
X-88107Y128986D01*
X-89280Y129472D01*
Y145820D01*
X-106520D01*
Y129245D01*
X-106520Y129245D01*
X-106520D01*
X-106520Y128580D01*
X-106753Y128347D01*
X-118893D01*
X-119140Y129593D01*
X-116703Y130603D01*
X-113970Y137200D01*
X-116703Y143798D01*
X-123300Y146530D01*
X-129897Y143798D01*
X-130429Y142514D01*
X-131674Y142267D01*
X-146353Y156945D01*
Y161814D01*
X-145108Y162062D01*
X-145331Y162600D01*
X-144805Y163870D01*
X-127196D01*
X-129403Y169198D01*
X-131116Y169907D01*
X-130868Y171153D01*
X-123745D01*
X-118542Y165950D01*
X-119930Y162600D01*
X-117198Y156003D01*
X-110600Y153270D01*
X-104003Y156003D01*
X-101270Y162600D01*
X-104003Y169198D01*
X-110600Y171930D01*
X-113950Y170543D01*
X-120104Y176696D01*
X-122400Y177647D01*
X-144855D01*
X-159231Y192024D01*
X-158526Y193079D01*
X-151700Y190252D01*
X-136393Y196593D01*
X-130052Y211900D01*
X-136393Y227207D01*
X-151700Y233548D01*
X-167007Y227207D01*
X-173348Y211900D01*
X-170520Y205074D01*
X-171576Y204369D01*
X-181653Y214445D01*
Y419855D01*
X-180620Y420887D01*
X-179447Y420401D01*
Y396400D01*
X-178496Y394104D01*
X-167247Y382855D01*
Y377667D01*
X-167827Y377427D01*
X-169412Y373600D01*
X-167827Y369773D01*
X-164000Y368188D01*
X-160173Y369773D01*
X-158588Y373600D01*
X-160173Y377427D01*
X-160753Y377667D01*
Y384200D01*
X-161704Y386496D01*
X-172953Y397745D01*
Y407691D01*
X-171707Y407939D01*
X-167007Y396593D01*
X-151700Y390252D01*
X-136393Y396593D01*
X-130052Y411900D01*
X-136393Y427207D01*
X-151700Y433548D01*
X-164159Y428387D01*
X-164865Y429443D01*
X-102704Y491604D01*
X-102704Y491604D01*
X-102704Y491604D01*
X-101753Y493900D01*
Y554255D01*
X-98224Y557784D01*
X-96979Y557536D01*
X-97212Y558100D01*
X-96721Y559286D01*
X-96637Y559370D01*
X-93070D01*
Y562937D01*
X-92986Y563021D01*
X-91800Y563512D01*
X-92079Y563929D01*
X-41755Y614253D01*
X-34585D01*
X-34099Y613079D01*
X-38375Y608803D01*
X-30597Y601025D01*
X-28490Y603132D01*
X-26379Y601021D01*
X-26379Y601021D01*
X-25039Y600466D01*
X-23700Y599912D01*
X-23700Y599912D01*
X-10688D01*
X-10672Y599873D01*
X-10634Y599857D01*
Y589637D01*
X-15174Y585096D01*
X-8103Y578025D01*
X-3709Y582420D01*
X-2653Y581714D01*
X-2721Y581550D01*
Y578068D01*
X-8705Y572084D01*
X-8797Y572175D01*
X-11788Y569184D01*
X-8254Y565650D01*
D01*
X-8252Y565648D01*
X-8250Y565647D01*
D01*
X-4717Y562113D01*
X-1726Y565104D01*
X-1817Y565195D01*
X1455Y568467D01*
X1796Y568126D01*
X2241Y568571D01*
X9606Y561206D01*
X10227Y560949D01*
X10635Y559965D01*
D01*
D01*
X10318Y559200D01*
Y557000D01*
X10635Y556235D01*
X11400Y555918D01*
X12600D01*
X13365Y556235D01*
X13682Y557000D01*
X14635Y557394D01*
X14804Y557226D01*
X14995Y557417D01*
X18217Y554195D01*
X18126Y554104D01*
X19190Y553040D01*
X18484Y551984D01*
X16300Y552888D01*
X16300Y552888D01*
X2094D01*
X-551Y551793D01*
X-3185Y554427D01*
X-9358Y548254D01*
X-4057Y542953D01*
D01*
X-4055Y542951D01*
X-4053Y542949D01*
D01*
X1248Y537648D01*
X7421Y543821D01*
X7104Y544138D01*
X7590Y545312D01*
X14731D01*
X19701Y540341D01*
Y539072D01*
X19126Y538496D01*
X21763Y535859D01*
X25650Y539746D01*
D01*
X25652Y539748D01*
X25654Y539750D01*
D01*
X29542Y543637D01*
X30339Y542840D01*
Y543729D01*
X65663D01*
X69107Y545156D01*
X75980Y552029D01*
X92500D01*
X95944Y553456D01*
X96082Y553789D01*
X96527Y553973D01*
X97586Y556530D01*
X92697D01*
Y557798D01*
X91430D01*
Y562686D01*
X89221Y561771D01*
X73963D01*
X70518Y560344D01*
X63645Y553471D01*
X32901D01*
X29984Y556388D01*
X26446Y552850D01*
X24650Y554646D01*
X28188Y558184D01*
X25197Y561175D01*
X25105Y561083D01*
X18094Y568094D01*
X18066Y568106D01*
X18884Y567288D01*
X15346Y563750D01*
X13550Y565546D01*
X17088Y569084D01*
X14097Y572075D01*
X13305Y571283D01*
X9129Y575459D01*
X9574Y575904D01*
X7020Y578458D01*
Y579532D01*
X13220Y585732D01*
X14527Y586273D01*
X15586Y588830D01*
X10697D01*
Y590098D01*
X9430D01*
Y594986D01*
X10700Y595513D01*
X10736Y595498D01*
X11008Y596153D01*
X25141D01*
X25389Y594907D01*
Y594907D01*
X21573Y593327D01*
X19988Y589500D01*
X21573Y585673D01*
X21612Y585657D01*
Y579590D01*
X16925Y574903D01*
X24703Y567125D01*
X31774Y574196D01*
X29188Y576782D01*
Y578695D01*
X30362Y579181D01*
X40931Y568611D01*
X40445Y567438D01*
X38732D01*
X35096Y571074D01*
X28025Y564003D01*
X35803Y556225D01*
X39439Y559861D01*
X47984D01*
X51300Y558488D01*
X55127Y560073D01*
X56712Y563900D01*
X55127Y567727D01*
X51300Y569312D01*
X51049Y569208D01*
X30796Y589462D01*
X30812Y589500D01*
X29227Y593327D01*
X25412Y594907D01*
X25659Y596153D01*
X48100D01*
X50396Y597104D01*
X50396Y597104D01*
X50396Y597104D01*
X63691Y610399D01*
X64200Y610188D01*
X68027Y611773D01*
X69612Y615600D01*
X68027Y619427D01*
X64200Y621012D01*
X64741Y621553D01*
X90855D01*
X97977Y614431D01*
D02*
G37*
G36*
X176495Y712427D02*
X249029Y586796D01*
X248822Y586295D01*
Y581703D01*
X249109Y581009D01*
X248336Y580001D01*
X247753Y580078D01*
X247373Y582967D01*
X242772Y586497D01*
X237023Y585740D01*
X233493Y581140D01*
X234250Y575390D01*
X238850Y571860D01*
X244600Y572617D01*
X247438Y576316D01*
X248641Y575908D01*
Y562333D01*
X246193Y559143D01*
X246770Y554756D01*
X252874Y558280D01*
D01*
X258982Y561807D01*
X258382Y562267D01*
Y579014D01*
X257916Y580140D01*
X258563Y581703D01*
Y583380D01*
X259790Y583708D01*
X481575Y199600D01*
X368138Y3106D01*
X-368669D01*
X-459890Y161117D01*
X-458882Y161890D01*
X-379396Y82404D01*
X-377100Y81453D01*
X-334553D01*
X-334305Y80207D01*
X-337492Y78887D01*
X-339077Y75060D01*
X-337492Y71234D01*
X-333665Y69648D01*
X-333085Y69889D01*
X-303601Y40404D01*
X-301305Y39453D01*
X-300343Y39851D01*
X-300105Y39753D01*
X-244900D01*
X-242604Y40704D01*
X-221304Y62004D01*
X-221025Y62676D01*
X-220353Y64300D01*
Y85655D01*
X-216609Y89399D01*
X-215553Y88694D01*
X-216047Y87500D01*
Y62045D01*
X-240045Y38047D01*
X-314155D01*
X-343557Y67450D01*
X-343473Y67873D01*
X-343473Y67873D01*
X-343473Y67873D01*
X-341888Y71700D01*
X-343473Y75527D01*
X-347300Y77112D01*
X-351127Y75527D01*
X-352712Y71700D01*
X-351127Y67873D01*
X-350547Y67633D01*
Y66600D01*
X-349596Y64304D01*
X-317796Y32504D01*
X-315500Y31553D01*
X-238700D01*
X-236404Y32504D01*
X-210504Y58404D01*
X-209553Y60700D01*
Y85341D01*
X-208433Y85940D01*
X-208177Y85769D01*
X-208247Y85600D01*
Y56545D01*
X-236445Y28347D01*
X-320455D01*
X-356374Y64266D01*
Y68819D01*
X-355794Y69059D01*
X-354209Y72886D01*
X-355794Y76713D01*
X-359621Y78298D01*
X-363448Y76713D01*
X-365033Y72886D01*
X-363448Y69059D01*
X-362868Y68819D01*
Y62921D01*
X-361917Y60625D01*
X-324096Y22804D01*
X-321800Y21853D01*
X-235100D01*
X-232804Y22804D01*
X-202704Y52904D01*
X-201753Y55200D01*
Y84255D01*
X-182255Y103753D01*
X-180951D01*
X-180727Y102627D01*
Y102627D01*
D01*
X-182312Y98800D01*
X-180727Y94973D01*
X-176900Y93388D01*
X-176013Y93755D01*
X-173295Y91037D01*
X-174000Y89981D01*
X-180450Y92653D01*
X-193852Y87102D01*
X-199403Y73700D01*
X-193852Y60298D01*
X-180450Y54747D01*
X-167048Y60298D01*
X-161497Y73700D01*
X-164169Y80150D01*
X-163113Y80855D01*
X-143688Y61431D01*
Y57376D01*
X-144744Y56671D01*
X-148630Y58280D01*
Y50998D01*
Y43720D01*
X-144734Y45334D01*
X-144294Y46396D01*
X-143024D01*
X-142900Y46097D01*
Y41397D01*
X-143147Y40800D01*
Y35257D01*
X-142529Y33765D01*
X-143012Y32600D01*
X-141427Y28773D01*
X-141360Y28746D01*
X-141608Y27500D01*
X-142400D01*
Y22871D01*
X-159400D01*
Y25250D01*
X-162650Y28500D01*
X-164630D01*
Y17997D01*
Y7500D01*
X-162650D01*
X-159400Y10750D01*
Y13129D01*
X-142400D01*
Y6500D01*
X-128170D01*
Y16997D01*
Y27500D01*
X-133592D01*
X-133840Y28746D01*
X-133773Y28773D01*
X-132188Y32600D01*
X-133773Y36427D01*
X-136653Y37620D01*
Y39250D01*
X-136400D01*
Y39250D01*
X-130400D01*
Y39250D01*
X-130400D01*
X-130400Y39250D01*
X-129900D01*
Y39250D01*
X-123900D01*
Y39250D01*
X-123900D01*
X-123900Y39250D01*
X-123400D01*
Y39250D01*
X-117400D01*
X-117400Y39250D01*
Y39250D01*
X-117400D01*
X-116900D01*
X-116502Y39250D01*
X-116502Y39250D01*
Y39250D01*
X-115170D01*
Y47997D01*
Y56750D01*
X-116255D01*
X-116255Y56750D01*
Y56750D01*
X-116900Y56750D01*
X-117153Y57003D01*
Y78900D01*
X-118104Y81196D01*
X-136087Y99179D01*
X-135788Y99900D01*
X-137373Y103727D01*
Y103727D01*
Y103727D01*
Y103727D01*
X-137368Y103753D01*
X-75100D01*
X-72804Y104704D01*
X-72804Y104704D01*
X-72804Y104704D01*
X-21651Y155857D01*
X-20595Y155152D01*
X-27041Y139590D01*
X-19074Y120356D01*
X160Y112389D01*
X19394Y120356D01*
X27360Y139590D01*
X19394Y158824D01*
X160Y166791D01*
X-15402Y160345D01*
X-16107Y161401D01*
X111696Y289204D01*
X112647Y291500D01*
Y369820D01*
X113893Y370067D01*
X113973Y369873D01*
X117800Y368288D01*
X121627Y369873D01*
X123212Y373700D01*
X121688Y377378D01*
Y437600D01*
X121688Y437600D01*
X121688Y437600D01*
Y437600D01*
Y444500D01*
X121688Y444500D01*
X120904Y446394D01*
X120579Y447179D01*
X120579Y447179D01*
X84629Y483128D01*
X85612Y485500D01*
X84027Y489327D01*
X83591Y489507D01*
X83839Y490753D01*
X92755D01*
X123253Y460255D01*
Y403100D01*
X123253Y403100D01*
X123253Y403100D01*
X124204Y400804D01*
X153904Y371104D01*
X156200Y370153D01*
X258255D01*
X299053Y329355D01*
Y244900D01*
X300004Y242604D01*
X332504Y210104D01*
X334800Y209153D01*
X350692D01*
X352989Y210104D01*
X356779Y213894D01*
X357358Y213654D01*
X359478Y214532D01*
X360184Y213476D01*
X349555Y202847D01*
X311000D01*
X308704Y201896D01*
X263304Y156496D01*
X262353Y154200D01*
Y116472D01*
X261269Y116024D01*
X259684Y112197D01*
X261269Y108370D01*
X265096Y106785D01*
X268923Y108370D01*
X270283Y111653D01*
X271553D01*
X271704Y111289D01*
X283066Y99926D01*
X282826Y99346D01*
X284411Y95520D01*
X288238Y93934D01*
X292065Y95520D01*
X293650Y99346D01*
X292065Y103173D01*
X288238Y104758D01*
X287659Y104518D01*
X277247Y114930D01*
Y132523D01*
X277102Y132873D01*
X277247Y133223D01*
Y147355D01*
X293445Y163553D01*
X303251D01*
X303499Y162307D01*
X301373Y161427D01*
X300733Y159881D01*
X299710Y159096D01*
X293971Y149155D01*
X293620Y149358D01*
X289370Y141997D01*
D01*
X288869Y141131D01*
X288869D01*
X288869Y141131D01*
X284620Y133769D01*
D01*
X284119Y132903D01*
X284119D01*
X284119Y132903D01*
X279870Y125542D01*
X289396Y120042D01*
D01*
X289877Y119765D01*
X296882Y93622D01*
X289830Y86571D01*
X267118D01*
X248771Y104917D01*
Y126900D01*
X247344Y130344D01*
X246992Y130696D01*
X245910Y133309D01*
X230453Y148766D01*
Y242284D01*
X259909Y271740D01*
X261653Y275950D01*
X261653Y275950D01*
Y300517D01*
X262806Y300994D01*
X265500Y307500D01*
X262806Y314006D01*
X256300Y316700D01*
X249794Y314006D01*
X247100Y307500D01*
X249747Y301109D01*
Y278416D01*
X220291Y248960D01*
X218547Y244750D01*
Y147235D01*
X215982Y144671D01*
X204087D01*
X203964Y145290D01*
X203964D01*
X203886Y145680D01*
X203886D01*
X203839Y145916D01*
X208325Y147775D01*
X210656Y153400D01*
X208325Y159025D01*
X202700Y161356D01*
X197075Y159025D01*
X196762Y158271D01*
X191800D01*
Y158900D01*
X181800D01*
Y147900D01*
X191800D01*
Y148529D01*
X196762D01*
X197075Y147775D01*
X201561Y145916D01*
X201313Y144671D01*
X180700D01*
X177256Y143244D01*
X169656Y135644D01*
X168229Y132200D01*
Y130700D01*
X168100D01*
Y119700D01*
X178100D01*
Y130312D01*
X182717Y134929D01*
X218000D01*
X221444Y136356D01*
X221444Y136356D01*
X221444Y136356D01*
X223735Y138646D01*
X237491Y124890D01*
X239029Y124253D01*
Y102900D01*
X240456Y99456D01*
X261656Y78256D01*
X265100Y76829D01*
X291848D01*
X295292Y78256D01*
X305758Y88722D01*
X306010Y89331D01*
X306532Y89731D01*
X306698Y90992D01*
X307185Y92167D01*
X306933Y92775D01*
X307019Y93427D01*
X302237Y111273D01*
X303245Y112047D01*
X304317Y111427D01*
X306444Y115110D01*
X308643Y113840D01*
X306517Y110157D01*
X310180Y108042D01*
X310345Y108328D01*
X316367Y104851D01*
X316532Y103592D01*
X316356Y103416D01*
X314929Y99971D01*
Y61767D01*
X289133Y35971D01*
X224300D01*
Y36530D01*
X207300D01*
Y35971D01*
X194671D01*
Y38200D01*
X195300D01*
Y41930D01*
X184300D01*
Y38200D01*
X184929D01*
Y35971D01*
X140717D01*
X125015Y51673D01*
X125204Y52130D01*
X117670D01*
Y44596D01*
X118127Y44785D01*
X135256Y27656D01*
X138700Y26229D01*
X291151D01*
X294595Y27656D01*
X320340Y53401D01*
X321610D01*
X331231Y43780D01*
X334675Y42354D01*
X374249D01*
X374286Y42339D01*
Y47222D01*
Y52111D01*
X374249Y52095D01*
X336693D01*
X324671Y64117D01*
Y97954D01*
X328236Y101520D01*
X328863Y101158D01*
X330214Y103497D01*
X330783Y104066D01*
X331392Y105536D01*
X330729Y104388D01*
X325963Y107139D01*
D01*
X321202Y109888D01*
X322049Y111356D01*
X320823Y111027D01*
X314648Y114593D01*
X314430Y115403D01*
X314930Y116269D01*
X314930D01*
X314930Y116270D01*
X318855Y123067D01*
X320082Y123396D01*
X326771Y119534D01*
X326337Y118782D01*
X331693Y115689D01*
X331903Y115416D01*
X337517Y112175D01*
X341412Y97640D01*
Y94200D01*
X339080Y91868D01*
X337773Y91327D01*
X336188Y87500D01*
X337773Y83673D01*
X341600Y82088D01*
X345427Y83673D01*
X345968Y84980D01*
X349726Y88738D01*
X351153Y92182D01*
Y98282D01*
X350901Y98890D01*
X350987Y99542D01*
X346404Y116645D01*
X344135Y119602D01*
X342245Y120694D01*
X342079Y121953D01*
X349406Y129280D01*
X350833Y132724D01*
Y141636D01*
X353042Y145463D01*
X344382Y150463D01*
X338882Y140937D01*
X341091Y139661D01*
Y134742D01*
X333340Y126990D01*
X319607Y134919D01*
X318340Y135085D01*
X314404Y137358D01*
X310154Y129997D01*
X310154Y129997D01*
X310154D01*
X309654Y129131D01*
Y129131D01*
X309220Y128696D01*
X309206Y128704D01*
X306332Y129082D01*
D01*
X306332D01*
X306332D01*
X295878Y126281D01*
X293966Y126533D01*
X293863Y126593D01*
X293646Y127403D01*
X294146Y128269D01*
X294146D01*
X294146Y128270D01*
X298396Y135631D01*
D01*
X298896Y136497D01*
X298896D01*
X298896Y136497D01*
X303146Y143858D01*
X300372Y145459D01*
X300044Y146686D01*
X303603Y152850D01*
X305200Y152188D01*
X309027Y153773D01*
X309043Y153812D01*
X324869D01*
X328217Y150464D01*
X326758Y147937D01*
X335418Y142937D01*
X340918Y152463D01*
X332258Y157463D01*
X332258Y157463D01*
X331970Y157425D01*
X329117Y160279D01*
X326438Y161388D01*
X326438Y161388D01*
X309043D01*
X309027Y161427D01*
X306901Y162307D01*
X307149Y163553D01*
X432200D01*
X434496Y164504D01*
X434496Y164504D01*
X434496Y164504D01*
X446996Y177004D01*
X447947Y179300D01*
Y236400D01*
X446996Y238696D01*
X364047Y321645D01*
Y380000D01*
X363096Y382296D01*
X310296Y435096D01*
X308000Y436047D01*
X259345D01*
X196221Y499171D01*
X196500Y499588D01*
X196500Y499588D01*
X196714Y499677D01*
X196714D01*
Y499677D01*
X200327Y501173D01*
X201912Y505000D01*
X200327Y508827D01*
X196500Y510412D01*
X194577Y509615D01*
X184247Y519945D01*
Y528325D01*
X185493Y528573D01*
X185604Y528304D01*
X198504Y515404D01*
X198586Y515370D01*
X198988Y514400D01*
X198988Y514400D01*
X198988D01*
X200573Y510573D01*
X204400Y508988D01*
X208227Y510573D01*
X208858Y512097D01*
X210104Y511849D01*
Y503026D01*
X211530Y499581D01*
X240014Y471097D01*
X243459Y469671D01*
X260623D01*
X263813Y467223D01*
X269563Y467980D01*
X273093Y472580D01*
X272336Y478330D01*
X267735Y481860D01*
X261986Y481103D01*
X260689Y479412D01*
X245476D01*
X219845Y505043D01*
Y536664D01*
X221113Y536744D01*
X221113Y536744D01*
Y536744D01*
X225713Y533214D01*
X231463Y533971D01*
X234993Y538572D01*
X234236Y544321D01*
X229635Y547851D01*
X223886Y547094D01*
X221048Y543395D01*
X219845Y543803D01*
Y557379D01*
X222293Y560569D01*
X221536Y566318D01*
X216935Y569848D01*
X211186Y569091D01*
X208643Y565777D01*
X207015D01*
X197147Y575645D01*
Y577700D01*
X196910Y578274D01*
X197917Y579047D01*
X200313Y577208D01*
X206063Y577965D01*
X209593Y582566D01*
X208836Y588315D01*
X204235Y591845D01*
X198486Y591088D01*
X194956Y586488D01*
X195494Y582399D01*
X194355Y581837D01*
X157347Y618845D01*
Y645498D01*
X158486Y646059D01*
X162213Y643199D01*
X167963Y643956D01*
X171493Y648557D01*
X170736Y654306D01*
X166135Y657836D01*
X160386Y657079D01*
X158550Y654686D01*
X157347Y655095D01*
Y714074D01*
X157544Y714156D01*
X158971Y717600D01*
X157544Y721044D01*
X142844Y735744D01*
X139400Y737171D01*
X139841Y737612D01*
X149868D01*
X176495Y712427D01*
D02*
G37*
G36*
X-217247Y302356D02*
Y263044D01*
X-218493Y262796D01*
X-220429Y267471D01*
X-226430Y269957D01*
Y260198D01*
Y250443D01*
X-220429Y252929D01*
X-218493Y257604D01*
X-217247Y257356D01*
Y143500D01*
X-217247Y143500D01*
X-217247Y143500D01*
X-216296Y141204D01*
X-206077Y130985D01*
X-205327Y129173D01*
X-201500Y127588D01*
X-197673Y129173D01*
X-196261Y132583D01*
X-194991D01*
X-193827Y129773D01*
X-193391Y129593D01*
X-193639Y128347D01*
X-194900D01*
X-196524Y127675D01*
X-197196Y127396D01*
X-254599Y69993D01*
X-255550Y67697D01*
Y56264D01*
X-256130Y56024D01*
X-257715Y52197D01*
X-256130Y48370D01*
X-254012Y47493D01*
X-254260Y46247D01*
X-300105D01*
X-300214Y46202D01*
X-328493Y74481D01*
X-328253Y75060D01*
X-329838Y78887D01*
X-333025Y80207D01*
X-332777Y81453D01*
X-329645D01*
X-316796Y68604D01*
X-316796Y68604D01*
X-316796D01*
X-316796Y68604D01*
X-316796D01*
Y68604D01*
D01*
D01*
D01*
D01*
X-316796D01*
Y68604D01*
D01*
X-314500Y67653D01*
X-293600D01*
X-291304Y68604D01*
X-265731Y94177D01*
X-264780Y96473D01*
Y109045D01*
X-264200Y109285D01*
X-262615Y113112D01*
X-264200Y116938D01*
X-268027Y118524D01*
X-271854Y116938D01*
X-273439Y113112D01*
X-271854Y109285D01*
X-271274Y109045D01*
Y97818D01*
X-294945Y74147D01*
X-312925D01*
X-313524Y75267D01*
X-313400Y75453D01*
X-297200D01*
X-294904Y76404D01*
X-294904Y76404D01*
X-294904Y76404D01*
X-288205Y83103D01*
X-287254Y85399D01*
X-287254Y85399D01*
X-287254Y85399D01*
Y97831D01*
X-286674Y98071D01*
X-285089Y101898D01*
X-286674Y105725D01*
X-290501Y107310D01*
X-294328Y105725D01*
X-295913Y101898D01*
X-294328Y98071D01*
X-293748Y97831D01*
Y86744D01*
X-298545Y81947D01*
X-312055D01*
X-312991Y82883D01*
X-312651Y83391D01*
X-312651Y83391D01*
X-312545Y83435D01*
X-312545Y83435D01*
Y83435D01*
X-308825Y84976D01*
X-307239Y88803D01*
X-308825Y92630D01*
X-312651Y94215D01*
X-313231Y93975D01*
X-320652Y101396D01*
X-322948Y102347D01*
X-371055D01*
X-442053Y173345D01*
Y221201D01*
X-442053Y221201D01*
Y225655D01*
X-438903Y228804D01*
X-437952Y231100D01*
X-437952Y231100D01*
X-437952Y231100D01*
Y238405D01*
X-436851Y239507D01*
X-435900Y241803D01*
Y246369D01*
X-428775Y253494D01*
X-427823Y255790D01*
Y260084D01*
X-408820Y279087D01*
X-407647Y278601D01*
Y202667D01*
X-408227Y202427D01*
X-409812Y198600D01*
X-408227Y194773D01*
X-406641Y194116D01*
X-406889Y192871D01*
X-406903D01*
X-410347Y191444D01*
X-415444Y186347D01*
X-416871Y182903D01*
Y174200D01*
Y162878D01*
X-416886Y162842D01*
X-407114D01*
X-407129Y162878D01*
Y174200D01*
Y180885D01*
X-404885Y183129D01*
X-401266D01*
X-401027Y181927D01*
Y181927D01*
D01*
X-402612Y178100D01*
X-401027Y174273D01*
X-398525Y173237D01*
X-389144Y163855D01*
X-385699Y162429D01*
X-372462D01*
X-371288Y162915D01*
X-370027Y163081D01*
X-367401Y164597D01*
X-367263Y164358D01*
X-363174Y166718D01*
X-361300Y166965D01*
X-353613Y171403D01*
X-352513Y170768D01*
Y165742D01*
X-351086Y162298D01*
X-349785Y160997D01*
X-349842Y160563D01*
X-349842Y160563D01*
X-344342Y151037D01*
X-338075Y154655D01*
X-337302Y153647D01*
X-346720Y144229D01*
X-347300Y144470D01*
X-351127Y142885D01*
X-352712Y139058D01*
X-351127Y135231D01*
X-347300Y133646D01*
X-343473Y135231D01*
X-341888Y139058D01*
X-342128Y139637D01*
X-324562Y157204D01*
X-323610Y159500D01*
Y163006D01*
X-323558Y163037D01*
X-323610Y163128D01*
Y189240D01*
X-319970Y191342D01*
X-324220Y198703D01*
X-324220Y198703D01*
X-324220D01*
X-324720Y199569D01*
D01*
X-328969Y206931D01*
X-328969Y206931D01*
X-328969D01*
X-329470Y207797D01*
D01*
X-329810Y208386D01*
X-319856Y218341D01*
X-318429Y221785D01*
Y278783D01*
X-312482Y284729D01*
X-249800D01*
X-247215Y285800D01*
X-244300D01*
Y285929D01*
X-242064D01*
X-241280Y276942D01*
X-241712Y275900D01*
X-240127Y272073D01*
X-236300Y270488D01*
X-232473Y272073D01*
X-230888Y275900D01*
X-231550Y277499D01*
X-232748Y291223D01*
X-233517Y292703D01*
X-234156Y294244D01*
X-234364Y294330D01*
X-234468Y294531D01*
X-236059Y295032D01*
X-237600Y295671D01*
X-244300D01*
Y295800D01*
X-255300D01*
Y294471D01*
X-290523D01*
X-290771Y295716D01*
X-285429Y297929D01*
X-284111Y301112D01*
X-278300D01*
Y300200D01*
X-267300D01*
Y301112D01*
X-255300D01*
Y299800D01*
X-244300D01*
Y301112D01*
X-236289D01*
X-234971Y297929D01*
X-227700Y294917D01*
X-220429Y297929D01*
X-218493Y302604D01*
X-217247Y302356D01*
D02*
G37*
G36*
X-359650Y190070D02*
X-359280Y189431D01*
X-359281D01*
X-359280Y189431D01*
X-355377Y182670D01*
X-355706Y181443D01*
X-361468Y178116D01*
X-362695Y178445D01*
X-362737Y178518D01*
X-367490Y175774D01*
X-367537Y175768D01*
X-373768Y172170D01*
X-383682D01*
X-393327Y181815D01*
X-393373Y181927D01*
Y181927D01*
Y181927D01*
X-393134Y183129D01*
X-378445D01*
X-377631Y182315D01*
X-377398Y181912D01*
X-372637Y184661D01*
D01*
X-367872Y187412D01*
X-367397Y186591D01*
X-367384Y186642D01*
X-360876Y190399D01*
X-359650Y190070D01*
D02*
G37*
G36*
X-97611Y591200D02*
X-97100Y590988D01*
X-96785Y591118D01*
X-96435Y591084D01*
X-95824Y590168D01*
X-120496Y565496D01*
X-121447Y563200D01*
Y513199D01*
X-122620Y512713D01*
X-141904Y531996D01*
X-144200Y532947D01*
X-159733D01*
X-159973Y533527D01*
X-163800Y535112D01*
X-167627Y533527D01*
X-169212Y529700D01*
X-168401Y527741D01*
X-168887Y526568D01*
X-172127Y525226D01*
X-173712Y521399D01*
X-172147Y517622D01*
Y482145D01*
X-372396Y281896D01*
X-373347Y279600D01*
Y266742D01*
X-373347Y266742D01*
X-373347Y266742D01*
X-372396Y264446D01*
X-342726Y234776D01*
X-342966Y234196D01*
X-341381Y230369D01*
X-337554Y228784D01*
X-333727Y230369D01*
X-332142Y234196D01*
X-333727Y238023D01*
X-337554Y239608D01*
X-338134Y239368D01*
X-366853Y268087D01*
Y278255D01*
X-218421Y426687D01*
X-217247Y426201D01*
Y308044D01*
X-218493Y307796D01*
X-220429Y312471D01*
X-227700Y315483D01*
X-234971Y312471D01*
X-236538Y308688D01*
X-244300D01*
Y309800D01*
X-255300D01*
Y308688D01*
X-267300D01*
Y310200D01*
X-278300D01*
Y308688D01*
X-283862D01*
X-285429Y312471D01*
X-292700Y315483D01*
X-299971Y312471D01*
X-302983Y305200D01*
X-299971Y297929D01*
X-294629Y295716D01*
X-294877Y294471D01*
X-314500D01*
X-317944Y293044D01*
X-326744Y284244D01*
X-328171Y280800D01*
Y223802D01*
X-339802Y212171D01*
X-341044Y210929D01*
X-343246Y209658D01*
X-342905Y209068D01*
X-347444Y204529D01*
X-348871Y201085D01*
X-348234Y199547D01*
X-350150Y197631D01*
X-351409Y197797D01*
X-351744Y198377D01*
X-356510Y195626D01*
X-357143Y196724D01*
X-358241Y196090D01*
X-360367Y199773D01*
X-364030Y197658D01*
Y197658D01*
X-364135Y197266D01*
X-372531Y192419D01*
X-372531D01*
X-373208Y191537D01*
X-376427Y192871D01*
X-401911D01*
X-402159Y194116D01*
X-400573Y194773D01*
X-398988Y198600D01*
X-400573Y202427D01*
X-401153Y202667D01*
Y278855D01*
X-249455Y430553D01*
X-243300D01*
X-241004Y431504D01*
X-193104Y479404D01*
X-192825Y480077D01*
X-192153Y481701D01*
Y541455D01*
X-164355Y569253D01*
X-160499D01*
X-160013Y568079D01*
X-185296Y542796D01*
X-186247Y540500D01*
Y483145D01*
X-385696Y283696D01*
X-386647Y281400D01*
Y216367D01*
X-387227Y216127D01*
X-388812Y212300D01*
X-387227Y208473D01*
X-383400Y206888D01*
X-379573Y208473D01*
X-377988Y212300D01*
X-379573Y216127D01*
X-380153Y216367D01*
Y280055D01*
X-180704Y479504D01*
X-179753Y481800D01*
Y539155D01*
X-155805Y563103D01*
X-127150D01*
X-124854Y564054D01*
X-97699Y591208D01*
X-97611Y591200D01*
D02*
G37*
G36*
X180795Y720520D02*
X179798Y719733D01*
X153979Y744152D01*
X152671Y744652D01*
X151376Y745188D01*
X71136D01*
X70650Y746362D01*
X88344Y764056D01*
X89771Y767500D01*
Y808700D01*
X88762Y811135D01*
X88344Y812144D01*
X77268Y823220D01*
X76727Y824527D01*
X74170Y825586D01*
Y820697D01*
X72902D01*
Y819430D01*
X68014D01*
X69073Y816873D01*
X70380Y816332D01*
X80029Y806683D01*
Y769518D01*
X78127Y767615D01*
X77071Y768321D01*
X77692Y769820D01*
X76107Y773647D01*
X72280Y775232D01*
X70973Y774691D01*
X43320D01*
X39876Y773264D01*
X27356Y760744D01*
X25929Y757300D01*
Y754300D01*
X25800D01*
Y753447D01*
X12000D01*
X9704Y752496D01*
X5508Y748300D01*
X-400D01*
Y738300D01*
X10600D01*
Y744208D01*
X13345Y746953D01*
X24929D01*
Y728400D01*
X25550Y726901D01*
Y722900D01*
X33500D01*
X34556Y722194D01*
X35856Y719056D01*
X43838Y711073D01*
X43352Y709900D01*
X35050D01*
D01*
D01*
X35050Y709900D01*
X34050D01*
Y709900D01*
X25550D01*
Y708902D01*
X24377Y708416D01*
X9665Y723127D01*
X10151Y724300D01*
X10600D01*
Y734300D01*
X-400D01*
Y724300D01*
X1853D01*
Y723100D01*
X2804Y720804D01*
X21504Y702104D01*
X21504D01*
X21504D01*
X21504Y702104D01*
X21504Y702104D01*
X23800Y701153D01*
X25550D01*
Y698900D01*
X26553D01*
Y696399D01*
X25380Y695913D01*
X-65353Y786645D01*
Y790933D01*
X-64773Y791173D01*
X-63188Y795000D01*
X-64773Y798827D01*
X-68600Y800412D01*
X-72427Y798827D01*
X-74012Y795000D01*
X-72427Y791173D01*
X-71847Y790933D01*
Y785300D01*
X-70896Y783004D01*
X-62133Y774240D01*
X-62619Y773067D01*
X-64413D01*
X-64653Y773647D01*
X-68480Y775232D01*
X-72307Y773647D01*
X-73892Y769820D01*
X-72307Y765993D01*
X-68480Y764408D01*
X-64653Y765993D01*
X-64413Y766573D01*
X-62865D01*
X22787Y680920D01*
X22301Y679747D01*
X-49799D01*
X-52096Y678796D01*
X-82196Y648696D01*
X-83147Y646400D01*
Y636345D01*
X-84117Y635375D01*
X-85363Y635622D01*
X-86773Y639027D01*
X-87353Y639267D01*
Y669955D01*
X-68080Y689228D01*
X-67500Y688988D01*
X-63673Y690573D01*
X-62088Y694400D01*
X-63673Y698227D01*
X-67500Y699812D01*
X-68412Y699434D01*
X-69118Y700490D01*
X-64524Y705084D01*
X-63573Y707380D01*
X-63573Y707380D01*
X-63573Y707380D01*
Y714953D01*
X-62993Y715193D01*
X-61408Y719020D01*
X-62993Y722847D01*
X-66820Y724432D01*
X-70647Y722847D01*
X-71607Y720528D01*
X-72853Y720776D01*
Y733995D01*
X-68220Y738628D01*
X-67640Y738388D01*
X-63813Y739973D01*
X-62228Y743800D01*
X-63813Y747627D01*
X-67640Y749212D01*
X-71467Y747627D01*
X-73052Y743800D01*
X-72812Y743220D01*
X-78396Y737636D01*
X-78513Y737353D01*
X-78796Y737236D01*
X-79747Y734940D01*
Y708545D01*
X-156996Y631296D01*
X-157947Y629000D01*
Y601145D01*
X-219828Y539265D01*
X-220967Y539826D01*
X-220456Y543706D01*
X-223986Y548307D01*
X-229735Y549063D01*
X-234336Y545533D01*
X-235093Y539784D01*
X-231563Y535183D01*
X-226223Y534480D01*
X-225814Y533278D01*
X-226496Y532596D01*
X-227447Y530300D01*
Y495945D01*
X-235120Y488272D01*
X-235700Y488512D01*
X-239527Y486927D01*
X-241112Y483100D01*
X-239527Y479273D01*
X-235700Y477688D01*
X-235030Y477965D01*
X-234325Y476909D01*
X-437228Y274006D01*
X-438236Y274779D01*
X-113438Y837294D01*
X113369D01*
X180795Y720520D01*
D02*
G37*
G36*
X74485Y763973D02*
X64183Y753671D01*
X49800D01*
Y754300D01*
X46070D01*
Y748798D01*
Y743299D01*
X44943D01*
X45012Y743231D01*
Y733900D01*
X44550Y733900D01*
D01*
X43550D01*
Y733900D01*
X35569D01*
X35569Y733900D01*
Y733900D01*
X35050Y733900D01*
X34671Y734279D01*
Y743300D01*
X35800D01*
Y754300D01*
X35671D01*
Y755283D01*
X45338Y764949D01*
X70973D01*
X72280Y764408D01*
X73779Y765029D01*
X74485Y763973D01*
D02*
G37*
%LPC*%
G36*
X95598Y230798D02*
X91982D01*
X93041Y228241D01*
X95598Y227182D01*
Y230798D01*
D02*
G37*
G36*
X-359621Y227029D02*
X-363448Y225444D01*
X-365033Y221617D01*
X-363448Y217791D01*
X-359621Y216205D01*
X-355794Y217791D01*
X-354209Y221617D01*
X-355794Y225444D01*
X-359621Y227029D01*
D02*
G37*
G36*
X-169670Y258930D02*
X-178157D01*
X-175671Y252929D01*
X-169670Y250443D01*
Y258930D01*
D02*
G37*
G36*
X101754Y230798D02*
X98138D01*
Y227182D01*
X100695Y228241D01*
X101754Y230798D01*
D02*
G37*
G36*
X95598Y236954D02*
X93041Y235895D01*
X91982Y233338D01*
X95598D01*
Y236954D01*
D02*
G37*
G36*
X139799Y280357D02*
X96907Y237464D01*
X98138Y236954D01*
Y233338D01*
X101755D01*
X102264Y232107D01*
X144657Y274499D01*
X143530D01*
Y278730D01*
X139799D01*
Y280357D01*
D02*
G37*
G36*
X-293970Y258930D02*
X-302457D01*
X-299971Y252929D01*
X-293970Y250443D01*
Y258930D01*
D02*
G37*
G36*
X-354504Y203158D02*
X-358167Y201043D01*
X-356677Y198462D01*
X-353014Y200577D01*
X-354504Y203158D01*
D02*
G37*
G36*
X-372465Y181827D02*
X-376128Y179712D01*
X-374263Y176482D01*
X-370600Y178597D01*
X-372465Y181827D01*
D02*
G37*
G36*
X-366602Y185212D02*
X-370265Y183097D01*
X-368400Y179867D01*
X-364737Y181982D01*
X-366602Y185212D01*
D02*
G37*
G36*
X-413270Y160302D02*
X-416886D01*
X-415827Y157745D01*
X-413270Y156686D01*
Y160302D01*
D02*
G37*
G36*
X-407114D02*
X-410730D01*
Y156686D01*
X-408173Y157745D01*
X-407114Y160302D01*
D02*
G37*
G36*
X151300Y233548D02*
X135993Y227207D01*
X129652Y211900D01*
X135993Y196593D01*
X151300Y190252D01*
X166607Y196593D01*
X172948Y211900D01*
X166607Y227207D01*
X151300Y233548D01*
D02*
G37*
G36*
X275000D02*
X259693Y227207D01*
X253352Y211900D01*
X259693Y196593D01*
X275000Y190252D01*
X290307Y196593D01*
X296648Y211900D01*
X290307Y227207D01*
X275000Y233548D01*
D02*
G37*
G36*
X71630Y825586D02*
X69073Y824527D01*
X68014Y821970D01*
X71630D01*
Y825586D01*
D02*
G37*
G36*
X-275000Y233548D02*
X-290307Y227207D01*
X-296648Y211900D01*
X-290307Y196593D01*
X-275000Y190252D01*
X-259693Y196593D01*
X-253352Y211900D01*
X-259693Y227207D01*
X-275000Y233548D01*
D02*
G37*
G36*
X-158643Y258930D02*
X-167130D01*
Y250443D01*
X-161129Y252929D01*
X-158643Y258930D01*
D02*
G37*
G36*
X-42870Y271857D02*
X-48871Y269371D01*
X-51357Y263370D01*
X-42870D01*
Y271857D01*
D02*
G37*
G36*
X-40330D02*
Y263370D01*
X-31843D01*
X-34329Y269371D01*
X-40330Y271857D01*
D02*
G37*
G36*
X-104670Y269957D02*
X-110671Y267471D01*
X-113157Y261470D01*
X-104670D01*
Y269957D01*
D02*
G37*
G36*
X-102130D02*
Y261470D01*
X-93643D01*
X-96129Y267471D01*
X-102130Y269957D01*
D02*
G37*
G36*
X-119600Y294100D02*
X-130600D01*
Y290488D01*
X-140318Y280771D01*
X-142793D01*
X-144100Y281312D01*
X-147927Y279727D01*
X-149512Y275900D01*
X-147927Y272073D01*
X-144100Y270488D01*
X-142793Y271029D01*
X-138300D01*
X-134856Y272456D01*
X-123950Y283362D01*
X-118259Y277670D01*
X-118412Y277300D01*
X-116827Y273473D01*
X-113000Y271888D01*
X-109173Y273473D01*
X-107588Y277300D01*
X-108129Y278607D01*
Y279300D01*
X-109556Y282744D01*
X-119356Y292544D01*
X-119600Y292645D01*
Y294100D01*
D02*
G37*
G36*
X149800Y278730D02*
X146070D01*
Y274500D01*
X149800D01*
Y278730D01*
D02*
G37*
G36*
X22130Y271857D02*
X16129Y269371D01*
X13643Y263370D01*
X22130D01*
Y271857D01*
D02*
G37*
G36*
X-228970Y269957D02*
X-234971Y267471D01*
X-235965Y265071D01*
X-284435D01*
X-285429Y267471D01*
X-291430Y269957D01*
Y260198D01*
Y250443D01*
X-285429Y252929D01*
X-284435Y255329D01*
X-235965D01*
X-234971Y252929D01*
X-228970Y250443D01*
Y260198D01*
Y269957D01*
D02*
G37*
G36*
X-167130D02*
Y261470D01*
X-158643D01*
X-161129Y267471D01*
X-167130Y269957D01*
D02*
G37*
G36*
X-42870Y260830D02*
X-51357D01*
X-48871Y254829D01*
X-42870Y252343D01*
Y260830D01*
D02*
G37*
G36*
X-31843D02*
X-40330D01*
Y252343D01*
X-34329Y254829D01*
X-31843Y260830D01*
D02*
G37*
G36*
X-104670Y258930D02*
X-113157D01*
X-110671Y252929D01*
X-104670Y250443D01*
Y258930D01*
D02*
G37*
G36*
X-93643D02*
X-102130D01*
Y250443D01*
X-96129Y252929D01*
X-93643Y258930D01*
D02*
G37*
G36*
X-293970Y269957D02*
X-299971Y267471D01*
X-302457Y261470D01*
X-293970D01*
Y269957D01*
D02*
G37*
G36*
X-169670D02*
X-175671Y267471D01*
X-178157Y261470D01*
X-169670D01*
Y269957D01*
D02*
G37*
G36*
X22130Y260830D02*
X13643D01*
X16129Y254829D01*
X22130Y252343D01*
Y260830D01*
D02*
G37*
G36*
X33157D02*
X24670D01*
Y252343D01*
X30671Y254829D01*
X33157Y260830D01*
D02*
G37*
G36*
X-127196Y161330D02*
X-134730D01*
Y153796D01*
X-129403Y156003D01*
X-127196Y161330D01*
D02*
G37*
G36*
X188530Y48200D02*
X184300D01*
Y44470D01*
X188530D01*
Y48200D01*
D02*
G37*
G36*
X195300D02*
X191070D01*
Y44470D01*
X195300D01*
Y48200D01*
D02*
G37*
G36*
X380442Y45955D02*
X376826D01*
Y42339D01*
X379383Y43398D01*
X380442Y45955D01*
D02*
G37*
G36*
X-151170Y49730D02*
X-156887D01*
X-155066Y45334D01*
X-151170Y43720D01*
Y49730D01*
D02*
G37*
G36*
X-1110Y76340D02*
X-26514D01*
X-19074Y58376D01*
X-1110Y50936D01*
Y76340D01*
D02*
G37*
G36*
X26834D02*
X1430D01*
Y50936D01*
X19394Y58376D01*
X26834Y76340D01*
D02*
G37*
G36*
X115130Y52130D02*
X107596D01*
X109803Y46803D01*
X115130Y44596D01*
Y52130D01*
D02*
G37*
G36*
X376826Y52111D02*
Y48495D01*
X380442D01*
X379383Y51052D01*
X376826Y52111D01*
D02*
G37*
G36*
X224300Y46300D02*
X217070D01*
Y39070D01*
X224300D01*
Y46300D01*
D02*
G37*
G36*
X-89170Y16730D02*
X-94400D01*
Y10750D01*
X-91150Y7500D01*
X-89170D01*
Y16730D01*
D02*
G37*
G36*
X-81400D02*
X-86630D01*
Y7500D01*
X-84650D01*
X-81400Y10750D01*
Y16730D01*
D02*
G37*
G36*
X-111400Y15730D02*
X-125630D01*
Y6500D01*
X-111400D01*
Y15730D01*
D02*
G37*
G36*
X-167170Y16730D02*
X-172400D01*
Y10750D01*
X-169150Y7500D01*
X-167170D01*
Y16730D01*
D02*
G37*
G36*
X-96913Y49730D02*
X-102630D01*
Y43720D01*
X-102169Y43911D01*
X-91688Y33431D01*
Y27962D01*
X-94400Y25250D01*
Y19270D01*
X-81400D01*
Y25250D01*
X-84112Y27962D01*
Y35000D01*
X-84112Y35000D01*
X-84896Y36894D01*
X-85221Y37679D01*
X-85221Y37679D01*
X-97018Y49476D01*
X-96913Y49730D01*
D02*
G37*
G36*
X214530Y46300D02*
X207300D01*
Y39070D01*
X214530D01*
Y46300D01*
D02*
G37*
G36*
X-111400Y27500D02*
X-125630D01*
Y18270D01*
X-111400D01*
Y27500D01*
D02*
G37*
G36*
X-167170Y28500D02*
X-169150D01*
X-172400Y25250D01*
Y19270D01*
X-167170D01*
Y28500D01*
D02*
G37*
G36*
X-151170Y58280D02*
X-155066Y56666D01*
X-156887Y52270D01*
X-151170D01*
Y58280D01*
D02*
G37*
G36*
X330200Y111933D02*
X328335Y108703D01*
X331998Y106588D01*
X333863Y109818D01*
X330200Y111933D01*
D02*
G37*
G36*
X48930Y135274D02*
X30966Y127834D01*
X23526Y109870D01*
X48930D01*
Y135274D01*
D02*
G37*
G36*
X112700Y90800D02*
X108970D01*
Y86570D01*
X112700D01*
Y90800D01*
D02*
G37*
G36*
X133700Y151200D02*
X115700D01*
Y122200D01*
X119762D01*
X119829Y122100D01*
X119829Y122100D01*
X119829D01*
X121256Y118656D01*
X135600Y104312D01*
Y100450D01*
X140601D01*
X142100Y99829D01*
X143599Y100450D01*
X148600D01*
Y108950D01*
X144738D01*
X132662Y121027D01*
X133148Y122200D01*
X133700D01*
Y151200D01*
D02*
G37*
G36*
X203700Y133156D02*
X198075Y130826D01*
X197762Y130071D01*
X192100D01*
Y130700D01*
X182100D01*
Y119700D01*
X192100D01*
Y120329D01*
X197762D01*
X198075Y119575D01*
X203700Y117244D01*
X209326Y119575D01*
X211656Y125200D01*
X209326Y130826D01*
X203700Y133156D01*
D02*
G37*
G36*
X-137270Y161330D02*
X-144804D01*
X-142598Y156003D01*
X-137270Y153796D01*
Y161330D01*
D02*
G37*
G36*
X51470Y135274D02*
Y109870D01*
X76874D01*
X69434Y127834D01*
X51470Y135274D01*
D02*
G37*
G36*
X324337Y115318D02*
X322472Y112088D01*
X326135Y109973D01*
X328000Y113203D01*
X324337Y115318D01*
D02*
G37*
G36*
X48930Y107330D02*
X23526D01*
X30966Y89366D01*
X48930Y81926D01*
Y107330D01*
D02*
G37*
G36*
X76874D02*
X51470D01*
Y81926D01*
X64563Y87349D01*
X70056Y81856D01*
X73500Y80429D01*
X102700D01*
Y79800D01*
X102829D01*
Y62100D01*
X104256Y58656D01*
X107785Y55127D01*
X107596Y54670D01*
X115130D01*
Y62204D01*
X114673Y62015D01*
X112571Y64117D01*
Y79800D01*
X112700D01*
Y84030D01*
X107697D01*
Y85297D01*
X106430D01*
Y90800D01*
X102700D01*
Y90171D01*
X75518D01*
X71451Y94237D01*
X76874Y107330D01*
D02*
G37*
G36*
X-78850Y92653D02*
X-92252Y87102D01*
X-97803Y73700D01*
X-92252Y60298D01*
X-78850Y54747D01*
X-65448Y60298D01*
X-59897Y73700D01*
X-65448Y87102D01*
X-78850Y92653D01*
D02*
G37*
G36*
X-102630Y58280D02*
Y52270D01*
X-96913D01*
X-98734Y56666D01*
X-102630Y58280D01*
D02*
G37*
G36*
X215800Y72400D02*
X209294Y69705D01*
X206600Y63200D01*
X209294Y56694D01*
X215800Y54000D01*
X222306Y56694D01*
X225000Y63200D01*
X222306Y69705D01*
X215800Y72400D01*
D02*
G37*
G36*
X1430Y104284D02*
Y78880D01*
X26834D01*
X19394Y96844D01*
X1430Y104284D01*
D02*
G37*
G36*
X215800Y97800D02*
X209294Y95105D01*
X206600Y88600D01*
X209294Y82094D01*
X215800Y79399D01*
X222306Y82094D01*
X225000Y88600D01*
X222306Y95105D01*
X215800Y97800D01*
D02*
G37*
G36*
X-105170Y58280D02*
X-109066Y56666D01*
X-109654Y55246D01*
X-110900Y55494D01*
Y56750D01*
X-112630D01*
Y47997D01*
Y39250D01*
X-110900D01*
Y44212D01*
X-106900D01*
X-106900Y44212D01*
X-106629Y44324D01*
X-105170Y43720D01*
Y50998D01*
Y58280D01*
D02*
G37*
G36*
X-1110Y104284D02*
X-19074Y96844D01*
X-26514Y78880D01*
X-1110D01*
Y104284D01*
D02*
G37*
G36*
X149400Y312430D02*
X139400D01*
Y308200D01*
X140112D01*
Y285500D01*
X139800D01*
Y281270D01*
X149800D01*
Y285500D01*
X147688D01*
Y308200D01*
X149400D01*
Y312430D01*
D02*
G37*
G36*
X-221815Y566167D02*
X-222393Y561781D01*
X-219700Y558271D01*
X-216809Y563277D01*
X-221815Y566167D01*
D02*
G37*
G36*
X93970Y562686D02*
Y559070D01*
X97586D01*
X96527Y561627D01*
X93970Y562686D01*
D02*
G37*
G36*
X-257022Y563201D02*
X-261623Y559671D01*
X-262380Y553922D01*
X-258850Y549321D01*
X-253100Y548564D01*
X-248500Y552094D01*
X-247743Y557844D01*
X-251273Y562444D01*
X-257022Y563201D01*
D02*
G37*
G36*
X-214610Y562007D02*
X-217500Y557001D01*
X-213113Y556423D01*
X-209603Y559117D01*
X-214610Y562007D01*
D02*
G37*
G36*
X-217035Y571061D02*
X-220545Y568367D01*
X-215539Y565477D01*
X-212649Y570483D01*
X-217035Y571061D01*
D02*
G37*
G36*
X-41203Y605975D02*
X-48274Y598904D01*
X-40496Y591126D01*
X-39075Y592547D01*
X-37805D01*
X-32093Y586835D01*
Y585565D01*
X-54279Y563379D01*
X-56227Y562572D01*
X-57812Y558745D01*
X-56355Y555227D01*
X-57060Y554171D01*
X-80983D01*
X-87432Y560620D01*
X-87973Y561927D01*
X-90530Y562986D01*
Y558097D01*
X-91798D01*
Y556830D01*
X-96686D01*
X-95627Y554273D01*
X-94320Y553732D01*
X-86444Y545856D01*
X-83000Y544429D01*
X-56692D01*
X-56445Y543184D01*
X-56582Y543127D01*
X-58167Y539300D01*
X-56582Y535473D01*
X-52755Y533888D01*
X-48928Y535473D01*
X-48912Y535512D01*
X-48269D01*
X-47353Y534596D01*
Y533326D01*
X-47574Y533104D01*
X-39796Y525326D01*
X-32725Y532397D01*
X-40503Y540175D01*
X-40725Y539953D01*
X-41995D01*
X-44021Y541979D01*
X-46700Y543088D01*
X-46700Y543088D01*
X-48083D01*
X-48889Y544070D01*
X-48817Y544429D01*
X-37908D01*
X-37422Y543256D01*
X-37675Y543003D01*
X-34684Y540012D01*
X-31147Y543550D01*
X-29350Y541754D01*
X-32888Y538216D01*
X-29897Y535225D01*
X-29897Y535225D01*
X-28953Y535595D01*
Y534325D01*
X-29175Y534103D01*
X-26184Y531112D01*
X-22650Y534646D01*
D01*
X-22648Y534648D01*
X-22647Y534650D01*
D01*
X-19113Y538183D01*
X-22104Y541174D01*
X-22325Y540953D01*
X-22510D01*
X-22996Y542126D01*
X-22826Y542296D01*
X-23436Y542906D01*
Y544176D01*
X-21195Y546417D01*
X-21104Y546326D01*
X-18113Y549317D01*
X-21646Y552850D01*
D01*
X-21648Y552852D01*
X-21650Y552854D01*
D01*
X-25184Y556388D01*
X-27781Y553790D01*
X-28700Y554171D01*
X-47740D01*
X-48445Y555227D01*
X-46988Y558745D01*
X-47342Y559600D01*
X-47081Y559861D01*
X-34640D01*
X-31003Y556225D01*
X-23225Y564003D01*
X-30296Y571074D01*
X-33932Y567438D01*
X-37845D01*
X-38331Y568611D01*
X-30361Y576581D01*
X-29115Y576334D01*
X-28779Y575521D01*
X-24929Y571671D01*
X-23086Y570908D01*
X-19403Y567225D01*
X-11625Y575003D01*
X-18696Y582074D01*
X-21021Y579749D01*
X-21420D01*
X-22312Y580118D01*
Y582357D01*
X-22273Y582373D01*
X-20688Y586200D01*
X-22273Y590027D01*
X-26100Y591612D01*
X-26139Y591596D01*
X-35772Y601229D01*
X-36943Y601714D01*
X-41203Y605975D01*
D02*
G37*
G36*
X-13584Y567388D02*
X-16575Y564397D01*
X-16484Y564305D01*
X-20005Y560784D01*
X-20397Y561175D01*
X-23388Y558184D01*
X-19854Y554650D01*
D01*
X-19852Y554648D01*
X-19850Y554646D01*
D01*
X-16316Y551112D01*
X-17417Y550012D01*
X-16706Y550306D01*
X-9595Y557417D01*
X-9504Y557326D01*
X-6513Y560317D01*
X-10046Y563851D01*
D01*
X-10048Y563852D01*
X-10050Y563854D01*
D01*
X-13584Y567388D01*
D02*
G37*
G36*
X-210449Y569213D02*
X-213340Y564207D01*
X-208333Y561316D01*
X-207756Y565703D01*
X-210449Y569213D01*
D02*
G37*
G36*
X31337Y541841D02*
X28346Y538850D01*
X30984Y536212D01*
X33975Y539203D01*
X31337Y541841D01*
D02*
G37*
G36*
X-32003Y531275D02*
X-39074Y524204D01*
X-31296Y516426D01*
X-30390Y517332D01*
X-28396Y515339D01*
X-28412Y515300D01*
X-26827Y511473D01*
X-23000Y509888D01*
X-19173Y511473D01*
X-17588Y515300D01*
X-19173Y519127D01*
X-23000Y520712D01*
X-23038Y520696D01*
X-25032Y522690D01*
X-24225Y523497D01*
X-32003Y531275D01*
D02*
G37*
G36*
X-242435Y527066D02*
X-247036Y523536D01*
X-247793Y517787D01*
X-244263Y513186D01*
X-238513Y512429D01*
X-233913Y515960D01*
X-233156Y521709D01*
X-236686Y526310D01*
X-242435Y527066D01*
D02*
G37*
G36*
X280872Y520506D02*
X275123Y519749D01*
X271593Y515149D01*
X272350Y509399D01*
X276950Y505869D01*
X282700Y506626D01*
X286230Y511227D01*
X285473Y516976D01*
X280872Y520506D01*
D02*
G37*
G36*
X36803Y536375D02*
X29025Y528597D01*
X30147Y527475D01*
X29412Y525700D01*
Y517943D01*
X29373Y517927D01*
X27788Y514100D01*
X29373Y510273D01*
X33200Y508688D01*
X37027Y510273D01*
X38612Y514100D01*
X37027Y517927D01*
X36988Y517943D01*
Y522418D01*
X43874Y529304D01*
X36803Y536375D01*
D02*
G37*
G36*
X260252Y559607D02*
X254149Y556083D01*
D01*
X248040Y552556D01*
X248641Y552096D01*
Y519085D01*
X247373Y519002D01*
X246936Y522324D01*
X242335Y525854D01*
X236586Y525097D01*
X233056Y520496D01*
X233813Y514747D01*
X238413Y511217D01*
X244163Y511974D01*
X247438Y516242D01*
X248641Y515834D01*
Y514889D01*
X250067Y511445D01*
X259428Y502084D01*
X258590Y501129D01*
X255035Y503857D01*
X249286Y503100D01*
X245756Y498499D01*
X246513Y492750D01*
X251113Y489220D01*
X256863Y489977D01*
X260393Y494577D01*
X259659Y500152D01*
X260798Y500714D01*
X273765Y487746D01*
X274774Y487328D01*
X277209Y486320D01*
X286460D01*
X289650Y483872D01*
X291763Y484150D01*
X299441Y476473D01*
Y474344D01*
X296993Y471155D01*
X297570Y466768D01*
X303674Y470292D01*
D01*
X309782Y473819D01*
X309182Y474279D01*
Y478490D01*
X307756Y481935D01*
X298698Y490992D01*
X298352Y493616D01*
X292244Y490089D01*
X291610Y491187D01*
X290513Y490553D01*
X286986Y496662D01*
X286525Y496061D01*
X279227D01*
X258382Y516906D01*
Y531316D01*
X259650Y531396D01*
X259650Y531396D01*
Y531396D01*
X264250Y527866D01*
X270000Y528623D01*
X273530Y533224D01*
X272773Y538973D01*
X268172Y542503D01*
X262423Y541746D01*
X259585Y538047D01*
X258382Y538456D01*
Y552031D01*
X260830Y555221D01*
X260252Y559607D01*
D02*
G37*
G36*
X26550Y537054D02*
X23559Y534063D01*
X26197Y531425D01*
X29188Y534416D01*
X26550Y537054D01*
D02*
G37*
G36*
X-21750Y531954D02*
X-24388Y529316D01*
X-21397Y526325D01*
X-18759Y528963D01*
X-21750Y531954D01*
D02*
G37*
G36*
X-269722Y541204D02*
X-274323Y537674D01*
X-275080Y531925D01*
X-271550Y527324D01*
X-265800Y526567D01*
X-261200Y530097D01*
X-260443Y535846D01*
X-263973Y540447D01*
X-269722Y541204D01*
D02*
G37*
G36*
X-244322Y585198D02*
X-248923Y581668D01*
X-249680Y575919D01*
X-246150Y571318D01*
X-240400Y570561D01*
X-235800Y574091D01*
X-235043Y579841D01*
X-238573Y584441D01*
X-244322Y585198D01*
D02*
G37*
G36*
X-206222Y651189D02*
X-210823Y647659D01*
X-211580Y641910D01*
X-208050Y637309D01*
X-202300Y636552D01*
X-197700Y640082D01*
X-196943Y645832D01*
X-200473Y650432D01*
X-206222Y651189D01*
D02*
G37*
G36*
X204672Y652488D02*
X198923Y651731D01*
X195393Y647131D01*
X196150Y641382D01*
X200750Y637851D01*
X206500Y638608D01*
X210030Y643209D01*
X209273Y648958D01*
X204672Y652488D01*
D02*
G37*
G36*
X178835Y635839D02*
X173086Y635082D01*
X169556Y630482D01*
X170313Y624732D01*
X174913Y621202D01*
X180663Y621959D01*
X184193Y626560D01*
X183436Y632309D01*
X178835Y635839D01*
D02*
G37*
G36*
X-178935Y637052D02*
X-183536Y633521D01*
X-184293Y627772D01*
X-180763Y623172D01*
X-175013Y622415D01*
X-170413Y625945D01*
X-169656Y631694D01*
X-173186Y636295D01*
X-178935Y637052D01*
D02*
G37*
G36*
X191972Y674485D02*
X186223Y673728D01*
X182693Y669128D01*
X183450Y663379D01*
X188050Y659848D01*
X193800Y660605D01*
X197330Y665206D01*
X196573Y670955D01*
X191972Y674485D01*
D02*
G37*
G36*
X-126000Y725648D02*
X-141307Y719307D01*
X-147648Y704000D01*
X-141307Y688693D01*
X-126000Y682352D01*
X-110693Y688693D01*
X-104352Y704000D01*
X-110693Y719307D01*
X-126000Y725648D01*
D02*
G37*
G36*
X-166235Y659049D02*
X-170836Y655519D01*
X-171593Y649769D01*
X-168063Y645169D01*
X-162313Y644412D01*
X-157713Y647942D01*
X-156956Y653691D01*
X-160486Y658292D01*
X-166235Y659049D01*
D02*
G37*
G36*
X-193522Y673186D02*
X-198123Y669656D01*
X-198880Y663907D01*
X-195350Y659306D01*
X-189600Y658549D01*
X-185000Y662079D01*
X-184243Y667829D01*
X-187773Y672429D01*
X-193522Y673186D01*
D02*
G37*
G36*
X217372Y630491D02*
X211623Y629734D01*
X208093Y625134D01*
X208850Y619384D01*
X213450Y615854D01*
X219200Y616611D01*
X222730Y621212D01*
X221973Y626961D01*
X217372Y630491D01*
D02*
G37*
G36*
X-231622Y607195D02*
X-236223Y603665D01*
X-236980Y597916D01*
X-233450Y593315D01*
X-227700Y592558D01*
X-223100Y596088D01*
X-222343Y601838D01*
X-225873Y606438D01*
X-231622Y607195D01*
D02*
G37*
G36*
X230072Y608494D02*
X224323Y607737D01*
X220793Y603137D01*
X221550Y597387D01*
X226150Y593857D01*
X231900Y594614D01*
X235430Y599215D01*
X234673Y604964D01*
X230072Y608494D01*
D02*
G37*
G36*
X-204335Y593058D02*
X-208936Y589527D01*
X-209693Y583778D01*
X-206163Y579177D01*
X-200413Y578420D01*
X-195813Y581951D01*
X-195056Y587700D01*
X-198586Y592301D01*
X-204335Y593058D01*
D02*
G37*
G36*
X11970Y594986D02*
Y591370D01*
X15586D01*
X14527Y593927D01*
X11970Y594986D01*
D02*
G37*
G36*
X43530Y747530D02*
X39800D01*
Y743300D01*
X43530D01*
Y747530D01*
D02*
G37*
G36*
X-218922Y629192D02*
X-223523Y625662D01*
X-224280Y619913D01*
X-220750Y615312D01*
X-215000Y614555D01*
X-210400Y618085D01*
X-209643Y623835D01*
X-213173Y628435D01*
X-218922Y629192D01*
D02*
G37*
G36*
X191535Y613842D02*
X185786Y613085D01*
X182256Y608485D01*
X183013Y602735D01*
X187613Y599205D01*
X193363Y599962D01*
X196893Y604563D01*
X196136Y610312D01*
X191535Y613842D01*
D02*
G37*
G36*
X-191635Y615055D02*
X-196236Y611525D01*
X-196993Y605775D01*
X-193463Y601175D01*
X-187713Y600418D01*
X-183113Y603948D01*
X-182356Y609697D01*
X-185886Y614298D01*
X-191635Y615055D01*
D02*
G37*
G36*
X-282422Y519207D02*
X-287023Y515677D01*
X-287780Y509927D01*
X-284250Y505327D01*
X-278500Y504570D01*
X-273900Y508100D01*
X-273143Y513849D01*
X-276673Y518450D01*
X-282422Y519207D01*
D02*
G37*
G36*
X-228100Y335512D02*
X-231927Y333927D01*
X-232233Y333188D01*
X-264600D01*
X-264600Y333188D01*
X-266494Y332404D01*
X-267279Y332079D01*
X-267279Y332079D01*
X-275158Y324200D01*
X-278300D01*
Y314200D01*
X-267300D01*
Y321343D01*
X-263031Y325612D01*
X-230330D01*
X-228100Y324688D01*
X-224273Y326273D01*
X-222688Y330100D01*
X-224273Y333927D01*
X-228100Y335512D01*
D02*
G37*
G36*
X142630Y353000D02*
X138900D01*
Y348770D01*
X142630D01*
Y353000D01*
D02*
G37*
G36*
X-17500Y325700D02*
X-28500D01*
Y315700D01*
X-17500D01*
Y325700D01*
D02*
G37*
G36*
X175100Y321756D02*
X169475Y319426D01*
X168714Y317588D01*
X163400D01*
Y319200D01*
X153400D01*
Y308200D01*
X163400D01*
Y310012D01*
X168714D01*
X169475Y308175D01*
X175100Y305844D01*
X180725Y308175D01*
X183056Y313800D01*
X180725Y319426D01*
X175100Y321756D01*
D02*
G37*
G36*
X-22000Y408100D02*
X-32000D01*
Y397100D01*
X-29788D01*
Y372000D01*
X-29788Y372000D01*
X-28679Y369321D01*
X-24779Y365421D01*
X-22100Y364312D01*
Y364312D01*
D01*
D01*
X-22100Y364312D01*
D01*
X-21480Y364055D01*
D01*
X-20826Y362475D01*
X-15200Y360144D01*
X-9575Y362475D01*
X-7244Y368100D01*
X-9575Y373725D01*
X-15200Y376056D01*
X-20826Y373725D01*
X-20840Y373691D01*
X-21230Y373613D01*
X-22212Y374419D01*
Y397100D01*
X-22000D01*
Y408100D01*
D02*
G37*
G36*
X58870Y366386D02*
Y362770D01*
X62486D01*
X61427Y365327D01*
X58870Y366386D01*
D02*
G37*
G36*
X148900Y353000D02*
X145170D01*
Y348770D01*
X148900D01*
Y353000D01*
D02*
G37*
G36*
X175400Y355456D02*
X169774Y353125D01*
X169014Y351288D01*
X162900D01*
Y353000D01*
X152900D01*
Y342000D01*
X162900D01*
Y343712D01*
X169014D01*
X169774Y341875D01*
X175400Y339544D01*
X181025Y341875D01*
X183356Y347500D01*
X181025Y353125D01*
X175400Y355456D01*
D02*
G37*
G36*
X148900Y346230D02*
X138900D01*
Y342000D01*
X140112D01*
Y319200D01*
X139400D01*
Y314970D01*
X149400D01*
Y319200D01*
X147688D01*
Y342000D01*
X148900D01*
Y346230D01*
D02*
G37*
G36*
X43530Y754300D02*
X39800D01*
Y750070D01*
X43530D01*
Y754300D01*
D02*
G37*
G36*
X56330Y366386D02*
X53773Y365327D01*
X53627Y364973D01*
X53556Y364944D01*
X52129Y361500D01*
Y297418D01*
X26012Y271301D01*
X24670Y271857D01*
Y263370D01*
X33157D01*
X32776Y264288D01*
X60444Y291956D01*
X61871Y295400D01*
X61871Y295400D01*
X61871Y295400D01*
Y358745D01*
X62486Y360230D01*
X57597D01*
Y361497D01*
X56330D01*
Y366386D01*
D02*
G37*
G36*
X175400Y287956D02*
X169774Y285625D01*
X169014Y283788D01*
X163800D01*
Y285500D01*
X153800D01*
Y274500D01*
X163800D01*
Y276212D01*
X169014D01*
X169774Y274375D01*
X175400Y272044D01*
X181025Y274375D01*
X183356Y280000D01*
X181025Y285625D01*
X175400Y287956D01*
D02*
G37*
G36*
X6400Y297600D02*
X-4600D01*
Y297471D01*
X-9100D01*
X-12544Y296044D01*
X-26720Y281868D01*
X-28027Y281327D01*
X-29612Y277500D01*
X-28027Y273673D01*
X-24200Y272088D01*
X-20373Y273673D01*
X-19832Y274980D01*
X-7082Y287729D01*
X-4600D01*
Y287600D01*
X6400D01*
Y297600D01*
D02*
G37*
G36*
X-103400Y315483D02*
X-110671Y312471D01*
X-112114Y308988D01*
X-142200D01*
Y309200D01*
X-153200D01*
Y308988D01*
X-159686D01*
X-161129Y312471D01*
X-168400Y315483D01*
X-175671Y312471D01*
X-177311Y308511D01*
X-178796Y307896D01*
X-179747Y305600D01*
X-178796Y303304D01*
X-177711Y302855D01*
X-175671Y297929D01*
X-168400Y294917D01*
X-161129Y297929D01*
X-159686Y301412D01*
X-153200D01*
Y299200D01*
X-142200D01*
Y301412D01*
X-130600D01*
Y298100D01*
X-119600D01*
Y301412D01*
X-112114D01*
X-110671Y297929D01*
X-103400Y294917D01*
X-96129Y297929D01*
X-93117Y305200D01*
X-96129Y312471D01*
X-103400Y315483D01*
D02*
G37*
G36*
X23400Y317383D02*
X16129Y314371D01*
X15135Y311971D01*
X-33335D01*
X-34329Y314371D01*
X-41600Y317383D01*
X-48871Y314371D01*
X-51883Y307100D01*
X-48871Y299829D01*
X-41600Y296817D01*
X-34329Y299829D01*
X-33335Y302229D01*
X-28500D01*
Y301700D01*
X-17500D01*
Y302229D01*
X-4600D01*
Y301600D01*
X6400D01*
Y302229D01*
X15135D01*
X16129Y299829D01*
X23400Y296817D01*
X30671Y299829D01*
X33683Y307100D01*
X30671Y314371D01*
X23400Y317383D01*
D02*
G37*
G36*
X230900Y316700D02*
X224394Y314006D01*
X221700Y307500D01*
X222377Y305865D01*
X178183Y261671D01*
X148500D01*
X145056Y260244D01*
X93256Y208444D01*
X91829Y205000D01*
Y151200D01*
X87700D01*
Y122200D01*
X91829D01*
Y120300D01*
X93256Y116856D01*
X116829Y93282D01*
Y90800D01*
X116700D01*
Y79800D01*
X126700D01*
Y80829D01*
X142100D01*
X143599Y81450D01*
X145102D01*
X145588Y80277D01*
X143982Y78671D01*
X136800D01*
X133356Y77244D01*
X118127Y62015D01*
X117670Y62204D01*
Y54670D01*
X125204D01*
X125015Y55127D01*
X138818Y68929D01*
X146000D01*
X149444Y70356D01*
X157144Y78056D01*
X158571Y81500D01*
X159550D01*
X159600Y81450D01*
Y81450D01*
X161229D01*
Y73300D01*
X161524Y72588D01*
X161488Y72500D01*
X163073Y68673D01*
X166900Y67088D01*
X170727Y68673D01*
X172312Y72500D01*
X170971Y75738D01*
Y81450D01*
X172600D01*
Y89950D01*
D01*
Y89950D01*
X172600Y89950D01*
Y90950D01*
X172600D01*
Y93930D01*
X166098D01*
Y96470D01*
X172600D01*
Y99450D01*
D01*
Y99450D01*
X172979Y99829D01*
X173783D01*
X175629Y97983D01*
Y78700D01*
X175629Y78700D01*
X175629Y78700D01*
X175813Y78256D01*
X175829Y78217D01*
Y69717D01*
X168127Y62015D01*
X166400Y62730D01*
X159803Y59997D01*
X157070Y53400D01*
X159803Y46803D01*
X166400Y44070D01*
X172997Y46803D01*
X175730Y53400D01*
X175015Y55127D01*
X184144Y64256D01*
X184484Y65075D01*
X185729Y64828D01*
Y62200D01*
X184300D01*
Y52200D01*
X195300D01*
Y57588D01*
X195471Y58000D01*
Y68600D01*
X194044Y72044D01*
X185571Y80518D01*
Y85700D01*
X185371Y86183D01*
Y100000D01*
X183944Y103444D01*
X179244Y108144D01*
X175800Y109571D01*
X168118D01*
X161971Y115717D01*
Y138083D01*
X171788Y147900D01*
X177800D01*
Y158900D01*
X167800D01*
Y157194D01*
X166956Y156844D01*
X153656Y143544D01*
X152229Y140100D01*
Y113700D01*
X153656Y110256D01*
X159600Y104312D01*
Y100450D01*
D01*
Y100450D01*
X159221Y100071D01*
X159100D01*
X155656Y98644D01*
X150256Y93244D01*
X148891Y89950D01*
X148600D01*
Y89950D01*
X143599D01*
X142100Y90571D01*
X126700D01*
Y90800D01*
X126571D01*
Y95300D01*
X125144Y98744D01*
X102862Y121027D01*
X103348Y122200D01*
X105700D01*
Y151200D01*
X101571D01*
Y202983D01*
X150518Y251929D01*
X180200D01*
X183644Y253356D01*
X229265Y298977D01*
X230900Y298300D01*
X237406Y300994D01*
X240100Y307500D01*
X237406Y314006D01*
X230900Y316700D01*
D02*
G37*
G36*
X281700D02*
X275194Y314006D01*
X272500Y307500D01*
X275194Y300994D01*
X281700Y298300D01*
X288206Y300994D01*
X290900Y307500D01*
X288206Y314006D01*
X281700Y316700D01*
D02*
G37*
G36*
X16300Y401230D02*
X12570D01*
Y397000D01*
X16300D01*
Y401230D01*
D02*
G37*
G36*
X-267835Y483072D02*
X-272436Y479542D01*
X-273193Y473793D01*
X-269663Y469192D01*
X-263913Y468435D01*
X-259313Y471965D01*
X-258556Y477715D01*
X-262086Y482315D01*
X-267835Y483072D01*
D02*
G37*
G36*
X-295122Y497210D02*
X-299723Y493680D01*
X-300480Y487930D01*
X-296950Y483330D01*
X-291200Y482573D01*
X-286600Y486103D01*
X-285843Y491852D01*
X-289373Y496453D01*
X-295122Y497210D01*
D02*
G37*
G36*
X311052Y471619D02*
X306046Y468729D01*
X308937Y463722D01*
X311630Y467233D01*
X311052Y471619D01*
D02*
G37*
G36*
X64400Y477512D02*
X60573Y475927D01*
X58988Y472100D01*
X59228Y471520D01*
X53078Y465370D01*
X51832Y465617D01*
X50627Y468527D01*
X46800Y470112D01*
X42973Y468527D01*
X42293Y466885D01*
X36604Y461196D01*
X35653Y458900D01*
Y366193D01*
X34597Y365488D01*
X32670Y366286D01*
Y361398D01*
X30130D01*
Y366286D01*
X27573Y365227D01*
X27032Y363920D01*
X20682Y357571D01*
X16422D01*
X16181Y358780D01*
D01*
X16174Y358816D01*
X21625Y361075D01*
X23956Y366700D01*
X23053Y368879D01*
X23879Y369221D01*
X27979Y373321D01*
X27979Y373321D01*
X28534Y374661D01*
X29088Y376000D01*
X29088Y376000D01*
Y397000D01*
X30300D01*
Y408000D01*
X20300D01*
Y397000D01*
X21512D01*
Y377569D01*
X18521Y374579D01*
X18179Y373753D01*
X16000Y374656D01*
X10375Y372325D01*
X8044Y366700D01*
X10375Y361075D01*
X15826Y358816D01*
X15697Y358166D01*
X15102Y357571D01*
X11717D01*
X4171Y365117D01*
Y381600D01*
X2744Y385044D01*
X-8129Y395918D01*
Y397100D01*
X-8000D01*
Y397329D01*
X6300D01*
Y397000D01*
X10030D01*
Y402503D01*
X11298D01*
Y403770D01*
X16300D01*
Y408000D01*
X15871D01*
Y412400D01*
X16600D01*
Y416630D01*
X11597D01*
Y417897D01*
X10330D01*
Y423400D01*
X11452D01*
X10800Y423671D01*
X10317Y423471D01*
X3288D01*
Y431257D01*
X3327Y431273D01*
X4386Y433830D01*
X-5386D01*
X-4327Y431273D01*
X-4288Y431257D01*
Y423471D01*
X-7700D01*
Y423600D01*
X-11430D01*
Y418097D01*
X-12697D01*
Y416830D01*
X-17700D01*
Y412600D01*
X-16871D01*
Y408100D01*
X-18000D01*
Y403870D01*
X-12997D01*
Y401330D01*
X-18000D01*
Y397100D01*
X-17871D01*
Y393900D01*
X-16444Y390456D01*
X-5571Y379582D01*
Y363100D01*
X-4144Y359656D01*
X6256Y349256D01*
X7857Y348593D01*
X7609Y347347D01*
X-72700D01*
X-74996Y346396D01*
X-81945Y339447D01*
X-129600D01*
X-131896Y338496D01*
X-147192Y323200D01*
X-153200D01*
Y313200D01*
X-142200D01*
Y319008D01*
X-128255Y332953D01*
X-80600D01*
X-78304Y333904D01*
X-78304Y333904D01*
X-78304Y333904D01*
X-71355Y340853D01*
X-25085D01*
X-24838Y339607D01*
X-26796Y338796D01*
X-27747Y336500D01*
X-26796Y334204D01*
X-24500Y333253D01*
X30100D01*
X32396Y334204D01*
X46596Y348404D01*
X47547Y350700D01*
Y450655D01*
X63820Y466928D01*
X64400Y466688D01*
X68227Y468273D01*
X69812Y472100D01*
X68227Y475927D01*
X64400Y477512D01*
D02*
G37*
G36*
X293572Y498509D02*
X289186Y497932D01*
X292076Y492925D01*
X297082Y495816D01*
X293572Y498509D01*
D02*
G37*
G36*
X17321Y533921D02*
X3179Y519779D01*
X10212Y512746D01*
Y504943D01*
X10173Y504927D01*
X8588Y501100D01*
X10173Y497273D01*
X14000Y495688D01*
X17827Y497273D01*
X19412Y501100D01*
X17827Y504927D01*
X17788Y504943D01*
Y513176D01*
X27927Y523315D01*
X17321Y533921D01*
D02*
G37*
G36*
X-61979Y498719D02*
X-65806Y497133D01*
X-67131Y493933D01*
X-73617Y487447D01*
X-75178D01*
X-77474Y486496D01*
X-77547Y486424D01*
X-78096Y486196D01*
X-79571Y484721D01*
X-80817Y484969D01*
X-82373Y488727D01*
X-86200Y490312D01*
X-90027Y488727D01*
X-91612Y484900D01*
X-91372Y484320D01*
X-103920Y471772D01*
X-104500Y472012D01*
X-108327Y470427D01*
X-109912Y466600D01*
X-108327Y462773D01*
X-104500Y461188D01*
X-102493Y462019D01*
X-101595Y461121D01*
X-102184Y459700D01*
X-100599Y455873D01*
X-96772Y454288D01*
X-92945Y455873D01*
X-91360Y459700D01*
X-92546Y462562D01*
X-79383Y475725D01*
X-78137Y475477D01*
X-76727Y472073D01*
X-76688Y472057D01*
Y460684D01*
X-76827Y460627D01*
X-78412Y456800D01*
X-76827Y452973D01*
X-73000Y451388D01*
X-69173Y452973D01*
X-68601Y454355D01*
X-67331D01*
X-66427Y452173D01*
X-62600Y450588D01*
X-58773Y452173D01*
X-57188Y456000D01*
X-58773Y459827D01*
X-59112Y459967D01*
Y474060D01*
X-57873Y474573D01*
X-56288Y478400D01*
X-57873Y482227D01*
X-61700Y483812D01*
X-65527Y482227D01*
X-67112Y478400D01*
X-66625Y477224D01*
X-67330Y476168D01*
X-67599D01*
X-69073Y479727D01*
X-70619Y480367D01*
Y481637D01*
X-69976Y481904D01*
X-63397Y488482D01*
X-61979Y487895D01*
X-58152Y489480D01*
X-56567Y493307D01*
X-58152Y497133D01*
X-61979Y498719D01*
D02*
G37*
G36*
X-255135Y505069D02*
X-259736Y501539D01*
X-260493Y495790D01*
X-256963Y491189D01*
X-251213Y490432D01*
X-246613Y493963D01*
X-245856Y499712D01*
X-249386Y504313D01*
X-255135Y505069D01*
D02*
G37*
G36*
X-11154Y546458D02*
X-17327Y540285D01*
X-15754Y538711D01*
X-16240Y537538D01*
X-18467D01*
X-17316Y536388D01*
X-19954Y533750D01*
X-16963Y530758D01*
X-17760Y529961D01*
X-13256D01*
X-13256Y529961D01*
X-10578Y531071D01*
X-9949Y531699D01*
X-9832D01*
X-8741Y531248D01*
Y473653D01*
X-8741Y473653D01*
X-7632Y470974D01*
X-3288Y466631D01*
Y465357D01*
X-4327Y464927D01*
X-5386Y462370D01*
X4386D01*
X4288Y462606D01*
Y468200D01*
X3179Y470879D01*
X3179Y470879D01*
X-1165Y475222D01*
Y477583D01*
X1227Y478573D01*
X2286Y481130D01*
X-2603D01*
Y483670D01*
X2286D01*
X1227Y486227D01*
X-1165Y487217D01*
Y535235D01*
X-548Y535852D01*
X-5849Y541153D01*
D01*
X-5851Y541155D01*
X-5853Y541157D01*
D01*
X-11154Y546458D01*
D02*
G37*
G36*
X-1770Y439986D02*
X-4327Y438927D01*
X-5386Y436370D01*
X-1770D01*
Y439986D01*
D02*
G37*
G36*
X770D02*
Y436370D01*
X4386D01*
X3327Y438927D01*
X770Y439986D01*
D02*
G37*
G36*
X16600Y423400D02*
X12870D01*
Y419170D01*
X16600D01*
Y423400D01*
D02*
G37*
G36*
X-13970Y423600D02*
X-17700D01*
Y419370D01*
X-13970D01*
Y423600D01*
D02*
G37*
G36*
X-307822Y475213D02*
X-312423Y471683D01*
X-313180Y465933D01*
X-309650Y461333D01*
X-303900Y460576D01*
X-299300Y464106D01*
X-298543Y469855D01*
X-302073Y474456D01*
X-307822Y475213D01*
D02*
G37*
G36*
X303846Y467459D02*
X298840Y464568D01*
X302350Y461875D01*
X306737Y462452D01*
X303846Y467459D01*
D02*
G37*
G36*
X280435Y459863D02*
X274686Y459106D01*
X271156Y454505D01*
X271913Y448756D01*
X276513Y445226D01*
X282263Y445983D01*
X285793Y450583D01*
X285036Y456333D01*
X280435Y459863D01*
D02*
G37*
G36*
X-280535Y461075D02*
X-285136Y457545D01*
X-285893Y451796D01*
X-282363Y447195D01*
X-276613Y446438D01*
X-272013Y449968D01*
X-271256Y455718D01*
X-274786Y460318D01*
X-280535Y461075D01*
D02*
G37*
%LPD*%
D15*
X107700Y85300D02*
D03*
X121700D02*
D03*
X144800Y280000D02*
D03*
X158800D02*
D03*
X144400Y313700D02*
D03*
X158400D02*
D03*
X143900Y347500D02*
D03*
X157900D02*
D03*
X172800Y153400D02*
D03*
X186800D02*
D03*
X44800Y748800D02*
D03*
X30800D02*
D03*
X173100Y125200D02*
D03*
X187100D02*
D03*
X-13000Y402600D02*
D03*
X-27000D02*
D03*
X11300Y402500D02*
D03*
X25300D02*
D03*
X-12700Y418100D02*
D03*
X-26700Y418100D02*
D03*
X11600Y417900D02*
D03*
X25600Y417900D02*
D03*
D18*
X129800Y499900D02*
X244900Y384800D01*
X278000D02*
X290000Y372800D01*
X244900Y384800D02*
X278000D01*
X117600Y499900D02*
X129800D01*
X125700Y512300D02*
X247300Y390700D01*
X117600Y512900D02*
X118300Y512200D01*
X125600D01*
X125700Y512300D01*
X247300Y390700D02*
X287400D01*
X289800Y388300D01*
X264500Y379200D02*
X316400Y327300D01*
X216100Y379200D02*
X264500D01*
X96000Y499300D02*
X216100Y379200D01*
X259600Y373400D02*
X302300Y330700D01*
X156200Y373400D02*
X259600D01*
X126500Y403100D02*
X156200Y373400D01*
X316400Y251500D02*
Y327300D01*
X302300Y244900D02*
Y330700D01*
X322900Y303800D02*
Y372600D01*
X296500Y399000D02*
X322900Y372600D01*
X252200Y399000D02*
X296500D01*
X330500Y305900D02*
Y374000D01*
X298400Y406100D02*
X330500Y374000D01*
X253000Y406100D02*
X298400D01*
X360800Y320300D02*
Y380000D01*
X308000Y432800D02*
X360800Y380000D01*
X258000Y432800D02*
X308000D01*
X352900Y316900D02*
Y378900D01*
X305600Y426200D02*
X352900Y378900D01*
X256600Y426200D02*
X305600D01*
X345000Y314000D02*
Y377000D01*
X302400Y419600D02*
X345000Y377000D01*
X255300Y419600D02*
X302400D01*
X145800Y505400D02*
X252200Y399000D01*
X145800Y505400D02*
Y534300D01*
X98800Y581300D02*
X145800Y534300D01*
X151700Y507400D02*
X253000Y406100D01*
X151700Y507400D02*
Y537400D01*
X104700Y584400D02*
X151700Y537400D01*
X254300Y412700D02*
X300700D01*
X158100Y508900D02*
X254300Y412700D01*
X158100Y508900D02*
Y539315D01*
X110500Y586915D02*
X158100Y539315D01*
X164100Y510800D02*
X255300Y419600D01*
X164100Y510800D02*
Y543500D01*
X116600Y591000D02*
X164100Y543500D01*
X169700Y513100D02*
X256600Y426200D01*
X169700Y513100D02*
Y546400D01*
X175600Y515200D02*
X258000Y432800D01*
X175600Y515200D02*
Y550100D01*
X127800Y597900D02*
X175600Y550100D01*
X122100Y594000D02*
X169700Y546400D01*
X187900Y530601D02*
Y554800D01*
X133000Y601100D02*
X181000Y553100D01*
Y518600D02*
Y553100D01*
Y518600D02*
X196500Y503100D01*
X138200Y604500D02*
X187900Y554800D01*
X204400Y514400D02*
Y517700D01*
X200800D02*
X204400D01*
X187900Y530601D02*
X200800Y517700D01*
X196500Y503100D02*
Y505000D01*
X143500Y606900D02*
X193800Y556600D01*
Y532500D02*
Y556600D01*
Y532500D02*
X202800Y523500D01*
X148600Y611000D02*
X202800Y556800D01*
Y537000D02*
Y556800D01*
X-445300Y172000D02*
X-372400Y99100D01*
X-445300Y172000D02*
Y221201D01*
X-372400Y99100D02*
X-322948D01*
X-451700Y169500D02*
X-374100Y91900D01*
X-326600D01*
X-457223Y164823D02*
X-377100Y84700D01*
X-328300D01*
X38900Y458900D02*
X44700Y464700D01*
X38900Y353200D02*
Y458900D01*
X29800Y344100D02*
X38900Y353200D01*
X-72700Y344100D02*
X29800D01*
X-80600Y336200D02*
X-72700Y344100D01*
X-96772Y462928D02*
X-75800Y483900D01*
X-104500Y466600D02*
X-86200Y484900D01*
X-344000Y196892D02*
Y201085D01*
X-122400Y174400D02*
X-110600Y162600D01*
X-141300Y99800D02*
X-120400Y78900D01*
X-165650Y100649D02*
X-133400Y68400D01*
Y48000D02*
Y68400D01*
X71800Y284300D02*
Y437900D01*
X-87400Y125100D02*
X71800Y284300D01*
X-120400Y48000D02*
Y78900D01*
X399500Y179500D02*
X421152D01*
X391500Y187500D02*
X399500Y179500D01*
X350900Y199600D02*
X369100Y217800D01*
X311000Y199600D02*
X350900D01*
X89496Y610696D02*
X95900D01*
X-12200Y644600D02*
X-4000D01*
X330500Y172900D02*
X427900D01*
X326200Y177200D02*
X330500Y172900D01*
X-129600Y336200D02*
X-80600D01*
X-347300Y139058D02*
X-326858Y159500D01*
X96300Y288300D02*
Y437200D01*
X109400Y291500D02*
Y436900D01*
X-370100Y266742D02*
X-337554Y234196D01*
X-290501Y85399D02*
Y101898D01*
X-268027Y96473D02*
Y113112D01*
X-40850Y598550D02*
X-38450D01*
X160Y139590D02*
X21090D01*
X124700Y122100D02*
Y136700D01*
X121700Y85300D02*
X122100Y85700D01*
X205670Y562530D02*
X214974D01*
X193900Y574300D02*
X205670Y562530D01*
X-326858Y159500D02*
Y192273D01*
X48100Y599400D02*
X64250Y615550D01*
X11008Y599400D02*
X48100D01*
X-164000Y373600D02*
Y384200D01*
X-176200Y396400D02*
X-164000Y384200D01*
X-176200Y396400D02*
Y422700D01*
X-139900Y35257D02*
Y40800D01*
X44300Y452000D02*
X64400Y472100D01*
X44700Y464700D02*
X46800D01*
X44300Y350700D02*
Y452000D01*
X-24500Y336500D02*
X30100D01*
X44300Y350700D01*
X-153203Y99603D02*
X-126900Y73300D01*
Y48000D02*
Y73300D01*
X-208300Y151900D02*
X-190000Y133600D01*
X-202400Y157600D02*
X-179000Y134200D01*
X-196700Y164700D02*
X-166900Y134900D01*
X-163800Y529700D02*
X-144200D01*
X-149600Y155600D02*
Y168200D01*
Y155600D02*
X-131200Y137200D01*
X1349Y630000D02*
X14774Y643426D01*
X-51400Y630000D02*
X1349D01*
X-146200Y174400D02*
X-122400D01*
X-191000Y209600D02*
X-149600Y168200D01*
X-184900Y213100D02*
X-146200Y174400D01*
X-7700Y617500D02*
X10200Y599600D01*
X-43100Y617500D02*
X-7700D01*
X-46800Y623900D02*
X6400D01*
X24100Y641600D01*
X-144200Y529700D02*
X-124600Y510100D01*
X-118200Y563200D02*
X-51400Y630000D01*
X-111600Y559100D02*
X-46800Y623900D01*
X-176200Y422700D02*
X-105000Y493900D01*
Y555600D01*
X-43100Y617500D01*
X265096Y112197D02*
X265600Y112701D01*
Y154200D01*
X311000Y199600D01*
X274000Y133223D02*
Y148700D01*
Y113585D02*
X288238Y99346D01*
X274000Y113585D02*
Y132523D01*
Y148700D02*
X292100Y166800D01*
X432200D01*
X444700Y179300D01*
X427900Y172900D02*
X434600Y179600D01*
X369100Y217800D02*
Y257600D01*
X316400Y251500D02*
X335603Y232297D01*
X302300Y244900D02*
X334800Y212400D01*
X350692D01*
X357358Y219066D01*
X6157Y454400D02*
X51057Y499300D01*
X9300Y449200D02*
X54100Y494000D01*
X51057Y499300D02*
X96000D01*
X54100Y494000D02*
X94100D01*
X126500Y461600D01*
Y403100D02*
Y461600D01*
X322900Y303800D02*
X369100Y257600D01*
X300700Y412700D02*
X337400Y376000D01*
X330500Y305900D02*
X379455Y256945D01*
Y206539D02*
Y256945D01*
X337400Y310300D02*
Y376000D01*
Y310300D02*
X391500Y256200D01*
Y187500D02*
Y256200D01*
X345000Y314000D02*
X402182Y256818D01*
Y195103D02*
Y256818D01*
X352900Y316900D02*
X434600Y235200D01*
Y179600D02*
Y235200D01*
X360800Y320300D02*
X444700Y236400D01*
Y179300D02*
Y236400D01*
X98800Y581300D02*
Y607796D01*
X95900Y610696D02*
X98800Y607796D01*
X104700Y584400D02*
Y612300D01*
X92200Y624800D02*
X104700Y612300D01*
X51700Y624800D02*
X92200D01*
X-4000Y644600D02*
X4500Y653100D01*
X72900D01*
X110500Y586915D02*
Y615500D01*
X72900Y653100D02*
X110500Y615500D01*
X-43800Y638600D02*
X-23800Y658600D01*
X-36000Y664900D02*
X79800D01*
X122100Y622600D01*
X-69154Y646346D02*
X-44800Y670700D01*
X82600D01*
X127800Y625500D01*
X-23800Y658600D02*
X76100D01*
X116600Y618100D01*
Y591000D02*
Y618100D01*
X-322948Y99100D02*
X-312651Y88803D01*
X-297200Y78700D02*
X-290501Y85399D01*
X-293600Y70900D02*
X-268027Y96473D01*
X-314500Y70900D02*
X-293600D01*
X-328300Y84700D02*
X-314500Y70900D01*
X-326600Y91900D02*
X-313400Y78700D01*
X-297200D01*
X-445300Y221201D02*
X-445300Y221201D01*
X-445300Y221201D02*
Y226999D01*
X-441199Y231100D01*
X-216900Y528700D02*
X-166800Y578800D01*
X-75100Y107000D02*
X109400Y291500D01*
X-333665Y75060D02*
X-301305Y42700D01*
X-300105Y43000D02*
X-244900D01*
X-223600Y64300D01*
Y87000D01*
X-191600Y119000D01*
X-84800D01*
X83800Y287600D01*
X-252303Y52197D02*
Y67697D01*
X-194900Y125100D01*
X-87400D01*
X-205000Y85600D02*
X-183600Y107000D01*
X-75100D01*
X-212800Y87500D02*
X-187300Y113000D01*
X-79000D01*
X96300Y288300D01*
X-347300Y66600D02*
Y71700D01*
X-359621Y62921D02*
Y69762D01*
X-347300Y66600D02*
X-315500Y34800D01*
X-238700D01*
X-212800Y60700D01*
Y87500D01*
X-359621Y62921D02*
X-321800Y25100D01*
X-235100D01*
X-205000Y55200D01*
Y85600D01*
X83800Y287600D02*
Y437300D01*
X-90600Y671300D02*
X-67500Y694400D01*
X-90600Y635200D02*
Y671300D01*
X-166800Y578800D02*
X-147900D01*
X-131500Y595200D01*
X-224200Y530300D02*
X-154700Y599800D01*
X-79900Y646400D02*
X-49799Y676500D01*
X-75800Y483900D02*
X-75478D01*
X-75178Y484200D01*
X-72272D01*
X-62572Y493900D01*
X29800Y695400D02*
Y704400D01*
X26400Y681900D02*
X55500D01*
X29600Y687100D02*
X52700D01*
X29800Y695400D02*
X33100Y692100D01*
X50200D01*
X122100Y594000D02*
Y622600D01*
X127800Y597900D02*
Y625500D01*
X-147650Y318150D02*
X-129600Y336200D01*
X-176500Y305600D02*
X-166700D01*
X8043Y307200D02*
X24400D01*
X154100Y617500D02*
X193900Y577700D01*
Y574300D02*
Y577700D01*
X-147400Y594400D02*
Y626800D01*
X-66820Y707380D01*
Y719020D01*
X133000Y601100D02*
Y633100D01*
X138200Y604500D02*
Y636700D01*
X84100Y690800D02*
X138200Y636700D01*
X143500Y606900D02*
Y639800D01*
X73400Y718700D02*
Y721000D01*
X148600Y611000D02*
Y643500D01*
X73400Y718700D02*
X148600Y643500D01*
X154100Y617500D02*
Y717600D01*
X-154700Y599800D02*
Y629000D01*
X-76500Y707200D01*
X-76100Y735340D02*
X-67640Y743800D01*
X-76500Y707200D02*
Y734940D01*
X-76100Y719700D02*
Y735340D01*
X50200Y692100D02*
X55500Y697400D01*
X-49799Y676500D02*
X70100D01*
X72200Y678600D01*
X59400Y685800D02*
X80300D01*
X55500Y681900D02*
X59400Y685800D01*
X80300D02*
X133000Y633100D01*
X56400Y690800D02*
X84100D01*
X52700Y687100D02*
X56400Y690800D01*
X55500Y697400D02*
X85900D01*
X143500Y639800D01*
X-214000Y143500D02*
X-201500Y131000D01*
X-68480Y769820D02*
X-61520D01*
X26400Y681900D01*
X-68600Y785300D02*
Y795000D01*
Y785300D02*
X29600Y687100D01*
X5100Y723100D02*
Y729300D01*
Y723100D02*
X23800Y704400D01*
X29800D01*
X5100Y743300D02*
X12000Y750200D01*
X29400D01*
X30800Y748800D01*
X294658Y143851D02*
X302522Y157472D01*
X-59004Y641896D02*
X-36000Y664900D01*
X-235700Y483100D02*
X-224200Y494600D01*
Y530300D01*
X-457223Y164823D02*
Y237869D01*
X-451700Y169500D02*
Y236321D01*
X-210300Y521800D02*
X-209500Y522600D01*
X-207800Y484700D02*
X-202400D01*
X-210300Y489271D02*
Y521800D01*
X-216900Y489742D02*
Y528700D01*
X-449147Y245945D02*
Y251856D01*
X-441071Y259932D01*
Y265571D01*
X-216900Y489742D01*
X-444147Y243874D02*
Y249785D01*
X-436071Y257861D01*
Y263500D01*
X-441199Y231100D02*
Y239750D01*
X-439147Y241803D01*
Y247714D01*
X-431071Y255790D01*
Y261429D01*
X-207800Y484700D01*
X-457223Y237869D02*
X-449147Y245945D01*
X-451700Y236321D02*
X-444147Y243874D01*
X-436071Y263500D02*
X-210300Y489271D01*
X-168900Y521999D02*
X-168300Y521399D01*
X-184900Y213100D02*
Y421200D01*
X-111600Y494500D01*
Y559100D01*
X-191000Y209600D02*
Y422200D01*
X-118200Y495000D01*
Y563200D01*
X-196700Y164700D02*
Y423900D01*
X-124600Y496000D01*
Y510100D01*
X-202400Y157600D02*
Y425300D01*
X-132500Y504800D02*
X-131214Y503514D01*
Y496486D02*
Y503514D01*
X-202400Y425300D02*
X-131214Y496486D01*
X-208300Y151900D02*
Y426700D01*
X-144100Y490900D01*
Y506600D01*
X-214000Y143500D02*
Y428300D01*
X-153300Y489000D01*
Y510300D01*
X-370100Y266742D02*
Y279600D01*
X-168900Y480800D01*
Y521999D01*
X-404400Y198600D02*
Y280200D01*
X-383400Y212300D02*
Y281400D01*
X-404400Y280200D02*
X-250800Y433800D01*
X-243300D01*
X-195400Y481701D01*
X-383400Y281400D02*
X-183000Y481800D01*
X-195400Y481701D02*
Y542800D01*
X-183000Y481800D02*
Y540500D01*
X-157150Y566350D01*
X-131500Y595200D02*
X-130100D01*
X-195400Y542800D02*
X-165700Y572500D01*
X-142900D01*
X-157150Y566350D02*
X-127150D01*
X-97100Y596400D01*
X-79900Y635000D02*
Y646400D01*
X-139900Y597000D02*
X-119000Y617900D01*
X-97000D01*
X-79900Y635000D01*
X-142900Y572500D02*
X-102500Y612900D01*
X-90500D01*
X-80200Y623200D01*
Y624100D01*
D19*
X-62900Y475300D02*
X-58903Y479297D01*
X16000Y366700D02*
X21200Y371900D01*
X-22100Y368100D02*
X-15200D01*
X80200Y482200D02*
Y485500D01*
X-96772Y459700D02*
Y462928D01*
X-62572Y493900D02*
X-61979Y493307D01*
X-72900Y475900D02*
Y478700D01*
X-201500Y131000D02*
Y133000D01*
X-155400Y511000D02*
Y512000D01*
X-155200Y512200D01*
X-176900Y98800D02*
X-175700D01*
X-152700Y100000D02*
Y102193D01*
X421152Y179500D02*
X424349Y182698D01*
X49000Y636100D02*
X50500Y637600D01*
X26500Y613600D02*
X49000Y636100D01*
X89496Y610696D02*
X91001Y612200D01*
X294353Y143323D02*
X294658Y143851D01*
X51000Y563900D02*
X51300D01*
X-52400Y558745D02*
Y559900D01*
X-139900Y40800D02*
Y48000D01*
X-312651Y88803D02*
X-311100Y90354D01*
X-52400Y558745D02*
X-47495Y563650D01*
X-7750Y585450D02*
X-6845Y586354D01*
X14000Y519994D02*
X15553Y521547D01*
X33200Y525700D02*
X36450Y528950D01*
X21700Y613600D02*
X26500D01*
X14500Y606400D02*
X21700Y613600D01*
X-154700Y599800D02*
X-154548Y599647D01*
X-141200Y595700D02*
X-139900Y597000D01*
X14497Y606403D02*
X14500Y606400D01*
X14497Y606403D02*
Y606996D01*
X-131200Y137200D02*
X-123300D01*
X24100Y641600D02*
Y644300D01*
X-31900Y443600D02*
X-26300Y449200D01*
X-153203Y99603D02*
Y102697D01*
X-152700Y102193D01*
X-149100Y592700D02*
X-147400Y594400D01*
X-73000Y456800D02*
X-72900Y456900D01*
X71600Y719200D02*
Y720900D01*
Y719200D02*
X73400Y721000D01*
X-155200Y512200D02*
X-153300Y510300D01*
X-144100Y506600D02*
X-143500Y507200D01*
D20*
X214974Y503026D02*
Y562530D01*
Y503026D02*
X243459Y474541D01*
X333972Y121000D02*
X333973Y121000D01*
X333971Y121001D02*
X333972Y121000D01*
X-385699Y167299D02*
X-372462D01*
X-396850Y178450D02*
X-385699Y167299D01*
X-412000Y161572D02*
Y174200D01*
X116400Y53400D02*
X138700Y31100D01*
X22700Y352700D02*
X31400Y361400D01*
X9700Y352700D02*
X22700D01*
X-700Y363100D02*
X9700Y352700D01*
X-700Y363100D02*
Y381600D01*
X253692Y581703D02*
Y586295D01*
X253511Y557182D02*
Y579014D01*
X2150Y575550D02*
Y581550D01*
X117800Y373700D02*
X117900Y373800D01*
X-700Y418600D02*
X10600D01*
X-12000D02*
X-700D01*
X-13000Y393900D02*
X-700Y381600D01*
X-13000Y393900D02*
Y402600D01*
X-31650Y523850D02*
X-31550D01*
X243900Y102900D02*
X265100Y81700D01*
X291848D01*
X302314Y92167D01*
X180700Y139800D02*
X218000D01*
X173100Y132200D02*
X180700Y139800D01*
X173100Y125200D02*
Y132200D01*
X157100Y140100D02*
X170400Y153400D01*
X157100Y113700D02*
Y140100D01*
Y113700D02*
X166100Y104700D01*
X159100Y95200D02*
X166100D01*
X153700Y89800D02*
X159100Y95200D01*
X153700Y81500D02*
Y89800D01*
X146000Y73800D02*
X153700Y81500D01*
X136800Y73800D02*
X146000D01*
X116400Y53400D02*
X136800Y73800D01*
X107700Y62100D02*
X116400Y53400D01*
X107700Y62100D02*
Y85300D01*
X73500D02*
X107700D01*
X50200Y108600D02*
X73500Y85300D01*
X-352392Y188500D02*
X-344000Y196892D01*
Y201085D02*
X-336358Y208727D01*
X-323300Y221785D01*
Y280800D01*
X243459Y474541D02*
X265774D01*
X-127900Y18000D02*
X-126900Y17000D01*
X-165900Y18000D02*
X-127900D01*
X-149900Y51000D02*
X-148800Y52100D01*
X43320Y769820D02*
X72280D01*
X30800Y757300D02*
X43320Y769820D01*
X30800Y748800D02*
Y757300D01*
X39300Y722500D02*
X48800Y713000D01*
X29800Y728400D02*
Y747800D01*
X26550Y548600D02*
X65663D01*
X73963Y556900D02*
X92500D01*
X65663Y548600D02*
X73963Y556900D01*
X-91800Y558100D02*
X-83000Y549300D01*
X180200Y256800D02*
X230900Y307500D01*
X148500Y256800D02*
X180200D01*
X96700Y205000D02*
X148500Y256800D01*
X96700Y136700D02*
Y205000D01*
X124700Y122100D02*
X142100Y104700D01*
X96700Y120300D02*
Y136700D01*
Y120300D02*
X121700Y95300D01*
Y85300D02*
Y95300D01*
X122100Y85700D02*
X142100D01*
X180500Y78700D02*
Y100000D01*
X166100Y104700D02*
X175800D01*
X180500Y100000D01*
X304311Y469193D02*
Y478490D01*
X291611Y491190D02*
X304311Y478490D01*
X277209Y491190D02*
X291611D01*
X253511Y514889D02*
Y557182D01*
Y514889D02*
X277209Y491190D01*
X-9150Y564750D02*
X1650Y575550D01*
X-20750Y553750D02*
X-20150D01*
X-9150Y564750D01*
X-30250Y544250D02*
X-20750Y553750D01*
X-30250Y542650D02*
Y544250D01*
X2150Y575550D02*
X13050Y564650D01*
X14450D01*
X14650D01*
X25550Y553750D02*
X26550Y552750D01*
X14650Y564650D02*
X25550Y553750D01*
X-12000Y402200D02*
X11000D01*
X10800Y418800D02*
X11000Y418600D01*
X-26700Y418100D02*
Y428900D01*
X-15800Y439800D01*
X25600Y417900D02*
Y429400D01*
X15200Y439800D02*
X25600Y429400D01*
X186800Y153400D02*
X202700D01*
X202700Y153400D01*
X187100Y125200D02*
X203700D01*
X160Y77610D02*
X19210D01*
X72900Y820700D02*
X84900Y808700D01*
Y767500D02*
Y808700D01*
X66200Y748800D02*
X84900Y767500D01*
X44800Y748800D02*
X66200D01*
X-372462Y167299D02*
X-365101Y171549D01*
X294335Y121946D02*
X302314Y92167D01*
X334338Y119634D02*
X341700Y115384D01*
X346282Y98282D01*
X2150Y581550D02*
X10700Y590100D01*
X-292700Y260200D02*
X-227700D01*
X48800Y713000D02*
X68100Y732300D01*
X-249800Y290800D02*
X-237600D01*
X-236300Y275900D01*
X-323300Y280800D02*
X-314500Y289600D01*
X-144100Y275900D02*
X-138300D01*
X-125100Y289100D02*
X-122800D01*
X-113000Y277300D02*
Y279300D01*
X-138300Y275900D02*
X-125100Y289100D01*
X-122800D02*
X-113000Y279300D01*
X-41600Y307100D02*
X23400D01*
X-9100Y292600D02*
X900D01*
X-24200Y277500D02*
X-9100Y292600D01*
X28400Y266800D02*
X57000Y295400D01*
X218000Y139800D02*
X224500Y146300D01*
X-314500Y289600D02*
X-249800D01*
X243900Y102900D02*
Y126900D01*
X241700Y129100D02*
X243900Y126900D01*
X68100Y732300D02*
X139400D01*
X154100Y717600D01*
X166400Y53400D02*
X180700Y67700D01*
X190600Y58000D02*
Y68600D01*
X180700Y67700D02*
Y78500D01*
Y85700D01*
Y78500D02*
X190600Y68600D01*
X180500Y78700D02*
X180700Y78500D01*
X189800Y31800D02*
Y43200D01*
X189100Y31100D02*
X189800Y31800D01*
X138700Y31100D02*
X189100D01*
X166100Y73300D02*
Y85700D01*
Y73300D02*
X166900Y72500D01*
X-347642Y165742D02*
Y180273D01*
Y165742D02*
X-343700Y161800D01*
X-363735Y171183D02*
X-347730Y180424D01*
X-346934Y180883D01*
X345962Y132724D02*
Y143200D01*
X333600Y120362D02*
X345962Y132724D01*
X333969Y121002D02*
X333971Y121001D01*
X346282Y92182D02*
Y98282D01*
X341600Y87500D02*
X346282Y92182D01*
X317172Y130700D02*
X333969Y121002D01*
X291151Y31100D02*
X319800Y59749D01*
Y99971D01*
X320975Y60925D02*
X334675Y47225D01*
X375556D01*
X-406903Y188000D02*
X-376427D01*
X-372101Y183674D01*
X-412000Y182903D02*
X-406903Y188000D01*
X-412000Y174200D02*
Y182903D01*
X-83000Y549300D02*
X-28700D01*
X-12000Y402200D02*
Y418600D01*
X57000Y295400D02*
Y361500D01*
X189100Y31100D02*
X291151D01*
X319800Y99971D02*
X327338Y107510D01*
X11000Y402200D02*
Y418600D01*
D21*
X-293700Y304900D02*
X-228700D01*
X-62900Y456000D02*
Y475300D01*
X-26000Y372000D02*
X-22100Y368100D01*
X48800Y728400D02*
X61800Y741400D01*
X80200Y482200D02*
X117900Y444500D01*
Y437600D02*
Y444500D01*
Y373800D02*
Y437600D01*
X500Y462100D02*
Y468200D01*
X-4953Y473653D02*
X500Y468200D01*
X-31550Y523850D02*
X-23000Y515300D01*
X170400Y153400D02*
X172800D01*
X96868Y232068D02*
X144800Y280000D01*
X-175700Y98800D02*
X-139900Y63000D01*
Y48000D02*
Y63000D01*
X-87900Y18000D02*
Y35000D01*
X-103900Y51000D02*
X-87900Y35000D01*
X-106900Y48000D02*
X-103900Y51000D01*
X-111600Y48000D02*
X-106900D01*
X25400Y589500D02*
X51000Y563900D01*
X-52400Y559900D02*
X-26100Y586200D01*
X48800Y704400D02*
Y713000D01*
X39300Y722500D02*
Y728400D01*
X48800D02*
Y744800D01*
X44800Y748800D02*
X48800Y744800D01*
X26550Y548600D02*
Y552750D01*
Y538850D02*
Y548600D01*
X2094Y549100D02*
X16300D01*
X26550Y538850D01*
X-4953Y542053D02*
X-806Y546200D01*
X-13256Y533750D02*
X-4953Y542053D01*
X-21750Y533750D02*
X-13256D01*
X1650Y575550D02*
X2150D01*
X3750D01*
X-47495Y563650D02*
X-30650D01*
X-28450Y608450D02*
X-23700Y603700D01*
X-6845D01*
Y586354D02*
Y603700D01*
X14000Y501100D02*
Y519994D01*
X25400Y575600D02*
Y589500D01*
X33200Y514100D02*
Y525700D01*
X-28500Y540499D02*
X-21750Y533750D01*
X-46700Y539300D02*
X-40150Y532750D01*
X-52755Y539300D02*
X-46700D01*
X-38450Y598550D02*
X-26100Y586200D01*
Y578200D02*
X-22250Y574350D01*
X-26100Y578200D02*
Y586200D01*
X-30950Y608450D02*
X-28450D01*
X158800Y280000D02*
X175400D01*
X158500Y313800D02*
X175100D01*
X157900Y347500D02*
X175400D01*
X35450Y563650D02*
X49850D01*
X-26000Y372000D02*
Y402200D01*
X25300Y376000D02*
Y402500D01*
X-372101Y183674D02*
X-370637Y189138D01*
X307672Y114246D02*
X321874Y106046D01*
X294335Y121946D02*
X307312Y125423D01*
X286887Y126246D02*
X294335Y121946D01*
X-500Y418800D02*
Y435100D01*
X-700Y418600D02*
X-500Y418800D01*
X-72900Y456900D02*
Y475900D01*
X21200Y371900D02*
X25300Y376000D01*
X179500Y714800D02*
X253334Y586917D01*
X61800Y741400D02*
X151376D01*
X179500Y714800D01*
X-273400Y320600D02*
X-264600Y329400D01*
X-168400Y305200D02*
X-103400D01*
X-264600Y329400D02*
X-227700D01*
X312226Y122586D02*
X312422Y122473D01*
X307312Y125423D02*
X312226Y122586D01*
X305200Y157600D02*
X326438D01*
X333838Y150200D01*
X-370637Y189138D02*
X-357230Y196879D01*
X-356434Y197338D01*
X-4953Y473653D02*
Y542053D01*
X143900Y280900D02*
Y347500D01*
X321874Y106046D02*
X326832Y107374D01*
X327338Y107510D01*
D22*
X-45600Y454400D02*
X6157D01*
X-26300Y449200D02*
X9300D01*
D23*
X-305861Y467894D02*
D03*
X-293161Y489891D02*
D03*
X-280461Y511889D02*
D03*
X-267761Y533885D02*
D03*
X-255061Y555883D02*
D03*
X-242361Y577880D02*
D03*
X-229661Y599877D02*
D03*
X-216961Y621874D02*
D03*
X-204261Y643871D02*
D03*
X-191561Y665868D02*
D03*
X-164274Y651730D02*
D03*
X-176974Y629733D02*
D03*
X-189674Y607736D02*
D03*
X-202374Y585739D02*
D03*
X-215074Y563742D02*
D03*
X-227774Y541745D02*
D03*
X-240474Y519748D02*
D03*
X-253174Y497751D02*
D03*
X-265874Y475754D02*
D03*
X-278574Y453757D02*
D03*
X278474Y452544D02*
D03*
X265774Y474541D02*
D03*
X253074Y496539D02*
D03*
X240374Y518535D02*
D03*
X227674Y540532D02*
D03*
X214974Y562530D02*
D03*
X202274Y584527D02*
D03*
X189574Y606524D02*
D03*
X176874Y628521D02*
D03*
X164174Y650518D02*
D03*
X190011Y667167D02*
D03*
X202711Y645170D02*
D03*
X215411Y623173D02*
D03*
X228111Y601176D02*
D03*
X240811Y579179D02*
D03*
X253511Y557182D02*
D03*
X266211Y535185D02*
D03*
X278911Y513187D02*
D03*
X291611Y491190D02*
D03*
X304311Y469193D02*
D03*
D24*
X-165900Y18000D02*
D03*
X-87900D02*
D03*
D25*
X-103900Y51000D02*
D03*
X-149900D02*
D03*
D26*
X15200Y439800D02*
D03*
X-15800D02*
D03*
D27*
X230900Y307500D02*
D03*
X256300D02*
D03*
X281700D02*
D03*
X215800Y63200D02*
D03*
Y88600D02*
D03*
D28*
X-227700Y305200D02*
D03*
X-292700Y260200D02*
D03*
X-227700D02*
D03*
X-292700Y305200D02*
D03*
X-103400D02*
D03*
X-168400Y260200D02*
D03*
X-103400D02*
D03*
X-168400Y305200D02*
D03*
X23400Y307100D02*
D03*
X-41600Y262100D02*
D03*
X23400D02*
D03*
X-41600Y307100D02*
D03*
D29*
X160Y77610D02*
D03*
Y139590D02*
D03*
X50200Y108600D02*
D03*
D30*
X-148700Y137200D02*
D03*
X-123300D02*
D03*
X-161400Y162600D02*
D03*
X-136000D02*
D03*
X-110600D02*
D03*
X116400Y53400D02*
D03*
X166400D02*
D03*
D31*
X-97900Y137200D02*
D03*
D32*
X215800Y37800D02*
D03*
D33*
X289800Y388300D02*
D03*
X290000Y372800D02*
D03*
X117600Y499900D02*
D03*
Y512900D02*
D03*
X196500Y505000D02*
D03*
X204400Y514400D02*
D03*
X203700Y524700D02*
D03*
X202800Y537000D02*
D03*
X-412000Y161572D02*
D03*
X31400Y361400D02*
D03*
X-2600Y482400D02*
D03*
X80200Y485500D02*
D03*
X117800Y373700D02*
D03*
X-500Y461100D02*
D03*
X-23000Y515300D02*
D03*
X-96772Y459700D02*
D03*
X-61979Y493307D02*
D03*
X-72900Y475900D02*
D03*
X-61700Y478400D02*
D03*
X-104500Y466600D02*
D03*
X-86200Y484900D02*
D03*
X96868Y232068D02*
D03*
X-144100Y275900D02*
D03*
X-236300D02*
D03*
X64200Y615600D02*
D03*
X-57300Y643200D02*
D03*
X-69700Y646700D02*
D03*
X24100Y644300D02*
D03*
X14774Y643426D02*
D03*
X-201500Y133000D02*
D03*
X64400Y472100D02*
D03*
X46800Y464700D02*
D03*
X-143500Y507200D02*
D03*
X-132500Y504800D02*
D03*
X-155400Y511000D02*
D03*
X-166900Y134900D02*
D03*
X-179000Y134200D02*
D03*
X-190000Y133600D02*
D03*
X-141200Y99900D02*
D03*
X-176900Y98800D02*
D03*
X-164000Y99300D02*
D03*
X-152700Y100000D02*
D03*
X-12200Y644600D02*
D03*
X326200Y177200D02*
D03*
X305200Y157600D02*
D03*
X51700Y624800D02*
D03*
X89496Y610696D02*
D03*
X-31900Y443600D02*
D03*
X-45600Y454400D02*
D03*
X-347300Y139058D02*
D03*
Y71700D02*
D03*
X-252303Y52197D02*
D03*
X-359621Y72886D02*
D03*
X109400Y436900D02*
D03*
X96300Y437200D02*
D03*
X72280Y769820D02*
D03*
X-67500Y694400D02*
D03*
X-68600Y795000D02*
D03*
X-68480Y769820D02*
D03*
X-67640Y743800D02*
D03*
X-66820Y719020D02*
D03*
X92700Y557800D02*
D03*
X-91800Y558100D02*
D03*
X14000Y501100D02*
D03*
X33200Y514100D02*
D03*
X-52755Y539300D02*
D03*
X-52400Y558745D02*
D03*
X-26100Y586200D02*
D03*
X-6845Y603700D02*
D03*
X25400Y589500D02*
D03*
X51300Y563900D02*
D03*
X72900Y820700D02*
D03*
X49000Y636100D02*
D03*
X-73000Y456800D02*
D03*
X-62600Y456000D02*
D03*
X-149100Y592700D02*
D03*
X-290501Y101898D02*
D03*
X-333665Y75060D02*
D03*
X-337554Y234196D02*
D03*
X-359621Y221617D02*
D03*
X-312651Y88803D02*
D03*
X-268027Y113112D02*
D03*
X375556Y47225D02*
D03*
X357358Y219066D02*
D03*
X402182Y195103D02*
D03*
X288238Y99346D02*
D03*
X336153Y232800D02*
D03*
X379455Y206539D02*
D03*
X424349Y182698D02*
D03*
X265096Y112197D02*
D03*
X10700Y590100D02*
D03*
X14497Y606996D02*
D03*
X-209500Y522600D02*
D03*
X-164000Y373600D02*
D03*
X-137600Y32600D02*
D03*
X57600Y361500D02*
D03*
X-45600Y638700D02*
D03*
X-500Y435100D02*
D03*
X71800Y437900D02*
D03*
X83800Y437300D02*
D03*
X-90600Y635200D02*
D03*
X-139900Y597000D02*
D03*
X71600Y720900D02*
D03*
X-113000Y277300D02*
D03*
X-24200Y277500D02*
D03*
X-228100Y330100D02*
D03*
X72200Y678600D02*
D03*
X166900Y72500D02*
D03*
X-383400Y212300D02*
D03*
X-404400Y198600D02*
D03*
X341600Y87500D02*
D03*
X-235700Y483100D02*
D03*
X-202400Y484600D02*
D03*
X-168300Y521399D02*
D03*
X-163800Y529700D02*
D03*
X-397200Y178100D02*
D03*
X-130100Y595200D02*
D03*
X-97100Y596400D02*
D03*
X-80200Y624100D02*
D03*
D34*
X16000Y366700D02*
D03*
X-15200Y368100D02*
D03*
X175400Y280000D02*
D03*
X175100Y313800D02*
D03*
X175400Y347500D02*
D03*
X202700Y153400D02*
D03*
X203700Y125200D02*
D03*
D35*
X151300Y211900D02*
D03*
Y411900D02*
D03*
X-151700Y211900D02*
D03*
Y411900D02*
D03*
X-126000Y704000D02*
D03*
X275000Y211900D02*
D03*
X-275000D02*
D03*
X126000Y704000D02*
D03*
D36*
X-78850Y73700D02*
D03*
X-180450D02*
D03*
D37*
X-7750Y585450D02*
D03*
X2150Y575550D02*
D03*
X-9150Y564750D02*
D03*
X-19050Y574650D02*
D03*
X-20750Y553750D02*
D03*
X-30650Y563650D02*
D03*
X26550Y538850D02*
D03*
X36450Y528950D02*
D03*
D38*
X-40150Y532750D02*
D03*
X-30250Y542650D02*
D03*
X-21750Y533750D02*
D03*
X-31650Y523850D02*
D03*
X14450Y564650D02*
D03*
X24350Y574550D02*
D03*
X25550Y553750D02*
D03*
X35450Y563650D02*
D03*
X-30950Y608450D02*
D03*
X-40850Y598550D02*
D03*
D39*
X15553Y521547D02*
D03*
X-4953Y542053D02*
D03*
D40*
X317042Y130927D02*
D03*
X312292Y122700D02*
D03*
X307542Y114473D02*
D03*
X286758Y126473D02*
D03*
X291508Y134700D02*
D03*
X296258Y142927D02*
D03*
D41*
X124700Y136700D02*
D03*
X96700D02*
D03*
D42*
X189800Y43200D02*
D03*
Y57200D02*
D03*
X-249800Y304800D02*
D03*
Y290800D02*
D03*
X-272800Y305200D02*
D03*
Y319200D02*
D03*
X-125100Y303100D02*
D03*
Y289100D02*
D03*
X-147700Y304200D02*
D03*
Y318200D02*
D03*
X900Y306600D02*
D03*
Y292600D02*
D03*
X-23000Y306700D02*
D03*
Y320700D02*
D03*
X5100Y729300D02*
D03*
Y743300D02*
D03*
D43*
X166100Y104700D02*
D03*
Y95200D02*
D03*
Y85700D02*
D03*
X142100D02*
D03*
Y104700D02*
D03*
D44*
X-372000Y183562D02*
D03*
X-365000Y171438D02*
D03*
D45*
X326600Y108238D02*
D03*
X333600Y120362D02*
D03*
D46*
X29800Y728400D02*
D03*
X39300D02*
D03*
X48800D02*
D03*
Y704400D02*
D03*
X39300D02*
D03*
X29800D02*
D03*
D47*
X-347642Y180273D02*
D03*
X-352392Y188500D02*
D03*
X-357142Y196727D02*
D03*
X-336358Y208727D02*
D03*
X-331608Y200500D02*
D03*
X-326858Y192273D02*
D03*
D48*
X-139900Y48000D02*
D03*
X-133400D02*
D03*
X-126900D02*
D03*
X-120400D02*
D03*
X-113900D02*
D03*
D49*
X-126900Y17000D02*
D03*
D50*
X-330638Y165300D02*
D03*
X-342762Y158300D02*
D03*
D51*
X333838Y150200D02*
D03*
X345962Y143200D02*
D03*
D52*
X224500Y146300D02*
Y244750D01*
X255700Y275950D01*
X224500Y146300D02*
X241700Y129100D01*
X255700Y275950D02*
Y307500D01*
D53*
X12000Y558100D02*
D03*
M02*
