%FSLAX44Y44*%
%MOMM*%
G71*
G01*
G75*
G04 Layer_Color=8388736*
%ADD10C,0.2540*%
%ADD11R,2.0320X2.0320*%
%ADD12R,5.5000X1.5000*%
G04:AMPARAMS|DCode=13|XSize=0.24mm|YSize=1.8mm|CornerRadius=0mm|HoleSize=0mm|Usage=FLASHONLY|Rotation=315.000|XOffset=0mm|YOffset=0mm|HoleType=Round|Shape=Round|*
%AMOVALD13*
21,1,1.5600,0.2400,0.0000,0.0000,45.0*
1,1,0.2400,-0.5515,-0.5515*
1,1,0.2400,0.5515,0.5515*
%
%ADD13OVALD13*%

G04:AMPARAMS|DCode=14|XSize=0.24mm|YSize=1.8mm|CornerRadius=0mm|HoleSize=0mm|Usage=FLASHONLY|Rotation=225.000|XOffset=0mm|YOffset=0mm|HoleType=Round|Shape=Round|*
%AMOVALD14*
21,1,1.5600,0.2400,0.0000,0.0000,315.0*
1,1,0.2400,-0.5515,0.5515*
1,1,0.2400,0.5515,-0.5515*
%
%ADD14OVALD14*%

%ADD15R,0.8000X0.9000*%
%ADD16P,2.8737X4X285.0*%
%ADD17P,2.8737X4X345.0*%
%ADD18C,0.4000*%
%ADD19C,0.2000*%
%ADD20C,0.7000*%
%ADD21C,0.5000*%
%ADD22C,0.3000*%
%ADD23C,1.2000*%
G04:AMPARAMS|DCode=24|XSize=1.9mm|YSize=1.1mm|CornerRadius=0mm|HoleSize=0mm|Usage=FLASHONLY|Rotation=90.000|XOffset=0mm|YOffset=0mm|HoleType=Round|Shape=Octagon|*
%AMOCTAGOND24*
4,1,8,0.2750,0.9500,-0.2750,0.9500,-0.5500,0.6750,-0.5500,-0.6750,-0.2750,-0.9500,0.2750,-0.9500,0.5500,-0.6750,0.5500,0.6750,0.2750,0.9500,0.0*
%
%ADD24OCTAGOND24*%

%ADD25O,1.1500X1.2500*%
%ADD26C,1.3000*%
%ADD27C,1.5000*%
%ADD28C,1.7000*%
%ADD29C,4.8260*%
%ADD30C,1.5240*%
%ADD31R,1.5240X1.5240*%
%ADD32R,1.5000X1.5000*%
%ADD33C,0.8000*%
%ADD34C,1.2700*%
%ADD35C,3.8000*%
%ADD36C,3.3020*%
G04:AMPARAMS|DCode=37|XSize=0.9mm|YSize=0.8mm|CornerRadius=0mm|HoleSize=0mm|Usage=FLASHONLY|Rotation=45.000|XOffset=0mm|YOffset=0mm|HoleType=Round|Shape=Rectangle|*
%AMROTATEDRECTD37*
4,1,4,-0.0354,-0.6010,-0.6010,-0.0354,0.0354,0.6010,0.6010,0.0354,-0.0354,-0.6010,0.0*
%
%ADD37ROTATEDRECTD37*%

G04:AMPARAMS|DCode=38|XSize=0.9mm|YSize=0.8mm|CornerRadius=0mm|HoleSize=0mm|Usage=FLASHONLY|Rotation=315.000|XOffset=0mm|YOffset=0mm|HoleType=Round|Shape=Rectangle|*
%AMROTATEDRECTD38*
4,1,4,-0.6010,0.0354,-0.0354,0.6010,0.6010,-0.0354,0.0354,-0.6010,-0.6010,0.0354,0.0*
%
%ADD38ROTATEDRECTD38*%

G04:AMPARAMS|DCode=39|XSize=1.8mm|YSize=1.3mm|CornerRadius=0mm|HoleSize=0mm|Usage=FLASHONLY|Rotation=45.000|XOffset=0mm|YOffset=0mm|HoleType=Round|Shape=Rectangle|*
%AMROTATEDRECTD39*
4,1,4,-0.1768,-1.0960,-1.0960,-0.1768,0.1768,1.0960,1.0960,0.1768,-0.1768,-1.0960,0.0*
%
%ADD39ROTATEDRECTD39*%

G04:AMPARAMS|DCode=40|XSize=0.65mm|YSize=0.9mm|CornerRadius=0mm|HoleSize=0mm|Usage=FLASHONLY|Rotation=60.000|XOffset=0mm|YOffset=0mm|HoleType=Round|Shape=Rectangle|*
%AMROTATEDRECTD40*
4,1,4,0.2272,-0.5065,-0.5522,-0.0565,-0.2272,0.5065,0.5522,0.0565,0.2272,-0.5065,0.0*
%
%ADD40ROTATEDRECTD40*%

%ADD41R,1.6000X2.7000*%
%ADD42R,0.9000X0.8000*%
%ADD43R,1.1000X0.6500*%
G04:AMPARAMS|DCode=44|XSize=0.9mm|YSize=0.8mm|CornerRadius=0mm|HoleSize=0mm|Usage=FLASHONLY|Rotation=210.000|XOffset=0mm|YOffset=0mm|HoleType=Round|Shape=Rectangle|*
%AMROTATEDRECTD44*
4,1,4,0.1897,0.5714,0.5897,-0.1214,-0.1897,-0.5714,-0.5897,0.1214,0.1897,0.5714,0.0*
%
%ADD44ROTATEDRECTD44*%

G04:AMPARAMS|DCode=45|XSize=0.9mm|YSize=0.8mm|CornerRadius=0mm|HoleSize=0mm|Usage=FLASHONLY|Rotation=330.000|XOffset=0mm|YOffset=0mm|HoleType=Round|Shape=Rectangle|*
%AMROTATEDRECTD45*
4,1,4,-0.5897,-0.1214,-0.1897,0.5714,0.5897,0.1214,0.1897,-0.5714,-0.5897,-0.1214,0.0*
%
%ADD45ROTATEDRECTD45*%

%ADD46R,0.6500X0.9000*%
G04:AMPARAMS|DCode=47|XSize=0.65mm|YSize=0.9mm|CornerRadius=0mm|HoleSize=0mm|Usage=FLASHONLY|Rotation=300.000|XOffset=0mm|YOffset=0mm|HoleType=Round|Shape=Rectangle|*
%AMROTATEDRECTD47*
4,1,4,-0.5522,0.0565,0.2272,0.5065,0.5522,-0.0565,-0.2272,-0.5065,-0.5522,0.0565,0.0*
%
%ADD47ROTATEDRECTD47*%

%ADD48R,0.4000X1.5500*%
%ADD49R,2.9000X1.9000*%
G04:AMPARAMS|DCode=50|XSize=0.9mm|YSize=0.8mm|CornerRadius=0mm|HoleSize=0mm|Usage=FLASHONLY|Rotation=120.000|XOffset=0mm|YOffset=0mm|HoleType=Round|Shape=Rectangle|*
%AMROTATEDRECTD50*
4,1,4,0.5714,-0.1897,-0.1214,-0.5897,-0.5714,0.1897,0.1214,0.5897,0.5714,-0.1897,0.0*
%
%ADD50ROTATEDRECTD50*%

G04:AMPARAMS|DCode=51|XSize=0.9mm|YSize=0.8mm|CornerRadius=0mm|HoleSize=0mm|Usage=FLASHONLY|Rotation=240.000|XOffset=0mm|YOffset=0mm|HoleType=Round|Shape=Rectangle|*
%AMROTATEDRECTD51*
4,1,4,-0.1214,0.5897,0.5714,0.1897,0.1214,-0.5897,-0.5714,-0.1897,-0.1214,0.5897,0.0*
%
%ADD51ROTATEDRECTD51*%

%ADD52C,0.9000*%
%ADD53R,0.1200X0.2200*%
%ADD54C,0.2500*%
%ADD55C,0.6000*%
%ADD56C,0.2032*%
%ADD57C,0.1500*%
%ADD58C,0.1200*%
%ADD59C,0.1000*%
%ADD60C,0.1300*%
%ADD61C,0.1100*%
%ADD62R,2.1336X2.1336*%
%ADD63R,5.7032X1.7032*%
G04:AMPARAMS|DCode=64|XSize=0.4432mm|YSize=2.0032mm|CornerRadius=0mm|HoleSize=0mm|Usage=FLASHONLY|Rotation=315.000|XOffset=0mm|YOffset=0mm|HoleType=Round|Shape=Round|*
%AMOVALD64*
21,1,1.5600,0.4432,0.0000,0.0000,45.0*
1,1,0.4432,-0.5515,-0.5515*
1,1,0.4432,0.5515,0.5515*
%
%ADD64OVALD64*%

G04:AMPARAMS|DCode=65|XSize=0.4432mm|YSize=2.0032mm|CornerRadius=0mm|HoleSize=0mm|Usage=FLASHONLY|Rotation=225.000|XOffset=0mm|YOffset=0mm|HoleType=Round|Shape=Round|*
%AMOVALD65*
21,1,1.5600,0.4432,0.0000,0.0000,315.0*
1,1,0.4432,-0.5515,0.5515*
1,1,0.4432,0.5515,-0.5515*
%
%ADD65OVALD65*%

%ADD66R,1.0032X1.1032*%
%ADD67P,3.0174X4X285.0*%
%ADD68P,3.0174X4X345.0*%
%ADD69C,1.4032*%
G04:AMPARAMS|DCode=70|XSize=2.1032mm|YSize=1.3032mm|CornerRadius=0mm|HoleSize=0mm|Usage=FLASHONLY|Rotation=90.000|XOffset=0mm|YOffset=0mm|HoleType=Round|Shape=Octagon|*
%AMOCTAGOND70*
4,1,8,0.3258,1.0516,-0.3258,1.0516,-0.6516,0.7258,-0.6516,-0.7258,-0.3258,-1.0516,0.3258,-1.0516,0.6516,-0.7258,0.6516,0.7258,0.3258,1.0516,0.0*
%
%ADD70OCTAGOND70*%

%ADD71O,1.3532X1.4532*%
%ADD72C,1.5032*%
%ADD73C,1.7032*%
%ADD74C,1.9032*%
%ADD75C,5.0292*%
%ADD76C,1.7272*%
%ADD77R,1.7272X1.7272*%
%ADD78R,1.7032X1.7032*%
%ADD79C,1.0032*%
%ADD80C,1.4732*%
%ADD81C,4.0032*%
%ADD82C,3.5052*%
G36*
X404164Y303911D02*
X404600Y303859D01*
X405577Y303661D01*
X405637Y303645D01*
X405779Y303575D01*
X406041Y303473D01*
X406363Y303354D01*
X406729Y303160D01*
X407139Y302889D01*
X407549Y302618D01*
X407981Y302309D01*
X408041Y302293D01*
X408167Y302163D01*
X408397Y301941D01*
X408649Y301680D01*
X408945Y301344D01*
X409263Y300969D01*
X409602Y300556D01*
X409888Y300062D01*
X409910Y300023D01*
X409932Y299985D01*
X409998Y299871D01*
X410048Y299697D01*
X410229Y299294D01*
X410379Y298772D01*
X410556Y298113D01*
X410641Y297351D01*
X410672Y296506D01*
X410529Y295611D01*
X410551Y295573D01*
X410497Y295491D01*
X410416Y295191D01*
X410250Y294689D01*
X410029Y294105D01*
X409700Y293357D01*
X409257Y292543D01*
X408677Y291701D01*
X407961Y290831D01*
X398714Y280570D01*
X398676Y280548D01*
X398644Y280428D01*
X398574Y280286D01*
X398602Y280150D01*
X398624Y280112D01*
X398706Y280058D01*
X398864Y280048D01*
X399114Y280142D01*
X415630Y289677D01*
X419123Y283626D01*
X402493Y274025D01*
X402417Y273981D01*
X402265Y273893D01*
X401977Y273777D01*
X401612Y273618D01*
X401210Y273436D01*
X400747Y273270D01*
X400202Y273159D01*
X399696Y273069D01*
X399636Y273085D01*
X399462Y273036D01*
X399168Y273018D01*
X398813Y273016D01*
X398399Y273031D01*
X397941Y273122D01*
X397444Y273190D01*
X396964Y273319D01*
X396904Y273335D01*
X396762Y273405D01*
X396500Y273508D01*
X396178Y273626D01*
X395812Y273821D01*
X395424Y274053D01*
X395014Y274324D01*
X394582Y274633D01*
X394560Y274671D01*
X394396Y274779D01*
X394226Y274985D01*
X393974Y275246D01*
X393679Y275583D01*
X393361Y275957D01*
X393037Y276430D01*
X392713Y276903D01*
X392691Y276941D01*
X392669Y276979D01*
X392603Y277093D01*
X392554Y277267D01*
X392372Y277670D01*
X392184Y278170D01*
X392007Y278829D01*
X391868Y279510D01*
X391821Y280294D01*
X391850Y281123D01*
X391844Y281221D01*
X391924Y281521D01*
X392037Y281941D01*
X392220Y282504D01*
X392457Y283148D01*
X392846Y283880D01*
X393333Y284618D01*
X393918Y285362D01*
X403849Y296372D01*
X403887Y296394D01*
X403979Y296498D01*
X404011Y296618D01*
X403961Y296792D01*
X403940Y296830D01*
X403880Y296846D01*
X403759Y296879D01*
X403547Y296807D01*
X386993Y287249D01*
X383500Y293300D01*
X400092Y302879D01*
X400168Y302923D01*
X400320Y303011D01*
X400609Y303127D01*
X400973Y303287D01*
X401376Y303468D01*
X401838Y303634D01*
X402361Y303783D01*
X402867Y303873D01*
X402927Y303857D01*
X403101Y303907D01*
X403396Y303924D01*
X403750Y303926D01*
X404164Y303911D01*
D02*
G37*
G36*
X418610Y276429D02*
X419309Y276274D01*
X420045Y276141D01*
X420749Y275888D01*
X421453Y275635D01*
X422164Y275284D01*
X422879Y274835D01*
X423558Y274364D01*
X424203Y273773D01*
X424871Y273143D01*
X425485Y272432D01*
X426066Y271601D01*
X426653Y270671D01*
X431575Y262147D01*
X425752Y258785D01*
X420304Y268223D01*
X420282Y268261D01*
X420260Y268299D01*
X420090Y268506D01*
X419876Y268788D01*
X419558Y269163D01*
X419104Y269510D01*
X418612Y269834D01*
X418066Y270077D01*
X417390Y270194D01*
X417292Y270188D01*
X417074Y270215D01*
X416643Y270169D01*
X416099Y270058D01*
X415440Y269880D01*
X414629Y269615D01*
X413688Y269224D01*
X413171Y268976D01*
X412638Y268669D01*
X412562Y268625D01*
X412410Y268537D01*
X412166Y268345D01*
X411845Y268109D01*
X411449Y267829D01*
X411036Y267490D01*
X410645Y267112D01*
X410238Y266674D01*
X409815Y266176D01*
X409491Y265684D01*
X409210Y265116D01*
X408989Y264532D01*
X408888Y263916D01*
X408907Y263267D01*
X409063Y262646D01*
X409360Y261956D01*
X411843Y257655D01*
X411865Y257617D01*
X411887Y257579D01*
X412034Y257411D01*
X412281Y257248D01*
X412641Y257152D01*
X412679Y257174D01*
X412739Y257158D01*
X413017Y257115D01*
X413387Y257177D01*
X413752Y257337D01*
X413790Y257359D01*
X413828Y257381D01*
X414034Y257551D01*
X414273Y257841D01*
X414505Y258229D01*
X414543Y258251D01*
X414560Y258311D01*
X414624Y258551D01*
X414644Y258867D01*
X414632Y259063D01*
X414545Y259215D01*
X412018Y263592D01*
X417840Y266953D01*
X420455Y262425D01*
X420499Y262348D01*
X420587Y262196D01*
X420702Y261908D01*
X420884Y261505D01*
X421028Y261081D01*
X421177Y260558D01*
X421289Y260014D01*
X421362Y259447D01*
X421346Y259387D01*
X421380Y259153D01*
X421397Y258859D01*
X421361Y258483D01*
X421330Y258008D01*
X421283Y257474D01*
X421139Y256934D01*
X420994Y256393D01*
X420978Y256333D01*
X420892Y256131D01*
X420789Y255869D01*
X420655Y255487D01*
X420444Y255061D01*
X420195Y254613D01*
X419870Y254121D01*
X419546Y253629D01*
X419530Y253569D01*
X419361Y253421D01*
X419177Y253213D01*
X418900Y252901D01*
X418586Y252567D01*
X418211Y252250D01*
X417776Y251948D01*
X417304Y251624D01*
X417228Y251580D01*
X417037Y251471D01*
X416711Y251333D01*
X416308Y251151D01*
X415808Y250964D01*
X415269Y250754D01*
X414648Y250599D01*
X414044Y250503D01*
X413984Y250519D01*
X413750Y250486D01*
X413455Y250468D01*
X413063Y250445D01*
X412551Y250453D01*
X412038Y250462D01*
X411482Y250546D01*
X410904Y250669D01*
X410844Y250685D01*
X410663Y250734D01*
X410341Y250852D01*
X410019Y250970D01*
X409555Y251159D01*
X409107Y251408D01*
X408621Y251635D01*
X408129Y251959D01*
X408069Y251976D01*
X407943Y252106D01*
X407713Y252328D01*
X407423Y252567D01*
X407089Y252881D01*
X406772Y253256D01*
X406410Y253707D01*
X406086Y254180D01*
X404065Y257681D01*
X404043Y257719D01*
X403999Y257795D01*
X403911Y257947D01*
X403839Y258159D01*
X403707Y258388D01*
X403592Y258676D01*
X403332Y259389D01*
X403023Y260276D01*
X402784Y261305D01*
X402578Y262454D01*
X402485Y263669D01*
X402544Y264972D01*
X402601Y265664D01*
X402718Y266341D01*
X402873Y267039D01*
X403126Y267743D01*
X403417Y268470D01*
X403752Y269120D01*
X404179Y269874D01*
X404651Y270552D01*
X405220Y271235D01*
X405887Y271925D01*
X406615Y272599D01*
X407402Y273256D01*
X408309Y273882D01*
X409315Y274513D01*
X409429Y274579D01*
X409467Y274601D01*
X409543Y274645D01*
X409696Y274733D01*
X409946Y274827D01*
X410174Y274958D01*
X410500Y275096D01*
X410865Y275256D01*
X411289Y275399D01*
X412215Y275730D01*
X413298Y276051D01*
X414523Y276302D01*
X415830Y276499D01*
X417187Y276521D01*
X418610Y276429D01*
D02*
G37*
G36*
X439572Y248295D02*
X439594Y248257D01*
X439638Y248181D01*
X439726Y248029D01*
X439798Y247817D01*
X439930Y247588D01*
X440046Y247300D01*
X440327Y246549D01*
X440614Y245700D01*
X440853Y244671D01*
X441060Y243522D01*
X441152Y242307D01*
X441093Y241004D01*
X441036Y240311D01*
X440919Y239635D01*
X440726Y238915D01*
X440511Y238232D01*
X440220Y237506D01*
X439869Y236796D01*
X439458Y236102D01*
X438948Y235402D01*
X438379Y234718D01*
X437750Y234051D01*
X437023Y233377D01*
X436197Y232697D01*
X435290Y232072D01*
X434284Y231441D01*
X434208Y231397D01*
X434018Y231287D01*
X433751Y231133D01*
X433311Y230930D01*
X432832Y230704D01*
X432256Y230473D01*
X431603Y230197D01*
X430890Y229938D01*
X430139Y229656D01*
X429306Y229429D01*
X428489Y229262D01*
X427634Y229073D01*
X426752Y229020D01*
X425907Y228989D01*
X425056Y229056D01*
X424222Y229183D01*
X424162Y229199D01*
X424042Y229231D01*
X423802Y229296D01*
X423518Y229436D01*
X423136Y229571D01*
X422710Y229781D01*
X422223Y230008D01*
X421731Y230333D01*
X421157Y230712D01*
X420561Y231129D01*
X419960Y231644D01*
X419336Y232197D01*
X418766Y232832D01*
X418131Y233582D01*
X417549Y234413D01*
X416984Y235304D01*
X411513Y244780D01*
X434080Y257809D01*
X439572Y248295D01*
D02*
G37*
G36*
X-265504Y395968D02*
X-261282Y394687D01*
X-257391Y392607D01*
X-253980Y389808D01*
X-251180Y386397D01*
X-249101Y382506D01*
X-247820Y378283D01*
X-247387Y373892D01*
X-247820Y369501D01*
X-249101Y365279D01*
X-251180Y361387D01*
X-253980Y357976D01*
X-257391Y355177D01*
X-261282Y353097D01*
X-265504Y351816D01*
X-269896Y351384D01*
X-274287Y351816D01*
X-278509Y353097D01*
X-282401Y355177D01*
X-285811Y357976D01*
X-288611Y361387D01*
X-290691Y365279D01*
X-291971Y369501D01*
X-292404Y373892D01*
X-291971Y378283D01*
X-290691Y382506D01*
X-288611Y386397D01*
X-285811Y389808D01*
X-282401Y392607D01*
X-278509Y394687D01*
X-274287Y395968D01*
X-269896Y396400D01*
X-265504Y395968D01*
D02*
G37*
G36*
X-262731Y426478D02*
X-256081Y425155D01*
X-249661Y422976D01*
X-243581Y419978D01*
X-237944Y416211D01*
X-232847Y411741D01*
X-228377Y406644D01*
X-224610Y401007D01*
X-221612Y394926D01*
X-221465Y394496D01*
X-221543Y394465D01*
X-221345Y393988D01*
X-221749Y393013D01*
X-222015Y392902D01*
X-222021Y392911D01*
X-222162Y392572D01*
X-223137Y392168D01*
X-224067Y392553D01*
X-224008Y392617D01*
X-223995Y392631D01*
X-227926Y396143D01*
X-233979Y400438D01*
X-240476Y404029D01*
X-247334Y406870D01*
X-254466Y408924D01*
X-261784Y410168D01*
X-269196Y410584D01*
X-276607Y410168D01*
X-283925Y408924D01*
X-291057Y406870D01*
X-297915Y404029D01*
X-304412Y400438D01*
X-310466Y396143D01*
X-315433Y391703D01*
X-312880Y389608D01*
X-310081Y386197D01*
X-308001Y382306D01*
X-306720Y378083D01*
X-306287Y373692D01*
X-306720Y369301D01*
X-308001Y365079D01*
X-310081Y361187D01*
X-312880Y357776D01*
X-314429Y356505D01*
X-310665Y353141D01*
X-304612Y348846D01*
X-298115Y345255D01*
X-291257Y342415D01*
X-284125Y340360D01*
X-276807Y339117D01*
X-269396Y338700D01*
X-261985Y339117D01*
X-254667Y340360D01*
X-247534Y342415D01*
X-240676Y345255D01*
X-234179Y348846D01*
X-228126Y353141D01*
X-222894Y357817D01*
X-224252Y358931D01*
X-227051Y362342D01*
X-229131Y366233D01*
X-230412Y370456D01*
X-230845Y374847D01*
X-230412Y379238D01*
X-229131Y383461D01*
X-227051Y387352D01*
X-224252Y390763D01*
X-220841Y393562D01*
X-216950Y395642D01*
X-212728Y396923D01*
X-208336Y397355D01*
X-203945Y396923D01*
X-199723Y395642D01*
X-195831Y393562D01*
X-192421Y390763D01*
X-189621Y387352D01*
X-187541Y383461D01*
X-186260Y379238D01*
X-185828Y374847D01*
X-186260Y370456D01*
X-187541Y366233D01*
X-189621Y362342D01*
X-192421Y358931D01*
X-195831Y356132D01*
X-199723Y354052D01*
X-203945Y352771D01*
X-208336Y352339D01*
X-212728Y352771D01*
X-216950Y354052D01*
X-220841Y356132D01*
X-220901Y356181D01*
X-221433Y355705D01*
X-221470Y355743D01*
X-222212Y353558D01*
X-225210Y347477D01*
X-228977Y341840D01*
X-233447Y336743D01*
X-238544Y332273D01*
X-244181Y328507D01*
X-250261Y325508D01*
X-256681Y323329D01*
X-263330Y322006D01*
X-270096Y321563D01*
X-276861Y322006D01*
X-283510Y323329D01*
X-289930Y325508D01*
X-296010Y328507D01*
X-301647Y332273D01*
X-306744Y336743D01*
X-311215Y341840D01*
X-314981Y347477D01*
X-317980Y353558D01*
X-318126Y353988D01*
X-318049Y354020D01*
X-318055Y354034D01*
X-320182Y352897D01*
X-324404Y351616D01*
X-328796Y351184D01*
X-333187Y351616D01*
X-337409Y352897D01*
X-341301Y354977D01*
X-344711Y357776D01*
X-347511Y361187D01*
X-349591Y365079D01*
X-350872Y369301D01*
X-351304Y373692D01*
X-350872Y378083D01*
X-349591Y382306D01*
X-347511Y386197D01*
X-344711Y389608D01*
X-341301Y392407D01*
X-337409Y394487D01*
X-333187Y395768D01*
X-328796Y396200D01*
X-324404Y395768D01*
X-320182Y394487D01*
X-317936Y393287D01*
X-317380Y394926D01*
X-314381Y401007D01*
X-310614Y406644D01*
X-306144Y411741D01*
X-301047Y416211D01*
X-295410Y419978D01*
X-289330Y422976D01*
X-282910Y425155D01*
X-276261Y426478D01*
X-269496Y426921D01*
X-262731Y426478D01*
D02*
G37*
%LPC*%
G36*
X-222027Y392921D02*
X-222021Y392911D01*
X-222019Y392916D01*
X-222027Y392921D01*
D02*
G37*
G36*
X431619Y248625D02*
X420697Y242319D01*
X423334Y237753D01*
X423355Y237715D01*
X423377Y237677D01*
X423547Y237470D01*
X423761Y237188D01*
X424079Y236813D01*
X424495Y236444D01*
X424987Y236119D01*
X425571Y235898D01*
X426209Y235760D01*
X426307Y235766D01*
X426563Y235761D01*
X426956Y235785D01*
X427500Y235896D01*
X428159Y236074D01*
X428970Y236339D01*
X429911Y236730D01*
X430428Y236978D01*
X430961Y237285D01*
X431037Y237329D01*
X431189Y237417D01*
X431433Y237609D01*
X431776Y237807D01*
X432151Y238124D01*
X432563Y238464D01*
X432992Y238864D01*
X433399Y239302D01*
X433784Y239778D01*
X434147Y240292D01*
X434428Y240860D01*
X434648Y241444D01*
X434749Y242060D01*
X434730Y242709D01*
X434553Y243367D01*
X434255Y244058D01*
X431619Y248625D01*
D02*
G37*
G36*
X-221479Y355752D02*
X-221470Y355743D01*
X-221468Y355748D01*
X-221479Y355752D01*
D02*
G37*
%LPD*%
D10*
X-223137Y393546D02*
G03*
X-316814Y392037I-46059J-49154D01*
G01*
X-222724Y393987D02*
G03*
X-316957Y392181I-46772J-18895D01*
G01*
X-316868Y354497D02*
G03*
X-222634Y356303I46772J18895D01*
G01*
X-315455Y355738D02*
G03*
X-221777Y357247I46059J49154D01*
G01*
D62*
X90900Y820620D02*
D03*
Y795220D02*
D03*
Y769820D02*
D03*
Y744420D02*
D03*
Y719020D02*
D03*
Y693620D02*
D03*
X-86900D02*
D03*
Y719020D02*
D03*
Y744420D02*
D03*
Y769820D02*
D03*
Y795220D02*
D03*
Y820620D02*
D03*
D63*
X-43000Y388300D02*
D03*
X43000D02*
D03*
D64*
X82657Y561574D02*
D03*
X79828Y564403D02*
D03*
X77000Y567231D02*
D03*
X74171Y570060D02*
D03*
X71343Y572888D02*
D03*
X68514Y575717D02*
D03*
X65686Y578545D02*
D03*
X62858Y581373D02*
D03*
X60029Y584202D02*
D03*
X57201Y587030D02*
D03*
X54372Y589859D02*
D03*
X51544Y592687D02*
D03*
X48716Y595516D02*
D03*
X45887Y598344D02*
D03*
X43059Y601172D02*
D03*
X40230Y604001D02*
D03*
X37402Y606829D02*
D03*
X34573Y609658D02*
D03*
X31745Y612486D02*
D03*
X28916Y615314D02*
D03*
X26088Y618143D02*
D03*
X23260Y620971D02*
D03*
X20431Y623800D02*
D03*
X17603Y626628D02*
D03*
X14774Y629457D02*
D03*
X-77857Y536826D02*
D03*
X-75028Y533997D02*
D03*
X-72200Y531169D02*
D03*
X-69371Y528340D02*
D03*
X-66543Y525512D02*
D03*
X-63714Y522683D02*
D03*
X-60886Y519855D02*
D03*
X-58058Y517027D02*
D03*
X-55229Y514198D02*
D03*
X-52401Y511370D02*
D03*
X-49572Y508541D02*
D03*
X-46744Y505713D02*
D03*
X-43916Y502884D02*
D03*
X-41087Y500056D02*
D03*
X-38259Y497228D02*
D03*
X-35430Y494399D02*
D03*
X-32602Y491571D02*
D03*
X-29773Y488742D02*
D03*
X-26945Y485914D02*
D03*
X-24116Y483086D02*
D03*
X-21288Y480257D02*
D03*
X-18460Y477429D02*
D03*
X-15631Y474600D02*
D03*
X-12803Y471772D02*
D03*
X-9974Y468943D02*
D03*
D65*
Y629457D02*
D03*
X-12803Y626628D02*
D03*
X-15631Y623800D02*
D03*
X-18460Y620971D02*
D03*
X-21288Y618143D02*
D03*
X-24116Y615315D02*
D03*
X-26945Y612486D02*
D03*
X-29773Y609658D02*
D03*
X-32602Y606829D02*
D03*
X-35430Y604001D02*
D03*
X-38259Y601172D02*
D03*
X-41087Y598344D02*
D03*
X-43916Y595516D02*
D03*
X-46744Y592687D02*
D03*
X-49572Y589859D02*
D03*
X-52401Y587030D02*
D03*
X-55229Y584202D02*
D03*
X-58058Y581373D02*
D03*
X-60886Y578545D02*
D03*
X-63714Y575717D02*
D03*
X-66543Y572888D02*
D03*
X-69371Y570060D02*
D03*
X-72200Y567231D02*
D03*
X-75028Y564403D02*
D03*
X-77857Y561574D02*
D03*
X14774Y468943D02*
D03*
X17603Y471772D02*
D03*
X20431Y474600D02*
D03*
X23260Y477429D02*
D03*
X26088Y480257D02*
D03*
X28916Y483086D02*
D03*
X31745Y485914D02*
D03*
X34573Y488742D02*
D03*
X37402Y491571D02*
D03*
X40230Y494399D02*
D03*
X43059Y497228D02*
D03*
X45887Y500056D02*
D03*
X48716Y502884D02*
D03*
X51544Y505713D02*
D03*
X54372Y508541D02*
D03*
X57201Y511370D02*
D03*
X60029Y514198D02*
D03*
X62858Y517027D02*
D03*
X65686Y519855D02*
D03*
X68514Y522684D02*
D03*
X71343Y525512D02*
D03*
X74171Y528340D02*
D03*
X77000Y531169D02*
D03*
X79828Y533997D02*
D03*
X82657Y536826D02*
D03*
D66*
X144500Y347000D02*
D03*
X158500D02*
D03*
X144500Y313800D02*
D03*
X158500D02*
D03*
X144500Y280100D02*
D03*
X158500D02*
D03*
X187100Y125200D02*
D03*
X173100D02*
D03*
X186700Y152700D02*
D03*
X172700D02*
D03*
D67*
X456252Y186980D02*
D03*
X434255Y199680D02*
D03*
X412258Y212380D02*
D03*
X390261Y225080D02*
D03*
X368264Y237780D02*
D03*
X346267Y250480D02*
D03*
X257367Y96500D02*
D03*
X279364Y83800D02*
D03*
X301361Y71100D02*
D03*
X323358Y58400D02*
D03*
X345355Y45700D02*
D03*
X367352Y33000D02*
D03*
D68*
X-456652Y188080D02*
D03*
X-434655Y200780D02*
D03*
X-412658Y213480D02*
D03*
X-390661Y226180D02*
D03*
X-368664Y238880D02*
D03*
X-346667Y251580D02*
D03*
X-257767Y97600D02*
D03*
X-279764Y84900D02*
D03*
X-301761Y72200D02*
D03*
X-323758Y59500D02*
D03*
X-345755Y46800D02*
D03*
X-367752Y34100D02*
D03*
D69*
X-305861Y467894D02*
D03*
X-293161Y489891D02*
D03*
X-280461Y511889D02*
D03*
X-267761Y533885D02*
D03*
X-255061Y555883D02*
D03*
X-242361Y577880D02*
D03*
X-229661Y599877D02*
D03*
X-216961Y621874D02*
D03*
X-204261Y643871D02*
D03*
X-191561Y665868D02*
D03*
X-164274Y651730D02*
D03*
X-176974Y629733D02*
D03*
X-189674Y607736D02*
D03*
X-202374Y585739D02*
D03*
X-215074Y563742D02*
D03*
X-227774Y541745D02*
D03*
X-240474Y519748D02*
D03*
X-253174Y497751D02*
D03*
X-265874Y475754D02*
D03*
X-278574Y453757D02*
D03*
X278474Y452544D02*
D03*
X265774Y474541D02*
D03*
X253074Y496539D02*
D03*
X240374Y518535D02*
D03*
X227674Y540532D02*
D03*
X214974Y562530D02*
D03*
X202274Y584527D02*
D03*
X189574Y606524D02*
D03*
X176874Y628521D02*
D03*
X164174Y650518D02*
D03*
X190011Y667167D02*
D03*
X202711Y645170D02*
D03*
X215411Y623173D02*
D03*
X228111Y601176D02*
D03*
X240811Y579179D02*
D03*
X253511Y557182D02*
D03*
X266211Y535185D02*
D03*
X278911Y513187D02*
D03*
X291611Y491190D02*
D03*
X304311Y469193D02*
D03*
D70*
X-165900Y18000D02*
D03*
X-87900D02*
D03*
D71*
X-103900Y51000D02*
D03*
X-149900D02*
D03*
D72*
X15200Y439800D02*
D03*
X-15800D02*
D03*
D73*
X230900Y307500D02*
D03*
X256300D02*
D03*
X281700D02*
D03*
X215800Y63200D02*
D03*
Y88600D02*
D03*
D74*
X-227700Y305200D02*
D03*
X-292700Y260200D02*
D03*
X-227700D02*
D03*
X-292700Y305200D02*
D03*
X-103400D02*
D03*
X-168400Y260200D02*
D03*
X-103400D02*
D03*
X-168400Y305200D02*
D03*
X23400Y307100D02*
D03*
X-41600Y262100D02*
D03*
X23400D02*
D03*
X-41600Y307100D02*
D03*
D75*
X160Y77610D02*
D03*
Y139590D02*
D03*
X50200Y108600D02*
D03*
D76*
X-148700Y137200D02*
D03*
X-123300D02*
D03*
X-161400Y162600D02*
D03*
X-136000D02*
D03*
X-110600D02*
D03*
X116400Y53400D02*
D03*
X166400D02*
D03*
D77*
X-97900Y137200D02*
D03*
D78*
X215800Y37800D02*
D03*
D79*
X289800Y388300D02*
D03*
X290000Y372800D02*
D03*
X117600Y499900D02*
D03*
Y512900D02*
D03*
X196500Y505000D02*
D03*
X204400Y514400D02*
D03*
X203700Y524700D02*
D03*
X202800Y537000D02*
D03*
X-412000Y161572D02*
D03*
X31400Y361400D02*
D03*
X-2600Y482400D02*
D03*
X80200Y485500D02*
D03*
X117800Y373700D02*
D03*
X-500Y461100D02*
D03*
X-23000Y515300D02*
D03*
X-96772Y459700D02*
D03*
X-61979Y493307D02*
D03*
X-72900Y475900D02*
D03*
X-61700Y478400D02*
D03*
X-104500Y466600D02*
D03*
X-86200Y484900D02*
D03*
X96868Y232068D02*
D03*
X-144100Y275900D02*
D03*
X-236300D02*
D03*
X64200Y615600D02*
D03*
X-57300Y643200D02*
D03*
X-69700Y646700D02*
D03*
X24100Y644300D02*
D03*
X14774Y643426D02*
D03*
X-201500Y133000D02*
D03*
X64400Y472100D02*
D03*
X46800Y464700D02*
D03*
X-143500Y507200D02*
D03*
X-132500Y504800D02*
D03*
X-155400Y511000D02*
D03*
X-166900Y134900D02*
D03*
X-179000Y134200D02*
D03*
X-190000Y133600D02*
D03*
X-141200Y99900D02*
D03*
X-176900Y98800D02*
D03*
X-164000Y99300D02*
D03*
X-152700Y100000D02*
D03*
X-12200Y644600D02*
D03*
X326200Y177200D02*
D03*
X305200Y157600D02*
D03*
X51700Y624800D02*
D03*
X89496Y610696D02*
D03*
X-31900Y443600D02*
D03*
X-45600Y454400D02*
D03*
X-347300Y139058D02*
D03*
Y71700D02*
D03*
X-252303Y52197D02*
D03*
X-359621Y72886D02*
D03*
X109400Y436900D02*
D03*
X96300Y437200D02*
D03*
X72280Y769820D02*
D03*
X-67500Y694400D02*
D03*
X-68600Y795000D02*
D03*
X-68480Y769820D02*
D03*
X-67640Y743800D02*
D03*
X-66820Y719020D02*
D03*
X92700Y557800D02*
D03*
X-91800Y558100D02*
D03*
X14000Y501100D02*
D03*
X33200Y514100D02*
D03*
X-52755Y539300D02*
D03*
X-52400Y558745D02*
D03*
X-26100Y586200D02*
D03*
X-6845Y603700D02*
D03*
X25400Y589500D02*
D03*
X51300Y563900D02*
D03*
X72900Y820700D02*
D03*
X49000Y636100D02*
D03*
X-73000Y456800D02*
D03*
X-62600Y456000D02*
D03*
X-149100Y592700D02*
D03*
X-290501Y101898D02*
D03*
X-333665Y75060D02*
D03*
X-337554Y234196D02*
D03*
X-359621Y221617D02*
D03*
X-312651Y88803D02*
D03*
X-268027Y113112D02*
D03*
X375556Y47225D02*
D03*
X357358Y219066D02*
D03*
X402182Y195103D02*
D03*
X288238Y99346D02*
D03*
X336153Y232800D02*
D03*
X379455Y206539D02*
D03*
X424349Y182698D02*
D03*
X265096Y112197D02*
D03*
X10700Y590100D02*
D03*
X14497Y606996D02*
D03*
X-209500Y522600D02*
D03*
X-164000Y373600D02*
D03*
X-137600Y32600D02*
D03*
X57600Y361500D02*
D03*
X-45600Y638700D02*
D03*
X-500Y435100D02*
D03*
X71800Y437900D02*
D03*
X83800Y437300D02*
D03*
X-90600Y635200D02*
D03*
X-139900Y597000D02*
D03*
X71600Y720900D02*
D03*
X-113000Y277300D02*
D03*
X-24200Y277500D02*
D03*
X-228100Y330100D02*
D03*
X72200Y678600D02*
D03*
X166900Y72500D02*
D03*
X-383400Y212300D02*
D03*
X-404400Y198600D02*
D03*
X341600Y87500D02*
D03*
X-235700Y483100D02*
D03*
X-202400Y484600D02*
D03*
X-168300Y521399D02*
D03*
X-163800Y529700D02*
D03*
X-397200Y178100D02*
D03*
X-130100Y595200D02*
D03*
X-97100Y596400D02*
D03*
X-80200Y624100D02*
D03*
D80*
X16000Y366700D02*
D03*
X-15200Y368100D02*
D03*
X175400Y280000D02*
D03*
X175100Y313800D02*
D03*
X175400Y347500D02*
D03*
X202700Y153400D02*
D03*
X203700Y125200D02*
D03*
D81*
X151300Y211900D02*
D03*
Y411900D02*
D03*
X-151700Y211900D02*
D03*
Y411900D02*
D03*
X-126000Y704000D02*
D03*
X275000Y211900D02*
D03*
X-275000D02*
D03*
X126000Y704000D02*
D03*
D82*
X-78850Y73700D02*
D03*
X-180450D02*
D03*
M02*
