M48
;Layer_Color=9474304
;FILE_FORMAT=4:4
METRIC,TZ
;TYPE=PLATED
T1F00S00C0.4000
T2F00S00C0.6500
T3F00S00C0.7000
T4F00S00C0.7112
T5F00S00C0.8000
T6F00S00C0.8500
T7F00S00C0.8890
T8F00S00C0.9000
T9F00S00C1.0000
T10F00S00C1.2000
T11F00S00C2.7940
T12F00S00C3.3000
T13F00S00C3.3020
%
T01
X-359621Y72886
X-347300Y71700
X-333665Y75060
X-312651Y88803
X-290501Y101898
X-268027Y113112
X-252303Y52197
X-176900Y98800
X-164000Y99300
X-152700Y100000
X-141200Y99900
X-166900Y134900
X-179000Y134200
X-190000Y133600
X-201500Y133000
X-347300Y139058
X-412000Y161572
X-397200Y178100
X-404400Y198600
X-383400Y212300
X-359621Y221617
X-337554Y234196
X-236300Y275900
X-228100Y330100
X-164000Y373600
X-144100Y275900
X-113000Y277300
X-137600Y32600
X166900Y72500
X265096Y112197
X96868Y232068
X117800Y373700
X57600Y361500
X31400Y361400
X-24200Y277500
X336153Y232800
X357358Y219066
X379455Y206539
X402182Y195103
X424349Y182698
X326200Y177200
X305200Y157600
X288238Y99346
X341600Y87500
X375556Y47225
X290000Y372800
X289800Y388300
X196500Y505000
X204400Y514400
X203700Y524700
X202800Y537000
X117600Y512900
Y499900
X80200Y485500
X64400Y472100
X46800Y464700
X-500Y461100
X-2600Y482400
X14000Y501100
X33200Y514100
X-23000Y515300
X-52755Y539300
X-52400Y558745
X-91800Y558100
X-97100Y596400
X-80200Y624100
X-90600Y635200
X-69700Y646700
X-57300Y643200
X-45600Y638700
X-12200Y644600
X14774Y643426
X24100Y644300
X49000Y636100
X51700Y624800
X64200Y615600
X89496Y610696
X92700Y557800
X51300Y563900
X25400Y589500
X10700Y590100
X14497Y606996
X-6845Y603700
X-26100Y586200
X-61979Y493307
X-61700Y478400
X-72900Y475900
X-73000Y456800
X-62600Y456000
X-45600Y454400
X-31900Y443600
X-500Y435100
X71800Y437900
X83800Y437300
X96300Y437200
X109400Y436900
X-96772Y459700
X-104500Y466600
X-86200Y484900
X-67500Y694400
X-66820Y719020
X-67640Y743800
X-68480Y769820
X-68600Y795000
X72280Y769820
X71600Y720900
X72200Y678600
X-130100Y595200
X-139900Y597000
X-149100Y592700
X-163800Y529700
X-168300Y521399
X-155400Y511000
X-143500Y507200
X-132500Y504800
X-202400Y484600
X-235700Y483100
X-209500Y522600
X72900Y820700
T02
X230900Y307500
X256300
X281700
X304311Y469193
X291611Y491190
X278911Y513187
X266211Y535185
X253511Y557182
X240811Y579179
X228111Y601176
X215411Y623173
X202711Y645170
X190011Y667167
X164174Y650518
X176874Y628521
X189574Y606524
X202274Y584527
X214974Y562530
X227674Y540532
X240374Y518535
X253074Y496539
X265774Y474541
X278474Y452544
X-278574Y453757
X-265874Y475754
X-253174Y497751
X-240474Y519748
X-227774Y541745
X-215074Y563742
X-202374Y585739
X-189674Y607736
X-176974Y629733
X-164274Y651730
X-191561Y665868
X-204261Y643871
X-216961Y621874
X-229661Y599877
X-242361Y577880
X-255061Y555883
X-267761Y533885
X-280461Y511889
X-293161Y489891
X-305861Y467894
T03
X-15800Y439800
X15200
T04
X203700Y125200
X202700Y153400
X175400Y280000
X175100Y313800
X175400Y347500
X16000Y366700
X-15200Y368100
T05
X116400Y53400
X166400
T06
X-149900Y51000
X-103900
T07
X-148700Y137200
X-123300
X-110600Y162600
X-136000
X-161400
X-97900Y137200
T08
X215800Y37800
Y63200
Y88600
T09
X-165900Y18000
X-87900
T10
X-292700Y260200
Y305200
X-227700
Y260200
X-168400
Y305200
X-103400
Y260200
X-41600Y262100
Y307100
X23400
Y262100
T11
X160Y77610
Y139590
X50200Y108600
T12
X-275000Y211900
X-151700
X151300
X275000
X151300Y411900
X126000Y704000
X-126000
X-151700Y411900
T13
X-180450Y73700
X-78850
M30
