%FSLAX44Y44*%
%MOMM*%
G71*
G01*
G75*
%ADD10C,0.2540*%
%ADD11R,2.0320X2.0320*%
%ADD12R,5.5000X1.5000*%
G04:AMPARAMS|DCode=13|XSize=0.24mm|YSize=1.8mm|CornerRadius=0mm|HoleSize=0mm|Usage=FLASHONLY|Rotation=315.000|XOffset=0mm|YOffset=0mm|HoleType=Round|Shape=Round|*
%AMOVALD13*
21,1,1.5600,0.2400,0.0000,0.0000,45.0*
1,1,0.2400,-0.5515,-0.5515*
1,1,0.2400,0.5515,0.5515*
%
%ADD13OVALD13*%

G04:AMPARAMS|DCode=14|XSize=0.24mm|YSize=1.8mm|CornerRadius=0mm|HoleSize=0mm|Usage=FLASHONLY|Rotation=225.000|XOffset=0mm|YOffset=0mm|HoleType=Round|Shape=Round|*
%AMOVALD14*
21,1,1.5600,0.2400,0.0000,0.0000,315.0*
1,1,0.2400,-0.5515,0.5515*
1,1,0.2400,0.5515,-0.5515*
%
%ADD14OVALD14*%

%ADD15R,0.8000X0.9000*%
%ADD16P,2.8737X4X285.0*%
%ADD17P,2.8737X4X345.0*%
%ADD18C,0.4000*%
%ADD19C,0.2000*%
%ADD20C,0.7000*%
%ADD21C,0.5000*%
%ADD22C,0.3000*%
%ADD23C,1.2000*%
G04:AMPARAMS|DCode=24|XSize=1.9mm|YSize=1.1mm|CornerRadius=0mm|HoleSize=0mm|Usage=FLASHONLY|Rotation=90.000|XOffset=0mm|YOffset=0mm|HoleType=Round|Shape=Octagon|*
%AMOCTAGOND24*
4,1,8,0.2750,0.9500,-0.2750,0.9500,-0.5500,0.6750,-0.5500,-0.6750,-0.2750,-0.9500,0.2750,-0.9500,0.5500,-0.6750,0.5500,0.6750,0.2750,0.9500,0.0*
%
%ADD24OCTAGOND24*%

%ADD25O,1.1500X1.2500*%
%ADD26C,1.3000*%
%ADD27C,1.5000*%
%ADD28C,1.7000*%
%ADD29C,4.8260*%
%ADD30C,1.5240*%
%ADD31R,1.5240X1.5240*%
%ADD32R,1.5000X1.5000*%
%ADD33C,0.8000*%
%ADD34C,1.2700*%
%ADD35C,3.8000*%
%ADD36C,3.3020*%
G04:AMPARAMS|DCode=37|XSize=0.9mm|YSize=0.8mm|CornerRadius=0mm|HoleSize=0mm|Usage=FLASHONLY|Rotation=45.000|XOffset=0mm|YOffset=0mm|HoleType=Round|Shape=Rectangle|*
%AMROTATEDRECTD37*
4,1,4,-0.0354,-0.6010,-0.6010,-0.0354,0.0354,0.6010,0.6010,0.0354,-0.0354,-0.6010,0.0*
%
%ADD37ROTATEDRECTD37*%

G04:AMPARAMS|DCode=38|XSize=0.9mm|YSize=0.8mm|CornerRadius=0mm|HoleSize=0mm|Usage=FLASHONLY|Rotation=315.000|XOffset=0mm|YOffset=0mm|HoleType=Round|Shape=Rectangle|*
%AMROTATEDRECTD38*
4,1,4,-0.6010,0.0354,-0.0354,0.6010,0.6010,-0.0354,0.0354,-0.6010,-0.6010,0.0354,0.0*
%
%ADD38ROTATEDRECTD38*%

G04:AMPARAMS|DCode=39|XSize=1.8mm|YSize=1.3mm|CornerRadius=0mm|HoleSize=0mm|Usage=FLASHONLY|Rotation=45.000|XOffset=0mm|YOffset=0mm|HoleType=Round|Shape=Rectangle|*
%AMROTATEDRECTD39*
4,1,4,-0.1768,-1.0960,-1.0960,-0.1768,0.1768,1.0960,1.0960,0.1768,-0.1768,-1.0960,0.0*
%
%ADD39ROTATEDRECTD39*%

G04:AMPARAMS|DCode=40|XSize=0.65mm|YSize=0.9mm|CornerRadius=0mm|HoleSize=0mm|Usage=FLASHONLY|Rotation=60.000|XOffset=0mm|YOffset=0mm|HoleType=Round|Shape=Rectangle|*
%AMROTATEDRECTD40*
4,1,4,0.2272,-0.5065,-0.5522,-0.0565,-0.2272,0.5065,0.5522,0.0565,0.2272,-0.5065,0.0*
%
%ADD40ROTATEDRECTD40*%

%ADD41R,1.6000X2.7000*%
%ADD42R,0.9000X0.8000*%
%ADD43R,1.1000X0.6500*%
G04:AMPARAMS|DCode=44|XSize=0.9mm|YSize=0.8mm|CornerRadius=0mm|HoleSize=0mm|Usage=FLASHONLY|Rotation=210.000|XOffset=0mm|YOffset=0mm|HoleType=Round|Shape=Rectangle|*
%AMROTATEDRECTD44*
4,1,4,0.1897,0.5714,0.5897,-0.1214,-0.1897,-0.5714,-0.5897,0.1214,0.1897,0.5714,0.0*
%
%ADD44ROTATEDRECTD44*%

G04:AMPARAMS|DCode=45|XSize=0.9mm|YSize=0.8mm|CornerRadius=0mm|HoleSize=0mm|Usage=FLASHONLY|Rotation=330.000|XOffset=0mm|YOffset=0mm|HoleType=Round|Shape=Rectangle|*
%AMROTATEDRECTD45*
4,1,4,-0.5897,-0.1214,-0.1897,0.5714,0.5897,0.1214,0.1897,-0.5714,-0.5897,-0.1214,0.0*
%
%ADD45ROTATEDRECTD45*%

%ADD46R,0.6500X0.9000*%
G04:AMPARAMS|DCode=47|XSize=0.65mm|YSize=0.9mm|CornerRadius=0mm|HoleSize=0mm|Usage=FLASHONLY|Rotation=300.000|XOffset=0mm|YOffset=0mm|HoleType=Round|Shape=Rectangle|*
%AMROTATEDRECTD47*
4,1,4,-0.5522,0.0565,0.2272,0.5065,0.5522,-0.0565,-0.2272,-0.5065,-0.5522,0.0565,0.0*
%
%ADD47ROTATEDRECTD47*%

%ADD48R,0.4000X1.5500*%
%ADD49R,2.9000X1.9000*%
G04:AMPARAMS|DCode=50|XSize=0.9mm|YSize=0.8mm|CornerRadius=0mm|HoleSize=0mm|Usage=FLASHONLY|Rotation=120.000|XOffset=0mm|YOffset=0mm|HoleType=Round|Shape=Rectangle|*
%AMROTATEDRECTD50*
4,1,4,0.5714,-0.1897,-0.1214,-0.5897,-0.5714,0.1897,0.1214,0.5897,0.5714,-0.1897,0.0*
%
%ADD50ROTATEDRECTD50*%

G04:AMPARAMS|DCode=51|XSize=0.9mm|YSize=0.8mm|CornerRadius=0mm|HoleSize=0mm|Usage=FLASHONLY|Rotation=240.000|XOffset=0mm|YOffset=0mm|HoleType=Round|Shape=Rectangle|*
%AMROTATEDRECTD51*
4,1,4,-0.1214,0.5897,0.5714,0.1897,0.1214,-0.5897,-0.5714,-0.1897,-0.1214,0.5897,0.0*
%
%ADD51ROTATEDRECTD51*%

%ADD52C,0.9000*%
%ADD53R,0.1200X0.2200*%
%ADD54C,0.2500*%
%ADD55C,0.6000*%
%ADD56C,0.2032*%
%ADD57C,0.1500*%
%ADD58C,0.1200*%
%ADD59C,0.1000*%
%ADD60C,0.1300*%
%ADD61C,0.1100*%
G36*
X-415824Y290483D02*
X-420701D01*
X-420818Y290464D01*
X-420974Y290444D01*
X-421189Y290405D01*
X-421423Y290308D01*
X-421657Y290191D01*
X-421872Y290035D01*
X-422067Y289800D01*
X-422086Y289761D01*
X-422145Y289683D01*
X-422223Y289508D01*
X-422301Y289274D01*
X-422379Y288981D01*
X-422457Y288610D01*
X-422515Y288162D01*
X-422535Y287908D01*
Y287635D01*
Y287596D01*
Y287518D01*
X-422515Y287381D01*
X-422496Y287206D01*
X-422476Y286991D01*
X-422437Y286757D01*
X-422379Y286523D01*
X-422301Y286270D01*
X-422203Y285996D01*
X-422086Y285762D01*
X-421930Y285528D01*
X-421755Y285314D01*
X-421540Y285138D01*
X-421287Y285002D01*
X-421013Y284924D01*
X-420682Y284885D01*
X-418438D01*
X-418341Y284904D01*
X-418224Y284963D01*
X-418107Y285080D01*
Y285099D01*
X-418087Y285119D01*
X-418009Y285216D01*
X-417951Y285372D01*
X-417931Y285548D01*
Y285567D01*
Y285587D01*
X-417951Y285704D01*
X-418009Y285860D01*
X-418107Y286035D01*
Y286055D01*
X-418126Y286075D01*
X-418204Y286153D01*
X-418321Y286231D01*
X-418399Y286270D01*
X-420721D01*
Y289254D01*
X-418282D01*
X-418146Y289235D01*
X-417951Y289215D01*
X-417756Y289176D01*
X-417522Y289118D01*
X-417287Y289040D01*
X-417053Y288942D01*
X-417034Y288923D01*
X-416936Y288884D01*
X-416819Y288825D01*
X-416683Y288727D01*
X-416507Y288610D01*
X-416312Y288474D01*
X-416137Y288298D01*
X-415961Y288123D01*
X-415942Y288103D01*
X-415883Y288025D01*
X-415805Y287928D01*
X-415688Y287791D01*
X-415571Y287616D01*
X-415454Y287421D01*
X-415337Y287186D01*
X-415220Y286952D01*
X-415200Y286933D01*
X-415181Y286835D01*
X-415142Y286718D01*
X-415083Y286543D01*
X-415025Y286348D01*
X-414986Y286133D01*
X-414966Y285899D01*
X-414947Y285645D01*
Y285606D01*
Y285509D01*
X-414966Y285353D01*
X-414986Y285158D01*
X-415025Y284924D01*
X-415064Y284670D01*
X-415142Y284397D01*
X-415239Y284143D01*
X-415259Y284124D01*
X-415298Y284026D01*
X-415356Y283909D01*
X-415434Y283753D01*
X-415551Y283558D01*
X-415668Y283363D01*
X-415824Y283168D01*
X-416000Y282973D01*
X-416020Y282953D01*
X-416078Y282895D01*
X-416195Y282797D01*
X-416312Y282700D01*
X-416488Y282563D01*
X-416683Y282446D01*
X-416878Y282310D01*
X-417112Y282193D01*
X-417131Y282173D01*
X-417210Y282154D01*
X-417346Y282115D01*
X-417502Y282056D01*
X-417697Y281998D01*
X-417912Y281959D01*
X-418165Y281919D01*
X-418419Y281900D01*
X-420350D01*
X-420448Y281919D01*
X-420565D01*
X-420701Y281939D01*
X-421033Y281998D01*
X-421442Y282076D01*
X-421891Y282212D01*
X-422379Y282388D01*
X-422867Y282622D01*
X-423354Y282934D01*
X-423608Y283109D01*
X-423842Y283305D01*
X-424076Y283519D01*
X-424291Y283773D01*
X-424505Y284046D01*
X-424681Y284319D01*
X-424876Y284650D01*
X-425032Y284982D01*
X-425168Y285353D01*
X-425285Y285762D01*
X-425383Y286192D01*
X-425461Y286640D01*
X-425500Y287128D01*
X-425519Y287655D01*
Y287713D01*
Y287733D01*
Y287772D01*
Y287850D01*
X-425500Y287967D01*
Y288084D01*
X-425480Y288240D01*
X-425461Y288415D01*
X-425422Y288610D01*
X-425344Y289040D01*
X-425227Y289527D01*
X-425051Y290054D01*
X-424837Y290600D01*
X-424544Y291127D01*
X-424193Y291654D01*
X-423979Y291888D01*
X-423764Y292141D01*
X-423510Y292356D01*
X-423257Y292570D01*
X-422964Y292766D01*
X-422632Y292941D01*
X-422301Y293097D01*
X-421930Y293214D01*
X-421540Y293331D01*
X-421130Y293409D01*
X-420682Y293448D01*
X-420194Y293468D01*
X-415824D01*
Y290483D01*
D02*
G37*
G36*
X-404140D02*
X-410226D01*
X-410343Y290464D01*
X-410480Y290405D01*
X-410616Y290288D01*
X-410635Y290249D01*
X-410694Y290152D01*
X-410772Y290015D01*
X-410792Y289839D01*
Y289820D01*
Y289800D01*
X-410772Y289683D01*
X-410733Y289527D01*
X-410635Y289371D01*
X-410597Y289352D01*
X-410518Y289293D01*
X-410362Y289215D01*
X-410167Y289196D01*
X-404140D01*
Y286211D01*
X-410226D01*
X-410343Y286192D01*
X-410480Y286133D01*
X-410616Y286016D01*
X-410635Y285977D01*
X-410694Y285899D01*
X-410772Y285743D01*
X-410792Y285548D01*
Y285528D01*
Y285509D01*
X-410772Y285372D01*
X-410714Y285216D01*
X-410616Y285060D01*
X-410577Y285041D01*
X-410499Y284982D01*
X-410343Y284904D01*
X-410167Y284885D01*
X-404140D01*
Y281900D01*
X-410733D01*
X-410870Y281919D01*
X-411065Y281939D01*
X-411279Y281959D01*
X-411513Y282017D01*
X-411747Y282076D01*
X-411982Y282154D01*
X-412001Y282173D01*
X-412079Y282212D01*
X-412196Y282271D01*
X-412333Y282349D01*
X-412489Y282446D01*
X-412664Y282583D01*
X-412820Y282719D01*
X-412976Y282875D01*
X-412996Y282895D01*
X-413035Y282953D01*
X-413113Y283051D01*
X-413191Y283168D01*
X-413288Y283324D01*
X-413386Y283519D01*
X-413484Y283714D01*
X-413581Y283929D01*
Y283948D01*
X-413620Y284046D01*
X-413640Y284163D01*
X-413679Y284319D01*
X-413718Y284514D01*
X-413757Y284729D01*
X-413776Y284963D01*
X-413796Y285216D01*
Y285236D01*
Y285275D01*
Y285333D01*
X-413776Y285411D01*
X-413757Y285626D01*
X-413718Y285860D01*
Y285879D01*
X-413698Y285919D01*
X-413679Y285996D01*
X-413659Y286075D01*
X-413581Y286289D01*
X-413484Y286543D01*
Y286562D01*
X-413445Y286601D01*
X-413405Y286679D01*
X-413367Y286757D01*
X-413230Y286972D01*
X-413054Y287206D01*
X-413035Y287225D01*
X-413015Y287264D01*
X-412957Y287323D01*
X-412879Y287381D01*
X-412703Y287557D01*
X-412469Y287733D01*
X-412508Y287752D01*
X-412586Y287811D01*
X-412723Y287908D01*
X-412879Y288045D01*
X-413054Y288220D01*
X-413210Y288415D01*
X-413367Y288650D01*
X-413503Y288903D01*
X-413523Y288942D01*
X-413542Y289020D01*
X-413581Y289176D01*
X-413640Y289371D01*
X-413698Y289605D01*
X-413737Y289859D01*
X-413757Y290152D01*
X-413776Y290444D01*
Y290464D01*
Y290542D01*
X-413757Y290659D01*
Y290815D01*
X-413718Y290990D01*
X-413679Y291185D01*
X-413640Y291381D01*
X-413562Y291595D01*
X-413542Y291615D01*
X-413523Y291693D01*
X-413464Y291790D01*
X-413386Y291927D01*
X-413191Y292239D01*
X-412918Y292551D01*
X-412898Y292570D01*
X-412840Y292629D01*
X-412762Y292687D01*
X-412645Y292785D01*
X-412489Y292902D01*
X-412333Y293000D01*
X-412138Y293117D01*
X-411923Y293214D01*
X-411903Y293234D01*
X-411825Y293253D01*
X-411689Y293292D01*
X-411533Y293351D01*
X-411338Y293390D01*
X-411123Y293429D01*
X-410870Y293448D01*
X-410597Y293468D01*
X-404140D01*
Y290483D01*
D02*
G37*
G36*
X-399204Y293526D02*
X-399009Y293507D01*
X-398775Y293448D01*
X-398483Y293370D01*
X-398170Y293234D01*
X-397839Y293058D01*
X-397527Y292805D01*
X-397507D01*
X-397488Y292766D01*
X-397390Y292668D01*
X-397234Y292492D01*
X-397058Y292278D01*
X-396844Y291985D01*
X-396629Y291634D01*
X-396434Y291224D01*
X-396259Y290756D01*
X-394366Y284924D01*
Y284904D01*
X-394328Y284865D01*
X-394288Y284807D01*
X-394230Y284787D01*
X-394211D01*
X-394171Y284807D01*
X-394132Y284865D01*
X-394113Y284982D01*
Y293448D01*
X-391011D01*
Y284924D01*
Y284885D01*
Y284807D01*
X-391031Y284670D01*
X-391050Y284494D01*
X-391070Y284299D01*
X-391109Y284085D01*
X-391187Y283851D01*
X-391265Y283636D01*
X-391284Y283617D01*
X-391304Y283539D01*
X-391362Y283422D01*
X-391440Y283285D01*
X-391538Y283129D01*
X-391674Y282973D01*
X-391811Y282797D01*
X-391967Y282641D01*
X-391987Y282622D01*
X-392045Y282583D01*
X-392143Y282505D01*
X-392260Y282407D01*
X-392416Y282310D01*
X-392591Y282212D01*
X-392786Y282115D01*
X-393001Y282017D01*
X-393021D01*
X-393099Y281978D01*
X-393216Y281959D01*
X-393372Y281919D01*
X-393567Y281880D01*
X-393781Y281842D01*
X-394035Y281822D01*
X-394288Y281803D01*
X-394386D01*
X-394464Y281822D01*
X-394659Y281842D01*
X-394893Y281880D01*
X-395186Y281959D01*
X-395478Y282056D01*
X-395790Y282212D01*
X-396103Y282407D01*
X-396142Y282427D01*
X-396239Y282524D01*
X-396376Y282661D01*
X-396551Y282856D01*
X-396746Y283090D01*
X-396941Y283402D01*
X-397117Y283753D01*
X-397273Y284143D01*
X-399302Y290405D01*
Y290425D01*
X-399321Y290483D01*
X-399360Y290522D01*
X-399438Y290542D01*
X-399458D01*
X-399477Y290522D01*
X-399516Y290483D01*
X-399536Y290386D01*
Y281900D01*
X-402638D01*
Y290405D01*
Y290444D01*
Y290522D01*
X-402618Y290659D01*
X-402599Y290834D01*
X-402579Y291029D01*
X-402540Y291244D01*
X-402481Y291478D01*
X-402403Y291693D01*
X-402384Y291712D01*
X-402365Y291790D01*
X-402306Y291907D01*
X-402228Y292044D01*
X-402130Y292200D01*
X-402013Y292356D01*
X-401721Y292687D01*
X-401701Y292707D01*
X-401643Y292746D01*
X-401545Y292824D01*
X-401428Y292922D01*
X-401272Y293019D01*
X-401077Y293117D01*
X-400882Y293214D01*
X-400667Y293312D01*
X-400648Y293331D01*
X-400570Y293351D01*
X-400433Y293390D01*
X-400277Y293429D01*
X-400082Y293468D01*
X-399868Y293507D01*
X-399633Y293546D01*
X-399282D01*
X-399204Y293526D01*
D02*
G37*
G36*
X-325721D02*
X-325526Y293507D01*
X-325291Y293448D01*
X-324999Y293370D01*
X-324687Y293234D01*
X-324355Y293058D01*
X-324043Y292805D01*
X-324024D01*
X-324004Y292766D01*
X-323907Y292668D01*
X-323750Y292492D01*
X-323575Y292278D01*
X-323360Y291985D01*
X-323146Y291634D01*
X-322951Y291224D01*
X-322775Y290756D01*
X-320883Y284924D01*
Y284904D01*
X-320844Y284865D01*
X-320805Y284807D01*
X-320746Y284787D01*
X-320727D01*
X-320688Y284807D01*
X-320649Y284865D01*
X-320629Y284982D01*
Y293448D01*
X-317528D01*
Y284924D01*
Y284885D01*
Y284807D01*
X-317547Y284670D01*
X-317567Y284494D01*
X-317586Y284299D01*
X-317625Y284085D01*
X-317703Y283851D01*
X-317781Y283636D01*
X-317801Y283617D01*
X-317820Y283539D01*
X-317879Y283422D01*
X-317957Y283285D01*
X-318054Y283129D01*
X-318191Y282973D01*
X-318328Y282797D01*
X-318484Y282641D01*
X-318503Y282622D01*
X-318561Y282583D01*
X-318659Y282505D01*
X-318776Y282407D01*
X-318932Y282310D01*
X-319108Y282212D01*
X-319303Y282115D01*
X-319517Y282017D01*
X-319537D01*
X-319615Y281978D01*
X-319732Y281959D01*
X-319888Y281919D01*
X-320083Y281880D01*
X-320298Y281842D01*
X-320551Y281822D01*
X-320805Y281803D01*
X-320902D01*
X-320980Y281822D01*
X-321175Y281842D01*
X-321410Y281880D01*
X-321702Y281959D01*
X-321995Y282056D01*
X-322307Y282212D01*
X-322619Y282407D01*
X-322658Y282427D01*
X-322756Y282524D01*
X-322892Y282661D01*
X-323068Y282856D01*
X-323263Y283090D01*
X-323458Y283402D01*
X-323633Y283753D01*
X-323789Y284143D01*
X-325818Y290405D01*
Y290425D01*
X-325838Y290483D01*
X-325877Y290522D01*
X-325955Y290542D01*
X-325974D01*
X-325994Y290522D01*
X-326033Y290483D01*
X-326052Y290386D01*
Y281900D01*
X-329154D01*
Y290405D01*
Y290444D01*
Y290522D01*
X-329134Y290659D01*
X-329115Y290834D01*
X-329095Y291029D01*
X-329056Y291244D01*
X-328998Y291478D01*
X-328920Y291693D01*
X-328900Y291712D01*
X-328881Y291790D01*
X-328822Y291907D01*
X-328744Y292044D01*
X-328647Y292200D01*
X-328530Y292356D01*
X-328237Y292687D01*
X-328218Y292707D01*
X-328159Y292746D01*
X-328061Y292824D01*
X-327944Y292922D01*
X-327788Y293019D01*
X-327593Y293117D01*
X-327398Y293214D01*
X-327184Y293312D01*
X-327164Y293331D01*
X-327086Y293351D01*
X-326950Y293390D01*
X-326794Y293429D01*
X-326599Y293468D01*
X-326384Y293507D01*
X-326150Y293546D01*
X-325799D01*
X-325721Y293526D01*
D02*
G37*
G36*
X-380068Y290483D02*
X-386154D01*
X-386271Y290464D01*
X-386408Y290405D01*
X-386544Y290288D01*
X-386564Y290249D01*
X-386622Y290152D01*
X-386700Y290015D01*
X-386720Y289839D01*
Y289820D01*
Y289800D01*
X-386700Y289683D01*
X-386661Y289527D01*
X-386564Y289371D01*
X-386525Y289352D01*
X-386447Y289293D01*
X-386291Y289215D01*
X-386096Y289196D01*
X-380068D01*
Y286211D01*
X-386154D01*
X-386271Y286192D01*
X-386408Y286133D01*
X-386544Y286016D01*
X-386564Y285977D01*
X-386622Y285899D01*
X-386700Y285743D01*
X-386720Y285548D01*
Y285528D01*
Y285509D01*
X-386700Y285372D01*
X-386642Y285216D01*
X-386544Y285060D01*
X-386505Y285041D01*
X-386427Y284982D01*
X-386271Y284904D01*
X-386096Y284885D01*
X-380068D01*
Y281900D01*
X-386661D01*
X-386798Y281919D01*
X-386993Y281939D01*
X-387207Y281959D01*
X-387441Y282017D01*
X-387676Y282076D01*
X-387910Y282154D01*
X-387929Y282173D01*
X-388007Y282212D01*
X-388124Y282271D01*
X-388261Y282349D01*
X-388417Y282446D01*
X-388592Y282583D01*
X-388748Y282719D01*
X-388904Y282875D01*
X-388924Y282895D01*
X-388963Y282953D01*
X-389041Y283051D01*
X-389119Y283168D01*
X-389217Y283324D01*
X-389314Y283519D01*
X-389412Y283714D01*
X-389509Y283929D01*
Y283948D01*
X-389548Y284046D01*
X-389568Y284163D01*
X-389607Y284319D01*
X-389646Y284514D01*
X-389685Y284729D01*
X-389704Y284963D01*
X-389724Y285216D01*
Y285236D01*
Y285275D01*
Y285333D01*
X-389704Y285411D01*
X-389685Y285626D01*
X-389646Y285860D01*
Y285879D01*
X-389626Y285919D01*
X-389607Y285996D01*
X-389587Y286075D01*
X-389509Y286289D01*
X-389412Y286543D01*
Y286562D01*
X-389373Y286601D01*
X-389334Y286679D01*
X-389295Y286757D01*
X-389158Y286972D01*
X-388983Y287206D01*
X-388963Y287225D01*
X-388943Y287264D01*
X-388885Y287323D01*
X-388807Y287381D01*
X-388631Y287557D01*
X-388397Y287733D01*
X-388436Y287752D01*
X-388514Y287811D01*
X-388651Y287908D01*
X-388807Y288045D01*
X-388983Y288220D01*
X-389139Y288415D01*
X-389295Y288650D01*
X-389431Y288903D01*
X-389451Y288942D01*
X-389470Y289020D01*
X-389509Y289176D01*
X-389568Y289371D01*
X-389626Y289605D01*
X-389665Y289859D01*
X-389685Y290152D01*
X-389704Y290444D01*
Y290464D01*
Y290542D01*
X-389685Y290659D01*
Y290815D01*
X-389646Y290990D01*
X-389607Y291185D01*
X-389568Y291381D01*
X-389490Y291595D01*
X-389470Y291615D01*
X-389451Y291693D01*
X-389392Y291790D01*
X-389314Y291927D01*
X-389119Y292239D01*
X-388846Y292551D01*
X-388826Y292570D01*
X-388768Y292629D01*
X-388690Y292687D01*
X-388573Y292785D01*
X-388417Y292902D01*
X-388261Y293000D01*
X-388066Y293117D01*
X-387851Y293214D01*
X-387832Y293234D01*
X-387754Y293253D01*
X-387617Y293292D01*
X-387461Y293351D01*
X-387266Y293390D01*
X-387051Y293429D01*
X-386798Y293448D01*
X-386525Y293468D01*
X-380068D01*
Y290483D01*
D02*
G37*
G36*
X-343277Y281900D02*
X-346262D01*
Y293468D01*
X-343277D01*
Y281900D01*
D02*
G37*
G36*
X-335396Y293448D02*
X-335162Y293429D01*
X-334909Y293390D01*
X-334636Y293351D01*
X-334323Y293292D01*
X-334011Y293214D01*
X-333680Y293117D01*
X-333348Y293000D01*
X-333036Y292863D01*
X-332704Y292687D01*
X-332392Y292492D01*
X-332099Y292278D01*
X-331846Y292024D01*
X-331826Y292005D01*
X-331787Y291966D01*
X-331729Y291868D01*
X-331631Y291751D01*
X-331534Y291595D01*
X-331417Y291420D01*
X-331300Y291185D01*
X-331163Y290932D01*
X-331046Y290639D01*
X-330929Y290327D01*
X-330812Y289956D01*
X-330714Y289566D01*
X-330617Y289137D01*
X-330559Y288689D01*
X-330519Y288181D01*
X-330500Y287655D01*
Y287635D01*
Y287596D01*
Y287518D01*
Y287401D01*
X-330519Y287284D01*
X-330539Y287128D01*
X-330559Y286952D01*
X-330578Y286757D01*
X-330656Y286328D01*
X-330773Y285840D01*
X-330949Y285314D01*
X-331163Y284787D01*
X-331436Y284241D01*
X-331787Y283714D01*
X-332002Y283480D01*
X-332217Y283227D01*
X-332470Y283012D01*
X-332743Y282797D01*
X-333036Y282602D01*
X-333348Y282427D01*
X-333680Y282271D01*
X-334050Y282154D01*
X-334440Y282036D01*
X-334870Y281959D01*
X-335318Y281919D01*
X-335806Y281900D01*
X-336781D01*
X-336879Y281919D01*
X-336996D01*
X-337132Y281939D01*
X-337464Y281998D01*
X-337874Y282076D01*
X-338322Y282212D01*
X-338810Y282388D01*
X-339298Y282622D01*
X-339785Y282934D01*
X-340039Y283109D01*
X-340273Y283305D01*
X-340507Y283519D01*
X-340722Y283773D01*
X-340936Y284046D01*
X-341112Y284319D01*
X-341307Y284650D01*
X-341463Y284982D01*
X-341600Y285353D01*
X-341717Y285762D01*
X-341814Y286192D01*
X-341892Y286640D01*
X-341931Y287128D01*
X-341951Y287655D01*
Y287694D01*
Y287791D01*
Y287928D01*
X-341931Y288142D01*
X-341912Y288376D01*
X-341873Y288669D01*
X-341834Y288981D01*
X-341775Y289313D01*
X-341717Y289664D01*
X-341619Y290015D01*
X-341502Y290386D01*
X-341366Y290737D01*
X-341209Y291088D01*
X-341034Y291420D01*
X-340819Y291732D01*
X-340585Y292024D01*
X-340566Y292044D01*
X-340527Y292083D01*
X-340449Y292161D01*
X-340332Y292258D01*
X-340195Y292356D01*
X-340019Y292473D01*
X-339805Y292609D01*
X-339571Y292746D01*
X-339317Y292882D01*
X-339025Y293019D01*
X-338693Y293136D01*
X-338342Y293234D01*
X-337952Y293331D01*
X-337542Y293409D01*
X-337093Y293448D01*
X-336625Y293468D01*
X-335572D01*
X-335396Y293448D01*
D02*
G37*
G36*
X-361673Y293585D02*
X-361458Y293546D01*
X-361204Y293507D01*
X-360951Y293429D01*
X-360678Y293312D01*
X-360424Y293175D01*
X-360385Y293156D01*
X-360307Y293097D01*
X-360190Y293000D01*
X-360053Y292863D01*
X-359897Y292668D01*
X-359722Y292453D01*
X-359566Y292180D01*
X-359429Y291868D01*
X-355898Y281900D01*
X-359078D01*
X-362004Y290249D01*
X-364911Y281900D01*
X-368071D01*
X-364560Y291868D01*
Y291888D01*
X-364540Y291907D01*
X-364501Y292024D01*
X-364423Y292180D01*
X-364306Y292375D01*
X-364169Y292590D01*
X-363994Y292805D01*
X-363799Y293000D01*
X-363565Y293175D01*
X-363526Y293195D01*
X-363448Y293234D01*
X-363292Y293312D01*
X-363116Y293390D01*
X-362882Y293468D01*
X-362609Y293546D01*
X-362316Y293585D01*
X-361985Y293604D01*
X-361828D01*
X-361673Y293585D01*
D02*
G37*
G36*
X-347413Y290483D02*
X-349832D01*
Y281900D01*
X-352816D01*
Y290483D01*
X-355391D01*
Y293468D01*
X-347413D01*
Y290483D01*
D02*
G37*
G36*
X159067Y748854D02*
X159086Y748822D01*
X159197Y748629D01*
X159332Y748321D01*
X159522Y747917D01*
X159732Y747481D01*
X159932Y746911D01*
X160133Y746341D01*
X160287Y745702D01*
X160306Y745670D01*
X160292Y745619D01*
X160371Y745407D01*
X160391Y745076D01*
X160467Y744649D01*
X160529Y744170D01*
X160564Y743590D01*
X160566Y742992D01*
X160486Y742389D01*
X160491Y742306D01*
X160437Y742103D01*
X160387Y741817D01*
X160279Y741412D01*
X160156Y740956D01*
X159988Y740430D01*
X159738Y739900D01*
X159455Y739351D01*
X159409Y739281D01*
X159285Y739124D01*
X159103Y738847D01*
X158823Y738515D01*
X158480Y738145D01*
X158040Y737719D01*
X157530Y737340D01*
X156938Y736955D01*
X144630Y729849D01*
X141791Y734766D01*
X154132Y741891D01*
X154164Y741909D01*
X154292Y741983D01*
X154434Y742108D01*
X154590Y742284D01*
X154741Y742542D01*
X154873Y742833D01*
X154936Y743169D01*
X154962Y743570D01*
X154976Y743621D01*
X154934Y743768D01*
X154886Y743998D01*
X154834Y744310D01*
X154745Y744687D01*
X154587Y745110D01*
X154378Y745547D01*
X154132Y746047D01*
X159049Y748886D01*
X159067Y748854D01*
D02*
G37*
G36*
X151203Y746370D02*
X146221Y743494D01*
X141082Y752396D01*
X146063Y755272D01*
X151203Y746370D01*
D02*
G37*
G36*
X185248Y703508D02*
X180331Y700669D01*
X174375Y710985D01*
X172254Y709760D01*
X175204Y704650D01*
X175222Y704618D01*
X175278Y704522D01*
X175371Y704361D01*
X175450Y704150D01*
X175548Y703906D01*
X175683Y703598D01*
X175957Y702900D01*
X176173Y702082D01*
X176292Y701208D01*
X176303Y700743D01*
X176282Y700259D01*
X176211Y699790D01*
X176088Y699333D01*
X176075Y699283D01*
X176061Y699232D01*
X176002Y699112D01*
X175929Y698941D01*
X175842Y698720D01*
X175692Y698462D01*
X175541Y698203D01*
X175358Y697926D01*
X174864Y697298D01*
X174273Y696614D01*
X173498Y695953D01*
X173085Y695629D01*
X172571Y695332D01*
X172507Y695295D01*
X172346Y695202D01*
X172103Y695104D01*
X171763Y694951D01*
X171359Y694760D01*
X170936Y694602D01*
X170444Y694489D01*
X169952Y694376D01*
X169901Y694390D01*
X169722Y694329D01*
X169473Y694314D01*
X169142Y694295D01*
X168709Y694302D01*
X168277Y694309D01*
X167825Y694349D01*
X167337Y694452D01*
X167286Y694466D01*
X167134Y694507D01*
X166881Y694575D01*
X166590Y694707D01*
X166230Y694885D01*
X165820Y695076D01*
X165423Y695318D01*
X165007Y695593D01*
X164938Y695638D01*
X164832Y695748D01*
X164638Y695936D01*
X164374Y696170D01*
X164074Y696468D01*
X163768Y696848D01*
X163495Y697247D01*
X163184Y697711D01*
X157377Y707770D01*
X162294Y710609D01*
X168102Y700550D01*
X168120Y700518D01*
X168139Y700486D01*
X168282Y700311D01*
X168522Y700193D01*
X168660Y700101D01*
X168845Y700079D01*
X168877Y700098D01*
X168927Y700084D01*
X169144Y700080D01*
X169424Y700114D01*
X169732Y700249D01*
X169764Y700267D01*
X169797Y700286D01*
X169971Y700429D01*
X170191Y700642D01*
X170355Y700951D01*
X170401Y701020D01*
X170404Y701237D01*
X170389Y701485D01*
X170287Y701812D01*
X164479Y711871D01*
X176434Y718773D01*
X185248Y703508D01*
D02*
G37*
G36*
X162452Y735125D02*
X163170Y735068D01*
X163875Y734961D01*
X163925Y734947D01*
X164027Y734920D01*
X164230Y734866D01*
X164502Y734766D01*
X164792Y734633D01*
X165184Y734474D01*
X165595Y734283D01*
X166042Y734027D01*
X166527Y733707D01*
X166998Y733336D01*
X167520Y732952D01*
X168015Y732466D01*
X168546Y731916D01*
X169065Y731315D01*
X169537Y730645D01*
X170014Y729893D01*
X170089Y729764D01*
X170107Y729732D01*
X170144Y729668D01*
X170219Y729539D01*
X170279Y729360D01*
X170391Y729167D01*
X170488Y728924D01*
X170707Y728322D01*
X170968Y727572D01*
X171170Y726703D01*
X171326Y725765D01*
X171423Y724707D01*
X171405Y723625D01*
X171325Y723022D01*
X171226Y722451D01*
X171095Y721861D01*
X170881Y721266D01*
X170636Y720653D01*
X170371Y720072D01*
X169992Y719467D01*
X169594Y718895D01*
X169113Y718317D01*
X168568Y717702D01*
X167954Y717133D01*
X167289Y716578D01*
X166523Y716050D01*
X165674Y715517D01*
X165577Y715461D01*
X165545Y715443D01*
X165481Y715406D01*
X165352Y715331D01*
X165159Y715220D01*
X164948Y715141D01*
X164672Y715024D01*
X164364Y714890D01*
X164025Y714736D01*
X163243Y714457D01*
X162329Y714186D01*
X161294Y713974D01*
X160222Y713826D01*
X159062Y713757D01*
X157861Y713834D01*
X157271Y713965D01*
X156649Y714077D01*
X156054Y714291D01*
X155441Y714537D01*
X154841Y714834D01*
X154255Y715181D01*
X153683Y715579D01*
X153137Y716078D01*
X152573Y716609D01*
X152037Y717242D01*
X151546Y717944D01*
X151050Y718729D01*
X150938Y718922D01*
X150920Y718954D01*
X150883Y719018D01*
X150808Y719147D01*
X150748Y719326D01*
X150637Y719519D01*
X150539Y719762D01*
X150320Y720364D01*
X150059Y721114D01*
X149857Y721983D01*
X149682Y722953D01*
X149604Y723979D01*
X149654Y725079D01*
X149702Y725664D01*
X149801Y726235D01*
X149932Y726825D01*
X150146Y727420D01*
X150391Y728033D01*
X150674Y728582D01*
X151035Y729219D01*
X151433Y729791D01*
X151914Y730369D01*
X152477Y730952D01*
X153092Y731520D01*
X153757Y732076D01*
X154523Y732604D01*
X155372Y733137D01*
X155468Y733193D01*
X155533Y733230D01*
X155661Y733304D01*
X155937Y733420D01*
X156258Y733606D01*
X156681Y733764D01*
X157150Y733992D01*
X157719Y734192D01*
X158289Y734393D01*
X158942Y734598D01*
X159595Y734804D01*
X160285Y734945D01*
X160993Y735054D01*
X161720Y735131D01*
X162452Y735125D01*
D02*
G37*
G36*
X148250Y767590D02*
X148268Y767558D01*
X148287Y767526D01*
X148380Y767365D01*
X148496Y767090D01*
X148700Y766736D01*
X148858Y766313D01*
X149035Y765858D01*
X149199Y765353D01*
X149312Y764861D01*
X149316Y764778D01*
X149359Y764631D01*
X149392Y764350D01*
X149412Y764019D01*
X149437Y763605D01*
X149462Y763191D01*
X149422Y762739D01*
X149351Y762270D01*
X149337Y762219D01*
X149296Y762067D01*
X149261Y761832D01*
X149160Y761560D01*
X149033Y761186D01*
X148855Y760827D01*
X148613Y760430D01*
X148371Y760033D01*
X148357Y759982D01*
X148215Y759857D01*
X148078Y759649D01*
X147844Y759386D01*
X147560Y759136D01*
X147230Y758817D01*
X146799Y758525D01*
X146368Y758233D01*
X146335Y758215D01*
X146303Y758196D01*
X146207Y758140D01*
X146078Y758066D01*
X145738Y757913D01*
X145316Y757755D01*
X145283Y757736D01*
X145201Y757731D01*
X145104Y757675D01*
X144957Y757633D01*
X144548Y757526D01*
X144069Y757464D01*
X144037Y757445D01*
X143954Y757440D01*
X143821Y757449D01*
X143655Y757439D01*
X143190Y757428D01*
X142638Y757494D01*
X142587Y757508D01*
X142536Y757521D01*
X142384Y757562D01*
X142182Y757616D01*
X141707Y757771D01*
X141195Y757989D01*
X141181Y757939D01*
X141186Y757856D01*
X141146Y757704D01*
X141142Y757487D01*
X141038Y756999D01*
X140870Y756473D01*
X140857Y756423D01*
X140811Y756354D01*
X140770Y756201D01*
X140697Y756031D01*
X140455Y755634D01*
X140167Y755168D01*
X140135Y755149D01*
X140108Y755048D01*
X140030Y754960D01*
X139907Y754803D01*
X139627Y754470D01*
X139284Y754101D01*
X139251Y754082D01*
X139206Y754013D01*
X139109Y753957D01*
X138999Y753851D01*
X138664Y753615D01*
X138329Y753378D01*
X138297Y753360D01*
X138169Y753286D01*
X137957Y753206D01*
X137700Y753058D01*
X137374Y752955D01*
X137015Y752834D01*
X136625Y752694D01*
X136165Y752600D01*
X136133Y752581D01*
X135967Y752571D01*
X135719Y752557D01*
X135438Y752523D01*
X135056Y752517D01*
X134655Y752543D01*
X134236Y752601D01*
X133766Y752672D01*
X133716Y752686D01*
X133564Y752727D01*
X133342Y752813D01*
X133020Y752927D01*
X132660Y753104D01*
X132249Y753296D01*
X131834Y753570D01*
X131381Y753909D01*
X131312Y753955D01*
X131187Y754097D01*
X130942Y754298D01*
X130674Y754615D01*
X130336Y754977D01*
X129943Y755435D01*
X129577Y755995D01*
X129192Y756587D01*
X123700Y766100D01*
X142758Y777103D01*
X148250Y767590D01*
D02*
G37*
G36*
X-376962Y310807D02*
X-376767Y310787D01*
X-376533Y310729D01*
X-376240Y310651D01*
X-375928Y310514D01*
X-375597Y310339D01*
X-375285Y310085D01*
X-375265D01*
X-375246Y310046D01*
X-375148Y309949D01*
X-374992Y309792D01*
X-374816Y309558D01*
X-374602Y309266D01*
X-374387Y308915D01*
X-374192Y308505D01*
X-374017Y308037D01*
X-372124Y302224D01*
Y302204D01*
X-372085Y302165D01*
X-372046Y302107D01*
X-371988Y302087D01*
X-371968D01*
X-371929Y302107D01*
X-371890Y302165D01*
X-371871Y302282D01*
Y310768D01*
X-368769D01*
Y302224D01*
Y302185D01*
Y302107D01*
X-368789Y301970D01*
X-368808Y301794D01*
X-368828Y301599D01*
X-368867Y301385D01*
X-368945Y301151D01*
X-369023Y300936D01*
X-369042Y300917D01*
X-369062Y300839D01*
X-369120Y300722D01*
X-369198Y300585D01*
X-369296Y300429D01*
X-369432Y300273D01*
X-369569Y300097D01*
X-369725Y299941D01*
X-369744Y299922D01*
X-369803Y299883D01*
X-369901Y299805D01*
X-370018Y299707D01*
X-370174Y299610D01*
X-370349Y299512D01*
X-370544Y299415D01*
X-370759Y299317D01*
X-370778D01*
X-370856Y299278D01*
X-370974Y299258D01*
X-371129Y299219D01*
X-371325Y299181D01*
X-371539Y299142D01*
X-371793Y299122D01*
X-372046Y299102D01*
X-372202D01*
X-372319Y299122D01*
X-372456D01*
X-372612Y299161D01*
X-372944Y299219D01*
X-372963D01*
X-373022Y299239D01*
X-373100Y299278D01*
X-373197Y299317D01*
X-373470Y299434D01*
X-373763Y299610D01*
X-373783Y299629D01*
X-373821Y299649D01*
X-373900Y299707D01*
X-373997Y299785D01*
X-374212Y299980D01*
X-374446Y300234D01*
X-374465Y300253D01*
X-374485Y300292D01*
X-374543Y300370D01*
X-374621Y300487D01*
X-374680Y300604D01*
X-374758Y300761D01*
X-374914Y301092D01*
X-377040Y307705D01*
Y307725D01*
X-377079Y307764D01*
X-377118Y307803D01*
X-377196Y307822D01*
X-377216D01*
X-377235Y307803D01*
X-377274Y307744D01*
X-377294Y307647D01*
Y302224D01*
Y302185D01*
Y302107D01*
X-377313Y301970D01*
X-377333Y301794D01*
X-377352Y301599D01*
X-377391Y301385D01*
X-377469Y301151D01*
X-377547Y300936D01*
X-377567Y300917D01*
X-377586Y300839D01*
X-377645Y300722D01*
X-377723Y300585D01*
X-377821Y300429D01*
X-377957Y300273D01*
X-378094Y300097D01*
X-378250Y299941D01*
X-378269Y299922D01*
X-378328Y299883D01*
X-378425Y299805D01*
X-378542Y299707D01*
X-378698Y299610D01*
X-378874Y299512D01*
X-379069Y299415D01*
X-379283Y299317D01*
X-379303D01*
X-379381Y299278D01*
X-379498Y299258D01*
X-379654Y299219D01*
X-379849Y299181D01*
X-380064Y299142D01*
X-380317Y299122D01*
X-380571Y299102D01*
X-380727D01*
X-380844Y299122D01*
X-380981D01*
X-381117Y299161D01*
X-381449Y299219D01*
X-381468D01*
X-381527Y299239D01*
X-381605Y299278D01*
X-381722Y299317D01*
X-381995Y299434D01*
X-382288Y299590D01*
X-382307Y299610D01*
X-382346Y299649D01*
X-382424Y299688D01*
X-382502Y299766D01*
X-382736Y299980D01*
X-382970Y300234D01*
X-382990Y300253D01*
X-383029Y300312D01*
X-383087Y300390D01*
X-383146Y300487D01*
X-383224Y300624D01*
X-383302Y300780D01*
X-383458Y301151D01*
X-386872Y310768D01*
X-383575D01*
X-380649Y302263D01*
Y302243D01*
X-380630Y302185D01*
X-380591Y302107D01*
X-380513Y302087D01*
X-380493D01*
X-380454Y302107D01*
X-380415Y302165D01*
X-380396Y302282D01*
Y307705D01*
Y307744D01*
Y307822D01*
X-380376Y307959D01*
X-380356Y308134D01*
X-380337Y308329D01*
X-380298Y308544D01*
X-380239Y308759D01*
X-380161Y308973D01*
X-380142Y308993D01*
X-380122Y309071D01*
X-380064Y309188D01*
X-379986Y309324D01*
X-379869Y309480D01*
X-379752Y309636D01*
X-379615Y309812D01*
X-379459Y309968D01*
X-379440Y309988D01*
X-379381Y310026D01*
X-379283Y310105D01*
X-379166Y310202D01*
X-379010Y310300D01*
X-378835Y310397D01*
X-378640Y310495D01*
X-378425Y310592D01*
X-378406Y310612D01*
X-378328Y310631D01*
X-378191Y310670D01*
X-378035Y310709D01*
X-377840Y310748D01*
X-377625Y310787D01*
X-377391Y310826D01*
X-377040D01*
X-376962Y310807D01*
D02*
G37*
G36*
X-372440Y293448D02*
X-372187Y293429D01*
X-371914Y293390D01*
X-371621Y293351D01*
X-371329Y293273D01*
X-371036Y293175D01*
X-370997Y293156D01*
X-370919Y293117D01*
X-370782Y293058D01*
X-370607Y292961D01*
X-370412Y292843D01*
X-370217Y292707D01*
X-370022Y292551D01*
X-369827Y292375D01*
X-369807Y292356D01*
X-369748Y292297D01*
X-369670Y292180D01*
X-369573Y292044D01*
X-369456Y291888D01*
X-369339Y291693D01*
X-369241Y291458D01*
X-369144Y291224D01*
X-369124Y291205D01*
X-369105Y291107D01*
X-369066Y290990D01*
X-369027Y290815D01*
X-368988Y290600D01*
X-368968Y290386D01*
X-368929Y290132D01*
Y289859D01*
Y289839D01*
Y289742D01*
Y289625D01*
X-368949Y289469D01*
X-368968Y289274D01*
X-369007Y289059D01*
X-369124Y288591D01*
Y288571D01*
X-369163Y288493D01*
X-369202Y288376D01*
X-369261Y288220D01*
X-369339Y288045D01*
X-369436Y287850D01*
X-369573Y287655D01*
X-369709Y287460D01*
X-369729Y287440D01*
X-369787Y287381D01*
X-369865Y287284D01*
X-369982Y287167D01*
X-370119Y287050D01*
X-370295Y286913D01*
X-370509Y286777D01*
X-370724Y286640D01*
X-370743Y286621D01*
X-370841Y286582D01*
X-370977Y286523D01*
X-371153Y286465D01*
X-371367Y286387D01*
X-371621Y286328D01*
X-371914Y286270D01*
X-372245Y286231D01*
X-368675Y285041D01*
Y281763D01*
X-375562Y284573D01*
Y281900D01*
X-378546D01*
Y285587D01*
Y285606D01*
Y285665D01*
Y285762D01*
X-378527Y285879D01*
X-378507Y286035D01*
X-378488Y286211D01*
X-378410Y286601D01*
X-378293Y287030D01*
X-378117Y287479D01*
X-378000Y287694D01*
X-377863Y287908D01*
X-377707Y288103D01*
X-377532Y288279D01*
X-377512Y288298D01*
X-377493Y288318D01*
X-377434Y288357D01*
X-377337Y288415D01*
X-377239Y288493D01*
X-377122Y288571D01*
X-376966Y288650D01*
X-376791Y288747D01*
X-376615Y288825D01*
X-376400Y288903D01*
X-376166Y288981D01*
X-375913Y289059D01*
X-375640Y289118D01*
X-375347Y289157D01*
X-375035Y289196D01*
X-372479D01*
X-372362Y289215D01*
X-372226Y289274D01*
X-372089Y289371D01*
X-372070Y289410D01*
X-371992Y289508D01*
X-371933Y289644D01*
X-371914Y289839D01*
Y289859D01*
Y289878D01*
X-371933Y289995D01*
X-371992Y290132D01*
X-372089Y290288D01*
X-372109Y290327D01*
X-372206Y290386D01*
X-372323Y290444D01*
X-372499Y290483D01*
X-378546D01*
Y293468D01*
X-372616D01*
X-372440Y293448D01*
D02*
G37*
G36*
X-406867Y310826D02*
X-406672Y310807D01*
X-406438Y310748D01*
X-406145Y310670D01*
X-405833Y310534D01*
X-405501Y310358D01*
X-405189Y310105D01*
X-405170D01*
X-405150Y310065D01*
X-405053Y309968D01*
X-404897Y309792D01*
X-404721Y309578D01*
X-404506Y309285D01*
X-404292Y308934D01*
X-404097Y308524D01*
X-403921Y308056D01*
X-402029Y302224D01*
Y302204D01*
X-401990Y302165D01*
X-401951Y302107D01*
X-401892Y302087D01*
X-401873D01*
X-401834Y302107D01*
X-401795Y302165D01*
X-401775Y302282D01*
Y310748D01*
X-398674D01*
Y302224D01*
Y302185D01*
Y302107D01*
X-398693Y301970D01*
X-398713Y301794D01*
X-398732Y301599D01*
X-398771Y301385D01*
X-398849Y301151D01*
X-398927Y300936D01*
X-398947Y300917D01*
X-398966Y300839D01*
X-399025Y300722D01*
X-399103Y300585D01*
X-399200Y300429D01*
X-399337Y300273D01*
X-399473Y300097D01*
X-399630Y299941D01*
X-399649Y299922D01*
X-399708Y299883D01*
X-399805Y299805D01*
X-399922Y299707D01*
X-400078Y299610D01*
X-400254Y299512D01*
X-400449Y299415D01*
X-400663Y299317D01*
X-400683D01*
X-400761Y299278D01*
X-400878Y299258D01*
X-401034Y299219D01*
X-401229Y299181D01*
X-401444Y299142D01*
X-401697Y299122D01*
X-401951Y299102D01*
X-402048D01*
X-402127Y299122D01*
X-402322Y299142D01*
X-402556Y299181D01*
X-402848Y299258D01*
X-403141Y299356D01*
X-403453Y299512D01*
X-403765Y299707D01*
X-403804Y299727D01*
X-403902Y299824D01*
X-404038Y299961D01*
X-404214Y300156D01*
X-404409Y300390D01*
X-404604Y300702D01*
X-404780Y301053D01*
X-404935Y301443D01*
X-406964Y307705D01*
Y307725D01*
X-406984Y307783D01*
X-407023Y307822D01*
X-407101Y307842D01*
X-407120D01*
X-407140Y307822D01*
X-407179Y307783D01*
X-407198Y307686D01*
Y299200D01*
X-410300D01*
Y307705D01*
Y307744D01*
Y307822D01*
X-410280Y307959D01*
X-410261Y308134D01*
X-410242Y308329D01*
X-410202Y308544D01*
X-410144Y308778D01*
X-410066Y308993D01*
X-410046Y309012D01*
X-410027Y309090D01*
X-409968Y309207D01*
X-409890Y309344D01*
X-409793Y309500D01*
X-409676Y309656D01*
X-409383Y309988D01*
X-409364Y310007D01*
X-409305Y310046D01*
X-409208Y310124D01*
X-409090Y310222D01*
X-408935Y310319D01*
X-408739Y310417D01*
X-408544Y310514D01*
X-408330Y310612D01*
X-408310Y310631D01*
X-408232Y310651D01*
X-408096Y310690D01*
X-407940Y310729D01*
X-407744Y310768D01*
X-407530Y310807D01*
X-407296Y310846D01*
X-406945D01*
X-406867Y310826D01*
D02*
G37*
G36*
X-387730Y307783D02*
X-393816D01*
X-393933Y307764D01*
X-394070Y307705D01*
X-394207Y307588D01*
X-394226Y307549D01*
X-394285Y307452D01*
X-394363Y307315D01*
X-394382Y307139D01*
Y307120D01*
Y307100D01*
X-394363Y306983D01*
X-394324Y306827D01*
X-394226Y306671D01*
X-394187Y306652D01*
X-394109Y306593D01*
X-393953Y306515D01*
X-393758Y306496D01*
X-387730D01*
Y303511D01*
X-393816D01*
X-393933Y303492D01*
X-394070Y303433D01*
X-394207Y303316D01*
X-394226Y303277D01*
X-394285Y303199D01*
X-394363Y303043D01*
X-394382Y302848D01*
Y302828D01*
Y302809D01*
X-394363Y302672D01*
X-394304Y302516D01*
X-394207Y302360D01*
X-394168Y302341D01*
X-394090Y302282D01*
X-393933Y302204D01*
X-393758Y302185D01*
X-387730D01*
Y299200D01*
X-394324D01*
X-394460Y299219D01*
X-394655Y299239D01*
X-394870Y299258D01*
X-395104Y299317D01*
X-395338Y299376D01*
X-395572Y299454D01*
X-395592Y299473D01*
X-395670Y299512D01*
X-395787Y299571D01*
X-395923Y299649D01*
X-396079Y299746D01*
X-396255Y299883D01*
X-396411Y300019D01*
X-396567Y300175D01*
X-396586Y300195D01*
X-396625Y300253D01*
X-396703Y300351D01*
X-396782Y300468D01*
X-396879Y300624D01*
X-396977Y300819D01*
X-397074Y301014D01*
X-397172Y301229D01*
Y301248D01*
X-397211Y301346D01*
X-397230Y301463D01*
X-397269Y301619D01*
X-397308Y301814D01*
X-397347Y302029D01*
X-397367Y302263D01*
X-397386Y302516D01*
Y302536D01*
Y302575D01*
Y302633D01*
X-397367Y302711D01*
X-397347Y302926D01*
X-397308Y303160D01*
Y303179D01*
X-397289Y303218D01*
X-397269Y303297D01*
X-397250Y303375D01*
X-397172Y303589D01*
X-397074Y303843D01*
Y303862D01*
X-397035Y303901D01*
X-396996Y303979D01*
X-396957Y304057D01*
X-396820Y304272D01*
X-396645Y304506D01*
X-396625Y304526D01*
X-396606Y304564D01*
X-396547Y304623D01*
X-396469Y304681D01*
X-396294Y304857D01*
X-396060Y305033D01*
X-396099Y305052D01*
X-396177Y305111D01*
X-396313Y305208D01*
X-396469Y305345D01*
X-396645Y305520D01*
X-396801Y305715D01*
X-396957Y305949D01*
X-397094Y306203D01*
X-397113Y306242D01*
X-397133Y306320D01*
X-397172Y306476D01*
X-397230Y306671D01*
X-397289Y306905D01*
X-397328Y307159D01*
X-397347Y307452D01*
X-397367Y307744D01*
Y307764D01*
Y307842D01*
X-397347Y307959D01*
Y308115D01*
X-397308Y308290D01*
X-397269Y308485D01*
X-397230Y308680D01*
X-397152Y308895D01*
X-397133Y308915D01*
X-397113Y308993D01*
X-397055Y309090D01*
X-396977Y309227D01*
X-396782Y309539D01*
X-396508Y309851D01*
X-396489Y309870D01*
X-396430Y309929D01*
X-396352Y309988D01*
X-396235Y310085D01*
X-396079Y310202D01*
X-395923Y310300D01*
X-395728Y310417D01*
X-395513Y310514D01*
X-395494Y310534D01*
X-395416Y310553D01*
X-395279Y310592D01*
X-395123Y310651D01*
X-394928Y310690D01*
X-394714Y310729D01*
X-394460Y310748D01*
X-394187Y310768D01*
X-387730D01*
Y307783D01*
D02*
G37*
G36*
X-425989Y278448D02*
X-425872D01*
X-425736Y278429D01*
X-425384Y278370D01*
X-424994Y278292D01*
X-424546Y278156D01*
X-424058Y277980D01*
X-423570Y277746D01*
X-423083Y277434D01*
X-422829Y277258D01*
X-422595Y277063D01*
X-422361Y276829D01*
X-422146Y276595D01*
X-421932Y276322D01*
X-421736Y276029D01*
X-421561Y275717D01*
X-421405Y275366D01*
X-421268Y274995D01*
X-421151Y274605D01*
X-421054Y274176D01*
X-420976Y273708D01*
X-420937Y273220D01*
X-420917Y272694D01*
Y272655D01*
Y272557D01*
Y272421D01*
X-420937Y272206D01*
X-420956Y271972D01*
X-420995Y271699D01*
X-421034Y271387D01*
X-421093Y271055D01*
X-421151Y270704D01*
X-421249Y270333D01*
X-421366Y269982D01*
X-421483Y269611D01*
X-421659Y269260D01*
X-421834Y268929D01*
X-422049Y268617D01*
X-422283Y268324D01*
X-422302Y268305D01*
X-422341Y268265D01*
X-422419Y268188D01*
X-422536Y268109D01*
X-422673Y267992D01*
X-422849Y267875D01*
X-423044Y267739D01*
X-423278Y267622D01*
X-423551Y267485D01*
X-423843Y267349D01*
X-424175Y267232D01*
X-424526Y267115D01*
X-424897Y267036D01*
X-425326Y266959D01*
X-425774Y266919D01*
X-426243Y266900D01*
X-431100D01*
Y278468D01*
X-426087D01*
X-425989Y278448D01*
D02*
G37*
G36*
X-348404Y312000D02*
X-351388D01*
Y323568D01*
X-348404D01*
Y312000D01*
D02*
G37*
G36*
X-339274Y320583D02*
X-341693D01*
Y312000D01*
X-344678D01*
Y320583D01*
X-347253D01*
Y323568D01*
X-339274D01*
Y320583D01*
D02*
G37*
G36*
X-382502Y323548D02*
X-382268Y323529D01*
X-382014Y323490D01*
X-381741Y323451D01*
X-381429Y323392D01*
X-381117Y323314D01*
X-380785Y323217D01*
X-380454Y323100D01*
X-380142Y322963D01*
X-379810Y322788D01*
X-379498Y322592D01*
X-379205Y322378D01*
X-378952Y322124D01*
X-378932Y322105D01*
X-378893Y322066D01*
X-378835Y321968D01*
X-378737Y321851D01*
X-378640Y321695D01*
X-378523Y321520D01*
X-378405Y321285D01*
X-378269Y321032D01*
X-378152Y320739D01*
X-378035Y320427D01*
X-377918Y320056D01*
X-377820Y319666D01*
X-377723Y319237D01*
X-377664Y318789D01*
X-377625Y318281D01*
X-377606Y317755D01*
Y317735D01*
Y317696D01*
Y317618D01*
Y317501D01*
X-377625Y317384D01*
X-377645Y317228D01*
X-377664Y317052D01*
X-377684Y316857D01*
X-377762Y316428D01*
X-377879Y315940D01*
X-378054Y315414D01*
X-378269Y314887D01*
X-378542Y314341D01*
X-378893Y313814D01*
X-379108Y313580D01*
X-379322Y313326D01*
X-379576Y313112D01*
X-379849Y312897D01*
X-380142Y312702D01*
X-380454Y312527D01*
X-380785Y312371D01*
X-381156Y312254D01*
X-381546Y312137D01*
X-381975Y312059D01*
X-382424Y312020D01*
X-382912Y312000D01*
X-383887D01*
X-383985Y312020D01*
X-384102D01*
X-384238Y312039D01*
X-384570Y312097D01*
X-384980Y312176D01*
X-385428Y312312D01*
X-385916Y312488D01*
X-386404Y312722D01*
X-386891Y313034D01*
X-387145Y313209D01*
X-387379Y313405D01*
X-387613Y313619D01*
X-387827Y313873D01*
X-388042Y314146D01*
X-388218Y314419D01*
X-388413Y314750D01*
X-388569Y315082D01*
X-388705Y315453D01*
X-388822Y315862D01*
X-388920Y316292D01*
X-388998Y316740D01*
X-389037Y317228D01*
X-389057Y317755D01*
Y317794D01*
Y317891D01*
Y318028D01*
X-389037Y318242D01*
X-389017Y318476D01*
X-388978Y318769D01*
X-388939Y319081D01*
X-388881Y319413D01*
X-388822Y319764D01*
X-388725Y320115D01*
X-388608Y320486D01*
X-388471Y320837D01*
X-388315Y321188D01*
X-388140Y321520D01*
X-387925Y321832D01*
X-387691Y322124D01*
X-387672Y322144D01*
X-387632Y322183D01*
X-387554Y322261D01*
X-387437Y322358D01*
X-387301Y322456D01*
X-387125Y322573D01*
X-386911Y322710D01*
X-386677Y322846D01*
X-386423Y322983D01*
X-386130Y323119D01*
X-385799Y323236D01*
X-385448Y323334D01*
X-385057Y323431D01*
X-384648Y323509D01*
X-384199Y323548D01*
X-383731Y323568D01*
X-382678D01*
X-382502Y323548D01*
D02*
G37*
G36*
X-366721Y320583D02*
X-371598D01*
X-371715Y320564D01*
X-371871Y320544D01*
X-372085Y320505D01*
X-372319Y320408D01*
X-372553Y320291D01*
X-372768Y320135D01*
X-372963Y319900D01*
X-372982Y319861D01*
X-373041Y319783D01*
X-373119Y319608D01*
X-373197Y319374D01*
X-373275Y319081D01*
X-373353Y318710D01*
X-373412Y318262D01*
X-373431Y318008D01*
Y317735D01*
Y317696D01*
Y317618D01*
X-373412Y317481D01*
X-373392Y317306D01*
X-373373Y317091D01*
X-373334Y316857D01*
X-373275Y316623D01*
X-373197Y316370D01*
X-373100Y316096D01*
X-372982Y315862D01*
X-372826Y315628D01*
X-372651Y315414D01*
X-372436Y315238D01*
X-372183Y315102D01*
X-371910Y315024D01*
X-371578Y314985D01*
X-369335D01*
X-369237Y315004D01*
X-369120Y315063D01*
X-369003Y315180D01*
Y315199D01*
X-368984Y315219D01*
X-368905Y315316D01*
X-368847Y315472D01*
X-368828Y315648D01*
Y315667D01*
Y315687D01*
X-368847Y315804D01*
X-368905Y315960D01*
X-369003Y316136D01*
Y316155D01*
X-369023Y316175D01*
X-369101Y316253D01*
X-369218Y316331D01*
X-369296Y316370D01*
X-371617D01*
Y319354D01*
X-369179D01*
X-369042Y319335D01*
X-368847Y319315D01*
X-368652Y319276D01*
X-368418Y319218D01*
X-368184Y319140D01*
X-367950Y319042D01*
X-367930Y319023D01*
X-367833Y318984D01*
X-367716Y318925D01*
X-367579Y318827D01*
X-367403Y318710D01*
X-367208Y318574D01*
X-367033Y318398D01*
X-366857Y318223D01*
X-366838Y318203D01*
X-366779Y318125D01*
X-366701Y318028D01*
X-366584Y317891D01*
X-366467Y317716D01*
X-366350Y317521D01*
X-366233Y317286D01*
X-366116Y317052D01*
X-366096Y317033D01*
X-366077Y316935D01*
X-366038Y316818D01*
X-365979Y316643D01*
X-365921Y316448D01*
X-365882Y316233D01*
X-365862Y315999D01*
X-365843Y315745D01*
Y315706D01*
Y315609D01*
X-365862Y315453D01*
X-365882Y315258D01*
X-365921Y315024D01*
X-365960Y314770D01*
X-366038Y314497D01*
X-366135Y314243D01*
X-366155Y314224D01*
X-366194Y314126D01*
X-366253Y314009D01*
X-366331Y313853D01*
X-366448Y313658D01*
X-366565Y313463D01*
X-366721Y313268D01*
X-366896Y313073D01*
X-366916Y313053D01*
X-366974Y312995D01*
X-367091Y312897D01*
X-367208Y312800D01*
X-367384Y312663D01*
X-367579Y312546D01*
X-367774Y312410D01*
X-368008Y312293D01*
X-368028Y312273D01*
X-368106Y312254D01*
X-368242Y312215D01*
X-368398Y312156D01*
X-368593Y312097D01*
X-368808Y312059D01*
X-369062Y312020D01*
X-369315Y312000D01*
X-371246D01*
X-371344Y312020D01*
X-371461D01*
X-371598Y312039D01*
X-371929Y312097D01*
X-372339Y312176D01*
X-372788Y312312D01*
X-373275Y312488D01*
X-373763Y312722D01*
X-374250Y313034D01*
X-374504Y313209D01*
X-374738Y313405D01*
X-374972Y313619D01*
X-375187Y313873D01*
X-375401Y314146D01*
X-375577Y314419D01*
X-375772Y314750D01*
X-375928Y315082D01*
X-376065Y315453D01*
X-376182Y315862D01*
X-376279Y316292D01*
X-376357Y316740D01*
X-376396Y317228D01*
X-376416Y317755D01*
Y317813D01*
Y317833D01*
Y317872D01*
Y317950D01*
X-376396Y318067D01*
Y318184D01*
X-376377Y318340D01*
X-376357Y318515D01*
X-376318Y318710D01*
X-376240Y319140D01*
X-376123Y319627D01*
X-375948Y320154D01*
X-375733Y320700D01*
X-375440Y321227D01*
X-375089Y321754D01*
X-374875Y321988D01*
X-374660Y322241D01*
X-374407Y322456D01*
X-374153Y322670D01*
X-373860Y322865D01*
X-373529Y323041D01*
X-373197Y323197D01*
X-372826Y323314D01*
X-372436Y323431D01*
X-372027Y323509D01*
X-371578Y323548D01*
X-371090Y323568D01*
X-366721D01*
Y320583D01*
D02*
G37*
G36*
X-335139Y312000D02*
X-338123D01*
Y323568D01*
X-335139D01*
Y312000D01*
D02*
G37*
G36*
X-215108Y423376D02*
X-208806Y422123D01*
X-202723Y420058D01*
X-196961Y417216D01*
X-191619Y413647D01*
X-186789Y409411D01*
X-182553Y404581D01*
X-178984Y399239D01*
X-176142Y393477D01*
X-174077Y387394D01*
X-172824Y381092D01*
X-172403Y374682D01*
X-172824Y368271D01*
X-174077Y361970D01*
X-176142Y355886D01*
X-178984Y350124D01*
X-182553Y344782D01*
X-186789Y339952D01*
X-191619Y335716D01*
X-196961Y332147D01*
X-202723Y329305D01*
X-208806Y327240D01*
X-215108Y325987D01*
X-221518Y325567D01*
X-227929Y325987D01*
X-234230Y327240D01*
X-238305Y328624D01*
X-238304Y328618D01*
X-239459Y328848D01*
X-239463Y328823D01*
X-240187Y329123D01*
X-240591Y330098D01*
X-240266Y330882D01*
X-240236Y330860D01*
X-240236Y330859D01*
X-240234Y330858D01*
X-240236Y330860D01*
X-240065Y331273D01*
X-239090Y331676D01*
X-238621Y331482D01*
X-238621Y331482D01*
X-238643Y331428D01*
X-237651Y331092D01*
X-237649Y331085D01*
X-236233Y330804D01*
X-230511Y330429D01*
X-224789Y330804D01*
X-219165Y331922D01*
X-213736Y333765D01*
X-208593Y336302D01*
X-203825Y339487D01*
X-199514Y343268D01*
X-195733Y347579D01*
X-192547Y352347D01*
X-190011Y357490D01*
X-188168Y362920D01*
X-187050Y368544D01*
X-186674Y374265D01*
X-187050Y379987D01*
X-188168Y385611D01*
X-190011Y391041D01*
X-192547Y396184D01*
X-195733Y400951D01*
X-199514Y405263D01*
X-203825Y409044D01*
X-208593Y412229D01*
X-213736Y414765D01*
X-219165Y416609D01*
X-224789Y417727D01*
X-230511Y418102D01*
X-236233Y417727D01*
X-239395Y417098D01*
X-239391Y417074D01*
X-239654Y416965D01*
X-240629Y417369D01*
X-240919Y418070D01*
X-240917Y418063D01*
X-241208Y418766D01*
X-240804Y419741D01*
X-240318Y419943D01*
X-240357Y420037D01*
X-240314Y420058D01*
X-234230Y422123D01*
X-227929Y423376D01*
X-221518Y423797D01*
X-215108Y423376D01*
D02*
G37*
G36*
X-308908Y421776D02*
X-302607Y420523D01*
X-300812Y419914D01*
X-300817Y419897D01*
X-300816Y419902D01*
X-300362Y419715D01*
X-300362D01*
X-300370Y419651D01*
X-300328Y419701D01*
X-300362Y419715D01*
X-299757Y419675D01*
X-299764Y419621D01*
X-298961Y419288D01*
X-298557Y418314D01*
X-298961Y417339D01*
X-299936Y416935D01*
X-300108Y417006D01*
X-300090Y417144D01*
X-305810Y417519D01*
X-311532Y417144D01*
X-317156Y416025D01*
X-322586Y414182D01*
X-327728Y411646D01*
X-332496Y408460D01*
X-336807Y404679D01*
X-340588Y400368D01*
X-343774Y395600D01*
X-346310Y390457D01*
X-348153Y385028D01*
X-349272Y379404D01*
X-349647Y373682D01*
X-349272Y367960D01*
X-348153Y362336D01*
X-346310Y356906D01*
X-343774Y351763D01*
X-340588Y346996D01*
X-336807Y342685D01*
X-332496Y338904D01*
X-327728Y335718D01*
X-322586Y333182D01*
X-317156Y331339D01*
X-311532Y330220D01*
X-305810Y329845D01*
X-300088Y330220D01*
X-298641Y330508D01*
X-298650Y330563D01*
X-298436Y330652D01*
X-297461Y330248D01*
X-297436Y330188D01*
X-297451Y330195D01*
X-297458Y330191D01*
X-297411Y330129D01*
X-297436Y330188D01*
X-296476Y329791D01*
X-296072Y328816D01*
X-296476Y327841D01*
X-296974Y327635D01*
X-296945Y327562D01*
X-302607Y325640D01*
X-308908Y324387D01*
X-315318Y323967D01*
X-321729Y324387D01*
X-328030Y325640D01*
X-334114Y327705D01*
X-339876Y330547D01*
X-345218Y334116D01*
X-350048Y338352D01*
X-354284Y343182D01*
X-357853Y348524D01*
X-360695Y354286D01*
X-362760Y360370D01*
X-364013Y366671D01*
X-364433Y373082D01*
X-364013Y379492D01*
X-362760Y385794D01*
X-360695Y391877D01*
X-357853Y397639D01*
X-354284Y402981D01*
X-350048Y407811D01*
X-345218Y412047D01*
X-339876Y415616D01*
X-334114Y418458D01*
X-328030Y420523D01*
X-321729Y421776D01*
X-315318Y422197D01*
X-308908Y421776D01*
D02*
G37*
G36*
X-311828Y320583D02*
X-317914D01*
X-318031Y320564D01*
X-318167Y320505D01*
X-318304Y320388D01*
X-318323Y320349D01*
X-318382Y320252D01*
X-318460Y320115D01*
X-318479Y319939D01*
Y319920D01*
Y319900D01*
X-318460Y319783D01*
X-318421Y319627D01*
X-318323Y319471D01*
X-318284Y319452D01*
X-318206Y319393D01*
X-318050Y319315D01*
X-317855Y319296D01*
X-311828D01*
Y316311D01*
X-317914D01*
X-318031Y316292D01*
X-318167Y316233D01*
X-318304Y316116D01*
X-318323Y316077D01*
X-318382Y315999D01*
X-318460Y315843D01*
X-318479Y315648D01*
Y315628D01*
Y315609D01*
X-318460Y315472D01*
X-318401Y315316D01*
X-318304Y315160D01*
X-318265Y315141D01*
X-318187Y315082D01*
X-318031Y315004D01*
X-317855Y314985D01*
X-311828D01*
Y312000D01*
X-318421D01*
X-318557Y312020D01*
X-318752Y312039D01*
X-318967Y312059D01*
X-319201Y312117D01*
X-319435Y312176D01*
X-319669Y312254D01*
X-319689Y312273D01*
X-319767Y312312D01*
X-319884Y312371D01*
X-320020Y312449D01*
X-320177Y312546D01*
X-320352Y312683D01*
X-320508Y312819D01*
X-320664Y312975D01*
X-320684Y312995D01*
X-320723Y313053D01*
X-320801Y313151D01*
X-320879Y313268D01*
X-320976Y313424D01*
X-321074Y313619D01*
X-321171Y313814D01*
X-321269Y314029D01*
Y314048D01*
X-321308Y314146D01*
X-321328Y314263D01*
X-321367Y314419D01*
X-321405Y314614D01*
X-321445Y314829D01*
X-321464Y315063D01*
X-321483Y315316D01*
Y315336D01*
Y315375D01*
Y315433D01*
X-321464Y315511D01*
X-321445Y315726D01*
X-321405Y315960D01*
Y315979D01*
X-321386Y316019D01*
X-321367Y316096D01*
X-321347Y316175D01*
X-321269Y316389D01*
X-321171Y316643D01*
Y316662D01*
X-321132Y316701D01*
X-321093Y316779D01*
X-321054Y316857D01*
X-320918Y317072D01*
X-320742Y317306D01*
X-320723Y317325D01*
X-320703Y317365D01*
X-320645Y317423D01*
X-320567Y317481D01*
X-320391Y317657D01*
X-320157Y317833D01*
X-320196Y317852D01*
X-320274Y317911D01*
X-320411Y318008D01*
X-320567Y318145D01*
X-320742Y318320D01*
X-320898Y318515D01*
X-321054Y318750D01*
X-321191Y319003D01*
X-321210Y319042D01*
X-321230Y319120D01*
X-321269Y319276D01*
X-321328Y319471D01*
X-321386Y319705D01*
X-321425Y319959D01*
X-321445Y320252D01*
X-321464Y320544D01*
Y320564D01*
Y320642D01*
X-321445Y320759D01*
Y320915D01*
X-321405Y321090D01*
X-321367Y321285D01*
X-321328Y321480D01*
X-321249Y321695D01*
X-321230Y321715D01*
X-321210Y321793D01*
X-321152Y321890D01*
X-321074Y322027D01*
X-320879Y322339D01*
X-320606Y322651D01*
X-320586Y322670D01*
X-320528Y322729D01*
X-320450Y322788D01*
X-320333Y322885D01*
X-320177Y323002D01*
X-320020Y323100D01*
X-319825Y323217D01*
X-319611Y323314D01*
X-319591Y323334D01*
X-319513Y323353D01*
X-319377Y323392D01*
X-319221Y323451D01*
X-319026Y323490D01*
X-318811Y323529D01*
X-318557Y323548D01*
X-318284Y323568D01*
X-311828D01*
Y320583D01*
D02*
G37*
G36*
X-325658Y313600D02*
Y313580D01*
X-325678Y313561D01*
X-325717Y313444D01*
X-325795Y313288D01*
X-325912Y313092D01*
X-326048Y312878D01*
X-326224Y312663D01*
X-326419Y312468D01*
X-326653Y312293D01*
X-326692Y312273D01*
X-326770Y312234D01*
X-326907Y312176D01*
X-327102Y312097D01*
X-327316Y312020D01*
X-327589Y311961D01*
X-327882Y311922D01*
X-328214Y311903D01*
X-328370D01*
X-328545Y311922D01*
X-328779Y311961D01*
X-329033Y312000D01*
X-329306Y312078D01*
X-329579Y312176D01*
X-329833Y312312D01*
X-329852Y312332D01*
X-329950Y312390D01*
X-330067Y312488D01*
X-330203Y312624D01*
X-330359Y312800D01*
X-330515Y313034D01*
X-330671Y313288D01*
X-330788Y313600D01*
X-334300Y323568D01*
X-331140D01*
X-328233Y315180D01*
X-325307Y323568D01*
X-322127D01*
X-325658Y313600D01*
D02*
G37*
G36*
X-410110Y275483D02*
X-416197D01*
X-416314Y275464D01*
X-416450Y275405D01*
X-416587Y275288D01*
X-416606Y275249D01*
X-416665Y275152D01*
X-416743Y275015D01*
X-416762Y274839D01*
Y274820D01*
Y274800D01*
X-416743Y274683D01*
X-416704Y274527D01*
X-416606Y274371D01*
X-416567Y274352D01*
X-416489Y274293D01*
X-416333Y274215D01*
X-416138Y274196D01*
X-410110D01*
Y271211D01*
X-416197D01*
X-416314Y271192D01*
X-416450Y271133D01*
X-416587Y271016D01*
X-416606Y270977D01*
X-416665Y270899D01*
X-416743Y270743D01*
X-416762Y270548D01*
Y270528D01*
Y270509D01*
X-416743Y270372D01*
X-416684Y270216D01*
X-416587Y270060D01*
X-416548Y270041D01*
X-416470Y269982D01*
X-416314Y269904D01*
X-416138Y269885D01*
X-410110D01*
Y266900D01*
X-416704D01*
X-416840Y266919D01*
X-417035Y266939D01*
X-417250Y266959D01*
X-417484Y267017D01*
X-417718Y267076D01*
X-417952Y267154D01*
X-417972Y267173D01*
X-418050Y267212D01*
X-418167Y267271D01*
X-418303Y267349D01*
X-418459Y267446D01*
X-418635Y267583D01*
X-418791Y267719D01*
X-418947Y267875D01*
X-418966Y267895D01*
X-419006Y267953D01*
X-419084Y268051D01*
X-419162Y268168D01*
X-419259Y268324D01*
X-419357Y268519D01*
X-419454Y268714D01*
X-419552Y268929D01*
Y268948D01*
X-419591Y269046D01*
X-419610Y269163D01*
X-419649Y269319D01*
X-419688Y269514D01*
X-419727Y269729D01*
X-419747Y269963D01*
X-419766Y270216D01*
Y270236D01*
Y270275D01*
Y270333D01*
X-419747Y270411D01*
X-419727Y270626D01*
X-419688Y270860D01*
Y270879D01*
X-419669Y270919D01*
X-419649Y270996D01*
X-419630Y271075D01*
X-419552Y271289D01*
X-419454Y271543D01*
Y271562D01*
X-419415Y271601D01*
X-419376Y271679D01*
X-419337Y271757D01*
X-419201Y271972D01*
X-419025Y272206D01*
X-419006Y272225D01*
X-418986Y272264D01*
X-418927Y272323D01*
X-418849Y272381D01*
X-418674Y272557D01*
X-418440Y272733D01*
X-418479Y272752D01*
X-418557Y272811D01*
X-418693Y272908D01*
X-418849Y273045D01*
X-419025Y273220D01*
X-419181Y273415D01*
X-419337Y273650D01*
X-419474Y273903D01*
X-419493Y273942D01*
X-419513Y274020D01*
X-419552Y274176D01*
X-419610Y274371D01*
X-419669Y274605D01*
X-419708Y274859D01*
X-419727Y275152D01*
X-419747Y275444D01*
Y275464D01*
Y275542D01*
X-419727Y275659D01*
Y275815D01*
X-419688Y275990D01*
X-419649Y276185D01*
X-419610Y276381D01*
X-419532Y276595D01*
X-419513Y276615D01*
X-419493Y276693D01*
X-419435Y276790D01*
X-419357Y276927D01*
X-419162Y277239D01*
X-418889Y277551D01*
X-418869Y277570D01*
X-418811Y277629D01*
X-418732Y277687D01*
X-418615Y277785D01*
X-418459Y277902D01*
X-418303Y278000D01*
X-418108Y278117D01*
X-417894Y278214D01*
X-417874Y278234D01*
X-417796Y278253D01*
X-417659Y278292D01*
X-417504Y278351D01*
X-417308Y278390D01*
X-417094Y278429D01*
X-416840Y278448D01*
X-416567Y278468D01*
X-410110D01*
Y275483D01*
D02*
G37*
G36*
X-371349D02*
X-377436D01*
X-377553Y275464D01*
X-377689Y275405D01*
X-377826Y275288D01*
X-377845Y275249D01*
X-377904Y275152D01*
X-377982Y275015D01*
X-378001Y274839D01*
Y274820D01*
Y274800D01*
X-377982Y274683D01*
X-377943Y274527D01*
X-377845Y274371D01*
X-377806Y274352D01*
X-377728Y274293D01*
X-377572Y274215D01*
X-377377Y274196D01*
X-371349D01*
Y271211D01*
X-377436D01*
X-377553Y271192D01*
X-377689Y271133D01*
X-377826Y271016D01*
X-377845Y270977D01*
X-377904Y270899D01*
X-377982Y270743D01*
X-378001Y270548D01*
Y270528D01*
Y270509D01*
X-377982Y270372D01*
X-377923Y270216D01*
X-377826Y270060D01*
X-377787Y270041D01*
X-377709Y269982D01*
X-377553Y269904D01*
X-377377Y269885D01*
X-371349D01*
Y266900D01*
X-377943D01*
X-378079Y266919D01*
X-378274Y266939D01*
X-378489Y266959D01*
X-378723Y267017D01*
X-378957Y267076D01*
X-379191Y267154D01*
X-379211Y267173D01*
X-379289Y267212D01*
X-379406Y267271D01*
X-379543Y267349D01*
X-379698Y267446D01*
X-379874Y267583D01*
X-380030Y267719D01*
X-380186Y267875D01*
X-380206Y267895D01*
X-380245Y267953D01*
X-380323Y268051D01*
X-380401Y268168D01*
X-380498Y268324D01*
X-380596Y268519D01*
X-380693Y268714D01*
X-380791Y268929D01*
Y268948D01*
X-380830Y269046D01*
X-380849Y269163D01*
X-380888Y269319D01*
X-380928Y269514D01*
X-380966Y269729D01*
X-380986Y269963D01*
X-381006Y270216D01*
Y270236D01*
Y270275D01*
Y270333D01*
X-380986Y270411D01*
X-380966Y270626D01*
X-380928Y270860D01*
Y270879D01*
X-380908Y270919D01*
X-380888Y270996D01*
X-380869Y271075D01*
X-380791Y271289D01*
X-380693Y271543D01*
Y271562D01*
X-380654Y271601D01*
X-380615Y271679D01*
X-380576Y271757D01*
X-380440Y271972D01*
X-380264Y272206D01*
X-380245Y272225D01*
X-380225Y272264D01*
X-380167Y272323D01*
X-380089Y272381D01*
X-379913Y272557D01*
X-379679Y272733D01*
X-379718Y272752D01*
X-379796Y272811D01*
X-379933Y272908D01*
X-380089Y273045D01*
X-380264Y273220D01*
X-380420Y273415D01*
X-380576Y273650D01*
X-380713Y273903D01*
X-380732Y273942D01*
X-380752Y274020D01*
X-380791Y274176D01*
X-380849Y274371D01*
X-380908Y274605D01*
X-380947Y274859D01*
X-380966Y275152D01*
X-380986Y275444D01*
Y275464D01*
Y275542D01*
X-380966Y275659D01*
Y275815D01*
X-380928Y275990D01*
X-380888Y276185D01*
X-380849Y276381D01*
X-380771Y276595D01*
X-380752Y276615D01*
X-380732Y276693D01*
X-380674Y276790D01*
X-380596Y276927D01*
X-380401Y277239D01*
X-380128Y277551D01*
X-380108Y277570D01*
X-380050Y277629D01*
X-379972Y277687D01*
X-379855Y277785D01*
X-379698Y277902D01*
X-379543Y278000D01*
X-379347Y278117D01*
X-379133Y278214D01*
X-379113Y278234D01*
X-379035Y278253D01*
X-378899Y278292D01*
X-378743Y278351D01*
X-378548Y278390D01*
X-378333Y278429D01*
X-378079Y278448D01*
X-377806Y278468D01*
X-371349D01*
Y275483D01*
D02*
G37*
G36*
X-393256Y266900D02*
X-396241D01*
Y278468D01*
X-393256D01*
Y266900D01*
D02*
G37*
G36*
X-382234Y275483D02*
X-387228D01*
X-387384Y275444D01*
X-387599Y275405D01*
X-387833Y275327D01*
X-388067Y275210D01*
X-388282Y275035D01*
X-388477Y274820D01*
X-388496Y274781D01*
X-388555Y274703D01*
X-388633Y274527D01*
X-388711Y274293D01*
X-388789Y274001D01*
X-388867Y273610D01*
X-388906Y273396D01*
X-388925Y273162D01*
X-388945Y272908D01*
Y272635D01*
Y272596D01*
Y272518D01*
X-388925Y272381D01*
X-388906Y272206D01*
X-388886Y271991D01*
X-388847Y271757D01*
X-388789Y271523D01*
X-388711Y271270D01*
X-388613Y270996D01*
X-388496Y270762D01*
X-388340Y270528D01*
X-388165Y270314D01*
X-387950Y270138D01*
X-387696Y270002D01*
X-387423Y269924D01*
X-387092Y269885D01*
X-382234D01*
Y266900D01*
X-386760D01*
X-386858Y266919D01*
X-386975D01*
X-387111Y266939D01*
X-387443Y266998D01*
X-387853Y267076D01*
X-388301Y267212D01*
X-388789Y267388D01*
X-389277Y267622D01*
X-389764Y267934D01*
X-390018Y268109D01*
X-390252Y268324D01*
X-390486Y268539D01*
X-390701Y268792D01*
X-390915Y269046D01*
X-391091Y269338D01*
X-391286Y269670D01*
X-391442Y270002D01*
X-391578Y270372D01*
X-391696Y270782D01*
X-391793Y271211D01*
X-391871Y271679D01*
X-391910Y272167D01*
X-391930Y272694D01*
Y272733D01*
Y272830D01*
Y272967D01*
X-391910Y273162D01*
X-391890Y273415D01*
X-391852Y273689D01*
X-391813Y274001D01*
X-391754Y274332D01*
X-391598Y275035D01*
X-391500Y275386D01*
X-391364Y275756D01*
X-391208Y276088D01*
X-391032Y276439D01*
X-390837Y276751D01*
X-390603Y277024D01*
X-390583Y277044D01*
X-390545Y277083D01*
X-390466Y277161D01*
X-390350Y277258D01*
X-390213Y277356D01*
X-390037Y277473D01*
X-389842Y277610D01*
X-389589Y277746D01*
X-389335Y277883D01*
X-389043Y278019D01*
X-388711Y278136D01*
X-388340Y278234D01*
X-387950Y278331D01*
X-387540Y278409D01*
X-387092Y278448D01*
X-386604Y278468D01*
X-382234D01*
Y275483D01*
D02*
G37*
G36*
X-361064Y323626D02*
X-360869Y323607D01*
X-360634Y323548D01*
X-360342Y323470D01*
X-360030Y323334D01*
X-359698Y323158D01*
X-359386Y322905D01*
X-359366D01*
X-359347Y322865D01*
X-359249Y322768D01*
X-359093Y322592D01*
X-358918Y322378D01*
X-358703Y322085D01*
X-358489Y321734D01*
X-358294Y321325D01*
X-358118Y320856D01*
X-356226Y315024D01*
Y315004D01*
X-356187Y314965D01*
X-356148Y314907D01*
X-356089Y314887D01*
X-356070D01*
X-356031Y314907D01*
X-355992Y314965D01*
X-355972Y315082D01*
Y323548D01*
X-352871D01*
Y315024D01*
Y314985D01*
Y314907D01*
X-352890Y314770D01*
X-352910Y314594D01*
X-352929Y314399D01*
X-352968Y314185D01*
X-353046Y313951D01*
X-353124Y313736D01*
X-353144Y313717D01*
X-353163Y313639D01*
X-353222Y313522D01*
X-353300Y313385D01*
X-353397Y313229D01*
X-353534Y313073D01*
X-353670Y312897D01*
X-353826Y312741D01*
X-353846Y312722D01*
X-353904Y312683D01*
X-354002Y312605D01*
X-354119Y312507D01*
X-354275Y312410D01*
X-354451Y312312D01*
X-354646Y312215D01*
X-354860Y312117D01*
X-354880D01*
X-354958Y312078D01*
X-355075Y312059D01*
X-355231Y312020D01*
X-355426Y311980D01*
X-355641Y311942D01*
X-355894Y311922D01*
X-356148Y311903D01*
X-356245D01*
X-356323Y311922D01*
X-356519Y311942D01*
X-356753Y311980D01*
X-357045Y312059D01*
X-357338Y312156D01*
X-357650Y312312D01*
X-357962Y312507D01*
X-358001Y312527D01*
X-358098Y312624D01*
X-358235Y312761D01*
X-358411Y312956D01*
X-358606Y313190D01*
X-358801Y313502D01*
X-358976Y313853D01*
X-359132Y314243D01*
X-361161Y320505D01*
Y320525D01*
X-361181Y320583D01*
X-361220Y320622D01*
X-361298Y320642D01*
X-361317D01*
X-361337Y320622D01*
X-361376Y320583D01*
X-361395Y320486D01*
Y312000D01*
X-364497D01*
Y320505D01*
Y320544D01*
Y320622D01*
X-364477Y320759D01*
X-364458Y320934D01*
X-364438Y321129D01*
X-364399Y321344D01*
X-364341Y321578D01*
X-364263Y321793D01*
X-364243Y321812D01*
X-364224Y321890D01*
X-364165Y322007D01*
X-364087Y322144D01*
X-363990Y322300D01*
X-363873Y322456D01*
X-363580Y322788D01*
X-363561Y322807D01*
X-363502Y322846D01*
X-363405Y322924D01*
X-363288Y323022D01*
X-363131Y323119D01*
X-362936Y323217D01*
X-362741Y323314D01*
X-362527Y323412D01*
X-362507Y323431D01*
X-362429Y323451D01*
X-362293Y323490D01*
X-362136Y323529D01*
X-361941Y323568D01*
X-361727Y323607D01*
X-361493Y323646D01*
X-361142D01*
X-361064Y323626D01*
D02*
G37*
G36*
X-400610Y268500D02*
Y268480D01*
X-400630Y268461D01*
X-400669Y268344D01*
X-400747Y268188D01*
X-400864Y267992D01*
X-401000Y267778D01*
X-401176Y267563D01*
X-401371Y267368D01*
X-401605Y267193D01*
X-401644Y267173D01*
X-401722Y267134D01*
X-401859Y267076D01*
X-402054Y266998D01*
X-402268Y266919D01*
X-402542Y266861D01*
X-402834Y266822D01*
X-403166Y266803D01*
X-403322D01*
X-403497Y266822D01*
X-403731Y266861D01*
X-403985Y266900D01*
X-404258Y266978D01*
X-404531Y267076D01*
X-404785Y267212D01*
X-404804Y267232D01*
X-404902Y267290D01*
X-405019Y267388D01*
X-405155Y267524D01*
X-405312Y267700D01*
X-405467Y267934D01*
X-405624Y268188D01*
X-405741Y268500D01*
X-409252Y278468D01*
X-406092D01*
X-403185Y270080D01*
X-400259Y278468D01*
X-397079D01*
X-400610Y268500D01*
D02*
G37*
G36*
X-390324Y320583D02*
X-395318D01*
X-395474Y320544D01*
X-395689Y320505D01*
X-395923Y320427D01*
X-396157Y320310D01*
X-396372Y320135D01*
X-396567Y319920D01*
X-396586Y319881D01*
X-396645Y319803D01*
X-396723Y319627D01*
X-396801Y319393D01*
X-396879Y319101D01*
X-396957Y318710D01*
X-396996Y318496D01*
X-397015Y318262D01*
X-397035Y318008D01*
Y317735D01*
Y317696D01*
Y317618D01*
X-397015Y317481D01*
X-396996Y317306D01*
X-396976Y317091D01*
X-396937Y316857D01*
X-396879Y316623D01*
X-396801Y316370D01*
X-396703Y316096D01*
X-396586Y315862D01*
X-396430Y315628D01*
X-396255Y315414D01*
X-396040Y315238D01*
X-395787Y315102D01*
X-395513Y315024D01*
X-395182Y314985D01*
X-390324D01*
Y312000D01*
X-394850D01*
X-394948Y312020D01*
X-395065D01*
X-395201Y312039D01*
X-395533Y312097D01*
X-395942Y312176D01*
X-396391Y312312D01*
X-396879Y312488D01*
X-397366Y312722D01*
X-397854Y313034D01*
X-398108Y313209D01*
X-398342Y313424D01*
X-398576Y313639D01*
X-398791Y313892D01*
X-399005Y314146D01*
X-399181Y314438D01*
X-399376Y314770D01*
X-399532Y315102D01*
X-399668Y315472D01*
X-399785Y315882D01*
X-399883Y316311D01*
X-399961Y316779D01*
X-400000Y317267D01*
X-400019Y317794D01*
Y317833D01*
Y317930D01*
Y318067D01*
X-400000Y318262D01*
X-399981Y318515D01*
X-399941Y318789D01*
X-399902Y319101D01*
X-399844Y319432D01*
X-399688Y320135D01*
X-399590Y320486D01*
X-399454Y320856D01*
X-399298Y321188D01*
X-399122Y321539D01*
X-398927Y321851D01*
X-398693Y322124D01*
X-398674Y322144D01*
X-398634Y322183D01*
X-398557Y322261D01*
X-398439Y322358D01*
X-398303Y322456D01*
X-398127Y322573D01*
X-397932Y322710D01*
X-397679Y322846D01*
X-397425Y322983D01*
X-397132Y323119D01*
X-396801Y323236D01*
X-396430Y323334D01*
X-396040Y323431D01*
X-395630Y323509D01*
X-395182Y323548D01*
X-394694Y323568D01*
X-390324D01*
Y320583D01*
D02*
G37*
%LPC*%
G36*
X-335357Y290483D02*
X-337249D01*
X-337406Y290444D01*
X-337620Y290405D01*
X-337854Y290327D01*
X-338088Y290210D01*
X-338303Y290035D01*
X-338498Y289820D01*
X-338517Y289781D01*
X-338576Y289703D01*
X-338654Y289527D01*
X-338732Y289293D01*
X-338810Y289001D01*
X-338888Y288610D01*
X-338927Y288396D01*
X-338947Y288162D01*
X-338966Y287908D01*
Y287635D01*
Y287596D01*
Y287518D01*
X-338947Y287381D01*
X-338927Y287206D01*
X-338908Y286991D01*
X-338868Y286757D01*
X-338810Y286523D01*
X-338732Y286270D01*
X-338634Y285996D01*
X-338517Y285762D01*
X-338361Y285528D01*
X-338186Y285314D01*
X-337971Y285138D01*
X-337718Y285002D01*
X-337444Y284924D01*
X-337113Y284885D01*
X-335279D01*
X-335182Y284904D01*
X-335065Y284924D01*
X-334928Y284963D01*
X-334772Y285021D01*
X-334596Y285119D01*
X-334421Y285236D01*
X-334245Y285372D01*
X-334070Y285548D01*
X-333914Y285782D01*
X-333777Y286055D01*
X-333660Y286367D01*
X-333563Y286718D01*
X-333504Y287147D01*
X-333485Y287635D01*
Y287655D01*
Y287694D01*
Y287772D01*
Y287889D01*
X-333504Y288006D01*
Y288162D01*
X-333543Y288474D01*
X-333602Y288845D01*
X-333680Y289196D01*
X-333797Y289527D01*
X-333875Y289683D01*
X-333953Y289820D01*
X-333972Y289839D01*
X-334031Y289918D01*
X-334148Y290035D01*
X-334304Y290152D01*
X-334499Y290269D01*
X-334733Y290386D01*
X-335026Y290464D01*
X-335357Y290483D01*
D02*
G37*
G36*
X161924Y729507D02*
X161561Y729468D01*
X161101Y729374D01*
X160545Y729224D01*
X159860Y729000D01*
X159065Y728670D01*
X158629Y728461D01*
X158179Y728201D01*
X157986Y728090D01*
X157954Y728072D01*
X157793Y727979D01*
X157619Y727835D01*
X157348Y727636D01*
X157045Y727418D01*
X156697Y727132D01*
X156367Y726812D01*
X156055Y726461D01*
X155730Y726059D01*
X155456Y725644D01*
X155219Y725164D01*
X155064Y724689D01*
X154979Y724169D01*
X155028Y723640D01*
X155159Y723115D01*
X155410Y722532D01*
X156412Y720797D01*
X156431Y720764D01*
X156486Y720668D01*
X156611Y720526D01*
X156755Y720352D01*
X156949Y720164D01*
X157194Y719962D01*
X157489Y719747D01*
X157849Y719569D01*
X158222Y719442D01*
X158679Y719320D01*
X159181Y719267D01*
X159728Y719283D01*
X160322Y719369D01*
X160993Y719542D01*
X161723Y719835D01*
X162513Y720248D01*
X162706Y720360D01*
X162738Y720378D01*
X162803Y720415D01*
X162931Y720490D01*
X163124Y720601D01*
X163298Y720744D01*
X163523Y720874D01*
X164032Y721254D01*
X164555Y721684D01*
X165060Y722147D01*
X165527Y722674D01*
X165677Y722932D01*
X165828Y723191D01*
X165874Y723260D01*
X165947Y723430D01*
X165996Y723716D01*
X166073Y724103D01*
X166080Y724536D01*
X166050Y725033D01*
X165900Y725589D01*
X165617Y726154D01*
X164652Y727825D01*
X164634Y727857D01*
X164615Y727889D01*
X164472Y728064D01*
X164291Y728302D01*
X164023Y728619D01*
X163639Y728912D01*
X163224Y729186D01*
X162763Y729391D01*
X162191Y729490D01*
X162108Y729485D01*
X161924Y729507D01*
D02*
G37*
G36*
X140679Y769347D02*
X138590Y768141D01*
X141485Y763128D01*
X141504Y763095D01*
X141541Y763031D01*
X141684Y762857D01*
X141910Y762688D01*
X142201Y762555D01*
X142284Y762560D01*
X142487Y762506D01*
X142799Y762558D01*
X143139Y762711D01*
X143172Y762730D01*
X143204Y762748D01*
X143346Y762873D01*
X143515Y763100D01*
X143679Y763409D01*
X143707Y763510D01*
X143729Y763694D01*
X143695Y763975D01*
X143593Y764301D01*
X140679Y769347D01*
D02*
G37*
G36*
X-425774Y275483D02*
X-428115D01*
Y269885D01*
X-425736D01*
X-425619Y269904D01*
X-425462Y269924D01*
X-425248Y269963D01*
X-425014Y270041D01*
X-424780Y270158D01*
X-424565Y270333D01*
X-424370Y270548D01*
X-424351Y270587D01*
X-424292Y270684D01*
X-424214Y270840D01*
X-424136Y271075D01*
X-424058Y271367D01*
X-423980Y271738D01*
X-423921Y272187D01*
X-423902Y272440D01*
Y272713D01*
Y272752D01*
Y272830D01*
X-423921Y272967D01*
Y273142D01*
X-423960Y273357D01*
X-423999Y273591D01*
X-424058Y273845D01*
X-424136Y274098D01*
X-424234Y274352D01*
X-424351Y274605D01*
X-424507Y274839D01*
X-424682Y275054D01*
X-424897Y275230D01*
X-425150Y275366D01*
X-425443Y275444D01*
X-425774Y275483D01*
D02*
G37*
G36*
X-382463Y320583D02*
X-384355D01*
X-384511Y320544D01*
X-384726Y320505D01*
X-384960Y320427D01*
X-385194Y320310D01*
X-385409Y320135D01*
X-385604Y319920D01*
X-385623Y319881D01*
X-385682Y319803D01*
X-385760Y319627D01*
X-385838Y319393D01*
X-385916Y319101D01*
X-385994Y318710D01*
X-386033Y318496D01*
X-386052Y318262D01*
X-386072Y318008D01*
Y317735D01*
Y317696D01*
Y317618D01*
X-386052Y317481D01*
X-386033Y317306D01*
X-386013Y317091D01*
X-385974Y316857D01*
X-385916Y316623D01*
X-385838Y316370D01*
X-385740Y316096D01*
X-385623Y315862D01*
X-385467Y315628D01*
X-385292Y315414D01*
X-385077Y315238D01*
X-384823Y315102D01*
X-384550Y315024D01*
X-384219Y314985D01*
X-382385D01*
X-382287Y315004D01*
X-382170Y315024D01*
X-382034Y315063D01*
X-381878Y315121D01*
X-381702Y315219D01*
X-381527Y315336D01*
X-381351Y315472D01*
X-381176Y315648D01*
X-381020Y315882D01*
X-380883Y316155D01*
X-380766Y316467D01*
X-380668Y316818D01*
X-380610Y317247D01*
X-380590Y317735D01*
Y317755D01*
Y317794D01*
Y317872D01*
Y317989D01*
X-380610Y318106D01*
Y318262D01*
X-380649Y318574D01*
X-380707Y318945D01*
X-380785Y319296D01*
X-380902Y319627D01*
X-380980Y319783D01*
X-381059Y319920D01*
X-381078Y319939D01*
X-381137Y320018D01*
X-381254Y320135D01*
X-381410Y320252D01*
X-381605Y320369D01*
X-381839Y320486D01*
X-382131Y320564D01*
X-382463Y320583D01*
D02*
G37*
G36*
X133673Y765302D02*
X131456Y764022D01*
X134351Y759008D01*
X134369Y758976D01*
X134388Y758944D01*
X134531Y758770D01*
X134550Y758738D01*
X134651Y758710D01*
X134909Y758560D01*
X134960Y758546D01*
X135080Y758487D01*
X135232Y758446D01*
X135449Y758443D01*
X135499Y758429D01*
X135646Y758471D01*
X135858Y758550D01*
X136101Y758648D01*
X136133Y758666D01*
X136166Y758685D01*
X136340Y758829D01*
X136509Y759055D01*
X136673Y759364D01*
X136700Y759465D01*
X136723Y759650D01*
X136689Y759930D01*
X136587Y760256D01*
X133673Y765302D01*
D02*
G37*
%LPD*%
D10*
X-314007Y354608D02*
G03*
X-224039Y355418I44454J59371D01*
G01*
X-223246Y392512D02*
G03*
X-315568Y393541I-46808J-57533D01*
G01*
X-185154Y375579D02*
G03*
X-185123Y374548I-23100J-1198D01*
G01*
X-304354Y374779D02*
G03*
X-304323Y373748I-23100J-1198D01*
G01*
X-245754Y374979D02*
G03*
X-245723Y373948I-23944J-1223D01*
G01*
X-239090Y330298D02*
G03*
X-239829Y418766I17572J44384D01*
G01*
X-239212Y330098D02*
G03*
X-239654Y418344I8701J44168D01*
G01*
X-301194Y418680D02*
G03*
X-297451Y328816I-14124J-45599D01*
G01*
X-299936Y418314D02*
G03*
X-298436Y329273I-5874J-44632D01*
G01*
X-221732Y394635D02*
G03*
X-317335Y395147I-47895J-17230D01*
G01*
X-316612Y351639D02*
G03*
X-221446Y354946I46958J19641D01*
G01*
X-248700Y283200D02*
G03*
X-248700Y283200I-10160J0D01*
G01*
X-124400D02*
G03*
X-124400Y283200I-10160J0D01*
G01*
X2400Y285100D02*
G03*
X2400Y285100I-10160J0D01*
G01*
X180185Y53400D02*
G03*
X180185Y53400I-13892J0D01*
G01*
X130185D02*
G03*
X130185Y53400I-13892J0D01*
G01*
X-231700Y248200D02*
X-215700D01*
Y316630D01*
X-304700Y248200D02*
Y316630D01*
Y248200D02*
X-231590D01*
X-304700Y316630D02*
X-215700D01*
X75600Y2682D02*
Y164480D01*
X-50130Y2682D02*
Y164480D01*
Y2682D02*
X75600D01*
X-50130Y164480D02*
X75600D01*
X-50130Y31638D02*
X75600D01*
X-107400Y248200D02*
X-91400D01*
Y316630D01*
X-180400Y248200D02*
Y316630D01*
Y248200D02*
X-107290D01*
X-180400Y316630D02*
X-91400D01*
X19400Y250100D02*
X35400D01*
Y318530D01*
X-53600Y250100D02*
Y318530D01*
Y250100D02*
X19510D01*
X-53600Y318530D02*
X35400D01*
X86400Y103400D02*
X196400D01*
X86400Y3400D02*
Y103400D01*
X196400Y3400D02*
Y103400D01*
X86400Y3400D02*
X196400D01*
X86400Y13400D02*
X196400D01*
X142400Y3400D02*
Y13400D01*
X-217600Y13300D02*
X-232835D01*
Y20918D01*
X-230296Y23457D01*
X-225217D01*
X-222678Y20918D01*
Y13300D01*
X-230296Y38692D02*
X-232835Y36153D01*
Y31074D01*
X-230296Y28535D01*
X-220139D01*
X-217600Y31074D01*
Y36153D01*
X-220139Y38692D01*
X-225217D01*
Y33613D01*
X-232835Y53927D02*
Y43770D01*
X-217600D01*
Y53927D01*
X-225217Y43770D02*
Y48849D01*
X211657Y21335D02*
X206578D01*
X209118D01*
Y8639D01*
X206578Y6100D01*
X204039D01*
X201500Y8639D01*
X226892Y6100D02*
X216735D01*
X226892Y16257D01*
Y18796D01*
X224353Y21335D01*
X219274D01*
X216735Y18796D01*
X231970Y3561D02*
X242127D01*
X257362Y21335D02*
X247205D01*
Y13717D01*
X252284Y16257D01*
X254823D01*
X257362Y13717D01*
Y8639D01*
X254823Y6100D01*
X249744D01*
X247205Y8639D01*
X262440Y21335D02*
Y11178D01*
X267519Y6100D01*
X272597Y11178D01*
Y21335D01*
X-30943Y188635D02*
X-36022D01*
X-33482D01*
Y175939D01*
X-36022Y173400D01*
X-38561D01*
X-41100Y175939D01*
X-25865Y186096D02*
X-23326Y188635D01*
X-18247D01*
X-15708Y186096D01*
Y183557D01*
X-18247Y181017D01*
X-20787D01*
X-18247D01*
X-15708Y178478D01*
Y175939D01*
X-18247Y173400D01*
X-23326D01*
X-25865Y175939D01*
X-10630Y170861D02*
X-473D01*
X4605Y186096D02*
X7144Y188635D01*
X12223D01*
X14762Y186096D01*
Y183557D01*
X12223Y181017D01*
X9683D01*
X12223D01*
X14762Y178478D01*
Y175939D01*
X12223Y173400D01*
X7144D01*
X4605Y175939D01*
X19840Y173400D02*
Y175939D01*
X22380D01*
Y173400D01*
X19840D01*
X42693Y188635D02*
X37615Y186096D01*
X32536Y181017D01*
Y175939D01*
X35075Y173400D01*
X40154D01*
X42693Y175939D01*
Y178478D01*
X40154Y181017D01*
X32536D01*
X47771Y188635D02*
Y178478D01*
X52850Y173400D01*
X57928Y178478D01*
Y188635D01*
X73600Y355335D02*
Y340100D01*
X83757D01*
X98992Y355335D02*
X88835D01*
Y340100D01*
X98992D01*
X88835Y347718D02*
X93913D01*
X104070Y355335D02*
Y340100D01*
X111688D01*
X114227Y342639D01*
Y352796D01*
X111688Y355335D01*
X104070D01*
X119305Y340100D02*
X124384D01*
X121844D01*
Y355335D01*
X119305Y352796D01*
X73100Y323035D02*
Y307800D01*
X83257D01*
X98492Y323035D02*
X88335D01*
Y307800D01*
X98492D01*
X88335Y315418D02*
X93413D01*
X103570Y323035D02*
Y307800D01*
X111188D01*
X113727Y310339D01*
Y320496D01*
X111188Y323035D01*
X103570D01*
X128962Y307800D02*
X118805D01*
X128962Y317957D01*
Y320496D01*
X126423Y323035D01*
X121344D01*
X118805Y320496D01*
X73400Y289835D02*
Y274600D01*
X83557D01*
X98792Y289835D02*
X88635D01*
Y274600D01*
X98792D01*
X88635Y282218D02*
X93713D01*
X103870Y289835D02*
Y274600D01*
X111488D01*
X114027Y277139D01*
Y287296D01*
X111488Y289835D01*
X103870D01*
X119105Y287296D02*
X121644Y289835D01*
X126723D01*
X129262Y287296D01*
Y284757D01*
X126723Y282218D01*
X124184D01*
X126723D01*
X129262Y279678D01*
Y277139D01*
X126723Y274600D01*
X121644D01*
X119105Y277139D01*
X134157Y161135D02*
X124000D01*
Y153518D01*
X129078Y156057D01*
X131617D01*
X134157Y153518D01*
Y148439D01*
X131617Y145900D01*
X126539D01*
X124000Y148439D01*
X139235Y161135D02*
Y150978D01*
X144313Y145900D01*
X149392Y150978D01*
Y161135D01*
X113957Y130896D02*
X111418Y133435D01*
X106339D01*
X103800Y130896D01*
Y120739D01*
X106339Y118200D01*
X111418D01*
X113957Y120739D01*
Y125818D01*
X108878D01*
X129192Y133435D02*
X119035D01*
Y118200D01*
X129192D01*
X119035Y125818D02*
X124113D01*
X134270Y118200D02*
Y133435D01*
X144427Y118200D01*
Y133435D01*
X149505Y118200D02*
Y120739D01*
X152044D01*
Y118200D01*
X149505D01*
X-46600Y691300D02*
X-57373Y702073D01*
X-50191D01*
X-50191Y709255D01*
X-39418Y698482D01*
X-35827Y702073D02*
X-46600Y712846D01*
X-41214Y718232D01*
X-37623D01*
X-34032Y714641D01*
Y711050D01*
X-39418Y705664D01*
X-35827Y709255D02*
X-28645D01*
Y730800D02*
X-35827Y723618D01*
X-30441Y718232D01*
X-26850Y721823D01*
X-30441Y718232D01*
X-25054Y712846D01*
X-7100Y730800D02*
X-14282Y723618D01*
Y737982D01*
X-16077Y739778D01*
X-19668D01*
X-23259Y736187D01*
Y732596D01*
X1878Y739778D02*
X-8895Y750551D01*
Y739778D01*
X-1713Y746960D01*
X3673Y763119D02*
X82Y759528D01*
X1878Y761323D01*
X10855Y752346D01*
Y748755D01*
X9060Y746960D01*
X5469D01*
X23423Y761323D02*
X12651Y772096D01*
Y761323D01*
X19832Y768505D01*
Y775687D02*
Y779278D01*
X23423Y782869D01*
X27014D01*
X34196Y775687D01*
Y772096D01*
X30605Y768505D01*
X27014D01*
X19832Y775687D01*
X39583Y777483D02*
X28810Y788255D01*
X35992D01*
X35992Y795437D01*
X46764Y784665D01*
X50355Y788255D02*
X43173Y795437D01*
Y802619D01*
X50355Y802619D01*
X57537Y795437D01*
X52151Y800824D01*
X44969Y793642D01*
X-107543Y335696D02*
X-110083Y338235D01*
X-115161D01*
X-117700Y335696D01*
Y333157D01*
X-115161Y330617D01*
X-110083D01*
X-107543Y328078D01*
Y325539D01*
X-110083Y323000D01*
X-115161D01*
X-117700Y325539D01*
X-92308Y323000D02*
X-102465D01*
X-92308Y333157D01*
Y335696D01*
X-94847Y338235D01*
X-99926D01*
X-102465Y335696D01*
X19257Y337696D02*
X16717Y340235D01*
X11639D01*
X9100Y337696D01*
Y335157D01*
X11639Y332617D01*
X16717D01*
X19257Y330078D01*
Y327539D01*
X16717Y325000D01*
X11639D01*
X9100Y327539D01*
X24335Y337696D02*
X26874Y340235D01*
X31953D01*
X34492Y337696D01*
Y335157D01*
X31953Y332617D01*
X29413D01*
X31953D01*
X34492Y330078D01*
Y327539D01*
X31953Y325000D01*
X26874D01*
X24335Y327539D01*
X337396Y316343D02*
X339935Y318883D01*
Y323961D01*
X337396Y326500D01*
X334857D01*
X332318Y323961D01*
Y318883D01*
X329778Y316343D01*
X327239D01*
X324700Y318883D01*
Y323961D01*
X327239Y326500D01*
X339935Y311265D02*
X324700D01*
X329778Y306187D01*
X324700Y301108D01*
X339935D01*
X324700Y296030D02*
Y290951D01*
Y293491D01*
X339935D01*
X337396Y296030D01*
X-96600Y517035D02*
Y504339D01*
X-94061Y501800D01*
X-88982D01*
X-86443Y504339D01*
Y517035D01*
X-81365Y501800D02*
X-76287D01*
X-78826D01*
Y517035D01*
X-81365Y514496D01*
X32300Y450035D02*
Y447496D01*
X37378Y442418D01*
X42457Y447496D01*
Y450035D01*
X37378Y442418D02*
Y434800D01*
X47535D02*
X52613D01*
X50074D01*
Y450035D01*
X47535Y447496D01*
X-82600Y424335D02*
Y421796D01*
X-77522Y416717D01*
X-72443Y421796D01*
Y424335D01*
X-77522Y416717D02*
Y409100D01*
X-57208D02*
X-67365D01*
X-57208Y419257D01*
Y421796D01*
X-59747Y424335D01*
X-64826D01*
X-67365Y421796D01*
X239700Y424835D02*
Y409600D01*
Y417217D01*
X242239Y419757D01*
X247318D01*
X249857Y417217D01*
Y409600D01*
X265092Y424835D02*
Y409600D01*
X257474D01*
X254935Y412139D01*
Y417217D01*
X257474Y419757D01*
X265092D01*
X277788Y409600D02*
Y424835D01*
X270170Y417217D01*
X280327D01*
X285405Y422296D02*
X287944Y424835D01*
X293023D01*
X295562Y422296D01*
Y412139D01*
X293023Y409600D01*
X287944D01*
X285405Y412139D01*
Y422296D01*
D18*
X-185683Y700497D02*
X-170100Y691500D01*
X-164102Y701889D01*
X-168091Y724970D02*
X-172188Y723872D01*
X-175187Y718678D01*
X-174089Y714581D01*
X-171492Y713082D01*
X-167395Y714179D01*
X-164396Y719374D01*
X-160299Y720471D01*
X-157702Y718972D01*
X-156604Y714875D01*
X-159603Y709681D01*
X-163700Y708583D01*
X-167689Y731664D02*
X-164690Y736858D01*
X-166190Y734261D01*
X-150606Y725264D01*
X-152106Y722667D01*
X-149107Y727861D01*
X-157483Y752097D02*
X-141900Y743100D01*
X-137402Y750892D01*
X-138499Y754988D01*
X-148888Y760986D01*
X-152985Y759889D01*
X-157483Y752097D01*
X-148486Y767681D02*
X-145487Y772875D01*
X-146987Y770278D01*
X-131403Y761281D01*
X-132903Y758683D01*
X-129904Y763878D01*
X-134991Y791056D02*
X-140989Y780667D01*
X-125405Y771670D01*
X-119407Y782058D01*
X-133197Y776168D02*
X-130198Y781363D01*
D19*
X11252Y450021D02*
G03*
X-12193Y449859I-11652J-10221D01*
G01*
X-12093Y429741D02*
G03*
X11352Y429579I11793J10059D01*
G01*
X-301384Y446950D02*
X-170484Y673675D01*
X-325936Y461125D02*
X-301384Y446950D01*
X-325936Y461125D02*
X-195036Y687850D01*
X-170484Y673675D01*
X-299652Y445950D02*
X-168752Y672675D01*
X-144200Y658500D01*
X-275100Y431774D02*
X-144200Y658500D01*
X-299652Y445950D02*
X-275100Y431774D01*
X167952Y672675D02*
X298852Y445950D01*
X274300Y431775D02*
X298852Y445950D01*
X143400Y658500D02*
X274300Y431775D01*
X143400Y658500D02*
X167952Y672675D01*
X169634Y673762D02*
X300534Y447036D01*
X169634Y673762D02*
X194186Y687937D01*
X325086Y461211D01*
X300534Y447036D02*
X325086Y461211D01*
X-73600Y678380D02*
X77600D01*
X-79000Y373800D02*
Y402300D01*
X78000D01*
Y373800D02*
Y402300D01*
X18750Y373800D02*
X78000D01*
X-79000D02*
X31250Y373800D01*
X2400Y623446D02*
X76646Y549200D01*
X-71846D02*
X2400Y474954D01*
X76646Y549200D01*
X-71846D02*
X2400Y623446D01*
X205200Y306250D02*
Y322300D01*
X205200Y293350D02*
X308400D01*
X279900Y322500D02*
X308400D01*
X205200Y306250D02*
X205200Y293350D01*
X205400Y322500D02*
X279900Y322500D01*
X205200Y322300D02*
X205400Y322500D01*
X308400Y302138D02*
Y313713D01*
Y293350D02*
Y302138D01*
Y313713D02*
Y322500D01*
X250819Y115639D02*
X326419Y246581D01*
X-326819Y247682D02*
X-251219Y116739D01*
X228500Y25100D02*
Y101300D01*
X203100D02*
X228500D01*
X203100Y25100D02*
Y101300D01*
Y25100D02*
X228500D01*
X233300Y28500D02*
X239298D01*
X241297Y30499D01*
X239298Y32499D01*
X235299D01*
X233300Y34498D01*
X235299Y36497D01*
X241297D01*
X245296D02*
Y30499D01*
X247295Y28500D01*
X249295Y30499D01*
X251294Y28500D01*
X253293Y30499D01*
Y36497D01*
X257292Y26501D02*
X265290D01*
X269288Y40496D02*
Y32499D01*
X273287Y28500D01*
X277286Y32499D01*
Y40496D01*
X281285Y28500D02*
Y40496D01*
X287283D01*
X289282Y38497D01*
Y34498D01*
X287283Y32499D01*
X281285D01*
X285283D02*
X289282Y28500D01*
X299279D02*
X295280D01*
X293281Y30499D01*
Y34498D01*
X295280Y36497D01*
X299279D01*
X301278Y34498D01*
Y32499D01*
X293281D01*
X309275Y24501D02*
X311275D01*
X313274Y26501D01*
Y36497D01*
X307276D01*
X305277Y34498D01*
Y30499D01*
X307276Y28500D01*
X313274D01*
X163000Y8098D02*
X172997D01*
X167998Y13096D02*
Y3099D01*
X108100Y8497D02*
X121429D01*
X237198Y79997D02*
X233866D01*
X232200Y78331D01*
Y71666D01*
X233866Y70000D01*
X237198D01*
X238864Y71666D01*
Y78331D01*
X237198Y79997D01*
X242197Y70000D02*
Y79997D01*
X248861Y70000D01*
Y79997D01*
X237198Y55797D02*
X233866D01*
X232200Y54131D01*
Y47466D01*
X233866Y45800D01*
X237198D01*
X238864Y47466D01*
Y54131D01*
X237198Y55797D01*
X248861D02*
X242197D01*
Y50798D01*
X245529D01*
X242197D01*
Y45800D01*
X258858Y55797D02*
X252194D01*
Y50798D01*
X255526D01*
X252194D01*
Y45800D01*
D22*
X266100Y368494D02*
Y348500D01*
X276097D01*
X279429Y351832D01*
Y355164D01*
X276097Y358497D01*
X266100D01*
X276097D01*
X279429Y361829D01*
Y365161D01*
X276097Y368494D01*
X266100D01*
X286094Y348500D02*
Y361829D01*
X292758Y368494D01*
X299423Y361829D01*
Y348500D01*
Y358497D01*
X286094D01*
X306087Y368494D02*
X319416D01*
X312752D01*
Y348500D01*
X215429Y368994D02*
X202100D01*
Y358997D01*
X208764Y362329D01*
X212097D01*
X215429Y358997D01*
Y352332D01*
X212097Y349000D01*
X205432D01*
X202100Y352332D01*
X222094Y368994D02*
Y355664D01*
X228758Y349000D01*
X235423Y355664D01*
Y368994D01*
X-155894Y734899D02*
X-151896Y741825D01*
D54*
X-100000Y834400D02*
G03*
X-100000Y834400I-1250J0D01*
G01*
X88644Y556837D02*
G03*
X88644Y556837I-1250J0D01*
G01*
X476611Y192517D02*
G03*
X476611Y192517I-1250J0D01*
G01*
X-371261Y14783D02*
G03*
X-371261Y14783I-1250J0D01*
G01*
X-253000Y229500D02*
Y242996D01*
X-246252D01*
X-244003Y240746D01*
Y236248D01*
X-246252Y233999D01*
X-253000D01*
X-248501D02*
X-244003Y229500D01*
X-230507Y240746D02*
X-232757Y242996D01*
X-237255D01*
X-239504Y240746D01*
Y238497D01*
X-237255Y236248D01*
X-232757D01*
X-230507Y233999D01*
Y231749D01*
X-232757Y229500D01*
X-237255D01*
X-239504Y231749D01*
X-226009Y242996D02*
X-217012D01*
X-221510D01*
Y229500D01*
X325787Y423309D02*
X321288Y431101D01*
X317192Y432199D01*
X311997Y429199D01*
X310900Y425103D01*
X315398Y417311D01*
X319897Y409519D02*
X322896Y404325D01*
X326992Y403227D01*
X332187Y406226D01*
X333285Y410323D01*
X330285Y415517D01*
X326189Y416615D01*
X320994Y413616D01*
X319897Y409519D01*
X325199Y388340D02*
X326698Y385742D01*
X330795Y384645D01*
X343781Y392142D01*
X339283Y399934D01*
X335186Y401032D01*
X329991Y398033D01*
X328894Y393936D01*
X333392Y386144D01*
X336391Y380950D02*
X346780Y386948D01*
X351279Y379156D01*
X350181Y375059D01*
X342389Y370561D01*
X345388Y365366D02*
X348387Y360172D01*
X346888Y362769D01*
X357277Y368767D01*
X355777Y371364D01*
X367372Y357281D02*
X364774Y355781D01*
X363275Y358378D01*
X366274Y353184D01*
X364774Y355781D01*
X356983Y351283D01*
X355885Y347186D01*
X360383Y339394D02*
X363382Y334199D01*
X361883Y336797D01*
X372272Y342795D01*
X370772Y345392D01*
X378270Y332406D02*
X370880Y321213D01*
X384268Y322017D01*
X381377Y303033D02*
X378378Y308227D01*
X379475Y312324D01*
X384670Y315323D01*
X388767Y314225D01*
X391766Y309031D01*
X390668Y304934D01*
X388071Y303435D01*
X382073Y313824D01*
D55*
X65504Y549200D02*
G03*
X65504Y549200I-3000J0D01*
G01*
D56*
X-195690Y2580D02*
X-63610D01*
X-195690D02*
Y175300D01*
X-63610D01*
Y2580D02*
Y175300D01*
D57*
X-377400Y52800D02*
X-388022Y55646D01*
X-383532Y58238D01*
X-386124Y62727D01*
X-375503Y59881D01*
X-374554Y63422D02*
X-385176Y66268D01*
X-383753Y71579D01*
X-381508Y72875D01*
X-377967Y71926D01*
X-376671Y69681D01*
X-378094Y64370D01*
X-377146Y67911D02*
X-372657Y70503D01*
X-380432Y83971D02*
X-382330Y76890D01*
X-377019Y75467D01*
X-376070Y79007D01*
X-377019Y75467D01*
X-371708Y74043D01*
X-367439Y89976D02*
X-378060Y92822D01*
X-374173Y86088D01*
X-372275Y93169D01*
X-367786Y95761D02*
X-365541Y97057D01*
X-364593Y100598D01*
X-365888Y102843D01*
X-372970Y104740D01*
X-375214Y103444D01*
X-376163Y99903D01*
X-374867Y97659D01*
X-373097Y97184D01*
X-370852Y98480D01*
X-369429Y103791D01*
X-373791Y108755D02*
X-361272Y112990D01*
X-371894Y115836D02*
X-363170Y105909D01*
X-360323Y116531D02*
X-367405Y118428D01*
X-369996Y122917D01*
X-365507Y125509D01*
X-358426Y123612D01*
X-363737Y125035D01*
X-365634Y117954D01*
X-357477Y127152D02*
X-364559Y129050D01*
X-364084Y130820D01*
X-361840Y132116D01*
X-356529Y130693D01*
X-361840Y132116D01*
X-363135Y134361D01*
X-360891Y135656D01*
X-355580Y134234D01*
X-365253Y140620D02*
X-354631Y137774D01*
X-353208Y143085D01*
X-354504Y145330D01*
X-356274Y145804D01*
X-358045Y146278D01*
X-360289Y144982D01*
X-361712Y139671D01*
X-351311Y150166D02*
X-350362Y153707D01*
X-351658Y155951D01*
X-355199Y156900D01*
X-357443Y155604D01*
X-358392Y152064D01*
X-357096Y149819D01*
X-353555Y148870D01*
X-351311Y150166D01*
X-355546Y162685D02*
X-354597Y166226D01*
X-352353Y167522D01*
X-347042Y166099D01*
X-348465Y160788D01*
X-350709Y159492D01*
X-352005Y161737D01*
X-350582Y167047D01*
X-353174Y171537D02*
X-346093Y169639D01*
X-349634Y170588D01*
X-350929Y172833D01*
X-352225Y175077D01*
X-351751Y176848D01*
X-351971Y190188D02*
X-341349Y187342D01*
X-342773Y182031D01*
X-345017Y180735D01*
X-348558Y181684D01*
X-349854Y183929D01*
X-348431Y189240D01*
X-338630Y190408D02*
X-336733Y197490D01*
X-346406Y203876D02*
X-347702Y206121D01*
X-346754Y209662D01*
X-344509Y210958D01*
X-342738Y210483D01*
X-341443Y208239D01*
X-339198Y209534D01*
X-337428Y209060D01*
X-336132Y206815D01*
X-337080Y203275D01*
X-339325Y201979D01*
X-341095Y202453D01*
X-342391Y204698D01*
X-344636Y203402D01*
X-346406Y203876D01*
X-342391Y204698D02*
X-341443Y208239D01*
X-343433Y222054D02*
X-342611Y218039D01*
X-340019Y213549D01*
X-336479Y212601D01*
X-334234Y213897D01*
X-333286Y217437D01*
X-334582Y219682D01*
X-336352Y220156D01*
X-338596Y218860D01*
X-340019Y213549D01*
X-340714Y225120D02*
X-342010Y227364D01*
X-341061Y230905D01*
X-338817Y232201D01*
X-337046Y231727D01*
X-335750Y229482D01*
X-333506Y230778D01*
X-331735Y230304D01*
X-330439Y228059D01*
X-331388Y224518D01*
X-333633Y223222D01*
X-335403Y223697D01*
X-336699Y225941D01*
X-338944Y224645D01*
X-340714Y225120D01*
X-336699Y225941D02*
X-335750Y229482D01*
X-140100Y664548D02*
X-138850Y665798D01*
X-136351D01*
X-135102Y664548D01*
Y659550D01*
X-136351Y658300D01*
X-138850D01*
X-140100Y659550D01*
Y664548D01*
X-132602D02*
X-131353Y665798D01*
X-128854D01*
X-127604Y664548D01*
Y659550D01*
X-128854Y658300D01*
X-131353D01*
X-132602Y659550D01*
Y664548D01*
X-125105Y658300D02*
Y659550D01*
X-123855D01*
Y658300D01*
X-125105D01*
X-118857Y665798D02*
X-116358D01*
X-117607D01*
Y658300D01*
X-118857D01*
X-116358D01*
X-112609D02*
Y665798D01*
X-107610Y658300D01*
Y665798D01*
X-105111D02*
X-100113D01*
X-102612D01*
Y658300D01*
X-92615D02*
X-97614D01*
X-92615Y663298D01*
Y664548D01*
X-93865Y665798D01*
X-96364D01*
X-97614Y664548D01*
X-134700Y647000D02*
X-132201D01*
X-133450D01*
Y654498D01*
X-134700Y653248D01*
X-128452Y648250D02*
X-127202Y647000D01*
X-124703D01*
X-123454Y648250D01*
Y653248D01*
X-124703Y654498D01*
X-127202D01*
X-128452Y653248D01*
Y651998D01*
X-127202Y650749D01*
X-123454D01*
X-120954Y647000D02*
Y648250D01*
X-119705D01*
Y647000D01*
X-120954D01*
X-114706Y654498D02*
Y649499D01*
X-112207Y647000D01*
X-109708Y649499D01*
Y654498D01*
X-107209Y647000D02*
Y654498D01*
X-103460D01*
X-102210Y653248D01*
Y650749D01*
X-103460Y649499D01*
X-107209D01*
X-104710D02*
X-102210Y647000D01*
X-94713Y654498D02*
X-99711D01*
Y647000D01*
X-94713D01*
X-99711Y650749D02*
X-97212D01*
X-87215Y654498D02*
X-92214D01*
Y650749D01*
X-89714D01*
X-92214D01*
Y647000D01*
X-84716Y650749D02*
X-79718D01*
X-82217Y653248D02*
Y648250D01*
X-148300Y642348D02*
X-147050Y643598D01*
X-144551D01*
X-143302Y642348D01*
Y637350D01*
X-144551Y636100D01*
X-147050D01*
X-148300Y637350D01*
Y642348D01*
X-140802Y636100D02*
X-138303D01*
X-139553D01*
Y643598D01*
X-140802Y642348D01*
X-134554Y636100D02*
Y637350D01*
X-133305D01*
Y636100D01*
X-134554D01*
X-123308Y642348D02*
X-124558Y643598D01*
X-127057D01*
X-128306Y642348D01*
Y637350D01*
X-127057Y636100D01*
X-124558D01*
X-123308Y637350D01*
X-120809Y636100D02*
Y643598D01*
X-115810Y636100D01*
Y643598D01*
X-113311D02*
X-108313D01*
Y642348D01*
X-113311Y637350D01*
Y636100D01*
X-105814D02*
X-100815Y641098D01*
X-98316Y643598D02*
Y638599D01*
X-95817Y636100D01*
X-93318Y638599D01*
Y643598D01*
X-90818D02*
Y636100D01*
X-87070D01*
X-85820Y637350D01*
Y638599D01*
X-87070Y639849D01*
X-90818D01*
X-87070D01*
X-85820Y641098D01*
Y642348D01*
X-87070Y643598D01*
X-90818D01*
X-83321D02*
Y637350D01*
X-82071Y636100D01*
X-79572D01*
X-78322Y637350D01*
Y643598D01*
X-70825Y642348D02*
X-72074Y643598D01*
X-74574D01*
X-75823Y642348D01*
Y641098D01*
X-74574Y639849D01*
X-72074D01*
X-70825Y638599D01*
Y637350D01*
X-72074Y636100D01*
X-74574D01*
X-75823Y637350D01*
X-64577Y643598D02*
X-67076D01*
X-68326Y642348D01*
Y637350D01*
X-67076Y636100D01*
X-64577D01*
X-63327Y637350D01*
Y642348D01*
X-64577Y643598D01*
X-60828Y636100D02*
Y643598D01*
X-55830Y636100D01*
Y643598D01*
X-141500Y624400D02*
X-139001D01*
X-140250D01*
Y631898D01*
X-141500Y630648D01*
X-135252D02*
X-134002Y631898D01*
X-131503D01*
X-130254Y630648D01*
Y629398D01*
X-131503Y628149D01*
X-130254Y626899D01*
Y625650D01*
X-131503Y624400D01*
X-134002D01*
X-135252Y625650D01*
Y626899D01*
X-134002Y628149D01*
X-135252Y629398D01*
Y630648D01*
X-134002Y628149D02*
X-131503D01*
X-127754Y624400D02*
Y625650D01*
X-126505D01*
Y624400D01*
X-127754D01*
X-121506Y631898D02*
Y626899D01*
X-119007Y624400D01*
X-116508Y626899D01*
Y631898D01*
X-114009Y624400D02*
Y631898D01*
X-110260D01*
X-109010Y630648D01*
Y628149D01*
X-110260Y626899D01*
X-114009D01*
X-111510D02*
X-109010Y624400D01*
X-101513Y631898D02*
X-106511D01*
Y624400D01*
X-101513D01*
X-106511Y628149D02*
X-104012D01*
X-94015Y631898D02*
X-99014D01*
Y628149D01*
X-96514D01*
X-99014D01*
Y624400D01*
X-91516Y628149D02*
X-86518D01*
X-159600Y619748D02*
X-158350Y620998D01*
X-155851D01*
X-154602Y619748D01*
Y614750D01*
X-155851Y613500D01*
X-158350D01*
X-159600Y614750D01*
Y619748D01*
X-147104Y613500D02*
X-152102D01*
X-147104Y618498D01*
Y619748D01*
X-148354Y620998D01*
X-150853D01*
X-152102Y619748D01*
X-144605Y613500D02*
Y614750D01*
X-143355D01*
Y613500D01*
X-144605D01*
X-133358Y619748D02*
X-134608Y620998D01*
X-137107D01*
X-138357Y619748D01*
Y614750D01*
X-137107Y613500D01*
X-134608D01*
X-133358Y614750D01*
X-130859Y613500D02*
Y620998D01*
X-125861Y613500D01*
Y620998D01*
X-118363D02*
X-123362D01*
Y617249D01*
X-120862Y618498D01*
X-119613D01*
X-118363Y617249D01*
Y614750D01*
X-119613Y613500D01*
X-122112D01*
X-123362Y614750D01*
X-151900Y602200D02*
X-149401D01*
X-150650D01*
Y609698D01*
X-151900Y608448D01*
X-145652Y609698D02*
X-140654D01*
Y608448D01*
X-145652Y603450D01*
Y602200D01*
X-138154D02*
Y603450D01*
X-136905D01*
Y602200D01*
X-138154D01*
X-131906D02*
Y607198D01*
X-129407Y609698D01*
X-126908Y607198D01*
Y602200D01*
Y605949D01*
X-131906D01*
X-124409Y602200D02*
Y609698D01*
X-119410Y602200D01*
Y609698D01*
X-116911Y602200D02*
X-114412D01*
X-115662D01*
Y609698D01*
X-116911Y608448D01*
X-106914Y602200D02*
Y609698D01*
X-110663Y605949D01*
X-105665D01*
X-103166Y602200D02*
X-98167Y607198D01*
X-95668Y602200D02*
Y609698D01*
X-91919D01*
X-90670Y608448D01*
Y605949D01*
X-91919Y604699D01*
X-95668D01*
X-93169D02*
X-90670Y602200D01*
X-88170Y609698D02*
Y602200D01*
X-84422D01*
X-83172Y603450D01*
Y604699D01*
X-84422Y605949D01*
X-88170D01*
X-84422D01*
X-83172Y607198D01*
Y608448D01*
X-84422Y609698D01*
X-88170D01*
X-80673Y602200D02*
X-78174D01*
X-79423D01*
Y609698D01*
X-80673Y608448D01*
X-70676Y602200D02*
Y609698D01*
X-74425Y605949D01*
X-69426D01*
X-174100Y596648D02*
X-172850Y597898D01*
X-170351D01*
X-169102Y596648D01*
Y591650D01*
X-170351Y590400D01*
X-172850D01*
X-174100Y591650D01*
Y596648D01*
X-166602D02*
X-165353Y597898D01*
X-162854D01*
X-161604Y596648D01*
Y595398D01*
X-162854Y594149D01*
X-164103D01*
X-162854D01*
X-161604Y592899D01*
Y591650D01*
X-162854Y590400D01*
X-165353D01*
X-166602Y591650D01*
X-159105Y590400D02*
Y591650D01*
X-157855D01*
Y590400D01*
X-159105D01*
X-147858Y597898D02*
X-152857D01*
Y590400D01*
X-147858D01*
X-152857Y594149D02*
X-150358D01*
X-145359Y597898D02*
X-140361D01*
X-142860D01*
Y590400D01*
X-137862Y589150D02*
X-132863D01*
X-125366Y597898D02*
X-130364D01*
Y590400D01*
X-125366D01*
X-130364Y594149D02*
X-127865D01*
X-122866Y590400D02*
Y597898D01*
X-119118D01*
X-117868Y596648D01*
Y594149D01*
X-119118Y592899D01*
X-122866D01*
X-120367D02*
X-117868Y590400D01*
X-115369Y597898D02*
X-110370Y590400D01*
Y597898D02*
X-115369Y590400D01*
X-102873Y597898D02*
X-107871D01*
Y590400D01*
X-102873D01*
X-107871Y594149D02*
X-105372D01*
X-100374Y590400D02*
Y597898D01*
X-96625D01*
X-95375Y596648D01*
Y594149D01*
X-96625Y592899D01*
X-100374D01*
X-97874D02*
X-95375Y590400D01*
X-92876D02*
Y597898D01*
X-89127D01*
X-87878Y596648D01*
Y594149D01*
X-89127Y592899D01*
X-92876D01*
X-90377D02*
X-87878Y590400D01*
X-168200Y580000D02*
X-165701D01*
X-166950D01*
Y587498D01*
X-168200Y586248D01*
X-156954Y587498D02*
X-159453Y586248D01*
X-161952Y583749D01*
Y581250D01*
X-160702Y580000D01*
X-158203D01*
X-156954Y581250D01*
Y582499D01*
X-158203Y583749D01*
X-161952D01*
X-154454Y580000D02*
Y581250D01*
X-153205D01*
Y580000D01*
X-154454D01*
X-148206D02*
Y584998D01*
X-145707Y587498D01*
X-143208Y584998D01*
Y580000D01*
Y583749D01*
X-148206D01*
X-140709Y580000D02*
Y587498D01*
X-135710Y580000D01*
Y587498D01*
X-133211Y580000D02*
X-130712D01*
X-131962D01*
Y587498D01*
X-133211Y586248D01*
X-121965Y587498D02*
X-126963D01*
Y583749D01*
X-124464Y584998D01*
X-123214D01*
X-121965Y583749D01*
Y581250D01*
X-123214Y580000D01*
X-125714D01*
X-126963Y581250D01*
X-119466Y580000D02*
X-114467Y584998D01*
X-111968Y580000D02*
Y587498D01*
X-108219D01*
X-106970Y586248D01*
Y583749D01*
X-108219Y582499D01*
X-111968D01*
X-109469D02*
X-106970Y580000D01*
X-104470Y587498D02*
Y580000D01*
X-100722D01*
X-99472Y581250D01*
Y582499D01*
X-100722Y583749D01*
X-104470D01*
X-100722D01*
X-99472Y584998D01*
Y586248D01*
X-100722Y587498D01*
X-104470D01*
X-96973Y580000D02*
X-94474D01*
X-95723D01*
Y587498D01*
X-96973Y586248D01*
X-85726Y587498D02*
X-90725D01*
Y583749D01*
X-88226Y584998D01*
X-86976D01*
X-85726Y583749D01*
Y581250D01*
X-86976Y580000D01*
X-89475D01*
X-90725Y581250D01*
X-185800Y574948D02*
X-184550Y576198D01*
X-182051D01*
X-180802Y574948D01*
Y569950D01*
X-182051Y568700D01*
X-184550D01*
X-185800Y569950D01*
Y574948D01*
X-174554Y568700D02*
Y576198D01*
X-178302Y572449D01*
X-173304D01*
X-170805Y568700D02*
Y569950D01*
X-169555D01*
Y568700D01*
X-170805D01*
X-159558Y576198D02*
X-164557D01*
Y568700D01*
X-159558D01*
X-164557Y572449D02*
X-162058D01*
X-157059Y576198D02*
X-152061D01*
X-154560D01*
Y568700D01*
X-149562Y567450D02*
X-144563D01*
X-137066Y576198D02*
X-142064D01*
Y568700D01*
X-137066D01*
X-142064Y572449D02*
X-139565D01*
X-134566Y568700D02*
Y576198D01*
X-130818D01*
X-129568Y574948D01*
Y572449D01*
X-130818Y571199D01*
X-134566D01*
X-132067D02*
X-129568Y568700D01*
X-127069Y576198D02*
X-122070Y568700D01*
Y576198D02*
X-127069Y568700D01*
X-119571Y576198D02*
Y568700D01*
X-115822D01*
X-114573Y569950D01*
Y574948D01*
X-115822Y576198D01*
X-119571D01*
X-112074Y574948D02*
X-110824Y576198D01*
X-108325D01*
X-107075Y574948D01*
Y569950D01*
X-108325Y568700D01*
X-110824D01*
X-112074Y569950D01*
Y574948D01*
X-180000Y556800D02*
X-177501D01*
X-178750D01*
Y564298D01*
X-180000Y563048D01*
X-168754Y564298D02*
X-173752D01*
Y560549D01*
X-171253Y561798D01*
X-170003D01*
X-168754Y560549D01*
Y558050D01*
X-170003Y556800D01*
X-172502D01*
X-173752Y558050D01*
X-166254Y556800D02*
Y558050D01*
X-165005D01*
Y556800D01*
X-166254D01*
X-155008Y563048D02*
X-156258Y564298D01*
X-158757D01*
X-160006Y563048D01*
Y558050D01*
X-158757Y556800D01*
X-156258D01*
X-155008Y558050D01*
Y560549D01*
X-157507D01*
X-152509Y556800D02*
Y564298D01*
X-147510Y556800D01*
Y564298D01*
X-145011D02*
Y556800D01*
X-141262D01*
X-140013Y558050D01*
Y563048D01*
X-141262Y564298D01*
X-145011D01*
X-209400Y531148D02*
X-208150Y532398D01*
X-205651D01*
X-204402Y531148D01*
Y526150D01*
X-205651Y524900D01*
X-208150D01*
X-209400Y526150D01*
Y531148D01*
X-196904Y532398D02*
X-199403Y531148D01*
X-201902Y528649D01*
Y526150D01*
X-200653Y524900D01*
X-198154D01*
X-196904Y526150D01*
Y527399D01*
X-198154Y528649D01*
X-201902D01*
X-194405Y524900D02*
Y526150D01*
X-193155D01*
Y524900D01*
X-194405D01*
X-188157Y532398D02*
Y526150D01*
X-186907Y524900D01*
X-184408D01*
X-183158Y526150D01*
Y532398D01*
X-175661Y531148D02*
X-176910Y532398D01*
X-179410D01*
X-180659Y531148D01*
Y529898D01*
X-179410Y528649D01*
X-176910D01*
X-175661Y527399D01*
Y526150D01*
X-176910Y524900D01*
X-179410D01*
X-180659Y526150D01*
X-173162Y532398D02*
Y524900D01*
X-169413D01*
X-168163Y526150D01*
Y527399D01*
X-169413Y528649D01*
X-173162D01*
X-169413D01*
X-168163Y529898D01*
Y531148D01*
X-169413Y532398D01*
X-173162D01*
X-165664Y523650D02*
X-160666D01*
X-158166Y532398D02*
X-155667D01*
X-156917D01*
Y524900D01*
X-158166D01*
X-155667D01*
X-151918Y532398D02*
Y524900D01*
X-148170D01*
X-146920Y526150D01*
Y531148D01*
X-148170Y532398D01*
X-151918D01*
X-221600Y509348D02*
X-220350Y510598D01*
X-217851D01*
X-216602Y509348D01*
Y504350D01*
X-217851Y503100D01*
X-220350D01*
X-221600Y504350D01*
Y509348D01*
X-214102Y510598D02*
X-209104D01*
Y509348D01*
X-214102Y504350D01*
Y503100D01*
X-206605D02*
Y504350D01*
X-205355D01*
Y503100D01*
X-206605D01*
X-200357Y510598D02*
Y505599D01*
X-197858Y503100D01*
X-195358Y505599D01*
Y510598D01*
X-192859D02*
Y503100D01*
X-189110D01*
X-187861Y504350D01*
Y505599D01*
X-189110Y506849D01*
X-192859D01*
X-189110D01*
X-187861Y508098D01*
Y509348D01*
X-189110Y510598D01*
X-192859D01*
X-185362D02*
Y504350D01*
X-184112Y503100D01*
X-181613D01*
X-180363Y504350D01*
Y510598D01*
X-172866Y509348D02*
X-174115Y510598D01*
X-176614D01*
X-177864Y509348D01*
Y508098D01*
X-176614Y506849D01*
X-174115D01*
X-172866Y505599D01*
Y504350D01*
X-174115Y503100D01*
X-176614D01*
X-177864Y504350D01*
X-236100Y484448D02*
X-234850Y485698D01*
X-232351D01*
X-231102Y484448D01*
Y479450D01*
X-232351Y478200D01*
X-234850D01*
X-236100Y479450D01*
Y484448D01*
X-228602D02*
X-227353Y485698D01*
X-224854D01*
X-223604Y484448D01*
Y483198D01*
X-224854Y481949D01*
X-223604Y480699D01*
Y479450D01*
X-224854Y478200D01*
X-227353D01*
X-228602Y479450D01*
Y480699D01*
X-227353Y481949D01*
X-228602Y483198D01*
Y484448D01*
X-227353Y481949D02*
X-224854D01*
X-221105Y478200D02*
Y479450D01*
X-219855D01*
Y478200D01*
X-221105D01*
X-214857D02*
Y483198D01*
X-211108D01*
X-209858Y481949D01*
Y478200D01*
X-207359D02*
Y485698D01*
X-204860Y483198D01*
X-202361Y485698D01*
Y478200D01*
X-194863Y484448D02*
X-196113Y485698D01*
X-198612D01*
X-199862Y484448D01*
Y479450D01*
X-198612Y478200D01*
X-196113D01*
X-194863Y479450D01*
X-192364Y485698D02*
Y478200D01*
X-187366D01*
X-184866D02*
Y485698D01*
X-181118D01*
X-179868Y484448D01*
Y481949D01*
X-181118Y480699D01*
X-184866D01*
X-182367D02*
X-179868Y478200D01*
X-249200Y461848D02*
X-247950Y463098D01*
X-245451D01*
X-244202Y461848D01*
Y456850D01*
X-245451Y455600D01*
X-247950D01*
X-249200Y456850D01*
Y461848D01*
X-241702Y456850D02*
X-240453Y455600D01*
X-237954D01*
X-236704Y456850D01*
Y461848D01*
X-237954Y463098D01*
X-240453D01*
X-241702Y461848D01*
Y460598D01*
X-240453Y459349D01*
X-236704D01*
X-234205Y455600D02*
Y456850D01*
X-232955D01*
Y455600D01*
X-234205D01*
X-222958Y463098D02*
X-227957D01*
Y455600D01*
X-222958D01*
X-227957Y459349D02*
X-225458D01*
X-220459Y463098D02*
X-215461D01*
X-217960D01*
Y455600D01*
X-212962Y454350D02*
X-207963D01*
X-200466Y463098D02*
X-205464D01*
Y455600D01*
X-200466D01*
X-205464Y459349D02*
X-202965D01*
X-197966Y455600D02*
Y463098D01*
X-195467Y460598D01*
X-192968Y463098D01*
Y455600D01*
X-190469Y463098D02*
Y455600D01*
X-186720D01*
X-185470Y456850D01*
Y461848D01*
X-186720Y463098D01*
X-190469D01*
X-182971D02*
X-180472D01*
X-181722D01*
Y455600D01*
X-182971D01*
X-180472D01*
X-172974Y463098D02*
X-175474D01*
X-176723Y461848D01*
Y456850D01*
X-175474Y455600D01*
X-172974D01*
X-171725Y456850D01*
Y461848D01*
X-172974Y463098D01*
X-169226Y455600D02*
X-164227Y460598D01*
X-161728Y463098D02*
X-159229D01*
X-160478D01*
Y455600D01*
X-161728D01*
X-159229D01*
X-150482Y461848D02*
X-151731Y463098D01*
X-154230D01*
X-155480Y461848D01*
Y456850D01*
X-154230Y455600D01*
X-151731D01*
X-150482Y456850D01*
X-147983Y455600D02*
X-145483D01*
X-146733D01*
Y463098D01*
X-147983Y461848D01*
X-192900Y535400D02*
X-190401D01*
X-191650D01*
Y542898D01*
X-192900Y541648D01*
X-182903Y535400D02*
Y542898D01*
X-186652Y539149D01*
X-181654D01*
X-179154Y535400D02*
Y536650D01*
X-177905D01*
Y535400D01*
X-179154D01*
X-172906Y542898D02*
Y537899D01*
X-170407Y535400D01*
X-167908Y537899D01*
Y542898D01*
X-160410Y541648D02*
X-161660Y542898D01*
X-164159D01*
X-165409Y541648D01*
Y536650D01*
X-164159Y535400D01*
X-161660D01*
X-160410Y536650D01*
X-152913Y541648D02*
X-154162Y542898D01*
X-156662D01*
X-157911Y541648D01*
Y536650D01*
X-156662Y535400D01*
X-154162D01*
X-152913Y536650D01*
X-203400Y513500D02*
X-200901D01*
X-202150D01*
Y520998D01*
X-203400Y519748D01*
X-197152D02*
X-195902Y520998D01*
X-193403D01*
X-192154Y519748D01*
Y518498D01*
X-193403Y517249D01*
X-194653D01*
X-193403D01*
X-192154Y515999D01*
Y514750D01*
X-193403Y513500D01*
X-195902D01*
X-197152Y514750D01*
X-189654Y513500D02*
Y514750D01*
X-188405D01*
Y513500D01*
X-189654D01*
X-183406Y520998D02*
Y514750D01*
X-182157Y513500D01*
X-179658D01*
X-178408Y514750D01*
Y520998D01*
X-170910Y519748D02*
X-172160Y520998D01*
X-174659D01*
X-175909Y519748D01*
Y518498D01*
X-174659Y517249D01*
X-172160D01*
X-170910Y515999D01*
Y514750D01*
X-172160Y513500D01*
X-174659D01*
X-175909Y514750D01*
X-168411Y520998D02*
Y513500D01*
X-164662D01*
X-163413Y514750D01*
Y515999D01*
X-164662Y517249D01*
X-168411D01*
X-164662D01*
X-163413Y518498D01*
Y519748D01*
X-164662Y520998D01*
X-168411D01*
X-160914Y512250D02*
X-155915D01*
X-153416Y520998D02*
Y513500D01*
X-149667D01*
X-148418Y514750D01*
Y519748D01*
X-149667Y520998D01*
X-153416D01*
X-145918Y517249D02*
X-140920D01*
X-218000Y490000D02*
X-215501D01*
X-216750D01*
Y497498D01*
X-218000Y496248D01*
X-206754Y490000D02*
X-211752D01*
X-206754Y494998D01*
Y496248D01*
X-208003Y497498D01*
X-210502D01*
X-211752Y496248D01*
X-204254Y490000D02*
Y491250D01*
X-203005D01*
Y490000D01*
X-204254D01*
X-198006Y497498D02*
Y491250D01*
X-196757Y490000D01*
X-194258D01*
X-193008Y491250D01*
Y497498D01*
X-185510Y496248D02*
X-186760Y497498D01*
X-189259D01*
X-190509Y496248D01*
Y494998D01*
X-189259Y493749D01*
X-186760D01*
X-185510Y492499D01*
Y491250D01*
X-186760Y490000D01*
X-189259D01*
X-190509Y491250D01*
X-183011Y497498D02*
Y490000D01*
X-179262D01*
X-178013Y491250D01*
Y492499D01*
X-179262Y493749D01*
X-183011D01*
X-179262D01*
X-178013Y494998D01*
Y496248D01*
X-179262Y497498D01*
X-183011D01*
X-175514Y488750D02*
X-170515D01*
X-168016Y497498D02*
Y490000D01*
X-164267D01*
X-163018Y491250D01*
Y496248D01*
X-164267Y497498D01*
X-168016D01*
X-160518Y493749D02*
X-155520D01*
X-158019Y496248D02*
Y491250D01*
X-227000Y466900D02*
X-224501D01*
X-225750D01*
Y474398D01*
X-227000Y473148D01*
X-220752Y466900D02*
X-218253D01*
X-219502D01*
Y474398D01*
X-220752Y473148D01*
X-214504Y466900D02*
Y468150D01*
X-213254D01*
Y466900D01*
X-214504D01*
X-208256Y474398D02*
X-205757D01*
X-207006D01*
Y466900D01*
X-208256D01*
X-205757D01*
X-197010D02*
X-202008D01*
X-197010Y471898D01*
Y473148D01*
X-198259Y474398D01*
X-200758D01*
X-202008Y473148D01*
X-189512D02*
X-190762Y474398D01*
X-193261D01*
X-194510Y473148D01*
Y468150D01*
X-193261Y466900D01*
X-190762D01*
X-189512Y468150D01*
X-182014Y466900D02*
X-187013D01*
X-182014Y471898D01*
Y473148D01*
X-183264Y474398D01*
X-185763D01*
X-187013Y473148D01*
X-179515Y465650D02*
X-174517D01*
X-167019Y473148D02*
X-168269Y474398D01*
X-170768D01*
X-172018Y473148D01*
Y471898D01*
X-170768Y470649D01*
X-168269D01*
X-167019Y469399D01*
Y468150D01*
X-168269Y466900D01*
X-170768D01*
X-172018Y468150D01*
X-159522Y473148D02*
X-160771Y474398D01*
X-163270D01*
X-164520Y473148D01*
Y468150D01*
X-163270Y466900D01*
X-160771D01*
X-159522Y468150D01*
X-157022Y474398D02*
Y466900D01*
X-152024D01*
X-239700Y442900D02*
X-237201D01*
X-238450D01*
Y450398D01*
X-239700Y449148D01*
X-233452D02*
X-232202Y450398D01*
X-229703D01*
X-228454Y449148D01*
Y444150D01*
X-229703Y442900D01*
X-232202D01*
X-233452Y444150D01*
Y449148D01*
X-225954Y442900D02*
Y444150D01*
X-224705D01*
Y442900D01*
X-225954D01*
X-219706Y450398D02*
X-217207D01*
X-218457D01*
Y442900D01*
X-219706D01*
X-217207D01*
X-208460D02*
X-213458D01*
X-208460Y447898D01*
Y449148D01*
X-209710Y450398D01*
X-212209D01*
X-213458Y449148D01*
X-200962D02*
X-202212Y450398D01*
X-204711D01*
X-205961Y449148D01*
Y444150D01*
X-204711Y442900D01*
X-202212D01*
X-200962Y444150D01*
X-193465Y442900D02*
X-198463D01*
X-193465Y447898D01*
Y449148D01*
X-194714Y450398D01*
X-197214D01*
X-198463Y449148D01*
X-190966Y441650D02*
X-185967D01*
X-178470Y449148D02*
X-179719Y450398D01*
X-182218D01*
X-183468Y449148D01*
Y447898D01*
X-182218Y446649D01*
X-179719D01*
X-178470Y445399D01*
Y444150D01*
X-179719Y442900D01*
X-182218D01*
X-183468Y444150D01*
X-170972Y449148D02*
X-172222Y450398D01*
X-174721D01*
X-175970Y449148D01*
Y444150D01*
X-174721Y442900D01*
X-172222D01*
X-170972Y444150D01*
X-168473Y450398D02*
Y442900D01*
X-163475D01*
X100198Y668048D02*
X98949Y669298D01*
X96450D01*
X95200Y668048D01*
Y663050D01*
X96450Y661800D01*
X98949D01*
X100198Y663050D01*
X102698Y661800D02*
Y669298D01*
X107696Y661800D01*
Y669298D01*
X115194D02*
X112694Y668048D01*
X110195Y665549D01*
Y663050D01*
X111445Y661800D01*
X113944D01*
X115194Y663050D01*
Y664299D01*
X113944Y665549D01*
X110195D01*
X117693Y661800D02*
Y663050D01*
X118942D01*
Y661800D01*
X117693D01*
X123941Y668048D02*
X125190Y669298D01*
X127690D01*
X128939Y668048D01*
Y666798D01*
X127690Y665549D01*
X126440D01*
X127690D01*
X128939Y664299D01*
Y663050D01*
X127690Y661800D01*
X125190D01*
X123941Y663050D01*
X136437Y669298D02*
X133938Y668048D01*
X131438Y665549D01*
Y663050D01*
X132688Y661800D01*
X135187D01*
X136437Y663050D01*
Y664299D01*
X135187Y665549D01*
X131438D01*
X137200Y567498D02*
Y562499D01*
X139699Y560000D01*
X142198Y562499D01*
Y567498D01*
X149696Y566248D02*
X148446Y567498D01*
X145947D01*
X144698Y566248D01*
Y561250D01*
X145947Y560000D01*
X148446D01*
X149696Y561250D01*
X157194Y566248D02*
X155944Y567498D01*
X153445D01*
X152195Y566248D01*
Y561250D01*
X153445Y560000D01*
X155944D01*
X157194Y561250D01*
X159693Y560000D02*
Y561250D01*
X160942D01*
Y560000D01*
X159693D01*
X170939D02*
X165941D01*
X170939Y564998D01*
Y566248D01*
X169690Y567498D01*
X167190D01*
X165941Y566248D01*
X177187Y560000D02*
Y567498D01*
X173438Y563749D01*
X178437D01*
X119198Y545598D02*
X114200D01*
Y538100D01*
X119198D01*
X114200Y541849D02*
X116699D01*
X121698Y545598D02*
X126696D01*
X124197D01*
Y538100D01*
X129195Y536850D02*
X134194D01*
X141691Y545598D02*
X136693D01*
Y538100D01*
X141691D01*
X136693Y541849D02*
X139192D01*
X144190Y545598D02*
X149189D01*
X146690D01*
Y538100D01*
X151688Y545598D02*
X156686Y538100D01*
Y545598D02*
X151688Y538100D01*
X159186Y545598D02*
Y538100D01*
X162934D01*
X164184Y539350D01*
Y544348D01*
X162934Y545598D01*
X159186D01*
X166683Y544348D02*
X167933Y545598D01*
X170432D01*
X171682Y544348D01*
Y539350D01*
X170432Y538100D01*
X167933D01*
X166683Y539350D01*
Y544348D01*
X174181Y538100D02*
Y539350D01*
X175430D01*
Y538100D01*
X174181D01*
X185427D02*
X180429D01*
X185427Y543098D01*
Y544348D01*
X184178Y545598D01*
X181678D01*
X180429Y544348D01*
X192925Y545598D02*
X187926D01*
Y541849D01*
X190426Y543098D01*
X191675D01*
X192925Y541849D01*
Y539350D01*
X191675Y538100D01*
X189176D01*
X187926Y539350D01*
X131098Y524398D02*
X126100D01*
Y516900D01*
X131098D01*
X126100Y520649D02*
X128599D01*
X133598Y524398D02*
X138596D01*
X136097D01*
Y516900D01*
X141095Y515650D02*
X146094D01*
X153591Y524398D02*
X148593D01*
Y516900D01*
X153591D01*
X148593Y520649D02*
X151092D01*
X156090Y524398D02*
X161089D01*
X158590D01*
Y516900D01*
X163588Y524398D02*
X168586Y516900D01*
Y524398D02*
X163588Y516900D01*
X171086Y524398D02*
Y516900D01*
X174834D01*
X176084Y518150D01*
Y523148D01*
X174834Y524398D01*
X171086D01*
X178583Y516900D02*
X181082D01*
X179833D01*
Y524398D01*
X178583Y523148D01*
X184831Y516900D02*
Y518150D01*
X186081D01*
Y516900D01*
X184831D01*
X196078D02*
X191079D01*
X196078Y521898D01*
Y523148D01*
X194828Y524398D01*
X192329D01*
X191079Y523148D01*
X203575Y524398D02*
X201076Y523148D01*
X198577Y520649D01*
Y518150D01*
X199826Y516900D01*
X202326D01*
X203575Y518150D01*
Y519399D01*
X202326Y520649D01*
X198577D01*
X149198Y498398D02*
X144200D01*
Y490900D01*
X149198D01*
X144200Y494649D02*
X146699D01*
X151698Y498398D02*
X156696D01*
X154197D01*
Y490900D01*
X159195Y489650D02*
X164194D01*
X171691Y498398D02*
X166693D01*
Y490900D01*
X171691D01*
X166693Y494649D02*
X169192D01*
X174190Y490900D02*
Y498398D01*
X176690Y495898D01*
X179189Y498398D01*
Y490900D01*
X181688Y498398D02*
Y490900D01*
X185437D01*
X186686Y492150D01*
Y497148D01*
X185437Y498398D01*
X181688D01*
X194184Y497148D02*
X192934Y498398D01*
X190435D01*
X189186Y497148D01*
Y492150D01*
X190435Y490900D01*
X192934D01*
X194184Y492150D01*
X196683Y490900D02*
Y492150D01*
X197933D01*
Y490900D01*
X196683D01*
X207930D02*
X202931D01*
X207930Y495898D01*
Y497148D01*
X206680Y498398D01*
X204181D01*
X202931Y497148D01*
X210429Y498398D02*
X215427D01*
Y497148D01*
X210429Y492150D01*
Y490900D01*
X190900Y473698D02*
Y468699D01*
X193399Y466200D01*
X195898Y468699D01*
Y473698D01*
X203396Y472448D02*
X202146Y473698D01*
X199647D01*
X198398Y472448D01*
Y467450D01*
X199647Y466200D01*
X202146D01*
X203396Y467450D01*
X210894Y472448D02*
X209644Y473698D01*
X207145D01*
X205895Y472448D01*
Y467450D01*
X207145Y466200D01*
X209644D01*
X210894Y467450D01*
X213393Y466200D02*
Y467450D01*
X214642D01*
Y466200D01*
X213393D01*
X224639D02*
X219641D01*
X224639Y471198D01*
Y472448D01*
X223390Y473698D01*
X220890D01*
X219641Y472448D01*
X227138D02*
X228388Y473698D01*
X230887D01*
X232137Y472448D01*
Y471198D01*
X230887Y469949D01*
X232137Y468699D01*
Y467450D01*
X230887Y466200D01*
X228388D01*
X227138Y467450D01*
Y468699D01*
X228388Y469949D01*
X227138Y471198D01*
Y472448D01*
X228388Y469949D02*
X230887D01*
X187800Y452098D02*
Y444600D01*
X191549D01*
X192798Y445850D01*
Y447099D01*
X191549Y448349D01*
X187800D01*
X191549D01*
X192798Y449598D01*
Y450848D01*
X191549Y452098D01*
X187800D01*
X195298Y444600D02*
Y449598D01*
X197797Y452098D01*
X200296Y449598D01*
Y444600D01*
Y448349D01*
X195298D01*
X202795Y452098D02*
X207794D01*
X205294D01*
Y444600D01*
X210293Y448349D02*
X215291D01*
X212792Y450848D02*
Y445850D01*
X217790Y444600D02*
Y445850D01*
X219040D01*
Y444600D01*
X217790D01*
X229037D02*
X224038D01*
X229037Y449598D01*
Y450848D01*
X227787Y452098D01*
X225288D01*
X224038Y450848D01*
X231536Y445850D02*
X232786Y444600D01*
X235285D01*
X236534Y445850D01*
Y450848D01*
X235285Y452098D01*
X232786D01*
X231536Y450848D01*
Y449598D01*
X232786Y448349D01*
X236534D01*
X138800Y571700D02*
Y579198D01*
X142549D01*
X143798Y577948D01*
Y575449D01*
X142549Y574199D01*
X138800D01*
X141299D02*
X143798Y571700D01*
X151296Y579198D02*
X146298D01*
Y571700D01*
X151296D01*
X146298Y575449D02*
X148797D01*
X158794Y579198D02*
X156294Y577948D01*
X153795Y575449D01*
Y572950D01*
X155045Y571700D01*
X157544D01*
X158794Y572950D01*
Y574199D01*
X157544Y575449D01*
X153795D01*
X161293Y571700D02*
Y572950D01*
X162542D01*
Y571700D01*
X161293D01*
X167541Y577948D02*
X168790Y579198D01*
X171290D01*
X172539Y577948D01*
Y576698D01*
X171290Y575449D01*
X170040D01*
X171290D01*
X172539Y574199D01*
Y572950D01*
X171290Y571700D01*
X168790D01*
X167541Y572950D01*
X180037Y579198D02*
X175038D01*
Y575449D01*
X177538Y576698D01*
X178787D01*
X180037Y575449D01*
Y572950D01*
X178787Y571700D01*
X176288D01*
X175038Y572950D01*
X200000Y463798D02*
Y456300D01*
X203749D01*
X204998Y457550D01*
Y458799D01*
X203749Y460049D01*
X200000D01*
X203749D01*
X204998Y461298D01*
Y462548D01*
X203749Y463798D01*
X200000D01*
X207498Y456300D02*
Y461298D01*
X209997Y463798D01*
X212496Y461298D01*
Y456300D01*
Y460049D01*
X207498D01*
X214995Y463798D02*
X219994D01*
X217494D01*
Y456300D01*
X222493Y460049D02*
X227491D01*
X229990Y456300D02*
Y457550D01*
X231240D01*
Y456300D01*
X229990D01*
X236238Y462548D02*
X237488Y463798D01*
X239987D01*
X241237Y462548D01*
Y461298D01*
X239987Y460049D01*
X238738D01*
X239987D01*
X241237Y458799D01*
Y457550D01*
X239987Y456300D01*
X237488D01*
X236238Y457550D01*
X243736Y462548D02*
X244986Y463798D01*
X247485D01*
X248734Y462548D01*
Y457550D01*
X247485Y456300D01*
X244986D01*
X243736Y457550D01*
Y462548D01*
X194098Y486348D02*
X192849Y487598D01*
X190350D01*
X189100Y486348D01*
Y481350D01*
X190350Y480100D01*
X192849D01*
X194098Y481350D01*
Y483849D01*
X191599D01*
X196598Y480100D02*
Y487598D01*
X201596Y480100D01*
Y487598D01*
X204095D02*
Y480100D01*
X207844D01*
X209094Y481350D01*
Y486348D01*
X207844Y487598D01*
X204095D01*
X211593Y480100D02*
Y481350D01*
X212842D01*
Y480100D01*
X211593D01*
X217841Y486348D02*
X219090Y487598D01*
X221590D01*
X222839Y486348D01*
Y485098D01*
X221590Y483849D01*
X220340D01*
X221590D01*
X222839Y482599D01*
Y481350D01*
X221590Y480100D01*
X219090D01*
X217841Y481350D01*
X225338Y480100D02*
X227838D01*
X226588D01*
Y487598D01*
X225338Y486348D01*
X149400Y510998D02*
X151899D01*
X150650D01*
Y503500D01*
X149400D01*
X151899D01*
X160646Y509748D02*
X159397Y510998D01*
X156898D01*
X155648Y509748D01*
Y504750D01*
X156898Y503500D01*
X159397D01*
X160646Y504750D01*
X168144Y503500D02*
X163146D01*
X168144Y508498D01*
Y509748D01*
X166894Y510998D01*
X164395D01*
X163146Y509748D01*
X170643Y503500D02*
X175642Y508498D01*
X178141Y503500D02*
Y510998D01*
X181890D01*
X183139Y509748D01*
Y507249D01*
X181890Y505999D01*
X178141D01*
X180640D02*
X183139Y503500D01*
X185638Y510998D02*
Y503500D01*
X189387D01*
X190637Y504750D01*
Y509748D01*
X189387Y510998D01*
X185638D01*
X193136Y504750D02*
X194386Y503500D01*
X196885D01*
X198134Y504750D01*
Y509748D01*
X196885Y510998D01*
X194386D01*
X193136Y509748D01*
Y508498D01*
X194386Y507249D01*
X198134D01*
X200634Y503500D02*
Y504750D01*
X201883D01*
Y503500D01*
X200634D01*
X206882Y509748D02*
X208131Y510998D01*
X210630D01*
X211880Y509748D01*
Y508498D01*
X210630Y507249D01*
X209381D01*
X210630D01*
X211880Y505999D01*
Y504750D01*
X210630Y503500D01*
X208131D01*
X206882Y504750D01*
X219378Y503500D02*
X214379D01*
X219378Y508498D01*
Y509748D01*
X218128Y510998D01*
X215629D01*
X214379Y509748D01*
X133698Y535098D02*
X128700D01*
Y527600D01*
X133698D01*
X128700Y531349D02*
X131199D01*
X136198Y535098D02*
X141196D01*
X138697D01*
Y527600D01*
X143695Y526350D02*
X148694D01*
X156191Y535098D02*
X151193D01*
Y527600D01*
X156191D01*
X151193Y531349D02*
X153692D01*
X158690Y535098D02*
X163689D01*
X161190D01*
Y527600D01*
X166188Y535098D02*
X171186Y527600D01*
Y535098D02*
X166188Y527600D01*
X178684Y535098D02*
X173686D01*
Y527600D01*
X178684D01*
X173686Y531349D02*
X176185D01*
X181183Y527600D02*
Y535098D01*
X186182Y527600D01*
Y535098D01*
X188681Y527600D02*
Y528850D01*
X189930D01*
Y527600D01*
X188681D01*
X194929Y533848D02*
X196178Y535098D01*
X198678D01*
X199927Y533848D01*
Y532598D01*
X198678Y531349D01*
X197428D01*
X198678D01*
X199927Y530099D01*
Y528850D01*
X198678Y527600D01*
X196178D01*
X194929Y528850D01*
X202426Y533848D02*
X203676Y535098D01*
X206175D01*
X207425Y533848D01*
Y532598D01*
X206175Y531349D01*
X204926D01*
X206175D01*
X207425Y530099D01*
Y528850D01*
X206175Y527600D01*
X203676D01*
X202426Y528850D01*
X158198Y555648D02*
X156949Y556898D01*
X154450D01*
X153200Y555648D01*
Y550650D01*
X154450Y549400D01*
X156949D01*
X158198Y550650D01*
Y553149D01*
X155699D01*
X160698Y549400D02*
Y556898D01*
X165696Y549400D01*
Y556898D01*
X168195D02*
Y549400D01*
X171944D01*
X173194Y550650D01*
Y555648D01*
X171944Y556898D01*
X168195D01*
X175693Y549400D02*
Y550650D01*
X176942D01*
Y549400D01*
X175693D01*
X181941Y555648D02*
X183190Y556898D01*
X185690D01*
X186939Y555648D01*
Y554398D01*
X185690Y553149D01*
X184440D01*
X185690D01*
X186939Y551899D01*
Y550650D01*
X185690Y549400D01*
X183190D01*
X181941Y550650D01*
X193187Y549400D02*
Y556898D01*
X189438Y553149D01*
X194437D01*
X107600Y606200D02*
Y613698D01*
X111349D01*
X112598Y612448D01*
Y609949D01*
X111349Y608699D01*
X107600D01*
X110099D02*
X112598Y606200D01*
X120096Y613698D02*
X115098D01*
Y606200D01*
X120096D01*
X115098Y609949D02*
X117597D01*
X122595Y613698D02*
X127594D01*
Y612448D01*
X122595Y607450D01*
Y606200D01*
X130093D02*
Y607450D01*
X131342D01*
Y606200D01*
X130093D01*
X141339D02*
X136341D01*
X141339Y611198D01*
Y612448D01*
X140090Y613698D01*
X137590D01*
X136341Y612448D01*
X148837Y606200D02*
X143838D01*
X148837Y611198D01*
Y612448D01*
X147587Y613698D01*
X145088D01*
X143838Y612448D01*
X123000Y583600D02*
Y591098D01*
X126749D01*
X127998Y589848D01*
Y587349D01*
X126749Y586099D01*
X123000D01*
X125499D02*
X127998Y583600D01*
X135496Y591098D02*
X130498D01*
Y583600D01*
X135496D01*
X130498Y587349D02*
X132997D01*
X142994Y591098D02*
X137995D01*
Y587349D01*
X140494Y588598D01*
X141744D01*
X142994Y587349D01*
Y584850D01*
X141744Y583600D01*
X139245D01*
X137995Y584850D01*
X145493Y583600D02*
Y584850D01*
X146742D01*
Y583600D01*
X145493D01*
X156739D02*
X151741D01*
X156739Y588598D01*
Y589848D01*
X155490Y591098D01*
X152990D01*
X151741Y589848D01*
X159238D02*
X160488Y591098D01*
X162987D01*
X164237Y589848D01*
Y588598D01*
X162987Y587349D01*
X161738D01*
X162987D01*
X164237Y586099D01*
Y584850D01*
X162987Y583600D01*
X160488D01*
X159238Y584850D01*
X126100Y595700D02*
Y603198D01*
X129849D01*
X131098Y601948D01*
Y599449D01*
X129849Y598199D01*
X126100D01*
X128599D02*
X131098Y595700D01*
X138596Y601948D02*
X137346Y603198D01*
X134847D01*
X133598Y601948D01*
Y596950D01*
X134847Y595700D01*
X137346D01*
X138596Y596950D01*
X141095Y595700D02*
X143594D01*
X142345D01*
Y603198D01*
X141095Y601948D01*
X147343Y595700D02*
Y596950D01*
X148593D01*
Y595700D01*
X147343D01*
X153591Y601948D02*
X154841Y603198D01*
X157340D01*
X158590Y601948D01*
Y600698D01*
X157340Y599449D01*
X156090D01*
X157340D01*
X158590Y598199D01*
Y596950D01*
X157340Y595700D01*
X154841D01*
X153591Y596950D01*
X166087Y603198D02*
X163588Y601948D01*
X161089Y599449D01*
Y596950D01*
X162338Y595700D01*
X164838D01*
X166087Y596950D01*
Y598199D01*
X164838Y599449D01*
X161089D01*
D58*
X266600Y112600D02*
X263754Y123222D01*
X268243Y120630D01*
X270835Y125119D01*
X273681Y114497D01*
X277222Y115446D02*
X274376Y126068D01*
X279687Y127491D01*
X281931Y126195D01*
X282880Y122654D01*
X281584Y120410D01*
X276273Y118987D01*
X279814Y119935D02*
X284303Y117344D01*
X292079Y130811D02*
X284997Y128914D01*
X286420Y123603D01*
X289961Y124552D01*
X286420Y123603D01*
X287843Y118292D01*
X303776Y122561D02*
X300930Y133183D01*
X297042Y126449D01*
X304123Y128347D01*
X308613Y125755D02*
X310857Y124459D01*
X314398Y125407D01*
X315694Y127652D01*
X313797Y134733D01*
X311552Y136029D01*
X308011Y135080D01*
X306715Y132836D01*
X307190Y131066D01*
X309434Y129770D01*
X314745Y131193D01*
X316863Y137452D02*
X326790Y128728D01*
X323944Y139350D02*
X319709Y126831D01*
X330331Y129677D02*
X328433Y136758D01*
X331025Y141247D01*
X335514Y138655D01*
X337412Y131574D01*
X335989Y136885D01*
X328908Y134987D01*
X340952Y132523D02*
X339055Y139604D01*
X340825Y140078D01*
X343070Y138782D01*
X344493Y133471D01*
X343070Y138782D01*
X344366Y141027D01*
X346610Y139731D01*
X348033Y134420D01*
X348728Y145990D02*
X351574Y135369D01*
X356885Y136792D01*
X358181Y139036D01*
X357706Y140807D01*
X357232Y142577D01*
X354987Y143873D01*
X349677Y142450D01*
X363966Y138689D02*
X367507Y139638D01*
X368803Y141882D01*
X367854Y145423D01*
X365609Y146719D01*
X362069Y145770D01*
X360773Y143526D01*
X361721Y139985D01*
X363966Y138689D01*
X372690Y148616D02*
X376231Y149565D01*
X378476Y148269D01*
X379899Y142958D01*
X374588Y141535D01*
X372343Y142831D01*
X373639Y145076D01*
X378950Y146499D01*
X381542Y150988D02*
X383439Y143907D01*
X382491Y147448D01*
X383787Y149692D01*
X385083Y151937D01*
X386853Y152411D01*
X398296Y159272D02*
X401142Y148651D01*
X395831Y147227D01*
X393587Y148523D01*
X392638Y152064D01*
X393934Y154309D01*
X399245Y155732D01*
X405157Y147829D02*
X412238Y149726D01*
X420615Y153868D02*
X417769Y164490D01*
X413881Y157756D01*
X420963Y159654D01*
X423555Y164143D02*
X424851Y166387D01*
X428391Y167336D01*
X430636Y166040D01*
X431110Y164270D01*
X429814Y162025D01*
X428044Y161551D01*
X429814Y162025D01*
X432059Y160729D01*
X432533Y158959D01*
X431237Y156714D01*
X427697Y155766D01*
X425452Y157062D01*
X441859Y159560D02*
X439013Y170182D01*
X435125Y163448D01*
X442206Y165346D01*
X-35768Y656998D02*
X-40100D01*
Y650500D01*
X-35768D01*
X-40100Y653749D02*
X-37934D01*
X-33602Y656998D02*
X-29270D01*
X-31436D01*
Y650500D01*
X-27104Y649417D02*
X-22772D01*
X-16274Y656998D02*
X-20606D01*
Y650500D01*
X-16274D01*
X-20606Y653749D02*
X-18440D01*
X-14108Y650500D02*
Y656998D01*
X-10859D01*
X-9776Y655915D01*
Y653749D01*
X-10859Y652666D01*
X-14108D01*
X-11942D02*
X-9776Y650500D01*
X-3279Y656998D02*
X-7610D01*
Y650500D01*
X-3279D01*
X-7610Y653749D02*
X-5444D01*
X3219Y656998D02*
X-1113D01*
Y653749D01*
X1053D01*
X-1113D01*
Y650500D01*
X9717Y655915D02*
X8634Y656998D01*
X6468D01*
X5385Y655915D01*
Y651583D01*
X6468Y650500D01*
X8634D01*
X9717Y651583D01*
X11883Y656998D02*
Y650500D01*
X16215D01*
X18381Y656998D02*
Y650500D01*
Y652666D01*
X22713Y656998D01*
X19464Y653749D01*
X22713Y650500D01*
X24879D02*
X29211Y654832D01*
X31377Y656998D02*
Y651583D01*
X32460Y650500D01*
X34626D01*
X35709Y651583D01*
Y656998D01*
X37875Y655915D02*
X38958Y656998D01*
X41124D01*
X42207Y655915D01*
Y654832D01*
X41124Y653749D01*
X40041D01*
X41124D01*
X42207Y652666D01*
Y651583D01*
X41124Y650500D01*
X38958D01*
X37875Y651583D01*
X44373Y649417D02*
X48705D01*
X50871Y650500D02*
Y654832D01*
X54120D01*
X55203Y653749D01*
Y650500D01*
X61701Y655915D02*
X60617Y656998D01*
X58451D01*
X57369Y655915D01*
Y651583D01*
X58451Y650500D01*
X60617D01*
X61701Y651583D01*
X63867Y656998D02*
X68198D01*
X66032D01*
Y650500D01*
X74696Y655915D02*
X73613Y656998D01*
X71447D01*
X70364Y655915D01*
Y654832D01*
X71447Y653749D01*
X73613D01*
X74696Y652666D01*
Y651583D01*
X73613Y650500D01*
X71447D01*
X70364Y651583D01*
X76862Y650500D02*
X81194Y654832D01*
X83360Y656998D02*
Y651583D01*
X84443Y650500D01*
X86609D01*
X87692Y651583D01*
Y656998D01*
X94190D02*
X92024Y655915D01*
X89858Y653749D01*
Y651583D01*
X90941Y650500D01*
X93107D01*
X94190Y651583D01*
Y652666D01*
X93107Y653749D01*
X89858D01*
X96356Y649417D02*
X100688D01*
X102854Y650500D02*
Y656998D01*
X106103D01*
X107186Y655915D01*
Y653749D01*
X106103Y652666D01*
X102854D01*
X105020D02*
X107186Y650500D01*
X109352Y656998D02*
X113684Y650500D01*
Y656998D02*
X109352Y650500D01*
X115850D02*
Y651583D01*
X116933D01*
Y650500D01*
X115850D01*
X125597D02*
X121265D01*
X125597Y654832D01*
Y655915D01*
X124514Y656998D01*
X122348D01*
X121265Y655915D01*
X127762D02*
X128846Y656998D01*
X131011D01*
X132094Y655915D01*
Y651583D01*
X131011Y650500D01*
X128846D01*
X127762Y651583D01*
Y655915D01*
X47499Y632498D02*
X46499Y633498D01*
X44500D01*
X43500Y632498D01*
Y631499D01*
X44500Y630499D01*
X46499D01*
X47499Y629499D01*
Y628500D01*
X46499Y627500D01*
X44500D01*
X43500Y628500D01*
X49498Y633498D02*
Y627500D01*
X52497D01*
X53497Y628500D01*
Y632498D01*
X52497Y633498D01*
X49498D01*
X55496D02*
X57495D01*
X56496D01*
Y627500D01*
X55496D01*
X57495D01*
X64493D02*
X60494D01*
X64493Y631499D01*
Y632498D01*
X63493Y633498D01*
X61494D01*
X60494Y632498D01*
X66493Y627500D02*
X70491Y631499D01*
X72491Y633498D02*
Y628500D01*
X73490Y627500D01*
X75490D01*
X76489Y628500D01*
Y633498D01*
X78489Y632498D02*
X79488Y633498D01*
X81488D01*
X82487Y632498D01*
Y631499D01*
X81488Y630499D01*
X80488D01*
X81488D01*
X82487Y629499D01*
Y628500D01*
X81488Y627500D01*
X79488D01*
X78489Y628500D01*
X84487Y626500D02*
X88485D01*
X90485Y627500D02*
Y633498D01*
X93484D01*
X94483Y632498D01*
Y630499D01*
X93484Y629499D01*
X90485D01*
X92484D02*
X94483Y627500D01*
X96483Y633498D02*
X100482Y627500D01*
Y633498D02*
X96483Y627500D01*
X102481D02*
X106480Y631499D01*
X112478Y632498D02*
X111478Y633498D01*
X109479D01*
X108479Y632498D01*
Y631499D01*
X109479Y630499D01*
X111478D01*
X112478Y629499D01*
Y628500D01*
X111478Y627500D01*
X109479D01*
X108479Y628500D01*
X114477Y633498D02*
Y627500D01*
X117476D01*
X118476Y628500D01*
Y632498D01*
X117476Y633498D01*
X114477D01*
X120475Y627500D02*
Y631499D01*
X122474Y633498D01*
X124474Y631499D01*
Y627500D01*
Y630499D01*
X120475D01*
X129472Y627500D02*
Y633498D01*
X126473Y630499D01*
X130472D01*
X132471Y627500D02*
Y628500D01*
X133471D01*
Y627500D01*
X132471D01*
X141468D02*
X137470D01*
X141468Y631499D01*
Y632498D01*
X140469Y633498D01*
X138469D01*
X137470Y632498D01*
X143468Y627500D02*
X145467D01*
X144467D01*
Y633498D01*
X143468Y632498D01*
D59*
X-198900Y552382D02*
X-197984Y553298D01*
X-196151D01*
X-195235Y552382D01*
Y548716D01*
X-196151Y547800D01*
X-197984D01*
X-198900Y548716D01*
Y552382D01*
X-189736Y553298D02*
X-193402D01*
Y550549D01*
X-191569Y551465D01*
X-190653D01*
X-189736Y550549D01*
Y548716D01*
X-190653Y547800D01*
X-192485D01*
X-193402Y548716D01*
X-187904Y547800D02*
Y548716D01*
X-186987D01*
Y547800D01*
X-187904D01*
X-179656Y553298D02*
X-183322D01*
Y547800D01*
X-179656D01*
X-183322Y550549D02*
X-181489D01*
X-177824Y553298D02*
X-174158D01*
X-175991D01*
Y547800D01*
X-172325Y546884D02*
X-168660D01*
X-163162Y553298D02*
X-166827D01*
Y547800D01*
X-163162D01*
X-166827Y550549D02*
X-164994D01*
X-161329Y547800D02*
Y553298D01*
X-158580D01*
X-157663Y552382D01*
Y550549D01*
X-158580Y549633D01*
X-161329D01*
X-159496D02*
X-157663Y547800D01*
X-155831Y553298D02*
X-152165Y547800D01*
Y553298D02*
X-155831Y547800D01*
X-150332Y553298D02*
Y547800D01*
X-147583D01*
X-146667Y548716D01*
Y552382D01*
X-147583Y553298D01*
X-150332D01*
X-144834Y547800D02*
X-143001D01*
X-143918D01*
Y553298D01*
X-144834Y552382D01*
X-140252Y547800D02*
X-136587Y551465D01*
X-134754Y547800D02*
Y551465D01*
X-132921Y553298D01*
X-131089Y551465D01*
Y547800D01*
Y550549D01*
X-134754D01*
X-129256Y547800D02*
Y553298D01*
X-125590Y547800D01*
Y553298D01*
X-123758Y547800D02*
X-121925D01*
X-122841D01*
Y553298D01*
X-123758Y552382D01*
X-119176D02*
X-118259Y553298D01*
X-116427D01*
X-115510Y552382D01*
Y551465D01*
X-116427Y550549D01*
X-117343D01*
X-116427D01*
X-115510Y549633D01*
Y548716D01*
X-116427Y547800D01*
X-118259D01*
X-119176Y548716D01*
X-113678Y547800D02*
X-110012Y551465D01*
X-108180Y547800D02*
Y553298D01*
X-105430D01*
X-104514Y552382D01*
Y550549D01*
X-105430Y549633D01*
X-108180D01*
X-106347D02*
X-104514Y547800D01*
X-102681Y553298D02*
Y547800D01*
X-99932D01*
X-99016Y548716D01*
Y549633D01*
X-99932Y550549D01*
X-102681D01*
X-99932D01*
X-99016Y551465D01*
Y552382D01*
X-99932Y553298D01*
X-102681D01*
X-97183Y547800D02*
X-95350D01*
X-96267D01*
Y553298D01*
X-97183Y552382D01*
X-92601D02*
X-91685Y553298D01*
X-89852D01*
X-88936Y552382D01*
Y551465D01*
X-89852Y550549D01*
X-90768D01*
X-89852D01*
X-88936Y549633D01*
Y548716D01*
X-89852Y547800D01*
X-91685D01*
X-92601Y548716D01*
X29932Y541597D02*
X24600D01*
Y537599D01*
X27266Y538932D01*
X28599D01*
X29932Y537599D01*
Y534933D01*
X28599Y533600D01*
X25933D01*
X24600Y534933D01*
X32597Y533600D02*
X35263D01*
X33930D01*
Y541597D01*
X32597Y540265D01*
X44594Y533600D02*
X39262D01*
X44594Y538932D01*
Y540265D01*
X43261Y541597D01*
X40595D01*
X39262Y540265D01*
X47259Y541597D02*
Y533600D01*
X52591D01*
X-62000Y546300D02*
Y554297D01*
X-58001D01*
X-56668Y552965D01*
Y550299D01*
X-58001Y548966D01*
X-62000D01*
X-54003Y554297D02*
X-51337D01*
X-52670D01*
Y546300D01*
X-54003D01*
X-51337D01*
X-42006Y552965D02*
X-43339Y554297D01*
X-46005D01*
X-47338Y552965D01*
Y547633D01*
X-46005Y546300D01*
X-43339D01*
X-42006Y547633D01*
X-39341Y552965D02*
X-38008Y554297D01*
X-35342D01*
X-34009Y552965D01*
Y551632D01*
X-35342Y550299D01*
X-36675D01*
X-35342D01*
X-34009Y548966D01*
Y547633D01*
X-35342Y546300D01*
X-38008D01*
X-39341Y547633D01*
X-26012Y546300D02*
X-31343D01*
X-26012Y551632D01*
Y552965D01*
X-27345Y554297D01*
X-30010D01*
X-31343Y552965D01*
X-23346Y546300D02*
Y554297D01*
X-20680Y551632D01*
X-18014Y554297D01*
Y546300D01*
X-15348Y554297D02*
X-10017Y546300D01*
Y554297D02*
X-15348Y546300D01*
X-2019Y554297D02*
X-4685Y552965D01*
X-7351Y550299D01*
Y547633D01*
X-6018Y546300D01*
X-3352D01*
X-2019Y547633D01*
Y548966D01*
X-3352Y550299D01*
X-7351D01*
X646Y554297D02*
X5978D01*
Y552965D01*
X646Y547633D01*
Y546300D01*
X13975Y554297D02*
X8644D01*
Y550299D01*
X11310Y551632D01*
X12643D01*
X13975Y550299D01*
Y547633D01*
X12643Y546300D01*
X9977D01*
X8644Y547633D01*
X21973Y554297D02*
X16641D01*
Y550299D01*
X19307D01*
X16641D01*
Y546300D01*
X29970D02*
X24639D01*
X29970Y551632D01*
Y552965D01*
X28637Y554297D01*
X25972D01*
X24639Y552965D01*
X37968Y554297D02*
X32636D01*
Y550299D01*
X35302Y551632D01*
X36635D01*
X37968Y550299D01*
Y547633D01*
X36635Y546300D01*
X33969D01*
X32636Y547633D01*
X45965Y554297D02*
X43299Y552965D01*
X40634Y550299D01*
Y547633D01*
X41967Y546300D01*
X44632D01*
X45965Y547633D01*
Y548966D01*
X44632Y550299D01*
X40634D01*
X48631Y554297D02*
Y546300D01*
X53963D01*
D60*
X-29268Y645315D02*
X-30351Y646398D01*
X-32517D01*
X-33600Y645315D01*
Y644232D01*
X-32517Y643149D01*
X-30351D01*
X-29268Y642066D01*
Y640983D01*
X-30351Y639900D01*
X-32517D01*
X-33600Y640983D01*
X-27102Y646398D02*
Y639900D01*
X-23853D01*
X-22770Y640983D01*
Y645315D01*
X-23853Y646398D01*
X-27102D01*
X-17355D02*
X-19521D01*
X-20604Y645315D01*
Y640983D01*
X-19521Y639900D01*
X-17355D01*
X-16272Y640983D01*
Y645315D01*
X-17355Y646398D01*
X-9774Y639900D02*
X-14106D01*
X-9774Y644232D01*
Y645315D01*
X-10857Y646398D01*
X-13023D01*
X-14106Y645315D01*
X-7608Y639900D02*
X-3276Y644232D01*
X3221Y646398D02*
X-1111D01*
Y639900D01*
X3221D01*
X-1111Y643149D02*
X1055D01*
X5387Y646398D02*
X9719D01*
X7553D01*
Y639900D01*
X11885Y638817D02*
X16217D01*
X22715Y646398D02*
X18383D01*
Y639900D01*
X22715D01*
X18383Y643149D02*
X20549D01*
X29213Y645315D02*
X28130Y646398D01*
X25964D01*
X24881Y645315D01*
Y640983D01*
X25964Y639900D01*
X28130D01*
X29213Y640983D01*
X31379Y639900D02*
Y646398D01*
X34628D01*
X35711Y645315D01*
Y643149D01*
X34628Y642066D01*
X31379D01*
X33545D02*
X35711Y639900D01*
X42209Y645315D02*
X41126Y646398D01*
X38960D01*
X37877Y645315D01*
Y644232D01*
X38960Y643149D01*
X41126D01*
X42209Y642066D01*
Y640983D01*
X41126Y639900D01*
X38960D01*
X37877Y640983D01*
X44375Y646398D02*
Y639900D01*
X47624D01*
X48707Y640983D01*
Y645315D01*
X47624Y646398D01*
X44375D01*
X50873D02*
Y642066D01*
X53039Y639900D01*
X55205Y642066D01*
Y646398D01*
X57371Y639900D02*
X61703Y644232D01*
X63869Y646398D02*
Y640983D01*
X64952Y639900D01*
X67118D01*
X68200Y640983D01*
Y646398D01*
X70367Y645315D02*
X71449Y646398D01*
X73615D01*
X74698Y645315D01*
Y644232D01*
X73615Y643149D01*
X72532D01*
X73615D01*
X74698Y642066D01*
Y640983D01*
X73615Y639900D01*
X71449D01*
X70367Y640983D01*
X76864Y638817D02*
X81196D01*
X83362Y646398D02*
X87694D01*
X85528D01*
Y639900D01*
X89860Y646398D02*
X94192Y639900D01*
Y646398D02*
X89860Y639900D01*
X96358D02*
X100690Y644232D01*
X107188Y645315D02*
X106105Y646398D01*
X103939D01*
X102856Y645315D01*
Y644232D01*
X103939Y643149D01*
X106105D01*
X107188Y642066D01*
Y640983D01*
X106105Y639900D01*
X103939D01*
X102856Y640983D01*
X113686Y645315D02*
X112603Y646398D01*
X110437D01*
X109354Y645315D01*
Y640983D01*
X110437Y639900D01*
X112603D01*
X113686Y640983D01*
X115852Y646398D02*
Y639900D01*
X120184D01*
X125599D02*
Y646398D01*
X122350Y643149D01*
X126682D01*
X128848Y639900D02*
Y640983D01*
X129931D01*
Y639900D01*
X128848D01*
X134263Y645315D02*
X135345Y646398D01*
X137512D01*
X138595Y645315D01*
Y644232D01*
X137512Y643149D01*
X136428D01*
X137512D01*
X138595Y642066D01*
Y640983D01*
X137512Y639900D01*
X135345D01*
X134263Y640983D01*
X140760Y645315D02*
X141843Y646398D01*
X144009D01*
X145092Y645315D01*
Y644232D01*
X144009Y643149D01*
X145092Y642066D01*
Y640983D01*
X144009Y639900D01*
X141843D01*
X140760Y640983D01*
Y642066D01*
X141843Y643149D01*
X140760Y644232D01*
Y645315D01*
X141843Y643149D02*
X144009D01*
D61*
X48366Y623182D02*
X47449Y624098D01*
X45616D01*
X44700Y623182D01*
Y622266D01*
X45616Y621349D01*
X47449D01*
X48366Y620433D01*
Y619516D01*
X47449Y618600D01*
X45616D01*
X44700Y619516D01*
X53864Y623182D02*
X52947Y624098D01*
X51115D01*
X50198Y623182D01*
Y619516D01*
X51115Y618600D01*
X52947D01*
X53864Y619516D01*
X55696Y624098D02*
Y618600D01*
Y620433D01*
X59362Y624098D01*
X56613Y621349D01*
X59362Y618600D01*
X64860D02*
X61195D01*
X64860Y622266D01*
Y623182D01*
X63944Y624098D01*
X62111D01*
X61195Y623182D01*
X66693Y618600D02*
X70358Y622266D01*
X72191Y624098D02*
Y619516D01*
X73107Y618600D01*
X74940D01*
X75856Y619516D01*
Y624098D01*
X77689Y623182D02*
X78606Y624098D01*
X80438D01*
X81355Y623182D01*
Y622266D01*
X80438Y621349D01*
X79522D01*
X80438D01*
X81355Y620433D01*
Y619516D01*
X80438Y618600D01*
X78606D01*
X77689Y619516D01*
X83188Y617684D02*
X86853D01*
X88686Y618600D02*
Y622266D01*
X91435D01*
X92351Y621349D01*
Y618600D01*
X94184D02*
Y624098D01*
X96933D01*
X97849Y623182D01*
Y621349D01*
X96933Y620433D01*
X94184D01*
X96017D02*
X97849Y618600D01*
X99682Y624098D02*
X103348D01*
X101515D01*
Y618600D01*
X108846Y623182D02*
X107929Y624098D01*
X106097D01*
X105180Y623182D01*
Y622266D01*
X106097Y621349D01*
X107929D01*
X108846Y620433D01*
Y619516D01*
X107929Y618600D01*
X106097D01*
X105180Y619516D01*
X110679Y618600D02*
X114344Y622266D01*
X116177Y624098D02*
Y619516D01*
X117093Y618600D01*
X118926D01*
X119842Y619516D01*
Y624098D01*
X125340D02*
X123508Y623182D01*
X121675Y621349D01*
Y619516D01*
X122591Y618600D01*
X124424D01*
X125340Y619516D01*
Y620433D01*
X124424Y621349D01*
X121675D01*
X127173Y617684D02*
X130839D01*
X132671Y624098D02*
X136337D01*
X134504D01*
Y618600D01*
X138170Y624098D02*
X141835Y618600D01*
Y624098D02*
X138170Y618600D01*
X143668D02*
Y619516D01*
X144584D01*
Y618600D01*
X143668D01*
X148250Y623182D02*
X149166Y624098D01*
X150999D01*
X151915Y623182D01*
Y622266D01*
X150999Y621349D01*
X150082D01*
X150999D01*
X151915Y620433D01*
Y619516D01*
X150999Y618600D01*
X149166D01*
X148250Y619516D01*
X153748Y624098D02*
X157413D01*
Y623182D01*
X153748Y619516D01*
Y618600D01*
M02*
