%FSAX44Y44*%
%MOMM*%
G71*
G01*
G75*
%ADD10R,0.8000X0.9000*%
%ADD11R,0.9000X0.8000*%
%ADD12R,1.2000X2.0000*%
%ADD13O,0.4500X1.5000*%
%ADD14R,0.4500X1.5000*%
%ADD15R,1.8000X1.3000*%
%ADD16C,0.2000*%
%ADD17C,0.3000*%
%ADD18C,0.4000*%
%ADD19C,0.7000*%
%ADD20C,0.5000*%
%ADD21R,2.4130X3.6830*%
%ADD22C,2.3000*%
%ADD23R,2.4400X2.4400*%
%ADD24R,2.4400X2.4400*%
%ADD25C,1.0000*%
%ADD26C,1.8000*%
%ADD27C,0.8000*%
%ADD28C,0.6000*%
%ADD29C,0.2540*%
%ADD30C,0.1500*%
%ADD31C,0.1000*%
G36*
X-00007733Y00152779D02*
X-00007510D01*
X-00007250Y00152742D01*
X-00006582Y00152630D01*
X-00005840Y00152482D01*
X-00004987Y00152222D01*
X-00004059Y00151888D01*
X-00003131Y00151443D01*
X-00002204Y00150849D01*
X-00001721Y00150515D01*
X-00001276Y00150144D01*
X-00000830Y00149699D01*
X-00000422Y00149253D01*
X-00000014Y00148734D01*
X00000357Y00148177D01*
X00000691Y00147583D01*
X00000988Y00146916D01*
X00001248Y00146210D01*
X00001470Y00145468D01*
X00001656Y00144652D01*
X00001804Y00143761D01*
X00001878Y00142833D01*
X00001916Y00141832D01*
Y00141757D01*
Y00141572D01*
Y00141312D01*
X00001878Y00140904D01*
X00001841Y00140458D01*
X00001767Y00139939D01*
X00001693Y00139345D01*
X00001582Y00138714D01*
X00001470Y00138046D01*
X00001285Y00137341D01*
X00001062Y00136673D01*
X00000839Y00135968D01*
X00000505Y00135300D01*
X00000171Y00134669D01*
X-00000237Y00134076D01*
X-00000682Y00133519D01*
X-00000719Y00133482D01*
X-00000793Y00133408D01*
X-00000942Y00133259D01*
X-00001164Y00133111D01*
X-00001424Y00132888D01*
X-00001758Y00132666D01*
X-00002129Y00132406D01*
X-00002575Y00132183D01*
X-00003094Y00131923D01*
X-00003651Y00131664D01*
X-00004282Y00131441D01*
X-00004950Y00131218D01*
X-00005655Y00131070D01*
X-00006471Y00130921D01*
X-00007325Y00130847D01*
X-00008215Y00130810D01*
X-00017456D01*
Y00152816D01*
X-00007918D01*
X-00007733Y00152779D01*
D02*
G37*
G36*
X-00021686Y00147138D02*
X-00030963D01*
X-00031186Y00147101D01*
X-00031483Y00147064D01*
X-00031891Y00146990D01*
X-00032336Y00146804D01*
X-00032782Y00146581D01*
X-00033190Y00146285D01*
X-00033561Y00145839D01*
X-00033598Y00145765D01*
X-00033709Y00145617D01*
X-00033858Y00145283D01*
X-00034006Y00144837D01*
X-00034155Y00144281D01*
X-00034303Y00143576D01*
X-00034415Y00142722D01*
X-00034452Y00142240D01*
Y00141720D01*
Y00141646D01*
Y00141497D01*
X-00034415Y00141238D01*
X-00034377Y00140904D01*
X-00034340Y00140496D01*
X-00034266Y00140050D01*
X-00034155Y00139605D01*
X-00034006Y00139122D01*
X-00033821Y00138603D01*
X-00033598Y00138158D01*
X-00033301Y00137712D01*
X-00032967Y00137304D01*
X-00032559Y00136970D01*
X-00032077Y00136710D01*
X-00031557Y00136562D01*
X-00030926Y00136488D01*
X-00026659D01*
X-00026473Y00136525D01*
X-00026250Y00136636D01*
X-00026028Y00136859D01*
Y00136896D01*
X-00025991Y00136933D01*
X-00025842Y00137119D01*
X-00025731Y00137416D01*
X-00025694Y00137750D01*
Y00137787D01*
Y00137824D01*
X-00025731Y00138046D01*
X-00025842Y00138343D01*
X-00026028Y00138677D01*
Y00138714D01*
X-00026065Y00138751D01*
X-00026213Y00138900D01*
X-00026436Y00139048D01*
X-00026584Y00139122D01*
X-00031000D01*
Y00144800D01*
X-00026362D01*
X-00026102Y00144763D01*
X-00025731Y00144726D01*
X-00025360Y00144652D01*
X-00024915Y00144541D01*
X-00024469Y00144392D01*
X-00024024Y00144206D01*
X-00023987Y00144169D01*
X-00023801Y00144095D01*
X-00023579Y00143984D01*
X-00023319Y00143798D01*
X-00022985Y00143576D01*
X-00022614Y00143316D01*
X-00022280Y00142982D01*
X-00021946Y00142648D01*
X-00021909Y00142611D01*
X-00021797Y00142462D01*
X-00021649Y00142277D01*
X-00021426Y00142017D01*
X-00021204Y00141683D01*
X-00020981Y00141312D01*
X-00020758Y00140867D01*
X-00020536Y00140421D01*
X-00020498Y00140384D01*
X-00020461Y00140199D01*
X-00020387Y00139976D01*
X-00020276Y00139642D01*
X-00020164Y00139271D01*
X-00020090Y00138863D01*
X-00020053Y00138417D01*
X-00020016Y00137935D01*
Y00137861D01*
Y00137675D01*
X-00020053Y00137378D01*
X-00020090Y00137007D01*
X-00020164Y00136562D01*
X-00020239Y00136080D01*
X-00020387Y00135560D01*
X-00020573Y00135078D01*
X-00020610Y00135041D01*
X-00020684Y00134855D01*
X-00020795Y00134632D01*
X-00020944Y00134335D01*
X-00021167Y00133964D01*
X-00021389Y00133593D01*
X-00021686Y00133222D01*
X-00022020Y00132851D01*
X-00022057Y00132814D01*
X-00022168Y00132703D01*
X-00022391Y00132517D01*
X-00022614Y00132331D01*
X-00022948Y00132072D01*
X-00023319Y00131849D01*
X-00023690Y00131589D01*
X-00024135Y00131367D01*
X-00024172Y00131329D01*
X-00024321Y00131292D01*
X-00024581Y00131218D01*
X-00024877Y00131107D01*
X-00025248Y00130996D01*
X-00025657Y00130921D01*
X-00026139Y00130847D01*
X-00026621Y00130810D01*
X-00030295D01*
X-00030481Y00130847D01*
X-00030704D01*
X-00030963Y00130884D01*
X-00031594Y00130996D01*
X-00032373Y00131144D01*
X-00033227Y00131404D01*
X-00034155Y00131738D01*
X-00035082Y00132183D01*
X-00036010Y00132777D01*
X-00036493Y00133111D01*
X-00036938Y00133482D01*
X-00037383Y00133890D01*
X-00037792Y00134373D01*
X-00038200Y00134892D01*
X-00038534Y00135412D01*
X-00038905Y00136042D01*
X-00039202Y00136673D01*
X-00039461Y00137378D01*
X-00039684Y00138158D01*
X-00039870Y00138974D01*
X-00040018Y00139828D01*
X-00040092Y00140755D01*
X-00040129Y00141757D01*
Y00141869D01*
Y00141906D01*
Y00141980D01*
Y00142128D01*
X-00040092Y00142351D01*
Y00142574D01*
X-00040055Y00142871D01*
X-00040018Y00143204D01*
X-00039944Y00143576D01*
X-00039795Y00144392D01*
X-00039573Y00145320D01*
X-00039239Y00146322D01*
X-00038830Y00147361D01*
X-00038274Y00148363D01*
X-00037606Y00149365D01*
X-00037198Y00149810D01*
X-00036790Y00150292D01*
X-00036307Y00150701D01*
X-00035825Y00151109D01*
X-00035268Y00151480D01*
X-00034637Y00151814D01*
X-00034006Y00152111D01*
X-00033301Y00152333D01*
X-00032559Y00152556D01*
X-00031780Y00152704D01*
X-00030926Y00152779D01*
X-00029999Y00152816D01*
X-00021686D01*
Y00147138D01*
D02*
G37*
G36*
X-00058239Y00152927D02*
X-00057868Y00152890D01*
X-00057422Y00152779D01*
X-00056866Y00152630D01*
X-00056272Y00152371D01*
X-00055641Y00152037D01*
X-00055047Y00151554D01*
X-00055010D01*
X-00054973Y00151480D01*
X-00054788Y00151294D01*
X-00054491Y00150960D01*
X-00054157Y00150552D01*
X-00053748Y00149996D01*
X-00053340Y00149328D01*
X-00052969Y00148548D01*
X-00052635Y00147658D01*
X-00049036Y00136562D01*
Y00136525D01*
X-00048961Y00136451D01*
X-00048887Y00136339D01*
X-00048776Y00136302D01*
X-00048739D01*
X-00048664Y00136339D01*
X-00048590Y00136451D01*
X-00048553Y00136673D01*
Y00152779D01*
X-00042653D01*
Y00136562D01*
Y00136488D01*
Y00136339D01*
X-00042690Y00136080D01*
X-00042727Y00135746D01*
X-00042764Y00135374D01*
X-00042838Y00134966D01*
X-00042987Y00134521D01*
X-00043135Y00134113D01*
X-00043172Y00134076D01*
X-00043209Y00133927D01*
X-00043321Y00133705D01*
X-00043469Y00133445D01*
X-00043655Y00133148D01*
X-00043914Y00132851D01*
X-00044174Y00132517D01*
X-00044471Y00132220D01*
X-00044508Y00132183D01*
X-00044620Y00132109D01*
X-00044805Y00131960D01*
X-00045028Y00131775D01*
X-00045325Y00131589D01*
X-00045659Y00131404D01*
X-00046030Y00131218D01*
X-00046438Y00131033D01*
X-00046475D01*
X-00046624Y00130958D01*
X-00046846Y00130921D01*
X-00047143Y00130847D01*
X-00047514Y00130773D01*
X-00047922Y00130699D01*
X-00048405Y00130662D01*
X-00048887Y00130625D01*
X-00049073D01*
X-00049221Y00130662D01*
X-00049592Y00130699D01*
X-00050038Y00130773D01*
X-00050594Y00130921D01*
X-00051151Y00131107D01*
X-00051745Y00131404D01*
X-00052338Y00131775D01*
X-00052413Y00131812D01*
X-00052598Y00131997D01*
X-00052858Y00132257D01*
X-00053192Y00132628D01*
X-00053563Y00133074D01*
X-00053934Y00133667D01*
X-00054268Y00134335D01*
X-00054565Y00135078D01*
X-00058424Y00146990D01*
Y00147027D01*
X-00058461Y00147138D01*
X-00058536Y00147212D01*
X-00058684Y00147249D01*
X-00058721D01*
X-00058758Y00147212D01*
X-00058833Y00147138D01*
X-00058870Y00146953D01*
Y00130810D01*
X-00064770D01*
Y00146990D01*
Y00147064D01*
Y00147212D01*
X-00064733Y00147472D01*
X-00064696Y00147806D01*
X-00064659Y00148177D01*
X-00064584Y00148585D01*
X-00064473Y00149031D01*
X-00064325Y00149439D01*
X-00064288Y00149476D01*
X-00064250Y00149625D01*
X-00064139Y00149847D01*
X-00063991Y00150107D01*
X-00063805Y00150404D01*
X-00063583Y00150701D01*
X-00063026Y00151332D01*
X-00062989Y00151369D01*
X-00062877Y00151443D01*
X-00062692Y00151591D01*
X-00062469Y00151777D01*
X-00062172Y00151962D01*
X-00061801Y00152148D01*
X-00061430Y00152333D01*
X-00061022Y00152519D01*
X-00060985Y00152556D01*
X-00060836Y00152593D01*
X-00060577Y00152667D01*
X-00060280Y00152742D01*
X-00059909Y00152816D01*
X-00059500Y00152890D01*
X-00059055Y00152964D01*
X-00058387D01*
X-00058239Y00152927D01*
D02*
G37*
G36*
X-00069076Y00207652D02*
X-00064559Y00206282D01*
X-00061045Y00204403D01*
X-00061074Y00204357D01*
X-00061073Y00204357D01*
X-00063250Y00205018D01*
X-00067424Y00205429D01*
X-00071597Y00205018D01*
X-00075610Y00203800D01*
X-00079308Y00201823D01*
X-00082550Y00199163D01*
X-00085210Y00195921D01*
X-00087187Y00192223D01*
X-00088405Y00188210D01*
X-00088816Y00184037D01*
X-00088405Y00179863D01*
X-00087187Y00175850D01*
X-00085210Y00172152D01*
X-00082550Y00168910D01*
X-00079308Y00166250D01*
X-00075610Y00164273D01*
X-00071597Y00163055D01*
X-00067424Y00162644D01*
X-00063250Y00163055D01*
X-00061073Y00163716D01*
X-00061045Y00163670D01*
X-00064559Y00161791D01*
X-00069076Y00160421D01*
X-00073773Y00159958D01*
X-00078471Y00160421D01*
X-00082988Y00161791D01*
X-00087151Y00164016D01*
X-00090799Y00167011D01*
X-00093794Y00170659D01*
X-00096019Y00174822D01*
X-00097389Y00179339D01*
X-00097852Y00184037D01*
X-00097389Y00188734D01*
X-00096019Y00193251D01*
X-00093794Y00197414D01*
X-00090799Y00201062D01*
X-00087151Y00204057D01*
X-00082988Y00206282D01*
X-00078471Y00207652D01*
X-00073773Y00208115D01*
X-00069076Y00207652D01*
D02*
G37*
G36*
X-00008116D02*
X-00003599Y00206282D01*
X00000564Y00204057D01*
X00004212Y00201062D01*
X00007207Y00197414D01*
X00009432Y00193251D01*
X00010802Y00188734D01*
X00011265Y00184037D01*
X00010802Y00179339D01*
X00009432Y00174822D01*
X00007207Y00170659D01*
X00004212Y00167011D01*
X00000564Y00164016D01*
X-00003599Y00161791D01*
X-00008116Y00160421D01*
X-00012814Y00159958D01*
X-00017511Y00160421D01*
X-00022028Y00161791D01*
X-00025543Y00163670D01*
X-00025513Y00163716D01*
X-00025514Y00163716D01*
X-00023337Y00163055D01*
X-00019164Y00162644D01*
X-00014990Y00163055D01*
X-00010977Y00164273D01*
X-00007279Y00166250D01*
X-00004037Y00168910D01*
X-00001377Y00172152D01*
X00000600Y00175850D01*
X00001817Y00179863D01*
X00002229Y00184037D01*
X00001817Y00188210D01*
X00000600Y00192223D01*
X-00001377Y00195921D01*
X-00004037Y00199163D01*
X-00007279Y00201823D01*
X-00010977Y00203800D01*
X-00014990Y00205018D01*
X-00019164Y00205429D01*
X-00023337Y00205018D01*
X-00025514Y00204357D01*
X-00025543Y00204403D01*
X-00022028Y00206282D01*
X-00017511Y00207652D01*
X-00012814Y00208115D01*
X-00008116Y00207652D01*
D02*
G37*
%LPC*%
G36*
X-00007325Y00147138D02*
X-00011778D01*
Y00136488D01*
X-00007250D01*
X-00007028Y00136525D01*
X-00006731Y00136562D01*
X-00006323Y00136636D01*
X-00005877Y00136785D01*
X-00005432Y00137007D01*
X-00005024Y00137341D01*
X-00004653Y00137750D01*
X-00004616Y00137824D01*
X-00004504Y00138009D01*
X-00004356Y00138306D01*
X-00004207Y00138751D01*
X-00004059Y00139308D01*
X-00003911Y00140013D01*
X-00003799Y00140867D01*
X-00003762Y00141349D01*
Y00141869D01*
Y00141943D01*
Y00142091D01*
X-00003799Y00142351D01*
Y00142685D01*
X-00003873Y00143093D01*
X-00003948Y00143539D01*
X-00004059Y00144021D01*
X-00004207Y00144503D01*
X-00004393Y00144986D01*
X-00004616Y00145468D01*
X-00004913Y00145913D01*
X-00005246Y00146322D01*
X-00005655Y00146656D01*
X-00006137Y00146916D01*
X-00006694Y00147064D01*
X-00007325Y00147138D01*
D02*
G37*
%LPD*%
D16*
X-00066910Y00059325D02*
G03*
X-00066910Y00062575I00000000J00001625D01*
G01*
X-00005400Y00223520D02*
X00005400D01*
X-00005400Y00287020D02*
X00005400D01*
X-00031750Y00249870D02*
Y00260670D01*
X00031750Y00249870D02*
Y00260670D01*
X-00049810Y00043200D02*
X-00032010D01*
X-00014910D02*
Y00079450D01*
X-00066910D02*
X-00032760D01*
X-00066910Y00062575D02*
Y00074600D01*
Y00043200D02*
Y00059325D01*
X-00032010Y00043200D02*
X-00014910D01*
X-00066910D02*
X-00049810D01*
X-00032760Y00079450D02*
X-00014910D01*
X-00066910Y00074700D02*
Y00079450D01*
X00045340Y00098870D02*
Y00106870D01*
X00061340Y00098870D02*
Y00106870D01*
X00040640Y00158750D02*
Y00168747D01*
X00045638D01*
X00047305Y00167081D01*
Y00163748D01*
X00045638Y00162082D01*
X00040640D01*
X00050637Y00168747D02*
Y00158750D01*
X00053969Y00162082D01*
X00057301Y00158750D01*
Y00168747D01*
X00060634Y00158750D02*
Y00168747D01*
X00065632D01*
X00067298Y00167081D01*
Y00163748D01*
X00065632Y00162082D01*
X00060634D01*
X00063966D02*
X00067298Y00158750D01*
X-00008576Y00123901D02*
X-00010242Y00125567D01*
X-00013574D01*
X-00015240Y00123901D01*
Y00117236D01*
X-00013574Y00115570D01*
X-00010242D01*
X-00008576Y00117236D01*
X-00005243Y00115570D02*
X-00001911D01*
X-00003577D01*
Y00125567D01*
X-00005243Y00123901D01*
X00025714Y00137871D02*
X00024048Y00139537D01*
X00020716D01*
X00019050Y00137871D01*
Y00131206D01*
X00020716Y00129540D01*
X00024048D01*
X00025714Y00131206D01*
X00035711Y00129540D02*
X00029047D01*
X00035711Y00136205D01*
Y00137871D01*
X00034045Y00139537D01*
X00030713D01*
X00029047Y00137871D01*
X00052385D02*
X00050718Y00139537D01*
X00047386D01*
X00045720Y00137871D01*
Y00131206D01*
X00047386Y00129540D01*
X00050718D01*
X00052385Y00131206D01*
X00055717Y00137871D02*
X00057383Y00139537D01*
X00060715D01*
X00062381Y00137871D01*
Y00136205D01*
X00060715Y00134538D01*
X00059049D01*
X00060715D01*
X00062381Y00132872D01*
Y00131206D01*
X00060715Y00129540D01*
X00057383D01*
X00055717Y00131206D01*
X00049844Y00267807D02*
X00046512D01*
X00048178D01*
Y00259476D01*
X00046512Y00257810D01*
X00044846D01*
X00043180Y00259476D01*
X00053177Y00257810D02*
X00056509D01*
X00054843D01*
Y00267807D01*
X00053177Y00266141D01*
X00012860Y00159050D02*
Y00169047D01*
X00017858D01*
X00019525Y00167381D01*
Y00164048D01*
X00017858Y00162382D01*
X00012860D01*
X00016192D02*
X00019525Y00159050D01*
X00022857D02*
X00026189D01*
X00024523D01*
Y00169047D01*
X00022857Y00167381D01*
X00063500Y00187360D02*
X00065666Y00189526D01*
X00069998D01*
X00072164Y00187360D01*
Y00185194D01*
X00069998Y00183028D01*
X00072164Y00180862D01*
Y00178696D01*
X00069998Y00176530D01*
X00065666D01*
X00063500Y00178696D01*
Y00180862D01*
X00065666Y00183028D01*
X00063500Y00185194D01*
Y00187360D01*
X00065666Y00183028D02*
X00069998D01*
X00085160Y00189526D02*
X00080828Y00187360D01*
X00076496Y00183028D01*
Y00178696D01*
X00078662Y00176530D01*
X00082994D01*
X00085160Y00178696D01*
Y00180862D01*
X00082994Y00183028D01*
X00076496D01*
X00089492Y00187360D02*
X00091658Y00189526D01*
X00095990D01*
X00098155Y00187360D01*
Y00185194D01*
X00095990Y00183028D01*
X00098155Y00180862D01*
Y00178696D01*
X00095990Y00176530D01*
X00091658D01*
X00089492Y00178696D01*
Y00180862D01*
X00091658Y00183028D01*
X00089492Y00185194D01*
Y00187360D01*
X00091658Y00183028D02*
X00095990D01*
X00012659Y00210616D02*
Y00208117D01*
X00010160D01*
X00015158D01*
X00012659D01*
Y00200619D01*
X00015158Y00198120D01*
X00022656Y00208117D02*
Y00198120D01*
Y00203118D01*
X00025155Y00205618D01*
X00027654Y00208117D01*
X00030154D01*
X00040150D02*
X00045149D01*
X00047648Y00205618D01*
Y00198120D01*
X00040150D01*
X00037651Y00200619D01*
X00040150Y00203118D01*
X00047648D01*
X00052646Y00198120D02*
Y00208117D01*
X00060144D01*
X00062643Y00205618D01*
Y00198120D01*
X00067641D02*
X00075139D01*
X00077638Y00200619D01*
X00075139Y00203118D01*
X00070141D01*
X00067641Y00205618D01*
X00070141Y00208117D01*
X00077638D01*
X00092633D02*
X00085136D01*
X00082636Y00205618D01*
Y00200619D01*
X00085136Y00198120D01*
X00092633D01*
X00097632D02*
Y00200619D01*
X00100131D01*
Y00198120D01*
X00097632D01*
X00025548Y00176530D02*
Y00189526D01*
X00019050Y00183028D01*
X00027714D01*
X00032046Y00187360D02*
X00034212Y00189526D01*
X00038544D01*
X00040710Y00187360D01*
Y00185194D01*
X00038544Y00183028D01*
X00036378D01*
X00038544D01*
X00040710Y00180862D01*
Y00178696D01*
X00038544Y00176530D01*
X00034212D01*
X00032046Y00178696D01*
X00051540Y00176530D02*
Y00189526D01*
X00045042Y00183028D01*
X00053706D01*
X00055880Y00173990D02*
X00061841Y00191873D01*
D18*
X-00090170Y00237704D02*
Y00219710D01*
X-00078174D01*
X-00060180Y00234705D02*
X-00063179Y00237704D01*
X-00069177D01*
X-00072176Y00234705D01*
Y00231706D01*
X-00069177Y00228707D01*
X-00063179D01*
X-00060180Y00225708D01*
Y00222709D01*
X-00063179Y00219710D01*
X-00069177D01*
X-00072176Y00222709D01*
X-00054182Y00237704D02*
X-00048184D01*
X-00051183D01*
Y00219710D01*
X-00054182D01*
X-00048184D01*
X00044450Y00238974D02*
Y00220980D01*
X00053447D01*
X00056446Y00223979D01*
Y00235975D01*
X00053447Y00238974D01*
X00044450D01*
X00062444D02*
X00068442D01*
X00065443D01*
Y00220980D01*
X00062444D01*
X00068442D01*
X00089435Y00238974D02*
X00077439D01*
Y00220980D01*
X00089435D01*
X00077439Y00229977D02*
X00083437D01*
D29*
X-00037064Y00252781D02*
G03*
X-00056915Y00255219I-00009926J00001219D01*
G01*
X-00077001Y00257707D02*
G03*
X-00057150Y00255270I00009926J-00001219D01*
G01*
X-00061074Y00204357D02*
G03*
X-00061074Y00163716I-00012700J-00020320D01*
G01*
X-00025513Y00164986D02*
G03*
X-00025513Y00205627I00012700J00020320D01*
G01*
X-00061073Y00204356D02*
G03*
X-00061073Y00163717I-00006350J-00020320D01*
G01*
X-00025514Y00164986D02*
G03*
X-00025514Y00205627I00006350J00020320D01*
G01*
X-00019164Y00195466D02*
G03*
X-00067407Y00195506I-00024130J-00010160D01*
G01*
X-00067424Y00175147D02*
G03*
X-00019180Y00175107I00024130J00010160D01*
G01*
X-00019164Y00195466D02*
G03*
X-00067392Y00195500I-00024130J-00022860D01*
G01*
X-00067424Y00175147D02*
G03*
X-00019195Y00175113I00024130J00022860D01*
G01*
X-00062344Y00185588D02*
G03*
X-00062331Y00185306I-00012126J-00000695D01*
G01*
X00001144Y00185588D02*
G03*
X00001156Y00185306I-00012126J-00000695D01*
G01*
X-00030600Y00185588D02*
G03*
X-00030587Y00185306I-00012126J-00000695D01*
G01*
D30*
X-00041910Y00010160D02*
Y00018157D01*
X-00039244Y00015492D01*
X-00036578Y00018157D01*
Y00010160D01*
X-00033913D02*
Y00018157D01*
X-00029914D01*
X-00028581Y00016825D01*
Y00014159D01*
X-00029914Y00012826D01*
X-00033913D01*
X-00031247D02*
X-00028581Y00010160D01*
X-00020584Y00018157D02*
X-00025915D01*
Y00014159D01*
X-00023249D01*
X-00025915D01*
Y00010160D01*
X-00013919D02*
Y00018157D01*
X-00017918Y00014159D01*
X-00012586D01*
X-00009920Y00011493D02*
X-00008587Y00010160D01*
X-00005922D01*
X-00004589Y00011493D01*
Y00016825D01*
X-00005922Y00018157D01*
X-00008587D01*
X-00009920Y00016825D01*
Y00015492D01*
X-00008587Y00014159D01*
X-00004589D01*
X-00001923Y00018157D02*
X00003409Y00010160D01*
Y00018157D02*
X-00001923Y00010160D01*
X00006075D02*
Y00015492D01*
X00008740Y00018157D01*
X00011406Y00015492D01*
Y00010160D01*
Y00014159D01*
X00006075D01*
X00016510Y00027318D02*
X00021175Y00020320D01*
Y00027318D02*
X00016510Y00020320D01*
X00023508D02*
X00025840D01*
X00024674D01*
Y00027318D01*
X00023508Y00026151D01*
X00034290Y00023237D02*
X00039622Y00015240D01*
Y00023237D02*
X00034290Y00015240D01*
X00042287Y00023237D02*
X00047619D01*
X00044953D01*
Y00015240D01*
X00050285D02*
Y00020572D01*
X00052951Y00023237D01*
X00055616Y00020572D01*
Y00015240D01*
Y00019239D01*
X00050285D01*
X00058282Y00023237D02*
Y00015240D01*
X00063614D01*
D31*
X-00075244Y00138682D02*
X-00076577Y00137349D01*
Y00134683D01*
X-00075244Y00133350D01*
X-00069913D01*
X-00068580Y00134683D01*
Y00137349D01*
X-00069913Y00138682D01*
X-00072579D01*
Y00136016D01*
X-00068580Y00141347D02*
X-00076577D01*
X-00068580Y00146679D01*
X-00076577D01*
Y00149345D02*
X-00068580D01*
Y00153344D01*
X-00069913Y00154676D01*
X-00075244D01*
X-00076577Y00153344D01*
Y00149345D01*
X00074412Y00147735D02*
X00075578Y00148901D01*
Y00151234D01*
X00074412Y00152400D01*
X00069746D01*
X00068580Y00151234D01*
Y00148901D01*
X00069746Y00147735D01*
X00072079D01*
Y00150067D01*
X00068580Y00145402D02*
X00075578D01*
X00068580Y00140737D01*
X00075578D01*
Y00138405D02*
X00068580D01*
Y00134906D01*
X00069746Y00133739D01*
X00074412D01*
X00075578Y00134906D01*
Y00138405D01*
Y00098205D02*
Y00102870D01*
X00072079D01*
Y00100537D01*
Y00102870D01*
X00068580D01*
X00075578Y00095872D02*
Y00093540D01*
Y00094706D01*
X00068580D01*
Y00095872D01*
Y00093540D01*
Y00090041D02*
X00075578D01*
X00068580Y00085376D01*
X00075578D01*
Y00083043D02*
Y00078378D01*
Y00080710D01*
X00068580D01*
X-00069850Y00104036D02*
X-00076848D01*
Y00106369D02*
X-00069850D01*
X-00074515Y00102870D02*
Y00106369D01*
Y00107535D01*
X-00072183Y00102870D02*
Y00107535D01*
X-00069850Y00109868D02*
X-00076848D01*
Y00113367D01*
X-00075682Y00114533D01*
X-00073349D01*
X-00072183Y00113367D01*
Y00109868D01*
Y00112200D02*
X-00069850Y00114533D01*
X-00075682Y00121531D02*
X-00076848Y00120364D01*
Y00118032D01*
X-00075682Y00116866D01*
X-00074515D01*
X-00073349Y00118032D01*
Y00120364D01*
X-00072183Y00121531D01*
X-00071016D01*
X-00069850Y00120364D01*
Y00118032D01*
X-00071016Y00116866D01*
X-00076848Y00123863D02*
Y00128528D01*
Y00126196D01*
X-00069850D01*
X-00076848Y00081280D02*
Y00083613D01*
Y00082446D01*
X-00069850D01*
Y00081280D01*
Y00083613D01*
Y00087112D02*
X-00076848D01*
X-00069850Y00091777D01*
X-00076848D01*
Y00094109D02*
Y00098774D01*
Y00096442D01*
X-00069850D01*
X-00076848Y00057150D02*
Y00059483D01*
Y00058316D01*
X-00069850D01*
Y00057150D01*
Y00059483D01*
Y00062982D02*
X-00076848D01*
Y00066480D01*
X-00075682Y00067647D01*
X-00073349D01*
X-00072183Y00066480D01*
Y00062982D01*
Y00065314D02*
X-00069850Y00067647D01*
X-00076848Y00073478D02*
Y00071146D01*
X-00075682Y00069979D01*
X-00071016D01*
X-00069850Y00071146D01*
Y00073478D01*
X-00071016Y00074644D01*
X-00075682D01*
X-00076848Y00073478D01*
X-00075682Y00036415D02*
X-00076848Y00035249D01*
Y00032916D01*
X-00075682Y00031750D01*
X-00074515D01*
X-00073349Y00032916D01*
Y00035249D01*
X-00072183Y00036415D01*
X-00071016D01*
X-00069850Y00035249D01*
Y00032916D01*
X-00071016Y00031750D01*
X-00076848Y00038748D02*
X-00069850D01*
Y00042247D01*
X-00071016Y00043413D01*
X-00075682D01*
X-00076848Y00042247D01*
Y00038748D01*
Y00045746D02*
Y00048078D01*
Y00046912D01*
X-00069850D01*
Y00045746D01*
Y00048078D01*
X-00075682Y00009745D02*
X-00076848Y00008579D01*
Y00006246D01*
X-00075682Y00005080D01*
X-00074515D01*
X-00073349Y00006246D01*
Y00008579D01*
X-00072183Y00009745D01*
X-00071016D01*
X-00069850Y00008579D01*
Y00006246D01*
X-00071016Y00005080D01*
X-00075682Y00016743D02*
X-00076848Y00015577D01*
Y00013244D01*
X-00075682Y00012078D01*
X-00071016D01*
X-00069850Y00013244D01*
Y00015577D01*
X-00071016Y00016743D01*
X-00076848Y00019075D02*
X-00069850D01*
X-00072183D01*
X-00076848Y00023741D01*
X-00073349Y00020242D01*
X-00069850Y00023741D01*
X00075578Y00127000D02*
X00070913D01*
X00068580Y00124667D01*
X00070913Y00122335D01*
X00075578D01*
X00068580Y00120002D02*
Y00117670D01*
Y00118836D01*
X00073245D01*
Y00120002D01*
X00068580Y00114171D02*
X00073245D01*
Y00110672D01*
X00072079Y00109506D01*
X00068580D01*
X00075578Y00070265D02*
Y00074930D01*
X00072079D01*
Y00072597D01*
Y00074930D01*
X00068580D01*
X00074412Y00063267D02*
X00075578Y00064433D01*
Y00066766D01*
X00074412Y00067932D01*
X00073245D01*
X00072079Y00066766D01*
Y00064433D01*
X00070913Y00063267D01*
X00069746D01*
X00068580Y00064433D01*
Y00066766D01*
X00069746Y00067932D01*
X00075578Y00056269D02*
Y00060935D01*
X00068580D01*
Y00056269D01*
X00072079Y00060935D02*
Y00058602D01*
X00075578Y00053937D02*
X00068580D01*
Y00049272D01*
Y00044554D02*
X00075578D01*
Y00042221D02*
X00068580D01*
X00073245Y00045720D02*
Y00042221D01*
Y00041055D01*
X00070913Y00045720D02*
Y00041055D01*
X00074412Y00034057D02*
X00075578Y00035223D01*
Y00037556D01*
X00074412Y00038722D01*
X00069746D01*
X00068580Y00037556D01*
Y00035223D01*
X00069746Y00034057D01*
X00074412Y00027059D02*
X00075578Y00028226D01*
Y00030558D01*
X00074412Y00031725D01*
X00073245D01*
X00072079Y00030558D01*
Y00028226D01*
X00070913Y00027059D01*
X00069746D01*
X00068580Y00028226D01*
Y00030558D01*
X00069746Y00031725D01*
X00074412Y00018195D02*
X00075578Y00019361D01*
Y00021694D01*
X00074412Y00022860D01*
X00073245D01*
X00072079Y00021694D01*
Y00019361D01*
X00070913Y00018195D01*
X00069746D01*
X00068580Y00019361D01*
Y00021694D01*
X00069746Y00022860D01*
X00075578Y00015862D02*
X00068580D01*
Y00012363D01*
X00069746Y00011197D01*
X00074412D01*
X00075578Y00012363D01*
Y00015862D01*
Y00005366D02*
Y00007698D01*
X00074412Y00008864D01*
X00069746D01*
X00068580Y00007698D01*
Y00005366D01*
X00069746Y00004199D01*
X00074412D01*
X00075578Y00005366D01*
M02*
