%FSAX44Y44*%
%MOMM*%
G71*
G01*
G75*
G04 Layer_Physical_Order=1*
G04 Layer_Color=255*
%ADD10R,0.8000X0.9000*%
%ADD11R,0.9000X0.8000*%
%ADD12R,1.2000X2.0000*%
%ADD13O,0.4500X1.5000*%
%ADD14R,0.4500X1.5000*%
%ADD15R,1.8000X1.3000*%
%ADD16C,0.2000*%
%ADD17C,0.3000*%
%ADD18C,0.4000*%
%ADD19C,0.7000*%
%ADD20C,0.5000*%
%ADD21R,2.4130X3.6830*%
%ADD22C,2.3000*%
%ADD23R,2.4400X2.4400*%
%ADD24R,2.4400X2.4400*%
%ADD25C,1.0000*%
%ADD26C,1.8000*%
%ADD27C,0.8000*%
G36*
X-00004559Y00115520D02*
X-00000350Y00113777D01*
X00000960D01*
Y00113730D01*
X00013960D01*
Y00113777D01*
X00021440D01*
Y00111490D01*
X00034440D01*
Y00113777D01*
X00042340D01*
Y00108870D01*
X00064340D01*
Y00113427D01*
X00076274D01*
X00079431Y00110270D01*
X00080321Y00108121D01*
X00088740Y00104634D01*
X00097159Y00108121D01*
X00098966Y00112483D01*
X00100212Y00112235D01*
Y00095445D01*
X00098966Y00095197D01*
X00097159Y00099559D01*
X00088740Y00103046D01*
X00080321Y00099559D01*
X00076834Y00091140D01*
X00079276Y00085244D01*
X00068441Y00074409D01*
X00067332Y00071730D01*
X00067332Y00071730D01*
Y00063064D01*
X00067252Y00062871D01*
X00067252Y00062871D01*
Y00024349D01*
X00064781Y00021878D01*
X-00014464D01*
X-00014907Y00022947D01*
D01*
D01*
X-00013560Y00026200D01*
Y00036700D01*
X-00014907Y00039953D01*
X-00018160Y00041300D01*
X-00021410Y00039954D01*
X-00024660Y00041300D01*
X-00027910Y00039954D01*
X-00031160Y00041300D01*
X-00034410Y00039954D01*
X-00034925Y00040167D01*
X-00035364Y00041226D01*
X-00036145Y00042007D01*
X-00035440Y00043063D01*
X-00035720Y00043179D01*
Y00050233D01*
X-00033180D01*
Y00043179D01*
X-00029092Y00044872D01*
X-00028735Y00045735D01*
X-00027465D01*
X-00027108Y00044872D01*
X-00023020Y00043179D01*
Y00050233D01*
X-00021753D01*
Y00051500D01*
X-00014699D01*
X-00016392Y00055588D01*
X-00016395Y00055589D01*
Y00056392D01*
D01*
X-00014702Y00060480D01*
X-00021755D01*
Y00063020D01*
X-00014702D01*
X-00016395Y00067108D01*
D01*
X-00016395Y00067108D01*
Y00067108D01*
X-00014181Y00073077D01*
X-00014701Y00071820D01*
X-00021755D01*
Y00073088D01*
X-00023022D01*
Y00080141D01*
X-00021753Y00080667D01*
X-00021828Y00080849D01*
X-00020930Y00081747D01*
X-00018160Y00080600D01*
X-00014907Y00081947D01*
X-00014455Y00083039D01*
X-00013209Y00083287D01*
X-00010130Y00080207D01*
Y00065690D01*
X00005870D01*
Y00088922D01*
X00010370D01*
Y00078960D01*
X00026370D01*
Y00083623D01*
X00027543Y00084109D01*
X00032082Y00079570D01*
Y00070810D01*
X00032082Y00070810D01*
X00033191Y00068131D01*
X00035935Y00065387D01*
Y00029210D01*
X00036569Y00027679D01*
X00038100Y00027045D01*
X00062230D01*
X00063761Y00027679D01*
X00064395Y00029210D01*
Y00066040D01*
X00063761Y00067571D01*
X00062230Y00068205D01*
X00043833D01*
X00039658Y00072379D01*
Y00081140D01*
X00039658Y00081140D01*
X00038874Y00083034D01*
X00038549Y00083819D01*
X00038549Y00083819D01*
X00026978Y00095389D01*
X00024300Y00096498D01*
Y00096592D01*
X00025198Y00097490D01*
X00026670D01*
Y00102220D01*
X00021440D01*
Y00097490D01*
X00021440D01*
Y00097396D01*
X00020542Y00096498D01*
X00002540D01*
X-00000139Y00095389D01*
X-00000139Y00095389D01*
X-00004809Y00090719D01*
X-00005235Y00089690D01*
X-00007367D01*
X-00011188Y00093511D01*
X-00013560Y00094494D01*
Y00095700D01*
X-00014907Y00098953D01*
X-00018160Y00100300D01*
X-00019835Y00099606D01*
X-00020891Y00100312D01*
Y00102241D01*
X-00020043Y00102592D01*
X-00017823Y00107950D01*
X-00018343Y00109204D01*
Y00110030D01*
X-00019294Y00112326D01*
X-00019454Y00112486D01*
X-00019754Y00112610D01*
X-00020043Y00113308D01*
X-00025400Y00115527D01*
X-00027379Y00114707D01*
X-00028277Y00115605D01*
X-00026713Y00119380D01*
X-00028932Y00124738D01*
Y00124738D01*
Y00124738D01*
Y00124738D01*
X-00028909Y00124857D01*
X-00013896D01*
X-00004559Y00115520D01*
D02*
G37*
G36*
X-00068260Y00085200D02*
X-00066913Y00081947D01*
X-00063660Y00080600D01*
X-00060627Y00081856D01*
X-00060119Y00081347D01*
Y00080556D01*
X-00059850Y00080667D01*
X-00058580Y00080141D01*
Y00073088D01*
X-00059847D01*
Y00071820D01*
X-00066901D01*
X-00065208Y00067733D01*
D01*
Y00067733D01*
Y00067733D01*
D01*
X-00065208Y00067017D01*
X-00065208D01*
X-00066901Y00062930D01*
X-00059847D01*
Y00060390D01*
X-00066901D01*
X-00065208Y00056302D01*
D01*
Y00056302D01*
Y00056302D01*
D01*
X-00065208Y00055588D01*
X-00065208D01*
X-00066901Y00051500D01*
X-00059847D01*
Y00048960D01*
X-00066901D01*
X-00065800Y00046303D01*
X-00066506Y00045247D01*
X-00067830D01*
X-00080425Y00057842D01*
X-00077154Y00065740D01*
X-00080641Y00074159D01*
X-00089060Y00077646D01*
X-00097479Y00074159D01*
X-00098966Y00070569D01*
X-00100212Y00070816D01*
Y00086064D01*
X-00098966Y00086312D01*
X-00097479Y00082721D01*
X-00089060Y00079234D01*
X-00080641Y00082721D01*
X-00078723Y00087352D01*
X-00068260D01*
Y00085200D01*
D02*
G37*
G36*
X00038871Y00295156D02*
X00038789Y00294957D01*
D01*
X00038753Y00294870D01*
X00026670D01*
Y00281940D01*
X00039600D01*
Y00294023D01*
X00039687Y00294059D01*
D01*
X00040773Y00294509D01*
X00100212Y00235071D01*
Y00234670D01*
Y00174130D01*
X00100212Y00174130D01*
X00100212Y00174130D01*
Y00146245D01*
X00098966Y00145997D01*
X00097159Y00150359D01*
X00090010Y00153320D01*
Y00141938D01*
Y00130560D01*
X00097159Y00133521D01*
X00098966Y00137883D01*
X00100212Y00137635D01*
Y00120845D01*
X00098966Y00120597D01*
X00097159Y00124959D01*
X00088740Y00128446D01*
X00080321Y00124959D01*
X00080222Y00124719D01*
X00078740Y00125333D01*
X00064340D01*
Y00125870D01*
X00042340D01*
Y00125683D01*
X00013960D01*
Y00125730D01*
X00002069D01*
X-00002916Y00130715D01*
X00010999Y00144630D01*
X00016780D01*
Y00157630D01*
X00004780D01*
Y00155249D01*
X-00013706Y00136763D01*
X-00046850D01*
X-00051059Y00135020D01*
X-00060250Y00125829D01*
X-00060591Y00125005D01*
X-00061238Y00124738D01*
X-00063457Y00119380D01*
X-00061993Y00115847D01*
Y00109220D01*
Y00105570D01*
X-00060250Y00101361D01*
X-00058958Y00100826D01*
Y00099556D01*
X-00060410Y00098954D01*
X-00063660Y00100300D01*
X-00066913Y00098953D01*
X-00068260Y00095700D01*
Y00094928D01*
X-00078723D01*
X-00080641Y00099559D01*
X-00089060Y00103046D01*
X-00097479Y00099559D01*
X-00098966Y00095969D01*
X-00100212Y00096216D01*
Y00111464D01*
X-00098966Y00111712D01*
X-00097479Y00108121D01*
X-00089060Y00104634D01*
X-00080641Y00108121D01*
X-00077154Y00116540D01*
X-00080641Y00124959D01*
X-00089060Y00128446D01*
X-00097479Y00124959D01*
X-00098966Y00121369D01*
X-00100212Y00121616D01*
Y00136864D01*
X-00098966Y00137112D01*
X-00097479Y00133521D01*
X-00090330Y00130560D01*
Y00141938D01*
Y00153320D01*
X-00097479Y00150359D01*
X-00098966Y00146769D01*
X-00100212Y00147016D01*
Y00235431D01*
X-00040773Y00294869D01*
X-00040302Y00294674D01*
X-00040302D01*
X-00039600Y00294383D01*
Y00281940D01*
X-00026670D01*
Y00294870D01*
X-00039113D01*
X-00039404Y00295572D01*
Y00295572D01*
X-00039599Y00296043D01*
X-00039431Y00296212D01*
X00038166D01*
X00038871Y00295156D01*
D02*
G37*
%LPC*%
G36*
X00064340Y00096870D02*
X00054610D01*
Y00089640D01*
X00064340D01*
Y00096870D01*
D02*
G37*
G36*
X00052070D02*
X00042340D01*
Y00089640D01*
X00052070D01*
Y00096870D01*
D02*
G37*
G36*
Y00087100D02*
X00042340D01*
Y00079870D01*
X00052070D01*
Y00087100D01*
D02*
G37*
G36*
X00064340D02*
X00054610D01*
Y00079870D01*
X00064340D01*
Y00087100D01*
D02*
G37*
G36*
X00026670Y00109490D02*
X00021440D01*
Y00104760D01*
X00026670D01*
Y00109490D01*
D02*
G37*
G36*
X00034440D02*
X00029210D01*
Y00104760D01*
X00034440D01*
Y00109490D01*
D02*
G37*
G36*
X00006190Y00111730D02*
X00000960D01*
Y00107000D01*
X00006190D01*
Y00111730D01*
D02*
G37*
G36*
X00034440Y00102220D02*
X00029210D01*
Y00097490D01*
X00034440D01*
Y00102220D01*
D02*
G37*
G36*
X00006190Y00104460D02*
X00000960D01*
Y00099730D01*
X00006190D01*
Y00104460D01*
D02*
G37*
G36*
X00013960D02*
X00008730D01*
Y00099730D01*
X00013960D01*
Y00104460D01*
D02*
G37*
G36*
X-00020482Y00080141D02*
Y00074360D01*
X-00014702D01*
X-00016395Y00078447D01*
X-00020482Y00080141D01*
D02*
G37*
G36*
X00026370Y00040920D02*
X00019640D01*
Y00030190D01*
X00026370D01*
Y00040920D01*
D02*
G37*
G36*
X-00014699Y00048960D02*
X-00020480D01*
Y00043179D01*
X-00016392Y00044872D01*
X-00014699Y00048960D01*
D02*
G37*
G36*
X-00003400Y00054190D02*
X-00010130D01*
Y00043460D01*
X-00003400D01*
Y00054190D01*
D02*
G37*
G36*
Y00040920D02*
X-00010130D01*
Y00030190D01*
X-00003400D01*
Y00040920D01*
D02*
G37*
G36*
X00005870D02*
X-00000860D01*
Y00030190D01*
X00005870D01*
Y00040920D01*
D02*
G37*
G36*
X00017100D02*
X00010370D01*
Y00030190D01*
X00017100D01*
Y00040920D01*
D02*
G37*
G36*
Y00076420D02*
X00010370D01*
Y00065690D01*
X00017100D01*
Y00076420D01*
D02*
G37*
G36*
X00026370D02*
X00019640D01*
Y00065690D01*
X00026370D01*
Y00076420D01*
D02*
G37*
G36*
X-00061120Y00080141D02*
X-00065208Y00078447D01*
X-00066901Y00074360D01*
X-00061120D01*
Y00080141D01*
D02*
G37*
G36*
X00005870Y00054190D02*
X-00000860D01*
Y00043460D01*
X00005870D01*
Y00054190D01*
D02*
G37*
G36*
X00017100D02*
X00010370D01*
Y00043460D01*
X00017100D01*
Y00054190D01*
D02*
G37*
G36*
X00026370D02*
X00019640D01*
Y00043460D01*
X00026370D01*
Y00054190D01*
D02*
G37*
G36*
X00024130Y00244070D02*
X00011200D01*
Y00231140D01*
X00024130D01*
Y00244070D01*
D02*
G37*
G36*
X00039600D02*
X00026670D01*
Y00231140D01*
X00039600D01*
Y00244070D01*
D02*
G37*
G36*
X00000000Y00269882D02*
X-00010332Y00265602D01*
X-00014612Y00255270D01*
X-00010332Y00244938D01*
X00000000Y00240658D01*
X00010332Y00244938D01*
X00014612Y00255270D01*
X00010332Y00265602D01*
X00000000Y00269882D01*
D02*
G37*
G36*
X00039600Y00228600D02*
X00026670D01*
Y00215670D01*
X00039600D01*
Y00228600D01*
D02*
G37*
G36*
X-00026670Y00244070D02*
X-00039600D01*
Y00231140D01*
X-00026670D01*
Y00244070D01*
D02*
G37*
G36*
X-00011200D02*
X-00024130D01*
Y00231140D01*
X-00011200D01*
Y00244070D01*
D02*
G37*
G36*
X00039600Y00279400D02*
X00026670D01*
Y00266470D01*
X00039600D01*
Y00279400D01*
D02*
G37*
G36*
X-00011200Y00294870D02*
X-00024130D01*
Y00281940D01*
X-00011200D01*
Y00294870D01*
D02*
G37*
G36*
X00024130D02*
X00011200D01*
Y00281940D01*
X00024130D01*
Y00294870D01*
D02*
G37*
G36*
X-00026670Y00279400D02*
X-00039600D01*
Y00266470D01*
X-00026670D01*
Y00279400D01*
D02*
G37*
G36*
X-00011200D02*
X-00024130D01*
Y00266470D01*
X-00011200D01*
Y00279400D01*
D02*
G37*
G36*
X00024130D02*
X00011200D01*
Y00266470D01*
X00024130D01*
Y00279400D01*
D02*
G37*
G36*
Y00228600D02*
X00011200D01*
Y00215670D01*
X00024130D01*
Y00228600D01*
D02*
G37*
G36*
X-00087790Y00153320D02*
Y00143210D01*
X-00077680D01*
X-00080641Y00150359D01*
X-00087790Y00153320D01*
D02*
G37*
G36*
X00087470D02*
X00080321Y00150359D01*
X00077360Y00143210D01*
X00087470D01*
Y00153320D01*
D02*
G37*
G36*
X00059070Y00149860D02*
X00054340D01*
Y00144630D01*
X00059070D01*
Y00149860D01*
D02*
G37*
G36*
X00013960Y00111730D02*
X00008730D01*
Y00107000D01*
X00013960D01*
Y00111730D01*
D02*
G37*
G36*
X-00077680Y00140670D02*
X-00087790D01*
Y00130560D01*
X-00080641Y00133521D01*
X-00077680Y00140670D01*
D02*
G37*
G36*
X00087470D02*
X00077360D01*
X00080321Y00133521D01*
X00087470Y00130560D01*
Y00140670D01*
D02*
G37*
G36*
X00052340Y00157630D02*
X00040340D01*
Y00154661D01*
X00030780D01*
Y00157630D01*
X00018780D01*
Y00144630D01*
X00030780D01*
Y00144919D01*
X00040340D01*
Y00144630D01*
X00052340D01*
Y00157630D01*
D02*
G37*
G36*
X-00026670Y00228600D02*
X-00039600D01*
Y00215670D01*
X-00026670D01*
Y00228600D01*
D02*
G37*
G36*
X-00011200D02*
X-00024130D01*
Y00215670D01*
X-00011200D01*
Y00228600D01*
D02*
G37*
G36*
X00066340Y00149860D02*
X00061610D01*
Y00144630D01*
X00066340D01*
Y00149860D01*
D02*
G37*
G36*
X00059070Y00157630D02*
X00054340D01*
Y00152400D01*
X00059070D01*
Y00157630D01*
D02*
G37*
G36*
X00066340D02*
X00061610D01*
Y00152400D01*
X00066340D01*
Y00157630D01*
D02*
G37*
%LPD*%
D10*
X00046340Y00151130D02*
D03*
X00060340D02*
D03*
X00024780Y00151130D02*
D03*
X00010780D02*
D03*
D11*
X00007460Y00105730D02*
D03*
Y00119730D02*
D03*
X00027940Y00103490D02*
D03*
Y00117490D02*
D03*
D12*
X-00002130Y00042190D02*
D03*
X00018370D02*
D03*
Y00077690D02*
D03*
X-00002130D02*
D03*
D13*
X-00018160Y00090450D02*
D03*
X-00024660D02*
D03*
X-00031160D02*
D03*
X-00037660D02*
D03*
X-00044160D02*
D03*
X-00050660D02*
D03*
X-00057160D02*
D03*
X-00063660D02*
D03*
X-00018160Y00031450D02*
D03*
X-00024660D02*
D03*
X-00031160D02*
D03*
X-00037660D02*
D03*
X-00044160D02*
D03*
X-00050660D02*
D03*
X-00057160D02*
D03*
D14*
X-00063660D02*
D03*
D15*
X00053340Y00088370D02*
D03*
Y00117370D02*
D03*
D16*
X-00034450Y00073090D02*
X-00031160Y00076380D01*
Y00090450D01*
X-00069940Y00042000D02*
X-00040730D01*
X-00037660Y00031450D02*
Y00038930D01*
X-00040730Y00042000D02*
X-00037660Y00038930D01*
X00080126Y00006350D02*
X00088740Y00014964D01*
X-00025400Y00107950D02*
X-00021590D01*
X-00065900Y00029210D02*
X-00063660Y00031450D01*
X-00089060Y00141940D02*
X-00082870D01*
X-00021840Y00060660D02*
X-00021753Y00060748D01*
X-00089060Y00141320D02*
Y00141940D01*
X-00021590Y00107950D02*
Y00110030D01*
X-00021750Y00110190D02*
X-00021590Y00110030D01*
D17*
X-00091560Y00063620D02*
X-00069940Y00042000D01*
X00035870Y00070810D02*
X00041910Y00064770D01*
X00035870Y00070810D02*
Y00081140D01*
X-00002130Y00081200D02*
Y00088040D01*
Y00077690D02*
Y00081200D01*
X00024300Y00092710D02*
X00035870Y00081140D01*
X00002540Y00092710D02*
X00024300D01*
X-00002130Y00088040D02*
X00002540Y00092710D01*
X00071120Y00062951D02*
Y00071730D01*
X00071040Y00062871D02*
X00071120Y00062951D01*
X00071040Y00022780D02*
Y00062871D01*
X00076040Y00060800D02*
X00080980Y00065740D01*
X00076040Y00016210D02*
Y00060800D01*
X-00018182Y00018090D02*
X00066350D01*
X00071040Y00022780D01*
X-00019050Y00011430D02*
X00007830D01*
X00006350Y00011350D02*
X00071180D01*
X00076040Y00016210D01*
X-00031160Y00023540D02*
X-00019050Y00011430D01*
X00071120Y00071730D02*
X00088740Y00089351D01*
X-00026670Y00006350D02*
X00080126D01*
X-00044160Y00023840D02*
X-00026670Y00006350D01*
X00080980Y00065740D02*
X00088740D01*
X-00089060Y00063660D02*
Y00065740D01*
X-00044160Y00023840D02*
Y00031450D01*
X-00031160Y00023540D02*
Y00031450D01*
X00088740Y00089351D02*
Y00091140D01*
X-00024660Y00024568D02*
X-00018182Y00018090D01*
X-00024660Y00024568D02*
Y00031450D01*
X-00077913Y00029210D02*
X-00065900D01*
X-00089043Y00040340D02*
X-00077913Y00029210D01*
X-00024680Y00091700D02*
Y00107950D01*
X-00089060Y00091140D02*
X-00064350D01*
X-00050660Y00015240D02*
Y00031450D01*
X-00057160Y00020170D02*
Y00031450D01*
X-00062390Y00014940D02*
X-00057160Y00020170D01*
X-00089060Y00014940D02*
X-00062390D01*
X00104000Y00234670D02*
Y00236640D01*
X-00104000Y00000000D02*
X00104000D01*
Y00174130D02*
X00104140Y00173990D01*
X00104000Y00000000D02*
Y00234670D01*
X-00041000Y00300000D02*
X00040640D01*
X-00104000Y00237000D02*
X-00041000Y00300000D01*
X-00104000Y00000000D02*
Y00237000D01*
X00040640Y00300000D02*
X00104000Y00236640D01*
D18*
X-00005000Y00081200D02*
X-00002130D01*
X-00014250Y00090450D02*
X-00005000Y00081200D01*
X-00018160Y00090450D02*
X-00014250D01*
X-00037660Y00103512D02*
X-00035160Y00106012D01*
X-00050660Y00090450D02*
Y00100190D01*
X-00037660Y00090450D02*
Y00103512D01*
X-00044160Y00090450D02*
Y00109740D01*
X-00035160Y00106012D02*
Y00117400D01*
D19*
X00007460Y00119730D02*
X00059410D01*
X00078740Y00119380D02*
X00083820Y00114300D01*
X00058420Y00119380D02*
X00078740D01*
X-00056040Y00105570D02*
Y00121620D01*
Y00109220D02*
Y00121620D01*
X00009080Y00151130D02*
X00010620D01*
X-00056040Y00121620D02*
X-00046850Y00130810D01*
X-00011240D01*
X-00011335Y00130715D02*
X00009080Y00151130D01*
X-00011335Y00130715D02*
X-00000350Y00119730D01*
X00007460D01*
D20*
X-00056040Y00105570D02*
X-00050660Y00100190D01*
X00025890Y00149790D02*
X00045720D01*
D21*
X00050165Y00047625D02*
D03*
D22*
X00000000Y00255270D02*
D03*
D23*
X-00025400Y00280670D02*
D03*
Y00229870D02*
D03*
D24*
X00025400Y00280670D02*
D03*
Y00229870D02*
D03*
D25*
X-00059850Y00073090D02*
D03*
X-00025400Y00107950D02*
D03*
X-00034450Y00050230D02*
D03*
X-00059850D02*
D03*
Y00061660D02*
D03*
X-00047150Y00050230D02*
D03*
Y00061660D02*
D03*
X-00034450D02*
D03*
Y00073090D02*
D03*
X-00021753Y00061750D02*
D03*
Y00073090D02*
D03*
X-00044160Y00109740D02*
D03*
X-00021750Y00050230D02*
D03*
X-00047150Y00073090D02*
D03*
X-00055880Y00119380D02*
D03*
X-00034290D02*
D03*
D26*
X00088740Y00116540D02*
D03*
Y00141940D02*
D03*
Y00065740D02*
D03*
Y00040340D02*
D03*
Y00014964D02*
D03*
X-00089060Y00091140D02*
D03*
Y00065740D02*
D03*
X-00089043Y00040340D02*
D03*
X-00089060Y00014940D02*
D03*
X00088740Y00091140D02*
D03*
X-00089060Y00141940D02*
D03*
Y00116540D02*
D03*
D27*
X-00050800Y00015240D02*
D03*
M02*
