%FSAX44Y44*%
%MOMM*%
G71*
G01*
G75*
G04 Layer_Physical_Order=2*
G04 Layer_Color=16711680*
%ADD10R,0.8000X0.9000*%
%ADD11R,0.9000X0.8000*%
%ADD12R,1.2000X2.0000*%
%ADD13O,0.4500X1.5000*%
%ADD14R,0.4500X1.5000*%
%ADD15R,1.8000X1.3000*%
%ADD16C,0.2000*%
%ADD17C,0.3000*%
%ADD18C,0.4000*%
%ADD19C,0.7000*%
%ADD20C,0.5000*%
%ADD21R,2.4130X3.6830*%
%ADD22C,2.3000*%
%ADD23R,2.4400X2.4400*%
%ADD24R,2.4400X2.4400*%
%ADD25C,1.0000*%
%ADD26C,1.8000*%
%ADD27C,0.8000*%
%ADD28C,0.6000*%
G36*
X00038871Y00295156D02*
X00038789Y00294957D01*
D01*
X00038753Y00294870D01*
X00026670D01*
Y00281940D01*
X00039600D01*
Y00294023D01*
X00039687Y00294059D01*
D01*
X00040773Y00294509D01*
X00100212Y00235071D01*
Y00234670D01*
Y00174130D01*
X00100212Y00174130D01*
X00100212Y00174130D01*
Y00146245D01*
X00098966Y00145997D01*
X00097159Y00150359D01*
X00090010Y00153320D01*
Y00141938D01*
Y00130560D01*
X00097159Y00133521D01*
X00098966Y00137883D01*
X00100212Y00137635D01*
Y00120845D01*
X00098966Y00120597D01*
X00097159Y00124959D01*
X00088740Y00128446D01*
X00080321Y00124959D01*
X00076834Y00116540D01*
X00080321Y00108121D01*
X00088740Y00104634D01*
X00097159Y00108121D01*
X00098966Y00112483D01*
X00100212Y00112235D01*
Y00095445D01*
X00098966Y00095197D01*
X00097159Y00099559D01*
X00088740Y00103046D01*
X00080321Y00099559D01*
X00076834Y00091140D01*
X00080321Y00082721D01*
X00088740Y00079234D01*
X00097159Y00082721D01*
X00098966Y00087083D01*
X00100212Y00086835D01*
Y00070045D01*
X00098966Y00069797D01*
X00097159Y00074159D01*
X00088740Y00077646D01*
X00080321Y00074159D01*
X00076834Y00065740D01*
X00080321Y00057321D01*
X00088740Y00053834D01*
X00097159Y00057321D01*
X00098966Y00061683D01*
X00100212Y00061435D01*
Y00044645D01*
X00098966Y00044397D01*
X00097159Y00048759D01*
X00088740Y00052246D01*
X00080321Y00048759D01*
X00076834Y00040340D01*
X00078752Y00035709D01*
X00062071Y00019028D01*
X-00045875D01*
X-00046208Y00019832D01*
X-00050800Y00021734D01*
X-00055392Y00019832D01*
X-00057294Y00015240D01*
X-00055392Y00010648D01*
X-00050800Y00008746D01*
X-00046208Y00010648D01*
X-00045875Y00011452D01*
X00063640D01*
X00063640Y00011452D01*
X00066319Y00012561D01*
X00084110Y00030352D01*
X00088740Y00028434D01*
X00097159Y00031921D01*
X00098966Y00036283D01*
X00100212Y00036035D01*
Y00019269D01*
X00098966Y00019021D01*
X00097159Y00023383D01*
X00088740Y00026870D01*
X00080321Y00023383D01*
X00076834Y00014964D01*
X00080321Y00006545D01*
X00083969Y00005034D01*
X00083721Y00003788D01*
X-00083983D01*
X-00084231Y00005034D01*
X-00080641Y00006521D01*
X-00077154Y00014940D01*
X-00080641Y00023359D01*
X-00089060Y00026846D01*
X-00097479Y00023359D01*
X-00098966Y00019769D01*
X-00100212Y00020016D01*
Y00035304D01*
X-00098966Y00035552D01*
X-00097462Y00031921D01*
X-00089043Y00028434D01*
X-00080624Y00031921D01*
X-00077137Y00040340D01*
X-00080624Y00048759D01*
X-00089043Y00052246D01*
X-00097462Y00048759D01*
X-00098966Y00045128D01*
X-00100212Y00045376D01*
Y00060664D01*
X-00098966Y00060911D01*
X-00097479Y00057321D01*
X-00089060Y00053834D01*
X-00080641Y00057321D01*
X-00079537Y00059985D01*
X-00078267D01*
X-00077596Y00058364D01*
X-00075300Y00057413D01*
X-00065668D01*
X-00065208Y00056302D01*
D01*
Y00056302D01*
Y00056302D01*
D01*
X-00065208Y00055588D01*
X-00065208D01*
X-00066496Y00052477D01*
X-00075770D01*
X-00078066Y00051526D01*
X-00079017Y00049230D01*
X-00078066Y00046934D01*
X-00075770Y00045983D01*
X-00065668D01*
X-00065208Y00044872D01*
X-00061120Y00043179D01*
Y00050233D01*
X-00058580D01*
Y00043179D01*
X-00054492Y00044872D01*
X-00054135Y00045735D01*
X-00052865D01*
X-00052508Y00044872D01*
X-00048420Y00043179D01*
Y00050233D01*
X-00045880D01*
Y00043179D01*
X-00041792Y00044872D01*
X-00041435Y00045735D01*
X-00040165D01*
X-00039808Y00044872D01*
X-00035720Y00043179D01*
Y00050233D01*
X-00033180D01*
Y00043179D01*
X-00029092Y00044872D01*
X-00028735Y00045735D01*
X-00027465D01*
X-00027108Y00044872D01*
X-00023020Y00043179D01*
Y00050233D01*
X-00021753D01*
Y00051500D01*
X-00014699D01*
X-00016392Y00055588D01*
X-00016395Y00055589D01*
Y00056392D01*
D01*
X-00014702Y00060480D01*
X-00021755D01*
Y00063020D01*
X-00014702D01*
X-00016395Y00067108D01*
D01*
X-00016395Y00067108D01*
Y00067108D01*
X-00014181Y00073077D01*
X-00014701Y00071820D01*
X-00021755D01*
Y00073088D01*
X-00023022D01*
Y00080141D01*
X-00027110Y00078447D01*
X-00027466Y00077588D01*
X-00028736D01*
X-00029092Y00078447D01*
X-00033180Y00080141D01*
Y00073088D01*
X-00035720D01*
Y00080141D01*
X-00039808Y00078447D01*
X-00040165Y00077585D01*
X-00041435D01*
X-00041792Y00078447D01*
X-00045880Y00080141D01*
Y00073088D01*
X-00048420D01*
Y00080141D01*
X-00052508Y00078447D01*
X-00052865Y00077585D01*
X-00054135D01*
X-00054492Y00078447D01*
X-00058580Y00080141D01*
Y00073088D01*
X-00059847D01*
Y00071820D01*
X-00066901D01*
X-00065208Y00067733D01*
D01*
Y00067733D01*
Y00067733D01*
D01*
X-00065208Y00067017D01*
X-00065208D01*
X-00066496Y00063907D01*
X-00075300D01*
X-00076921Y00063236D01*
X-00077819Y00064134D01*
X-00077154Y00065740D01*
X-00080641Y00074159D01*
X-00089060Y00077646D01*
X-00097479Y00074159D01*
X-00098966Y00070569D01*
X-00100212Y00070816D01*
Y00086064D01*
X-00098966Y00086312D01*
X-00097479Y00082721D01*
X-00089060Y00079234D01*
X-00080641Y00082721D01*
X-00077154Y00091140D01*
X-00080641Y00099559D01*
X-00089060Y00103046D01*
X-00097479Y00099559D01*
X-00098966Y00095969D01*
X-00100212Y00096216D01*
Y00111464D01*
X-00098966Y00111712D01*
X-00097479Y00108121D01*
X-00089060Y00104634D01*
X-00080641Y00108121D01*
X-00078723Y00112752D01*
X-00067309D01*
X-00052209Y00097651D01*
X-00052209Y00097651D01*
X-00049530Y00096542D01*
X-00035560D01*
X-00035560Y00096542D01*
X-00032881Y00097651D01*
X-00028765Y00101767D01*
X-00025400Y00100373D01*
X-00020043Y00102592D01*
X-00017823Y00107950D01*
X-00018343Y00109204D01*
Y00110030D01*
X-00019294Y00112326D01*
X-00019707Y00112497D01*
X-00020043Y00113308D01*
X-00025400Y00115527D01*
X-00027379Y00114707D01*
X-00028277Y00115605D01*
X-00026713Y00119380D01*
X-00028932Y00124738D01*
X-00029038Y00124781D01*
Y00188098D01*
X-00026653Y00190483D01*
X-00026653Y00190483D01*
X-00025861Y00192397D01*
X-00025068Y00194310D01*
X-00025068Y00194310D01*
Y00203820D01*
X-00025130Y00203970D01*
Y00210970D01*
X-00037130D01*
Y00209882D01*
X-00039070D01*
Y00210970D01*
X-00040928D01*
Y00225951D01*
X-00039755Y00226437D01*
X-00039600Y00226282D01*
Y00215670D01*
X-00026670D01*
Y00229867D01*
Y00244070D01*
X-00039600D01*
Y00240920D01*
X-00040340Y00240180D01*
X-00040498Y00240180D01*
X-00040498Y00240180D01*
Y00240180D01*
X-00052340D01*
Y00227180D01*
X-00051752D01*
Y00205740D01*
X-00051752Y00205740D01*
X-00051070Y00204094D01*
Y00198813D01*
X-00052243Y00198327D01*
X-00053070Y00199154D01*
Y00210970D01*
X-00065070D01*
Y00208800D01*
X-00070970D01*
Y00211090D01*
X-00083970D01*
Y00199090D01*
X-00082582D01*
Y00197150D01*
X-00082700D01*
Y00185150D01*
X-00069700D01*
Y00197150D01*
X-00071758D01*
Y00199090D01*
X-00070970D01*
Y00200140D01*
X-00065070D01*
Y00197970D01*
X-00064952D01*
X-00064482Y00197500D01*
D01*
X-00064482D01*
Y00197500D01*
D01*
X-00064482D01*
X-00062897Y00193673D01*
X-00051132Y00181908D01*
Y00126133D01*
X-00052188Y00125427D01*
X-00054442Y00126361D01*
X-00057547Y00129466D01*
Y00167640D01*
X-00057547Y00167640D01*
X-00059290Y00171849D01*
X-00067720Y00180280D01*
X-00069700Y00181099D01*
Y00183150D01*
X-00082700D01*
Y00171150D01*
X-00075429D01*
X-00069453Y00165174D01*
Y00127000D01*
X-00067709Y00122790D01*
X-00066421Y00121502D01*
X-00066907Y00120328D01*
X-00078723D01*
X-00080641Y00124959D01*
X-00089060Y00128446D01*
X-00097479Y00124959D01*
X-00098966Y00121369D01*
X-00100212Y00121616D01*
Y00136864D01*
X-00098966Y00137112D01*
X-00097479Y00133521D01*
X-00090330Y00130560D01*
Y00141938D01*
Y00153320D01*
X-00097479Y00150359D01*
X-00098966Y00146769D01*
X-00100212Y00147016D01*
Y00235431D01*
X-00085143Y00250499D01*
X-00083970Y00250013D01*
Y00241030D01*
X-00070970D01*
Y00241118D01*
X-00070470Y00241618D01*
D01*
Y00241618D01*
X-00070470D01*
D01*
Y00241618D01*
X-00066643Y00243203D01*
X-00057448Y00252398D01*
X-00013423D01*
X-00010332Y00244938D01*
X00000000Y00240658D01*
X00010332Y00244938D01*
X00014612Y00255270D01*
X00010332Y00265602D01*
X00000000Y00269882D01*
X-00010332Y00265602D01*
X-00011319Y00263222D01*
X-00059690D01*
X-00063517Y00261637D01*
X-00063517Y00261637D01*
X-00072124Y00253030D01*
X-00080953D01*
X-00081439Y00254203D01*
X-00054973Y00280670D01*
X-00040773Y00294869D01*
X-00040302Y00294674D01*
X-00040302D01*
X-00039600Y00294383D01*
Y00281940D01*
X-00026670D01*
Y00294870D01*
X-00039113D01*
X-00039404Y00295572D01*
Y00295572D01*
X-00039599Y00296043D01*
X-00039431Y00296212D01*
X00038166D01*
X00038871Y00295156D01*
D02*
G37*
%LPC*%
G36*
X-00011130Y00203200D02*
X-00015860D01*
Y00197970D01*
X-00011130D01*
Y00203200D01*
D02*
G37*
G36*
X-00018400D02*
X-00023130D01*
Y00197970D01*
X-00018400D01*
Y00203200D01*
D02*
G37*
G36*
X00087470Y00153320D02*
X00080321Y00150359D01*
X00077360Y00143210D01*
X00087470D01*
Y00153320D01*
D02*
G37*
G36*
X-00011200Y00228600D02*
X-00024130D01*
Y00215670D01*
X-00011200D01*
Y00228600D01*
D02*
G37*
G36*
X-00011130Y00210970D02*
X-00015860D01*
Y00205740D01*
X-00011130D01*
Y00210970D01*
D02*
G37*
G36*
X-00018400D02*
X-00023130D01*
Y00205740D01*
X-00018400D01*
Y00210970D01*
D02*
G37*
G36*
X-00020482Y00080141D02*
Y00074360D01*
X-00014702D01*
X-00016395Y00078447D01*
X-00020482Y00080141D01*
D02*
G37*
G36*
X-00061120D02*
X-00065208Y00078447D01*
X-00066901Y00074360D01*
X-00061120D01*
Y00080141D01*
D02*
G37*
G36*
X-00014699Y00048960D02*
X-00020480D01*
Y00043179D01*
X-00016392Y00044872D01*
X-00014699Y00048960D01*
D02*
G37*
G36*
X-00087790Y00153320D02*
Y00143210D01*
X-00077680D01*
X-00080641Y00150359D01*
X-00087790Y00153320D01*
D02*
G37*
G36*
X00087470Y00140670D02*
X00077360D01*
X00080321Y00133521D01*
X00087470Y00130560D01*
Y00140670D01*
D02*
G37*
G36*
X-00077680D02*
X-00087790D01*
Y00130560D01*
X-00080641Y00133521D01*
X-00077680Y00140670D01*
D02*
G37*
G36*
X00024130Y00279400D02*
X00011200D01*
Y00266470D01*
X00024130D01*
Y00279400D01*
D02*
G37*
G36*
X-00011200D02*
X-00024130D01*
Y00266470D01*
X-00011200D01*
Y00279400D01*
D02*
G37*
G36*
X-00026670D02*
X-00039600D01*
Y00266470D01*
X-00026670D01*
Y00279400D01*
D02*
G37*
G36*
X00024130Y00294870D02*
X00011200D01*
Y00281940D01*
X00024130D01*
Y00294870D01*
D02*
G37*
G36*
X-00011200D02*
X-00024130D01*
Y00281940D01*
X-00011200D01*
Y00294870D01*
D02*
G37*
G36*
X00039600Y00279400D02*
X00026670D01*
Y00266470D01*
X00039600D01*
Y00279400D01*
D02*
G37*
G36*
X-00054340Y00240180D02*
X-00066340D01*
Y00239092D01*
X-00076820D01*
X-00076970Y00239030D01*
X-00083970D01*
Y00227030D01*
X-00082882D01*
Y00225090D01*
X-00083970D01*
Y00213090D01*
X-00070970D01*
Y00225090D01*
X-00072058D01*
Y00227030D01*
X-00070970D01*
Y00228268D01*
X-00066340D01*
Y00227180D01*
X-00054340D01*
Y00240180D01*
D02*
G37*
G36*
X00039600Y00228600D02*
X00026670D01*
Y00215670D01*
X00039600D01*
Y00228600D01*
D02*
G37*
G36*
X00024130D02*
X00011200D01*
Y00215670D01*
X00024130D01*
Y00228600D01*
D02*
G37*
G36*
X00039600Y00244070D02*
X00026670D01*
Y00231140D01*
X00039600D01*
Y00244070D01*
D02*
G37*
G36*
X00024130D02*
X00011200D01*
Y00231140D01*
X00024130D01*
Y00244070D01*
D02*
G37*
G36*
X-00011200D02*
X-00024130D01*
Y00231140D01*
X-00011200D01*
Y00244070D01*
D02*
G37*
%LPD*%
D10*
X-00060340Y00233680D02*
D03*
X-00046340D02*
D03*
X-00017130Y00204470D02*
D03*
X-00031130D02*
D03*
X-00045070Y00204470D02*
D03*
X-00059070D02*
D03*
D11*
X-00077470Y00219090D02*
D03*
Y00205090D02*
D03*
Y00247030D02*
D03*
Y00233030D02*
D03*
X-00076200Y00191150D02*
D03*
Y00177150D02*
D03*
D16*
X-00059850Y00072090D02*
X-00021755D01*
X-00075770Y00049230D02*
X-00021750D01*
X-00075300Y00060660D02*
X-00021840D01*
X-00029210Y00106680D02*
X-00024940D01*
X-00025400Y00107950D02*
X-00021590D01*
Y00110030D01*
X-00024940Y00106680D02*
X-00021590Y00110030D01*
D17*
X-00035560Y00100330D02*
X-00029210Y00106680D01*
X-00049530Y00100330D02*
X-00035560D01*
X-00046990Y00015240D02*
X00063640D01*
X00088740Y00040340D01*
X-00089060Y00116540D02*
X-00065740D01*
X-00049530Y00100330D01*
X00104000Y00234670D02*
Y00236640D01*
X-00104000Y00000000D02*
X00104000D01*
Y00174130D02*
X00104140Y00173990D01*
X00104000Y00000000D02*
Y00234670D01*
X-00041000Y00300000D02*
X00040640D01*
X-00104000Y00237000D02*
X-00041000Y00300000D01*
X-00104000Y00000000D02*
Y00237000D01*
X00040640Y00300000D02*
X00104000Y00236640D01*
D18*
X-00076850Y00204470D02*
X-00059070D01*
X-00077470Y00205090D02*
X-00076850Y00204470D01*
X-00077470Y00233030D02*
X-00076820Y00233680D01*
X-00031130Y00204470D02*
X-00030480Y00203820D01*
X-00002540Y00257810D02*
X00000000Y00255270D01*
D19*
X-00063500Y00127000D02*
Y00167640D01*
X-00071930Y00176070D02*
X-00063500Y00167640D01*
Y00127000D02*
X-00055880Y00119380D01*
D20*
X-00076200Y00177150D02*
X-00076200Y00177150D01*
X-00074120Y00176070D02*
X-00071930D01*
D22*
X00000000Y00255270D02*
D03*
D23*
X-00025400Y00280670D02*
D03*
Y00229870D02*
D03*
D24*
X00025400Y00280670D02*
D03*
Y00229870D02*
D03*
D25*
X-00059850Y00073090D02*
D03*
X-00025400Y00107950D02*
D03*
X-00034450Y00050230D02*
D03*
X-00059850D02*
D03*
Y00061660D02*
D03*
X-00047150Y00050230D02*
D03*
Y00061660D02*
D03*
X-00034450D02*
D03*
Y00073090D02*
D03*
X-00021753Y00061750D02*
D03*
Y00073090D02*
D03*
X-00044160Y00109740D02*
D03*
X-00021750Y00050230D02*
D03*
X-00047150Y00073090D02*
D03*
X-00055880Y00119380D02*
D03*
X-00034290D02*
D03*
D26*
X00088740Y00116540D02*
D03*
Y00141940D02*
D03*
Y00065740D02*
D03*
Y00040340D02*
D03*
Y00014964D02*
D03*
X-00089060Y00091140D02*
D03*
Y00065740D02*
D03*
X-00089043Y00040340D02*
D03*
X-00089060Y00014940D02*
D03*
X00088740Y00091140D02*
D03*
X-00089060Y00141940D02*
D03*
Y00116540D02*
D03*
D27*
X-00050800Y00015240D02*
D03*
D28*
X-00046340Y00205740D02*
Y00233680D01*
Y00205740D02*
X-00045070Y00204470D01*
X-00031130D01*
X-00076820Y00233680D02*
X-00060340D01*
X-00077470Y00219090D02*
Y00233030D01*
X-00077170Y00191150D02*
Y00202390D01*
X-00059070Y00197500D02*
Y00204470D01*
X-00034450Y00190340D02*
X-00030480Y00194310D01*
Y00203820D01*
X-00077470Y00247030D02*
X-00070470D01*
X-00059690Y00257810D01*
X-00002540D01*
X-00034450Y00120810D02*
Y00190340D01*
X-00059070Y00197500D02*
X-00045720Y00184150D01*
Y00111300D02*
X-00044160Y00109740D01*
X-00045720Y00111300D02*
Y00184150D01*
M02*
