%FSAX44Y44*%
%MOMM*%
G71*
G01*
G75*
G04 Layer_Color=16711935*
%ADD10R,0.8000X0.9000*%
%ADD11R,0.9000X0.8000*%
%ADD12R,1.2000X2.0000*%
%ADD13O,0.4500X1.5000*%
%ADD14R,0.4500X1.5000*%
%ADD15R,1.8000X1.3000*%
%ADD16C,0.2000*%
%ADD17C,0.3000*%
%ADD18C,0.4000*%
%ADD19C,0.7000*%
%ADD20C,0.5000*%
%ADD21R,2.4130X3.6830*%
%ADD22C,2.3000*%
%ADD23R,2.4400X2.4400*%
%ADD24R,2.4400X2.4400*%
%ADD25C,1.0000*%
%ADD26C,1.8000*%
%ADD27C,0.8000*%
%ADD28C,0.6000*%
%ADD29C,0.2540*%
%ADD30C,0.1500*%
%ADD31C,0.1000*%
%ADD32R,1.0032X1.1032*%
%ADD33R,1.1032X1.0032*%
%ADD34R,1.4032X2.2032*%
%ADD35O,0.6532X1.7032*%
%ADD36R,0.6532X1.7032*%
%ADD37R,2.0032X1.5032*%
%ADD38C,2.5032*%
%ADD39R,2.6432X2.6432*%
%ADD40R,2.6432X2.6432*%
%ADD41C,1.2032*%
%ADD42C,2.0032*%
%ADD43C,1.0032*%
D32*
X-00060340Y00233680D02*
D03*
X-00046340D02*
D03*
X-00017130Y00204470D02*
D03*
X-00031130D02*
D03*
X-00045070Y00204470D02*
D03*
X-00059070D02*
D03*
D33*
X-00077470Y00219090D02*
D03*
Y00205090D02*
D03*
Y00247030D02*
D03*
Y00233030D02*
D03*
X-00076200Y00191150D02*
D03*
Y00177150D02*
D03*
D38*
X00000000Y00255270D02*
D03*
D39*
X-00025400Y00280670D02*
D03*
Y00229870D02*
D03*
D40*
X00025400Y00280670D02*
D03*
Y00229870D02*
D03*
D41*
X-00059850Y00073090D02*
D03*
X-00025400Y00107950D02*
D03*
X-00034450Y00050230D02*
D03*
X-00059850D02*
D03*
Y00061660D02*
D03*
X-00047150Y00050230D02*
D03*
Y00061660D02*
D03*
X-00034450D02*
D03*
Y00073090D02*
D03*
X-00021753Y00061750D02*
D03*
Y00073090D02*
D03*
X-00044160Y00109740D02*
D03*
X-00021750Y00050230D02*
D03*
X-00047150Y00073090D02*
D03*
X-00055880Y00119380D02*
D03*
X-00034290D02*
D03*
D42*
X00088740Y00116540D02*
D03*
Y00141940D02*
D03*
Y00065740D02*
D03*
Y00040340D02*
D03*
Y00014964D02*
D03*
X-00089060Y00091140D02*
D03*
Y00065740D02*
D03*
X-00089043Y00040340D02*
D03*
X-00089060Y00014940D02*
D03*
X00088740Y00091140D02*
D03*
X-00089060Y00141940D02*
D03*
Y00116540D02*
D03*
D43*
X-00050800Y00015240D02*
D03*
M02*
