M48
;Layer_Color=9474304
;FILE_FORMAT=4:4
METRIC
;TYPE=PLATED
T1F00S00C0.4000
T2F00S00C1.2000
T3F00S00C1.6000
T4F00S00C1.7000
%
T01
X-00050800Y00015240
X-00047150Y00050230
Y00061660
Y00073090
X-00059850
Y00061660
Y00050230
X-00034450
Y00061660
Y00073090
X-00021753
Y00061750
X-00021750Y00050230
X-00025400Y00107950
X-00034290Y00119380
X-00044160Y00109740
X-00055880Y00119380
T02
X-00089060Y00014940
X00088740Y00014964
Y00040340
Y00065740
Y00091140
Y00116540
Y00141940
X-00089060
Y00116540
Y00091140
Y00065740
X-00089043Y00040340
T03
X00000000Y00255270
T04
X-00025400Y00229870
Y00280670
X00025400
Y00229870
M30
