%FSLAX44Y44*%
%MOMM*%
G71*
G01*
G75*
G04 Layer_Physical_Order=2*
G04 Layer_Color=16711680*
%ADD10C,0.2540*%
%ADD11C,0.2000*%
%ADD12C,0.5000*%
%ADD13C,1.2000*%
%ADD14C,4.7600*%
%ADD15R,1.6900X1.6900*%
%ADD16C,1.6900*%
%ADD17C,0.8000*%
%ADD18R,0.8000X0.9000*%
%ADD19R,0.9000X0.8000*%
%ADD20O,0.6000X2.2000*%
%ADD21C,0.4000*%
%ADD22C,0.7000*%
G36*
X448739Y302971D02*
X453540Y294656D01*
X453540Y294656D01*
X453540Y294656D01*
X454363Y293229D01*
X457099Y288492D01*
X457099Y288492D01*
X457099Y288492D01*
X460749Y282171D01*
X462402Y279308D01*
X462402D01*
X462402Y279308D01*
Y279308D01*
X462402D01*
X462605Y278956D01*
X463339Y277684D01*
X463339Y277684D01*
X463339D01*
X466134Y272844D01*
X466827Y271644D01*
X466827D01*
X466827Y271644D01*
Y271644D01*
X466827D01*
X468122Y269400D01*
X468815Y268200D01*
D01*
Y268200D01*
Y268200D01*
X468815D01*
X469559Y266911D01*
X469721Y266631D01*
X469721D01*
X469721Y266631D01*
Y266631D01*
X469721D01*
X469771Y266544D01*
X470111Y265956D01*
X470111Y265956D01*
X470111Y265956D01*
X470221Y265766D01*
X470547Y265200D01*
X470547Y265200D01*
X470547Y265200D01*
X470804Y264756D01*
X470808Y264748D01*
D01*
X470808Y264748D01*
Y264748D01*
D01*
X470947Y264508D01*
X470971Y264467D01*
X470971D01*
X470971Y264467D01*
Y264467D01*
X470971D01*
X471009Y264400D01*
X471099Y264244D01*
Y264244D01*
X471099Y264244D01*
X471108Y264229D01*
X471772Y263080D01*
D01*
X471772Y263079D01*
X471772Y263079D01*
X471772D01*
X472801Y261297D01*
X473088Y260800D01*
X473088Y260800D01*
X473088Y260800D01*
X473230Y260555D01*
X474172Y258923D01*
X474172Y258923D01*
X474172Y258923D01*
X474572Y258229D01*
X475845Y256026D01*
X475845D01*
X475845Y256026D01*
Y256026D01*
X475845D01*
X476989Y254044D01*
X477801Y252638D01*
Y252638D01*
X477801Y252638D01*
X478443Y251526D01*
X478634Y251194D01*
X478634D01*
X478634Y251194D01*
Y251194D01*
X478634D01*
X478881Y250768D01*
X478978Y250600D01*
X478978Y250600D01*
X478978Y250600D01*
X479335Y249982D01*
X479380Y249903D01*
X479380D01*
X479380Y249903D01*
Y249903D01*
X479380D01*
X479631Y249469D01*
X480042Y248756D01*
X480042D01*
X480042Y248756D01*
Y248756D01*
X480042D01*
X480866Y247329D01*
X480964Y247160D01*
X480964D01*
X480964Y247160D01*
Y247160D01*
X480964D01*
X481297Y246583D01*
X481352Y246488D01*
D01*
X481352Y246488D01*
Y246488D01*
D01*
X481664Y245947D01*
X482175Y245062D01*
X482175D01*
X482175Y245062D01*
Y245062D01*
X482175D01*
X482422Y244634D01*
X482922Y243769D01*
D01*
X482922Y243769D01*
X482922Y243769D01*
X482922Y243769D01*
X482922D01*
X482922D01*
D01*
X482922D01*
Y243769D01*
X483173Y243335D01*
X483672Y242470D01*
X483672Y242470D01*
X483672Y242470D01*
X484164Y241618D01*
X484758Y240589D01*
X484758D01*
X484758Y240589D01*
Y240589D01*
X484758D01*
X485502Y239300D01*
X485513Y239281D01*
D01*
X485513Y239281D01*
X485513Y239281D01*
X485513D01*
X486153Y238174D01*
X486678Y237263D01*
D01*
X486678Y237263D01*
Y237263D01*
X486678D01*
X486708Y237212D01*
X486976Y236747D01*
X486976Y236747D01*
X486976Y236747D01*
X487794Y235331D01*
X488494Y234119D01*
D01*
X488494Y234119D01*
X488494Y234119D01*
X488494Y234119D01*
X488494D01*
X488494D01*
D01*
X488494D01*
D01*
X489296Y232730D01*
X491835Y228332D01*
X491835D01*
X491835Y228332D01*
Y228332D01*
X491835D01*
X492081Y227906D01*
X492535Y227120D01*
X492535D01*
X492535Y227120D01*
Y227120D01*
X492535D01*
X492831Y226607D01*
X493092Y226156D01*
X493092Y226156D01*
X493092Y226156D01*
X493915Y224729D01*
X494365Y223950D01*
D01*
X494365Y223950D01*
X494365Y223950D01*
X494365D01*
X495722Y221600D01*
X496275Y220643D01*
X496275Y220643D01*
X496275Y220643D01*
X496646Y220000D01*
X497141Y219144D01*
D01*
X497141Y219144D01*
X497141Y219144D01*
X497141Y219144D01*
X497141D01*
X497141D01*
D01*
X497141D01*
Y219144D01*
D01*
X497310Y218850D01*
X497453Y218602D01*
Y218602D01*
X497453Y218602D01*
X497490Y218538D01*
X497611Y218330D01*
Y218330D01*
X497611Y218330D01*
X498159Y217379D01*
X498203Y217303D01*
D01*
Y217303D01*
Y217303D01*
X498203D01*
X498659Y216514D01*
X499035Y215863D01*
X499035Y215863D01*
X499035D01*
X499365Y215291D01*
X499551Y214969D01*
X499551D01*
X499551Y214969D01*
Y214969D01*
X499551D01*
X500111Y214000D01*
X500495Y213334D01*
X500495Y213334D01*
X500495Y213334D01*
X500994Y212469D01*
X501271Y211990D01*
X501271Y211990D01*
X501271D01*
Y211990D01*
X501271D01*
X501878Y210938D01*
X501997Y210733D01*
D01*
X501997Y210732D01*
X501997Y210732D01*
X501997Y210732D01*
X501997D01*
X501997D01*
D01*
X501997D01*
X502453Y209943D01*
X502611Y209671D01*
D01*
X502610Y209670D01*
X502611Y209670D01*
X502610Y209670D01*
X502611D01*
X502611D01*
D01*
X502611D01*
Y209670D01*
D01*
X503575Y208000D01*
X503829Y207559D01*
Y207559D01*
X503829Y207559D01*
X504037Y207200D01*
X504536Y206335D01*
X504536Y206335D01*
X504536Y206335D01*
X504562Y206291D01*
X504782Y205909D01*
Y205909D01*
X504782Y205909D01*
X505382Y204871D01*
X506366Y203166D01*
Y203166D01*
X506366Y203166D01*
X507572Y201077D01*
X508194Y200000D01*
Y200000D01*
X508194Y200000D01*
X508575Y199341D01*
X509074Y198476D01*
D01*
X509074Y198476D01*
Y198476D01*
D01*
X510183Y196556D01*
X510860Y195382D01*
Y195382D01*
X510860Y195382D01*
X510904Y195306D01*
X511007Y195129D01*
X511007D01*
X511007Y195129D01*
Y195129D01*
X511007D01*
X511168Y194850D01*
X511699Y193930D01*
X511699D01*
X511699Y193930D01*
Y193930D01*
X511699D01*
X512110Y193218D01*
X512431Y192661D01*
Y192661D01*
X512431Y192661D01*
X512885Y191875D01*
X513196Y191337D01*
X513196D01*
X513196Y191337D01*
Y191337D01*
X513196D01*
X513896Y190125D01*
X514396Y189260D01*
Y189260D01*
X514396Y189260D01*
X514698Y188736D01*
X515904Y186647D01*
X515904Y186647D01*
X515904Y186647D01*
X516388Y185809D01*
X516738Y185203D01*
D01*
X516738Y185203D01*
X516738Y185203D01*
X516738Y185203D01*
X516738D01*
X516738D01*
D01*
X516738D01*
Y185203D01*
D01*
X517484Y183912D01*
X517938Y183126D01*
X517938Y183126D01*
X517938Y183126D01*
X518905Y181450D01*
X519067Y181169D01*
D01*
X519067Y181169D01*
Y181169D01*
X519067D01*
X519573Y180293D01*
X520273Y179080D01*
X520273D01*
X520273Y179080D01*
Y179080D01*
X520273D01*
X520973Y177868D01*
X521025Y177778D01*
X521025D01*
X521025Y177778D01*
Y177778D01*
X521026D01*
X521276Y177344D01*
X522861Y174598D01*
D01*
Y174598D01*
Y174598D01*
X522862D01*
X523562Y173386D01*
X523606Y173309D01*
X523606Y173309D01*
X523606Y173309D01*
X524067Y172509D01*
X524767Y171297D01*
D01*
X524767Y171297D01*
X524767Y171297D01*
X524767Y171297D01*
X524767D01*
X524767D01*
D01*
X524767D01*
D01*
X525205Y170539D01*
X525726Y169637D01*
X525726Y169637D01*
X525726Y169637D01*
X525897Y169340D01*
X526597Y168128D01*
X526597D01*
X526597Y168128D01*
Y168128D01*
X526597D01*
X528172Y165400D01*
X528605Y164650D01*
X528605D01*
X528605Y164650D01*
Y164650D01*
X528605D01*
X528824Y164271D01*
X529685Y162780D01*
X529685Y162780D01*
X529685Y162780D01*
X530185Y161915D01*
X530639Y161129D01*
D01*
X530639Y161129D01*
X530639Y161129D01*
X530639D01*
X530935Y160616D01*
X531345Y159906D01*
Y159906D01*
X531345Y159906D01*
X531456Y159713D01*
X531637Y159400D01*
X531637Y159400D01*
X531637Y159400D01*
X532168Y158479D01*
X532469Y157959D01*
X532469D01*
X532469Y157959D01*
Y157959D01*
X532469D01*
X532538Y157839D01*
X532975Y157083D01*
X532975Y157083D01*
X532975Y157083D01*
X533227Y156646D01*
X533625Y155956D01*
X533625Y155956D01*
X533625Y155956D01*
X533727Y155781D01*
X534449Y154529D01*
X534449D01*
X534449Y154529D01*
Y154529D01*
X534449D01*
X534969Y153630D01*
X535563Y152601D01*
X535563Y152601D01*
X535563Y152601D01*
X536068Y151726D01*
X536256Y151400D01*
X536256Y151400D01*
X536256Y151400D01*
X536283Y151353D01*
D01*
Y151353D01*
X536283Y151353D01*
X536307Y151312D01*
X536388Y151171D01*
X536388D01*
X536388Y151171D01*
Y151171D01*
X536388D01*
X536763Y150523D01*
X537081Y149971D01*
X537081D01*
X537081Y149971D01*
Y149971D01*
X537081D01*
X537290Y149609D01*
X537399Y149420D01*
X537399D01*
X537399Y149420D01*
Y149420D01*
X537399D01*
X537468Y149300D01*
X538057Y148282D01*
Y148282D01*
X538057Y148282D01*
X538599Y147343D01*
X539098Y146478D01*
X539098Y146478D01*
X539098Y146478D01*
X539201Y146300D01*
X539351Y146040D01*
X539351Y146040D01*
X539351Y146040D01*
X539798Y145266D01*
X540101Y144741D01*
X540101D01*
X540101Y144741D01*
Y144741D01*
X540101D01*
X540869Y143411D01*
X541189Y142856D01*
X541189Y142856D01*
X541189Y142856D01*
X542151Y141191D01*
X542151D01*
X542151Y141191D01*
Y141190D01*
X542151D01*
X542387Y140783D01*
X542886Y139918D01*
X542886Y139918D01*
X542886Y139917D01*
X543158Y139447D01*
X543185Y139400D01*
Y139400D01*
X543185Y139400D01*
D01*
X543300Y139200D01*
D01*
Y139200D01*
Y139200D01*
X543300D01*
X543340Y139131D01*
X544539Y137055D01*
X544539D01*
X544539Y137055D01*
Y137054D01*
X544539D01*
X545170Y135962D01*
X546376Y133874D01*
X546376Y133874D01*
X546376Y133874D01*
X546428Y133784D01*
X546678Y133350D01*
Y133350D01*
X546678Y133350D01*
X548264Y130604D01*
X548964Y129391D01*
X548964Y129391D01*
X548964Y129391D01*
X549200Y128983D01*
X550407Y126892D01*
X550407Y126892D01*
X550407Y126892D01*
X550965Y125926D01*
X550980Y125900D01*
D01*
X550980Y125900D01*
Y125900D01*
X550980D01*
X552052Y124043D01*
X553258Y121955D01*
X553258D01*
X553258Y121955D01*
Y121955D01*
X553258D01*
X553792Y121029D01*
X554841Y119212D01*
X554841D01*
X554841Y119212D01*
Y119212D01*
X554841D01*
X555587Y117921D01*
X555688Y117746D01*
Y117746D01*
X555688Y117746D01*
X555838Y117486D01*
X556041Y117135D01*
X556041Y117135D01*
X556041Y117135D01*
X557871Y113965D01*
X558377Y113089D01*
X558377D01*
X558377Y113089D01*
Y113089D01*
X558377D01*
X559077Y111877D01*
X559129Y111787D01*
X559129D01*
X559129Y111786D01*
Y111786D01*
X559129D01*
X559380Y111353D01*
X559879Y110487D01*
X559879Y110487D01*
X559879Y110487D01*
X560959Y108617D01*
X560965Y108607D01*
X560965D01*
X560965Y108607D01*
Y108607D01*
X560965D01*
X561665Y107394D01*
X561709Y107318D01*
Y107318D01*
X561709Y107318D01*
X562171Y106518D01*
X562871Y105306D01*
D01*
X562871Y105306D01*
X562871Y105306D01*
X562871Y105306D01*
X562871D01*
X562871D01*
D01*
X562871D01*
Y105306D01*
D01*
X564001Y103349D01*
X564701Y102136D01*
X564701D01*
X564701Y102136D01*
Y102136D01*
X564701D01*
X564753Y102046D01*
X564924Y101750D01*
X564924Y101750D01*
X564924Y101750D01*
X565200Y101271D01*
X565421Y100889D01*
D01*
X565421Y100889D01*
X565421Y100889D01*
X565421Y100889D01*
X565421D01*
X565421D01*
D01*
X565421D01*
Y100889D01*
X565503Y100747D01*
X565959Y99958D01*
Y99958D01*
X565959Y99958D01*
X566709Y98659D01*
X567789Y96789D01*
X567789Y96789D01*
X567789Y96789D01*
X568288Y95924D01*
X568539Y95489D01*
X568539D01*
X568539Y95489D01*
Y95489D01*
X568539D01*
X568742Y95138D01*
X568757Y95111D01*
D01*
X568758Y95111D01*
Y95111D01*
X568758D01*
X570060Y92856D01*
X570670Y91798D01*
D01*
X570670Y91798D01*
X570670Y91798D01*
X570670Y91798D01*
X570670D01*
X570670D01*
D01*
X570670D01*
Y91798D01*
X570883Y91429D01*
X571331Y90655D01*
Y90655D01*
X571331Y90654D01*
X571830Y89789D01*
X572081Y89355D01*
D01*
X572081Y89355D01*
X572081Y89355D01*
X572081Y89355D01*
X572081D01*
X572081D01*
D01*
X572081D01*
Y89355D01*
X572580Y88490D01*
X573660Y86620D01*
X573660Y86620D01*
X573660Y86620D01*
X573666Y86610D01*
X574366Y85397D01*
D01*
X574366Y85397D01*
X574366Y85397D01*
X574366Y85397D01*
X574366D01*
X574366D01*
D01*
X574366D01*
Y85397D01*
X574410Y85321D01*
X574872Y84521D01*
Y84521D01*
X574872Y84521D01*
X575572Y83309D01*
X576618Y81498D01*
X576618Y81498D01*
X576618D01*
X577402Y80139D01*
X578491Y78253D01*
X578491Y78253D01*
X578491Y78253D01*
X579410Y76662D01*
X579842Y75914D01*
Y75914D01*
X579842D01*
X579907Y75802D01*
X580045Y75562D01*
X580045D01*
X580045Y75562D01*
X580490Y74791D01*
X580989Y73926D01*
Y73926D01*
X580989Y73926D01*
X581443Y73140D01*
X583214Y70074D01*
X583214D01*
X583214Y70074D01*
Y70074D01*
X583214D01*
X584032Y68657D01*
X584782Y67358D01*
X584782Y67358D01*
X584782Y67358D01*
X587573Y62524D01*
X589403Y59355D01*
X589403D01*
X589403Y59355D01*
Y59355D01*
X589403D01*
X590905Y56753D01*
X592111Y54665D01*
X592111Y54665D01*
X592111Y54665D01*
X592945Y53221D01*
X593191Y52794D01*
X593191D01*
X593191Y52794D01*
Y52794D01*
X593191D01*
X593941Y51495D01*
X594145Y51143D01*
Y51143D01*
X594145Y51143D01*
X594441Y50630D01*
X595275Y49186D01*
X595275D01*
X595275Y49186D01*
Y49186D01*
X595275D01*
X595975Y47974D01*
X596480Y47098D01*
X596480D01*
X596480Y47098D01*
Y47098D01*
X596480D01*
X597180Y45886D01*
X597696Y44993D01*
X597358Y43768D01*
X525722Y3788D01*
X986D01*
X-69475Y43112D01*
X-69813Y44337D01*
X93116Y326512D01*
X435146D01*
X448739Y302971D01*
D02*
G37*
%LPC*%
G36*
X292231Y123511D02*
X284233Y120198D01*
X280920Y112200D01*
X284233Y104202D01*
X292231Y100889D01*
X300229Y104202D01*
X303542Y112200D01*
X300229Y120198D01*
X292231Y123511D01*
D02*
G37*
G36*
X506746Y117999D02*
X500176Y117135D01*
X496141Y111877D01*
X497006Y105306D01*
X502264Y101271D01*
X508835Y102136D01*
X512869Y107394D01*
X512004Y113965D01*
X506746Y117999D01*
D02*
G37*
G36*
X140851Y125400D02*
Y97997D01*
Y70600D01*
X153679Y75914D01*
X187937Y41656D01*
X191381Y40229D01*
X338881D01*
X342325Y41656D01*
X376231Y75562D01*
X388211Y70600D01*
Y96730D01*
X362081D01*
X368391Y81498D01*
X336863Y49971D01*
X193398D01*
X161023Y82346D01*
X164785Y91429D01*
X195531D01*
X198975Y92856D01*
X207630Y101511D01*
X207861Y101415D01*
Y110930D01*
X198346D01*
X199789Y107446D01*
X193513Y101171D01*
X166193D01*
X159327Y117746D01*
X140851Y125400D01*
D02*
G37*
G36*
X264531Y123511D02*
X256533Y120198D01*
X253220Y112200D01*
X256533Y104202D01*
X264531Y100889D01*
X272529Y104202D01*
X275842Y112200D01*
X272529Y120198D01*
X264531Y123511D01*
D02*
G37*
G36*
X545283Y112652D02*
X538713Y111786D01*
X534678Y106529D01*
X535543Y99958D01*
X540801Y95924D01*
X547372Y96789D01*
X551406Y102046D01*
X550541Y108617D01*
X545283Y112652D01*
D02*
G37*
G36*
X388211Y125400D02*
X369734Y117746D01*
X362081Y99270D01*
X388211D01*
Y125400D01*
D02*
G37*
G36*
X236831Y123511D02*
X228833Y120198D01*
X225520Y112200D01*
X228833Y104202D01*
X236831Y100889D01*
X244829Y104202D01*
X248142Y112200D01*
X244829Y120198D01*
X236831Y123511D01*
D02*
G37*
G36*
X219916Y110930D02*
X210401D01*
Y101415D01*
X217129Y104202D01*
X219916Y110930D01*
D02*
G37*
G36*
X532583Y134649D02*
X526013Y133784D01*
X521978Y128526D01*
X522843Y121955D01*
X528101Y117921D01*
X534672Y118786D01*
X538706Y124043D01*
X537841Y130614D01*
X532583Y134649D01*
D02*
G37*
G36*
X6828Y155347D02*
X1570Y151312D01*
X705Y144741D01*
X4740Y139483D01*
X11311Y138618D01*
X16568Y142653D01*
X17434Y149224D01*
X13399Y154482D01*
X6828Y155347D01*
D02*
G37*
G36*
X517177Y146547D02*
X511234Y143115D01*
X515401Y139918D01*
X520609Y140603D01*
X517177Y146547D01*
D02*
G37*
G36*
X-5872Y133350D02*
X-11129Y129315D01*
X-11995Y122744D01*
X-7960Y117486D01*
X-1389Y116621D01*
X3868Y120656D01*
X4734Y127227D01*
X699Y132485D01*
X-5872Y133350D01*
D02*
G37*
G36*
X330381Y122650D02*
X309481D01*
Y101750D01*
X330381D01*
Y122650D01*
D02*
G37*
G36*
X207861Y122985D02*
X201133Y120198D01*
X198346Y113470D01*
X207861D01*
Y122985D01*
D02*
G37*
G36*
X210401D02*
Y113470D01*
X219916D01*
X217129Y120198D01*
X210401Y122985D01*
D02*
G37*
G36*
X532146Y74005D02*
X525576Y73140D01*
X521541Y67882D01*
X522406Y61312D01*
X527664Y57277D01*
X534235Y58142D01*
X538269Y63400D01*
X537404Y69971D01*
X532146Y74005D01*
D02*
G37*
G36*
X-3985Y75218D02*
X-9243Y71183D01*
X-10108Y64613D01*
X-6073Y59355D01*
X498Y58490D01*
X5756Y62524D01*
X6621Y69095D01*
X2586Y74353D01*
X-3985Y75218D01*
D02*
G37*
G36*
X222981Y95111D02*
X214983Y91798D01*
X211670Y83800D01*
X214983Y75802D01*
X222981Y72489D01*
X230979Y75802D01*
X234292Y83800D01*
X230979Y91798D01*
X222981Y95111D01*
D02*
G37*
G36*
X570683Y68657D02*
X564113Y67793D01*
X560078Y62535D01*
X560943Y55964D01*
X566201Y51929D01*
X572772Y52794D01*
X576806Y58052D01*
X575941Y64623D01*
X570683Y68657D01*
D02*
G37*
G36*
X544846Y52008D02*
X538276Y51143D01*
X534241Y45886D01*
X535106Y39315D01*
X540364Y35280D01*
X546935Y36145D01*
X550969Y41403D01*
X550104Y47974D01*
X544846Y52008D01*
D02*
G37*
G36*
X-16685Y53221D02*
X-21943Y49186D01*
X-22808Y42616D01*
X-18773Y37358D01*
X-12202Y36493D01*
X-6945Y40527D01*
X-6079Y47098D01*
X-10114Y52356D01*
X-16685Y53221D01*
D02*
G37*
G36*
X-43972Y67358D02*
X-49229Y63324D01*
X-50095Y56753D01*
X-46060Y51495D01*
X-39489Y50630D01*
X-34232Y54665D01*
X-33366Y61235D01*
X-37401Y66493D01*
X-43972Y67358D01*
D02*
G37*
G36*
X250681Y95111D02*
X242683Y91798D01*
X239370Y83800D01*
X242683Y75802D01*
X250681Y72489D01*
X258679Y75802D01*
X261992Y83800D01*
X258679Y91798D01*
X250681Y95111D01*
D02*
G37*
G36*
X519446Y96003D02*
X512876Y95138D01*
X508841Y89880D01*
X509706Y83309D01*
X514964Y79274D01*
X521535Y80139D01*
X525569Y85397D01*
X524704Y91968D01*
X519446Y96003D01*
D02*
G37*
G36*
X8715Y97215D02*
X3457Y93180D01*
X2592Y86610D01*
X6627Y81352D01*
X13198Y80487D01*
X18455Y84521D01*
X19320Y91092D01*
X15286Y96350D01*
X8715Y97215D01*
D02*
G37*
G36*
X-18572Y111353D02*
X-23830Y107318D01*
X-24695Y100747D01*
X-20660Y95489D01*
X-14089Y94624D01*
X-8831Y98659D01*
X-7966Y105230D01*
X-12001Y110487D01*
X-18572Y111353D01*
D02*
G37*
G36*
X557983Y90655D02*
X551413Y89789D01*
X547378Y84532D01*
X548243Y77961D01*
X553501Y73926D01*
X560072Y74791D01*
X564106Y80049D01*
X563241Y86620D01*
X557983Y90655D01*
D02*
G37*
G36*
X278381Y95111D02*
X270383Y91798D01*
X267070Y83800D01*
X270383Y75802D01*
X278381Y72489D01*
X286379Y75802D01*
X289692Y83800D01*
X286379Y91798D01*
X278381Y95111D01*
D02*
G37*
G36*
X306081D02*
X298083Y91798D01*
X294770Y83800D01*
X298083Y75802D01*
X306081Y72489D01*
X314079Y75802D01*
X317392Y83800D01*
X314079Y91798D01*
X306081Y95111D01*
D02*
G37*
G36*
X-31272Y89355D02*
X-36530Y85321D01*
X-37395Y78750D01*
X-33360Y73492D01*
X-26789Y72627D01*
X-21532Y76662D01*
X-20666Y83232D01*
X-24701Y88490D01*
X-31272Y89355D01*
D02*
G37*
G36*
X84915Y229197D02*
X79657Y225163D01*
X78792Y218592D01*
X82827Y213334D01*
X89398Y212469D01*
X94656Y216504D01*
X95520Y223074D01*
X91486Y228332D01*
X84915Y229197D01*
D02*
G37*
G36*
X234502Y264400D02*
Y264400D01*
X222600D01*
Y251400D01*
X224251D01*
Y237600D01*
Y229600D01*
Y221600D01*
X225519Y218538D01*
X228581Y217270D01*
X231642Y218538D01*
X232910Y221600D01*
Y237600D01*
Y251400D01*
X234600D01*
X234600Y251400D01*
X234600D01*
X235400Y251000D01*
X235498Y251000D01*
X235498Y251000D01*
Y251000D01*
X236951D01*
Y237600D01*
Y229600D01*
Y221600D01*
X238219Y218538D01*
X241281Y217270D01*
X244342Y218538D01*
X245610Y221600D01*
Y237600D01*
Y251000D01*
X247400D01*
Y264000D01*
X235498D01*
X235498Y264000D01*
Y264000D01*
X235400Y264000D01*
D01*
X234600Y264400D01*
X234502Y264400D01*
X234502Y264400D01*
D02*
G37*
G36*
X57628Y243335D02*
X52371Y239300D01*
X51505Y232730D01*
X55540Y227472D01*
X62111Y226607D01*
X67368Y230641D01*
X68234Y237212D01*
X64199Y242470D01*
X57628Y243335D01*
D02*
G37*
G36*
X44928Y221338D02*
X39671Y217303D01*
X38805Y210732D01*
X42840Y205475D01*
X49411Y204610D01*
X54668Y208644D01*
X55534Y215215D01*
X51499Y220473D01*
X44928Y221338D01*
D02*
G37*
G36*
X32228Y199341D02*
X26971Y195306D01*
X26105Y188736D01*
X30140Y183478D01*
X36711Y182613D01*
X41968Y186647D01*
X42834Y193218D01*
X38799Y198476D01*
X32228Y199341D01*
D02*
G37*
G36*
X494483Y200640D02*
X487913Y199775D01*
X483878Y194517D01*
X484743Y187946D01*
X490001Y183912D01*
X496572Y184777D01*
X500606Y190035D01*
X499741Y196605D01*
X494483Y200640D01*
D02*
G37*
G36*
X72215Y207200D02*
X66957Y203166D01*
X66092Y196595D01*
X70127Y191337D01*
X76698Y190472D01*
X81955Y194506D01*
X82821Y201077D01*
X78786Y206335D01*
X72215Y207200D01*
D02*
G37*
G36*
X469083Y244634D02*
X462513Y243769D01*
X458478Y238511D01*
X459343Y231940D01*
X464601Y227906D01*
X471172Y228771D01*
X475206Y234029D01*
X474341Y240599D01*
X469083Y244634D01*
D02*
G37*
G36*
X212231Y269529D02*
X209169Y268261D01*
X207901Y265200D01*
X208600Y263513D01*
Y253944D01*
X207354Y253696D01*
X206242Y256381D01*
X203700Y258923D01*
Y265300D01*
X191700D01*
Y252300D01*
X198077D01*
X198851Y251526D01*
Y237600D01*
Y229600D01*
Y221600D01*
X200119Y218538D01*
X203181Y217270D01*
X206242Y218538D01*
X207510Y221600D01*
Y237600D01*
Y251400D01*
X208600D01*
Y251400D01*
X211551D01*
Y237600D01*
Y229600D01*
Y221600D01*
X212819Y218538D01*
X215881Y217270D01*
X218942Y218538D01*
X220210Y221600D01*
Y237600D01*
Y251400D01*
X220600D01*
Y264400D01*
X217683D01*
X216642Y266911D01*
X215292Y268261D01*
X212231Y269529D01*
D02*
G37*
G36*
X245600Y282171D02*
X167031D01*
X163587Y280744D01*
X134887Y252044D01*
X133460Y248600D01*
Y214969D01*
X134887Y211525D01*
X148327Y198085D01*
X109955Y159713D01*
X55403D01*
X54223Y161250D01*
X50791Y155307D01*
X56735Y151875D01*
X56556Y150512D01*
X55851Y149971D01*
X111973D01*
X115417Y151398D01*
X158019Y194000D01*
X155861D01*
Y199997D01*
Y206000D01*
X154188D01*
X153362Y206827D01*
X153848Y208000D01*
X163631D01*
Y209670D01*
X185631D01*
X188692Y210938D01*
X193542Y215788D01*
X194810Y218850D01*
Y229600D01*
Y237600D01*
X193542Y240662D01*
X190481Y241930D01*
X187419Y240662D01*
X186151Y237600D01*
Y229600D01*
Y221600D01*
Y220643D01*
X183837Y218330D01*
X181899D01*
X181193Y219386D01*
X182110Y221600D01*
Y237600D01*
Y248041D01*
X186369Y252300D01*
X189700D01*
Y265300D01*
X177700D01*
Y257407D01*
X174337Y254044D01*
X172910Y250600D01*
X173451Y249293D01*
Y237600D01*
Y229600D01*
Y221600D01*
X174368Y219386D01*
X173663Y218330D01*
X163631D01*
Y220000D01*
X150631D01*
Y211217D01*
X149458Y210731D01*
X143202Y216987D01*
Y246583D01*
X169048Y272429D01*
X243582D01*
X249829Y266182D01*
Y264000D01*
X249400D01*
Y258770D01*
X261400D01*
Y260555D01*
X261502Y260800D01*
X261400Y261045D01*
Y264000D01*
X260176D01*
X260075Y264244D01*
X259571Y264748D01*
Y268200D01*
X258144Y271644D01*
X249044Y280744D01*
X245600Y282171D01*
D02*
G37*
G36*
X411600Y302971D02*
X400500D01*
X397056Y301544D01*
X363483Y267971D01*
X277800D01*
X274356Y266544D01*
X262573Y254762D01*
X261400Y255248D01*
Y256230D01*
X256670D01*
Y251000D01*
X257152D01*
X257638Y249827D01*
X250537Y242725D01*
X249110Y239281D01*
Y229600D01*
X249651Y228293D01*
Y221600D01*
X250919Y218538D01*
X253981Y217270D01*
X257042Y218538D01*
X258310Y221600D01*
Y228293D01*
X258852Y229600D01*
Y237263D01*
X262286Y240698D01*
X263342Y239992D01*
X262351Y237600D01*
Y230907D01*
X261810Y229600D01*
X262351Y228293D01*
Y221600D01*
X263619Y218538D01*
X266681Y217270D01*
X269742Y218538D01*
X271010Y221600D01*
Y224729D01*
X276231D01*
X279675Y226156D01*
X300848Y247329D01*
X325473D01*
X325721Y246084D01*
X323254Y245062D01*
X270670Y192477D01*
X269742Y192661D01*
X269742Y192661D01*
X269742Y192661D01*
X266681Y193930D01*
X263619Y192661D01*
X262351Y189600D01*
Y182906D01*
X261810Y181600D01*
X262351Y180293D01*
Y173600D01*
X263619Y170539D01*
X266208Y169466D01*
X266046Y168652D01*
X266046D01*
X265960Y168221D01*
X260268D01*
X258852Y169637D01*
Y181600D01*
X258310Y182906D01*
Y189600D01*
X257042Y192661D01*
X253981Y193930D01*
X250919Y192661D01*
X249651Y189600D01*
Y182906D01*
X249110Y181600D01*
Y167619D01*
X250537Y164175D01*
X254806Y159906D01*
X258250Y158479D01*
X402581D01*
X406025Y159906D01*
X406025Y159906D01*
X406025Y159906D01*
X444401Y198282D01*
X445603Y197873D01*
X446206Y193294D01*
X451464Y189260D01*
X458035Y190125D01*
X462069Y195382D01*
X461204Y201953D01*
X455946Y205988D01*
X453483Y205664D01*
X452922Y206803D01*
X455521Y209402D01*
X472065D01*
X472829Y207559D01*
X475890Y206291D01*
X476483Y206537D01*
X477301Y205909D01*
X483872Y206774D01*
X487906Y212032D01*
X487041Y218602D01*
X481783Y222637D01*
X475213Y221772D01*
X473196Y219144D01*
X453504D01*
X450327Y217827D01*
X449433Y218344D01*
X449213Y218563D01*
X448504Y223950D01*
X443246Y227985D01*
X436676Y227120D01*
X432641Y221862D01*
X433506Y215291D01*
X438764Y211257D01*
X442374Y211732D01*
X442935Y210593D01*
X400563Y168221D01*
X267402D01*
X267316Y168652D01*
X267316D01*
X267154Y169466D01*
X269742Y170539D01*
X271010Y173600D01*
Y179041D01*
X328716Y236747D01*
X421511D01*
X426064Y233254D01*
X432635Y234119D01*
X436669Y239377D01*
X435804Y245947D01*
X430546Y249982D01*
X423976Y249117D01*
X421959Y246488D01*
X372625D01*
X372377Y247734D01*
X374844Y248756D01*
X397866Y271777D01*
X398922Y271072D01*
X398229Y269400D01*
X399656Y265956D01*
X399956Y265656D01*
X400048Y265618D01*
X400508Y264508D01*
X405100Y262606D01*
X409692Y264508D01*
X411594Y269100D01*
X411036Y270448D01*
X419544Y278956D01*
X420971Y282400D01*
Y293600D01*
X419544Y297044D01*
X415044Y301544D01*
X411600Y302971D01*
D02*
G37*
G36*
X254130Y256230D02*
X249400D01*
Y251000D01*
X254130D01*
Y256230D01*
D02*
G37*
G36*
X97615Y251194D02*
X92357Y247160D01*
X91492Y240589D01*
X95527Y235331D01*
X102098Y234466D01*
X107355Y238501D01*
X108221Y245071D01*
X104186Y250329D01*
X97615Y251194D01*
D02*
G37*
G36*
X70328Y265332D02*
X65071Y261297D01*
X64205Y254727D01*
X68240Y249469D01*
X74811Y248604D01*
X80069Y252638D01*
X80934Y259209D01*
X76899Y264467D01*
X70328Y265332D01*
D02*
G37*
G36*
X456383Y266631D02*
X449813Y265766D01*
X445778Y260508D01*
X446643Y253937D01*
X451901Y249903D01*
X458472Y250768D01*
X462506Y256026D01*
X461641Y262596D01*
X456383Y266631D01*
D02*
G37*
G36*
X241281Y193930D02*
X238219Y192661D01*
X236951Y189600D01*
Y173600D01*
X238219Y170539D01*
X241281Y169270D01*
X244342Y170539D01*
X245610Y173600D01*
Y189600D01*
X244342Y192661D01*
X241281Y193930D01*
D02*
G37*
G36*
X223031Y165400D02*
X217801D01*
Y159397D01*
Y153400D01*
X223031D01*
Y154529D01*
X234731D01*
Y153200D01*
X239961D01*
Y159198D01*
Y165200D01*
X234731D01*
Y164271D01*
X223031D01*
Y165400D01*
D02*
G37*
G36*
X247731Y157930D02*
X242501D01*
Y153200D01*
X247731D01*
Y157930D01*
D02*
G37*
G36*
X46815Y163206D02*
X42648Y160008D01*
X48592Y156577D01*
X52023Y162520D01*
X46815Y163206D01*
D02*
G37*
G36*
X519883Y156646D02*
X514675Y155960D01*
X518107Y150016D01*
X524051Y153448D01*
X519883Y156646D01*
D02*
G37*
G36*
X525321Y151248D02*
X519377Y147817D01*
X522809Y141873D01*
X526006Y146040D01*
X525321Y151248D01*
D02*
G37*
G36*
X49521Y153107D02*
X46090Y147163D01*
X51298Y146478D01*
X55465Y149676D01*
X49521Y153107D01*
D02*
G37*
G36*
X163631Y206000D02*
X158401D01*
Y199997D01*
Y194000D01*
X163631D01*
Y195129D01*
X177422D01*
X177670Y193884D01*
X174719Y192661D01*
X173451Y189600D01*
Y185520D01*
X171828Y181600D01*
Y154850D01*
X173571Y150640D01*
X178812Y145400D01*
X172210Y138798D01*
X41872D01*
X40686Y140344D01*
X34115Y141209D01*
X31441Y139157D01*
X30302Y139718D01*
Y144283D01*
X35990Y149971D01*
X42710D01*
X43890Y148434D01*
X47322Y154377D01*
X41378Y157809D01*
X41557Y159172D01*
X42262Y159713D01*
X33973D01*
X30529Y158286D01*
X21987Y149744D01*
X20560Y146300D01*
Y125900D01*
X20560Y125900D01*
X20560Y125900D01*
X21987Y122456D01*
X24412Y120030D01*
X23850Y118891D01*
X21415Y119212D01*
X16157Y115177D01*
X15292Y108607D01*
X19327Y103349D01*
X25898Y102484D01*
X31156Y106518D01*
X31755Y111076D01*
X32958Y111484D01*
X51587Y92856D01*
X52595Y92438D01*
X55031Y91429D01*
X114377D01*
X119834Y78253D01*
X138311Y70600D01*
Y97997D01*
Y125400D01*
X119834Y117746D01*
X112969Y101171D01*
X57048D01*
X34398Y123821D01*
X34960Y124960D01*
X38598Y124481D01*
X41740Y126892D01*
X138658D01*
X138906Y125647D01*
X139581Y125926D01*
X139581D01*
Y125994D01*
X140479Y126892D01*
X174676D01*
X178885Y128635D01*
X178885Y128635D01*
X178885Y128635D01*
X189650Y139400D01*
X196831D01*
Y139447D01*
X210031D01*
Y139400D01*
X223031D01*
Y139447D01*
X234731D01*
Y139200D01*
X247731D01*
Y139447D01*
X255931D01*
X255931Y139447D01*
X470876D01*
X475085Y141191D01*
X479508Y145614D01*
X480829Y145787D01*
X481391Y144649D01*
X437913Y101171D01*
X416093D01*
X409227Y117746D01*
X390751Y125400D01*
Y97997D01*
Y70600D01*
X409227Y78253D01*
X414685Y91429D01*
X439931D01*
X443375Y92856D01*
X482537Y132017D01*
X483739Y131609D01*
X484306Y127303D01*
X489564Y123268D01*
X496135Y124134D01*
X500169Y129391D01*
X499304Y135962D01*
X494046Y139997D01*
X491939Y139719D01*
X491377Y140858D01*
X493930Y143411D01*
X510848D01*
X510143Y143952D01*
X509963Y145315D01*
X515907Y148747D01*
X512476Y154690D01*
X511296Y153152D01*
X491912D01*
X488468Y151726D01*
X487267Y152927D01*
X486604Y157959D01*
X481346Y161994D01*
X474776Y161129D01*
X470741Y155871D01*
X470995Y153939D01*
X468410Y151353D01*
X255931D01*
X255931Y151353D01*
X223031D01*
Y151400D01*
X210031D01*
Y151353D01*
X196831D01*
Y151400D01*
X189650D01*
X188823Y152227D01*
X189309Y153399D01*
X189061D01*
Y159403D01*
X191601D01*
Y153400D01*
X196831D01*
Y154529D01*
X210031D01*
Y153400D01*
X215261D01*
Y159397D01*
Y165400D01*
X210031D01*
Y164271D01*
X196831D01*
Y165400D01*
X195202D01*
Y181238D01*
X195352Y181600D01*
Y194850D01*
X193925Y198294D01*
X188775Y203444D01*
X185331Y204871D01*
X163631D01*
Y206000D01*
D02*
G37*
G36*
X247731Y165200D02*
X242501D01*
Y160470D01*
X247731D01*
Y165200D01*
D02*
G37*
G36*
X203181Y193930D02*
X200119Y192661D01*
X198851Y189600D01*
Y173600D01*
X200119Y170539D01*
X203181Y169270D01*
X206242Y170539D01*
X207510Y173600D01*
Y189600D01*
X206242Y192661D01*
X203181Y193930D01*
D02*
G37*
G36*
X215881D02*
X212819Y192661D01*
X211551Y189600D01*
Y173600D01*
X212819Y170539D01*
X215881Y169270D01*
X218942Y170539D01*
X220210Y173600D01*
Y189600D01*
X218942Y192661D01*
X215881Y193930D01*
D02*
G37*
G36*
X228581D02*
X225519Y192661D01*
X224251Y189600D01*
Y173600D01*
X225519Y170539D01*
X228581Y169270D01*
X231642Y170539D01*
X232910Y173600D01*
Y189600D01*
X231642Y192661D01*
X228581Y193930D01*
D02*
G37*
G36*
X59515Y185203D02*
X54257Y181169D01*
X53392Y174598D01*
X57427Y169340D01*
X63998Y168475D01*
X69255Y172509D01*
X70121Y179080D01*
X66086Y184338D01*
X59515Y185203D01*
D02*
G37*
G36*
X19528Y177344D02*
X14270Y173309D01*
X13405Y166738D01*
X17440Y161481D01*
X24011Y160616D01*
X29269Y164650D01*
X30134Y171221D01*
X26099Y176479D01*
X19528Y177344D01*
D02*
G37*
G36*
X507183Y178643D02*
X500613Y177778D01*
X496578Y172520D01*
X497443Y165949D01*
X502701Y161915D01*
X509272Y162780D01*
X513306Y168037D01*
X512441Y174608D01*
X507183Y178643D01*
D02*
G37*
G36*
X468646Y183991D02*
X462076Y183126D01*
X458041Y177868D01*
X458906Y171297D01*
X464164Y167263D01*
X470735Y168128D01*
X474769Y173386D01*
X473904Y179956D01*
X468646Y183991D01*
D02*
G37*
%LPD*%
D12*
X157131Y200000D02*
X185331D01*
X190481Y194850D01*
Y181600D02*
Y194850D01*
X221431Y159400D02*
X221431Y159400D01*
X49057Y154842D02*
X111973D01*
X157131Y200000D01*
X140181Y96300D02*
X195531D01*
X209731Y110500D01*
X140181Y96300D02*
X191381Y45100D01*
X338881D01*
X390081Y96300D01*
X190331Y159400D02*
Y181450D01*
X190481Y181600D01*
X33973Y154842D02*
X49057D01*
X25431Y146300D02*
X33973Y154842D01*
X25431Y125900D02*
Y146300D01*
Y125900D02*
X55031Y96300D01*
X140181D01*
X491912Y148282D02*
X517642D01*
X439931Y96300D02*
X491912Y148282D01*
X390081Y96300D02*
X439931D01*
X402581Y163350D02*
X453504Y214273D01*
X479542D01*
X190331Y159400D02*
X221431D01*
X221431Y159400D02*
X241231D01*
X266681Y229600D02*
X276231D01*
X266681Y181600D02*
X326699Y241618D01*
X428305D01*
X138331Y248600D02*
X167031Y277300D01*
X245600D01*
X254700Y262731D02*
X256631Y260800D01*
X254700Y262731D02*
Y268200D01*
X245600Y277300D02*
X254700Y268200D01*
X183700Y256519D02*
Y258800D01*
X177781Y250600D02*
X183700Y256519D01*
X253981Y167619D02*
Y181600D01*
Y167619D02*
X258250Y163350D01*
X402581D01*
X371400Y252200D02*
X403100Y283900D01*
X298831Y252200D02*
X371400D01*
X276231Y229600D02*
X298831Y252200D01*
X403100Y269400D02*
X416100Y282400D01*
Y293600D01*
X411600Y298100D02*
X416100Y293600D01*
X400500Y298100D02*
X411600D01*
X365500Y263100D02*
X400500Y298100D01*
X138331Y214969D02*
Y248600D01*
Y214969D02*
X153300Y200000D01*
X157131D01*
X253981Y229600D02*
Y239281D01*
X277800Y263100D01*
X365500D01*
X403100Y269400D02*
X403400Y269100D01*
X405100D01*
D13*
X-41730Y58994D02*
D03*
X-29030Y80991D02*
D03*
X-16330Y102988D02*
D03*
X-3631Y124986D02*
D03*
X9069Y146982D02*
D03*
X21769Y168980D02*
D03*
X34469Y190977D02*
D03*
X47169Y212974D02*
D03*
X59869Y234971D02*
D03*
X72569Y256968D02*
D03*
X99857Y242830D02*
D03*
X87156Y220833D02*
D03*
X74457Y198836D02*
D03*
X61757Y176839D02*
D03*
X49057Y154842D02*
D03*
X36356Y132845D02*
D03*
X23656Y110848D02*
D03*
X10956Y88851D02*
D03*
X-1743Y66854D02*
D03*
X-14444Y44857D02*
D03*
X542605Y43644D02*
D03*
X529905Y65641D02*
D03*
X517205Y87638D02*
D03*
X504505Y109635D02*
D03*
X491805Y131632D02*
D03*
X479105Y153630D02*
D03*
X466405Y175627D02*
D03*
X453705Y197624D02*
D03*
X441005Y219621D02*
D03*
X428305Y241618D02*
D03*
X454142Y258267D02*
D03*
X466842Y236270D02*
D03*
X479542Y214273D02*
D03*
X492242Y192276D02*
D03*
X504942Y170279D02*
D03*
X517642Y148282D02*
D03*
X530342Y126285D02*
D03*
X543042Y104288D02*
D03*
X555742Y82290D02*
D03*
X568442Y60293D02*
D03*
D14*
X139581Y98000D02*
D03*
X389481D02*
D03*
D15*
X319931Y112200D02*
D03*
D16*
X306081Y83800D02*
D03*
X292231Y112200D02*
D03*
X278381Y83800D02*
D03*
X264531Y112200D02*
D03*
X250681Y83800D02*
D03*
X236831Y112200D02*
D03*
X222981Y83800D02*
D03*
X209131Y112200D02*
D03*
D17*
X403100Y283900D02*
D03*
X405100Y269100D02*
D03*
D18*
X214600Y257900D02*
D03*
X228600D02*
D03*
X183700Y258800D02*
D03*
X197700D02*
D03*
X255400Y257500D02*
D03*
X241400D02*
D03*
D19*
X157131Y200000D02*
D03*
Y214000D02*
D03*
X241231Y145200D02*
D03*
Y159200D02*
D03*
X216531Y145400D02*
D03*
Y159400D02*
D03*
X190331Y145400D02*
D03*
Y159400D02*
D03*
D20*
X266681Y181600D02*
D03*
X253981D02*
D03*
X241281D02*
D03*
X228581D02*
D03*
X215881D02*
D03*
X203181D02*
D03*
X190481D02*
D03*
X177781D02*
D03*
X266681Y229600D02*
D03*
X253981D02*
D03*
X241281D02*
D03*
X228581D02*
D03*
X215881D02*
D03*
X203181D02*
D03*
X190481D02*
D03*
X177781D02*
D03*
D21*
X241281D02*
Y256450D01*
X228581Y229600D02*
Y260050D01*
X215881Y229600D02*
Y258750D01*
X212231Y265200D02*
X213581Y263850D01*
X177781Y229600D02*
Y250600D01*
X190481Y218850D02*
Y229600D01*
X185631Y214000D02*
X190481Y218850D01*
X157131Y214000D02*
X185631D01*
X475890Y210621D02*
X479542Y214273D01*
X203181Y229600D02*
Y253319D01*
X197700Y258800D02*
X203181Y253319D01*
D22*
X255931Y145400D02*
X255931Y145400D01*
X221431Y145400D02*
X255931D01*
X190331D02*
X221431D01*
X177781Y154850D02*
Y181600D01*
Y154850D02*
X187231Y145400D01*
X190331D01*
X36356Y132845D02*
X174676D01*
X187231Y145400D01*
X255931Y145400D02*
X470876D01*
X479105Y153630D01*
M02*
