%FSLAX44Y44*%
%MOMM*%
G71*
G01*
G75*
G04 Layer_Color=255*
%ADD10C,0.2540*%
%ADD11C,0.2000*%
%ADD12C,0.5000*%
%ADD13C,1.2000*%
%ADD14C,4.7600*%
%ADD15R,1.6900X1.6900*%
%ADD16C,1.6900*%
%ADD17C,0.8000*%
%ADD18R,0.8000X0.9000*%
%ADD19R,0.9000X0.8000*%
%ADD20O,0.6000X2.2000*%
%ADD21C,0.4000*%
%ADD22C,0.7000*%
D13*
X-41730Y58994D02*
D03*
X-29030Y80991D02*
D03*
X-16330Y102988D02*
D03*
X-3631Y124986D02*
D03*
X9069Y146982D02*
D03*
X21769Y168980D02*
D03*
X34469Y190977D02*
D03*
X47169Y212974D02*
D03*
X59869Y234971D02*
D03*
X72569Y256968D02*
D03*
X99857Y242830D02*
D03*
X87156Y220833D02*
D03*
X74457Y198836D02*
D03*
X61757Y176839D02*
D03*
X49057Y154842D02*
D03*
X36356Y132845D02*
D03*
X23656Y110848D02*
D03*
X10956Y88851D02*
D03*
X-1743Y66854D02*
D03*
X-14444Y44857D02*
D03*
X542605Y43644D02*
D03*
X529905Y65641D02*
D03*
X517205Y87638D02*
D03*
X504505Y109635D02*
D03*
X491805Y131632D02*
D03*
X479105Y153630D02*
D03*
X466405Y175627D02*
D03*
X453705Y197624D02*
D03*
X441005Y219621D02*
D03*
X428305Y241618D02*
D03*
X454142Y258267D02*
D03*
X466842Y236270D02*
D03*
X479542Y214273D02*
D03*
X492242Y192276D02*
D03*
X504942Y170279D02*
D03*
X517642Y148282D02*
D03*
X530342Y126285D02*
D03*
X543042Y104288D02*
D03*
X555742Y82290D02*
D03*
X568442Y60293D02*
D03*
D14*
X139581Y98000D02*
D03*
X389481D02*
D03*
D15*
X319931Y112200D02*
D03*
D16*
X306081Y83800D02*
D03*
X292231Y112200D02*
D03*
X278381Y83800D02*
D03*
X264531Y112200D02*
D03*
X250681Y83800D02*
D03*
X236831Y112200D02*
D03*
X222981Y83800D02*
D03*
X209131Y112200D02*
D03*
D18*
X214600Y257900D02*
D03*
X228600D02*
D03*
X183700Y258800D02*
D03*
X197700D02*
D03*
X255400Y257500D02*
D03*
X241400D02*
D03*
D19*
X157131Y200000D02*
D03*
Y214000D02*
D03*
X241231Y145200D02*
D03*
Y159200D02*
D03*
X216531Y145400D02*
D03*
Y159400D02*
D03*
X190331Y145400D02*
D03*
Y159400D02*
D03*
D20*
X266681Y181600D02*
D03*
X253981D02*
D03*
X241281D02*
D03*
X228581D02*
D03*
X215881D02*
D03*
X203181D02*
D03*
X190481D02*
D03*
X177781D02*
D03*
X266681Y229600D02*
D03*
X253981D02*
D03*
X241281D02*
D03*
X228581D02*
D03*
X215881D02*
D03*
X203181D02*
D03*
X190481D02*
D03*
X177781D02*
D03*
M02*
