M48
;Layer_Color=9474304
;FILE_FORMAT=4:4
METRIC,TZ
;TYPE=PLATED
T1F00S00C0.4000
T2F00S00C0.6500
T3F00S00C1.0900
T4F00S00C3.2600
%
T01
X405100Y269100
X403100Y283900
T02
X568442Y60293
X555742Y82290
X543042Y104288
X530342Y126285
X517642Y148282
X504942Y170279
X492242Y192276
X479542Y214273
X466842Y236270
X454142Y258267
X428305Y241618
X441005Y219621
X453705Y197624
X466405Y175627
X479105Y153630
X491805Y131632
X504505Y109635
X517205Y87638
X529905Y65641
X542605Y43644
X-14444Y44857
X-1743Y66854
X10956Y88851
X23656Y110848
X36356Y132845
X49057Y154842
X61757Y176839
X74457Y198836
X87156Y220833
X99857Y242830
X72569Y256968
X59869Y234971
X47169Y212974
X34469Y190977
X21769Y168980
X9069Y146982
X-3631Y124986
X-16330Y102988
X-29030Y80991
X-41730Y58994
T03
X222981Y83800
X250681
X278381
X306081
X319931Y112200
X292231
X264531
X236831
X209131
T04
X389481Y98000
X139581
M30
