%FSLAX44Y44*%
%MOMM*%
G71*
G01*
G75*
G04 Layer_Color=8388736*
%ADD10C,0.2540*%
%ADD11C,0.2000*%
%ADD12C,0.5000*%
%ADD13C,1.2000*%
%ADD14C,4.7600*%
%ADD15R,1.6900X1.6900*%
%ADD16C,1.6900*%
%ADD17C,0.8000*%
%ADD18R,0.8000X0.9000*%
%ADD19R,0.9000X0.8000*%
%ADD20O,0.6000X2.2000*%
%ADD21C,0.4000*%
%ADD22C,0.7000*%
%ADD23C,0.2500*%
%ADD24C,0.1500*%
%ADD25C,1.4032*%
%ADD26C,4.9632*%
%ADD27R,1.8932X1.8932*%
%ADD28C,1.8932*%
%ADD29C,1.0032*%
G36*
X336636Y275325D02*
Y275281D01*
Y275237D01*
Y274973D01*
X336724Y274534D01*
X336812Y274051D01*
X336944Y273479D01*
X337164Y272908D01*
X337471Y272337D01*
X337867Y271854D01*
X337911Y271810D01*
X338086Y271678D01*
X338394Y271458D01*
X338789Y271238D01*
X339273Y271019D01*
X339888Y270799D01*
X340591Y270667D01*
X341426Y270623D01*
X349907D01*
Y263900D01*
X341074D01*
X340811Y263944D01*
X340547D01*
X339844Y263988D01*
X339053Y264076D01*
X338174Y264251D01*
X337295Y264427D01*
X336461Y264691D01*
X336417D01*
X336373Y264735D01*
X336109Y264823D01*
X335670Y265042D01*
X335186Y265262D01*
X334615Y265614D01*
X334000Y266009D01*
X333385Y266449D01*
X332813Y266976D01*
X332769Y267064D01*
X332594Y267240D01*
X332330Y267547D01*
X331978Y267987D01*
X331627Y268514D01*
X331275Y269129D01*
X330924Y269832D01*
X330616Y270579D01*
Y270623D01*
X330572Y270667D01*
Y270799D01*
X330528Y270931D01*
X330397Y271370D01*
X330265Y271985D01*
X330133Y272644D01*
X330045Y273479D01*
X329957Y274358D01*
X329913Y275325D01*
Y289958D01*
X336636D01*
Y275325D01*
D02*
G37*
G36*
X364408Y289914D02*
X364671D01*
X364979Y289870D01*
X365770Y289738D01*
X366649Y289562D01*
X367659Y289254D01*
X368758Y288859D01*
X369856Y288332D01*
X370955Y287629D01*
X371526Y287233D01*
X372054Y286794D01*
X372581Y286266D01*
X373064Y285739D01*
X373548Y285124D01*
X373987Y284465D01*
X374383Y283762D01*
X374734Y282971D01*
X375042Y282136D01*
X375305Y281257D01*
X375525Y280290D01*
X375701Y279236D01*
X375789Y278137D01*
X375833Y276951D01*
Y276863D01*
Y276643D01*
Y276336D01*
X375789Y275852D01*
X375745Y275325D01*
X375657Y274710D01*
X375569Y274007D01*
X375437Y273260D01*
X375305Y272469D01*
X375086Y271634D01*
X374822Y270843D01*
X374558Y270008D01*
X374163Y269217D01*
X373767Y268470D01*
X373284Y267767D01*
X372757Y267108D01*
X372713Y267064D01*
X372625Y266976D01*
X372449Y266800D01*
X372185Y266624D01*
X371878Y266361D01*
X371482Y266097D01*
X371043Y265790D01*
X370516Y265526D01*
X369900Y265218D01*
X369241Y264911D01*
X368494Y264647D01*
X367703Y264383D01*
X366868Y264208D01*
X365902Y264032D01*
X364891Y263944D01*
X363836Y263900D01*
X352895D01*
Y289958D01*
X364188D01*
X364408Y289914D01*
D02*
G37*
G36*
X291815Y263900D02*
X285092D01*
Y273655D01*
X276831D01*
Y263900D01*
X270108D01*
Y289958D01*
X276831D01*
Y280378D01*
X285092D01*
Y289958D01*
X291815D01*
Y263900D01*
D02*
G37*
G36*
X265494Y283235D02*
X251784D01*
X251521Y283190D01*
X251213Y283059D01*
X250905Y282795D01*
X250862Y282707D01*
X250730Y282487D01*
X250554Y282180D01*
X250510Y281784D01*
Y281740D01*
Y281696D01*
X250554Y281433D01*
X250686Y281081D01*
X250905Y280730D01*
X250993Y280686D01*
X251169Y280554D01*
X251521Y280378D01*
X251916Y280334D01*
X258815D01*
X259079Y280290D01*
X259430D01*
X259826Y280246D01*
X260749Y280071D01*
X261759Y279851D01*
X262814Y279455D01*
X263824Y278972D01*
X264308Y278621D01*
X264747Y278269D01*
X264791Y278225D01*
X264835Y278181D01*
X264967Y278049D01*
X265099Y277873D01*
X265275Y277654D01*
X265494Y277434D01*
X265714Y277083D01*
X265934Y276731D01*
X266109Y276336D01*
X266329Y275896D01*
X266549Y275369D01*
X266725Y274841D01*
X266856Y274226D01*
X266988Y273567D01*
X267032Y272864D01*
X267076Y272117D01*
Y272073D01*
Y271941D01*
Y271722D01*
X267032Y271458D01*
X266988Y271106D01*
X266944Y270711D01*
X266812Y269832D01*
X266505Y268822D01*
X266109Y267811D01*
X265846Y267283D01*
X265538Y266844D01*
X265187Y266361D01*
X264791Y265965D01*
X264747D01*
X264703Y265877D01*
X264571Y265790D01*
X264352Y265658D01*
X264132Y265482D01*
X263868Y265306D01*
X263517Y265130D01*
X263121Y264955D01*
X262682Y264735D01*
X262199Y264559D01*
X261671Y264383D01*
X261100Y264208D01*
X260485Y264076D01*
X259826Y263988D01*
X259079Y263944D01*
X258332Y263900D01*
X244973D01*
Y270623D01*
X259210D01*
X259430Y270667D01*
X259694Y270799D01*
X259958Y271019D01*
X260002Y271106D01*
X260133Y271326D01*
X260265Y271678D01*
X260309Y272117D01*
Y272161D01*
Y272205D01*
Y272249D01*
X260265Y272513D01*
X260177Y272864D01*
X259958Y273172D01*
X259914Y273260D01*
X259738Y273391D01*
X259474Y273523D01*
X259123Y273611D01*
X252092D01*
X251653Y273655D01*
X251081Y273699D01*
X250422Y273787D01*
X249763Y273919D01*
X249060Y274095D01*
X248401Y274358D01*
X248313Y274402D01*
X248137Y274490D01*
X247830Y274666D01*
X247478Y274886D01*
X247039Y275149D01*
X246599Y275457D01*
X246160Y275852D01*
X245720Y276248D01*
X245676Y276292D01*
X245545Y276467D01*
X245369Y276687D01*
X245149Y276995D01*
X244929Y277390D01*
X244666Y277830D01*
X244446Y278313D01*
X244226Y278840D01*
Y278928D01*
X244138Y279104D01*
X244095Y279412D01*
X244007Y279763D01*
X243919Y280246D01*
X243875Y280730D01*
X243787Y281828D01*
Y281916D01*
Y282092D01*
X243831Y282400D01*
Y282839D01*
X243919Y283278D01*
X244007Y283806D01*
X244095Y284377D01*
X244270Y284904D01*
X244314Y284992D01*
X244358Y285168D01*
X244490Y285432D01*
X244666Y285783D01*
X244841Y286179D01*
X245105Y286618D01*
X245457Y287057D01*
X245808Y287497D01*
X245852Y287541D01*
X245984Y287673D01*
X246248Y287892D01*
X246555Y288156D01*
X246951Y288420D01*
X247390Y288727D01*
X247917Y289035D01*
X248533Y289298D01*
X248620Y289342D01*
X248840Y289386D01*
X249192Y289518D01*
X249675Y289650D01*
X250246Y289738D01*
X250905Y289870D01*
X251653Y289914D01*
X252487Y289958D01*
X265494D01*
Y283235D01*
D02*
G37*
G36*
X301878Y263900D02*
X295155D01*
Y289958D01*
X301878D01*
Y263900D01*
D02*
G37*
G36*
X326530Y283235D02*
X312820D01*
X312556Y283190D01*
X312248Y283059D01*
X311941Y282795D01*
X311897Y282707D01*
X311765Y282487D01*
X311589Y282180D01*
X311546Y281784D01*
Y281740D01*
Y281696D01*
X311589Y281433D01*
X311677Y281081D01*
X311897Y280730D01*
X311985Y280686D01*
X312161Y280554D01*
X312512Y280378D01*
X312952Y280334D01*
X326530D01*
Y273611D01*
X312820D01*
X312556Y273567D01*
X312248Y273435D01*
X311941Y273172D01*
X311897Y273084D01*
X311765Y272908D01*
X311589Y272557D01*
X311546Y272117D01*
Y272073D01*
Y272029D01*
X311589Y271722D01*
X311721Y271370D01*
X311941Y271019D01*
X312029Y270975D01*
X312205Y270843D01*
X312556Y270667D01*
X312952Y270623D01*
X326530D01*
Y263900D01*
X311677D01*
X311370Y263944D01*
X310930Y263988D01*
X310447Y264032D01*
X309920Y264164D01*
X309392Y264296D01*
X308865Y264471D01*
X308821Y264515D01*
X308645Y264603D01*
X308382Y264735D01*
X308074Y264911D01*
X307722Y265130D01*
X307327Y265438D01*
X306975Y265746D01*
X306624Y266097D01*
X306580Y266141D01*
X306492Y266273D01*
X306316Y266493D01*
X306141Y266756D01*
X305921Y267108D01*
X305701Y267547D01*
X305481Y267987D01*
X305262Y268470D01*
Y268514D01*
X305174Y268734D01*
X305130Y268997D01*
X305042Y269349D01*
X304954Y269788D01*
X304866Y270272D01*
X304822Y270799D01*
X304778Y271370D01*
Y271414D01*
Y271502D01*
Y271634D01*
X304822Y271810D01*
X304866Y272293D01*
X304954Y272820D01*
Y272864D01*
X304998Y272952D01*
X305042Y273128D01*
X305086Y273304D01*
X305262Y273787D01*
X305481Y274358D01*
Y274402D01*
X305569Y274490D01*
X305657Y274666D01*
X305745Y274841D01*
X306053Y275325D01*
X306448Y275852D01*
X306492Y275896D01*
X306536Y275984D01*
X306668Y276116D01*
X306844Y276248D01*
X307239Y276643D01*
X307766Y277039D01*
X307679Y277083D01*
X307503Y277214D01*
X307195Y277434D01*
X306844Y277742D01*
X306448Y278137D01*
X306097Y278577D01*
X305745Y279104D01*
X305438Y279675D01*
X305394Y279763D01*
X305350Y279939D01*
X305262Y280290D01*
X305130Y280730D01*
X304998Y281257D01*
X304910Y281828D01*
X304866Y282487D01*
X304822Y283147D01*
Y283190D01*
Y283366D01*
X304866Y283630D01*
Y283981D01*
X304954Y284377D01*
X305042Y284816D01*
X305130Y285256D01*
X305306Y285739D01*
X305350Y285783D01*
X305394Y285959D01*
X305525Y286179D01*
X305701Y286486D01*
X306141Y287189D01*
X306756Y287892D01*
X306800Y287936D01*
X306931Y288068D01*
X307107Y288200D01*
X307371Y288420D01*
X307722Y288683D01*
X308074Y288903D01*
X308514Y289167D01*
X308997Y289386D01*
X309041Y289430D01*
X309216Y289474D01*
X309524Y289562D01*
X309876Y289694D01*
X310315Y289782D01*
X310798Y289870D01*
X311370Y289914D01*
X311985Y289958D01*
X326530D01*
Y283235D01*
D02*
G37*
G36*
X303565Y322089D02*
X304004Y322046D01*
X304531Y321914D01*
X305191Y321738D01*
X305893Y321430D01*
X306641Y321035D01*
X307344Y320463D01*
X307388D01*
X307432Y320376D01*
X307651Y320156D01*
X308003Y319760D01*
X308398Y319277D01*
X308882Y318618D01*
X309365Y317827D01*
X309804Y316904D01*
X310200Y315850D01*
X314462Y302711D01*
Y302667D01*
X314550Y302579D01*
X314638Y302447D01*
X314770Y302403D01*
X314814D01*
X314902Y302447D01*
X314989Y302579D01*
X315033Y302843D01*
Y321914D01*
X322020D01*
Y302711D01*
Y302623D01*
Y302447D01*
X321976Y302140D01*
X321932Y301744D01*
X321888Y301305D01*
X321801Y300821D01*
X321625Y300294D01*
X321449Y299811D01*
X321405Y299767D01*
X321361Y299591D01*
X321229Y299327D01*
X321054Y299020D01*
X320834Y298668D01*
X320526Y298317D01*
X320219Y297921D01*
X319867Y297570D01*
X319823Y297526D01*
X319691Y297438D01*
X319472Y297262D01*
X319208Y297043D01*
X318856Y296823D01*
X318461Y296603D01*
X318022Y296383D01*
X317538Y296164D01*
X317494D01*
X317318Y296076D01*
X317055Y296032D01*
X316703Y295944D01*
X316264Y295856D01*
X315781Y295768D01*
X315209Y295724D01*
X314638Y295680D01*
X314418D01*
X314242Y295724D01*
X313803Y295768D01*
X313276Y295856D01*
X312617Y296032D01*
X311957Y296252D01*
X311255Y296603D01*
X310551Y297043D01*
X310464Y297086D01*
X310244Y297306D01*
X309936Y297614D01*
X309541Y298053D01*
X309101Y298580D01*
X308662Y299284D01*
X308266Y300075D01*
X307915Y300953D01*
X303345Y315059D01*
Y315103D01*
X303301Y315234D01*
X303213Y315322D01*
X303037Y315366D01*
X302993D01*
X302949Y315322D01*
X302861Y315234D01*
X302818Y315015D01*
Y295900D01*
X295831D01*
Y315059D01*
Y315147D01*
Y315322D01*
X295875Y315630D01*
X295919Y316025D01*
X295963Y316465D01*
X296050Y316948D01*
X296182Y317475D01*
X296358Y317959D01*
X296402Y318003D01*
X296446Y318179D01*
X296578Y318442D01*
X296754Y318750D01*
X296973Y319101D01*
X297237Y319453D01*
X297896Y320200D01*
X297940Y320244D01*
X298072Y320332D01*
X298292Y320508D01*
X298555Y320727D01*
X298907Y320947D01*
X299346Y321167D01*
X299786Y321386D01*
X300269Y321606D01*
X300313Y321650D01*
X300489Y321694D01*
X300796Y321782D01*
X301148Y321870D01*
X301587Y321958D01*
X302071Y322046D01*
X302598Y322133D01*
X303389D01*
X303565Y322089D01*
D02*
G37*
G36*
X363370Y321914D02*
X363633D01*
X363941Y321870D01*
X364732Y321738D01*
X365611Y321562D01*
X366621Y321255D01*
X367720Y320859D01*
X368819Y320332D01*
X369917Y319629D01*
X370488Y319233D01*
X371016Y318794D01*
X371543Y318266D01*
X372026Y317739D01*
X372510Y317124D01*
X372949Y316465D01*
X373344Y315762D01*
X373696Y314971D01*
X374004Y314136D01*
X374267Y313257D01*
X374487Y312290D01*
X374663Y311236D01*
X374751Y310137D01*
X374795Y308951D01*
Y308863D01*
Y308643D01*
Y308336D01*
X374751Y307852D01*
X374707Y307325D01*
X374619Y306710D01*
X374531Y306007D01*
X374399Y305260D01*
X374267Y304469D01*
X374048Y303634D01*
X373784Y302843D01*
X373520Y302008D01*
X373125Y301217D01*
X372729Y300470D01*
X372246Y299767D01*
X371719Y299108D01*
X371675Y299064D01*
X371587Y298976D01*
X371411Y298800D01*
X371147Y298624D01*
X370840Y298361D01*
X370444Y298097D01*
X370005Y297789D01*
X369478Y297526D01*
X368862Y297218D01*
X368203Y296911D01*
X367456Y296647D01*
X366665Y296383D01*
X365830Y296208D01*
X364864Y296032D01*
X363853Y295944D01*
X362798Y295900D01*
X351857D01*
Y321958D01*
X363150D01*
X363370Y321914D01*
D02*
G37*
G36*
X268132Y219731D02*
X272354Y218450D01*
X276246Y216370D01*
X279657Y213571D01*
X282456Y210160D01*
X284536Y206269D01*
X285817Y202046D01*
X286249Y197655D01*
X285817Y193264D01*
X284536Y189042D01*
X282456Y185150D01*
X279657Y181739D01*
X276246Y178940D01*
X272354Y176860D01*
X268132Y175579D01*
X263741Y175147D01*
X259350Y175579D01*
X255127Y176860D01*
X251236Y178940D01*
X247825Y181739D01*
X245026Y185150D01*
X242946Y189042D01*
X241665Y193264D01*
X241232Y197655D01*
X241665Y202046D01*
X242946Y206269D01*
X245026Y210160D01*
X247825Y213571D01*
X251236Y216370D01*
X255127Y218450D01*
X259350Y219731D01*
X263741Y220163D01*
X268132Y219731D01*
D02*
G37*
G36*
X346847Y315234D02*
X335862D01*
X335598Y315191D01*
X335247Y315147D01*
X334763Y315059D01*
X334236Y314839D01*
X333709Y314575D01*
X333226Y314224D01*
X332786Y313696D01*
X332742Y313609D01*
X332610Y313433D01*
X332435Y313037D01*
X332259Y312510D01*
X332083Y311851D01*
X331907Y311016D01*
X331775Y310005D01*
X331731Y309434D01*
Y308819D01*
Y308731D01*
Y308555D01*
X331775Y308248D01*
X331819Y307852D01*
X331863Y307369D01*
X331951Y306842D01*
X332083Y306314D01*
X332259Y305743D01*
X332478Y305128D01*
X332742Y304601D01*
X333094Y304073D01*
X333489Y303590D01*
X333973Y303194D01*
X334544Y302887D01*
X335159Y302711D01*
X335906Y302623D01*
X340959D01*
X341179Y302667D01*
X341443Y302799D01*
X341706Y303062D01*
Y303106D01*
X341750Y303150D01*
X341926Y303370D01*
X342058Y303722D01*
X342102Y304117D01*
Y304161D01*
Y304205D01*
X342058Y304469D01*
X341926Y304820D01*
X341706Y305216D01*
Y305260D01*
X341662Y305304D01*
X341487Y305479D01*
X341223Y305655D01*
X341047Y305743D01*
X335818D01*
Y312466D01*
X341311D01*
X341618Y312422D01*
X342058Y312378D01*
X342497Y312290D01*
X343024Y312159D01*
X343552Y311983D01*
X344079Y311763D01*
X344123Y311719D01*
X344343Y311631D01*
X344606Y311499D01*
X344914Y311280D01*
X345309Y311016D01*
X345749Y310708D01*
X346144Y310313D01*
X346540Y309918D01*
X346584Y309874D01*
X346716Y309698D01*
X346891Y309478D01*
X347155Y309170D01*
X347419Y308775D01*
X347682Y308336D01*
X347946Y307808D01*
X348210Y307281D01*
X348254Y307237D01*
X348298Y307017D01*
X348386Y306754D01*
X348517Y306358D01*
X348649Y305919D01*
X348737Y305435D01*
X348781Y304908D01*
X348825Y304337D01*
Y304249D01*
Y304029D01*
X348781Y303678D01*
X348737Y303238D01*
X348649Y302711D01*
X348561Y302140D01*
X348386Y301525D01*
X348166Y300953D01*
X348122Y300909D01*
X348034Y300690D01*
X347902Y300426D01*
X347726Y300075D01*
X347463Y299635D01*
X347199Y299196D01*
X346847Y298756D01*
X346452Y298317D01*
X346408Y298273D01*
X346276Y298141D01*
X346013Y297921D01*
X345749Y297702D01*
X345354Y297394D01*
X344914Y297130D01*
X344475Y296823D01*
X343947Y296559D01*
X343903Y296515D01*
X343728Y296471D01*
X343420Y296383D01*
X343069Y296252D01*
X342629Y296120D01*
X342146Y296032D01*
X341575Y295944D01*
X341003Y295900D01*
X336653D01*
X336433Y295944D01*
X336170D01*
X335862Y295988D01*
X335115Y296120D01*
X334192Y296295D01*
X333181Y296603D01*
X332083Y296999D01*
X330984Y297526D01*
X329886Y298229D01*
X329315Y298624D01*
X328787Y299064D01*
X328260Y299547D01*
X327777Y300118D01*
X327293Y300734D01*
X326898Y301349D01*
X326458Y302096D01*
X326107Y302843D01*
X325799Y303678D01*
X325536Y304601D01*
X325316Y305567D01*
X325140Y306578D01*
X325052Y307676D01*
X325008Y308863D01*
Y308995D01*
Y309039D01*
Y309126D01*
Y309302D01*
X325052Y309566D01*
Y309830D01*
X325096Y310181D01*
X325140Y310577D01*
X325228Y311016D01*
X325404Y311983D01*
X325667Y313081D01*
X326063Y314268D01*
X326546Y315498D01*
X327205Y316684D01*
X327996Y317871D01*
X328480Y318398D01*
X328963Y318969D01*
X329534Y319453D01*
X330106Y319936D01*
X330765Y320376D01*
X331512Y320771D01*
X332259Y321123D01*
X333094Y321386D01*
X333973Y321650D01*
X334895Y321826D01*
X335906Y321914D01*
X337005Y321958D01*
X346847D01*
Y315234D01*
D02*
G37*
G36*
X270906Y250241D02*
X277555Y248918D01*
X283975Y246739D01*
X290055Y243741D01*
X295692Y239974D01*
X300790Y235504D01*
X305260Y230407D01*
X309026Y224770D01*
X312025Y218689D01*
X312171Y218259D01*
X312094Y218228D01*
X312291Y217750D01*
X311887Y216775D01*
X311621Y216665D01*
X311615Y216674D01*
X311617Y216679D01*
X311609Y216684D01*
X311615Y216674D01*
X311474Y216335D01*
X310499Y215931D01*
X309569Y216316D01*
X309629Y216380D01*
X309641Y216393D01*
X305711Y219906D01*
X299657Y224201D01*
X293160Y227792D01*
X286303Y230632D01*
X279170Y232687D01*
X271852Y233931D01*
X264441Y234347D01*
X257030Y233931D01*
X249712Y232687D01*
X242579Y230632D01*
X235721Y227792D01*
X229224Y224201D01*
X223171Y219906D01*
X218203Y215466D01*
X220756Y213371D01*
X223556Y209960D01*
X225636Y206069D01*
X226917Y201846D01*
X227349Y197455D01*
X226917Y193064D01*
X225636Y188841D01*
X223556Y184950D01*
X220756Y181539D01*
X219207Y180268D01*
X222971Y176904D01*
X229025Y172609D01*
X235521Y169018D01*
X242379Y166178D01*
X249512Y164123D01*
X256830Y162879D01*
X264241Y162463D01*
X271652Y162879D01*
X278970Y164123D01*
X286103Y166178D01*
X292960Y169018D01*
X299457Y172609D01*
X305511Y176904D01*
X310742Y181579D01*
X309384Y182694D01*
X306585Y186105D01*
X304505Y189996D01*
X303224Y194219D01*
X302792Y198610D01*
X303224Y203001D01*
X304505Y207224D01*
X306585Y211115D01*
X309384Y214526D01*
X312795Y217325D01*
X316686Y219405D01*
X320909Y220686D01*
X325300Y221118D01*
X329691Y220686D01*
X333914Y219405D01*
X337805Y217325D01*
X341216Y214526D01*
X344015Y211115D01*
X346095Y207224D01*
X347376Y203001D01*
X347808Y198610D01*
X347376Y194219D01*
X346095Y189996D01*
X344015Y186105D01*
X341216Y182694D01*
X337805Y179895D01*
X333914Y177815D01*
X329691Y176534D01*
X325300Y176102D01*
X320909Y176534D01*
X316686Y177815D01*
X312795Y179895D01*
X312735Y179944D01*
X312203Y179468D01*
X312166Y179506D01*
X311425Y177321D01*
X308426Y171240D01*
X304660Y165603D01*
X300189Y160506D01*
X295092Y156036D01*
X289455Y152269D01*
X283375Y149271D01*
X276955Y147092D01*
X270306Y145769D01*
X263541Y145326D01*
X256776Y145769D01*
X250126Y147092D01*
X243706Y149271D01*
X237626Y152269D01*
X231989Y156036D01*
X226892Y160506D01*
X222422Y165603D01*
X218655Y171240D01*
X215657Y177321D01*
X215511Y177751D01*
X215588Y177782D01*
X215582Y177797D01*
X213454Y176660D01*
X209232Y175379D01*
X204841Y174947D01*
X200450Y175379D01*
X196227Y176660D01*
X192336Y178740D01*
X188925Y181539D01*
X186126Y184950D01*
X184046Y188841D01*
X182765Y193064D01*
X182332Y197455D01*
X182765Y201846D01*
X184046Y206069D01*
X186126Y209960D01*
X188925Y213371D01*
X192336Y216170D01*
X196227Y218250D01*
X200450Y219531D01*
X204841Y219963D01*
X209232Y219531D01*
X213454Y218250D01*
X215700Y217050D01*
X216257Y218689D01*
X219255Y224770D01*
X223022Y230407D01*
X227492Y235504D01*
X232589Y239974D01*
X238226Y243741D01*
X244307Y246739D01*
X250726Y248918D01*
X257376Y250241D01*
X264141Y250684D01*
X270906Y250241D01*
D02*
G37*
%LPC*%
G36*
X312158Y179515D02*
X312166Y179506D01*
X312168Y179511D01*
X312158Y179515D01*
D02*
G37*
G36*
X364891Y283235D02*
X359618D01*
Y270623D01*
X364979D01*
X365243Y270667D01*
X365594Y270711D01*
X366077Y270799D01*
X366605Y270975D01*
X367132Y271238D01*
X367615Y271634D01*
X368055Y272117D01*
X368099Y272205D01*
X368231Y272425D01*
X368406Y272776D01*
X368582Y273304D01*
X368758Y273963D01*
X368934Y274798D01*
X369066Y275808D01*
X369109Y276380D01*
Y276995D01*
Y277083D01*
Y277258D01*
X369066Y277566D01*
Y277961D01*
X368978Y278445D01*
X368890Y278972D01*
X368758Y279543D01*
X368582Y280115D01*
X368363Y280686D01*
X368099Y281257D01*
X367747Y281784D01*
X367352Y282268D01*
X366868Y282663D01*
X366297Y282971D01*
X365638Y283147D01*
X364891Y283235D01*
D02*
G37*
G36*
X363853Y315234D02*
X358580D01*
Y302623D01*
X363941D01*
X364205Y302667D01*
X364556Y302711D01*
X365039Y302799D01*
X365567Y302975D01*
X366094Y303238D01*
X366577Y303634D01*
X367017Y304117D01*
X367061Y304205D01*
X367193Y304425D01*
X367368Y304776D01*
X367544Y305304D01*
X367720Y305963D01*
X367896Y306798D01*
X368027Y307808D01*
X368072Y308379D01*
Y308995D01*
Y309083D01*
Y309258D01*
X368027Y309566D01*
Y309961D01*
X367940Y310445D01*
X367852Y310972D01*
X367720Y311543D01*
X367544Y312115D01*
X367324Y312686D01*
X367061Y313257D01*
X366709Y313784D01*
X366314Y314268D01*
X365830Y314663D01*
X365259Y314971D01*
X364600Y315147D01*
X363853Y315234D01*
D02*
G37*
%LPD*%
D10*
X310500Y217309D02*
G03*
X216822Y215800I-46059J-49154D01*
G01*
X310913Y217750D02*
G03*
X216679Y215944I-46772J-18895D01*
G01*
X216769Y178260D02*
G03*
X311002Y180066I46772J18895D01*
G01*
X218182Y179501D02*
G03*
X311859Y181010I46059J49154D01*
G01*
D25*
X-41730Y58994D02*
D03*
X-29030Y80991D02*
D03*
X-16330Y102988D02*
D03*
X-3631Y124986D02*
D03*
X9069Y146982D02*
D03*
X21769Y168980D02*
D03*
X34469Y190977D02*
D03*
X47169Y212974D02*
D03*
X59869Y234971D02*
D03*
X72569Y256968D02*
D03*
X99857Y242830D02*
D03*
X87156Y220833D02*
D03*
X74457Y198836D02*
D03*
X61757Y176839D02*
D03*
X49057Y154842D02*
D03*
X36356Y132845D02*
D03*
X23656Y110848D02*
D03*
X10956Y88851D02*
D03*
X-1743Y66854D02*
D03*
X-14444Y44857D02*
D03*
X542605Y43644D02*
D03*
X529905Y65641D02*
D03*
X517205Y87638D02*
D03*
X504505Y109635D02*
D03*
X491805Y131632D02*
D03*
X479105Y153630D02*
D03*
X466405Y175627D02*
D03*
X453705Y197624D02*
D03*
X441005Y219621D02*
D03*
X428305Y241618D02*
D03*
X454142Y258267D02*
D03*
X466842Y236270D02*
D03*
X479542Y214273D02*
D03*
X492242Y192276D02*
D03*
X504942Y170279D02*
D03*
X517642Y148282D02*
D03*
X530342Y126285D02*
D03*
X543042Y104288D02*
D03*
X555742Y82290D02*
D03*
X568442Y60293D02*
D03*
D26*
X139581Y98000D02*
D03*
X389481D02*
D03*
D27*
X319931Y112200D02*
D03*
D28*
X306081Y83800D02*
D03*
X292231Y112200D02*
D03*
X278381Y83800D02*
D03*
X264531Y112200D02*
D03*
X250681Y83800D02*
D03*
X236831Y112200D02*
D03*
X222981Y83800D02*
D03*
X209131Y112200D02*
D03*
D29*
X403100Y283900D02*
D03*
X405100Y269100D02*
D03*
M02*
