%FSLAX44Y44*%
%MOMM*%
G71*
G01*
G75*
%ADD10C,0.2540*%
%ADD11C,0.2000*%
%ADD12C,0.5000*%
%ADD13C,1.2000*%
%ADD14C,4.7600*%
%ADD15R,1.6900X1.6900*%
%ADD16C,1.6900*%
%ADD17C,0.8000*%
%ADD18R,0.8000X0.9000*%
%ADD19R,0.9000X0.8000*%
%ADD20O,0.6000X2.2000*%
%ADD21C,0.4000*%
%ADD22C,0.7000*%
%ADD23C,0.2500*%
%ADD24C,0.1500*%
G36*
X413911Y140548D02*
X414028D01*
X414165Y140529D01*
X414516Y140470D01*
X414906Y140392D01*
X415354Y140256D01*
X415842Y140080D01*
X416330Y139846D01*
X416818Y139534D01*
X417071Y139358D01*
X417305Y139163D01*
X417539Y138929D01*
X417754Y138695D01*
X417968Y138422D01*
X418163Y138129D01*
X418339Y137817D01*
X418495Y137466D01*
X418632Y137095D01*
X418749Y136705D01*
X418846Y136276D01*
X418924Y135808D01*
X418963Y135320D01*
X418983Y134794D01*
Y134755D01*
Y134657D01*
Y134521D01*
X418963Y134306D01*
X418944Y134072D01*
X418905Y133799D01*
X418866Y133487D01*
X418807Y133155D01*
X418749Y132804D01*
X418651Y132433D01*
X418534Y132082D01*
X418417Y131712D01*
X418242Y131360D01*
X418066Y131029D01*
X417851Y130717D01*
X417617Y130424D01*
X417598Y130405D01*
X417559Y130365D01*
X417481Y130288D01*
X417364Y130209D01*
X417227Y130092D01*
X417052Y129975D01*
X416856Y129839D01*
X416622Y129722D01*
X416349Y129585D01*
X416057Y129449D01*
X415725Y129332D01*
X415374Y129215D01*
X415003Y129136D01*
X414574Y129059D01*
X414126Y129019D01*
X413657Y129000D01*
X408800D01*
Y140568D01*
X413813D01*
X413911Y140548D01*
D02*
G37*
G36*
X429790Y137583D02*
X423703D01*
X423587Y137564D01*
X423450Y137505D01*
X423313Y137388D01*
X423294Y137349D01*
X423235Y137252D01*
X423157Y137115D01*
X423138Y136939D01*
Y136920D01*
Y136900D01*
X423157Y136783D01*
X423196Y136627D01*
X423294Y136471D01*
X423333Y136452D01*
X423411Y136393D01*
X423567Y136315D01*
X423762Y136296D01*
X429790D01*
Y133311D01*
X423703D01*
X423587Y133292D01*
X423450Y133233D01*
X423313Y133116D01*
X423294Y133077D01*
X423235Y132999D01*
X423157Y132843D01*
X423138Y132648D01*
Y132628D01*
Y132609D01*
X423157Y132472D01*
X423216Y132316D01*
X423313Y132160D01*
X423352Y132141D01*
X423430Y132082D01*
X423587Y132004D01*
X423762Y131985D01*
X429790D01*
Y129000D01*
X423196D01*
X423060Y129019D01*
X422865Y129039D01*
X422650Y129059D01*
X422416Y129117D01*
X422182Y129176D01*
X421948Y129254D01*
X421928Y129273D01*
X421850Y129312D01*
X421733Y129371D01*
X421597Y129449D01*
X421441Y129546D01*
X421265Y129683D01*
X421109Y129819D01*
X420953Y129975D01*
X420933Y129995D01*
X420895Y130053D01*
X420816Y130151D01*
X420738Y130268D01*
X420641Y130424D01*
X420543Y130619D01*
X420446Y130814D01*
X420348Y131029D01*
Y131048D01*
X420309Y131146D01*
X420290Y131263D01*
X420251Y131419D01*
X420212Y131614D01*
X420173Y131828D01*
X420153Y132063D01*
X420134Y132316D01*
Y132336D01*
Y132375D01*
Y132433D01*
X420153Y132511D01*
X420173Y132726D01*
X420212Y132960D01*
Y132979D01*
X420231Y133019D01*
X420251Y133097D01*
X420270Y133174D01*
X420348Y133389D01*
X420446Y133643D01*
Y133662D01*
X420485Y133701D01*
X420524Y133779D01*
X420563Y133857D01*
X420699Y134072D01*
X420875Y134306D01*
X420895Y134326D01*
X420914Y134365D01*
X420973Y134423D01*
X421050Y134481D01*
X421226Y134657D01*
X421460Y134833D01*
X421421Y134852D01*
X421343Y134911D01*
X421207Y135008D01*
X421050Y135145D01*
X420875Y135320D01*
X420719Y135515D01*
X420563Y135750D01*
X420426Y136003D01*
X420407Y136042D01*
X420387Y136120D01*
X420348Y136276D01*
X420290Y136471D01*
X420231Y136705D01*
X420192Y136959D01*
X420173Y137252D01*
X420153Y137544D01*
Y137564D01*
Y137642D01*
X420173Y137759D01*
Y137915D01*
X420212Y138090D01*
X420251Y138285D01*
X420290Y138481D01*
X420368Y138695D01*
X420387Y138715D01*
X420407Y138793D01*
X420465Y138890D01*
X420543Y139027D01*
X420738Y139339D01*
X421012Y139651D01*
X421031Y139670D01*
X421090Y139729D01*
X421168Y139788D01*
X421285Y139885D01*
X421441Y140002D01*
X421597Y140100D01*
X421792Y140217D01*
X422006Y140314D01*
X422026Y140334D01*
X422104Y140353D01*
X422240Y140392D01*
X422397Y140451D01*
X422592Y140490D01*
X422806Y140529D01*
X423060Y140548D01*
X423333Y140568D01*
X429790D01*
Y137583D01*
D02*
G37*
G36*
X442204Y152748D02*
X442438Y152729D01*
X442691Y152690D01*
X442965Y152651D01*
X443277Y152592D01*
X443589Y152514D01*
X443920Y152417D01*
X444252Y152300D01*
X444564Y152163D01*
X444896Y151987D01*
X445208Y151792D01*
X445500Y151578D01*
X445754Y151324D01*
X445774Y151305D01*
X445813Y151266D01*
X445871Y151168D01*
X445969Y151051D01*
X446066Y150895D01*
X446183Y150719D01*
X446300Y150485D01*
X446437Y150232D01*
X446554Y149939D01*
X446671Y149627D01*
X446788Y149256D01*
X446885Y148866D01*
X446983Y148437D01*
X447042Y147989D01*
X447081Y147481D01*
X447100Y146955D01*
Y146935D01*
Y146896D01*
Y146818D01*
Y146701D01*
X447081Y146584D01*
X447061Y146428D01*
X447042Y146252D01*
X447022Y146057D01*
X446944Y145628D01*
X446827Y145140D01*
X446651Y144614D01*
X446437Y144087D01*
X446164Y143541D01*
X445813Y143014D01*
X445598Y142780D01*
X445383Y142527D01*
X445130Y142312D01*
X444857Y142097D01*
X444564Y141902D01*
X444252Y141727D01*
X443920Y141571D01*
X443550Y141454D01*
X443160Y141336D01*
X442730Y141258D01*
X442282Y141220D01*
X441794Y141200D01*
X440819D01*
X440721Y141220D01*
X440604D01*
X440468Y141239D01*
X440136Y141298D01*
X439726Y141376D01*
X439278Y141512D01*
X438790Y141688D01*
X438302Y141922D01*
X437815Y142234D01*
X437561Y142409D01*
X437327Y142605D01*
X437093Y142819D01*
X436878Y143073D01*
X436664Y143346D01*
X436488Y143619D01*
X436293Y143951D01*
X436137Y144282D01*
X436001Y144653D01*
X435883Y145062D01*
X435786Y145492D01*
X435708Y145940D01*
X435669Y146428D01*
X435649Y146955D01*
Y146994D01*
Y147091D01*
Y147228D01*
X435669Y147442D01*
X435688Y147676D01*
X435727Y147969D01*
X435766Y148281D01*
X435825Y148613D01*
X435883Y148964D01*
X435981Y149315D01*
X436098Y149686D01*
X436235Y150037D01*
X436391Y150388D01*
X436566Y150719D01*
X436781Y151032D01*
X437015Y151324D01*
X437034Y151344D01*
X437073Y151383D01*
X437151Y151461D01*
X437268Y151558D01*
X437405Y151656D01*
X437581Y151773D01*
X437795Y151909D01*
X438029Y152046D01*
X438283Y152183D01*
X438575Y152319D01*
X438907Y152436D01*
X439258Y152534D01*
X439648Y152631D01*
X440058Y152709D01*
X440507Y152748D01*
X440975Y152768D01*
X442028D01*
X442204Y152748D01*
D02*
G37*
G36*
X430187Y149783D02*
X427768D01*
Y141200D01*
X424784D01*
Y149783D01*
X422209D01*
Y152768D01*
X430187D01*
Y149783D01*
D02*
G37*
G36*
X434323Y141200D02*
X431338D01*
Y152768D01*
X434323D01*
Y141200D01*
D02*
G37*
G36*
X439290Y130600D02*
Y130580D01*
X439270Y130561D01*
X439231Y130443D01*
X439153Y130288D01*
X439036Y130092D01*
X438900Y129878D01*
X438724Y129663D01*
X438529Y129468D01*
X438295Y129293D01*
X438256Y129273D01*
X438178Y129234D01*
X438041Y129176D01*
X437846Y129097D01*
X437632Y129019D01*
X437359Y128961D01*
X437066Y128922D01*
X436734Y128903D01*
X436578D01*
X436403Y128922D01*
X436169Y128961D01*
X435915Y129000D01*
X435642Y129078D01*
X435369Y129176D01*
X435115Y129312D01*
X435096Y129332D01*
X434998Y129390D01*
X434881Y129488D01*
X434745Y129624D01*
X434589Y129800D01*
X434432Y130034D01*
X434276Y130288D01*
X434159Y130600D01*
X430648Y140568D01*
X433808D01*
X436715Y132180D01*
X439641Y140568D01*
X442821D01*
X439290Y130600D01*
D02*
G37*
G36*
X394136Y178126D02*
X394331Y178107D01*
X394566Y178048D01*
X394858Y177970D01*
X395170Y177834D01*
X395502Y177658D01*
X395814Y177404D01*
X395834D01*
X395853Y177365D01*
X395951Y177268D01*
X396107Y177092D01*
X396282Y176878D01*
X396497Y176585D01*
X396711Y176234D01*
X396906Y175824D01*
X397082Y175356D01*
X398974Y169524D01*
Y169504D01*
X399013Y169465D01*
X399052Y169407D01*
X399111Y169387D01*
X399130D01*
X399169Y169407D01*
X399208Y169465D01*
X399228Y169582D01*
Y178048D01*
X402329D01*
Y169524D01*
Y169485D01*
Y169407D01*
X402310Y169270D01*
X402290Y169095D01*
X402271Y168899D01*
X402232Y168685D01*
X402154Y168451D01*
X402076Y168236D01*
X402056Y168217D01*
X402037Y168139D01*
X401978Y168022D01*
X401900Y167885D01*
X401803Y167729D01*
X401666Y167573D01*
X401530Y167397D01*
X401373Y167241D01*
X401354Y167222D01*
X401296Y167183D01*
X401198Y167105D01*
X401081Y167007D01*
X400925Y166910D01*
X400749Y166812D01*
X400554Y166715D01*
X400340Y166617D01*
X400320D01*
X400242Y166578D01*
X400125Y166558D01*
X399969Y166520D01*
X399774Y166481D01*
X399559Y166441D01*
X399306Y166422D01*
X399052Y166402D01*
X398955D01*
X398877Y166422D01*
X398681Y166441D01*
X398447Y166481D01*
X398155Y166558D01*
X397862Y166656D01*
X397550Y166812D01*
X397238Y167007D01*
X397199Y167027D01*
X397102Y167124D01*
X396965Y167261D01*
X396789Y167456D01*
X396594Y167690D01*
X396399Y168002D01*
X396224Y168353D01*
X396068Y168743D01*
X394039Y175005D01*
Y175025D01*
X394019Y175083D01*
X393980Y175122D01*
X393902Y175142D01*
X393883D01*
X393863Y175122D01*
X393824Y175083D01*
X393805Y174986D01*
Y166500D01*
X390703D01*
Y175005D01*
Y175044D01*
Y175122D01*
X390723Y175259D01*
X390742Y175434D01*
X390762Y175629D01*
X390801Y175844D01*
X390859Y176078D01*
X390937Y176293D01*
X390957Y176312D01*
X390976Y176390D01*
X391035Y176507D01*
X391113Y176644D01*
X391210Y176800D01*
X391327Y176956D01*
X391620Y177288D01*
X391640Y177307D01*
X391698Y177346D01*
X391796Y177424D01*
X391913Y177522D01*
X392069Y177619D01*
X392264Y177717D01*
X392459Y177814D01*
X392673Y177912D01*
X392693Y177931D01*
X392771Y177951D01*
X392907Y177990D01*
X393064Y178029D01*
X393259Y178068D01*
X393473Y178107D01*
X393707Y178146D01*
X394058D01*
X394136Y178126D01*
D02*
G37*
G36*
X468550Y137583D02*
X462464D01*
X462347Y137564D01*
X462211Y137505D01*
X462074Y137388D01*
X462055Y137349D01*
X461996Y137252D01*
X461918Y137115D01*
X461899Y136939D01*
Y136920D01*
Y136900D01*
X461918Y136783D01*
X461957Y136627D01*
X462055Y136471D01*
X462094Y136452D01*
X462172Y136393D01*
X462328Y136315D01*
X462523Y136296D01*
X468550D01*
Y133311D01*
X462464D01*
X462347Y133292D01*
X462211Y133233D01*
X462074Y133116D01*
X462055Y133077D01*
X461996Y132999D01*
X461918Y132843D01*
X461899Y132648D01*
Y132628D01*
Y132609D01*
X461918Y132472D01*
X461977Y132316D01*
X462074Y132160D01*
X462113Y132141D01*
X462191Y132082D01*
X462347Y132004D01*
X462523Y131985D01*
X468550D01*
Y129000D01*
X461957D01*
X461821Y129019D01*
X461626Y129039D01*
X461411Y129059D01*
X461177Y129117D01*
X460943Y129176D01*
X460709Y129254D01*
X460689Y129273D01*
X460611Y129312D01*
X460494Y129371D01*
X460358Y129449D01*
X460201Y129546D01*
X460026Y129683D01*
X459870Y129819D01*
X459714Y129975D01*
X459694Y129995D01*
X459655Y130053D01*
X459577Y130151D01*
X459499Y130268D01*
X459402Y130424D01*
X459304Y130619D01*
X459207Y130814D01*
X459109Y131029D01*
Y131048D01*
X459070Y131146D01*
X459050Y131263D01*
X459011Y131419D01*
X458973Y131614D01*
X458933Y131828D01*
X458914Y132063D01*
X458895Y132316D01*
Y132336D01*
Y132375D01*
Y132433D01*
X458914Y132511D01*
X458933Y132726D01*
X458973Y132960D01*
Y132979D01*
X458992Y133019D01*
X459011Y133097D01*
X459031Y133174D01*
X459109Y133389D01*
X459207Y133643D01*
Y133662D01*
X459246Y133701D01*
X459285Y133779D01*
X459324Y133857D01*
X459460Y134072D01*
X459636Y134306D01*
X459655Y134326D01*
X459675Y134365D01*
X459733Y134423D01*
X459811Y134481D01*
X459987Y134657D01*
X460221Y134833D01*
X460182Y134852D01*
X460104Y134911D01*
X459967Y135008D01*
X459811Y135145D01*
X459636Y135320D01*
X459480Y135515D01*
X459324Y135750D01*
X459187Y136003D01*
X459168Y136042D01*
X459148Y136120D01*
X459109Y136276D01*
X459050Y136471D01*
X458992Y136705D01*
X458953Y136959D01*
X458933Y137252D01*
X458914Y137544D01*
Y137564D01*
Y137642D01*
X458933Y137759D01*
Y137915D01*
X458973Y138090D01*
X459011Y138285D01*
X459050Y138481D01*
X459129Y138695D01*
X459148Y138715D01*
X459168Y138793D01*
X459226Y138890D01*
X459304Y139027D01*
X459499Y139339D01*
X459772Y139651D01*
X459792Y139670D01*
X459850Y139729D01*
X459928Y139788D01*
X460045Y139885D01*
X460201Y140002D01*
X460358Y140100D01*
X460553Y140217D01*
X460767Y140314D01*
X460787Y140334D01*
X460865Y140353D01*
X461001Y140392D01*
X461157Y140451D01*
X461352Y140490D01*
X461567Y140529D01*
X461821Y140548D01*
X462094Y140568D01*
X468550D01*
Y137583D01*
D02*
G37*
G36*
X446644Y129000D02*
X443659D01*
Y140568D01*
X446644D01*
Y129000D01*
D02*
G37*
G36*
X457665Y137583D02*
X452672D01*
X452516Y137544D01*
X452301Y137505D01*
X452067Y137427D01*
X451833Y137310D01*
X451618Y137135D01*
X451423Y136920D01*
X451404Y136881D01*
X451345Y136803D01*
X451267Y136627D01*
X451189Y136393D01*
X451111Y136101D01*
X451033Y135710D01*
X450994Y135496D01*
X450975Y135262D01*
X450955Y135008D01*
Y134735D01*
Y134696D01*
Y134618D01*
X450975Y134481D01*
X450994Y134306D01*
X451014Y134091D01*
X451053Y133857D01*
X451111Y133623D01*
X451189Y133370D01*
X451287Y133097D01*
X451404Y132862D01*
X451560Y132628D01*
X451735Y132414D01*
X451950Y132238D01*
X452203Y132102D01*
X452477Y132024D01*
X452808Y131985D01*
X457665D01*
Y129000D01*
X453140D01*
X453042Y129019D01*
X452925D01*
X452789Y129039D01*
X452457Y129097D01*
X452048Y129176D01*
X451599Y129312D01*
X451111Y129488D01*
X450623Y129722D01*
X450136Y130034D01*
X449882Y130209D01*
X449648Y130424D01*
X449414Y130639D01*
X449199Y130892D01*
X448985Y131146D01*
X448809Y131438D01*
X448614Y131770D01*
X448458Y132102D01*
X448322Y132472D01*
X448204Y132882D01*
X448107Y133311D01*
X448029Y133779D01*
X447990Y134267D01*
X447971Y134794D01*
Y134833D01*
Y134930D01*
Y135067D01*
X447990Y135262D01*
X448009Y135515D01*
X448049Y135788D01*
X448088Y136101D01*
X448146Y136432D01*
X448302Y137135D01*
X448400Y137486D01*
X448536Y137856D01*
X448692Y138188D01*
X448868Y138539D01*
X449063Y138851D01*
X449297Y139124D01*
X449316Y139144D01*
X449356Y139183D01*
X449434Y139261D01*
X449551Y139358D01*
X449687Y139456D01*
X449863Y139573D01*
X450058Y139709D01*
X450311Y139846D01*
X450565Y139983D01*
X450858Y140119D01*
X451189Y140236D01*
X451560Y140334D01*
X451950Y140431D01*
X452360Y140509D01*
X452808Y140548D01*
X453296Y140568D01*
X457665D01*
Y137583D01*
D02*
G37*
G36*
X405160Y152748D02*
X405413Y152729D01*
X405686Y152690D01*
X405979Y152651D01*
X406272Y152573D01*
X406564Y152475D01*
X406603Y152456D01*
X406681Y152417D01*
X406818Y152358D01*
X406993Y152261D01*
X407188Y152143D01*
X407383Y152007D01*
X407579Y151851D01*
X407774Y151675D01*
X407793Y151656D01*
X407852Y151597D01*
X407930Y151480D01*
X408027Y151344D01*
X408144Y151188D01*
X408261Y150993D01*
X408359Y150758D01*
X408456Y150524D01*
X408476Y150505D01*
X408495Y150407D01*
X408534Y150290D01*
X408573Y150115D01*
X408612Y149900D01*
X408632Y149686D01*
X408671Y149432D01*
Y149159D01*
Y149139D01*
Y149042D01*
Y148925D01*
X408651Y148769D01*
X408632Y148574D01*
X408593Y148359D01*
X408476Y147891D01*
Y147872D01*
X408437Y147793D01*
X408398Y147676D01*
X408339Y147520D01*
X408261Y147345D01*
X408164Y147150D01*
X408027Y146955D01*
X407891Y146760D01*
X407871Y146740D01*
X407813Y146681D01*
X407734Y146584D01*
X407617Y146467D01*
X407481Y146350D01*
X407305Y146213D01*
X407091Y146077D01*
X406876Y145940D01*
X406857Y145921D01*
X406759Y145882D01*
X406623Y145823D01*
X406447Y145765D01*
X406232Y145687D01*
X405979Y145628D01*
X405686Y145570D01*
X405355Y145531D01*
X408924Y144341D01*
Y141063D01*
X402038Y143872D01*
Y141200D01*
X399054D01*
Y144887D01*
Y144906D01*
Y144965D01*
Y145062D01*
X399073Y145180D01*
X399093Y145336D01*
X399112Y145511D01*
X399190Y145901D01*
X399307Y146330D01*
X399483Y146779D01*
X399600Y146994D01*
X399737Y147208D01*
X399893Y147403D01*
X400068Y147579D01*
X400088Y147598D01*
X400107Y147618D01*
X400166Y147657D01*
X400263Y147715D01*
X400361Y147793D01*
X400478Y147872D01*
X400634Y147949D01*
X400810Y148047D01*
X400985Y148125D01*
X401200Y148203D01*
X401434Y148281D01*
X401687Y148359D01*
X401960Y148418D01*
X402253Y148457D01*
X402565Y148496D01*
X405121D01*
X405238Y148515D01*
X405374Y148574D01*
X405511Y148671D01*
X405530Y148710D01*
X405608Y148808D01*
X405667Y148944D01*
X405686Y149139D01*
Y149159D01*
Y149178D01*
X405667Y149296D01*
X405608Y149432D01*
X405511Y149588D01*
X405491Y149627D01*
X405394Y149686D01*
X405277Y149744D01*
X405101Y149783D01*
X399054D01*
Y152768D01*
X404984D01*
X405160Y152748D01*
D02*
G37*
G36*
X378396Y152826D02*
X378591Y152807D01*
X378825Y152748D01*
X379118Y152670D01*
X379430Y152534D01*
X379761Y152358D01*
X380073Y152105D01*
X380093D01*
X380112Y152065D01*
X380210Y151968D01*
X380366Y151792D01*
X380541Y151578D01*
X380756Y151285D01*
X380971Y150934D01*
X381166Y150524D01*
X381341Y150056D01*
X383233Y144224D01*
Y144204D01*
X383273Y144165D01*
X383312Y144107D01*
X383370Y144087D01*
X383390D01*
X383429Y144107D01*
X383468Y144165D01*
X383487Y144282D01*
Y152748D01*
X386589D01*
Y144224D01*
Y144185D01*
Y144107D01*
X386569Y143970D01*
X386550Y143794D01*
X386530Y143599D01*
X386491Y143385D01*
X386413Y143151D01*
X386335Y142936D01*
X386316Y142917D01*
X386296Y142839D01*
X386238Y142722D01*
X386160Y142585D01*
X386062Y142429D01*
X385925Y142273D01*
X385789Y142097D01*
X385633Y141941D01*
X385613Y141922D01*
X385555Y141883D01*
X385457Y141805D01*
X385340Y141707D01*
X385184Y141610D01*
X385009Y141512D01*
X384814Y141415D01*
X384599Y141317D01*
X384580D01*
X384501Y141278D01*
X384384Y141258D01*
X384228Y141220D01*
X384033Y141180D01*
X383819Y141142D01*
X383565Y141122D01*
X383312Y141103D01*
X383214D01*
X383136Y141122D01*
X382941Y141142D01*
X382707Y141180D01*
X382414Y141258D01*
X382122Y141356D01*
X381810Y141512D01*
X381497Y141707D01*
X381458Y141727D01*
X381361Y141824D01*
X381224Y141961D01*
X381049Y142156D01*
X380854Y142390D01*
X380658Y142702D01*
X380483Y143053D01*
X380327Y143443D01*
X378298Y149705D01*
Y149725D01*
X378279Y149783D01*
X378240Y149822D01*
X378162Y149842D01*
X378142D01*
X378123Y149822D01*
X378084Y149783D01*
X378064Y149686D01*
Y141200D01*
X374962D01*
Y149705D01*
Y149744D01*
Y149822D01*
X374982Y149959D01*
X375001Y150134D01*
X375021Y150329D01*
X375060Y150544D01*
X375118Y150778D01*
X375196Y150993D01*
X375216Y151012D01*
X375235Y151090D01*
X375294Y151207D01*
X375372Y151344D01*
X375470Y151500D01*
X375587Y151656D01*
X375879Y151987D01*
X375899Y152007D01*
X375957Y152046D01*
X376055Y152124D01*
X376172Y152222D01*
X376328Y152319D01*
X376523Y152417D01*
X376718Y152514D01*
X376933Y152612D01*
X376952Y152631D01*
X377030Y152651D01*
X377167Y152690D01*
X377323Y152729D01*
X377518Y152768D01*
X377733Y152807D01*
X377967Y152846D01*
X378318D01*
X378396Y152826D01*
D02*
G37*
G36*
X443138Y165407D02*
X443333Y165387D01*
X443567Y165329D01*
X443860Y165251D01*
X444172Y165114D01*
X444503Y164939D01*
X444815Y164685D01*
X444835D01*
X444854Y164646D01*
X444952Y164548D01*
X445108Y164392D01*
X445284Y164158D01*
X445498Y163866D01*
X445713Y163515D01*
X445908Y163105D01*
X446083Y162637D01*
X447976Y156824D01*
Y156804D01*
X448015Y156765D01*
X448054Y156707D01*
X448112Y156687D01*
X448132D01*
X448171Y156707D01*
X448210Y156765D01*
X448229Y156882D01*
Y165368D01*
X451331D01*
Y156824D01*
Y156785D01*
Y156707D01*
X451311Y156570D01*
X451292Y156395D01*
X451272Y156199D01*
X451233Y155985D01*
X451155Y155751D01*
X451077Y155536D01*
X451058Y155517D01*
X451038Y155439D01*
X450980Y155322D01*
X450902Y155185D01*
X450804Y155029D01*
X450668Y154873D01*
X450531Y154697D01*
X450375Y154541D01*
X450355Y154522D01*
X450297Y154483D01*
X450199Y154405D01*
X450082Y154307D01*
X449926Y154210D01*
X449751Y154112D01*
X449556Y154015D01*
X449341Y153917D01*
X449322D01*
X449244Y153878D01*
X449127Y153858D01*
X448970Y153820D01*
X448775Y153780D01*
X448561Y153742D01*
X448307Y153722D01*
X448054Y153702D01*
X447898D01*
X447780Y153722D01*
X447644D01*
X447488Y153761D01*
X447156Y153820D01*
X447137D01*
X447078Y153839D01*
X447000Y153878D01*
X446903Y153917D01*
X446630Y154034D01*
X446337Y154210D01*
X446317Y154229D01*
X446278Y154249D01*
X446200Y154307D01*
X446103Y154385D01*
X445888Y154580D01*
X445654Y154834D01*
X445635Y154853D01*
X445615Y154892D01*
X445557Y154970D01*
X445479Y155087D01*
X445420Y155204D01*
X445342Y155361D01*
X445186Y155692D01*
X443060Y162305D01*
Y162325D01*
X443021Y162364D01*
X442982Y162403D01*
X442904Y162422D01*
X442884D01*
X442865Y162403D01*
X442826Y162344D01*
X442806Y162247D01*
Y156824D01*
Y156785D01*
Y156707D01*
X442787Y156570D01*
X442767Y156395D01*
X442748Y156199D01*
X442709Y155985D01*
X442631Y155751D01*
X442553Y155536D01*
X442533Y155517D01*
X442514Y155439D01*
X442455Y155322D01*
X442377Y155185D01*
X442280Y155029D01*
X442143Y154873D01*
X442006Y154697D01*
X441850Y154541D01*
X441831Y154522D01*
X441772Y154483D01*
X441675Y154405D01*
X441558Y154307D01*
X441402Y154210D01*
X441226Y154112D01*
X441031Y154015D01*
X440816Y153917D01*
X440797D01*
X440719Y153878D01*
X440602Y153858D01*
X440446Y153820D01*
X440251Y153780D01*
X440036Y153742D01*
X439783Y153722D01*
X439529Y153702D01*
X439373D01*
X439256Y153722D01*
X439119D01*
X438983Y153761D01*
X438651Y153820D01*
X438632D01*
X438573Y153839D01*
X438495Y153878D01*
X438378Y153917D01*
X438105Y154034D01*
X437812Y154190D01*
X437793Y154210D01*
X437754Y154249D01*
X437676Y154288D01*
X437598Y154366D01*
X437364Y154580D01*
X437130Y154834D01*
X437110Y154853D01*
X437071Y154912D01*
X437012Y154990D01*
X436954Y155087D01*
X436876Y155224D01*
X436798Y155380D01*
X436642Y155751D01*
X433228Y165368D01*
X436525D01*
X439451Y156863D01*
Y156843D01*
X439470Y156785D01*
X439510Y156707D01*
X439588Y156687D01*
X439607D01*
X439646Y156707D01*
X439685Y156765D01*
X439705Y156882D01*
Y162305D01*
Y162344D01*
Y162422D01*
X439724Y162559D01*
X439743Y162734D01*
X439763Y162929D01*
X439802Y163144D01*
X439861Y163358D01*
X439939Y163573D01*
X439958Y163593D01*
X439978Y163671D01*
X440036Y163788D01*
X440114Y163924D01*
X440231Y164080D01*
X440348Y164236D01*
X440485Y164412D01*
X440641Y164568D01*
X440660Y164587D01*
X440719Y164627D01*
X440816Y164704D01*
X440933Y164802D01*
X441090Y164900D01*
X441265Y164997D01*
X441460Y165095D01*
X441675Y165192D01*
X441694Y165212D01*
X441772Y165231D01*
X441909Y165270D01*
X442065Y165309D01*
X442260Y165348D01*
X442475Y165387D01*
X442709Y165426D01*
X443060D01*
X443138Y165407D01*
D02*
G37*
G36*
X413233Y165426D02*
X413428Y165407D01*
X413662Y165348D01*
X413955Y165270D01*
X414267Y165134D01*
X414599Y164958D01*
X414911Y164704D01*
X414930D01*
X414950Y164666D01*
X415047Y164568D01*
X415204Y164392D01*
X415379Y164178D01*
X415594Y163885D01*
X415808Y163534D01*
X416003Y163124D01*
X416179Y162656D01*
X418071Y156824D01*
Y156804D01*
X418110Y156765D01*
X418149Y156707D01*
X418208Y156687D01*
X418227D01*
X418266Y156707D01*
X418305Y156765D01*
X418325Y156882D01*
Y165348D01*
X421426D01*
Y156824D01*
Y156785D01*
Y156707D01*
X421407Y156570D01*
X421387Y156395D01*
X421368Y156199D01*
X421329Y155985D01*
X421251Y155751D01*
X421173Y155536D01*
X421153Y155517D01*
X421134Y155439D01*
X421075Y155322D01*
X420997Y155185D01*
X420900Y155029D01*
X420763Y154873D01*
X420626Y154697D01*
X420470Y154541D01*
X420451Y154522D01*
X420392Y154483D01*
X420295Y154405D01*
X420178Y154307D01*
X420022Y154210D01*
X419846Y154112D01*
X419651Y154015D01*
X419436Y153917D01*
X419417D01*
X419339Y153878D01*
X419222Y153858D01*
X419066Y153820D01*
X418871Y153780D01*
X418656Y153742D01*
X418403Y153722D01*
X418149Y153702D01*
X418051D01*
X417974Y153722D01*
X417778Y153742D01*
X417544Y153780D01*
X417252Y153858D01*
X416959Y153956D01*
X416647Y154112D01*
X416335Y154307D01*
X416296Y154327D01*
X416198Y154424D01*
X416062Y154561D01*
X415886Y154756D01*
X415691Y154990D01*
X415496Y155302D01*
X415321Y155653D01*
X415164Y156043D01*
X413136Y162305D01*
Y162325D01*
X413116Y162383D01*
X413077Y162422D01*
X412999Y162442D01*
X412980D01*
X412960Y162422D01*
X412921Y162383D01*
X412902Y162286D01*
Y153800D01*
X409800D01*
Y162305D01*
Y162344D01*
Y162422D01*
X409819Y162559D01*
X409839Y162734D01*
X409859Y162929D01*
X409897Y163144D01*
X409956Y163378D01*
X410034Y163593D01*
X410054Y163612D01*
X410073Y163690D01*
X410132Y163807D01*
X410210Y163944D01*
X410307Y164100D01*
X410424Y164256D01*
X410717Y164587D01*
X410736Y164607D01*
X410795Y164646D01*
X410892Y164724D01*
X411009Y164822D01*
X411166Y164919D01*
X411361Y165017D01*
X411556Y165114D01*
X411770Y165212D01*
X411790Y165231D01*
X411868Y165251D01*
X412004Y165290D01*
X412160Y165329D01*
X412355Y165368D01*
X412570Y165407D01*
X412804Y165446D01*
X413155D01*
X413233Y165426D01*
D02*
G37*
G36*
X432370Y162383D02*
X426284D01*
X426166Y162364D01*
X426030Y162305D01*
X425893Y162188D01*
X425874Y162149D01*
X425815Y162052D01*
X425737Y161915D01*
X425718Y161739D01*
Y161720D01*
Y161700D01*
X425737Y161583D01*
X425776Y161427D01*
X425874Y161271D01*
X425913Y161252D01*
X425991Y161193D01*
X426147Y161115D01*
X426342Y161096D01*
X432370D01*
Y158111D01*
X426284D01*
X426166Y158092D01*
X426030Y158033D01*
X425893Y157916D01*
X425874Y157877D01*
X425815Y157799D01*
X425737Y157643D01*
X425718Y157448D01*
Y157428D01*
Y157409D01*
X425737Y157272D01*
X425796Y157116D01*
X425893Y156960D01*
X425932Y156941D01*
X426011Y156882D01*
X426166Y156804D01*
X426342Y156785D01*
X432370D01*
Y153800D01*
X425776D01*
X425640Y153820D01*
X425445Y153839D01*
X425230Y153858D01*
X424996Y153917D01*
X424762Y153976D01*
X424528Y154054D01*
X424508Y154073D01*
X424430Y154112D01*
X424313Y154171D01*
X424177Y154249D01*
X424021Y154346D01*
X423845Y154483D01*
X423689Y154619D01*
X423533Y154775D01*
X423514Y154795D01*
X423475Y154853D01*
X423396Y154951D01*
X423318Y155068D01*
X423221Y155224D01*
X423123Y155419D01*
X423026Y155614D01*
X422928Y155829D01*
Y155848D01*
X422889Y155946D01*
X422870Y156063D01*
X422831Y156219D01*
X422792Y156414D01*
X422753Y156629D01*
X422733Y156863D01*
X422714Y157116D01*
Y157136D01*
Y157175D01*
Y157233D01*
X422733Y157311D01*
X422753Y157526D01*
X422792Y157760D01*
Y157780D01*
X422811Y157818D01*
X422831Y157896D01*
X422850Y157975D01*
X422928Y158189D01*
X423026Y158443D01*
Y158462D01*
X423065Y158501D01*
X423104Y158579D01*
X423143Y158657D01*
X423279Y158872D01*
X423455Y159106D01*
X423475Y159125D01*
X423494Y159164D01*
X423553Y159223D01*
X423631Y159282D01*
X423806Y159457D01*
X424040Y159633D01*
X424001Y159652D01*
X423923Y159711D01*
X423787Y159808D01*
X423631Y159945D01*
X423455Y160120D01*
X423299Y160315D01*
X423143Y160550D01*
X423006Y160803D01*
X422987Y160842D01*
X422967Y160920D01*
X422928Y161076D01*
X422870Y161271D01*
X422811Y161505D01*
X422772Y161759D01*
X422753Y162052D01*
X422733Y162344D01*
Y162364D01*
Y162442D01*
X422753Y162559D01*
Y162715D01*
X422792Y162890D01*
X422831Y163085D01*
X422870Y163281D01*
X422948Y163495D01*
X422967Y163515D01*
X422987Y163593D01*
X423045Y163690D01*
X423123Y163827D01*
X423318Y164139D01*
X423592Y164451D01*
X423611Y164470D01*
X423670Y164529D01*
X423748Y164587D01*
X423865Y164685D01*
X424021Y164802D01*
X424177Y164900D01*
X424372Y165017D01*
X424586Y165114D01*
X424606Y165134D01*
X424684Y165153D01*
X424821Y165192D01*
X424977Y165251D01*
X425172Y165290D01*
X425386Y165329D01*
X425640Y165348D01*
X425913Y165368D01*
X432370D01*
Y162383D01*
D02*
G37*
G36*
X397532Y149783D02*
X391446D01*
X391329Y149764D01*
X391192Y149705D01*
X391056Y149588D01*
X391036Y149549D01*
X390978Y149452D01*
X390900Y149315D01*
X390880Y149139D01*
Y149120D01*
Y149100D01*
X390900Y148983D01*
X390939Y148827D01*
X391036Y148671D01*
X391075Y148652D01*
X391153Y148593D01*
X391310Y148515D01*
X391505Y148496D01*
X397532D01*
Y145511D01*
X391446D01*
X391329Y145492D01*
X391192Y145433D01*
X391056Y145316D01*
X391036Y145277D01*
X390978Y145199D01*
X390900Y145043D01*
X390880Y144848D01*
Y144828D01*
Y144809D01*
X390900Y144672D01*
X390958Y144516D01*
X391056Y144360D01*
X391095Y144341D01*
X391173Y144282D01*
X391329Y144204D01*
X391505Y144185D01*
X397532D01*
Y141200D01*
X390939D01*
X390802Y141220D01*
X390607Y141239D01*
X390393Y141258D01*
X390159Y141317D01*
X389925Y141376D01*
X389690Y141454D01*
X389671Y141473D01*
X389593Y141512D01*
X389476Y141571D01*
X389339Y141649D01*
X389183Y141746D01*
X389008Y141883D01*
X388852Y142019D01*
X388695Y142175D01*
X388676Y142195D01*
X388637Y142253D01*
X388559Y142351D01*
X388481Y142468D01*
X388383Y142624D01*
X388286Y142819D01*
X388188Y143014D01*
X388091Y143229D01*
Y143248D01*
X388052Y143346D01*
X388032Y143463D01*
X387993Y143619D01*
X387954Y143814D01*
X387915Y144029D01*
X387896Y144263D01*
X387876Y144516D01*
Y144536D01*
Y144575D01*
Y144633D01*
X387896Y144711D01*
X387915Y144926D01*
X387954Y145160D01*
Y145180D01*
X387974Y145218D01*
X387993Y145296D01*
X388013Y145374D01*
X388091Y145589D01*
X388188Y145843D01*
Y145862D01*
X388227Y145901D01*
X388266Y145979D01*
X388305Y146057D01*
X388442Y146272D01*
X388618Y146506D01*
X388637Y146525D01*
X388657Y146565D01*
X388715Y146623D01*
X388793Y146681D01*
X388969Y146857D01*
X389203Y147033D01*
X389164Y147052D01*
X389086Y147111D01*
X388949Y147208D01*
X388793Y147345D01*
X388618Y147520D01*
X388461Y147715D01*
X388305Y147949D01*
X388169Y148203D01*
X388149Y148242D01*
X388130Y148320D01*
X388091Y148476D01*
X388032Y148671D01*
X387974Y148905D01*
X387935Y149159D01*
X387915Y149452D01*
X387896Y149744D01*
Y149764D01*
Y149842D01*
X387915Y149959D01*
Y150115D01*
X387954Y150290D01*
X387993Y150485D01*
X388032Y150681D01*
X388110Y150895D01*
X388130Y150915D01*
X388149Y150993D01*
X388208Y151090D01*
X388286Y151227D01*
X388481Y151539D01*
X388754Y151851D01*
X388773Y151870D01*
X388832Y151929D01*
X388910Y151987D01*
X389027Y152085D01*
X389183Y152202D01*
X389339Y152300D01*
X389534Y152417D01*
X389749Y152514D01*
X389768Y152534D01*
X389846Y152553D01*
X389983Y152592D01*
X390139Y152651D01*
X390334Y152690D01*
X390549Y152729D01*
X390802Y152748D01*
X391075Y152768D01*
X397532D01*
Y149783D01*
D02*
G37*
G36*
X415928Y152885D02*
X416142Y152846D01*
X416396Y152807D01*
X416649Y152729D01*
X416922Y152612D01*
X417176Y152475D01*
X417215Y152456D01*
X417293Y152397D01*
X417410Y152300D01*
X417547Y152163D01*
X417703Y151968D01*
X417878Y151753D01*
X418034Y151480D01*
X418171Y151168D01*
X421702Y141200D01*
X418522D01*
X415596Y149549D01*
X412689Y141200D01*
X409529D01*
X413041Y151168D01*
Y151188D01*
X413060Y151207D01*
X413099Y151324D01*
X413177Y151480D01*
X413294Y151675D01*
X413431Y151890D01*
X413606Y152105D01*
X413801Y152300D01*
X414035Y152475D01*
X414074Y152495D01*
X414152Y152534D01*
X414309Y152612D01*
X414484Y152690D01*
X414718Y152768D01*
X414991Y152846D01*
X415284Y152885D01*
X415616Y152904D01*
X415771D01*
X415928Y152885D01*
D02*
G37*
G36*
X373460Y149783D02*
X367374D01*
X367257Y149764D01*
X367121Y149705D01*
X366984Y149588D01*
X366964Y149549D01*
X366906Y149452D01*
X366828Y149315D01*
X366808Y149139D01*
Y149120D01*
Y149100D01*
X366828Y148983D01*
X366867Y148827D01*
X366964Y148671D01*
X367004Y148652D01*
X367081Y148593D01*
X367238Y148515D01*
X367433Y148496D01*
X373460D01*
Y145511D01*
X367374D01*
X367257Y145492D01*
X367121Y145433D01*
X366984Y145316D01*
X366964Y145277D01*
X366906Y145199D01*
X366828Y145043D01*
X366808Y144848D01*
Y144828D01*
Y144809D01*
X366828Y144672D01*
X366886Y144516D01*
X366984Y144360D01*
X367023Y144341D01*
X367101Y144282D01*
X367257Y144204D01*
X367433Y144185D01*
X373460D01*
Y141200D01*
X366867D01*
X366730Y141220D01*
X366535Y141239D01*
X366321Y141258D01*
X366087Y141317D01*
X365853Y141376D01*
X365619Y141454D01*
X365599Y141473D01*
X365521Y141512D01*
X365404Y141571D01*
X365267Y141649D01*
X365111Y141746D01*
X364936Y141883D01*
X364780Y142019D01*
X364624Y142175D01*
X364604Y142195D01*
X364565Y142253D01*
X364487Y142351D01*
X364409Y142468D01*
X364311Y142624D01*
X364214Y142819D01*
X364116Y143014D01*
X364019Y143229D01*
Y143248D01*
X363980Y143346D01*
X363960Y143463D01*
X363921Y143619D01*
X363882Y143814D01*
X363843Y144029D01*
X363824Y144263D01*
X363804Y144516D01*
Y144536D01*
Y144575D01*
Y144633D01*
X363824Y144711D01*
X363843Y144926D01*
X363882Y145160D01*
Y145180D01*
X363902Y145218D01*
X363921Y145296D01*
X363941Y145374D01*
X364019Y145589D01*
X364116Y145843D01*
Y145862D01*
X364156Y145901D01*
X364194Y145979D01*
X364234Y146057D01*
X364370Y146272D01*
X364546Y146506D01*
X364565Y146525D01*
X364585Y146565D01*
X364643Y146623D01*
X364721Y146681D01*
X364897Y146857D01*
X365131Y147033D01*
X365092Y147052D01*
X365014Y147111D01*
X364877Y147208D01*
X364721Y147345D01*
X364546Y147520D01*
X364389Y147715D01*
X364234Y147949D01*
X364097Y148203D01*
X364077Y148242D01*
X364058Y148320D01*
X364019Y148476D01*
X363960Y148671D01*
X363902Y148905D01*
X363863Y149159D01*
X363843Y149452D01*
X363824Y149744D01*
Y149764D01*
Y149842D01*
X363843Y149959D01*
Y150115D01*
X363882Y150290D01*
X363921Y150485D01*
X363960Y150681D01*
X364038Y150895D01*
X364058Y150915D01*
X364077Y150993D01*
X364136Y151090D01*
X364214Y151227D01*
X364409Y151539D01*
X364682Y151851D01*
X364702Y151870D01*
X364760Y151929D01*
X364838Y151987D01*
X364955Y152085D01*
X365111Y152202D01*
X365267Y152300D01*
X365462Y152417D01*
X365677Y152514D01*
X365696Y152534D01*
X365775Y152553D01*
X365911Y152592D01*
X366067Y152651D01*
X366262Y152690D01*
X366477Y152729D01*
X366730Y152748D01*
X367004Y152768D01*
X373460D01*
Y149783D01*
D02*
G37*
G36*
X451879Y152826D02*
X452074Y152807D01*
X452309Y152748D01*
X452601Y152670D01*
X452913Y152534D01*
X453245Y152358D01*
X453557Y152105D01*
X453577D01*
X453596Y152065D01*
X453694Y151968D01*
X453850Y151792D01*
X454025Y151578D01*
X454240Y151285D01*
X454454Y150934D01*
X454649Y150524D01*
X454825Y150056D01*
X456717Y144224D01*
Y144204D01*
X456756Y144165D01*
X456795Y144107D01*
X456854Y144087D01*
X456873D01*
X456912Y144107D01*
X456951Y144165D01*
X456971Y144282D01*
Y152748D01*
X460072D01*
Y144224D01*
Y144185D01*
Y144107D01*
X460053Y143970D01*
X460033Y143794D01*
X460014Y143599D01*
X459975Y143385D01*
X459897Y143151D01*
X459819Y142936D01*
X459799Y142917D01*
X459780Y142839D01*
X459721Y142722D01*
X459643Y142585D01*
X459546Y142429D01*
X459409Y142273D01*
X459273Y142097D01*
X459117Y141941D01*
X459097Y141922D01*
X459039Y141883D01*
X458941Y141805D01*
X458824Y141707D01*
X458668Y141610D01*
X458492Y141512D01*
X458297Y141415D01*
X458083Y141317D01*
X458063D01*
X457985Y141278D01*
X457868Y141258D01*
X457712Y141220D01*
X457517Y141180D01*
X457302Y141142D01*
X457049Y141122D01*
X456795Y141103D01*
X456698D01*
X456620Y141122D01*
X456424Y141142D01*
X456190Y141180D01*
X455898Y141258D01*
X455605Y141356D01*
X455293Y141512D01*
X454981Y141707D01*
X454942Y141727D01*
X454844Y141824D01*
X454708Y141961D01*
X454532Y142156D01*
X454337Y142390D01*
X454142Y142702D01*
X453967Y143053D01*
X453811Y143443D01*
X451782Y149705D01*
Y149725D01*
X451762Y149783D01*
X451723Y149822D01*
X451645Y149842D01*
X451626D01*
X451606Y149822D01*
X451567Y149783D01*
X451548Y149686D01*
Y141200D01*
X448446D01*
Y149705D01*
Y149744D01*
Y149822D01*
X448466Y149959D01*
X448485Y150134D01*
X448505Y150329D01*
X448544Y150544D01*
X448602Y150778D01*
X448680Y150993D01*
X448700Y151012D01*
X448719Y151090D01*
X448778Y151207D01*
X448856Y151344D01*
X448953Y151500D01*
X449070Y151656D01*
X449363Y151987D01*
X449382Y152007D01*
X449441Y152046D01*
X449538Y152124D01*
X449655Y152222D01*
X449812Y152319D01*
X450007Y152417D01*
X450202Y152514D01*
X450416Y152612D01*
X450436Y152631D01*
X450514Y152651D01*
X450650Y152690D01*
X450806Y152729D01*
X451002Y152768D01*
X451216Y152807D01*
X451450Y152846D01*
X451801D01*
X451879Y152826D01*
D02*
G37*
G36*
X361776Y149783D02*
X356899D01*
X356782Y149764D01*
X356626Y149744D01*
X356411Y149705D01*
X356177Y149608D01*
X355943Y149491D01*
X355728Y149334D01*
X355533Y149100D01*
X355514Y149061D01*
X355455Y148983D01*
X355377Y148808D01*
X355299Y148574D01*
X355221Y148281D01*
X355143Y147910D01*
X355085Y147462D01*
X355065Y147208D01*
Y146935D01*
Y146896D01*
Y146818D01*
X355085Y146681D01*
X355104Y146506D01*
X355124Y146291D01*
X355163Y146057D01*
X355221Y145823D01*
X355299Y145570D01*
X355397Y145296D01*
X355514Y145062D01*
X355670Y144828D01*
X355845Y144614D01*
X356060Y144438D01*
X356314Y144302D01*
X356587Y144224D01*
X356918Y144185D01*
X359162D01*
X359259Y144204D01*
X359376Y144263D01*
X359493Y144380D01*
Y144399D01*
X359513Y144419D01*
X359591Y144516D01*
X359649Y144672D01*
X359669Y144848D01*
Y144867D01*
Y144887D01*
X359649Y145004D01*
X359591Y145160D01*
X359493Y145336D01*
Y145355D01*
X359474Y145374D01*
X359396Y145453D01*
X359279Y145531D01*
X359201Y145570D01*
X356879D01*
Y148554D01*
X359318D01*
X359454Y148535D01*
X359649Y148515D01*
X359844Y148476D01*
X360079Y148418D01*
X360312Y148340D01*
X360547Y148242D01*
X360566Y148223D01*
X360664Y148184D01*
X360781Y148125D01*
X360917Y148027D01*
X361093Y147910D01*
X361288Y147774D01*
X361464Y147598D01*
X361639Y147423D01*
X361659Y147403D01*
X361717Y147325D01*
X361795Y147228D01*
X361912Y147091D01*
X362029Y146916D01*
X362146Y146721D01*
X362263Y146486D01*
X362380Y146252D01*
X362400Y146233D01*
X362419Y146135D01*
X362458Y146018D01*
X362517Y145843D01*
X362575Y145648D01*
X362614Y145433D01*
X362634Y145199D01*
X362653Y144945D01*
Y144906D01*
Y144809D01*
X362634Y144653D01*
X362614Y144458D01*
X362575Y144224D01*
X362536Y143970D01*
X362458Y143697D01*
X362361Y143443D01*
X362341Y143424D01*
X362302Y143326D01*
X362244Y143209D01*
X362166Y143053D01*
X362049Y142858D01*
X361932Y142663D01*
X361776Y142468D01*
X361600Y142273D01*
X361581Y142253D01*
X361522Y142195D01*
X361405Y142097D01*
X361288Y142000D01*
X361112Y141863D01*
X360917Y141746D01*
X360722Y141610D01*
X360488Y141493D01*
X360469Y141473D01*
X360391Y141454D01*
X360254Y141415D01*
X360098Y141356D01*
X359903Y141298D01*
X359688Y141258D01*
X359435Y141220D01*
X359181Y141200D01*
X357250D01*
X357152Y141220D01*
X357035D01*
X356899Y141239D01*
X356567Y141298D01*
X356157Y141376D01*
X355709Y141512D01*
X355221Y141688D01*
X354734Y141922D01*
X354246Y142234D01*
X353992Y142409D01*
X353758Y142605D01*
X353524Y142819D01*
X353310Y143073D01*
X353095Y143346D01*
X352919Y143619D01*
X352724Y143951D01*
X352568Y144282D01*
X352432Y144653D01*
X352315Y145062D01*
X352217Y145492D01*
X352139Y145940D01*
X352100Y146428D01*
X352080Y146955D01*
Y147013D01*
Y147033D01*
Y147072D01*
Y147150D01*
X352100Y147267D01*
Y147384D01*
X352119Y147540D01*
X352139Y147715D01*
X352178Y147910D01*
X352256Y148340D01*
X352373Y148827D01*
X352549Y149354D01*
X352763Y149900D01*
X353056Y150427D01*
X353407Y150954D01*
X353622Y151188D01*
X353836Y151441D01*
X354090Y151656D01*
X354343Y151870D01*
X354636Y152065D01*
X354968Y152241D01*
X355299Y152397D01*
X355670Y152514D01*
X356060Y152631D01*
X356470Y152709D01*
X356918Y152748D01*
X357406Y152768D01*
X361776D01*
Y149783D01*
D02*
G37*
G36*
X458113Y31769D02*
X458558Y31732D01*
X459041Y31695D01*
X459634Y31583D01*
X460228Y31472D01*
X460859Y31286D01*
X460896D01*
X460933Y31249D01*
X461156Y31212D01*
X461453Y31064D01*
X461861Y30915D01*
X462306Y30730D01*
X462826Y30470D01*
X463345Y30173D01*
X463828Y29802D01*
X463902Y29765D01*
X464050Y29616D01*
X464273Y29431D01*
X464570Y29134D01*
X464904Y28800D01*
X465275Y28392D01*
X465609Y27909D01*
X465943Y27390D01*
X465980Y27316D01*
X466054Y27130D01*
X466203Y26833D01*
X466351Y26425D01*
X466500Y25943D01*
X466648Y25349D01*
X466722Y24718D01*
X466759Y24013D01*
Y9800D01*
X461082D01*
Y24050D01*
Y24087D01*
Y24236D01*
X461045Y24421D01*
X460970Y24644D01*
X460822Y24904D01*
X460636Y25163D01*
X460377Y25386D01*
X460043Y25609D01*
X460005Y25646D01*
X459857Y25683D01*
X459634Y25757D01*
X459338Y25868D01*
X458966Y25980D01*
X458521Y26054D01*
X458039Y26091D01*
X457482Y26128D01*
Y31806D01*
X457779D01*
X458113Y31769D01*
D02*
G37*
G36*
X480007D02*
X480230D01*
X480490Y31732D01*
X481121Y31620D01*
X481900Y31472D01*
X482753Y31212D01*
X483644Y30878D01*
X484609Y30433D01*
X485537Y29876D01*
X486019Y29505D01*
X486465Y29134D01*
X486910Y28726D01*
X487318Y28243D01*
X487726Y27724D01*
X488097Y27204D01*
X488431Y26574D01*
X488728Y25943D01*
X488988Y25238D01*
X489248Y24458D01*
X489433Y23642D01*
X489582Y22788D01*
X489656Y21861D01*
X489693Y20859D01*
Y20747D01*
Y20710D01*
Y20636D01*
Y20487D01*
Y20265D01*
X489656Y20042D01*
X489619Y19745D01*
X489582Y19411D01*
X489545Y19040D01*
X489396Y18224D01*
X489174Y17296D01*
X488839Y16294D01*
X488431Y15292D01*
X487912Y14253D01*
X487244Y13251D01*
X486836Y12806D01*
X486427Y12323D01*
X485945Y11915D01*
X485425Y11507D01*
X484869Y11136D01*
X484275Y10802D01*
X483644Y10505D01*
X482939Y10282D01*
X482197Y10060D01*
X481381Y9911D01*
X480527Y9837D01*
X479599Y9800D01*
X479117D01*
X478931Y9837D01*
X478709D01*
X478449Y9874D01*
X477818Y9986D01*
X477039Y10134D01*
X476185Y10394D01*
X475257Y10728D01*
X474330Y11173D01*
X473402Y11767D01*
X472920Y12101D01*
X472474Y12472D01*
X472029Y12880D01*
X471621Y13362D01*
X471213Y13882D01*
X470878Y14402D01*
X470507Y15032D01*
X470211Y15663D01*
X469951Y16368D01*
X469728Y17148D01*
X469543Y17964D01*
X469394Y18818D01*
X469320Y19745D01*
X469283Y20747D01*
Y20859D01*
Y20933D01*
Y21081D01*
X469320Y21378D01*
Y21749D01*
X469394Y22194D01*
X469431Y22714D01*
X469543Y23308D01*
X469654Y23902D01*
X469802Y24569D01*
X469951Y25238D01*
X470173Y25905D01*
X470433Y26574D01*
X470730Y27241D01*
X471101Y27872D01*
X471509Y28466D01*
X471955Y29023D01*
X471992Y29060D01*
X472066Y29134D01*
X472215Y29282D01*
X472437Y29468D01*
X472697Y29653D01*
X473031Y29913D01*
X473402Y30173D01*
X473847Y30433D01*
X474367Y30693D01*
X474924Y30915D01*
X475517Y31175D01*
X476185Y31361D01*
X476927Y31546D01*
X477707Y31695D01*
X478523Y31769D01*
X479414Y31806D01*
X479822D01*
X480007Y31769D01*
D02*
G37*
G36*
X429542Y168100D02*
Y168080D01*
X429522Y168061D01*
X429483Y167943D01*
X429405Y167787D01*
X429288Y167592D01*
X429152Y167378D01*
X428976Y167163D01*
X428781Y166968D01*
X428547Y166793D01*
X428508Y166773D01*
X428430Y166734D01*
X428293Y166676D01*
X428098Y166597D01*
X427884Y166520D01*
X427611Y166461D01*
X427318Y166422D01*
X426987Y166402D01*
X426830D01*
X426655Y166422D01*
X426421Y166461D01*
X426167Y166500D01*
X425894Y166578D01*
X425621Y166676D01*
X425367Y166812D01*
X425348Y166832D01*
X425250Y166890D01*
X425133Y166988D01*
X424997Y167124D01*
X424841Y167300D01*
X424685Y167534D01*
X424529Y167787D01*
X424412Y168100D01*
X420900Y178068D01*
X424060D01*
X426967Y169680D01*
X429893Y178068D01*
X433073D01*
X429542Y168100D01*
D02*
G37*
G36*
X436441Y31769D02*
X436849D01*
X437295Y31695D01*
X437777Y31620D01*
X438297Y31509D01*
X438779Y31361D01*
X438853Y31323D01*
X439002Y31286D01*
X439261Y31175D01*
X439558Y31027D01*
X439929Y30841D01*
X440300Y30656D01*
X440672Y30396D01*
X441043Y30099D01*
X441080Y30062D01*
X441191Y29950D01*
X441377Y29802D01*
X441562Y29579D01*
X441822Y29282D01*
X442044Y28949D01*
X442267Y28540D01*
X442490Y28132D01*
X442527Y28095D01*
X442564Y27909D01*
X442675Y27687D01*
X442787Y27353D01*
X442861Y26982D01*
X442972Y26536D01*
X443009Y26017D01*
X443046Y25497D01*
Y25460D01*
Y25423D01*
Y25312D01*
Y25163D01*
X443009Y24792D01*
X442935Y24347D01*
Y24310D01*
X442898Y24236D01*
Y24124D01*
X442861Y23976D01*
X442750Y23568D01*
X442564Y23122D01*
Y23085D01*
X442527Y23011D01*
X442453Y22900D01*
X442379Y22751D01*
X442156Y22343D01*
X441822Y21898D01*
X441785Y21861D01*
X441748Y21823D01*
X441636Y21712D01*
X441488Y21564D01*
X441117Y21230D01*
X440672Y20896D01*
X440709Y20859D01*
X440783Y20821D01*
X440894Y20710D01*
X441080Y20599D01*
X441451Y20265D01*
X441822Y19857D01*
X441859Y19820D01*
X441896Y19745D01*
X442007Y19634D01*
X442119Y19486D01*
X442341Y19077D01*
X442601Y18595D01*
Y18558D01*
X442675Y18484D01*
X442713Y18372D01*
X442787Y18187D01*
X442935Y17779D01*
X443084Y17296D01*
Y17259D01*
X443121Y17185D01*
Y17073D01*
X443158Y16925D01*
X443195Y16517D01*
X443232Y16109D01*
Y16071D01*
Y15923D01*
X443195Y15700D01*
Y15403D01*
X443121Y15070D01*
X443046Y14698D01*
X442972Y14290D01*
X442824Y13845D01*
Y13808D01*
X442750Y13659D01*
X442638Y13437D01*
X442527Y13177D01*
X442341Y12843D01*
X442119Y12509D01*
X441859Y12175D01*
X441562Y11804D01*
X441525Y11767D01*
X441414Y11655D01*
X441228Y11507D01*
X440968Y11284D01*
X440634Y11062D01*
X440263Y10802D01*
X439818Y10579D01*
X439298Y10357D01*
X439224Y10319D01*
X439039Y10282D01*
X438742Y10171D01*
X438334Y10097D01*
X437851Y9986D01*
X437257Y9874D01*
X436589Y9837D01*
X435884Y9800D01*
X424900D01*
Y31806D01*
X436144D01*
X436441Y31769D01*
D02*
G37*
G36*
X318529Y247139D02*
X324830Y245886D01*
X330913Y243821D01*
X336675Y240979D01*
X342017Y237410D01*
X346847Y233174D01*
X351083Y228344D01*
X354653Y223002D01*
X357494Y217240D01*
X359559Y211157D01*
X360813Y204855D01*
X361233Y198445D01*
X360813Y192034D01*
X359559Y185733D01*
X357494Y179649D01*
X354653Y173887D01*
X351083Y168545D01*
X346847Y163715D01*
X342017Y159479D01*
X336675Y155910D01*
X330913Y153068D01*
X324830Y151003D01*
X318529Y149750D01*
X312118Y149330D01*
X305707Y149750D01*
X299406Y151003D01*
X295331Y152387D01*
X295332Y152381D01*
X294178Y152611D01*
X294173Y152586D01*
X293449Y152886D01*
X293045Y153861D01*
X293370Y154645D01*
X293400Y154623D01*
X293571Y155035D01*
X294546Y155439D01*
X295015Y155245D01*
X295015Y155245D01*
X294994Y155191D01*
X295985Y154855D01*
X295987Y154848D01*
X297403Y154567D01*
X303125Y154192D01*
X308847Y154567D01*
X314471Y155685D01*
X319901Y157528D01*
X325043Y160065D01*
X329811Y163250D01*
X334122Y167031D01*
X337903Y171342D01*
X341089Y176110D01*
X343625Y181253D01*
X345468Y186682D01*
X346587Y192306D01*
X346962Y198028D01*
X346587Y203750D01*
X345468Y209374D01*
X343625Y214804D01*
X341089Y219947D01*
X337903Y224715D01*
X334122Y229026D01*
X329811Y232806D01*
X325043Y235992D01*
X319901Y238528D01*
X314471Y240371D01*
X308847Y241490D01*
X303125Y241865D01*
X297403Y241490D01*
X294241Y240861D01*
X294246Y240837D01*
X293983Y240728D01*
X293008Y241132D01*
X292717Y241833D01*
X292720Y241826D01*
X292428Y242529D01*
X292832Y243504D01*
X293319Y243705D01*
X293279Y243800D01*
X293323Y243821D01*
X299406Y245886D01*
X305707Y247139D01*
X312118Y247560D01*
X318529Y247139D01*
D02*
G37*
G36*
X224729Y245539D02*
X231030Y244286D01*
X232824Y243677D01*
X232819Y243660D01*
X232821Y243665D01*
X233274Y243477D01*
X233274D01*
X233266Y243414D01*
X233308Y243463D01*
X233274Y243477D01*
X233879Y243438D01*
X233872Y243384D01*
X234675Y243051D01*
X235079Y242076D01*
X234675Y241102D01*
X233700Y240698D01*
X233528Y240769D01*
X233546Y240907D01*
X227826Y241281D01*
X222104Y240906D01*
X216481Y239788D01*
X211051Y237945D01*
X205908Y235408D01*
X201140Y232223D01*
X196829Y228442D01*
X193048Y224131D01*
X189863Y219363D01*
X187326Y214220D01*
X185483Y208790D01*
X184365Y203167D01*
X183990Y197445D01*
X184365Y191723D01*
X185483Y186099D01*
X187326Y180669D01*
X189863Y175526D01*
X193048Y170758D01*
X196829Y166447D01*
X201140Y162667D01*
X205908Y159481D01*
X211051Y156945D01*
X216481Y155102D01*
X222104Y153983D01*
X227826Y153608D01*
X233548Y153983D01*
X234995Y154271D01*
X234986Y154326D01*
X235201Y154415D01*
X236175Y154011D01*
X236200Y153951D01*
X236185Y153957D01*
X236178Y153954D01*
X236225Y153891D01*
X236200Y153951D01*
X237160Y153554D01*
X237564Y152579D01*
X237160Y151604D01*
X236662Y151397D01*
X236691Y151325D01*
X231030Y149403D01*
X224729Y148150D01*
X218318Y147730D01*
X211907Y148150D01*
X205606Y149403D01*
X199522Y151468D01*
X193761Y154310D01*
X188419Y157879D01*
X183589Y162115D01*
X179352Y166945D01*
X175783Y172287D01*
X172942Y178049D01*
X170877Y184133D01*
X169623Y190434D01*
X169203Y196845D01*
X169623Y203255D01*
X170877Y209557D01*
X172942Y215640D01*
X175783Y221402D01*
X179352Y226744D01*
X183589Y231574D01*
X188419Y235810D01*
X193761Y239379D01*
X199522Y242221D01*
X205606Y244286D01*
X211907Y245539D01*
X218318Y245960D01*
X224729Y245539D01*
D02*
G37*
G36*
X509880Y26128D02*
X497968D01*
Y23679D01*
X504203D01*
X504425Y23642D01*
X504685Y23605D01*
X505019Y23568D01*
X505761Y23456D01*
X506578Y23234D01*
X507394Y22900D01*
X507802Y22677D01*
X508211Y22417D01*
X508582Y22120D01*
X508916Y21786D01*
X508953Y21749D01*
X508990Y21712D01*
X509064Y21601D01*
X509175Y21452D01*
X509324Y21267D01*
X509472Y21007D01*
X509621Y20747D01*
X509769Y20450D01*
X510066Y19708D01*
X510363Y18855D01*
X510549Y17853D01*
X510623Y17333D01*
Y16739D01*
Y16665D01*
Y16480D01*
X510586Y16220D01*
X510549Y15849D01*
X510511Y15403D01*
X510437Y14958D01*
X510289Y14476D01*
X510140Y13993D01*
X510103Y13956D01*
X510066Y13771D01*
X509955Y13548D01*
X509806Y13251D01*
X509584Y12880D01*
X509361Y12509D01*
X509101Y12138D01*
X508767Y11767D01*
X508730Y11730D01*
X508619Y11618D01*
X508433Y11433D01*
X508173Y11247D01*
X507840Y11025D01*
X507468Y10765D01*
X507060Y10542D01*
X506615Y10319D01*
X506541Y10282D01*
X506392Y10245D01*
X506133Y10171D01*
X505798Y10060D01*
X505390Y9948D01*
X504908Y9874D01*
X504425Y9837D01*
X503869Y9800D01*
X492253D01*
Y15478D01*
X503943D01*
X504166Y15515D01*
X504388Y15663D01*
X504537Y15738D01*
X504648Y15886D01*
Y15923D01*
X504685Y15960D01*
X504796Y16146D01*
X504908Y16406D01*
X504945Y16739D01*
Y16777D01*
Y16814D01*
X504908Y17036D01*
X504834Y17333D01*
X504648Y17630D01*
X504611Y17704D01*
X504425Y17816D01*
X504203Y17927D01*
X503869Y18001D01*
X492253D01*
Y31806D01*
X509880D01*
Y26128D01*
D02*
G37*
G36*
X455738Y18001D02*
X445459D01*
Y23753D01*
X455738D01*
Y18001D01*
D02*
G37*
G36*
X388479Y175083D02*
X383602D01*
X383485Y175064D01*
X383329Y175044D01*
X383115Y175005D01*
X382881Y174908D01*
X382647Y174791D01*
X382432Y174634D01*
X382237Y174400D01*
X382217Y174361D01*
X382159Y174283D01*
X382081Y174108D01*
X382003Y173874D01*
X381925Y173581D01*
X381847Y173211D01*
X381788Y172762D01*
X381769Y172508D01*
Y172235D01*
Y172196D01*
Y172118D01*
X381788Y171982D01*
X381808Y171806D01*
X381827Y171591D01*
X381866Y171357D01*
X381925Y171123D01*
X382003Y170870D01*
X382100Y170597D01*
X382217Y170362D01*
X382374Y170128D01*
X382549Y169914D01*
X382764Y169738D01*
X383017Y169602D01*
X383290Y169524D01*
X383622Y169485D01*
X385865D01*
X385963Y169504D01*
X386080Y169563D01*
X386197Y169680D01*
Y169699D01*
X386216Y169719D01*
X386295Y169816D01*
X386353Y169972D01*
X386372Y170148D01*
Y170167D01*
Y170187D01*
X386353Y170304D01*
X386295Y170460D01*
X386197Y170636D01*
Y170655D01*
X386177Y170674D01*
X386099Y170753D01*
X385982Y170831D01*
X385904Y170870D01*
X383583D01*
Y173854D01*
X386021D01*
X386158Y173835D01*
X386353Y173815D01*
X386548Y173776D01*
X386782Y173718D01*
X387016Y173640D01*
X387250Y173542D01*
X387270Y173523D01*
X387367Y173484D01*
X387484Y173425D01*
X387621Y173328D01*
X387797Y173211D01*
X387992Y173074D01*
X388167Y172898D01*
X388343Y172723D01*
X388362Y172703D01*
X388421Y172625D01*
X388499Y172528D01*
X388616Y172391D01*
X388733Y172216D01*
X388850Y172020D01*
X388967Y171786D01*
X389084Y171552D01*
X389104Y171533D01*
X389123Y171435D01*
X389162Y171318D01*
X389221Y171143D01*
X389279Y170948D01*
X389318Y170733D01*
X389338Y170499D01*
X389357Y170245D01*
Y170206D01*
Y170109D01*
X389338Y169953D01*
X389318Y169758D01*
X389279Y169524D01*
X389240Y169270D01*
X389162Y168997D01*
X389064Y168743D01*
X389045Y168724D01*
X389006Y168626D01*
X388947Y168509D01*
X388869Y168353D01*
X388752Y168158D01*
X388635Y167963D01*
X388479Y167768D01*
X388304Y167573D01*
X388284Y167553D01*
X388226Y167495D01*
X388109Y167397D01*
X387992Y167300D01*
X387816Y167163D01*
X387621Y167046D01*
X387426Y166910D01*
X387192Y166793D01*
X387172Y166773D01*
X387094Y166754D01*
X386958Y166715D01*
X386802Y166656D01*
X386607Y166597D01*
X386392Y166558D01*
X386138Y166520D01*
X385885Y166500D01*
X383954D01*
X383856Y166520D01*
X383739D01*
X383602Y166539D01*
X383271Y166597D01*
X382861Y166676D01*
X382412Y166812D01*
X381925Y166988D01*
X381437Y167222D01*
X380950Y167534D01*
X380696Y167709D01*
X380462Y167904D01*
X380228Y168119D01*
X380013Y168373D01*
X379799Y168646D01*
X379623Y168919D01*
X379428Y169251D01*
X379272Y169582D01*
X379135Y169953D01*
X379018Y170362D01*
X378921Y170792D01*
X378843Y171240D01*
X378804Y171728D01*
X378784Y172255D01*
Y172313D01*
Y172333D01*
Y172372D01*
Y172450D01*
X378804Y172567D01*
Y172684D01*
X378823Y172840D01*
X378843Y173015D01*
X378882Y173211D01*
X378960Y173640D01*
X379077Y174127D01*
X379252Y174654D01*
X379467Y175200D01*
X379760Y175727D01*
X380111Y176254D01*
X380325Y176488D01*
X380540Y176741D01*
X380793Y176956D01*
X381047Y177170D01*
X381340Y177365D01*
X381671Y177541D01*
X382003Y177697D01*
X382374Y177814D01*
X382764Y177931D01*
X383173Y178009D01*
X383622Y178048D01*
X384110Y178068D01*
X388479D01*
Y175083D01*
D02*
G37*
G36*
X406796Y166500D02*
X403812D01*
Y178068D01*
X406796D01*
Y166500D01*
D02*
G37*
G36*
X364876Y175083D02*
X359882D01*
X359726Y175044D01*
X359511Y175005D01*
X359277Y174927D01*
X359043Y174810D01*
X358828Y174634D01*
X358633Y174420D01*
X358614Y174381D01*
X358555Y174303D01*
X358477Y174127D01*
X358399Y173893D01*
X358321Y173601D01*
X358243Y173211D01*
X358204Y172996D01*
X358185Y172762D01*
X358165Y172508D01*
Y172235D01*
Y172196D01*
Y172118D01*
X358185Y171982D01*
X358204Y171806D01*
X358224Y171591D01*
X358263Y171357D01*
X358321Y171123D01*
X358399Y170870D01*
X358497Y170597D01*
X358614Y170362D01*
X358770Y170128D01*
X358945Y169914D01*
X359160Y169738D01*
X359414Y169602D01*
X359687Y169524D01*
X360018Y169485D01*
X364876D01*
Y166500D01*
X360350D01*
X360252Y166520D01*
X360135D01*
X359999Y166539D01*
X359667Y166597D01*
X359258Y166676D01*
X358809Y166812D01*
X358321Y166988D01*
X357834Y167222D01*
X357346Y167534D01*
X357092Y167709D01*
X356858Y167924D01*
X356624Y168139D01*
X356409Y168392D01*
X356195Y168646D01*
X356019Y168938D01*
X355824Y169270D01*
X355668Y169602D01*
X355532Y169972D01*
X355415Y170382D01*
X355317Y170811D01*
X355239Y171279D01*
X355200Y171767D01*
X355181Y172294D01*
Y172333D01*
Y172430D01*
Y172567D01*
X355200Y172762D01*
X355219Y173015D01*
X355258Y173288D01*
X355298Y173601D01*
X355356Y173932D01*
X355512Y174634D01*
X355610Y174986D01*
X355746Y175356D01*
X355902Y175688D01*
X356078Y176039D01*
X356273Y176351D01*
X356507Y176624D01*
X356526Y176644D01*
X356566Y176683D01*
X356643Y176761D01*
X356761Y176858D01*
X356897Y176956D01*
X357073Y177073D01*
X357268Y177209D01*
X357521Y177346D01*
X357775Y177483D01*
X358068Y177619D01*
X358399Y177736D01*
X358770Y177834D01*
X359160Y177931D01*
X359570Y178009D01*
X360018Y178048D01*
X360506Y178068D01*
X364876D01*
Y175083D01*
D02*
G37*
G36*
X372698Y178048D02*
X372932Y178029D01*
X373186Y177990D01*
X373459Y177951D01*
X373771Y177892D01*
X374083Y177814D01*
X374415Y177717D01*
X374746Y177600D01*
X375058Y177463D01*
X375390Y177288D01*
X375702Y177092D01*
X375995Y176878D01*
X376248Y176624D01*
X376268Y176605D01*
X376307Y176566D01*
X376365Y176468D01*
X376463Y176351D01*
X376560Y176195D01*
X376677Y176019D01*
X376795Y175785D01*
X376931Y175532D01*
X377048Y175239D01*
X377165Y174927D01*
X377282Y174557D01*
X377380Y174166D01*
X377477Y173737D01*
X377536Y173288D01*
X377575Y172781D01*
X377594Y172255D01*
Y172235D01*
Y172196D01*
Y172118D01*
Y172001D01*
X377575Y171884D01*
X377555Y171728D01*
X377536Y171552D01*
X377516Y171357D01*
X377438Y170928D01*
X377321Y170441D01*
X377146Y169914D01*
X376931Y169387D01*
X376658Y168841D01*
X376307Y168314D01*
X376092Y168080D01*
X375878Y167826D01*
X375624Y167612D01*
X375351Y167397D01*
X375058Y167202D01*
X374746Y167027D01*
X374415Y166871D01*
X374044Y166754D01*
X373654Y166637D01*
X373225Y166558D01*
X372776Y166520D01*
X372288Y166500D01*
X371313D01*
X371215Y166520D01*
X371098D01*
X370962Y166539D01*
X370630Y166597D01*
X370220Y166676D01*
X369772Y166812D01*
X369284Y166988D01*
X368797Y167222D01*
X368309Y167534D01*
X368055Y167709D01*
X367821Y167904D01*
X367587Y168119D01*
X367373Y168373D01*
X367158Y168646D01*
X366982Y168919D01*
X366787Y169251D01*
X366631Y169582D01*
X366495Y169953D01*
X366378Y170362D01*
X366280Y170792D01*
X366202Y171240D01*
X366163Y171728D01*
X366143Y172255D01*
Y172294D01*
Y172391D01*
Y172528D01*
X366163Y172742D01*
X366183Y172976D01*
X366222Y173269D01*
X366261Y173581D01*
X366319Y173913D01*
X366378Y174264D01*
X366475Y174615D01*
X366592Y174986D01*
X366729Y175337D01*
X366885Y175688D01*
X367060Y176019D01*
X367275Y176332D01*
X367509Y176624D01*
X367529Y176644D01*
X367568Y176683D01*
X367646Y176761D01*
X367763Y176858D01*
X367899Y176956D01*
X368075Y177073D01*
X368289Y177209D01*
X368523Y177346D01*
X368777Y177483D01*
X369070Y177619D01*
X369401Y177736D01*
X369752Y177834D01*
X370143Y177931D01*
X370552Y178009D01*
X371001Y178048D01*
X371469Y178068D01*
X372522D01*
X372698Y178048D01*
D02*
G37*
G36*
X415926Y175083D02*
X413507D01*
Y166500D01*
X410522D01*
Y175083D01*
X407948D01*
Y178068D01*
X415926D01*
Y175083D01*
D02*
G37*
G36*
X443372D02*
X437286D01*
X437169Y175064D01*
X437033Y175005D01*
X436896Y174888D01*
X436877Y174849D01*
X436818Y174751D01*
X436740Y174615D01*
X436721Y174439D01*
Y174420D01*
Y174400D01*
X436740Y174283D01*
X436779Y174127D01*
X436877Y173971D01*
X436916Y173952D01*
X436994Y173893D01*
X437150Y173815D01*
X437345Y173796D01*
X443372D01*
Y170811D01*
X437286D01*
X437169Y170792D01*
X437033Y170733D01*
X436896Y170616D01*
X436877Y170577D01*
X436818Y170499D01*
X436740Y170343D01*
X436721Y170148D01*
Y170128D01*
Y170109D01*
X436740Y169972D01*
X436799Y169816D01*
X436896Y169660D01*
X436935Y169641D01*
X437013Y169582D01*
X437169Y169504D01*
X437345Y169485D01*
X443372D01*
Y166500D01*
X436779D01*
X436643Y166520D01*
X436447Y166539D01*
X436233Y166558D01*
X435999Y166617D01*
X435765Y166676D01*
X435531Y166754D01*
X435511Y166773D01*
X435433Y166812D01*
X435316Y166871D01*
X435179Y166949D01*
X435023Y167046D01*
X434848Y167183D01*
X434692Y167319D01*
X434536Y167475D01*
X434516Y167495D01*
X434477Y167553D01*
X434399Y167651D01*
X434321Y167768D01*
X434224Y167924D01*
X434126Y168119D01*
X434029Y168314D01*
X433931Y168529D01*
Y168548D01*
X433892Y168646D01*
X433872Y168763D01*
X433834Y168919D01*
X433795Y169114D01*
X433755Y169328D01*
X433736Y169563D01*
X433717Y169816D01*
Y169836D01*
Y169875D01*
Y169933D01*
X433736Y170011D01*
X433755Y170226D01*
X433795Y170460D01*
Y170480D01*
X433814Y170518D01*
X433834Y170597D01*
X433853Y170674D01*
X433931Y170889D01*
X434029Y171143D01*
Y171162D01*
X434068Y171201D01*
X434107Y171279D01*
X434146Y171357D01*
X434282Y171572D01*
X434458Y171806D01*
X434477Y171826D01*
X434497Y171864D01*
X434555Y171923D01*
X434633Y171982D01*
X434809Y172157D01*
X435043Y172333D01*
X435004Y172352D01*
X434926Y172411D01*
X434789Y172508D01*
X434633Y172645D01*
X434458Y172820D01*
X434302Y173015D01*
X434146Y173249D01*
X434009Y173503D01*
X433990Y173542D01*
X433970Y173620D01*
X433931Y173776D01*
X433872Y173971D01*
X433814Y174205D01*
X433775Y174459D01*
X433755Y174751D01*
X433736Y175044D01*
Y175064D01*
Y175142D01*
X433755Y175259D01*
Y175415D01*
X433795Y175590D01*
X433834Y175785D01*
X433872Y175980D01*
X433951Y176195D01*
X433970Y176215D01*
X433990Y176293D01*
X434048Y176390D01*
X434126Y176527D01*
X434321Y176839D01*
X434594Y177151D01*
X434614Y177170D01*
X434672Y177229D01*
X434750Y177288D01*
X434867Y177385D01*
X435023Y177502D01*
X435179Y177600D01*
X435375Y177717D01*
X435589Y177814D01*
X435609Y177834D01*
X435687Y177853D01*
X435823Y177892D01*
X435979Y177951D01*
X436174Y177990D01*
X436389Y178029D01*
X436643Y178048D01*
X436916Y178068D01*
X443372D01*
Y175083D01*
D02*
G37*
G36*
X420061Y166500D02*
X417077D01*
Y178068D01*
X420061D01*
Y166500D01*
D02*
G37*
%LPC*%
G36*
X372737Y175083D02*
X370845D01*
X370689Y175044D01*
X370474Y175005D01*
X370240Y174927D01*
X370006Y174810D01*
X369791Y174634D01*
X369596Y174420D01*
X369577Y174381D01*
X369518Y174303D01*
X369440Y174127D01*
X369362Y173893D01*
X369284Y173601D01*
X369206Y173211D01*
X369167Y172996D01*
X369148Y172762D01*
X369128Y172508D01*
Y172235D01*
Y172196D01*
Y172118D01*
X369148Y171982D01*
X369167Y171806D01*
X369187Y171591D01*
X369226Y171357D01*
X369284Y171123D01*
X369362Y170870D01*
X369460Y170597D01*
X369577Y170362D01*
X369733Y170128D01*
X369908Y169914D01*
X370123Y169738D01*
X370377Y169602D01*
X370650Y169524D01*
X370981Y169485D01*
X372815D01*
X372912Y169504D01*
X373030Y169524D01*
X373166Y169563D01*
X373322Y169621D01*
X373498Y169719D01*
X373673Y169836D01*
X373849Y169972D01*
X374024Y170148D01*
X374180Y170382D01*
X374317Y170655D01*
X374434Y170967D01*
X374532Y171318D01*
X374590Y171747D01*
X374610Y172235D01*
Y172255D01*
Y172294D01*
Y172372D01*
Y172489D01*
X374590Y172606D01*
Y172762D01*
X374551Y173074D01*
X374493Y173445D01*
X374415Y173796D01*
X374297Y174127D01*
X374220Y174283D01*
X374142Y174420D01*
X374122Y174439D01*
X374063Y174517D01*
X373946Y174634D01*
X373790Y174751D01*
X373595Y174869D01*
X373361Y174986D01*
X373069Y175064D01*
X372737Y175083D01*
D02*
G37*
G36*
X293400Y154623D02*
X293400Y154622D01*
X293402Y154621D01*
X293400Y154623D01*
D02*
G37*
G36*
X442243Y149783D02*
X440351D01*
X440195Y149744D01*
X439980Y149705D01*
X439746Y149627D01*
X439512Y149510D01*
X439297Y149334D01*
X439102Y149120D01*
X439083Y149081D01*
X439024Y149003D01*
X438946Y148827D01*
X438868Y148593D01*
X438790Y148301D01*
X438712Y147910D01*
X438673Y147696D01*
X438653Y147462D01*
X438634Y147208D01*
Y146935D01*
Y146896D01*
Y146818D01*
X438653Y146681D01*
X438673Y146506D01*
X438693Y146291D01*
X438731Y146057D01*
X438790Y145823D01*
X438868Y145570D01*
X438966Y145296D01*
X439083Y145062D01*
X439239Y144828D01*
X439414Y144614D01*
X439629Y144438D01*
X439882Y144302D01*
X440155Y144224D01*
X440487Y144185D01*
X442321D01*
X442418Y144204D01*
X442535Y144224D01*
X442672Y144263D01*
X442828Y144321D01*
X443004Y144419D01*
X443179Y144536D01*
X443355Y144672D01*
X443530Y144848D01*
X443686Y145082D01*
X443823Y145355D01*
X443940Y145667D01*
X444037Y146018D01*
X444096Y146447D01*
X444115Y146935D01*
Y146955D01*
Y146994D01*
Y147072D01*
Y147189D01*
X444096Y147306D01*
Y147462D01*
X444057Y147774D01*
X443998Y148145D01*
X443920Y148496D01*
X443803Y148827D01*
X443725Y148983D01*
X443647Y149120D01*
X443628Y149139D01*
X443569Y149218D01*
X443452Y149334D01*
X443296Y149452D01*
X443101Y149569D01*
X442867Y149686D01*
X442574Y149764D01*
X442243Y149783D01*
D02*
G37*
G36*
X436404Y26128D02*
X430578D01*
Y23716D01*
X436478D01*
X436701Y23753D01*
X436960Y23865D01*
X437220Y24050D01*
X437257Y24124D01*
X437406Y24273D01*
X437517Y24569D01*
X437554Y24941D01*
Y24978D01*
Y25015D01*
X437517Y25200D01*
X437406Y25460D01*
X437220Y25757D01*
X437146Y25831D01*
X436998Y25943D01*
X436738Y26054D01*
X436404Y26128D01*
D02*
G37*
G36*
Y18038D02*
X430578D01*
Y15478D01*
X436441D01*
X436664Y15515D01*
X436701D01*
X436775Y15589D01*
X437035Y15738D01*
X437072Y15775D01*
X437183Y15849D01*
X437295Y15960D01*
X437406Y16146D01*
X437443Y16183D01*
X437480Y16331D01*
X437517Y16554D01*
X437554Y16814D01*
Y16851D01*
Y16888D01*
X437517Y17111D01*
X437406Y17370D01*
X437220Y17667D01*
X437146Y17741D01*
X436998Y17853D01*
X436738Y17964D01*
X436404Y18038D01*
D02*
G37*
G36*
X480453Y26128D02*
X478449D01*
X478226Y26091D01*
X477929Y26054D01*
X477521Y25980D01*
X477076Y25794D01*
X476631Y25571D01*
X476222Y25275D01*
X475851Y24829D01*
X475814Y24755D01*
X475703Y24607D01*
X475554Y24273D01*
X475406Y23827D01*
X475257Y23271D01*
X475109Y22566D01*
X474998Y21712D01*
X474961Y21230D01*
Y20710D01*
Y20487D01*
Y20450D01*
Y20265D01*
X474998Y20042D01*
X475035Y19708D01*
X475072Y19337D01*
X475146Y18892D01*
X475257Y18447D01*
X475406Y18001D01*
X475591Y17519D01*
X475814Y17073D01*
X476111Y16628D01*
X476445Y16257D01*
X476853Y15923D01*
X477336Y15700D01*
X477855Y15552D01*
X478486Y15478D01*
X480638D01*
X480824Y15515D01*
X481046Y15552D01*
X481306Y15626D01*
X481603Y15738D01*
X481937Y15886D01*
X482271Y16109D01*
X482568Y16368D01*
X482902Y16702D01*
X483199Y17111D01*
X483459Y17593D01*
X483681Y18150D01*
X483867Y18818D01*
X483978Y19597D01*
X484015Y20487D01*
Y20710D01*
Y20747D01*
Y20821D01*
Y20970D01*
Y21193D01*
X483978Y21415D01*
Y21675D01*
X483904Y22306D01*
X483793Y22974D01*
X483644Y23642D01*
X483422Y24310D01*
X483273Y24569D01*
X483125Y24829D01*
X483088Y24904D01*
X482976Y25052D01*
X482753Y25238D01*
X482457Y25497D01*
X482086Y25720D01*
X481640Y25943D01*
X481084Y26091D01*
X480453Y26128D01*
D02*
G37*
G36*
X414126Y137583D02*
X411785D01*
Y131985D01*
X414165D01*
X414282Y132004D01*
X414438Y132024D01*
X414652Y132063D01*
X414886Y132141D01*
X415120Y132258D01*
X415335Y132433D01*
X415530Y132648D01*
X415550Y132687D01*
X415608Y132784D01*
X415686Y132941D01*
X415764Y133174D01*
X415842Y133467D01*
X415920Y133838D01*
X415979Y134286D01*
X415998Y134540D01*
Y134813D01*
Y134852D01*
Y134930D01*
X415979Y135067D01*
Y135242D01*
X415940Y135457D01*
X415901Y135691D01*
X415842Y135945D01*
X415764Y136198D01*
X415667Y136452D01*
X415550Y136705D01*
X415393Y136939D01*
X415218Y137154D01*
X415003Y137330D01*
X414750Y137466D01*
X414457Y137544D01*
X414126Y137583D01*
D02*
G37*
%LPD*%
D10*
X219629Y178371D02*
G03*
X309597Y179180I44454J59371D01*
G01*
X310391Y216275D02*
G03*
X218068Y217304I-46808J-57533D01*
G01*
X348483Y199342D02*
G03*
X348513Y198311I-23100J-1198D01*
G01*
X229283Y198542D02*
G03*
X229313Y197511I-23100J-1198D01*
G01*
X287883Y198742D02*
G03*
X287913Y197711I-23944J-1223D01*
G01*
X294546Y154060D02*
G03*
X293807Y242529I17572J44384D01*
G01*
X294424Y153861D02*
G03*
X293983Y242107I8701J44168D01*
G01*
X232442Y242443D02*
G03*
X236185Y152579I-14124J-45599D01*
G01*
X233700Y242076D02*
G03*
X235201Y153036I-5874J-44632D01*
G01*
X311904Y218398D02*
G03*
X216301Y218910I-47895J-17230D01*
G01*
X217024Y175402D02*
G03*
X312191Y178709I46958J19641D01*
G01*
X15900Y59935D02*
Y44700D01*
Y52318D01*
X18439Y54857D01*
X23517D01*
X26057Y52318D01*
Y44700D01*
X41292Y59935D02*
Y44700D01*
X33674D01*
X31135Y47239D01*
Y52318D01*
X33674Y54857D01*
X41292D01*
X53988Y44700D02*
Y59935D01*
X46370Y52318D01*
X56527D01*
X61605Y57396D02*
X64144Y59935D01*
X69223D01*
X71762Y57396D01*
Y47239D01*
X69223Y44700D01*
X64144D01*
X61605Y47239D01*
Y57396D01*
X90788Y25535D02*
X85709D01*
X88248D01*
Y12839D01*
X85709Y10300D01*
X83170D01*
X80631Y12839D01*
X95866Y10300D02*
X100944D01*
X98405D01*
Y25535D01*
X95866Y22996D01*
D11*
X175931Y-50050D02*
G03*
X182881Y-57000I6950J0D01*
G01*
X175881Y-4000D02*
G03*
X168931Y2950I-6950J0D01*
G01*
X346181Y-57000D02*
G03*
X353131Y-50050I0J6950D01*
G01*
X360131Y2950D02*
G03*
X353181Y-4000I0J-6950D01*
G01*
X-37253Y38050D02*
X93647Y264775D01*
X-61805Y52225D02*
X-37253Y38050D01*
X-61805Y52225D02*
X69095Y278950D01*
X93647Y264775D01*
X-35521Y37050D02*
X95379Y263775D01*
X119931Y249600D01*
X-10969Y22875D02*
X119931Y249600D01*
X432083Y263775D02*
X562983Y37050D01*
X538431Y22875D02*
X562983Y37050D01*
X407531Y249600D02*
X538431Y22875D01*
X407531Y249600D02*
X432083Y263775D01*
X433765Y264862D02*
X564665Y38136D01*
X433765Y264862D02*
X458317Y279037D01*
X589217Y52311D01*
X564665Y38136D02*
X589217Y52311D01*
X-35521Y37050D02*
X-10969Y22875D01*
X175881Y-50000D02*
Y-4000D01*
X353181Y-50000D02*
Y-4000D01*
X334531Y33000D02*
Y127000D01*
X110531Y3000D02*
X418531D01*
X194531Y33000D02*
Y127000D01*
X110531Y127000D02*
X418531D01*
X182881Y-57000D02*
X346181D01*
X418531Y3000D02*
Y127000D01*
X110531Y3000D02*
Y127000D01*
Y33000D02*
X418531D01*
D21*
X427600Y58494D02*
Y40500D01*
X439596D01*
X457590Y55495D02*
X454591Y58494D01*
X448593D01*
X445594Y55495D01*
Y52496D01*
X448593Y49497D01*
X454591D01*
X457590Y46498D01*
Y43499D01*
X454591Y40500D01*
X448593D01*
X445594Y43499D01*
X463588Y58494D02*
X469586D01*
X466587D01*
Y40500D01*
X463588D01*
X469586D01*
X426100Y85394D02*
Y67400D01*
X435097D01*
X438096Y70399D01*
Y82395D01*
X435097Y85394D01*
X426100D01*
X444094D02*
X450092D01*
X447093D01*
Y67400D01*
X444094D01*
X450092D01*
X471085Y85394D02*
X459089D01*
Y67400D01*
X471085D01*
X459089Y76397D02*
X465087D01*
D23*
X153627Y309496D02*
X144630D01*
X141631Y306497D01*
Y300499D01*
X144630Y297500D01*
X153627D01*
X162624D02*
X168622D01*
X171621Y300499D01*
Y306497D01*
X168622Y309496D01*
X162624D01*
X159625Y306497D01*
Y300499D01*
X162624Y297500D01*
X183617Y291502D02*
X186616D01*
X189615Y294501D01*
Y309496D01*
X180618D01*
X177619Y306497D01*
Y300499D01*
X180618Y297500D01*
X189615D01*
X195613D02*
Y309496D01*
X204610D01*
X207610Y306497D01*
Y297500D01*
X213608D02*
X219606D01*
X216607D01*
Y309496D01*
X213608D01*
X231602Y312495D02*
Y309496D01*
X228603D01*
X234601D01*
X231602D01*
Y300499D01*
X234601Y297500D01*
X243598D02*
X249596D01*
X246597D01*
Y309496D01*
X243598D01*
X258593D02*
X264591Y297500D01*
X270589Y309496D01*
X285584Y297500D02*
X279586D01*
X276587Y300499D01*
Y306497D01*
X279586Y309496D01*
X285584D01*
X288583Y306497D01*
Y303498D01*
X276587D01*
X154031Y277596D02*
Y265600D01*
Y271598D01*
X157030Y274597D01*
X160029Y277596D01*
X163028D01*
X172025Y265600D02*
X181022D01*
X184021Y268599D01*
X181022Y271598D01*
X175024D01*
X172025Y274597D01*
X175024Y277596D01*
X184021D01*
X202015Y265600D02*
X190019D01*
X202015Y277596D01*
Y280595D01*
X199016Y283594D01*
X193018D01*
X190019Y280595D01*
X208013D02*
X211012Y283594D01*
X217010D01*
X220009Y280595D01*
Y277596D01*
X217010Y274597D01*
X214011D01*
X217010D01*
X220009Y271598D01*
Y268599D01*
X217010Y265600D01*
X211012D01*
X208013Y268599D01*
X238004Y265600D02*
X226007D01*
X238004Y277596D01*
Y280595D01*
X235005Y283594D01*
X229007D01*
X226007Y280595D01*
D24*
X329028Y91695D02*
X324029Y89196D01*
X319031Y84198D01*
Y79199D01*
X321530Y76700D01*
X326528D01*
X329028Y79199D01*
Y81698D01*
X326528Y84198D01*
X319031D01*
X200631Y79499D02*
X203130Y77000D01*
X208128D01*
X210628Y79499D01*
Y89496D01*
X208128Y91995D01*
X203130D01*
X200631Y89496D01*
Y86997D01*
X203130Y84498D01*
X210628D01*
X189028Y119995D02*
X179031D01*
Y112498D01*
X184029Y114997D01*
X186528D01*
X189028Y112498D01*
Y107499D01*
X186528Y105000D01*
X181530D01*
X179031Y107499D01*
X342731Y106800D02*
X347729D01*
X345230D01*
Y121795D01*
X342731Y119296D01*
M02*
